G04 #@! TF.GenerationSoftware,KiCad,Pcbnew,5.1.5-52549c5~86~ubuntu19.10.1*
G04 #@! TF.CreationDate,2020-05-06T07:31:02+02:00*
G04 #@! TF.ProjectId,SofleKeyboard,536f666c-654b-4657-9962-6f6172642e6b,rev?*
G04 #@! TF.SameCoordinates,Original*
G04 #@! TF.FileFunction,Soldermask,Top*
G04 #@! TF.FilePolarity,Negative*
%FSLAX46Y46*%
G04 Gerber Fmt 4.6, Leading zero omitted, Abs format (unit mm)*
G04 Created by KiCad (PCBNEW 5.1.5-52549c5~86~ubuntu19.10.1) date 2020-05-06 07:31:02*
%MOMM*%
%LPD*%
G04 APERTURE LIST*
%ADD10C,2.400000*%
%ADD11C,1.600000*%
%ADD12O,2.900000X2.100000*%
%ADD13C,2.152600*%
%ADD14R,2.152600X2.152600*%
%ADD15C,0.100000*%
%ADD16C,3.400000*%
%ADD17C,2.100000*%
%ADD18C,4.400000*%
%ADD19R,2.200000X1.900000*%
%ADD20C,1.797000*%
%ADD21R,1.543000X1.035000*%
%ADD22C,5.100000*%
%ADD23R,3.600000X2.400000*%
%ADD24R,1.924000X1.924000*%
G04 APERTURE END LIST*
D10*
X92280000Y-74552000D03*
X92280000Y-81052000D03*
D11*
X98480000Y-87252000D03*
X91480000Y-87252000D03*
D12*
X100280000Y-89352000D03*
X101780000Y-85152000D03*
X93280000Y-89352000D03*
X96280000Y-89352000D03*
D11*
X91480000Y-85502000D03*
X98480000Y-85502000D03*
D12*
X93280000Y-83402000D03*
X96280000Y-83402000D03*
X100280000Y-83402000D03*
X101780000Y-87602000D03*
D13*
X107848600Y-42740000D03*
X92608600Y-70680000D03*
X107391400Y-45280000D03*
X107848600Y-47820000D03*
X107391400Y-50360000D03*
X107848600Y-52900000D03*
X107391400Y-55440000D03*
X107848600Y-57980000D03*
X107391400Y-60520000D03*
X107848600Y-63060000D03*
X107391400Y-65600000D03*
X107848600Y-68140000D03*
X107391400Y-70680000D03*
X92151400Y-68140000D03*
X92608600Y-65600000D03*
X92151400Y-63060000D03*
X92608600Y-60520000D03*
X92151400Y-57980000D03*
X92608600Y-55440000D03*
X92151400Y-52900000D03*
X92608600Y-50360000D03*
X92151400Y-47820000D03*
X92608600Y-45280000D03*
D14*
X92151400Y-42740000D03*
D15*
G36*
X100131437Y-126255348D02*
G01*
X100135482Y-126264277D01*
X100148082Y-126301397D01*
X100150308Y-126310942D01*
X100155426Y-126349818D01*
X100155746Y-126359616D01*
X100153181Y-126398744D01*
X100151584Y-126408414D01*
X100141440Y-126446269D01*
X100137988Y-126455442D01*
X100120646Y-126490611D01*
X100115470Y-126498935D01*
X100091600Y-126530044D01*
X100084900Y-126537197D01*
X100055428Y-126563044D01*
X100047460Y-126568754D01*
X100030960Y-126579392D01*
X98298910Y-127579392D01*
X98281447Y-127588362D01*
X98272519Y-127592407D01*
X98235398Y-127605007D01*
X98225854Y-127607233D01*
X98186977Y-127612351D01*
X98177180Y-127612672D01*
X98138052Y-127610106D01*
X98128382Y-127608509D01*
X98090437Y-127598332D01*
X98081216Y-127594857D01*
X98063103Y-127586988D01*
X97416692Y-127267373D01*
X97399541Y-127257818D01*
X97391223Y-127252633D01*
X97360141Y-127228728D01*
X97352994Y-127222020D01*
X97327249Y-127192616D01*
X97321574Y-127184689D01*
X97310993Y-127168270D01*
X96410993Y-125609425D01*
X96402023Y-125591962D01*
X96397978Y-125583034D01*
X96385378Y-125545913D01*
X96383152Y-125536368D01*
X96378034Y-125497492D01*
X96377714Y-125487695D01*
X96380279Y-125448567D01*
X96381876Y-125438897D01*
X96392020Y-125401041D01*
X96395472Y-125391868D01*
X96412814Y-125356700D01*
X96417990Y-125348375D01*
X96441860Y-125317266D01*
X96448560Y-125310113D01*
X96478032Y-125284266D01*
X96486000Y-125278556D01*
X96502500Y-125267918D01*
X96719006Y-125142918D01*
X96519006Y-124796508D01*
X96502825Y-124760796D01*
X96493922Y-124722613D01*
X96492639Y-124683428D01*
X96499026Y-124644744D01*
X96512836Y-124608050D01*
X96533540Y-124574756D01*
X96560342Y-124546140D01*
X96592211Y-124523303D01*
X97891249Y-123773303D01*
X97926961Y-123757122D01*
X97965144Y-123748219D01*
X98004330Y-123746936D01*
X98043013Y-123753323D01*
X98079707Y-123767134D01*
X98113001Y-123787837D01*
X98141617Y-123814639D01*
X98164454Y-123846508D01*
X98364454Y-124192918D01*
X98580960Y-124067918D01*
X98598423Y-124058948D01*
X98607352Y-124054903D01*
X98644472Y-124042303D01*
X98654017Y-124040077D01*
X98692893Y-124034959D01*
X98702690Y-124034639D01*
X98741818Y-124037204D01*
X98751488Y-124038801D01*
X98789344Y-124048945D01*
X98798517Y-124052397D01*
X98833685Y-124069739D01*
X98842010Y-124074915D01*
X98873119Y-124098785D01*
X98880272Y-124105485D01*
X98906119Y-124134958D01*
X98911829Y-124142925D01*
X98922467Y-124159425D01*
X100122467Y-126237886D01*
X100131437Y-126255348D01*
G37*
G36*
X104179771Y-138467268D02*
G01*
X104183816Y-138476197D01*
X104196416Y-138513317D01*
X104198642Y-138522862D01*
X104203760Y-138561738D01*
X104204080Y-138571536D01*
X104201515Y-138610664D01*
X104199918Y-138620334D01*
X104189774Y-138658189D01*
X104186322Y-138667362D01*
X104168980Y-138702531D01*
X104163804Y-138710855D01*
X104139934Y-138741964D01*
X104133234Y-138749118D01*
X104103762Y-138774964D01*
X104095794Y-138780674D01*
X104079294Y-138791312D01*
X103862788Y-138916312D01*
X104112788Y-139349325D01*
X104128969Y-139385037D01*
X104137872Y-139423220D01*
X104139155Y-139462405D01*
X104132768Y-139501089D01*
X104118958Y-139537783D01*
X104098254Y-139571077D01*
X104071452Y-139599693D01*
X104039583Y-139622530D01*
X102740545Y-140372530D01*
X102704833Y-140388711D01*
X102666650Y-140397614D01*
X102627464Y-140398897D01*
X102588781Y-140392510D01*
X102552087Y-140378699D01*
X102518793Y-140357996D01*
X102490177Y-140331194D01*
X102467340Y-140299325D01*
X102217340Y-139866312D01*
X102000834Y-139991312D01*
X101983371Y-140000282D01*
X101974442Y-140004327D01*
X101937322Y-140016928D01*
X101927777Y-140019153D01*
X101888901Y-140024271D01*
X101879104Y-140024592D01*
X101839976Y-140022026D01*
X101830306Y-140020429D01*
X101792450Y-140010286D01*
X101783277Y-140006834D01*
X101748109Y-139989492D01*
X101739784Y-139984315D01*
X101708675Y-139960445D01*
X101701522Y-139953745D01*
X101675675Y-139924273D01*
X101669965Y-139916305D01*
X101659327Y-139899806D01*
X100459327Y-137821345D01*
X100450357Y-137803882D01*
X100446312Y-137794954D01*
X100433712Y-137757834D01*
X100431486Y-137748289D01*
X100426368Y-137709412D01*
X100426048Y-137699615D01*
X100428613Y-137660487D01*
X100430210Y-137650817D01*
X100440354Y-137612962D01*
X100443806Y-137603789D01*
X100461148Y-137568620D01*
X100466324Y-137560296D01*
X100490194Y-137529186D01*
X100496894Y-137522033D01*
X100526366Y-137496186D01*
X100534334Y-137490477D01*
X100550834Y-137479839D01*
X102629294Y-136279839D01*
X102646757Y-136270869D01*
X102655686Y-136266823D01*
X102692806Y-136254223D01*
X102702351Y-136251997D01*
X102741227Y-136246880D01*
X102751024Y-136246559D01*
X102790152Y-136249125D01*
X102799822Y-136250722D01*
X102837678Y-136260865D01*
X102846851Y-136264317D01*
X102882019Y-136281659D01*
X102890344Y-136286835D01*
X102921453Y-136310706D01*
X102928606Y-136317406D01*
X102954453Y-136346878D01*
X102960163Y-136354845D01*
X102970801Y-136371345D01*
X104170801Y-138449806D01*
X104179771Y-138467268D01*
G37*
D16*
X96994705Y-128840443D03*
D17*
X94160000Y-129010591D03*
X99240000Y-137809409D03*
D18*
X96700000Y-133410000D03*
D16*
X102369409Y-133069705D03*
X99829409Y-128670295D03*
X100804705Y-135439557D03*
D15*
G36*
X173019608Y-117150963D02*
G01*
X173029363Y-117151924D01*
X173067810Y-117159572D01*
X173077189Y-117162417D01*
X173113416Y-117177423D01*
X173122061Y-117182044D01*
X173154664Y-117203830D01*
X173162240Y-117210048D01*
X173189952Y-117237760D01*
X173196170Y-117245336D01*
X173217956Y-117277939D01*
X173222577Y-117286584D01*
X173237583Y-117322811D01*
X173240428Y-117332190D01*
X173248076Y-117370637D01*
X173249037Y-117380392D01*
X173250000Y-117400000D01*
X173250000Y-119400000D01*
X173249037Y-119419608D01*
X173248076Y-119429363D01*
X173240428Y-119467810D01*
X173237583Y-119477189D01*
X173222577Y-119513416D01*
X173217956Y-119522061D01*
X173196170Y-119554664D01*
X173189952Y-119562240D01*
X173162166Y-119590013D01*
X173154546Y-119596261D01*
X173138675Y-119608013D01*
X172538675Y-120008013D01*
X172521824Y-120018089D01*
X172513175Y-120022700D01*
X172476932Y-120037666D01*
X172467549Y-120040501D01*
X172429212Y-120048095D01*
X172419509Y-120049046D01*
X172400000Y-120050000D01*
X170600000Y-120050000D01*
X170580392Y-120049037D01*
X170570637Y-120048076D01*
X170532190Y-120040428D01*
X170522811Y-120037583D01*
X170486584Y-120022577D01*
X170477939Y-120017956D01*
X170445336Y-119996170D01*
X170437760Y-119989952D01*
X170410048Y-119962240D01*
X170403830Y-119954664D01*
X170382044Y-119922061D01*
X170377423Y-119913416D01*
X170362417Y-119877189D01*
X170359572Y-119867810D01*
X170351924Y-119829363D01*
X170350963Y-119819608D01*
X170350000Y-119800000D01*
X170350000Y-119550000D01*
X169950000Y-119550000D01*
X169910982Y-119546157D01*
X169873463Y-119534776D01*
X169838886Y-119516294D01*
X169808579Y-119491421D01*
X169783706Y-119461114D01*
X169765224Y-119426537D01*
X169753843Y-119389018D01*
X169750000Y-119350000D01*
X169750000Y-117850000D01*
X169753843Y-117810982D01*
X169765224Y-117773463D01*
X169783706Y-117738886D01*
X169808579Y-117708579D01*
X169838886Y-117683706D01*
X169873463Y-117665224D01*
X169910982Y-117653843D01*
X169950000Y-117650000D01*
X170350000Y-117650000D01*
X170350000Y-117400000D01*
X170350963Y-117380392D01*
X170351924Y-117370637D01*
X170359572Y-117332190D01*
X170362417Y-117322811D01*
X170377423Y-117286584D01*
X170382044Y-117277939D01*
X170403830Y-117245336D01*
X170410048Y-117237760D01*
X170437760Y-117210048D01*
X170445336Y-117203830D01*
X170477939Y-117182044D01*
X170486584Y-117177423D01*
X170522811Y-117162417D01*
X170532190Y-117159572D01*
X170570637Y-117151924D01*
X170580392Y-117150963D01*
X170600000Y-117150000D01*
X173000000Y-117150000D01*
X173019608Y-117150963D01*
G37*
G36*
X185619608Y-119750963D02*
G01*
X185629363Y-119751924D01*
X185667810Y-119759572D01*
X185677189Y-119762417D01*
X185713416Y-119777423D01*
X185722061Y-119782044D01*
X185754664Y-119803830D01*
X185762240Y-119810048D01*
X185789952Y-119837760D01*
X185796170Y-119845336D01*
X185817956Y-119877939D01*
X185822577Y-119886584D01*
X185837583Y-119922811D01*
X185840428Y-119932190D01*
X185848076Y-119970637D01*
X185849037Y-119980392D01*
X185850000Y-120000000D01*
X185850000Y-120250000D01*
X186350000Y-120250000D01*
X186389018Y-120253843D01*
X186426537Y-120265224D01*
X186461114Y-120283706D01*
X186491421Y-120308579D01*
X186516294Y-120338886D01*
X186534776Y-120373463D01*
X186546157Y-120410982D01*
X186550000Y-120450000D01*
X186550000Y-121950000D01*
X186546157Y-121989018D01*
X186534776Y-122026537D01*
X186516294Y-122061114D01*
X186491421Y-122091421D01*
X186461114Y-122116294D01*
X186426537Y-122134776D01*
X186389018Y-122146157D01*
X186350000Y-122150000D01*
X185850000Y-122150000D01*
X185850000Y-122400000D01*
X185849037Y-122419608D01*
X185848076Y-122429363D01*
X185840428Y-122467810D01*
X185837583Y-122477189D01*
X185822577Y-122513416D01*
X185817956Y-122522061D01*
X185796170Y-122554664D01*
X185789952Y-122562240D01*
X185762240Y-122589952D01*
X185754664Y-122596170D01*
X185722061Y-122617956D01*
X185713416Y-122622577D01*
X185677189Y-122637583D01*
X185667810Y-122640428D01*
X185629363Y-122648076D01*
X185619608Y-122649037D01*
X185600000Y-122650000D01*
X183200000Y-122650000D01*
X183180392Y-122649037D01*
X183170637Y-122648076D01*
X183132190Y-122640428D01*
X183122811Y-122637583D01*
X183086584Y-122622577D01*
X183077939Y-122617956D01*
X183045336Y-122596170D01*
X183037760Y-122589952D01*
X183010048Y-122562240D01*
X183003830Y-122554664D01*
X182982044Y-122522061D01*
X182977423Y-122513416D01*
X182962417Y-122477189D01*
X182959572Y-122467810D01*
X182951924Y-122429363D01*
X182950963Y-122419608D01*
X182950000Y-122400000D01*
X182950000Y-120000000D01*
X182950963Y-119980392D01*
X182951924Y-119970637D01*
X182959572Y-119932190D01*
X182962417Y-119922811D01*
X182977423Y-119886584D01*
X182982044Y-119877939D01*
X183003830Y-119845336D01*
X183010048Y-119837760D01*
X183037760Y-119810048D01*
X183045336Y-119803830D01*
X183077939Y-119782044D01*
X183086584Y-119777423D01*
X183122811Y-119762417D01*
X183132190Y-119759572D01*
X183170637Y-119751924D01*
X183180392Y-119750963D01*
X183200000Y-119750000D01*
X185600000Y-119750000D01*
X185619608Y-119750963D01*
G37*
D16*
X173690000Y-121159999D03*
D17*
X172420000Y-123700000D03*
X182580000Y-123700000D03*
D18*
X177500000Y-123700000D03*
D16*
X180040000Y-118620000D03*
X174960000Y-118620000D03*
X181310000Y-121160000D03*
D15*
G36*
X154019608Y-114650963D02*
G01*
X154029363Y-114651924D01*
X154067810Y-114659572D01*
X154077189Y-114662417D01*
X154113416Y-114677423D01*
X154122061Y-114682044D01*
X154154664Y-114703830D01*
X154162240Y-114710048D01*
X154189952Y-114737760D01*
X154196170Y-114745336D01*
X154217956Y-114777939D01*
X154222577Y-114786584D01*
X154237583Y-114822811D01*
X154240428Y-114832190D01*
X154248076Y-114870637D01*
X154249037Y-114880392D01*
X154250000Y-114900000D01*
X154250000Y-116900000D01*
X154249037Y-116919608D01*
X154248076Y-116929363D01*
X154240428Y-116967810D01*
X154237583Y-116977189D01*
X154222577Y-117013416D01*
X154217956Y-117022061D01*
X154196170Y-117054664D01*
X154189952Y-117062240D01*
X154162166Y-117090013D01*
X154154546Y-117096261D01*
X154138675Y-117108013D01*
X153538675Y-117508013D01*
X153521824Y-117518089D01*
X153513175Y-117522700D01*
X153476932Y-117537666D01*
X153467549Y-117540501D01*
X153429212Y-117548095D01*
X153419509Y-117549046D01*
X153400000Y-117550000D01*
X151600000Y-117550000D01*
X151580392Y-117549037D01*
X151570637Y-117548076D01*
X151532190Y-117540428D01*
X151522811Y-117537583D01*
X151486584Y-117522577D01*
X151477939Y-117517956D01*
X151445336Y-117496170D01*
X151437760Y-117489952D01*
X151410048Y-117462240D01*
X151403830Y-117454664D01*
X151382044Y-117422061D01*
X151377423Y-117413416D01*
X151362417Y-117377189D01*
X151359572Y-117367810D01*
X151351924Y-117329363D01*
X151350963Y-117319608D01*
X151350000Y-117300000D01*
X151350000Y-117050000D01*
X150950000Y-117050000D01*
X150910982Y-117046157D01*
X150873463Y-117034776D01*
X150838886Y-117016294D01*
X150808579Y-116991421D01*
X150783706Y-116961114D01*
X150765224Y-116926537D01*
X150753843Y-116889018D01*
X150750000Y-116850000D01*
X150750000Y-115350000D01*
X150753843Y-115310982D01*
X150765224Y-115273463D01*
X150783706Y-115238886D01*
X150808579Y-115208579D01*
X150838886Y-115183706D01*
X150873463Y-115165224D01*
X150910982Y-115153843D01*
X150950000Y-115150000D01*
X151350000Y-115150000D01*
X151350000Y-114900000D01*
X151350963Y-114880392D01*
X151351924Y-114870637D01*
X151359572Y-114832190D01*
X151362417Y-114822811D01*
X151377423Y-114786584D01*
X151382044Y-114777939D01*
X151403830Y-114745336D01*
X151410048Y-114737760D01*
X151437760Y-114710048D01*
X151445336Y-114703830D01*
X151477939Y-114682044D01*
X151486584Y-114677423D01*
X151522811Y-114662417D01*
X151532190Y-114659572D01*
X151570637Y-114651924D01*
X151580392Y-114650963D01*
X151600000Y-114650000D01*
X154000000Y-114650000D01*
X154019608Y-114650963D01*
G37*
G36*
X166619608Y-117250963D02*
G01*
X166629363Y-117251924D01*
X166667810Y-117259572D01*
X166677189Y-117262417D01*
X166713416Y-117277423D01*
X166722061Y-117282044D01*
X166754664Y-117303830D01*
X166762240Y-117310048D01*
X166789952Y-117337760D01*
X166796170Y-117345336D01*
X166817956Y-117377939D01*
X166822577Y-117386584D01*
X166837583Y-117422811D01*
X166840428Y-117432190D01*
X166848076Y-117470637D01*
X166849037Y-117480392D01*
X166850000Y-117500000D01*
X166850000Y-117750000D01*
X167350000Y-117750000D01*
X167389018Y-117753843D01*
X167426537Y-117765224D01*
X167461114Y-117783706D01*
X167491421Y-117808579D01*
X167516294Y-117838886D01*
X167534776Y-117873463D01*
X167546157Y-117910982D01*
X167550000Y-117950000D01*
X167550000Y-119450000D01*
X167546157Y-119489018D01*
X167534776Y-119526537D01*
X167516294Y-119561114D01*
X167491421Y-119591421D01*
X167461114Y-119616294D01*
X167426537Y-119634776D01*
X167389018Y-119646157D01*
X167350000Y-119650000D01*
X166850000Y-119650000D01*
X166850000Y-119900000D01*
X166849037Y-119919608D01*
X166848076Y-119929363D01*
X166840428Y-119967810D01*
X166837583Y-119977189D01*
X166822577Y-120013416D01*
X166817956Y-120022061D01*
X166796170Y-120054664D01*
X166789952Y-120062240D01*
X166762240Y-120089952D01*
X166754664Y-120096170D01*
X166722061Y-120117956D01*
X166713416Y-120122577D01*
X166677189Y-120137583D01*
X166667810Y-120140428D01*
X166629363Y-120148076D01*
X166619608Y-120149037D01*
X166600000Y-120150000D01*
X164200000Y-120150000D01*
X164180392Y-120149037D01*
X164170637Y-120148076D01*
X164132190Y-120140428D01*
X164122811Y-120137583D01*
X164086584Y-120122577D01*
X164077939Y-120117956D01*
X164045336Y-120096170D01*
X164037760Y-120089952D01*
X164010048Y-120062240D01*
X164003830Y-120054664D01*
X163982044Y-120022061D01*
X163977423Y-120013416D01*
X163962417Y-119977189D01*
X163959572Y-119967810D01*
X163951924Y-119929363D01*
X163950963Y-119919608D01*
X163950000Y-119900000D01*
X163950000Y-117500000D01*
X163950963Y-117480392D01*
X163951924Y-117470637D01*
X163959572Y-117432190D01*
X163962417Y-117422811D01*
X163977423Y-117386584D01*
X163982044Y-117377939D01*
X164003830Y-117345336D01*
X164010048Y-117337760D01*
X164037760Y-117310048D01*
X164045336Y-117303830D01*
X164077939Y-117282044D01*
X164086584Y-117277423D01*
X164122811Y-117262417D01*
X164132190Y-117259572D01*
X164170637Y-117251924D01*
X164180392Y-117250963D01*
X164200000Y-117250000D01*
X166600000Y-117250000D01*
X166619608Y-117250963D01*
G37*
D16*
X154690000Y-118659999D03*
D17*
X153420000Y-121200000D03*
X163580000Y-121200000D03*
D18*
X158500000Y-121200000D03*
D16*
X161040000Y-116120000D03*
X155960000Y-116120000D03*
X162310000Y-118660000D03*
D15*
G36*
X135019608Y-117250963D02*
G01*
X135029363Y-117251924D01*
X135067810Y-117259572D01*
X135077189Y-117262417D01*
X135113416Y-117277423D01*
X135122061Y-117282044D01*
X135154664Y-117303830D01*
X135162240Y-117310048D01*
X135189952Y-117337760D01*
X135196170Y-117345336D01*
X135217956Y-117377939D01*
X135222577Y-117386584D01*
X135237583Y-117422811D01*
X135240428Y-117432190D01*
X135248076Y-117470637D01*
X135249037Y-117480392D01*
X135250000Y-117500000D01*
X135250000Y-119500000D01*
X135249037Y-119519608D01*
X135248076Y-119529363D01*
X135240428Y-119567810D01*
X135237583Y-119577189D01*
X135222577Y-119613416D01*
X135217956Y-119622061D01*
X135196170Y-119654664D01*
X135189952Y-119662240D01*
X135162166Y-119690013D01*
X135154546Y-119696261D01*
X135138675Y-119708013D01*
X134538675Y-120108013D01*
X134521824Y-120118089D01*
X134513175Y-120122700D01*
X134476932Y-120137666D01*
X134467549Y-120140501D01*
X134429212Y-120148095D01*
X134419509Y-120149046D01*
X134400000Y-120150000D01*
X132600000Y-120150000D01*
X132580392Y-120149037D01*
X132570637Y-120148076D01*
X132532190Y-120140428D01*
X132522811Y-120137583D01*
X132486584Y-120122577D01*
X132477939Y-120117956D01*
X132445336Y-120096170D01*
X132437760Y-120089952D01*
X132410048Y-120062240D01*
X132403830Y-120054664D01*
X132382044Y-120022061D01*
X132377423Y-120013416D01*
X132362417Y-119977189D01*
X132359572Y-119967810D01*
X132351924Y-119929363D01*
X132350963Y-119919608D01*
X132350000Y-119900000D01*
X132350000Y-119650000D01*
X131950000Y-119650000D01*
X131910982Y-119646157D01*
X131873463Y-119634776D01*
X131838886Y-119616294D01*
X131808579Y-119591421D01*
X131783706Y-119561114D01*
X131765224Y-119526537D01*
X131753843Y-119489018D01*
X131750000Y-119450000D01*
X131750000Y-117950000D01*
X131753843Y-117910982D01*
X131765224Y-117873463D01*
X131783706Y-117838886D01*
X131808579Y-117808579D01*
X131838886Y-117783706D01*
X131873463Y-117765224D01*
X131910982Y-117753843D01*
X131950000Y-117750000D01*
X132350000Y-117750000D01*
X132350000Y-117500000D01*
X132350963Y-117480392D01*
X132351924Y-117470637D01*
X132359572Y-117432190D01*
X132362417Y-117422811D01*
X132377423Y-117386584D01*
X132382044Y-117377939D01*
X132403830Y-117345336D01*
X132410048Y-117337760D01*
X132437760Y-117310048D01*
X132445336Y-117303830D01*
X132477939Y-117282044D01*
X132486584Y-117277423D01*
X132522811Y-117262417D01*
X132532190Y-117259572D01*
X132570637Y-117251924D01*
X132580392Y-117250963D01*
X132600000Y-117250000D01*
X135000000Y-117250000D01*
X135019608Y-117250963D01*
G37*
G36*
X147619608Y-119850963D02*
G01*
X147629363Y-119851924D01*
X147667810Y-119859572D01*
X147677189Y-119862417D01*
X147713416Y-119877423D01*
X147722061Y-119882044D01*
X147754664Y-119903830D01*
X147762240Y-119910048D01*
X147789952Y-119937760D01*
X147796170Y-119945336D01*
X147817956Y-119977939D01*
X147822577Y-119986584D01*
X147837583Y-120022811D01*
X147840428Y-120032190D01*
X147848076Y-120070637D01*
X147849037Y-120080392D01*
X147850000Y-120100000D01*
X147850000Y-120350000D01*
X148350000Y-120350000D01*
X148389018Y-120353843D01*
X148426537Y-120365224D01*
X148461114Y-120383706D01*
X148491421Y-120408579D01*
X148516294Y-120438886D01*
X148534776Y-120473463D01*
X148546157Y-120510982D01*
X148550000Y-120550000D01*
X148550000Y-122050000D01*
X148546157Y-122089018D01*
X148534776Y-122126537D01*
X148516294Y-122161114D01*
X148491421Y-122191421D01*
X148461114Y-122216294D01*
X148426537Y-122234776D01*
X148389018Y-122246157D01*
X148350000Y-122250000D01*
X147850000Y-122250000D01*
X147850000Y-122500000D01*
X147849037Y-122519608D01*
X147848076Y-122529363D01*
X147840428Y-122567810D01*
X147837583Y-122577189D01*
X147822577Y-122613416D01*
X147817956Y-122622061D01*
X147796170Y-122654664D01*
X147789952Y-122662240D01*
X147762240Y-122689952D01*
X147754664Y-122696170D01*
X147722061Y-122717956D01*
X147713416Y-122722577D01*
X147677189Y-122737583D01*
X147667810Y-122740428D01*
X147629363Y-122748076D01*
X147619608Y-122749037D01*
X147600000Y-122750000D01*
X145200000Y-122750000D01*
X145180392Y-122749037D01*
X145170637Y-122748076D01*
X145132190Y-122740428D01*
X145122811Y-122737583D01*
X145086584Y-122722577D01*
X145077939Y-122717956D01*
X145045336Y-122696170D01*
X145037760Y-122689952D01*
X145010048Y-122662240D01*
X145003830Y-122654664D01*
X144982044Y-122622061D01*
X144977423Y-122613416D01*
X144962417Y-122577189D01*
X144959572Y-122567810D01*
X144951924Y-122529363D01*
X144950963Y-122519608D01*
X144950000Y-122500000D01*
X144950000Y-120100000D01*
X144950963Y-120080392D01*
X144951924Y-120070637D01*
X144959572Y-120032190D01*
X144962417Y-120022811D01*
X144977423Y-119986584D01*
X144982044Y-119977939D01*
X145003830Y-119945336D01*
X145010048Y-119937760D01*
X145037760Y-119910048D01*
X145045336Y-119903830D01*
X145077939Y-119882044D01*
X145086584Y-119877423D01*
X145122811Y-119862417D01*
X145132190Y-119859572D01*
X145170637Y-119851924D01*
X145180392Y-119850963D01*
X145200000Y-119850000D01*
X147600000Y-119850000D01*
X147619608Y-119850963D01*
G37*
D16*
X135690000Y-121259999D03*
D17*
X134420000Y-123800000D03*
X144580000Y-123800000D03*
D18*
X139500000Y-123800000D03*
D16*
X142040000Y-118720000D03*
X136960000Y-118720000D03*
X143310000Y-121260000D03*
D15*
G36*
X110916865Y-124122208D02*
G01*
X110926220Y-124119281D01*
X110964598Y-124111299D01*
X110974344Y-124110253D01*
X111013554Y-124109911D01*
X111023317Y-124110787D01*
X111061841Y-124118102D01*
X111071244Y-124120865D01*
X111107581Y-124135546D01*
X111116265Y-124140090D01*
X111149058Y-124161589D01*
X111156690Y-124167741D01*
X111184658Y-124195225D01*
X111190941Y-124202747D01*
X111213004Y-124235149D01*
X111217700Y-124243753D01*
X111226248Y-124261426D01*
X112007710Y-126102436D01*
X112014485Y-126120862D01*
X112017412Y-126130217D01*
X112025395Y-126168596D01*
X112026440Y-126178341D01*
X112026782Y-126217551D01*
X112025907Y-126227314D01*
X112018591Y-126265838D01*
X112015828Y-126275241D01*
X112001103Y-126311663D01*
X111996530Y-126320392D01*
X111986512Y-126337411D01*
X111590502Y-126940052D01*
X111578927Y-126955911D01*
X111572768Y-126963535D01*
X111545253Y-126991472D01*
X111537724Y-126997748D01*
X111505402Y-127019718D01*
X111496842Y-127024385D01*
X111479256Y-127032886D01*
X109822348Y-127736202D01*
X109803922Y-127742977D01*
X109794567Y-127745904D01*
X109756188Y-127753886D01*
X109746443Y-127754932D01*
X109707233Y-127755274D01*
X109697469Y-127754398D01*
X109658946Y-127747083D01*
X109649542Y-127744319D01*
X109613205Y-127729638D01*
X109604521Y-127725094D01*
X109571728Y-127703595D01*
X109564097Y-127697443D01*
X109536129Y-127669959D01*
X109529845Y-127662438D01*
X109507783Y-127630035D01*
X109503086Y-127621431D01*
X109494539Y-127603758D01*
X109396856Y-127373632D01*
X109028654Y-127529925D01*
X108991236Y-127541633D01*
X108952253Y-127545816D01*
X108913203Y-127542314D01*
X108875587Y-127531260D01*
X108840849Y-127513081D01*
X108810326Y-127488474D01*
X108785190Y-127458384D01*
X108766407Y-127423970D01*
X108180310Y-126043212D01*
X108168602Y-126005795D01*
X108164418Y-125966811D01*
X108167921Y-125927762D01*
X108178975Y-125890145D01*
X108197154Y-125855408D01*
X108221761Y-125824884D01*
X108251850Y-125799748D01*
X108286265Y-125780965D01*
X108654467Y-125624673D01*
X108556784Y-125394547D01*
X108550009Y-125376121D01*
X108547082Y-125366766D01*
X108539099Y-125328387D01*
X108538054Y-125318642D01*
X108537712Y-125279432D01*
X108538588Y-125269668D01*
X108545903Y-125231145D01*
X108548666Y-125221741D01*
X108563347Y-125185404D01*
X108567891Y-125176720D01*
X108589390Y-125143927D01*
X108595542Y-125136296D01*
X108623026Y-125108328D01*
X108630548Y-125102044D01*
X108662950Y-125079982D01*
X108671554Y-125075286D01*
X108689227Y-125066738D01*
X110898439Y-124128983D01*
X110916865Y-124122208D01*
G37*
G36*
X123531126Y-121592308D02*
G01*
X123540481Y-121589381D01*
X123578860Y-121581399D01*
X123588605Y-121580353D01*
X123627816Y-121580011D01*
X123637579Y-121580887D01*
X123676103Y-121588202D01*
X123685506Y-121590966D01*
X123721843Y-121605647D01*
X123730527Y-121610191D01*
X123763320Y-121631690D01*
X123770952Y-121637842D01*
X123798920Y-121665326D01*
X123805203Y-121672847D01*
X123827266Y-121705250D01*
X123831962Y-121713854D01*
X123840510Y-121731527D01*
X123938193Y-121961653D01*
X124398445Y-121766287D01*
X124435863Y-121754579D01*
X124474846Y-121750396D01*
X124513896Y-121753898D01*
X124551512Y-121764952D01*
X124586250Y-121783131D01*
X124616773Y-121807738D01*
X124641909Y-121837828D01*
X124660692Y-121872242D01*
X125246789Y-123253000D01*
X125258497Y-123290417D01*
X125262681Y-123329401D01*
X125259178Y-123368450D01*
X125248124Y-123406067D01*
X125229945Y-123440804D01*
X125205338Y-123471328D01*
X125175249Y-123496464D01*
X125140834Y-123515247D01*
X124680582Y-123710612D01*
X124778265Y-123940738D01*
X124785040Y-123959164D01*
X124787967Y-123968519D01*
X124795949Y-124006898D01*
X124796995Y-124016643D01*
X124797337Y-124055853D01*
X124796461Y-124065617D01*
X124789146Y-124104141D01*
X124786382Y-124113544D01*
X124771701Y-124149881D01*
X124767157Y-124158565D01*
X124745658Y-124191358D01*
X124739506Y-124198989D01*
X124712022Y-124226957D01*
X124704501Y-124233241D01*
X124672098Y-124255303D01*
X124663494Y-124260000D01*
X124645821Y-124268547D01*
X122436610Y-125206302D01*
X122418184Y-125213077D01*
X122408829Y-125216004D01*
X122370450Y-125223987D01*
X122360705Y-125225032D01*
X122321495Y-125225374D01*
X122311731Y-125224499D01*
X122273208Y-125217183D01*
X122263804Y-125214420D01*
X122227467Y-125199739D01*
X122218783Y-125195195D01*
X122185990Y-125173696D01*
X122178359Y-125167544D01*
X122150391Y-125140060D01*
X122144107Y-125132538D01*
X122122045Y-125100136D01*
X122117348Y-125091532D01*
X122108801Y-125073859D01*
X121171046Y-122864647D01*
X121164271Y-122846222D01*
X121161344Y-122836867D01*
X121153361Y-122798488D01*
X121152316Y-122788743D01*
X121151974Y-122749532D01*
X121152849Y-122739769D01*
X121160165Y-122701245D01*
X121162928Y-122691842D01*
X121177609Y-122655505D01*
X121182153Y-122646821D01*
X121203652Y-122614028D01*
X121209804Y-122606396D01*
X121237288Y-122578428D01*
X121244810Y-122572145D01*
X121277212Y-122550082D01*
X121285816Y-122545386D01*
X121303489Y-122536838D01*
X123512701Y-121599083D01*
X123531126Y-121592308D01*
G37*
D16*
X113100419Y-127550602D03*
D17*
X112923835Y-130384914D03*
X122276165Y-126415086D03*
D18*
X117600000Y-128400000D03*
D16*
X117953168Y-122731378D03*
X113277004Y-124716292D03*
X120114666Y-124573232D03*
D15*
G36*
X211069608Y-107050963D02*
G01*
X211079363Y-107051924D01*
X211117810Y-107059572D01*
X211127189Y-107062417D01*
X211163416Y-107077423D01*
X211172061Y-107082044D01*
X211204664Y-107103830D01*
X211212240Y-107110048D01*
X211239952Y-107137760D01*
X211246170Y-107145336D01*
X211267956Y-107177939D01*
X211272577Y-107186584D01*
X211287583Y-107222811D01*
X211290428Y-107232190D01*
X211298076Y-107270637D01*
X211299037Y-107280392D01*
X211300000Y-107300000D01*
X211300000Y-109300000D01*
X211299037Y-109319608D01*
X211298076Y-109329363D01*
X211290428Y-109367810D01*
X211287583Y-109377189D01*
X211272577Y-109413416D01*
X211267956Y-109422061D01*
X211246170Y-109454664D01*
X211239952Y-109462240D01*
X211212166Y-109490013D01*
X211204546Y-109496261D01*
X211188675Y-109508013D01*
X210588675Y-109908013D01*
X210571824Y-109918089D01*
X210563175Y-109922700D01*
X210526932Y-109937666D01*
X210517549Y-109940501D01*
X210479212Y-109948095D01*
X210469509Y-109949046D01*
X210450000Y-109950000D01*
X208650000Y-109950000D01*
X208630392Y-109949037D01*
X208620637Y-109948076D01*
X208582190Y-109940428D01*
X208572811Y-109937583D01*
X208536584Y-109922577D01*
X208527939Y-109917956D01*
X208495336Y-109896170D01*
X208487760Y-109889952D01*
X208460048Y-109862240D01*
X208453830Y-109854664D01*
X208432044Y-109822061D01*
X208427423Y-109813416D01*
X208412417Y-109777189D01*
X208409572Y-109767810D01*
X208401924Y-109729363D01*
X208400963Y-109719608D01*
X208400000Y-109700000D01*
X208400000Y-109450000D01*
X208000000Y-109450000D01*
X207960982Y-109446157D01*
X207923463Y-109434776D01*
X207888886Y-109416294D01*
X207858579Y-109391421D01*
X207833706Y-109361114D01*
X207815224Y-109326537D01*
X207803843Y-109289018D01*
X207800000Y-109250000D01*
X207800000Y-107750000D01*
X207803843Y-107710982D01*
X207815224Y-107673463D01*
X207833706Y-107638886D01*
X207858579Y-107608579D01*
X207888886Y-107583706D01*
X207923463Y-107565224D01*
X207960982Y-107553843D01*
X208000000Y-107550000D01*
X208400000Y-107550000D01*
X208400000Y-107300000D01*
X208400963Y-107280392D01*
X208401924Y-107270637D01*
X208409572Y-107232190D01*
X208412417Y-107222811D01*
X208427423Y-107186584D01*
X208432044Y-107177939D01*
X208453830Y-107145336D01*
X208460048Y-107137760D01*
X208487760Y-107110048D01*
X208495336Y-107103830D01*
X208527939Y-107082044D01*
X208536584Y-107077423D01*
X208572811Y-107062417D01*
X208582190Y-107059572D01*
X208620637Y-107051924D01*
X208630392Y-107050963D01*
X208650000Y-107050000D01*
X211050000Y-107050000D01*
X211069608Y-107050963D01*
G37*
G36*
X223669608Y-109650963D02*
G01*
X223679363Y-109651924D01*
X223717810Y-109659572D01*
X223727189Y-109662417D01*
X223763416Y-109677423D01*
X223772061Y-109682044D01*
X223804664Y-109703830D01*
X223812240Y-109710048D01*
X223839952Y-109737760D01*
X223846170Y-109745336D01*
X223867956Y-109777939D01*
X223872577Y-109786584D01*
X223887583Y-109822811D01*
X223890428Y-109832190D01*
X223898076Y-109870637D01*
X223899037Y-109880392D01*
X223900000Y-109900000D01*
X223900000Y-110150000D01*
X224400000Y-110150000D01*
X224439018Y-110153843D01*
X224476537Y-110165224D01*
X224511114Y-110183706D01*
X224541421Y-110208579D01*
X224566294Y-110238886D01*
X224584776Y-110273463D01*
X224596157Y-110310982D01*
X224600000Y-110350000D01*
X224600000Y-111850000D01*
X224596157Y-111889018D01*
X224584776Y-111926537D01*
X224566294Y-111961114D01*
X224541421Y-111991421D01*
X224511114Y-112016294D01*
X224476537Y-112034776D01*
X224439018Y-112046157D01*
X224400000Y-112050000D01*
X223900000Y-112050000D01*
X223900000Y-112300000D01*
X223899037Y-112319608D01*
X223898076Y-112329363D01*
X223890428Y-112367810D01*
X223887583Y-112377189D01*
X223872577Y-112413416D01*
X223867956Y-112422061D01*
X223846170Y-112454664D01*
X223839952Y-112462240D01*
X223812240Y-112489952D01*
X223804664Y-112496170D01*
X223772061Y-112517956D01*
X223763416Y-112522577D01*
X223727189Y-112537583D01*
X223717810Y-112540428D01*
X223679363Y-112548076D01*
X223669608Y-112549037D01*
X223650000Y-112550000D01*
X221250000Y-112550000D01*
X221230392Y-112549037D01*
X221220637Y-112548076D01*
X221182190Y-112540428D01*
X221172811Y-112537583D01*
X221136584Y-112522577D01*
X221127939Y-112517956D01*
X221095336Y-112496170D01*
X221087760Y-112489952D01*
X221060048Y-112462240D01*
X221053830Y-112454664D01*
X221032044Y-112422061D01*
X221027423Y-112413416D01*
X221012417Y-112377189D01*
X221009572Y-112367810D01*
X221001924Y-112329363D01*
X221000963Y-112319608D01*
X221000000Y-112300000D01*
X221000000Y-109900000D01*
X221000963Y-109880392D01*
X221001924Y-109870637D01*
X221009572Y-109832190D01*
X221012417Y-109822811D01*
X221027423Y-109786584D01*
X221032044Y-109777939D01*
X221053830Y-109745336D01*
X221060048Y-109737760D01*
X221087760Y-109710048D01*
X221095336Y-109703830D01*
X221127939Y-109682044D01*
X221136584Y-109677423D01*
X221172811Y-109662417D01*
X221182190Y-109659572D01*
X221220637Y-109651924D01*
X221230392Y-109650963D01*
X221250000Y-109650000D01*
X223650000Y-109650000D01*
X223669608Y-109650963D01*
G37*
D16*
X211740000Y-111059999D03*
D17*
X210470000Y-113600000D03*
X220630000Y-113600000D03*
D18*
X215550000Y-113600000D03*
D16*
X218090000Y-108520000D03*
X213010000Y-108520000D03*
X219360000Y-111060000D03*
D15*
G36*
X192019608Y-107050963D02*
G01*
X192029363Y-107051924D01*
X192067810Y-107059572D01*
X192077189Y-107062417D01*
X192113416Y-107077423D01*
X192122061Y-107082044D01*
X192154664Y-107103830D01*
X192162240Y-107110048D01*
X192189952Y-107137760D01*
X192196170Y-107145336D01*
X192217956Y-107177939D01*
X192222577Y-107186584D01*
X192237583Y-107222811D01*
X192240428Y-107232190D01*
X192248076Y-107270637D01*
X192249037Y-107280392D01*
X192250000Y-107300000D01*
X192250000Y-109300000D01*
X192249037Y-109319608D01*
X192248076Y-109329363D01*
X192240428Y-109367810D01*
X192237583Y-109377189D01*
X192222577Y-109413416D01*
X192217956Y-109422061D01*
X192196170Y-109454664D01*
X192189952Y-109462240D01*
X192162166Y-109490013D01*
X192154546Y-109496261D01*
X192138675Y-109508013D01*
X191538675Y-109908013D01*
X191521824Y-109918089D01*
X191513175Y-109922700D01*
X191476932Y-109937666D01*
X191467549Y-109940501D01*
X191429212Y-109948095D01*
X191419509Y-109949046D01*
X191400000Y-109950000D01*
X189600000Y-109950000D01*
X189580392Y-109949037D01*
X189570637Y-109948076D01*
X189532190Y-109940428D01*
X189522811Y-109937583D01*
X189486584Y-109922577D01*
X189477939Y-109917956D01*
X189445336Y-109896170D01*
X189437760Y-109889952D01*
X189410048Y-109862240D01*
X189403830Y-109854664D01*
X189382044Y-109822061D01*
X189377423Y-109813416D01*
X189362417Y-109777189D01*
X189359572Y-109767810D01*
X189351924Y-109729363D01*
X189350963Y-109719608D01*
X189350000Y-109700000D01*
X189350000Y-109450000D01*
X188950000Y-109450000D01*
X188910982Y-109446157D01*
X188873463Y-109434776D01*
X188838886Y-109416294D01*
X188808579Y-109391421D01*
X188783706Y-109361114D01*
X188765224Y-109326537D01*
X188753843Y-109289018D01*
X188750000Y-109250000D01*
X188750000Y-107750000D01*
X188753843Y-107710982D01*
X188765224Y-107673463D01*
X188783706Y-107638886D01*
X188808579Y-107608579D01*
X188838886Y-107583706D01*
X188873463Y-107565224D01*
X188910982Y-107553843D01*
X188950000Y-107550000D01*
X189350000Y-107550000D01*
X189350000Y-107300000D01*
X189350963Y-107280392D01*
X189351924Y-107270637D01*
X189359572Y-107232190D01*
X189362417Y-107222811D01*
X189377423Y-107186584D01*
X189382044Y-107177939D01*
X189403830Y-107145336D01*
X189410048Y-107137760D01*
X189437760Y-107110048D01*
X189445336Y-107103830D01*
X189477939Y-107082044D01*
X189486584Y-107077423D01*
X189522811Y-107062417D01*
X189532190Y-107059572D01*
X189570637Y-107051924D01*
X189580392Y-107050963D01*
X189600000Y-107050000D01*
X192000000Y-107050000D01*
X192019608Y-107050963D01*
G37*
G36*
X204619608Y-109650963D02*
G01*
X204629363Y-109651924D01*
X204667810Y-109659572D01*
X204677189Y-109662417D01*
X204713416Y-109677423D01*
X204722061Y-109682044D01*
X204754664Y-109703830D01*
X204762240Y-109710048D01*
X204789952Y-109737760D01*
X204796170Y-109745336D01*
X204817956Y-109777939D01*
X204822577Y-109786584D01*
X204837583Y-109822811D01*
X204840428Y-109832190D01*
X204848076Y-109870637D01*
X204849037Y-109880392D01*
X204850000Y-109900000D01*
X204850000Y-110150000D01*
X205350000Y-110150000D01*
X205389018Y-110153843D01*
X205426537Y-110165224D01*
X205461114Y-110183706D01*
X205491421Y-110208579D01*
X205516294Y-110238886D01*
X205534776Y-110273463D01*
X205546157Y-110310982D01*
X205550000Y-110350000D01*
X205550000Y-111850000D01*
X205546157Y-111889018D01*
X205534776Y-111926537D01*
X205516294Y-111961114D01*
X205491421Y-111991421D01*
X205461114Y-112016294D01*
X205426537Y-112034776D01*
X205389018Y-112046157D01*
X205350000Y-112050000D01*
X204850000Y-112050000D01*
X204850000Y-112300000D01*
X204849037Y-112319608D01*
X204848076Y-112329363D01*
X204840428Y-112367810D01*
X204837583Y-112377189D01*
X204822577Y-112413416D01*
X204817956Y-112422061D01*
X204796170Y-112454664D01*
X204789952Y-112462240D01*
X204762240Y-112489952D01*
X204754664Y-112496170D01*
X204722061Y-112517956D01*
X204713416Y-112522577D01*
X204677189Y-112537583D01*
X204667810Y-112540428D01*
X204629363Y-112548076D01*
X204619608Y-112549037D01*
X204600000Y-112550000D01*
X202200000Y-112550000D01*
X202180392Y-112549037D01*
X202170637Y-112548076D01*
X202132190Y-112540428D01*
X202122811Y-112537583D01*
X202086584Y-112522577D01*
X202077939Y-112517956D01*
X202045336Y-112496170D01*
X202037760Y-112489952D01*
X202010048Y-112462240D01*
X202003830Y-112454664D01*
X201982044Y-112422061D01*
X201977423Y-112413416D01*
X201962417Y-112377189D01*
X201959572Y-112367810D01*
X201951924Y-112329363D01*
X201950963Y-112319608D01*
X201950000Y-112300000D01*
X201950000Y-109900000D01*
X201950963Y-109880392D01*
X201951924Y-109870637D01*
X201959572Y-109832190D01*
X201962417Y-109822811D01*
X201977423Y-109786584D01*
X201982044Y-109777939D01*
X202003830Y-109745336D01*
X202010048Y-109737760D01*
X202037760Y-109710048D01*
X202045336Y-109703830D01*
X202077939Y-109682044D01*
X202086584Y-109677423D01*
X202122811Y-109662417D01*
X202132190Y-109659572D01*
X202170637Y-109651924D01*
X202180392Y-109650963D01*
X202200000Y-109650000D01*
X204600000Y-109650000D01*
X204619608Y-109650963D01*
G37*
D16*
X192690000Y-111059999D03*
D17*
X191420000Y-113600000D03*
X201580000Y-113600000D03*
D18*
X196500000Y-113600000D03*
D16*
X199040000Y-108520000D03*
X193960000Y-108520000D03*
X200310000Y-111060000D03*
D15*
G36*
X173019608Y-98150963D02*
G01*
X173029363Y-98151924D01*
X173067810Y-98159572D01*
X173077189Y-98162417D01*
X173113416Y-98177423D01*
X173122061Y-98182044D01*
X173154664Y-98203830D01*
X173162240Y-98210048D01*
X173189952Y-98237760D01*
X173196170Y-98245336D01*
X173217956Y-98277939D01*
X173222577Y-98286584D01*
X173237583Y-98322811D01*
X173240428Y-98332190D01*
X173248076Y-98370637D01*
X173249037Y-98380392D01*
X173250000Y-98400000D01*
X173250000Y-100400000D01*
X173249037Y-100419608D01*
X173248076Y-100429363D01*
X173240428Y-100467810D01*
X173237583Y-100477189D01*
X173222577Y-100513416D01*
X173217956Y-100522061D01*
X173196170Y-100554664D01*
X173189952Y-100562240D01*
X173162166Y-100590013D01*
X173154546Y-100596261D01*
X173138675Y-100608013D01*
X172538675Y-101008013D01*
X172521824Y-101018089D01*
X172513175Y-101022700D01*
X172476932Y-101037666D01*
X172467549Y-101040501D01*
X172429212Y-101048095D01*
X172419509Y-101049046D01*
X172400000Y-101050000D01*
X170600000Y-101050000D01*
X170580392Y-101049037D01*
X170570637Y-101048076D01*
X170532190Y-101040428D01*
X170522811Y-101037583D01*
X170486584Y-101022577D01*
X170477939Y-101017956D01*
X170445336Y-100996170D01*
X170437760Y-100989952D01*
X170410048Y-100962240D01*
X170403830Y-100954664D01*
X170382044Y-100922061D01*
X170377423Y-100913416D01*
X170362417Y-100877189D01*
X170359572Y-100867810D01*
X170351924Y-100829363D01*
X170350963Y-100819608D01*
X170350000Y-100800000D01*
X170350000Y-100550000D01*
X169950000Y-100550000D01*
X169910982Y-100546157D01*
X169873463Y-100534776D01*
X169838886Y-100516294D01*
X169808579Y-100491421D01*
X169783706Y-100461114D01*
X169765224Y-100426537D01*
X169753843Y-100389018D01*
X169750000Y-100350000D01*
X169750000Y-98850000D01*
X169753843Y-98810982D01*
X169765224Y-98773463D01*
X169783706Y-98738886D01*
X169808579Y-98708579D01*
X169838886Y-98683706D01*
X169873463Y-98665224D01*
X169910982Y-98653843D01*
X169950000Y-98650000D01*
X170350000Y-98650000D01*
X170350000Y-98400000D01*
X170350963Y-98380392D01*
X170351924Y-98370637D01*
X170359572Y-98332190D01*
X170362417Y-98322811D01*
X170377423Y-98286584D01*
X170382044Y-98277939D01*
X170403830Y-98245336D01*
X170410048Y-98237760D01*
X170437760Y-98210048D01*
X170445336Y-98203830D01*
X170477939Y-98182044D01*
X170486584Y-98177423D01*
X170522811Y-98162417D01*
X170532190Y-98159572D01*
X170570637Y-98151924D01*
X170580392Y-98150963D01*
X170600000Y-98150000D01*
X173000000Y-98150000D01*
X173019608Y-98150963D01*
G37*
G36*
X185619608Y-100750963D02*
G01*
X185629363Y-100751924D01*
X185667810Y-100759572D01*
X185677189Y-100762417D01*
X185713416Y-100777423D01*
X185722061Y-100782044D01*
X185754664Y-100803830D01*
X185762240Y-100810048D01*
X185789952Y-100837760D01*
X185796170Y-100845336D01*
X185817956Y-100877939D01*
X185822577Y-100886584D01*
X185837583Y-100922811D01*
X185840428Y-100932190D01*
X185848076Y-100970637D01*
X185849037Y-100980392D01*
X185850000Y-101000000D01*
X185850000Y-101250000D01*
X186350000Y-101250000D01*
X186389018Y-101253843D01*
X186426537Y-101265224D01*
X186461114Y-101283706D01*
X186491421Y-101308579D01*
X186516294Y-101338886D01*
X186534776Y-101373463D01*
X186546157Y-101410982D01*
X186550000Y-101450000D01*
X186550000Y-102950000D01*
X186546157Y-102989018D01*
X186534776Y-103026537D01*
X186516294Y-103061114D01*
X186491421Y-103091421D01*
X186461114Y-103116294D01*
X186426537Y-103134776D01*
X186389018Y-103146157D01*
X186350000Y-103150000D01*
X185850000Y-103150000D01*
X185850000Y-103400000D01*
X185849037Y-103419608D01*
X185848076Y-103429363D01*
X185840428Y-103467810D01*
X185837583Y-103477189D01*
X185822577Y-103513416D01*
X185817956Y-103522061D01*
X185796170Y-103554664D01*
X185789952Y-103562240D01*
X185762240Y-103589952D01*
X185754664Y-103596170D01*
X185722061Y-103617956D01*
X185713416Y-103622577D01*
X185677189Y-103637583D01*
X185667810Y-103640428D01*
X185629363Y-103648076D01*
X185619608Y-103649037D01*
X185600000Y-103650000D01*
X183200000Y-103650000D01*
X183180392Y-103649037D01*
X183170637Y-103648076D01*
X183132190Y-103640428D01*
X183122811Y-103637583D01*
X183086584Y-103622577D01*
X183077939Y-103617956D01*
X183045336Y-103596170D01*
X183037760Y-103589952D01*
X183010048Y-103562240D01*
X183003830Y-103554664D01*
X182982044Y-103522061D01*
X182977423Y-103513416D01*
X182962417Y-103477189D01*
X182959572Y-103467810D01*
X182951924Y-103429363D01*
X182950963Y-103419608D01*
X182950000Y-103400000D01*
X182950000Y-101000000D01*
X182950963Y-100980392D01*
X182951924Y-100970637D01*
X182959572Y-100932190D01*
X182962417Y-100922811D01*
X182977423Y-100886584D01*
X182982044Y-100877939D01*
X183003830Y-100845336D01*
X183010048Y-100837760D01*
X183037760Y-100810048D01*
X183045336Y-100803830D01*
X183077939Y-100782044D01*
X183086584Y-100777423D01*
X183122811Y-100762417D01*
X183132190Y-100759572D01*
X183170637Y-100751924D01*
X183180392Y-100750963D01*
X183200000Y-100750000D01*
X185600000Y-100750000D01*
X185619608Y-100750963D01*
G37*
D16*
X173690000Y-102159999D03*
D17*
X172420000Y-104700000D03*
X182580000Y-104700000D03*
D18*
X177500000Y-104700000D03*
D16*
X180040000Y-99620000D03*
X174960000Y-99620000D03*
X181310000Y-102160000D03*
D15*
G36*
X154019608Y-95650963D02*
G01*
X154029363Y-95651924D01*
X154067810Y-95659572D01*
X154077189Y-95662417D01*
X154113416Y-95677423D01*
X154122061Y-95682044D01*
X154154664Y-95703830D01*
X154162240Y-95710048D01*
X154189952Y-95737760D01*
X154196170Y-95745336D01*
X154217956Y-95777939D01*
X154222577Y-95786584D01*
X154237583Y-95822811D01*
X154240428Y-95832190D01*
X154248076Y-95870637D01*
X154249037Y-95880392D01*
X154250000Y-95900000D01*
X154250000Y-97900000D01*
X154249037Y-97919608D01*
X154248076Y-97929363D01*
X154240428Y-97967810D01*
X154237583Y-97977189D01*
X154222577Y-98013416D01*
X154217956Y-98022061D01*
X154196170Y-98054664D01*
X154189952Y-98062240D01*
X154162166Y-98090013D01*
X154154546Y-98096261D01*
X154138675Y-98108013D01*
X153538675Y-98508013D01*
X153521824Y-98518089D01*
X153513175Y-98522700D01*
X153476932Y-98537666D01*
X153467549Y-98540501D01*
X153429212Y-98548095D01*
X153419509Y-98549046D01*
X153400000Y-98550000D01*
X151600000Y-98550000D01*
X151580392Y-98549037D01*
X151570637Y-98548076D01*
X151532190Y-98540428D01*
X151522811Y-98537583D01*
X151486584Y-98522577D01*
X151477939Y-98517956D01*
X151445336Y-98496170D01*
X151437760Y-98489952D01*
X151410048Y-98462240D01*
X151403830Y-98454664D01*
X151382044Y-98422061D01*
X151377423Y-98413416D01*
X151362417Y-98377189D01*
X151359572Y-98367810D01*
X151351924Y-98329363D01*
X151350963Y-98319608D01*
X151350000Y-98300000D01*
X151350000Y-98050000D01*
X150950000Y-98050000D01*
X150910982Y-98046157D01*
X150873463Y-98034776D01*
X150838886Y-98016294D01*
X150808579Y-97991421D01*
X150783706Y-97961114D01*
X150765224Y-97926537D01*
X150753843Y-97889018D01*
X150750000Y-97850000D01*
X150750000Y-96350000D01*
X150753843Y-96310982D01*
X150765224Y-96273463D01*
X150783706Y-96238886D01*
X150808579Y-96208579D01*
X150838886Y-96183706D01*
X150873463Y-96165224D01*
X150910982Y-96153843D01*
X150950000Y-96150000D01*
X151350000Y-96150000D01*
X151350000Y-95900000D01*
X151350963Y-95880392D01*
X151351924Y-95870637D01*
X151359572Y-95832190D01*
X151362417Y-95822811D01*
X151377423Y-95786584D01*
X151382044Y-95777939D01*
X151403830Y-95745336D01*
X151410048Y-95737760D01*
X151437760Y-95710048D01*
X151445336Y-95703830D01*
X151477939Y-95682044D01*
X151486584Y-95677423D01*
X151522811Y-95662417D01*
X151532190Y-95659572D01*
X151570637Y-95651924D01*
X151580392Y-95650963D01*
X151600000Y-95650000D01*
X154000000Y-95650000D01*
X154019608Y-95650963D01*
G37*
G36*
X166619608Y-98250963D02*
G01*
X166629363Y-98251924D01*
X166667810Y-98259572D01*
X166677189Y-98262417D01*
X166713416Y-98277423D01*
X166722061Y-98282044D01*
X166754664Y-98303830D01*
X166762240Y-98310048D01*
X166789952Y-98337760D01*
X166796170Y-98345336D01*
X166817956Y-98377939D01*
X166822577Y-98386584D01*
X166837583Y-98422811D01*
X166840428Y-98432190D01*
X166848076Y-98470637D01*
X166849037Y-98480392D01*
X166850000Y-98500000D01*
X166850000Y-98750000D01*
X167350000Y-98750000D01*
X167389018Y-98753843D01*
X167426537Y-98765224D01*
X167461114Y-98783706D01*
X167491421Y-98808579D01*
X167516294Y-98838886D01*
X167534776Y-98873463D01*
X167546157Y-98910982D01*
X167550000Y-98950000D01*
X167550000Y-100450000D01*
X167546157Y-100489018D01*
X167534776Y-100526537D01*
X167516294Y-100561114D01*
X167491421Y-100591421D01*
X167461114Y-100616294D01*
X167426537Y-100634776D01*
X167389018Y-100646157D01*
X167350000Y-100650000D01*
X166850000Y-100650000D01*
X166850000Y-100900000D01*
X166849037Y-100919608D01*
X166848076Y-100929363D01*
X166840428Y-100967810D01*
X166837583Y-100977189D01*
X166822577Y-101013416D01*
X166817956Y-101022061D01*
X166796170Y-101054664D01*
X166789952Y-101062240D01*
X166762240Y-101089952D01*
X166754664Y-101096170D01*
X166722061Y-101117956D01*
X166713416Y-101122577D01*
X166677189Y-101137583D01*
X166667810Y-101140428D01*
X166629363Y-101148076D01*
X166619608Y-101149037D01*
X166600000Y-101150000D01*
X164200000Y-101150000D01*
X164180392Y-101149037D01*
X164170637Y-101148076D01*
X164132190Y-101140428D01*
X164122811Y-101137583D01*
X164086584Y-101122577D01*
X164077939Y-101117956D01*
X164045336Y-101096170D01*
X164037760Y-101089952D01*
X164010048Y-101062240D01*
X164003830Y-101054664D01*
X163982044Y-101022061D01*
X163977423Y-101013416D01*
X163962417Y-100977189D01*
X163959572Y-100967810D01*
X163951924Y-100929363D01*
X163950963Y-100919608D01*
X163950000Y-100900000D01*
X163950000Y-98500000D01*
X163950963Y-98480392D01*
X163951924Y-98470637D01*
X163959572Y-98432190D01*
X163962417Y-98422811D01*
X163977423Y-98386584D01*
X163982044Y-98377939D01*
X164003830Y-98345336D01*
X164010048Y-98337760D01*
X164037760Y-98310048D01*
X164045336Y-98303830D01*
X164077939Y-98282044D01*
X164086584Y-98277423D01*
X164122811Y-98262417D01*
X164132190Y-98259572D01*
X164170637Y-98251924D01*
X164180392Y-98250963D01*
X164200000Y-98250000D01*
X166600000Y-98250000D01*
X166619608Y-98250963D01*
G37*
D16*
X154690000Y-99659999D03*
D17*
X153420000Y-102200000D03*
X163580000Y-102200000D03*
D18*
X158500000Y-102200000D03*
D16*
X161040000Y-97120000D03*
X155960000Y-97120000D03*
X162310000Y-99660000D03*
D15*
G36*
X135019608Y-98150963D02*
G01*
X135029363Y-98151924D01*
X135067810Y-98159572D01*
X135077189Y-98162417D01*
X135113416Y-98177423D01*
X135122061Y-98182044D01*
X135154664Y-98203830D01*
X135162240Y-98210048D01*
X135189952Y-98237760D01*
X135196170Y-98245336D01*
X135217956Y-98277939D01*
X135222577Y-98286584D01*
X135237583Y-98322811D01*
X135240428Y-98332190D01*
X135248076Y-98370637D01*
X135249037Y-98380392D01*
X135250000Y-98400000D01*
X135250000Y-100400000D01*
X135249037Y-100419608D01*
X135248076Y-100429363D01*
X135240428Y-100467810D01*
X135237583Y-100477189D01*
X135222577Y-100513416D01*
X135217956Y-100522061D01*
X135196170Y-100554664D01*
X135189952Y-100562240D01*
X135162166Y-100590013D01*
X135154546Y-100596261D01*
X135138675Y-100608013D01*
X134538675Y-101008013D01*
X134521824Y-101018089D01*
X134513175Y-101022700D01*
X134476932Y-101037666D01*
X134467549Y-101040501D01*
X134429212Y-101048095D01*
X134419509Y-101049046D01*
X134400000Y-101050000D01*
X132600000Y-101050000D01*
X132580392Y-101049037D01*
X132570637Y-101048076D01*
X132532190Y-101040428D01*
X132522811Y-101037583D01*
X132486584Y-101022577D01*
X132477939Y-101017956D01*
X132445336Y-100996170D01*
X132437760Y-100989952D01*
X132410048Y-100962240D01*
X132403830Y-100954664D01*
X132382044Y-100922061D01*
X132377423Y-100913416D01*
X132362417Y-100877189D01*
X132359572Y-100867810D01*
X132351924Y-100829363D01*
X132350963Y-100819608D01*
X132350000Y-100800000D01*
X132350000Y-100550000D01*
X131950000Y-100550000D01*
X131910982Y-100546157D01*
X131873463Y-100534776D01*
X131838886Y-100516294D01*
X131808579Y-100491421D01*
X131783706Y-100461114D01*
X131765224Y-100426537D01*
X131753843Y-100389018D01*
X131750000Y-100350000D01*
X131750000Y-98850000D01*
X131753843Y-98810982D01*
X131765224Y-98773463D01*
X131783706Y-98738886D01*
X131808579Y-98708579D01*
X131838886Y-98683706D01*
X131873463Y-98665224D01*
X131910982Y-98653843D01*
X131950000Y-98650000D01*
X132350000Y-98650000D01*
X132350000Y-98400000D01*
X132350963Y-98380392D01*
X132351924Y-98370637D01*
X132359572Y-98332190D01*
X132362417Y-98322811D01*
X132377423Y-98286584D01*
X132382044Y-98277939D01*
X132403830Y-98245336D01*
X132410048Y-98237760D01*
X132437760Y-98210048D01*
X132445336Y-98203830D01*
X132477939Y-98182044D01*
X132486584Y-98177423D01*
X132522811Y-98162417D01*
X132532190Y-98159572D01*
X132570637Y-98151924D01*
X132580392Y-98150963D01*
X132600000Y-98150000D01*
X135000000Y-98150000D01*
X135019608Y-98150963D01*
G37*
G36*
X147619608Y-100750963D02*
G01*
X147629363Y-100751924D01*
X147667810Y-100759572D01*
X147677189Y-100762417D01*
X147713416Y-100777423D01*
X147722061Y-100782044D01*
X147754664Y-100803830D01*
X147762240Y-100810048D01*
X147789952Y-100837760D01*
X147796170Y-100845336D01*
X147817956Y-100877939D01*
X147822577Y-100886584D01*
X147837583Y-100922811D01*
X147840428Y-100932190D01*
X147848076Y-100970637D01*
X147849037Y-100980392D01*
X147850000Y-101000000D01*
X147850000Y-101250000D01*
X148350000Y-101250000D01*
X148389018Y-101253843D01*
X148426537Y-101265224D01*
X148461114Y-101283706D01*
X148491421Y-101308579D01*
X148516294Y-101338886D01*
X148534776Y-101373463D01*
X148546157Y-101410982D01*
X148550000Y-101450000D01*
X148550000Y-102950000D01*
X148546157Y-102989018D01*
X148534776Y-103026537D01*
X148516294Y-103061114D01*
X148491421Y-103091421D01*
X148461114Y-103116294D01*
X148426537Y-103134776D01*
X148389018Y-103146157D01*
X148350000Y-103150000D01*
X147850000Y-103150000D01*
X147850000Y-103400000D01*
X147849037Y-103419608D01*
X147848076Y-103429363D01*
X147840428Y-103467810D01*
X147837583Y-103477189D01*
X147822577Y-103513416D01*
X147817956Y-103522061D01*
X147796170Y-103554664D01*
X147789952Y-103562240D01*
X147762240Y-103589952D01*
X147754664Y-103596170D01*
X147722061Y-103617956D01*
X147713416Y-103622577D01*
X147677189Y-103637583D01*
X147667810Y-103640428D01*
X147629363Y-103648076D01*
X147619608Y-103649037D01*
X147600000Y-103650000D01*
X145200000Y-103650000D01*
X145180392Y-103649037D01*
X145170637Y-103648076D01*
X145132190Y-103640428D01*
X145122811Y-103637583D01*
X145086584Y-103622577D01*
X145077939Y-103617956D01*
X145045336Y-103596170D01*
X145037760Y-103589952D01*
X145010048Y-103562240D01*
X145003830Y-103554664D01*
X144982044Y-103522061D01*
X144977423Y-103513416D01*
X144962417Y-103477189D01*
X144959572Y-103467810D01*
X144951924Y-103429363D01*
X144950963Y-103419608D01*
X144950000Y-103400000D01*
X144950000Y-101000000D01*
X144950963Y-100980392D01*
X144951924Y-100970637D01*
X144959572Y-100932190D01*
X144962417Y-100922811D01*
X144977423Y-100886584D01*
X144982044Y-100877939D01*
X145003830Y-100845336D01*
X145010048Y-100837760D01*
X145037760Y-100810048D01*
X145045336Y-100803830D01*
X145077939Y-100782044D01*
X145086584Y-100777423D01*
X145122811Y-100762417D01*
X145132190Y-100759572D01*
X145170637Y-100751924D01*
X145180392Y-100750963D01*
X145200000Y-100750000D01*
X147600000Y-100750000D01*
X147619608Y-100750963D01*
G37*
D16*
X135690000Y-102159999D03*
D17*
X134420000Y-104700000D03*
X144580000Y-104700000D03*
D18*
X139500000Y-104700000D03*
D16*
X142040000Y-99620000D03*
X136960000Y-99620000D03*
X143310000Y-102160000D03*
D15*
G36*
X116019608Y-100550963D02*
G01*
X116029363Y-100551924D01*
X116067810Y-100559572D01*
X116077189Y-100562417D01*
X116113416Y-100577423D01*
X116122061Y-100582044D01*
X116154664Y-100603830D01*
X116162240Y-100610048D01*
X116189952Y-100637760D01*
X116196170Y-100645336D01*
X116217956Y-100677939D01*
X116222577Y-100686584D01*
X116237583Y-100722811D01*
X116240428Y-100732190D01*
X116248076Y-100770637D01*
X116249037Y-100780392D01*
X116250000Y-100800000D01*
X116250000Y-102800000D01*
X116249037Y-102819608D01*
X116248076Y-102829363D01*
X116240428Y-102867810D01*
X116237583Y-102877189D01*
X116222577Y-102913416D01*
X116217956Y-102922061D01*
X116196170Y-102954664D01*
X116189952Y-102962240D01*
X116162166Y-102990013D01*
X116154546Y-102996261D01*
X116138675Y-103008013D01*
X115538675Y-103408013D01*
X115521824Y-103418089D01*
X115513175Y-103422700D01*
X115476932Y-103437666D01*
X115467549Y-103440501D01*
X115429212Y-103448095D01*
X115419509Y-103449046D01*
X115400000Y-103450000D01*
X113600000Y-103450000D01*
X113580392Y-103449037D01*
X113570637Y-103448076D01*
X113532190Y-103440428D01*
X113522811Y-103437583D01*
X113486584Y-103422577D01*
X113477939Y-103417956D01*
X113445336Y-103396170D01*
X113437760Y-103389952D01*
X113410048Y-103362240D01*
X113403830Y-103354664D01*
X113382044Y-103322061D01*
X113377423Y-103313416D01*
X113362417Y-103277189D01*
X113359572Y-103267810D01*
X113351924Y-103229363D01*
X113350963Y-103219608D01*
X113350000Y-103200000D01*
X113350000Y-102950000D01*
X112950000Y-102950000D01*
X112910982Y-102946157D01*
X112873463Y-102934776D01*
X112838886Y-102916294D01*
X112808579Y-102891421D01*
X112783706Y-102861114D01*
X112765224Y-102826537D01*
X112753843Y-102789018D01*
X112750000Y-102750000D01*
X112750000Y-101250000D01*
X112753843Y-101210982D01*
X112765224Y-101173463D01*
X112783706Y-101138886D01*
X112808579Y-101108579D01*
X112838886Y-101083706D01*
X112873463Y-101065224D01*
X112910982Y-101053843D01*
X112950000Y-101050000D01*
X113350000Y-101050000D01*
X113350000Y-100800000D01*
X113350963Y-100780392D01*
X113351924Y-100770637D01*
X113359572Y-100732190D01*
X113362417Y-100722811D01*
X113377423Y-100686584D01*
X113382044Y-100677939D01*
X113403830Y-100645336D01*
X113410048Y-100637760D01*
X113437760Y-100610048D01*
X113445336Y-100603830D01*
X113477939Y-100582044D01*
X113486584Y-100577423D01*
X113522811Y-100562417D01*
X113532190Y-100559572D01*
X113570637Y-100551924D01*
X113580392Y-100550963D01*
X113600000Y-100550000D01*
X116000000Y-100550000D01*
X116019608Y-100550963D01*
G37*
G36*
X128619608Y-103150963D02*
G01*
X128629363Y-103151924D01*
X128667810Y-103159572D01*
X128677189Y-103162417D01*
X128713416Y-103177423D01*
X128722061Y-103182044D01*
X128754664Y-103203830D01*
X128762240Y-103210048D01*
X128789952Y-103237760D01*
X128796170Y-103245336D01*
X128817956Y-103277939D01*
X128822577Y-103286584D01*
X128837583Y-103322811D01*
X128840428Y-103332190D01*
X128848076Y-103370637D01*
X128849037Y-103380392D01*
X128850000Y-103400000D01*
X128850000Y-103650000D01*
X129350000Y-103650000D01*
X129389018Y-103653843D01*
X129426537Y-103665224D01*
X129461114Y-103683706D01*
X129491421Y-103708579D01*
X129516294Y-103738886D01*
X129534776Y-103773463D01*
X129546157Y-103810982D01*
X129550000Y-103850000D01*
X129550000Y-105350000D01*
X129546157Y-105389018D01*
X129534776Y-105426537D01*
X129516294Y-105461114D01*
X129491421Y-105491421D01*
X129461114Y-105516294D01*
X129426537Y-105534776D01*
X129389018Y-105546157D01*
X129350000Y-105550000D01*
X128850000Y-105550000D01*
X128850000Y-105800000D01*
X128849037Y-105819608D01*
X128848076Y-105829363D01*
X128840428Y-105867810D01*
X128837583Y-105877189D01*
X128822577Y-105913416D01*
X128817956Y-105922061D01*
X128796170Y-105954664D01*
X128789952Y-105962240D01*
X128762240Y-105989952D01*
X128754664Y-105996170D01*
X128722061Y-106017956D01*
X128713416Y-106022577D01*
X128677189Y-106037583D01*
X128667810Y-106040428D01*
X128629363Y-106048076D01*
X128619608Y-106049037D01*
X128600000Y-106050000D01*
X126200000Y-106050000D01*
X126180392Y-106049037D01*
X126170637Y-106048076D01*
X126132190Y-106040428D01*
X126122811Y-106037583D01*
X126086584Y-106022577D01*
X126077939Y-106017956D01*
X126045336Y-105996170D01*
X126037760Y-105989952D01*
X126010048Y-105962240D01*
X126003830Y-105954664D01*
X125982044Y-105922061D01*
X125977423Y-105913416D01*
X125962417Y-105877189D01*
X125959572Y-105867810D01*
X125951924Y-105829363D01*
X125950963Y-105819608D01*
X125950000Y-105800000D01*
X125950000Y-103400000D01*
X125950963Y-103380392D01*
X125951924Y-103370637D01*
X125959572Y-103332190D01*
X125962417Y-103322811D01*
X125977423Y-103286584D01*
X125982044Y-103277939D01*
X126003830Y-103245336D01*
X126010048Y-103237760D01*
X126037760Y-103210048D01*
X126045336Y-103203830D01*
X126077939Y-103182044D01*
X126086584Y-103177423D01*
X126122811Y-103162417D01*
X126132190Y-103159572D01*
X126170637Y-103151924D01*
X126180392Y-103150963D01*
X126200000Y-103150000D01*
X128600000Y-103150000D01*
X128619608Y-103150963D01*
G37*
D16*
X116690000Y-104559999D03*
D17*
X115420000Y-107100000D03*
X125580000Y-107100000D03*
D18*
X120500000Y-107100000D03*
D16*
X123040000Y-102020000D03*
X117960000Y-102020000D03*
X124310000Y-104560000D03*
D15*
G36*
X211019608Y-88050963D02*
G01*
X211029363Y-88051924D01*
X211067810Y-88059572D01*
X211077189Y-88062417D01*
X211113416Y-88077423D01*
X211122061Y-88082044D01*
X211154664Y-88103830D01*
X211162240Y-88110048D01*
X211189952Y-88137760D01*
X211196170Y-88145336D01*
X211217956Y-88177939D01*
X211222577Y-88186584D01*
X211237583Y-88222811D01*
X211240428Y-88232190D01*
X211248076Y-88270637D01*
X211249037Y-88280392D01*
X211250000Y-88300000D01*
X211250000Y-90300000D01*
X211249037Y-90319608D01*
X211248076Y-90329363D01*
X211240428Y-90367810D01*
X211237583Y-90377189D01*
X211222577Y-90413416D01*
X211217956Y-90422061D01*
X211196170Y-90454664D01*
X211189952Y-90462240D01*
X211162166Y-90490013D01*
X211154546Y-90496261D01*
X211138675Y-90508013D01*
X210538675Y-90908013D01*
X210521824Y-90918089D01*
X210513175Y-90922700D01*
X210476932Y-90937666D01*
X210467549Y-90940501D01*
X210429212Y-90948095D01*
X210419509Y-90949046D01*
X210400000Y-90950000D01*
X208600000Y-90950000D01*
X208580392Y-90949037D01*
X208570637Y-90948076D01*
X208532190Y-90940428D01*
X208522811Y-90937583D01*
X208486584Y-90922577D01*
X208477939Y-90917956D01*
X208445336Y-90896170D01*
X208437760Y-90889952D01*
X208410048Y-90862240D01*
X208403830Y-90854664D01*
X208382044Y-90822061D01*
X208377423Y-90813416D01*
X208362417Y-90777189D01*
X208359572Y-90767810D01*
X208351924Y-90729363D01*
X208350963Y-90719608D01*
X208350000Y-90700000D01*
X208350000Y-90450000D01*
X207950000Y-90450000D01*
X207910982Y-90446157D01*
X207873463Y-90434776D01*
X207838886Y-90416294D01*
X207808579Y-90391421D01*
X207783706Y-90361114D01*
X207765224Y-90326537D01*
X207753843Y-90289018D01*
X207750000Y-90250000D01*
X207750000Y-88750000D01*
X207753843Y-88710982D01*
X207765224Y-88673463D01*
X207783706Y-88638886D01*
X207808579Y-88608579D01*
X207838886Y-88583706D01*
X207873463Y-88565224D01*
X207910982Y-88553843D01*
X207950000Y-88550000D01*
X208350000Y-88550000D01*
X208350000Y-88300000D01*
X208350963Y-88280392D01*
X208351924Y-88270637D01*
X208359572Y-88232190D01*
X208362417Y-88222811D01*
X208377423Y-88186584D01*
X208382044Y-88177939D01*
X208403830Y-88145336D01*
X208410048Y-88137760D01*
X208437760Y-88110048D01*
X208445336Y-88103830D01*
X208477939Y-88082044D01*
X208486584Y-88077423D01*
X208522811Y-88062417D01*
X208532190Y-88059572D01*
X208570637Y-88051924D01*
X208580392Y-88050963D01*
X208600000Y-88050000D01*
X211000000Y-88050000D01*
X211019608Y-88050963D01*
G37*
G36*
X223619608Y-90650963D02*
G01*
X223629363Y-90651924D01*
X223667810Y-90659572D01*
X223677189Y-90662417D01*
X223713416Y-90677423D01*
X223722061Y-90682044D01*
X223754664Y-90703830D01*
X223762240Y-90710048D01*
X223789952Y-90737760D01*
X223796170Y-90745336D01*
X223817956Y-90777939D01*
X223822577Y-90786584D01*
X223837583Y-90822811D01*
X223840428Y-90832190D01*
X223848076Y-90870637D01*
X223849037Y-90880392D01*
X223850000Y-90900000D01*
X223850000Y-91150000D01*
X224350000Y-91150000D01*
X224389018Y-91153843D01*
X224426537Y-91165224D01*
X224461114Y-91183706D01*
X224491421Y-91208579D01*
X224516294Y-91238886D01*
X224534776Y-91273463D01*
X224546157Y-91310982D01*
X224550000Y-91350000D01*
X224550000Y-92850000D01*
X224546157Y-92889018D01*
X224534776Y-92926537D01*
X224516294Y-92961114D01*
X224491421Y-92991421D01*
X224461114Y-93016294D01*
X224426537Y-93034776D01*
X224389018Y-93046157D01*
X224350000Y-93050000D01*
X223850000Y-93050000D01*
X223850000Y-93300000D01*
X223849037Y-93319608D01*
X223848076Y-93329363D01*
X223840428Y-93367810D01*
X223837583Y-93377189D01*
X223822577Y-93413416D01*
X223817956Y-93422061D01*
X223796170Y-93454664D01*
X223789952Y-93462240D01*
X223762240Y-93489952D01*
X223754664Y-93496170D01*
X223722061Y-93517956D01*
X223713416Y-93522577D01*
X223677189Y-93537583D01*
X223667810Y-93540428D01*
X223629363Y-93548076D01*
X223619608Y-93549037D01*
X223600000Y-93550000D01*
X221200000Y-93550000D01*
X221180392Y-93549037D01*
X221170637Y-93548076D01*
X221132190Y-93540428D01*
X221122811Y-93537583D01*
X221086584Y-93522577D01*
X221077939Y-93517956D01*
X221045336Y-93496170D01*
X221037760Y-93489952D01*
X221010048Y-93462240D01*
X221003830Y-93454664D01*
X220982044Y-93422061D01*
X220977423Y-93413416D01*
X220962417Y-93377189D01*
X220959572Y-93367810D01*
X220951924Y-93329363D01*
X220950963Y-93319608D01*
X220950000Y-93300000D01*
X220950000Y-90900000D01*
X220950963Y-90880392D01*
X220951924Y-90870637D01*
X220959572Y-90832190D01*
X220962417Y-90822811D01*
X220977423Y-90786584D01*
X220982044Y-90777939D01*
X221003830Y-90745336D01*
X221010048Y-90737760D01*
X221037760Y-90710048D01*
X221045336Y-90703830D01*
X221077939Y-90682044D01*
X221086584Y-90677423D01*
X221122811Y-90662417D01*
X221132190Y-90659572D01*
X221170637Y-90651924D01*
X221180392Y-90650963D01*
X221200000Y-90650000D01*
X223600000Y-90650000D01*
X223619608Y-90650963D01*
G37*
D16*
X211690000Y-92059999D03*
D17*
X210420000Y-94600000D03*
X220580000Y-94600000D03*
D18*
X215500000Y-94600000D03*
D16*
X218040000Y-89520000D03*
X212960000Y-89520000D03*
X219310000Y-92060000D03*
D15*
G36*
X192019608Y-88050963D02*
G01*
X192029363Y-88051924D01*
X192067810Y-88059572D01*
X192077189Y-88062417D01*
X192113416Y-88077423D01*
X192122061Y-88082044D01*
X192154664Y-88103830D01*
X192162240Y-88110048D01*
X192189952Y-88137760D01*
X192196170Y-88145336D01*
X192217956Y-88177939D01*
X192222577Y-88186584D01*
X192237583Y-88222811D01*
X192240428Y-88232190D01*
X192248076Y-88270637D01*
X192249037Y-88280392D01*
X192250000Y-88300000D01*
X192250000Y-90300000D01*
X192249037Y-90319608D01*
X192248076Y-90329363D01*
X192240428Y-90367810D01*
X192237583Y-90377189D01*
X192222577Y-90413416D01*
X192217956Y-90422061D01*
X192196170Y-90454664D01*
X192189952Y-90462240D01*
X192162166Y-90490013D01*
X192154546Y-90496261D01*
X192138675Y-90508013D01*
X191538675Y-90908013D01*
X191521824Y-90918089D01*
X191513175Y-90922700D01*
X191476932Y-90937666D01*
X191467549Y-90940501D01*
X191429212Y-90948095D01*
X191419509Y-90949046D01*
X191400000Y-90950000D01*
X189600000Y-90950000D01*
X189580392Y-90949037D01*
X189570637Y-90948076D01*
X189532190Y-90940428D01*
X189522811Y-90937583D01*
X189486584Y-90922577D01*
X189477939Y-90917956D01*
X189445336Y-90896170D01*
X189437760Y-90889952D01*
X189410048Y-90862240D01*
X189403830Y-90854664D01*
X189382044Y-90822061D01*
X189377423Y-90813416D01*
X189362417Y-90777189D01*
X189359572Y-90767810D01*
X189351924Y-90729363D01*
X189350963Y-90719608D01*
X189350000Y-90700000D01*
X189350000Y-90450000D01*
X188950000Y-90450000D01*
X188910982Y-90446157D01*
X188873463Y-90434776D01*
X188838886Y-90416294D01*
X188808579Y-90391421D01*
X188783706Y-90361114D01*
X188765224Y-90326537D01*
X188753843Y-90289018D01*
X188750000Y-90250000D01*
X188750000Y-88750000D01*
X188753843Y-88710982D01*
X188765224Y-88673463D01*
X188783706Y-88638886D01*
X188808579Y-88608579D01*
X188838886Y-88583706D01*
X188873463Y-88565224D01*
X188910982Y-88553843D01*
X188950000Y-88550000D01*
X189350000Y-88550000D01*
X189350000Y-88300000D01*
X189350963Y-88280392D01*
X189351924Y-88270637D01*
X189359572Y-88232190D01*
X189362417Y-88222811D01*
X189377423Y-88186584D01*
X189382044Y-88177939D01*
X189403830Y-88145336D01*
X189410048Y-88137760D01*
X189437760Y-88110048D01*
X189445336Y-88103830D01*
X189477939Y-88082044D01*
X189486584Y-88077423D01*
X189522811Y-88062417D01*
X189532190Y-88059572D01*
X189570637Y-88051924D01*
X189580392Y-88050963D01*
X189600000Y-88050000D01*
X192000000Y-88050000D01*
X192019608Y-88050963D01*
G37*
G36*
X204619608Y-90650963D02*
G01*
X204629363Y-90651924D01*
X204667810Y-90659572D01*
X204677189Y-90662417D01*
X204713416Y-90677423D01*
X204722061Y-90682044D01*
X204754664Y-90703830D01*
X204762240Y-90710048D01*
X204789952Y-90737760D01*
X204796170Y-90745336D01*
X204817956Y-90777939D01*
X204822577Y-90786584D01*
X204837583Y-90822811D01*
X204840428Y-90832190D01*
X204848076Y-90870637D01*
X204849037Y-90880392D01*
X204850000Y-90900000D01*
X204850000Y-91150000D01*
X205350000Y-91150000D01*
X205389018Y-91153843D01*
X205426537Y-91165224D01*
X205461114Y-91183706D01*
X205491421Y-91208579D01*
X205516294Y-91238886D01*
X205534776Y-91273463D01*
X205546157Y-91310982D01*
X205550000Y-91350000D01*
X205550000Y-92850000D01*
X205546157Y-92889018D01*
X205534776Y-92926537D01*
X205516294Y-92961114D01*
X205491421Y-92991421D01*
X205461114Y-93016294D01*
X205426537Y-93034776D01*
X205389018Y-93046157D01*
X205350000Y-93050000D01*
X204850000Y-93050000D01*
X204850000Y-93300000D01*
X204849037Y-93319608D01*
X204848076Y-93329363D01*
X204840428Y-93367810D01*
X204837583Y-93377189D01*
X204822577Y-93413416D01*
X204817956Y-93422061D01*
X204796170Y-93454664D01*
X204789952Y-93462240D01*
X204762240Y-93489952D01*
X204754664Y-93496170D01*
X204722061Y-93517956D01*
X204713416Y-93522577D01*
X204677189Y-93537583D01*
X204667810Y-93540428D01*
X204629363Y-93548076D01*
X204619608Y-93549037D01*
X204600000Y-93550000D01*
X202200000Y-93550000D01*
X202180392Y-93549037D01*
X202170637Y-93548076D01*
X202132190Y-93540428D01*
X202122811Y-93537583D01*
X202086584Y-93522577D01*
X202077939Y-93517956D01*
X202045336Y-93496170D01*
X202037760Y-93489952D01*
X202010048Y-93462240D01*
X202003830Y-93454664D01*
X201982044Y-93422061D01*
X201977423Y-93413416D01*
X201962417Y-93377189D01*
X201959572Y-93367810D01*
X201951924Y-93329363D01*
X201950963Y-93319608D01*
X201950000Y-93300000D01*
X201950000Y-90900000D01*
X201950963Y-90880392D01*
X201951924Y-90870637D01*
X201959572Y-90832190D01*
X201962417Y-90822811D01*
X201977423Y-90786584D01*
X201982044Y-90777939D01*
X202003830Y-90745336D01*
X202010048Y-90737760D01*
X202037760Y-90710048D01*
X202045336Y-90703830D01*
X202077939Y-90682044D01*
X202086584Y-90677423D01*
X202122811Y-90662417D01*
X202132190Y-90659572D01*
X202170637Y-90651924D01*
X202180392Y-90650963D01*
X202200000Y-90650000D01*
X204600000Y-90650000D01*
X204619608Y-90650963D01*
G37*
D16*
X192690000Y-92059999D03*
D17*
X191420000Y-94600000D03*
X201580000Y-94600000D03*
D18*
X196500000Y-94600000D03*
D16*
X199040000Y-89520000D03*
X193960000Y-89520000D03*
X200310000Y-92060000D03*
D15*
G36*
X173019608Y-79050963D02*
G01*
X173029363Y-79051924D01*
X173067810Y-79059572D01*
X173077189Y-79062417D01*
X173113416Y-79077423D01*
X173122061Y-79082044D01*
X173154664Y-79103830D01*
X173162240Y-79110048D01*
X173189952Y-79137760D01*
X173196170Y-79145336D01*
X173217956Y-79177939D01*
X173222577Y-79186584D01*
X173237583Y-79222811D01*
X173240428Y-79232190D01*
X173248076Y-79270637D01*
X173249037Y-79280392D01*
X173250000Y-79300000D01*
X173250000Y-81300000D01*
X173249037Y-81319608D01*
X173248076Y-81329363D01*
X173240428Y-81367810D01*
X173237583Y-81377189D01*
X173222577Y-81413416D01*
X173217956Y-81422061D01*
X173196170Y-81454664D01*
X173189952Y-81462240D01*
X173162166Y-81490013D01*
X173154546Y-81496261D01*
X173138675Y-81508013D01*
X172538675Y-81908013D01*
X172521824Y-81918089D01*
X172513175Y-81922700D01*
X172476932Y-81937666D01*
X172467549Y-81940501D01*
X172429212Y-81948095D01*
X172419509Y-81949046D01*
X172400000Y-81950000D01*
X170600000Y-81950000D01*
X170580392Y-81949037D01*
X170570637Y-81948076D01*
X170532190Y-81940428D01*
X170522811Y-81937583D01*
X170486584Y-81922577D01*
X170477939Y-81917956D01*
X170445336Y-81896170D01*
X170437760Y-81889952D01*
X170410048Y-81862240D01*
X170403830Y-81854664D01*
X170382044Y-81822061D01*
X170377423Y-81813416D01*
X170362417Y-81777189D01*
X170359572Y-81767810D01*
X170351924Y-81729363D01*
X170350963Y-81719608D01*
X170350000Y-81700000D01*
X170350000Y-81450000D01*
X169950000Y-81450000D01*
X169910982Y-81446157D01*
X169873463Y-81434776D01*
X169838886Y-81416294D01*
X169808579Y-81391421D01*
X169783706Y-81361114D01*
X169765224Y-81326537D01*
X169753843Y-81289018D01*
X169750000Y-81250000D01*
X169750000Y-79750000D01*
X169753843Y-79710982D01*
X169765224Y-79673463D01*
X169783706Y-79638886D01*
X169808579Y-79608579D01*
X169838886Y-79583706D01*
X169873463Y-79565224D01*
X169910982Y-79553843D01*
X169950000Y-79550000D01*
X170350000Y-79550000D01*
X170350000Y-79300000D01*
X170350963Y-79280392D01*
X170351924Y-79270637D01*
X170359572Y-79232190D01*
X170362417Y-79222811D01*
X170377423Y-79186584D01*
X170382044Y-79177939D01*
X170403830Y-79145336D01*
X170410048Y-79137760D01*
X170437760Y-79110048D01*
X170445336Y-79103830D01*
X170477939Y-79082044D01*
X170486584Y-79077423D01*
X170522811Y-79062417D01*
X170532190Y-79059572D01*
X170570637Y-79051924D01*
X170580392Y-79050963D01*
X170600000Y-79050000D01*
X173000000Y-79050000D01*
X173019608Y-79050963D01*
G37*
G36*
X185619608Y-81650963D02*
G01*
X185629363Y-81651924D01*
X185667810Y-81659572D01*
X185677189Y-81662417D01*
X185713416Y-81677423D01*
X185722061Y-81682044D01*
X185754664Y-81703830D01*
X185762240Y-81710048D01*
X185789952Y-81737760D01*
X185796170Y-81745336D01*
X185817956Y-81777939D01*
X185822577Y-81786584D01*
X185837583Y-81822811D01*
X185840428Y-81832190D01*
X185848076Y-81870637D01*
X185849037Y-81880392D01*
X185850000Y-81900000D01*
X185850000Y-82150000D01*
X186350000Y-82150000D01*
X186389018Y-82153843D01*
X186426537Y-82165224D01*
X186461114Y-82183706D01*
X186491421Y-82208579D01*
X186516294Y-82238886D01*
X186534776Y-82273463D01*
X186546157Y-82310982D01*
X186550000Y-82350000D01*
X186550000Y-83850000D01*
X186546157Y-83889018D01*
X186534776Y-83926537D01*
X186516294Y-83961114D01*
X186491421Y-83991421D01*
X186461114Y-84016294D01*
X186426537Y-84034776D01*
X186389018Y-84046157D01*
X186350000Y-84050000D01*
X185850000Y-84050000D01*
X185850000Y-84300000D01*
X185849037Y-84319608D01*
X185848076Y-84329363D01*
X185840428Y-84367810D01*
X185837583Y-84377189D01*
X185822577Y-84413416D01*
X185817956Y-84422061D01*
X185796170Y-84454664D01*
X185789952Y-84462240D01*
X185762240Y-84489952D01*
X185754664Y-84496170D01*
X185722061Y-84517956D01*
X185713416Y-84522577D01*
X185677189Y-84537583D01*
X185667810Y-84540428D01*
X185629363Y-84548076D01*
X185619608Y-84549037D01*
X185600000Y-84550000D01*
X183200000Y-84550000D01*
X183180392Y-84549037D01*
X183170637Y-84548076D01*
X183132190Y-84540428D01*
X183122811Y-84537583D01*
X183086584Y-84522577D01*
X183077939Y-84517956D01*
X183045336Y-84496170D01*
X183037760Y-84489952D01*
X183010048Y-84462240D01*
X183003830Y-84454664D01*
X182982044Y-84422061D01*
X182977423Y-84413416D01*
X182962417Y-84377189D01*
X182959572Y-84367810D01*
X182951924Y-84329363D01*
X182950963Y-84319608D01*
X182950000Y-84300000D01*
X182950000Y-81900000D01*
X182950963Y-81880392D01*
X182951924Y-81870637D01*
X182959572Y-81832190D01*
X182962417Y-81822811D01*
X182977423Y-81786584D01*
X182982044Y-81777939D01*
X183003830Y-81745336D01*
X183010048Y-81737760D01*
X183037760Y-81710048D01*
X183045336Y-81703830D01*
X183077939Y-81682044D01*
X183086584Y-81677423D01*
X183122811Y-81662417D01*
X183132190Y-81659572D01*
X183170637Y-81651924D01*
X183180392Y-81650963D01*
X183200000Y-81650000D01*
X185600000Y-81650000D01*
X185619608Y-81650963D01*
G37*
D16*
X173690000Y-83059999D03*
D17*
X172420000Y-85600000D03*
X182580000Y-85600000D03*
D18*
X177500000Y-85600000D03*
D16*
X180040000Y-80520000D03*
X174960000Y-80520000D03*
X181310000Y-83060000D03*
D15*
G36*
X154019608Y-76650963D02*
G01*
X154029363Y-76651924D01*
X154067810Y-76659572D01*
X154077189Y-76662417D01*
X154113416Y-76677423D01*
X154122061Y-76682044D01*
X154154664Y-76703830D01*
X154162240Y-76710048D01*
X154189952Y-76737760D01*
X154196170Y-76745336D01*
X154217956Y-76777939D01*
X154222577Y-76786584D01*
X154237583Y-76822811D01*
X154240428Y-76832190D01*
X154248076Y-76870637D01*
X154249037Y-76880392D01*
X154250000Y-76900000D01*
X154250000Y-78900000D01*
X154249037Y-78919608D01*
X154248076Y-78929363D01*
X154240428Y-78967810D01*
X154237583Y-78977189D01*
X154222577Y-79013416D01*
X154217956Y-79022061D01*
X154196170Y-79054664D01*
X154189952Y-79062240D01*
X154162166Y-79090013D01*
X154154546Y-79096261D01*
X154138675Y-79108013D01*
X153538675Y-79508013D01*
X153521824Y-79518089D01*
X153513175Y-79522700D01*
X153476932Y-79537666D01*
X153467549Y-79540501D01*
X153429212Y-79548095D01*
X153419509Y-79549046D01*
X153400000Y-79550000D01*
X151600000Y-79550000D01*
X151580392Y-79549037D01*
X151570637Y-79548076D01*
X151532190Y-79540428D01*
X151522811Y-79537583D01*
X151486584Y-79522577D01*
X151477939Y-79517956D01*
X151445336Y-79496170D01*
X151437760Y-79489952D01*
X151410048Y-79462240D01*
X151403830Y-79454664D01*
X151382044Y-79422061D01*
X151377423Y-79413416D01*
X151362417Y-79377189D01*
X151359572Y-79367810D01*
X151351924Y-79329363D01*
X151350963Y-79319608D01*
X151350000Y-79300000D01*
X151350000Y-79050000D01*
X150950000Y-79050000D01*
X150910982Y-79046157D01*
X150873463Y-79034776D01*
X150838886Y-79016294D01*
X150808579Y-78991421D01*
X150783706Y-78961114D01*
X150765224Y-78926537D01*
X150753843Y-78889018D01*
X150750000Y-78850000D01*
X150750000Y-77350000D01*
X150753843Y-77310982D01*
X150765224Y-77273463D01*
X150783706Y-77238886D01*
X150808579Y-77208579D01*
X150838886Y-77183706D01*
X150873463Y-77165224D01*
X150910982Y-77153843D01*
X150950000Y-77150000D01*
X151350000Y-77150000D01*
X151350000Y-76900000D01*
X151350963Y-76880392D01*
X151351924Y-76870637D01*
X151359572Y-76832190D01*
X151362417Y-76822811D01*
X151377423Y-76786584D01*
X151382044Y-76777939D01*
X151403830Y-76745336D01*
X151410048Y-76737760D01*
X151437760Y-76710048D01*
X151445336Y-76703830D01*
X151477939Y-76682044D01*
X151486584Y-76677423D01*
X151522811Y-76662417D01*
X151532190Y-76659572D01*
X151570637Y-76651924D01*
X151580392Y-76650963D01*
X151600000Y-76650000D01*
X154000000Y-76650000D01*
X154019608Y-76650963D01*
G37*
G36*
X166619608Y-79250963D02*
G01*
X166629363Y-79251924D01*
X166667810Y-79259572D01*
X166677189Y-79262417D01*
X166713416Y-79277423D01*
X166722061Y-79282044D01*
X166754664Y-79303830D01*
X166762240Y-79310048D01*
X166789952Y-79337760D01*
X166796170Y-79345336D01*
X166817956Y-79377939D01*
X166822577Y-79386584D01*
X166837583Y-79422811D01*
X166840428Y-79432190D01*
X166848076Y-79470637D01*
X166849037Y-79480392D01*
X166850000Y-79500000D01*
X166850000Y-79750000D01*
X167350000Y-79750000D01*
X167389018Y-79753843D01*
X167426537Y-79765224D01*
X167461114Y-79783706D01*
X167491421Y-79808579D01*
X167516294Y-79838886D01*
X167534776Y-79873463D01*
X167546157Y-79910982D01*
X167550000Y-79950000D01*
X167550000Y-81450000D01*
X167546157Y-81489018D01*
X167534776Y-81526537D01*
X167516294Y-81561114D01*
X167491421Y-81591421D01*
X167461114Y-81616294D01*
X167426537Y-81634776D01*
X167389018Y-81646157D01*
X167350000Y-81650000D01*
X166850000Y-81650000D01*
X166850000Y-81900000D01*
X166849037Y-81919608D01*
X166848076Y-81929363D01*
X166840428Y-81967810D01*
X166837583Y-81977189D01*
X166822577Y-82013416D01*
X166817956Y-82022061D01*
X166796170Y-82054664D01*
X166789952Y-82062240D01*
X166762240Y-82089952D01*
X166754664Y-82096170D01*
X166722061Y-82117956D01*
X166713416Y-82122577D01*
X166677189Y-82137583D01*
X166667810Y-82140428D01*
X166629363Y-82148076D01*
X166619608Y-82149037D01*
X166600000Y-82150000D01*
X164200000Y-82150000D01*
X164180392Y-82149037D01*
X164170637Y-82148076D01*
X164132190Y-82140428D01*
X164122811Y-82137583D01*
X164086584Y-82122577D01*
X164077939Y-82117956D01*
X164045336Y-82096170D01*
X164037760Y-82089952D01*
X164010048Y-82062240D01*
X164003830Y-82054664D01*
X163982044Y-82022061D01*
X163977423Y-82013416D01*
X163962417Y-81977189D01*
X163959572Y-81967810D01*
X163951924Y-81929363D01*
X163950963Y-81919608D01*
X163950000Y-81900000D01*
X163950000Y-79500000D01*
X163950963Y-79480392D01*
X163951924Y-79470637D01*
X163959572Y-79432190D01*
X163962417Y-79422811D01*
X163977423Y-79386584D01*
X163982044Y-79377939D01*
X164003830Y-79345336D01*
X164010048Y-79337760D01*
X164037760Y-79310048D01*
X164045336Y-79303830D01*
X164077939Y-79282044D01*
X164086584Y-79277423D01*
X164122811Y-79262417D01*
X164132190Y-79259572D01*
X164170637Y-79251924D01*
X164180392Y-79250963D01*
X164200000Y-79250000D01*
X166600000Y-79250000D01*
X166619608Y-79250963D01*
G37*
D16*
X154690000Y-80659999D03*
D17*
X153420000Y-83200000D03*
X163580000Y-83200000D03*
D18*
X158500000Y-83200000D03*
D16*
X161040000Y-78120000D03*
X155960000Y-78120000D03*
X162310000Y-80660000D03*
D15*
G36*
X135019608Y-79050963D02*
G01*
X135029363Y-79051924D01*
X135067810Y-79059572D01*
X135077189Y-79062417D01*
X135113416Y-79077423D01*
X135122061Y-79082044D01*
X135154664Y-79103830D01*
X135162240Y-79110048D01*
X135189952Y-79137760D01*
X135196170Y-79145336D01*
X135217956Y-79177939D01*
X135222577Y-79186584D01*
X135237583Y-79222811D01*
X135240428Y-79232190D01*
X135248076Y-79270637D01*
X135249037Y-79280392D01*
X135250000Y-79300000D01*
X135250000Y-81300000D01*
X135249037Y-81319608D01*
X135248076Y-81329363D01*
X135240428Y-81367810D01*
X135237583Y-81377189D01*
X135222577Y-81413416D01*
X135217956Y-81422061D01*
X135196170Y-81454664D01*
X135189952Y-81462240D01*
X135162166Y-81490013D01*
X135154546Y-81496261D01*
X135138675Y-81508013D01*
X134538675Y-81908013D01*
X134521824Y-81918089D01*
X134513175Y-81922700D01*
X134476932Y-81937666D01*
X134467549Y-81940501D01*
X134429212Y-81948095D01*
X134419509Y-81949046D01*
X134400000Y-81950000D01*
X132600000Y-81950000D01*
X132580392Y-81949037D01*
X132570637Y-81948076D01*
X132532190Y-81940428D01*
X132522811Y-81937583D01*
X132486584Y-81922577D01*
X132477939Y-81917956D01*
X132445336Y-81896170D01*
X132437760Y-81889952D01*
X132410048Y-81862240D01*
X132403830Y-81854664D01*
X132382044Y-81822061D01*
X132377423Y-81813416D01*
X132362417Y-81777189D01*
X132359572Y-81767810D01*
X132351924Y-81729363D01*
X132350963Y-81719608D01*
X132350000Y-81700000D01*
X132350000Y-81450000D01*
X131950000Y-81450000D01*
X131910982Y-81446157D01*
X131873463Y-81434776D01*
X131838886Y-81416294D01*
X131808579Y-81391421D01*
X131783706Y-81361114D01*
X131765224Y-81326537D01*
X131753843Y-81289018D01*
X131750000Y-81250000D01*
X131750000Y-79750000D01*
X131753843Y-79710982D01*
X131765224Y-79673463D01*
X131783706Y-79638886D01*
X131808579Y-79608579D01*
X131838886Y-79583706D01*
X131873463Y-79565224D01*
X131910982Y-79553843D01*
X131950000Y-79550000D01*
X132350000Y-79550000D01*
X132350000Y-79300000D01*
X132350963Y-79280392D01*
X132351924Y-79270637D01*
X132359572Y-79232190D01*
X132362417Y-79222811D01*
X132377423Y-79186584D01*
X132382044Y-79177939D01*
X132403830Y-79145336D01*
X132410048Y-79137760D01*
X132437760Y-79110048D01*
X132445336Y-79103830D01*
X132477939Y-79082044D01*
X132486584Y-79077423D01*
X132522811Y-79062417D01*
X132532190Y-79059572D01*
X132570637Y-79051924D01*
X132580392Y-79050963D01*
X132600000Y-79050000D01*
X135000000Y-79050000D01*
X135019608Y-79050963D01*
G37*
G36*
X147619608Y-81650963D02*
G01*
X147629363Y-81651924D01*
X147667810Y-81659572D01*
X147677189Y-81662417D01*
X147713416Y-81677423D01*
X147722061Y-81682044D01*
X147754664Y-81703830D01*
X147762240Y-81710048D01*
X147789952Y-81737760D01*
X147796170Y-81745336D01*
X147817956Y-81777939D01*
X147822577Y-81786584D01*
X147837583Y-81822811D01*
X147840428Y-81832190D01*
X147848076Y-81870637D01*
X147849037Y-81880392D01*
X147850000Y-81900000D01*
X147850000Y-82150000D01*
X148350000Y-82150000D01*
X148389018Y-82153843D01*
X148426537Y-82165224D01*
X148461114Y-82183706D01*
X148491421Y-82208579D01*
X148516294Y-82238886D01*
X148534776Y-82273463D01*
X148546157Y-82310982D01*
X148550000Y-82350000D01*
X148550000Y-83850000D01*
X148546157Y-83889018D01*
X148534776Y-83926537D01*
X148516294Y-83961114D01*
X148491421Y-83991421D01*
X148461114Y-84016294D01*
X148426537Y-84034776D01*
X148389018Y-84046157D01*
X148350000Y-84050000D01*
X147850000Y-84050000D01*
X147850000Y-84300000D01*
X147849037Y-84319608D01*
X147848076Y-84329363D01*
X147840428Y-84367810D01*
X147837583Y-84377189D01*
X147822577Y-84413416D01*
X147817956Y-84422061D01*
X147796170Y-84454664D01*
X147789952Y-84462240D01*
X147762240Y-84489952D01*
X147754664Y-84496170D01*
X147722061Y-84517956D01*
X147713416Y-84522577D01*
X147677189Y-84537583D01*
X147667810Y-84540428D01*
X147629363Y-84548076D01*
X147619608Y-84549037D01*
X147600000Y-84550000D01*
X145200000Y-84550000D01*
X145180392Y-84549037D01*
X145170637Y-84548076D01*
X145132190Y-84540428D01*
X145122811Y-84537583D01*
X145086584Y-84522577D01*
X145077939Y-84517956D01*
X145045336Y-84496170D01*
X145037760Y-84489952D01*
X145010048Y-84462240D01*
X145003830Y-84454664D01*
X144982044Y-84422061D01*
X144977423Y-84413416D01*
X144962417Y-84377189D01*
X144959572Y-84367810D01*
X144951924Y-84329363D01*
X144950963Y-84319608D01*
X144950000Y-84300000D01*
X144950000Y-81900000D01*
X144950963Y-81880392D01*
X144951924Y-81870637D01*
X144959572Y-81832190D01*
X144962417Y-81822811D01*
X144977423Y-81786584D01*
X144982044Y-81777939D01*
X145003830Y-81745336D01*
X145010048Y-81737760D01*
X145037760Y-81710048D01*
X145045336Y-81703830D01*
X145077939Y-81682044D01*
X145086584Y-81677423D01*
X145122811Y-81662417D01*
X145132190Y-81659572D01*
X145170637Y-81651924D01*
X145180392Y-81650963D01*
X145200000Y-81650000D01*
X147600000Y-81650000D01*
X147619608Y-81650963D01*
G37*
D16*
X135690000Y-83059999D03*
D17*
X134420000Y-85600000D03*
X144580000Y-85600000D03*
D18*
X139500000Y-85600000D03*
D16*
X142040000Y-80520000D03*
X136960000Y-80520000D03*
X143310000Y-83060000D03*
D15*
G36*
X116019608Y-81550963D02*
G01*
X116029363Y-81551924D01*
X116067810Y-81559572D01*
X116077189Y-81562417D01*
X116113416Y-81577423D01*
X116122061Y-81582044D01*
X116154664Y-81603830D01*
X116162240Y-81610048D01*
X116189952Y-81637760D01*
X116196170Y-81645336D01*
X116217956Y-81677939D01*
X116222577Y-81686584D01*
X116237583Y-81722811D01*
X116240428Y-81732190D01*
X116248076Y-81770637D01*
X116249037Y-81780392D01*
X116250000Y-81800000D01*
X116250000Y-83800000D01*
X116249037Y-83819608D01*
X116248076Y-83829363D01*
X116240428Y-83867810D01*
X116237583Y-83877189D01*
X116222577Y-83913416D01*
X116217956Y-83922061D01*
X116196170Y-83954664D01*
X116189952Y-83962240D01*
X116162166Y-83990013D01*
X116154546Y-83996261D01*
X116138675Y-84008013D01*
X115538675Y-84408013D01*
X115521824Y-84418089D01*
X115513175Y-84422700D01*
X115476932Y-84437666D01*
X115467549Y-84440501D01*
X115429212Y-84448095D01*
X115419509Y-84449046D01*
X115400000Y-84450000D01*
X113600000Y-84450000D01*
X113580392Y-84449037D01*
X113570637Y-84448076D01*
X113532190Y-84440428D01*
X113522811Y-84437583D01*
X113486584Y-84422577D01*
X113477939Y-84417956D01*
X113445336Y-84396170D01*
X113437760Y-84389952D01*
X113410048Y-84362240D01*
X113403830Y-84354664D01*
X113382044Y-84322061D01*
X113377423Y-84313416D01*
X113362417Y-84277189D01*
X113359572Y-84267810D01*
X113351924Y-84229363D01*
X113350963Y-84219608D01*
X113350000Y-84200000D01*
X113350000Y-83950000D01*
X112950000Y-83950000D01*
X112910982Y-83946157D01*
X112873463Y-83934776D01*
X112838886Y-83916294D01*
X112808579Y-83891421D01*
X112783706Y-83861114D01*
X112765224Y-83826537D01*
X112753843Y-83789018D01*
X112750000Y-83750000D01*
X112750000Y-82250000D01*
X112753843Y-82210982D01*
X112765224Y-82173463D01*
X112783706Y-82138886D01*
X112808579Y-82108579D01*
X112838886Y-82083706D01*
X112873463Y-82065224D01*
X112910982Y-82053843D01*
X112950000Y-82050000D01*
X113350000Y-82050000D01*
X113350000Y-81800000D01*
X113350963Y-81780392D01*
X113351924Y-81770637D01*
X113359572Y-81732190D01*
X113362417Y-81722811D01*
X113377423Y-81686584D01*
X113382044Y-81677939D01*
X113403830Y-81645336D01*
X113410048Y-81637760D01*
X113437760Y-81610048D01*
X113445336Y-81603830D01*
X113477939Y-81582044D01*
X113486584Y-81577423D01*
X113522811Y-81562417D01*
X113532190Y-81559572D01*
X113570637Y-81551924D01*
X113580392Y-81550963D01*
X113600000Y-81550000D01*
X116000000Y-81550000D01*
X116019608Y-81550963D01*
G37*
G36*
X128619608Y-84150963D02*
G01*
X128629363Y-84151924D01*
X128667810Y-84159572D01*
X128677189Y-84162417D01*
X128713416Y-84177423D01*
X128722061Y-84182044D01*
X128754664Y-84203830D01*
X128762240Y-84210048D01*
X128789952Y-84237760D01*
X128796170Y-84245336D01*
X128817956Y-84277939D01*
X128822577Y-84286584D01*
X128837583Y-84322811D01*
X128840428Y-84332190D01*
X128848076Y-84370637D01*
X128849037Y-84380392D01*
X128850000Y-84400000D01*
X128850000Y-84650000D01*
X129350000Y-84650000D01*
X129389018Y-84653843D01*
X129426537Y-84665224D01*
X129461114Y-84683706D01*
X129491421Y-84708579D01*
X129516294Y-84738886D01*
X129534776Y-84773463D01*
X129546157Y-84810982D01*
X129550000Y-84850000D01*
X129550000Y-86350000D01*
X129546157Y-86389018D01*
X129534776Y-86426537D01*
X129516294Y-86461114D01*
X129491421Y-86491421D01*
X129461114Y-86516294D01*
X129426537Y-86534776D01*
X129389018Y-86546157D01*
X129350000Y-86550000D01*
X128850000Y-86550000D01*
X128850000Y-86800000D01*
X128849037Y-86819608D01*
X128848076Y-86829363D01*
X128840428Y-86867810D01*
X128837583Y-86877189D01*
X128822577Y-86913416D01*
X128817956Y-86922061D01*
X128796170Y-86954664D01*
X128789952Y-86962240D01*
X128762240Y-86989952D01*
X128754664Y-86996170D01*
X128722061Y-87017956D01*
X128713416Y-87022577D01*
X128677189Y-87037583D01*
X128667810Y-87040428D01*
X128629363Y-87048076D01*
X128619608Y-87049037D01*
X128600000Y-87050000D01*
X126200000Y-87050000D01*
X126180392Y-87049037D01*
X126170637Y-87048076D01*
X126132190Y-87040428D01*
X126122811Y-87037583D01*
X126086584Y-87022577D01*
X126077939Y-87017956D01*
X126045336Y-86996170D01*
X126037760Y-86989952D01*
X126010048Y-86962240D01*
X126003830Y-86954664D01*
X125982044Y-86922061D01*
X125977423Y-86913416D01*
X125962417Y-86877189D01*
X125959572Y-86867810D01*
X125951924Y-86829363D01*
X125950963Y-86819608D01*
X125950000Y-86800000D01*
X125950000Y-84400000D01*
X125950963Y-84380392D01*
X125951924Y-84370637D01*
X125959572Y-84332190D01*
X125962417Y-84322811D01*
X125977423Y-84286584D01*
X125982044Y-84277939D01*
X126003830Y-84245336D01*
X126010048Y-84237760D01*
X126037760Y-84210048D01*
X126045336Y-84203830D01*
X126077939Y-84182044D01*
X126086584Y-84177423D01*
X126122811Y-84162417D01*
X126132190Y-84159572D01*
X126170637Y-84151924D01*
X126180392Y-84150963D01*
X126200000Y-84150000D01*
X128600000Y-84150000D01*
X128619608Y-84150963D01*
G37*
D16*
X116690000Y-85559999D03*
D17*
X115420000Y-88100000D03*
X125580000Y-88100000D03*
D18*
X120500000Y-88100000D03*
D16*
X123040000Y-83020000D03*
X117960000Y-83020000D03*
X124310000Y-85560000D03*
D15*
G36*
X211019608Y-68850963D02*
G01*
X211029363Y-68851924D01*
X211067810Y-68859572D01*
X211077189Y-68862417D01*
X211113416Y-68877423D01*
X211122061Y-68882044D01*
X211154664Y-68903830D01*
X211162240Y-68910048D01*
X211189952Y-68937760D01*
X211196170Y-68945336D01*
X211217956Y-68977939D01*
X211222577Y-68986584D01*
X211237583Y-69022811D01*
X211240428Y-69032190D01*
X211248076Y-69070637D01*
X211249037Y-69080392D01*
X211250000Y-69100000D01*
X211250000Y-71100000D01*
X211249037Y-71119608D01*
X211248076Y-71129363D01*
X211240428Y-71167810D01*
X211237583Y-71177189D01*
X211222577Y-71213416D01*
X211217956Y-71222061D01*
X211196170Y-71254664D01*
X211189952Y-71262240D01*
X211162166Y-71290013D01*
X211154546Y-71296261D01*
X211138675Y-71308013D01*
X210538675Y-71708013D01*
X210521824Y-71718089D01*
X210513175Y-71722700D01*
X210476932Y-71737666D01*
X210467549Y-71740501D01*
X210429212Y-71748095D01*
X210419509Y-71749046D01*
X210400000Y-71750000D01*
X208600000Y-71750000D01*
X208580392Y-71749037D01*
X208570637Y-71748076D01*
X208532190Y-71740428D01*
X208522811Y-71737583D01*
X208486584Y-71722577D01*
X208477939Y-71717956D01*
X208445336Y-71696170D01*
X208437760Y-71689952D01*
X208410048Y-71662240D01*
X208403830Y-71654664D01*
X208382044Y-71622061D01*
X208377423Y-71613416D01*
X208362417Y-71577189D01*
X208359572Y-71567810D01*
X208351924Y-71529363D01*
X208350963Y-71519608D01*
X208350000Y-71500000D01*
X208350000Y-71250000D01*
X207950000Y-71250000D01*
X207910982Y-71246157D01*
X207873463Y-71234776D01*
X207838886Y-71216294D01*
X207808579Y-71191421D01*
X207783706Y-71161114D01*
X207765224Y-71126537D01*
X207753843Y-71089018D01*
X207750000Y-71050000D01*
X207750000Y-69550000D01*
X207753843Y-69510982D01*
X207765224Y-69473463D01*
X207783706Y-69438886D01*
X207808579Y-69408579D01*
X207838886Y-69383706D01*
X207873463Y-69365224D01*
X207910982Y-69353843D01*
X207950000Y-69350000D01*
X208350000Y-69350000D01*
X208350000Y-69100000D01*
X208350963Y-69080392D01*
X208351924Y-69070637D01*
X208359572Y-69032190D01*
X208362417Y-69022811D01*
X208377423Y-68986584D01*
X208382044Y-68977939D01*
X208403830Y-68945336D01*
X208410048Y-68937760D01*
X208437760Y-68910048D01*
X208445336Y-68903830D01*
X208477939Y-68882044D01*
X208486584Y-68877423D01*
X208522811Y-68862417D01*
X208532190Y-68859572D01*
X208570637Y-68851924D01*
X208580392Y-68850963D01*
X208600000Y-68850000D01*
X211000000Y-68850000D01*
X211019608Y-68850963D01*
G37*
G36*
X223619608Y-71450963D02*
G01*
X223629363Y-71451924D01*
X223667810Y-71459572D01*
X223677189Y-71462417D01*
X223713416Y-71477423D01*
X223722061Y-71482044D01*
X223754664Y-71503830D01*
X223762240Y-71510048D01*
X223789952Y-71537760D01*
X223796170Y-71545336D01*
X223817956Y-71577939D01*
X223822577Y-71586584D01*
X223837583Y-71622811D01*
X223840428Y-71632190D01*
X223848076Y-71670637D01*
X223849037Y-71680392D01*
X223850000Y-71700000D01*
X223850000Y-71950000D01*
X224350000Y-71950000D01*
X224389018Y-71953843D01*
X224426537Y-71965224D01*
X224461114Y-71983706D01*
X224491421Y-72008579D01*
X224516294Y-72038886D01*
X224534776Y-72073463D01*
X224546157Y-72110982D01*
X224550000Y-72150000D01*
X224550000Y-73650000D01*
X224546157Y-73689018D01*
X224534776Y-73726537D01*
X224516294Y-73761114D01*
X224491421Y-73791421D01*
X224461114Y-73816294D01*
X224426537Y-73834776D01*
X224389018Y-73846157D01*
X224350000Y-73850000D01*
X223850000Y-73850000D01*
X223850000Y-74100000D01*
X223849037Y-74119608D01*
X223848076Y-74129363D01*
X223840428Y-74167810D01*
X223837583Y-74177189D01*
X223822577Y-74213416D01*
X223817956Y-74222061D01*
X223796170Y-74254664D01*
X223789952Y-74262240D01*
X223762240Y-74289952D01*
X223754664Y-74296170D01*
X223722061Y-74317956D01*
X223713416Y-74322577D01*
X223677189Y-74337583D01*
X223667810Y-74340428D01*
X223629363Y-74348076D01*
X223619608Y-74349037D01*
X223600000Y-74350000D01*
X221200000Y-74350000D01*
X221180392Y-74349037D01*
X221170637Y-74348076D01*
X221132190Y-74340428D01*
X221122811Y-74337583D01*
X221086584Y-74322577D01*
X221077939Y-74317956D01*
X221045336Y-74296170D01*
X221037760Y-74289952D01*
X221010048Y-74262240D01*
X221003830Y-74254664D01*
X220982044Y-74222061D01*
X220977423Y-74213416D01*
X220962417Y-74177189D01*
X220959572Y-74167810D01*
X220951924Y-74129363D01*
X220950963Y-74119608D01*
X220950000Y-74100000D01*
X220950000Y-71700000D01*
X220950963Y-71680392D01*
X220951924Y-71670637D01*
X220959572Y-71632190D01*
X220962417Y-71622811D01*
X220977423Y-71586584D01*
X220982044Y-71577939D01*
X221003830Y-71545336D01*
X221010048Y-71537760D01*
X221037760Y-71510048D01*
X221045336Y-71503830D01*
X221077939Y-71482044D01*
X221086584Y-71477423D01*
X221122811Y-71462417D01*
X221132190Y-71459572D01*
X221170637Y-71451924D01*
X221180392Y-71450963D01*
X221200000Y-71450000D01*
X223600000Y-71450000D01*
X223619608Y-71450963D01*
G37*
D16*
X211690000Y-72859999D03*
D17*
X210420000Y-75400000D03*
X220580000Y-75400000D03*
D18*
X215500000Y-75400000D03*
D16*
X218040000Y-70320000D03*
X212960000Y-70320000D03*
X219310000Y-72860000D03*
D15*
G36*
X192019608Y-68850963D02*
G01*
X192029363Y-68851924D01*
X192067810Y-68859572D01*
X192077189Y-68862417D01*
X192113416Y-68877423D01*
X192122061Y-68882044D01*
X192154664Y-68903830D01*
X192162240Y-68910048D01*
X192189952Y-68937760D01*
X192196170Y-68945336D01*
X192217956Y-68977939D01*
X192222577Y-68986584D01*
X192237583Y-69022811D01*
X192240428Y-69032190D01*
X192248076Y-69070637D01*
X192249037Y-69080392D01*
X192250000Y-69100000D01*
X192250000Y-71100000D01*
X192249037Y-71119608D01*
X192248076Y-71129363D01*
X192240428Y-71167810D01*
X192237583Y-71177189D01*
X192222577Y-71213416D01*
X192217956Y-71222061D01*
X192196170Y-71254664D01*
X192189952Y-71262240D01*
X192162166Y-71290013D01*
X192154546Y-71296261D01*
X192138675Y-71308013D01*
X191538675Y-71708013D01*
X191521824Y-71718089D01*
X191513175Y-71722700D01*
X191476932Y-71737666D01*
X191467549Y-71740501D01*
X191429212Y-71748095D01*
X191419509Y-71749046D01*
X191400000Y-71750000D01*
X189600000Y-71750000D01*
X189580392Y-71749037D01*
X189570637Y-71748076D01*
X189532190Y-71740428D01*
X189522811Y-71737583D01*
X189486584Y-71722577D01*
X189477939Y-71717956D01*
X189445336Y-71696170D01*
X189437760Y-71689952D01*
X189410048Y-71662240D01*
X189403830Y-71654664D01*
X189382044Y-71622061D01*
X189377423Y-71613416D01*
X189362417Y-71577189D01*
X189359572Y-71567810D01*
X189351924Y-71529363D01*
X189350963Y-71519608D01*
X189350000Y-71500000D01*
X189350000Y-71250000D01*
X188950000Y-71250000D01*
X188910982Y-71246157D01*
X188873463Y-71234776D01*
X188838886Y-71216294D01*
X188808579Y-71191421D01*
X188783706Y-71161114D01*
X188765224Y-71126537D01*
X188753843Y-71089018D01*
X188750000Y-71050000D01*
X188750000Y-69550000D01*
X188753843Y-69510982D01*
X188765224Y-69473463D01*
X188783706Y-69438886D01*
X188808579Y-69408579D01*
X188838886Y-69383706D01*
X188873463Y-69365224D01*
X188910982Y-69353843D01*
X188950000Y-69350000D01*
X189350000Y-69350000D01*
X189350000Y-69100000D01*
X189350963Y-69080392D01*
X189351924Y-69070637D01*
X189359572Y-69032190D01*
X189362417Y-69022811D01*
X189377423Y-68986584D01*
X189382044Y-68977939D01*
X189403830Y-68945336D01*
X189410048Y-68937760D01*
X189437760Y-68910048D01*
X189445336Y-68903830D01*
X189477939Y-68882044D01*
X189486584Y-68877423D01*
X189522811Y-68862417D01*
X189532190Y-68859572D01*
X189570637Y-68851924D01*
X189580392Y-68850963D01*
X189600000Y-68850000D01*
X192000000Y-68850000D01*
X192019608Y-68850963D01*
G37*
G36*
X204619608Y-71450963D02*
G01*
X204629363Y-71451924D01*
X204667810Y-71459572D01*
X204677189Y-71462417D01*
X204713416Y-71477423D01*
X204722061Y-71482044D01*
X204754664Y-71503830D01*
X204762240Y-71510048D01*
X204789952Y-71537760D01*
X204796170Y-71545336D01*
X204817956Y-71577939D01*
X204822577Y-71586584D01*
X204837583Y-71622811D01*
X204840428Y-71632190D01*
X204848076Y-71670637D01*
X204849037Y-71680392D01*
X204850000Y-71700000D01*
X204850000Y-71950000D01*
X205350000Y-71950000D01*
X205389018Y-71953843D01*
X205426537Y-71965224D01*
X205461114Y-71983706D01*
X205491421Y-72008579D01*
X205516294Y-72038886D01*
X205534776Y-72073463D01*
X205546157Y-72110982D01*
X205550000Y-72150000D01*
X205550000Y-73650000D01*
X205546157Y-73689018D01*
X205534776Y-73726537D01*
X205516294Y-73761114D01*
X205491421Y-73791421D01*
X205461114Y-73816294D01*
X205426537Y-73834776D01*
X205389018Y-73846157D01*
X205350000Y-73850000D01*
X204850000Y-73850000D01*
X204850000Y-74100000D01*
X204849037Y-74119608D01*
X204848076Y-74129363D01*
X204840428Y-74167810D01*
X204837583Y-74177189D01*
X204822577Y-74213416D01*
X204817956Y-74222061D01*
X204796170Y-74254664D01*
X204789952Y-74262240D01*
X204762240Y-74289952D01*
X204754664Y-74296170D01*
X204722061Y-74317956D01*
X204713416Y-74322577D01*
X204677189Y-74337583D01*
X204667810Y-74340428D01*
X204629363Y-74348076D01*
X204619608Y-74349037D01*
X204600000Y-74350000D01*
X202200000Y-74350000D01*
X202180392Y-74349037D01*
X202170637Y-74348076D01*
X202132190Y-74340428D01*
X202122811Y-74337583D01*
X202086584Y-74322577D01*
X202077939Y-74317956D01*
X202045336Y-74296170D01*
X202037760Y-74289952D01*
X202010048Y-74262240D01*
X202003830Y-74254664D01*
X201982044Y-74222061D01*
X201977423Y-74213416D01*
X201962417Y-74177189D01*
X201959572Y-74167810D01*
X201951924Y-74129363D01*
X201950963Y-74119608D01*
X201950000Y-74100000D01*
X201950000Y-71700000D01*
X201950963Y-71680392D01*
X201951924Y-71670637D01*
X201959572Y-71632190D01*
X201962417Y-71622811D01*
X201977423Y-71586584D01*
X201982044Y-71577939D01*
X202003830Y-71545336D01*
X202010048Y-71537760D01*
X202037760Y-71510048D01*
X202045336Y-71503830D01*
X202077939Y-71482044D01*
X202086584Y-71477423D01*
X202122811Y-71462417D01*
X202132190Y-71459572D01*
X202170637Y-71451924D01*
X202180392Y-71450963D01*
X202200000Y-71450000D01*
X204600000Y-71450000D01*
X204619608Y-71450963D01*
G37*
D16*
X192690000Y-72859999D03*
D17*
X191420000Y-75400000D03*
X201580000Y-75400000D03*
D18*
X196500000Y-75400000D03*
D16*
X199040000Y-70320000D03*
X193960000Y-70320000D03*
X200310000Y-72860000D03*
D15*
G36*
X173019608Y-59950963D02*
G01*
X173029363Y-59951924D01*
X173067810Y-59959572D01*
X173077189Y-59962417D01*
X173113416Y-59977423D01*
X173122061Y-59982044D01*
X173154664Y-60003830D01*
X173162240Y-60010048D01*
X173189952Y-60037760D01*
X173196170Y-60045336D01*
X173217956Y-60077939D01*
X173222577Y-60086584D01*
X173237583Y-60122811D01*
X173240428Y-60132190D01*
X173248076Y-60170637D01*
X173249037Y-60180392D01*
X173250000Y-60200000D01*
X173250000Y-62200000D01*
X173249037Y-62219608D01*
X173248076Y-62229363D01*
X173240428Y-62267810D01*
X173237583Y-62277189D01*
X173222577Y-62313416D01*
X173217956Y-62322061D01*
X173196170Y-62354664D01*
X173189952Y-62362240D01*
X173162166Y-62390013D01*
X173154546Y-62396261D01*
X173138675Y-62408013D01*
X172538675Y-62808013D01*
X172521824Y-62818089D01*
X172513175Y-62822700D01*
X172476932Y-62837666D01*
X172467549Y-62840501D01*
X172429212Y-62848095D01*
X172419509Y-62849046D01*
X172400000Y-62850000D01*
X170600000Y-62850000D01*
X170580392Y-62849037D01*
X170570637Y-62848076D01*
X170532190Y-62840428D01*
X170522811Y-62837583D01*
X170486584Y-62822577D01*
X170477939Y-62817956D01*
X170445336Y-62796170D01*
X170437760Y-62789952D01*
X170410048Y-62762240D01*
X170403830Y-62754664D01*
X170382044Y-62722061D01*
X170377423Y-62713416D01*
X170362417Y-62677189D01*
X170359572Y-62667810D01*
X170351924Y-62629363D01*
X170350963Y-62619608D01*
X170350000Y-62600000D01*
X170350000Y-62350000D01*
X169950000Y-62350000D01*
X169910982Y-62346157D01*
X169873463Y-62334776D01*
X169838886Y-62316294D01*
X169808579Y-62291421D01*
X169783706Y-62261114D01*
X169765224Y-62226537D01*
X169753843Y-62189018D01*
X169750000Y-62150000D01*
X169750000Y-60650000D01*
X169753843Y-60610982D01*
X169765224Y-60573463D01*
X169783706Y-60538886D01*
X169808579Y-60508579D01*
X169838886Y-60483706D01*
X169873463Y-60465224D01*
X169910982Y-60453843D01*
X169950000Y-60450000D01*
X170350000Y-60450000D01*
X170350000Y-60200000D01*
X170350963Y-60180392D01*
X170351924Y-60170637D01*
X170359572Y-60132190D01*
X170362417Y-60122811D01*
X170377423Y-60086584D01*
X170382044Y-60077939D01*
X170403830Y-60045336D01*
X170410048Y-60037760D01*
X170437760Y-60010048D01*
X170445336Y-60003830D01*
X170477939Y-59982044D01*
X170486584Y-59977423D01*
X170522811Y-59962417D01*
X170532190Y-59959572D01*
X170570637Y-59951924D01*
X170580392Y-59950963D01*
X170600000Y-59950000D01*
X173000000Y-59950000D01*
X173019608Y-59950963D01*
G37*
G36*
X185619608Y-62550963D02*
G01*
X185629363Y-62551924D01*
X185667810Y-62559572D01*
X185677189Y-62562417D01*
X185713416Y-62577423D01*
X185722061Y-62582044D01*
X185754664Y-62603830D01*
X185762240Y-62610048D01*
X185789952Y-62637760D01*
X185796170Y-62645336D01*
X185817956Y-62677939D01*
X185822577Y-62686584D01*
X185837583Y-62722811D01*
X185840428Y-62732190D01*
X185848076Y-62770637D01*
X185849037Y-62780392D01*
X185850000Y-62800000D01*
X185850000Y-63050000D01*
X186350000Y-63050000D01*
X186389018Y-63053843D01*
X186426537Y-63065224D01*
X186461114Y-63083706D01*
X186491421Y-63108579D01*
X186516294Y-63138886D01*
X186534776Y-63173463D01*
X186546157Y-63210982D01*
X186550000Y-63250000D01*
X186550000Y-64750000D01*
X186546157Y-64789018D01*
X186534776Y-64826537D01*
X186516294Y-64861114D01*
X186491421Y-64891421D01*
X186461114Y-64916294D01*
X186426537Y-64934776D01*
X186389018Y-64946157D01*
X186350000Y-64950000D01*
X185850000Y-64950000D01*
X185850000Y-65200000D01*
X185849037Y-65219608D01*
X185848076Y-65229363D01*
X185840428Y-65267810D01*
X185837583Y-65277189D01*
X185822577Y-65313416D01*
X185817956Y-65322061D01*
X185796170Y-65354664D01*
X185789952Y-65362240D01*
X185762240Y-65389952D01*
X185754664Y-65396170D01*
X185722061Y-65417956D01*
X185713416Y-65422577D01*
X185677189Y-65437583D01*
X185667810Y-65440428D01*
X185629363Y-65448076D01*
X185619608Y-65449037D01*
X185600000Y-65450000D01*
X183200000Y-65450000D01*
X183180392Y-65449037D01*
X183170637Y-65448076D01*
X183132190Y-65440428D01*
X183122811Y-65437583D01*
X183086584Y-65422577D01*
X183077939Y-65417956D01*
X183045336Y-65396170D01*
X183037760Y-65389952D01*
X183010048Y-65362240D01*
X183003830Y-65354664D01*
X182982044Y-65322061D01*
X182977423Y-65313416D01*
X182962417Y-65277189D01*
X182959572Y-65267810D01*
X182951924Y-65229363D01*
X182950963Y-65219608D01*
X182950000Y-65200000D01*
X182950000Y-62800000D01*
X182950963Y-62780392D01*
X182951924Y-62770637D01*
X182959572Y-62732190D01*
X182962417Y-62722811D01*
X182977423Y-62686584D01*
X182982044Y-62677939D01*
X183003830Y-62645336D01*
X183010048Y-62637760D01*
X183037760Y-62610048D01*
X183045336Y-62603830D01*
X183077939Y-62582044D01*
X183086584Y-62577423D01*
X183122811Y-62562417D01*
X183132190Y-62559572D01*
X183170637Y-62551924D01*
X183180392Y-62550963D01*
X183200000Y-62550000D01*
X185600000Y-62550000D01*
X185619608Y-62550963D01*
G37*
D16*
X173690000Y-63959999D03*
D17*
X172420000Y-66500000D03*
X182580000Y-66500000D03*
D18*
X177500000Y-66500000D03*
D16*
X180040000Y-61420000D03*
X174960000Y-61420000D03*
X181310000Y-63960000D03*
D15*
G36*
X154019608Y-57550963D02*
G01*
X154029363Y-57551924D01*
X154067810Y-57559572D01*
X154077189Y-57562417D01*
X154113416Y-57577423D01*
X154122061Y-57582044D01*
X154154664Y-57603830D01*
X154162240Y-57610048D01*
X154189952Y-57637760D01*
X154196170Y-57645336D01*
X154217956Y-57677939D01*
X154222577Y-57686584D01*
X154237583Y-57722811D01*
X154240428Y-57732190D01*
X154248076Y-57770637D01*
X154249037Y-57780392D01*
X154250000Y-57800000D01*
X154250000Y-59800000D01*
X154249037Y-59819608D01*
X154248076Y-59829363D01*
X154240428Y-59867810D01*
X154237583Y-59877189D01*
X154222577Y-59913416D01*
X154217956Y-59922061D01*
X154196170Y-59954664D01*
X154189952Y-59962240D01*
X154162166Y-59990013D01*
X154154546Y-59996261D01*
X154138675Y-60008013D01*
X153538675Y-60408013D01*
X153521824Y-60418089D01*
X153513175Y-60422700D01*
X153476932Y-60437666D01*
X153467549Y-60440501D01*
X153429212Y-60448095D01*
X153419509Y-60449046D01*
X153400000Y-60450000D01*
X151600000Y-60450000D01*
X151580392Y-60449037D01*
X151570637Y-60448076D01*
X151532190Y-60440428D01*
X151522811Y-60437583D01*
X151486584Y-60422577D01*
X151477939Y-60417956D01*
X151445336Y-60396170D01*
X151437760Y-60389952D01*
X151410048Y-60362240D01*
X151403830Y-60354664D01*
X151382044Y-60322061D01*
X151377423Y-60313416D01*
X151362417Y-60277189D01*
X151359572Y-60267810D01*
X151351924Y-60229363D01*
X151350963Y-60219608D01*
X151350000Y-60200000D01*
X151350000Y-59950000D01*
X150950000Y-59950000D01*
X150910982Y-59946157D01*
X150873463Y-59934776D01*
X150838886Y-59916294D01*
X150808579Y-59891421D01*
X150783706Y-59861114D01*
X150765224Y-59826537D01*
X150753843Y-59789018D01*
X150750000Y-59750000D01*
X150750000Y-58250000D01*
X150753843Y-58210982D01*
X150765224Y-58173463D01*
X150783706Y-58138886D01*
X150808579Y-58108579D01*
X150838886Y-58083706D01*
X150873463Y-58065224D01*
X150910982Y-58053843D01*
X150950000Y-58050000D01*
X151350000Y-58050000D01*
X151350000Y-57800000D01*
X151350963Y-57780392D01*
X151351924Y-57770637D01*
X151359572Y-57732190D01*
X151362417Y-57722811D01*
X151377423Y-57686584D01*
X151382044Y-57677939D01*
X151403830Y-57645336D01*
X151410048Y-57637760D01*
X151437760Y-57610048D01*
X151445336Y-57603830D01*
X151477939Y-57582044D01*
X151486584Y-57577423D01*
X151522811Y-57562417D01*
X151532190Y-57559572D01*
X151570637Y-57551924D01*
X151580392Y-57550963D01*
X151600000Y-57550000D01*
X154000000Y-57550000D01*
X154019608Y-57550963D01*
G37*
G36*
X166619608Y-60150963D02*
G01*
X166629363Y-60151924D01*
X166667810Y-60159572D01*
X166677189Y-60162417D01*
X166713416Y-60177423D01*
X166722061Y-60182044D01*
X166754664Y-60203830D01*
X166762240Y-60210048D01*
X166789952Y-60237760D01*
X166796170Y-60245336D01*
X166817956Y-60277939D01*
X166822577Y-60286584D01*
X166837583Y-60322811D01*
X166840428Y-60332190D01*
X166848076Y-60370637D01*
X166849037Y-60380392D01*
X166850000Y-60400000D01*
X166850000Y-60650000D01*
X167350000Y-60650000D01*
X167389018Y-60653843D01*
X167426537Y-60665224D01*
X167461114Y-60683706D01*
X167491421Y-60708579D01*
X167516294Y-60738886D01*
X167534776Y-60773463D01*
X167546157Y-60810982D01*
X167550000Y-60850000D01*
X167550000Y-62350000D01*
X167546157Y-62389018D01*
X167534776Y-62426537D01*
X167516294Y-62461114D01*
X167491421Y-62491421D01*
X167461114Y-62516294D01*
X167426537Y-62534776D01*
X167389018Y-62546157D01*
X167350000Y-62550000D01*
X166850000Y-62550000D01*
X166850000Y-62800000D01*
X166849037Y-62819608D01*
X166848076Y-62829363D01*
X166840428Y-62867810D01*
X166837583Y-62877189D01*
X166822577Y-62913416D01*
X166817956Y-62922061D01*
X166796170Y-62954664D01*
X166789952Y-62962240D01*
X166762240Y-62989952D01*
X166754664Y-62996170D01*
X166722061Y-63017956D01*
X166713416Y-63022577D01*
X166677189Y-63037583D01*
X166667810Y-63040428D01*
X166629363Y-63048076D01*
X166619608Y-63049037D01*
X166600000Y-63050000D01*
X164200000Y-63050000D01*
X164180392Y-63049037D01*
X164170637Y-63048076D01*
X164132190Y-63040428D01*
X164122811Y-63037583D01*
X164086584Y-63022577D01*
X164077939Y-63017956D01*
X164045336Y-62996170D01*
X164037760Y-62989952D01*
X164010048Y-62962240D01*
X164003830Y-62954664D01*
X163982044Y-62922061D01*
X163977423Y-62913416D01*
X163962417Y-62877189D01*
X163959572Y-62867810D01*
X163951924Y-62829363D01*
X163950963Y-62819608D01*
X163950000Y-62800000D01*
X163950000Y-60400000D01*
X163950963Y-60380392D01*
X163951924Y-60370637D01*
X163959572Y-60332190D01*
X163962417Y-60322811D01*
X163977423Y-60286584D01*
X163982044Y-60277939D01*
X164003830Y-60245336D01*
X164010048Y-60237760D01*
X164037760Y-60210048D01*
X164045336Y-60203830D01*
X164077939Y-60182044D01*
X164086584Y-60177423D01*
X164122811Y-60162417D01*
X164132190Y-60159572D01*
X164170637Y-60151924D01*
X164180392Y-60150963D01*
X164200000Y-60150000D01*
X166600000Y-60150000D01*
X166619608Y-60150963D01*
G37*
D16*
X154690000Y-61559999D03*
D17*
X153420000Y-64100000D03*
X163580000Y-64100000D03*
D18*
X158500000Y-64100000D03*
D16*
X161040000Y-59020000D03*
X155960000Y-59020000D03*
X162310000Y-61560000D03*
D15*
G36*
X135019608Y-60050963D02*
G01*
X135029363Y-60051924D01*
X135067810Y-60059572D01*
X135077189Y-60062417D01*
X135113416Y-60077423D01*
X135122061Y-60082044D01*
X135154664Y-60103830D01*
X135162240Y-60110048D01*
X135189952Y-60137760D01*
X135196170Y-60145336D01*
X135217956Y-60177939D01*
X135222577Y-60186584D01*
X135237583Y-60222811D01*
X135240428Y-60232190D01*
X135248076Y-60270637D01*
X135249037Y-60280392D01*
X135250000Y-60300000D01*
X135250000Y-62300000D01*
X135249037Y-62319608D01*
X135248076Y-62329363D01*
X135240428Y-62367810D01*
X135237583Y-62377189D01*
X135222577Y-62413416D01*
X135217956Y-62422061D01*
X135196170Y-62454664D01*
X135189952Y-62462240D01*
X135162166Y-62490013D01*
X135154546Y-62496261D01*
X135138675Y-62508013D01*
X134538675Y-62908013D01*
X134521824Y-62918089D01*
X134513175Y-62922700D01*
X134476932Y-62937666D01*
X134467549Y-62940501D01*
X134429212Y-62948095D01*
X134419509Y-62949046D01*
X134400000Y-62950000D01*
X132600000Y-62950000D01*
X132580392Y-62949037D01*
X132570637Y-62948076D01*
X132532190Y-62940428D01*
X132522811Y-62937583D01*
X132486584Y-62922577D01*
X132477939Y-62917956D01*
X132445336Y-62896170D01*
X132437760Y-62889952D01*
X132410048Y-62862240D01*
X132403830Y-62854664D01*
X132382044Y-62822061D01*
X132377423Y-62813416D01*
X132362417Y-62777189D01*
X132359572Y-62767810D01*
X132351924Y-62729363D01*
X132350963Y-62719608D01*
X132350000Y-62700000D01*
X132350000Y-62450000D01*
X131950000Y-62450000D01*
X131910982Y-62446157D01*
X131873463Y-62434776D01*
X131838886Y-62416294D01*
X131808579Y-62391421D01*
X131783706Y-62361114D01*
X131765224Y-62326537D01*
X131753843Y-62289018D01*
X131750000Y-62250000D01*
X131750000Y-60750000D01*
X131753843Y-60710982D01*
X131765224Y-60673463D01*
X131783706Y-60638886D01*
X131808579Y-60608579D01*
X131838886Y-60583706D01*
X131873463Y-60565224D01*
X131910982Y-60553843D01*
X131950000Y-60550000D01*
X132350000Y-60550000D01*
X132350000Y-60300000D01*
X132350963Y-60280392D01*
X132351924Y-60270637D01*
X132359572Y-60232190D01*
X132362417Y-60222811D01*
X132377423Y-60186584D01*
X132382044Y-60177939D01*
X132403830Y-60145336D01*
X132410048Y-60137760D01*
X132437760Y-60110048D01*
X132445336Y-60103830D01*
X132477939Y-60082044D01*
X132486584Y-60077423D01*
X132522811Y-60062417D01*
X132532190Y-60059572D01*
X132570637Y-60051924D01*
X132580392Y-60050963D01*
X132600000Y-60050000D01*
X135000000Y-60050000D01*
X135019608Y-60050963D01*
G37*
G36*
X147619608Y-62650963D02*
G01*
X147629363Y-62651924D01*
X147667810Y-62659572D01*
X147677189Y-62662417D01*
X147713416Y-62677423D01*
X147722061Y-62682044D01*
X147754664Y-62703830D01*
X147762240Y-62710048D01*
X147789952Y-62737760D01*
X147796170Y-62745336D01*
X147817956Y-62777939D01*
X147822577Y-62786584D01*
X147837583Y-62822811D01*
X147840428Y-62832190D01*
X147848076Y-62870637D01*
X147849037Y-62880392D01*
X147850000Y-62900000D01*
X147850000Y-63150000D01*
X148350000Y-63150000D01*
X148389018Y-63153843D01*
X148426537Y-63165224D01*
X148461114Y-63183706D01*
X148491421Y-63208579D01*
X148516294Y-63238886D01*
X148534776Y-63273463D01*
X148546157Y-63310982D01*
X148550000Y-63350000D01*
X148550000Y-64850000D01*
X148546157Y-64889018D01*
X148534776Y-64926537D01*
X148516294Y-64961114D01*
X148491421Y-64991421D01*
X148461114Y-65016294D01*
X148426537Y-65034776D01*
X148389018Y-65046157D01*
X148350000Y-65050000D01*
X147850000Y-65050000D01*
X147850000Y-65300000D01*
X147849037Y-65319608D01*
X147848076Y-65329363D01*
X147840428Y-65367810D01*
X147837583Y-65377189D01*
X147822577Y-65413416D01*
X147817956Y-65422061D01*
X147796170Y-65454664D01*
X147789952Y-65462240D01*
X147762240Y-65489952D01*
X147754664Y-65496170D01*
X147722061Y-65517956D01*
X147713416Y-65522577D01*
X147677189Y-65537583D01*
X147667810Y-65540428D01*
X147629363Y-65548076D01*
X147619608Y-65549037D01*
X147600000Y-65550000D01*
X145200000Y-65550000D01*
X145180392Y-65549037D01*
X145170637Y-65548076D01*
X145132190Y-65540428D01*
X145122811Y-65537583D01*
X145086584Y-65522577D01*
X145077939Y-65517956D01*
X145045336Y-65496170D01*
X145037760Y-65489952D01*
X145010048Y-65462240D01*
X145003830Y-65454664D01*
X144982044Y-65422061D01*
X144977423Y-65413416D01*
X144962417Y-65377189D01*
X144959572Y-65367810D01*
X144951924Y-65329363D01*
X144950963Y-65319608D01*
X144950000Y-65300000D01*
X144950000Y-62900000D01*
X144950963Y-62880392D01*
X144951924Y-62870637D01*
X144959572Y-62832190D01*
X144962417Y-62822811D01*
X144977423Y-62786584D01*
X144982044Y-62777939D01*
X145003830Y-62745336D01*
X145010048Y-62737760D01*
X145037760Y-62710048D01*
X145045336Y-62703830D01*
X145077939Y-62682044D01*
X145086584Y-62677423D01*
X145122811Y-62662417D01*
X145132190Y-62659572D01*
X145170637Y-62651924D01*
X145180392Y-62650963D01*
X145200000Y-62650000D01*
X147600000Y-62650000D01*
X147619608Y-62650963D01*
G37*
D16*
X135690000Y-64059999D03*
D17*
X134420000Y-66600000D03*
X144580000Y-66600000D03*
D18*
X139500000Y-66600000D03*
D16*
X142040000Y-61520000D03*
X136960000Y-61520000D03*
X143310000Y-64060000D03*
D15*
G36*
X116019608Y-62550963D02*
G01*
X116029363Y-62551924D01*
X116067810Y-62559572D01*
X116077189Y-62562417D01*
X116113416Y-62577423D01*
X116122061Y-62582044D01*
X116154664Y-62603830D01*
X116162240Y-62610048D01*
X116189952Y-62637760D01*
X116196170Y-62645336D01*
X116217956Y-62677939D01*
X116222577Y-62686584D01*
X116237583Y-62722811D01*
X116240428Y-62732190D01*
X116248076Y-62770637D01*
X116249037Y-62780392D01*
X116250000Y-62800000D01*
X116250000Y-64800000D01*
X116249037Y-64819608D01*
X116248076Y-64829363D01*
X116240428Y-64867810D01*
X116237583Y-64877189D01*
X116222577Y-64913416D01*
X116217956Y-64922061D01*
X116196170Y-64954664D01*
X116189952Y-64962240D01*
X116162166Y-64990013D01*
X116154546Y-64996261D01*
X116138675Y-65008013D01*
X115538675Y-65408013D01*
X115521824Y-65418089D01*
X115513175Y-65422700D01*
X115476932Y-65437666D01*
X115467549Y-65440501D01*
X115429212Y-65448095D01*
X115419509Y-65449046D01*
X115400000Y-65450000D01*
X113600000Y-65450000D01*
X113580392Y-65449037D01*
X113570637Y-65448076D01*
X113532190Y-65440428D01*
X113522811Y-65437583D01*
X113486584Y-65422577D01*
X113477939Y-65417956D01*
X113445336Y-65396170D01*
X113437760Y-65389952D01*
X113410048Y-65362240D01*
X113403830Y-65354664D01*
X113382044Y-65322061D01*
X113377423Y-65313416D01*
X113362417Y-65277189D01*
X113359572Y-65267810D01*
X113351924Y-65229363D01*
X113350963Y-65219608D01*
X113350000Y-65200000D01*
X113350000Y-64950000D01*
X112950000Y-64950000D01*
X112910982Y-64946157D01*
X112873463Y-64934776D01*
X112838886Y-64916294D01*
X112808579Y-64891421D01*
X112783706Y-64861114D01*
X112765224Y-64826537D01*
X112753843Y-64789018D01*
X112750000Y-64750000D01*
X112750000Y-63250000D01*
X112753843Y-63210982D01*
X112765224Y-63173463D01*
X112783706Y-63138886D01*
X112808579Y-63108579D01*
X112838886Y-63083706D01*
X112873463Y-63065224D01*
X112910982Y-63053843D01*
X112950000Y-63050000D01*
X113350000Y-63050000D01*
X113350000Y-62800000D01*
X113350963Y-62780392D01*
X113351924Y-62770637D01*
X113359572Y-62732190D01*
X113362417Y-62722811D01*
X113377423Y-62686584D01*
X113382044Y-62677939D01*
X113403830Y-62645336D01*
X113410048Y-62637760D01*
X113437760Y-62610048D01*
X113445336Y-62603830D01*
X113477939Y-62582044D01*
X113486584Y-62577423D01*
X113522811Y-62562417D01*
X113532190Y-62559572D01*
X113570637Y-62551924D01*
X113580392Y-62550963D01*
X113600000Y-62550000D01*
X116000000Y-62550000D01*
X116019608Y-62550963D01*
G37*
G36*
X128619608Y-65150963D02*
G01*
X128629363Y-65151924D01*
X128667810Y-65159572D01*
X128677189Y-65162417D01*
X128713416Y-65177423D01*
X128722061Y-65182044D01*
X128754664Y-65203830D01*
X128762240Y-65210048D01*
X128789952Y-65237760D01*
X128796170Y-65245336D01*
X128817956Y-65277939D01*
X128822577Y-65286584D01*
X128837583Y-65322811D01*
X128840428Y-65332190D01*
X128848076Y-65370637D01*
X128849037Y-65380392D01*
X128850000Y-65400000D01*
X128850000Y-65650000D01*
X129350000Y-65650000D01*
X129389018Y-65653843D01*
X129426537Y-65665224D01*
X129461114Y-65683706D01*
X129491421Y-65708579D01*
X129516294Y-65738886D01*
X129534776Y-65773463D01*
X129546157Y-65810982D01*
X129550000Y-65850000D01*
X129550000Y-67350000D01*
X129546157Y-67389018D01*
X129534776Y-67426537D01*
X129516294Y-67461114D01*
X129491421Y-67491421D01*
X129461114Y-67516294D01*
X129426537Y-67534776D01*
X129389018Y-67546157D01*
X129350000Y-67550000D01*
X128850000Y-67550000D01*
X128850000Y-67800000D01*
X128849037Y-67819608D01*
X128848076Y-67829363D01*
X128840428Y-67867810D01*
X128837583Y-67877189D01*
X128822577Y-67913416D01*
X128817956Y-67922061D01*
X128796170Y-67954664D01*
X128789952Y-67962240D01*
X128762240Y-67989952D01*
X128754664Y-67996170D01*
X128722061Y-68017956D01*
X128713416Y-68022577D01*
X128677189Y-68037583D01*
X128667810Y-68040428D01*
X128629363Y-68048076D01*
X128619608Y-68049037D01*
X128600000Y-68050000D01*
X126200000Y-68050000D01*
X126180392Y-68049037D01*
X126170637Y-68048076D01*
X126132190Y-68040428D01*
X126122811Y-68037583D01*
X126086584Y-68022577D01*
X126077939Y-68017956D01*
X126045336Y-67996170D01*
X126037760Y-67989952D01*
X126010048Y-67962240D01*
X126003830Y-67954664D01*
X125982044Y-67922061D01*
X125977423Y-67913416D01*
X125962417Y-67877189D01*
X125959572Y-67867810D01*
X125951924Y-67829363D01*
X125950963Y-67819608D01*
X125950000Y-67800000D01*
X125950000Y-65400000D01*
X125950963Y-65380392D01*
X125951924Y-65370637D01*
X125959572Y-65332190D01*
X125962417Y-65322811D01*
X125977423Y-65286584D01*
X125982044Y-65277939D01*
X126003830Y-65245336D01*
X126010048Y-65237760D01*
X126037760Y-65210048D01*
X126045336Y-65203830D01*
X126077939Y-65182044D01*
X126086584Y-65177423D01*
X126122811Y-65162417D01*
X126132190Y-65159572D01*
X126170637Y-65151924D01*
X126180392Y-65150963D01*
X126200000Y-65150000D01*
X128600000Y-65150000D01*
X128619608Y-65150963D01*
G37*
D16*
X116690000Y-66559999D03*
D17*
X115420000Y-69100000D03*
X125580000Y-69100000D03*
D18*
X120500000Y-69100000D03*
D16*
X123040000Y-64020000D03*
X117960000Y-64020000D03*
X124310000Y-66560000D03*
D15*
G36*
X211019608Y-49950963D02*
G01*
X211029363Y-49951924D01*
X211067810Y-49959572D01*
X211077189Y-49962417D01*
X211113416Y-49977423D01*
X211122061Y-49982044D01*
X211154664Y-50003830D01*
X211162240Y-50010048D01*
X211189952Y-50037760D01*
X211196170Y-50045336D01*
X211217956Y-50077939D01*
X211222577Y-50086584D01*
X211237583Y-50122811D01*
X211240428Y-50132190D01*
X211248076Y-50170637D01*
X211249037Y-50180392D01*
X211250000Y-50200000D01*
X211250000Y-52200000D01*
X211249037Y-52219608D01*
X211248076Y-52229363D01*
X211240428Y-52267810D01*
X211237583Y-52277189D01*
X211222577Y-52313416D01*
X211217956Y-52322061D01*
X211196170Y-52354664D01*
X211189952Y-52362240D01*
X211162166Y-52390013D01*
X211154546Y-52396261D01*
X211138675Y-52408013D01*
X210538675Y-52808013D01*
X210521824Y-52818089D01*
X210513175Y-52822700D01*
X210476932Y-52837666D01*
X210467549Y-52840501D01*
X210429212Y-52848095D01*
X210419509Y-52849046D01*
X210400000Y-52850000D01*
X208600000Y-52850000D01*
X208580392Y-52849037D01*
X208570637Y-52848076D01*
X208532190Y-52840428D01*
X208522811Y-52837583D01*
X208486584Y-52822577D01*
X208477939Y-52817956D01*
X208445336Y-52796170D01*
X208437760Y-52789952D01*
X208410048Y-52762240D01*
X208403830Y-52754664D01*
X208382044Y-52722061D01*
X208377423Y-52713416D01*
X208362417Y-52677189D01*
X208359572Y-52667810D01*
X208351924Y-52629363D01*
X208350963Y-52619608D01*
X208350000Y-52600000D01*
X208350000Y-52350000D01*
X207950000Y-52350000D01*
X207910982Y-52346157D01*
X207873463Y-52334776D01*
X207838886Y-52316294D01*
X207808579Y-52291421D01*
X207783706Y-52261114D01*
X207765224Y-52226537D01*
X207753843Y-52189018D01*
X207750000Y-52150000D01*
X207750000Y-50650000D01*
X207753843Y-50610982D01*
X207765224Y-50573463D01*
X207783706Y-50538886D01*
X207808579Y-50508579D01*
X207838886Y-50483706D01*
X207873463Y-50465224D01*
X207910982Y-50453843D01*
X207950000Y-50450000D01*
X208350000Y-50450000D01*
X208350000Y-50200000D01*
X208350963Y-50180392D01*
X208351924Y-50170637D01*
X208359572Y-50132190D01*
X208362417Y-50122811D01*
X208377423Y-50086584D01*
X208382044Y-50077939D01*
X208403830Y-50045336D01*
X208410048Y-50037760D01*
X208437760Y-50010048D01*
X208445336Y-50003830D01*
X208477939Y-49982044D01*
X208486584Y-49977423D01*
X208522811Y-49962417D01*
X208532190Y-49959572D01*
X208570637Y-49951924D01*
X208580392Y-49950963D01*
X208600000Y-49950000D01*
X211000000Y-49950000D01*
X211019608Y-49950963D01*
G37*
G36*
X223619608Y-52550963D02*
G01*
X223629363Y-52551924D01*
X223667810Y-52559572D01*
X223677189Y-52562417D01*
X223713416Y-52577423D01*
X223722061Y-52582044D01*
X223754664Y-52603830D01*
X223762240Y-52610048D01*
X223789952Y-52637760D01*
X223796170Y-52645336D01*
X223817956Y-52677939D01*
X223822577Y-52686584D01*
X223837583Y-52722811D01*
X223840428Y-52732190D01*
X223848076Y-52770637D01*
X223849037Y-52780392D01*
X223850000Y-52800000D01*
X223850000Y-53050000D01*
X224350000Y-53050000D01*
X224389018Y-53053843D01*
X224426537Y-53065224D01*
X224461114Y-53083706D01*
X224491421Y-53108579D01*
X224516294Y-53138886D01*
X224534776Y-53173463D01*
X224546157Y-53210982D01*
X224550000Y-53250000D01*
X224550000Y-54750000D01*
X224546157Y-54789018D01*
X224534776Y-54826537D01*
X224516294Y-54861114D01*
X224491421Y-54891421D01*
X224461114Y-54916294D01*
X224426537Y-54934776D01*
X224389018Y-54946157D01*
X224350000Y-54950000D01*
X223850000Y-54950000D01*
X223850000Y-55200000D01*
X223849037Y-55219608D01*
X223848076Y-55229363D01*
X223840428Y-55267810D01*
X223837583Y-55277189D01*
X223822577Y-55313416D01*
X223817956Y-55322061D01*
X223796170Y-55354664D01*
X223789952Y-55362240D01*
X223762240Y-55389952D01*
X223754664Y-55396170D01*
X223722061Y-55417956D01*
X223713416Y-55422577D01*
X223677189Y-55437583D01*
X223667810Y-55440428D01*
X223629363Y-55448076D01*
X223619608Y-55449037D01*
X223600000Y-55450000D01*
X221200000Y-55450000D01*
X221180392Y-55449037D01*
X221170637Y-55448076D01*
X221132190Y-55440428D01*
X221122811Y-55437583D01*
X221086584Y-55422577D01*
X221077939Y-55417956D01*
X221045336Y-55396170D01*
X221037760Y-55389952D01*
X221010048Y-55362240D01*
X221003830Y-55354664D01*
X220982044Y-55322061D01*
X220977423Y-55313416D01*
X220962417Y-55277189D01*
X220959572Y-55267810D01*
X220951924Y-55229363D01*
X220950963Y-55219608D01*
X220950000Y-55200000D01*
X220950000Y-52800000D01*
X220950963Y-52780392D01*
X220951924Y-52770637D01*
X220959572Y-52732190D01*
X220962417Y-52722811D01*
X220977423Y-52686584D01*
X220982044Y-52677939D01*
X221003830Y-52645336D01*
X221010048Y-52637760D01*
X221037760Y-52610048D01*
X221045336Y-52603830D01*
X221077939Y-52582044D01*
X221086584Y-52577423D01*
X221122811Y-52562417D01*
X221132190Y-52559572D01*
X221170637Y-52551924D01*
X221180392Y-52550963D01*
X221200000Y-52550000D01*
X223600000Y-52550000D01*
X223619608Y-52550963D01*
G37*
D16*
X211690000Y-53959999D03*
D17*
X210420000Y-56500000D03*
X220580000Y-56500000D03*
D18*
X215500000Y-56500000D03*
D16*
X218040000Y-51420000D03*
X212960000Y-51420000D03*
X219310000Y-53960000D03*
D15*
G36*
X192019608Y-49950963D02*
G01*
X192029363Y-49951924D01*
X192067810Y-49959572D01*
X192077189Y-49962417D01*
X192113416Y-49977423D01*
X192122061Y-49982044D01*
X192154664Y-50003830D01*
X192162240Y-50010048D01*
X192189952Y-50037760D01*
X192196170Y-50045336D01*
X192217956Y-50077939D01*
X192222577Y-50086584D01*
X192237583Y-50122811D01*
X192240428Y-50132190D01*
X192248076Y-50170637D01*
X192249037Y-50180392D01*
X192250000Y-50200000D01*
X192250000Y-52200000D01*
X192249037Y-52219608D01*
X192248076Y-52229363D01*
X192240428Y-52267810D01*
X192237583Y-52277189D01*
X192222577Y-52313416D01*
X192217956Y-52322061D01*
X192196170Y-52354664D01*
X192189952Y-52362240D01*
X192162166Y-52390013D01*
X192154546Y-52396261D01*
X192138675Y-52408013D01*
X191538675Y-52808013D01*
X191521824Y-52818089D01*
X191513175Y-52822700D01*
X191476932Y-52837666D01*
X191467549Y-52840501D01*
X191429212Y-52848095D01*
X191419509Y-52849046D01*
X191400000Y-52850000D01*
X189600000Y-52850000D01*
X189580392Y-52849037D01*
X189570637Y-52848076D01*
X189532190Y-52840428D01*
X189522811Y-52837583D01*
X189486584Y-52822577D01*
X189477939Y-52817956D01*
X189445336Y-52796170D01*
X189437760Y-52789952D01*
X189410048Y-52762240D01*
X189403830Y-52754664D01*
X189382044Y-52722061D01*
X189377423Y-52713416D01*
X189362417Y-52677189D01*
X189359572Y-52667810D01*
X189351924Y-52629363D01*
X189350963Y-52619608D01*
X189350000Y-52600000D01*
X189350000Y-52350000D01*
X188950000Y-52350000D01*
X188910982Y-52346157D01*
X188873463Y-52334776D01*
X188838886Y-52316294D01*
X188808579Y-52291421D01*
X188783706Y-52261114D01*
X188765224Y-52226537D01*
X188753843Y-52189018D01*
X188750000Y-52150000D01*
X188750000Y-50650000D01*
X188753843Y-50610982D01*
X188765224Y-50573463D01*
X188783706Y-50538886D01*
X188808579Y-50508579D01*
X188838886Y-50483706D01*
X188873463Y-50465224D01*
X188910982Y-50453843D01*
X188950000Y-50450000D01*
X189350000Y-50450000D01*
X189350000Y-50200000D01*
X189350963Y-50180392D01*
X189351924Y-50170637D01*
X189359572Y-50132190D01*
X189362417Y-50122811D01*
X189377423Y-50086584D01*
X189382044Y-50077939D01*
X189403830Y-50045336D01*
X189410048Y-50037760D01*
X189437760Y-50010048D01*
X189445336Y-50003830D01*
X189477939Y-49982044D01*
X189486584Y-49977423D01*
X189522811Y-49962417D01*
X189532190Y-49959572D01*
X189570637Y-49951924D01*
X189580392Y-49950963D01*
X189600000Y-49950000D01*
X192000000Y-49950000D01*
X192019608Y-49950963D01*
G37*
G36*
X204619608Y-52550963D02*
G01*
X204629363Y-52551924D01*
X204667810Y-52559572D01*
X204677189Y-52562417D01*
X204713416Y-52577423D01*
X204722061Y-52582044D01*
X204754664Y-52603830D01*
X204762240Y-52610048D01*
X204789952Y-52637760D01*
X204796170Y-52645336D01*
X204817956Y-52677939D01*
X204822577Y-52686584D01*
X204837583Y-52722811D01*
X204840428Y-52732190D01*
X204848076Y-52770637D01*
X204849037Y-52780392D01*
X204850000Y-52800000D01*
X204850000Y-53050000D01*
X205350000Y-53050000D01*
X205389018Y-53053843D01*
X205426537Y-53065224D01*
X205461114Y-53083706D01*
X205491421Y-53108579D01*
X205516294Y-53138886D01*
X205534776Y-53173463D01*
X205546157Y-53210982D01*
X205550000Y-53250000D01*
X205550000Y-54750000D01*
X205546157Y-54789018D01*
X205534776Y-54826537D01*
X205516294Y-54861114D01*
X205491421Y-54891421D01*
X205461114Y-54916294D01*
X205426537Y-54934776D01*
X205389018Y-54946157D01*
X205350000Y-54950000D01*
X204850000Y-54950000D01*
X204850000Y-55200000D01*
X204849037Y-55219608D01*
X204848076Y-55229363D01*
X204840428Y-55267810D01*
X204837583Y-55277189D01*
X204822577Y-55313416D01*
X204817956Y-55322061D01*
X204796170Y-55354664D01*
X204789952Y-55362240D01*
X204762240Y-55389952D01*
X204754664Y-55396170D01*
X204722061Y-55417956D01*
X204713416Y-55422577D01*
X204677189Y-55437583D01*
X204667810Y-55440428D01*
X204629363Y-55448076D01*
X204619608Y-55449037D01*
X204600000Y-55450000D01*
X202200000Y-55450000D01*
X202180392Y-55449037D01*
X202170637Y-55448076D01*
X202132190Y-55440428D01*
X202122811Y-55437583D01*
X202086584Y-55422577D01*
X202077939Y-55417956D01*
X202045336Y-55396170D01*
X202037760Y-55389952D01*
X202010048Y-55362240D01*
X202003830Y-55354664D01*
X201982044Y-55322061D01*
X201977423Y-55313416D01*
X201962417Y-55277189D01*
X201959572Y-55267810D01*
X201951924Y-55229363D01*
X201950963Y-55219608D01*
X201950000Y-55200000D01*
X201950000Y-52800000D01*
X201950963Y-52780392D01*
X201951924Y-52770637D01*
X201959572Y-52732190D01*
X201962417Y-52722811D01*
X201977423Y-52686584D01*
X201982044Y-52677939D01*
X202003830Y-52645336D01*
X202010048Y-52637760D01*
X202037760Y-52610048D01*
X202045336Y-52603830D01*
X202077939Y-52582044D01*
X202086584Y-52577423D01*
X202122811Y-52562417D01*
X202132190Y-52559572D01*
X202170637Y-52551924D01*
X202180392Y-52550963D01*
X202200000Y-52550000D01*
X204600000Y-52550000D01*
X204619608Y-52550963D01*
G37*
D16*
X192690000Y-53959999D03*
D17*
X191420000Y-56500000D03*
X201580000Y-56500000D03*
D18*
X196500000Y-56500000D03*
D16*
X199040000Y-51420000D03*
X193960000Y-51420000D03*
X200310000Y-53960000D03*
D15*
G36*
X173019608Y-40950963D02*
G01*
X173029363Y-40951924D01*
X173067810Y-40959572D01*
X173077189Y-40962417D01*
X173113416Y-40977423D01*
X173122061Y-40982044D01*
X173154664Y-41003830D01*
X173162240Y-41010048D01*
X173189952Y-41037760D01*
X173196170Y-41045336D01*
X173217956Y-41077939D01*
X173222577Y-41086584D01*
X173237583Y-41122811D01*
X173240428Y-41132190D01*
X173248076Y-41170637D01*
X173249037Y-41180392D01*
X173250000Y-41200000D01*
X173250000Y-43200000D01*
X173249037Y-43219608D01*
X173248076Y-43229363D01*
X173240428Y-43267810D01*
X173237583Y-43277189D01*
X173222577Y-43313416D01*
X173217956Y-43322061D01*
X173196170Y-43354664D01*
X173189952Y-43362240D01*
X173162166Y-43390013D01*
X173154546Y-43396261D01*
X173138675Y-43408013D01*
X172538675Y-43808013D01*
X172521824Y-43818089D01*
X172513175Y-43822700D01*
X172476932Y-43837666D01*
X172467549Y-43840501D01*
X172429212Y-43848095D01*
X172419509Y-43849046D01*
X172400000Y-43850000D01*
X170600000Y-43850000D01*
X170580392Y-43849037D01*
X170570637Y-43848076D01*
X170532190Y-43840428D01*
X170522811Y-43837583D01*
X170486584Y-43822577D01*
X170477939Y-43817956D01*
X170445336Y-43796170D01*
X170437760Y-43789952D01*
X170410048Y-43762240D01*
X170403830Y-43754664D01*
X170382044Y-43722061D01*
X170377423Y-43713416D01*
X170362417Y-43677189D01*
X170359572Y-43667810D01*
X170351924Y-43629363D01*
X170350963Y-43619608D01*
X170350000Y-43600000D01*
X170350000Y-43350000D01*
X169950000Y-43350000D01*
X169910982Y-43346157D01*
X169873463Y-43334776D01*
X169838886Y-43316294D01*
X169808579Y-43291421D01*
X169783706Y-43261114D01*
X169765224Y-43226537D01*
X169753843Y-43189018D01*
X169750000Y-43150000D01*
X169750000Y-41650000D01*
X169753843Y-41610982D01*
X169765224Y-41573463D01*
X169783706Y-41538886D01*
X169808579Y-41508579D01*
X169838886Y-41483706D01*
X169873463Y-41465224D01*
X169910982Y-41453843D01*
X169950000Y-41450000D01*
X170350000Y-41450000D01*
X170350000Y-41200000D01*
X170350963Y-41180392D01*
X170351924Y-41170637D01*
X170359572Y-41132190D01*
X170362417Y-41122811D01*
X170377423Y-41086584D01*
X170382044Y-41077939D01*
X170403830Y-41045336D01*
X170410048Y-41037760D01*
X170437760Y-41010048D01*
X170445336Y-41003830D01*
X170477939Y-40982044D01*
X170486584Y-40977423D01*
X170522811Y-40962417D01*
X170532190Y-40959572D01*
X170570637Y-40951924D01*
X170580392Y-40950963D01*
X170600000Y-40950000D01*
X173000000Y-40950000D01*
X173019608Y-40950963D01*
G37*
G36*
X185619608Y-43550963D02*
G01*
X185629363Y-43551924D01*
X185667810Y-43559572D01*
X185677189Y-43562417D01*
X185713416Y-43577423D01*
X185722061Y-43582044D01*
X185754664Y-43603830D01*
X185762240Y-43610048D01*
X185789952Y-43637760D01*
X185796170Y-43645336D01*
X185817956Y-43677939D01*
X185822577Y-43686584D01*
X185837583Y-43722811D01*
X185840428Y-43732190D01*
X185848076Y-43770637D01*
X185849037Y-43780392D01*
X185850000Y-43800000D01*
X185850000Y-44050000D01*
X186350000Y-44050000D01*
X186389018Y-44053843D01*
X186426537Y-44065224D01*
X186461114Y-44083706D01*
X186491421Y-44108579D01*
X186516294Y-44138886D01*
X186534776Y-44173463D01*
X186546157Y-44210982D01*
X186550000Y-44250000D01*
X186550000Y-45750000D01*
X186546157Y-45789018D01*
X186534776Y-45826537D01*
X186516294Y-45861114D01*
X186491421Y-45891421D01*
X186461114Y-45916294D01*
X186426537Y-45934776D01*
X186389018Y-45946157D01*
X186350000Y-45950000D01*
X185850000Y-45950000D01*
X185850000Y-46200000D01*
X185849037Y-46219608D01*
X185848076Y-46229363D01*
X185840428Y-46267810D01*
X185837583Y-46277189D01*
X185822577Y-46313416D01*
X185817956Y-46322061D01*
X185796170Y-46354664D01*
X185789952Y-46362240D01*
X185762240Y-46389952D01*
X185754664Y-46396170D01*
X185722061Y-46417956D01*
X185713416Y-46422577D01*
X185677189Y-46437583D01*
X185667810Y-46440428D01*
X185629363Y-46448076D01*
X185619608Y-46449037D01*
X185600000Y-46450000D01*
X183200000Y-46450000D01*
X183180392Y-46449037D01*
X183170637Y-46448076D01*
X183132190Y-46440428D01*
X183122811Y-46437583D01*
X183086584Y-46422577D01*
X183077939Y-46417956D01*
X183045336Y-46396170D01*
X183037760Y-46389952D01*
X183010048Y-46362240D01*
X183003830Y-46354664D01*
X182982044Y-46322061D01*
X182977423Y-46313416D01*
X182962417Y-46277189D01*
X182959572Y-46267810D01*
X182951924Y-46229363D01*
X182950963Y-46219608D01*
X182950000Y-46200000D01*
X182950000Y-43800000D01*
X182950963Y-43780392D01*
X182951924Y-43770637D01*
X182959572Y-43732190D01*
X182962417Y-43722811D01*
X182977423Y-43686584D01*
X182982044Y-43677939D01*
X183003830Y-43645336D01*
X183010048Y-43637760D01*
X183037760Y-43610048D01*
X183045336Y-43603830D01*
X183077939Y-43582044D01*
X183086584Y-43577423D01*
X183122811Y-43562417D01*
X183132190Y-43559572D01*
X183170637Y-43551924D01*
X183180392Y-43550963D01*
X183200000Y-43550000D01*
X185600000Y-43550000D01*
X185619608Y-43550963D01*
G37*
D16*
X173690000Y-44959999D03*
D17*
X172420000Y-47500000D03*
X182580000Y-47500000D03*
D18*
X177500000Y-47500000D03*
D16*
X180040000Y-42420000D03*
X174960000Y-42420000D03*
X181310000Y-44960000D03*
D15*
G36*
X154019608Y-38460963D02*
G01*
X154029363Y-38461924D01*
X154067810Y-38469572D01*
X154077189Y-38472417D01*
X154113416Y-38487423D01*
X154122061Y-38492044D01*
X154154664Y-38513830D01*
X154162240Y-38520048D01*
X154189952Y-38547760D01*
X154196170Y-38555336D01*
X154217956Y-38587939D01*
X154222577Y-38596584D01*
X154237583Y-38632811D01*
X154240428Y-38642190D01*
X154248076Y-38680637D01*
X154249037Y-38690392D01*
X154250000Y-38710000D01*
X154250000Y-40710000D01*
X154249037Y-40729608D01*
X154248076Y-40739363D01*
X154240428Y-40777810D01*
X154237583Y-40787189D01*
X154222577Y-40823416D01*
X154217956Y-40832061D01*
X154196170Y-40864664D01*
X154189952Y-40872240D01*
X154162166Y-40900013D01*
X154154546Y-40906261D01*
X154138675Y-40918013D01*
X153538675Y-41318013D01*
X153521824Y-41328089D01*
X153513175Y-41332700D01*
X153476932Y-41347666D01*
X153467549Y-41350501D01*
X153429212Y-41358095D01*
X153419509Y-41359046D01*
X153400000Y-41360000D01*
X151600000Y-41360000D01*
X151580392Y-41359037D01*
X151570637Y-41358076D01*
X151532190Y-41350428D01*
X151522811Y-41347583D01*
X151486584Y-41332577D01*
X151477939Y-41327956D01*
X151445336Y-41306170D01*
X151437760Y-41299952D01*
X151410048Y-41272240D01*
X151403830Y-41264664D01*
X151382044Y-41232061D01*
X151377423Y-41223416D01*
X151362417Y-41187189D01*
X151359572Y-41177810D01*
X151351924Y-41139363D01*
X151350963Y-41129608D01*
X151350000Y-41110000D01*
X151350000Y-40860000D01*
X150950000Y-40860000D01*
X150910982Y-40856157D01*
X150873463Y-40844776D01*
X150838886Y-40826294D01*
X150808579Y-40801421D01*
X150783706Y-40771114D01*
X150765224Y-40736537D01*
X150753843Y-40699018D01*
X150750000Y-40660000D01*
X150750000Y-39160000D01*
X150753843Y-39120982D01*
X150765224Y-39083463D01*
X150783706Y-39048886D01*
X150808579Y-39018579D01*
X150838886Y-38993706D01*
X150873463Y-38975224D01*
X150910982Y-38963843D01*
X150950000Y-38960000D01*
X151350000Y-38960000D01*
X151350000Y-38710000D01*
X151350963Y-38690392D01*
X151351924Y-38680637D01*
X151359572Y-38642190D01*
X151362417Y-38632811D01*
X151377423Y-38596584D01*
X151382044Y-38587939D01*
X151403830Y-38555336D01*
X151410048Y-38547760D01*
X151437760Y-38520048D01*
X151445336Y-38513830D01*
X151477939Y-38492044D01*
X151486584Y-38487423D01*
X151522811Y-38472417D01*
X151532190Y-38469572D01*
X151570637Y-38461924D01*
X151580392Y-38460963D01*
X151600000Y-38460000D01*
X154000000Y-38460000D01*
X154019608Y-38460963D01*
G37*
G36*
X166619608Y-41060963D02*
G01*
X166629363Y-41061924D01*
X166667810Y-41069572D01*
X166677189Y-41072417D01*
X166713416Y-41087423D01*
X166722061Y-41092044D01*
X166754664Y-41113830D01*
X166762240Y-41120048D01*
X166789952Y-41147760D01*
X166796170Y-41155336D01*
X166817956Y-41187939D01*
X166822577Y-41196584D01*
X166837583Y-41232811D01*
X166840428Y-41242190D01*
X166848076Y-41280637D01*
X166849037Y-41290392D01*
X166850000Y-41310000D01*
X166850000Y-41560000D01*
X167350000Y-41560000D01*
X167389018Y-41563843D01*
X167426537Y-41575224D01*
X167461114Y-41593706D01*
X167491421Y-41618579D01*
X167516294Y-41648886D01*
X167534776Y-41683463D01*
X167546157Y-41720982D01*
X167550000Y-41760000D01*
X167550000Y-43260000D01*
X167546157Y-43299018D01*
X167534776Y-43336537D01*
X167516294Y-43371114D01*
X167491421Y-43401421D01*
X167461114Y-43426294D01*
X167426537Y-43444776D01*
X167389018Y-43456157D01*
X167350000Y-43460000D01*
X166850000Y-43460000D01*
X166850000Y-43710000D01*
X166849037Y-43729608D01*
X166848076Y-43739363D01*
X166840428Y-43777810D01*
X166837583Y-43787189D01*
X166822577Y-43823416D01*
X166817956Y-43832061D01*
X166796170Y-43864664D01*
X166789952Y-43872240D01*
X166762240Y-43899952D01*
X166754664Y-43906170D01*
X166722061Y-43927956D01*
X166713416Y-43932577D01*
X166677189Y-43947583D01*
X166667810Y-43950428D01*
X166629363Y-43958076D01*
X166619608Y-43959037D01*
X166600000Y-43960000D01*
X164200000Y-43960000D01*
X164180392Y-43959037D01*
X164170637Y-43958076D01*
X164132190Y-43950428D01*
X164122811Y-43947583D01*
X164086584Y-43932577D01*
X164077939Y-43927956D01*
X164045336Y-43906170D01*
X164037760Y-43899952D01*
X164010048Y-43872240D01*
X164003830Y-43864664D01*
X163982044Y-43832061D01*
X163977423Y-43823416D01*
X163962417Y-43787189D01*
X163959572Y-43777810D01*
X163951924Y-43739363D01*
X163950963Y-43729608D01*
X163950000Y-43710000D01*
X163950000Y-41310000D01*
X163950963Y-41290392D01*
X163951924Y-41280637D01*
X163959572Y-41242190D01*
X163962417Y-41232811D01*
X163977423Y-41196584D01*
X163982044Y-41187939D01*
X164003830Y-41155336D01*
X164010048Y-41147760D01*
X164037760Y-41120048D01*
X164045336Y-41113830D01*
X164077939Y-41092044D01*
X164086584Y-41087423D01*
X164122811Y-41072417D01*
X164132190Y-41069572D01*
X164170637Y-41061924D01*
X164180392Y-41060963D01*
X164200000Y-41060000D01*
X166600000Y-41060000D01*
X166619608Y-41060963D01*
G37*
D16*
X154690000Y-42469999D03*
D17*
X153420000Y-45010000D03*
X163580000Y-45010000D03*
D18*
X158500000Y-45010000D03*
D16*
X161040000Y-39930000D03*
X155960000Y-39930000D03*
X162310000Y-42470000D03*
D15*
G36*
X135019608Y-40950963D02*
G01*
X135029363Y-40951924D01*
X135067810Y-40959572D01*
X135077189Y-40962417D01*
X135113416Y-40977423D01*
X135122061Y-40982044D01*
X135154664Y-41003830D01*
X135162240Y-41010048D01*
X135189952Y-41037760D01*
X135196170Y-41045336D01*
X135217956Y-41077939D01*
X135222577Y-41086584D01*
X135237583Y-41122811D01*
X135240428Y-41132190D01*
X135248076Y-41170637D01*
X135249037Y-41180392D01*
X135250000Y-41200000D01*
X135250000Y-43200000D01*
X135249037Y-43219608D01*
X135248076Y-43229363D01*
X135240428Y-43267810D01*
X135237583Y-43277189D01*
X135222577Y-43313416D01*
X135217956Y-43322061D01*
X135196170Y-43354664D01*
X135189952Y-43362240D01*
X135162166Y-43390013D01*
X135154546Y-43396261D01*
X135138675Y-43408013D01*
X134538675Y-43808013D01*
X134521824Y-43818089D01*
X134513175Y-43822700D01*
X134476932Y-43837666D01*
X134467549Y-43840501D01*
X134429212Y-43848095D01*
X134419509Y-43849046D01*
X134400000Y-43850000D01*
X132600000Y-43850000D01*
X132580392Y-43849037D01*
X132570637Y-43848076D01*
X132532190Y-43840428D01*
X132522811Y-43837583D01*
X132486584Y-43822577D01*
X132477939Y-43817956D01*
X132445336Y-43796170D01*
X132437760Y-43789952D01*
X132410048Y-43762240D01*
X132403830Y-43754664D01*
X132382044Y-43722061D01*
X132377423Y-43713416D01*
X132362417Y-43677189D01*
X132359572Y-43667810D01*
X132351924Y-43629363D01*
X132350963Y-43619608D01*
X132350000Y-43600000D01*
X132350000Y-43350000D01*
X131950000Y-43350000D01*
X131910982Y-43346157D01*
X131873463Y-43334776D01*
X131838886Y-43316294D01*
X131808579Y-43291421D01*
X131783706Y-43261114D01*
X131765224Y-43226537D01*
X131753843Y-43189018D01*
X131750000Y-43150000D01*
X131750000Y-41650000D01*
X131753843Y-41610982D01*
X131765224Y-41573463D01*
X131783706Y-41538886D01*
X131808579Y-41508579D01*
X131838886Y-41483706D01*
X131873463Y-41465224D01*
X131910982Y-41453843D01*
X131950000Y-41450000D01*
X132350000Y-41450000D01*
X132350000Y-41200000D01*
X132350963Y-41180392D01*
X132351924Y-41170637D01*
X132359572Y-41132190D01*
X132362417Y-41122811D01*
X132377423Y-41086584D01*
X132382044Y-41077939D01*
X132403830Y-41045336D01*
X132410048Y-41037760D01*
X132437760Y-41010048D01*
X132445336Y-41003830D01*
X132477939Y-40982044D01*
X132486584Y-40977423D01*
X132522811Y-40962417D01*
X132532190Y-40959572D01*
X132570637Y-40951924D01*
X132580392Y-40950963D01*
X132600000Y-40950000D01*
X135000000Y-40950000D01*
X135019608Y-40950963D01*
G37*
G36*
X147619608Y-43550963D02*
G01*
X147629363Y-43551924D01*
X147667810Y-43559572D01*
X147677189Y-43562417D01*
X147713416Y-43577423D01*
X147722061Y-43582044D01*
X147754664Y-43603830D01*
X147762240Y-43610048D01*
X147789952Y-43637760D01*
X147796170Y-43645336D01*
X147817956Y-43677939D01*
X147822577Y-43686584D01*
X147837583Y-43722811D01*
X147840428Y-43732190D01*
X147848076Y-43770637D01*
X147849037Y-43780392D01*
X147850000Y-43800000D01*
X147850000Y-44050000D01*
X148350000Y-44050000D01*
X148389018Y-44053843D01*
X148426537Y-44065224D01*
X148461114Y-44083706D01*
X148491421Y-44108579D01*
X148516294Y-44138886D01*
X148534776Y-44173463D01*
X148546157Y-44210982D01*
X148550000Y-44250000D01*
X148550000Y-45750000D01*
X148546157Y-45789018D01*
X148534776Y-45826537D01*
X148516294Y-45861114D01*
X148491421Y-45891421D01*
X148461114Y-45916294D01*
X148426537Y-45934776D01*
X148389018Y-45946157D01*
X148350000Y-45950000D01*
X147850000Y-45950000D01*
X147850000Y-46200000D01*
X147849037Y-46219608D01*
X147848076Y-46229363D01*
X147840428Y-46267810D01*
X147837583Y-46277189D01*
X147822577Y-46313416D01*
X147817956Y-46322061D01*
X147796170Y-46354664D01*
X147789952Y-46362240D01*
X147762240Y-46389952D01*
X147754664Y-46396170D01*
X147722061Y-46417956D01*
X147713416Y-46422577D01*
X147677189Y-46437583D01*
X147667810Y-46440428D01*
X147629363Y-46448076D01*
X147619608Y-46449037D01*
X147600000Y-46450000D01*
X145200000Y-46450000D01*
X145180392Y-46449037D01*
X145170637Y-46448076D01*
X145132190Y-46440428D01*
X145122811Y-46437583D01*
X145086584Y-46422577D01*
X145077939Y-46417956D01*
X145045336Y-46396170D01*
X145037760Y-46389952D01*
X145010048Y-46362240D01*
X145003830Y-46354664D01*
X144982044Y-46322061D01*
X144977423Y-46313416D01*
X144962417Y-46277189D01*
X144959572Y-46267810D01*
X144951924Y-46229363D01*
X144950963Y-46219608D01*
X144950000Y-46200000D01*
X144950000Y-43800000D01*
X144950963Y-43780392D01*
X144951924Y-43770637D01*
X144959572Y-43732190D01*
X144962417Y-43722811D01*
X144977423Y-43686584D01*
X144982044Y-43677939D01*
X145003830Y-43645336D01*
X145010048Y-43637760D01*
X145037760Y-43610048D01*
X145045336Y-43603830D01*
X145077939Y-43582044D01*
X145086584Y-43577423D01*
X145122811Y-43562417D01*
X145132190Y-43559572D01*
X145170637Y-43551924D01*
X145180392Y-43550963D01*
X145200000Y-43550000D01*
X147600000Y-43550000D01*
X147619608Y-43550963D01*
G37*
D16*
X135690000Y-44959999D03*
D17*
X134420000Y-47500000D03*
X144580000Y-47500000D03*
D18*
X139500000Y-47500000D03*
D16*
X142040000Y-42420000D03*
X136960000Y-42420000D03*
X143310000Y-44960000D03*
D15*
G36*
X116019608Y-43450963D02*
G01*
X116029363Y-43451924D01*
X116067810Y-43459572D01*
X116077189Y-43462417D01*
X116113416Y-43477423D01*
X116122061Y-43482044D01*
X116154664Y-43503830D01*
X116162240Y-43510048D01*
X116189952Y-43537760D01*
X116196170Y-43545336D01*
X116217956Y-43577939D01*
X116222577Y-43586584D01*
X116237583Y-43622811D01*
X116240428Y-43632190D01*
X116248076Y-43670637D01*
X116249037Y-43680392D01*
X116250000Y-43700000D01*
X116250000Y-45700000D01*
X116249037Y-45719608D01*
X116248076Y-45729363D01*
X116240428Y-45767810D01*
X116237583Y-45777189D01*
X116222577Y-45813416D01*
X116217956Y-45822061D01*
X116196170Y-45854664D01*
X116189952Y-45862240D01*
X116162166Y-45890013D01*
X116154546Y-45896261D01*
X116138675Y-45908013D01*
X115538675Y-46308013D01*
X115521824Y-46318089D01*
X115513175Y-46322700D01*
X115476932Y-46337666D01*
X115467549Y-46340501D01*
X115429212Y-46348095D01*
X115419509Y-46349046D01*
X115400000Y-46350000D01*
X113600000Y-46350000D01*
X113580392Y-46349037D01*
X113570637Y-46348076D01*
X113532190Y-46340428D01*
X113522811Y-46337583D01*
X113486584Y-46322577D01*
X113477939Y-46317956D01*
X113445336Y-46296170D01*
X113437760Y-46289952D01*
X113410048Y-46262240D01*
X113403830Y-46254664D01*
X113382044Y-46222061D01*
X113377423Y-46213416D01*
X113362417Y-46177189D01*
X113359572Y-46167810D01*
X113351924Y-46129363D01*
X113350963Y-46119608D01*
X113350000Y-46100000D01*
X113350000Y-45850000D01*
X112950000Y-45850000D01*
X112910982Y-45846157D01*
X112873463Y-45834776D01*
X112838886Y-45816294D01*
X112808579Y-45791421D01*
X112783706Y-45761114D01*
X112765224Y-45726537D01*
X112753843Y-45689018D01*
X112750000Y-45650000D01*
X112750000Y-44150000D01*
X112753843Y-44110982D01*
X112765224Y-44073463D01*
X112783706Y-44038886D01*
X112808579Y-44008579D01*
X112838886Y-43983706D01*
X112873463Y-43965224D01*
X112910982Y-43953843D01*
X112950000Y-43950000D01*
X113350000Y-43950000D01*
X113350000Y-43700000D01*
X113350963Y-43680392D01*
X113351924Y-43670637D01*
X113359572Y-43632190D01*
X113362417Y-43622811D01*
X113377423Y-43586584D01*
X113382044Y-43577939D01*
X113403830Y-43545336D01*
X113410048Y-43537760D01*
X113437760Y-43510048D01*
X113445336Y-43503830D01*
X113477939Y-43482044D01*
X113486584Y-43477423D01*
X113522811Y-43462417D01*
X113532190Y-43459572D01*
X113570637Y-43451924D01*
X113580392Y-43450963D01*
X113600000Y-43450000D01*
X116000000Y-43450000D01*
X116019608Y-43450963D01*
G37*
G36*
X128619608Y-46050963D02*
G01*
X128629363Y-46051924D01*
X128667810Y-46059572D01*
X128677189Y-46062417D01*
X128713416Y-46077423D01*
X128722061Y-46082044D01*
X128754664Y-46103830D01*
X128762240Y-46110048D01*
X128789952Y-46137760D01*
X128796170Y-46145336D01*
X128817956Y-46177939D01*
X128822577Y-46186584D01*
X128837583Y-46222811D01*
X128840428Y-46232190D01*
X128848076Y-46270637D01*
X128849037Y-46280392D01*
X128850000Y-46300000D01*
X128850000Y-46550000D01*
X129350000Y-46550000D01*
X129389018Y-46553843D01*
X129426537Y-46565224D01*
X129461114Y-46583706D01*
X129491421Y-46608579D01*
X129516294Y-46638886D01*
X129534776Y-46673463D01*
X129546157Y-46710982D01*
X129550000Y-46750000D01*
X129550000Y-48250000D01*
X129546157Y-48289018D01*
X129534776Y-48326537D01*
X129516294Y-48361114D01*
X129491421Y-48391421D01*
X129461114Y-48416294D01*
X129426537Y-48434776D01*
X129389018Y-48446157D01*
X129350000Y-48450000D01*
X128850000Y-48450000D01*
X128850000Y-48700000D01*
X128849037Y-48719608D01*
X128848076Y-48729363D01*
X128840428Y-48767810D01*
X128837583Y-48777189D01*
X128822577Y-48813416D01*
X128817956Y-48822061D01*
X128796170Y-48854664D01*
X128789952Y-48862240D01*
X128762240Y-48889952D01*
X128754664Y-48896170D01*
X128722061Y-48917956D01*
X128713416Y-48922577D01*
X128677189Y-48937583D01*
X128667810Y-48940428D01*
X128629363Y-48948076D01*
X128619608Y-48949037D01*
X128600000Y-48950000D01*
X126200000Y-48950000D01*
X126180392Y-48949037D01*
X126170637Y-48948076D01*
X126132190Y-48940428D01*
X126122811Y-48937583D01*
X126086584Y-48922577D01*
X126077939Y-48917956D01*
X126045336Y-48896170D01*
X126037760Y-48889952D01*
X126010048Y-48862240D01*
X126003830Y-48854664D01*
X125982044Y-48822061D01*
X125977423Y-48813416D01*
X125962417Y-48777189D01*
X125959572Y-48767810D01*
X125951924Y-48729363D01*
X125950963Y-48719608D01*
X125950000Y-48700000D01*
X125950000Y-46300000D01*
X125950963Y-46280392D01*
X125951924Y-46270637D01*
X125959572Y-46232190D01*
X125962417Y-46222811D01*
X125977423Y-46186584D01*
X125982044Y-46177939D01*
X126003830Y-46145336D01*
X126010048Y-46137760D01*
X126037760Y-46110048D01*
X126045336Y-46103830D01*
X126077939Y-46082044D01*
X126086584Y-46077423D01*
X126122811Y-46062417D01*
X126132190Y-46059572D01*
X126170637Y-46051924D01*
X126180392Y-46050963D01*
X126200000Y-46050000D01*
X128600000Y-46050000D01*
X128619608Y-46050963D01*
G37*
D16*
X116690000Y-47459999D03*
D17*
X115420000Y-50000000D03*
X125580000Y-50000000D03*
D18*
X120500000Y-50000000D03*
D16*
X123040000Y-44920000D03*
X117960000Y-44920000D03*
X124310000Y-47460000D03*
D19*
X164100000Y-112810000D03*
X160700000Y-112810000D03*
X144600000Y-115800000D03*
X141200000Y-115800000D03*
X125600000Y-118000000D03*
X122200000Y-118000000D03*
D15*
G36*
X109277276Y-120294615D02*
G01*
X110922724Y-119344615D01*
X112022724Y-121249871D01*
X110377276Y-122199871D01*
X109277276Y-120294615D01*
G37*
G36*
X107577276Y-117350129D02*
G01*
X109222724Y-116400129D01*
X110322724Y-118305385D01*
X108677276Y-119255385D01*
X107577276Y-117350129D01*
G37*
D19*
X108400000Y-99010000D03*
X105000000Y-99010000D03*
X223400000Y-106000000D03*
X220000000Y-106000000D03*
X191900000Y-106000000D03*
X188500000Y-106000000D03*
X173200000Y-96800000D03*
X169800000Y-96800000D03*
X154200000Y-94500000D03*
X150800000Y-94500000D03*
X137000000Y-96800000D03*
X133600000Y-96800000D03*
X116100000Y-99100000D03*
X112700000Y-99100000D03*
X223300000Y-102800000D03*
X219900000Y-102800000D03*
X191900000Y-102800000D03*
X188500000Y-102800000D03*
X173200000Y-93600000D03*
X169800000Y-93600000D03*
X154200000Y-91400000D03*
X150800000Y-91400000D03*
X136000000Y-93800000D03*
X132600000Y-93800000D03*
X116100000Y-96000000D03*
X112700000Y-96000000D03*
X223600000Y-67700000D03*
X220200000Y-67700000D03*
X192100000Y-67700000D03*
X188700000Y-67700000D03*
X173200000Y-58700000D03*
X169800000Y-58700000D03*
X154200000Y-56500000D03*
X150800000Y-56500000D03*
X137000000Y-58700000D03*
X133600000Y-58700000D03*
X116100000Y-61100000D03*
X112700000Y-61100000D03*
X223600000Y-64600000D03*
X220200000Y-64600000D03*
X192100000Y-64800000D03*
X188700000Y-64800000D03*
X173200000Y-55600000D03*
X169800000Y-55600000D03*
X154100000Y-53300000D03*
X150700000Y-53300000D03*
X136000000Y-55700000D03*
X132600000Y-55700000D03*
X116100000Y-58000000D03*
X112700000Y-58000000D03*
X182300000Y-115310000D03*
X178900000Y-115310000D03*
D15*
G36*
X99777346Y-52586589D02*
G01*
X99809380Y-52591341D01*
X99840794Y-52599210D01*
X99871286Y-52610120D01*
X99900561Y-52623966D01*
X99928338Y-52640615D01*
X99954350Y-52659907D01*
X99978345Y-52681655D01*
X100000093Y-52705650D01*
X100019385Y-52731662D01*
X100036034Y-52759439D01*
X100049880Y-52788714D01*
X100060790Y-52819206D01*
X100068659Y-52850620D01*
X100073411Y-52882654D01*
X100075000Y-52915000D01*
X100075000Y-53905000D01*
X100073411Y-53937346D01*
X100068659Y-53969380D01*
X100060790Y-54000794D01*
X100049880Y-54031286D01*
X100036034Y-54060561D01*
X100019385Y-54088338D01*
X100000093Y-54114350D01*
X99978345Y-54138345D01*
X99954350Y-54160093D01*
X99928338Y-54179385D01*
X99900561Y-54196034D01*
X99871286Y-54209880D01*
X99840794Y-54220790D01*
X99809380Y-54228659D01*
X99777346Y-54233411D01*
X99745000Y-54235000D01*
X98255000Y-54235000D01*
X98222654Y-54233411D01*
X98190620Y-54228659D01*
X98159206Y-54220790D01*
X98128714Y-54209880D01*
X98099439Y-54196034D01*
X98071662Y-54179385D01*
X98045650Y-54160093D01*
X98021655Y-54138345D01*
X97999907Y-54114350D01*
X97980615Y-54088338D01*
X97963966Y-54060561D01*
X97950120Y-54031286D01*
X97939210Y-54000794D01*
X97931341Y-53969380D01*
X97926589Y-53937346D01*
X97925000Y-53905000D01*
X97925000Y-52915000D01*
X97926589Y-52882654D01*
X97931341Y-52850620D01*
X97939210Y-52819206D01*
X97950120Y-52788714D01*
X97963966Y-52759439D01*
X97980615Y-52731662D01*
X97999907Y-52705650D01*
X98021655Y-52681655D01*
X98045650Y-52659907D01*
X98071662Y-52640615D01*
X98099439Y-52623966D01*
X98128714Y-52610120D01*
X98159206Y-52599210D01*
X98190620Y-52591341D01*
X98222654Y-52586589D01*
X98255000Y-52585000D01*
X99745000Y-52585000D01*
X99777346Y-52586589D01*
G37*
G36*
X99777346Y-49786589D02*
G01*
X99809380Y-49791341D01*
X99840794Y-49799210D01*
X99871286Y-49810120D01*
X99900561Y-49823966D01*
X99928338Y-49840615D01*
X99954350Y-49859907D01*
X99978345Y-49881655D01*
X100000093Y-49905650D01*
X100019385Y-49931662D01*
X100036034Y-49959439D01*
X100049880Y-49988714D01*
X100060790Y-50019206D01*
X100068659Y-50050620D01*
X100073411Y-50082654D01*
X100075000Y-50115000D01*
X100075000Y-51105000D01*
X100073411Y-51137346D01*
X100068659Y-51169380D01*
X100060790Y-51200794D01*
X100049880Y-51231286D01*
X100036034Y-51260561D01*
X100019385Y-51288338D01*
X100000093Y-51314350D01*
X99978345Y-51338345D01*
X99954350Y-51360093D01*
X99928338Y-51379385D01*
X99900561Y-51396034D01*
X99871286Y-51409880D01*
X99840794Y-51420790D01*
X99809380Y-51428659D01*
X99777346Y-51433411D01*
X99745000Y-51435000D01*
X98255000Y-51435000D01*
X98222654Y-51433411D01*
X98190620Y-51428659D01*
X98159206Y-51420790D01*
X98128714Y-51409880D01*
X98099439Y-51396034D01*
X98071662Y-51379385D01*
X98045650Y-51360093D01*
X98021655Y-51338345D01*
X97999907Y-51314350D01*
X97980615Y-51288338D01*
X97963966Y-51260561D01*
X97950120Y-51231286D01*
X97939210Y-51200794D01*
X97931341Y-51169380D01*
X97926589Y-51137346D01*
X97925000Y-51105000D01*
X97925000Y-50115000D01*
X97926589Y-50082654D01*
X97931341Y-50050620D01*
X97939210Y-50019206D01*
X97950120Y-49988714D01*
X97963966Y-49959439D01*
X97980615Y-49931662D01*
X97999907Y-49905650D01*
X98021655Y-49881655D01*
X98045650Y-49859907D01*
X98071662Y-49840615D01*
X98099439Y-49823966D01*
X98128714Y-49810120D01*
X98159206Y-49799210D01*
X98190620Y-49791341D01*
X98222654Y-49786589D01*
X98255000Y-49785000D01*
X99745000Y-49785000D01*
X99777346Y-49786589D01*
G37*
G36*
X99777346Y-52586589D02*
G01*
X99809380Y-52591341D01*
X99840794Y-52599210D01*
X99871286Y-52610120D01*
X99900561Y-52623966D01*
X99928338Y-52640615D01*
X99954350Y-52659907D01*
X99978345Y-52681655D01*
X100000093Y-52705650D01*
X100019385Y-52731662D01*
X100036034Y-52759439D01*
X100049880Y-52788714D01*
X100060790Y-52819206D01*
X100068659Y-52850620D01*
X100073411Y-52882654D01*
X100075000Y-52915000D01*
X100075000Y-53905000D01*
X100073411Y-53937346D01*
X100068659Y-53969380D01*
X100060790Y-54000794D01*
X100049880Y-54031286D01*
X100036034Y-54060561D01*
X100019385Y-54088338D01*
X100000093Y-54114350D01*
X99978345Y-54138345D01*
X99954350Y-54160093D01*
X99928338Y-54179385D01*
X99900561Y-54196034D01*
X99871286Y-54209880D01*
X99840794Y-54220790D01*
X99809380Y-54228659D01*
X99777346Y-54233411D01*
X99745000Y-54235000D01*
X98255000Y-54235000D01*
X98222654Y-54233411D01*
X98190620Y-54228659D01*
X98159206Y-54220790D01*
X98128714Y-54209880D01*
X98099439Y-54196034D01*
X98071662Y-54179385D01*
X98045650Y-54160093D01*
X98021655Y-54138345D01*
X97999907Y-54114350D01*
X97980615Y-54088338D01*
X97963966Y-54060561D01*
X97950120Y-54031286D01*
X97939210Y-54000794D01*
X97931341Y-53969380D01*
X97926589Y-53937346D01*
X97925000Y-53905000D01*
X97925000Y-52915000D01*
X97926589Y-52882654D01*
X97931341Y-52850620D01*
X97939210Y-52819206D01*
X97950120Y-52788714D01*
X97963966Y-52759439D01*
X97980615Y-52731662D01*
X97999907Y-52705650D01*
X98021655Y-52681655D01*
X98045650Y-52659907D01*
X98071662Y-52640615D01*
X98099439Y-52623966D01*
X98128714Y-52610120D01*
X98159206Y-52599210D01*
X98190620Y-52591341D01*
X98222654Y-52586589D01*
X98255000Y-52585000D01*
X99745000Y-52585000D01*
X99777346Y-52586589D01*
G37*
G36*
X99777346Y-49786589D02*
G01*
X99809380Y-49791341D01*
X99840794Y-49799210D01*
X99871286Y-49810120D01*
X99900561Y-49823966D01*
X99928338Y-49840615D01*
X99954350Y-49859907D01*
X99978345Y-49881655D01*
X100000093Y-49905650D01*
X100019385Y-49931662D01*
X100036034Y-49959439D01*
X100049880Y-49988714D01*
X100060790Y-50019206D01*
X100068659Y-50050620D01*
X100073411Y-50082654D01*
X100075000Y-50115000D01*
X100075000Y-51105000D01*
X100073411Y-51137346D01*
X100068659Y-51169380D01*
X100060790Y-51200794D01*
X100049880Y-51231286D01*
X100036034Y-51260561D01*
X100019385Y-51288338D01*
X100000093Y-51314350D01*
X99978345Y-51338345D01*
X99954350Y-51360093D01*
X99928338Y-51379385D01*
X99900561Y-51396034D01*
X99871286Y-51409880D01*
X99840794Y-51420790D01*
X99809380Y-51428659D01*
X99777346Y-51433411D01*
X99745000Y-51435000D01*
X98255000Y-51435000D01*
X98222654Y-51433411D01*
X98190620Y-51428659D01*
X98159206Y-51420790D01*
X98128714Y-51409880D01*
X98099439Y-51396034D01*
X98071662Y-51379385D01*
X98045650Y-51360093D01*
X98021655Y-51338345D01*
X97999907Y-51314350D01*
X97980615Y-51288338D01*
X97963966Y-51260561D01*
X97950120Y-51231286D01*
X97939210Y-51200794D01*
X97931341Y-51169380D01*
X97926589Y-51137346D01*
X97925000Y-51105000D01*
X97925000Y-50115000D01*
X97926589Y-50082654D01*
X97931341Y-50050620D01*
X97939210Y-50019206D01*
X97950120Y-49988714D01*
X97963966Y-49959439D01*
X97980615Y-49931662D01*
X97999907Y-49905650D01*
X98021655Y-49881655D01*
X98045650Y-49859907D01*
X98071662Y-49840615D01*
X98099439Y-49823966D01*
X98128714Y-49810120D01*
X98159206Y-49799210D01*
X98190620Y-49791341D01*
X98222654Y-49786589D01*
X98255000Y-49785000D01*
X99745000Y-49785000D01*
X99777346Y-49786589D01*
G37*
G36*
X102977346Y-52586589D02*
G01*
X103009380Y-52591341D01*
X103040794Y-52599210D01*
X103071286Y-52610120D01*
X103100561Y-52623966D01*
X103128338Y-52640615D01*
X103154350Y-52659907D01*
X103178345Y-52681655D01*
X103200093Y-52705650D01*
X103219385Y-52731662D01*
X103236034Y-52759439D01*
X103249880Y-52788714D01*
X103260790Y-52819206D01*
X103268659Y-52850620D01*
X103273411Y-52882654D01*
X103275000Y-52915000D01*
X103275000Y-53905000D01*
X103273411Y-53937346D01*
X103268659Y-53969380D01*
X103260790Y-54000794D01*
X103249880Y-54031286D01*
X103236034Y-54060561D01*
X103219385Y-54088338D01*
X103200093Y-54114350D01*
X103178345Y-54138345D01*
X103154350Y-54160093D01*
X103128338Y-54179385D01*
X103100561Y-54196034D01*
X103071286Y-54209880D01*
X103040794Y-54220790D01*
X103009380Y-54228659D01*
X102977346Y-54233411D01*
X102945000Y-54235000D01*
X101455000Y-54235000D01*
X101422654Y-54233411D01*
X101390620Y-54228659D01*
X101359206Y-54220790D01*
X101328714Y-54209880D01*
X101299439Y-54196034D01*
X101271662Y-54179385D01*
X101245650Y-54160093D01*
X101221655Y-54138345D01*
X101199907Y-54114350D01*
X101180615Y-54088338D01*
X101163966Y-54060561D01*
X101150120Y-54031286D01*
X101139210Y-54000794D01*
X101131341Y-53969380D01*
X101126589Y-53937346D01*
X101125000Y-53905000D01*
X101125000Y-52915000D01*
X101126589Y-52882654D01*
X101131341Y-52850620D01*
X101139210Y-52819206D01*
X101150120Y-52788714D01*
X101163966Y-52759439D01*
X101180615Y-52731662D01*
X101199907Y-52705650D01*
X101221655Y-52681655D01*
X101245650Y-52659907D01*
X101271662Y-52640615D01*
X101299439Y-52623966D01*
X101328714Y-52610120D01*
X101359206Y-52599210D01*
X101390620Y-52591341D01*
X101422654Y-52586589D01*
X101455000Y-52585000D01*
X102945000Y-52585000D01*
X102977346Y-52586589D01*
G37*
G36*
X102977346Y-49786589D02*
G01*
X103009380Y-49791341D01*
X103040794Y-49799210D01*
X103071286Y-49810120D01*
X103100561Y-49823966D01*
X103128338Y-49840615D01*
X103154350Y-49859907D01*
X103178345Y-49881655D01*
X103200093Y-49905650D01*
X103219385Y-49931662D01*
X103236034Y-49959439D01*
X103249880Y-49988714D01*
X103260790Y-50019206D01*
X103268659Y-50050620D01*
X103273411Y-50082654D01*
X103275000Y-50115000D01*
X103275000Y-51105000D01*
X103273411Y-51137346D01*
X103268659Y-51169380D01*
X103260790Y-51200794D01*
X103249880Y-51231286D01*
X103236034Y-51260561D01*
X103219385Y-51288338D01*
X103200093Y-51314350D01*
X103178345Y-51338345D01*
X103154350Y-51360093D01*
X103128338Y-51379385D01*
X103100561Y-51396034D01*
X103071286Y-51409880D01*
X103040794Y-51420790D01*
X103009380Y-51428659D01*
X102977346Y-51433411D01*
X102945000Y-51435000D01*
X101455000Y-51435000D01*
X101422654Y-51433411D01*
X101390620Y-51428659D01*
X101359206Y-51420790D01*
X101328714Y-51409880D01*
X101299439Y-51396034D01*
X101271662Y-51379385D01*
X101245650Y-51360093D01*
X101221655Y-51338345D01*
X101199907Y-51314350D01*
X101180615Y-51288338D01*
X101163966Y-51260561D01*
X101150120Y-51231286D01*
X101139210Y-51200794D01*
X101131341Y-51169380D01*
X101126589Y-51137346D01*
X101125000Y-51105000D01*
X101125000Y-50115000D01*
X101126589Y-50082654D01*
X101131341Y-50050620D01*
X101139210Y-50019206D01*
X101150120Y-49988714D01*
X101163966Y-49959439D01*
X101180615Y-49931662D01*
X101199907Y-49905650D01*
X101221655Y-49881655D01*
X101245650Y-49859907D01*
X101271662Y-49840615D01*
X101299439Y-49823966D01*
X101328714Y-49810120D01*
X101359206Y-49799210D01*
X101390620Y-49791341D01*
X101422654Y-49786589D01*
X101455000Y-49785000D01*
X102945000Y-49785000D01*
X102977346Y-49786589D01*
G37*
G36*
X102977346Y-52586589D02*
G01*
X103009380Y-52591341D01*
X103040794Y-52599210D01*
X103071286Y-52610120D01*
X103100561Y-52623966D01*
X103128338Y-52640615D01*
X103154350Y-52659907D01*
X103178345Y-52681655D01*
X103200093Y-52705650D01*
X103219385Y-52731662D01*
X103236034Y-52759439D01*
X103249880Y-52788714D01*
X103260790Y-52819206D01*
X103268659Y-52850620D01*
X103273411Y-52882654D01*
X103275000Y-52915000D01*
X103275000Y-53905000D01*
X103273411Y-53937346D01*
X103268659Y-53969380D01*
X103260790Y-54000794D01*
X103249880Y-54031286D01*
X103236034Y-54060561D01*
X103219385Y-54088338D01*
X103200093Y-54114350D01*
X103178345Y-54138345D01*
X103154350Y-54160093D01*
X103128338Y-54179385D01*
X103100561Y-54196034D01*
X103071286Y-54209880D01*
X103040794Y-54220790D01*
X103009380Y-54228659D01*
X102977346Y-54233411D01*
X102945000Y-54235000D01*
X101455000Y-54235000D01*
X101422654Y-54233411D01*
X101390620Y-54228659D01*
X101359206Y-54220790D01*
X101328714Y-54209880D01*
X101299439Y-54196034D01*
X101271662Y-54179385D01*
X101245650Y-54160093D01*
X101221655Y-54138345D01*
X101199907Y-54114350D01*
X101180615Y-54088338D01*
X101163966Y-54060561D01*
X101150120Y-54031286D01*
X101139210Y-54000794D01*
X101131341Y-53969380D01*
X101126589Y-53937346D01*
X101125000Y-53905000D01*
X101125000Y-52915000D01*
X101126589Y-52882654D01*
X101131341Y-52850620D01*
X101139210Y-52819206D01*
X101150120Y-52788714D01*
X101163966Y-52759439D01*
X101180615Y-52731662D01*
X101199907Y-52705650D01*
X101221655Y-52681655D01*
X101245650Y-52659907D01*
X101271662Y-52640615D01*
X101299439Y-52623966D01*
X101328714Y-52610120D01*
X101359206Y-52599210D01*
X101390620Y-52591341D01*
X101422654Y-52586589D01*
X101455000Y-52585000D01*
X102945000Y-52585000D01*
X102977346Y-52586589D01*
G37*
G36*
X102977346Y-49786589D02*
G01*
X103009380Y-49791341D01*
X103040794Y-49799210D01*
X103071286Y-49810120D01*
X103100561Y-49823966D01*
X103128338Y-49840615D01*
X103154350Y-49859907D01*
X103178345Y-49881655D01*
X103200093Y-49905650D01*
X103219385Y-49931662D01*
X103236034Y-49959439D01*
X103249880Y-49988714D01*
X103260790Y-50019206D01*
X103268659Y-50050620D01*
X103273411Y-50082654D01*
X103275000Y-50115000D01*
X103275000Y-51105000D01*
X103273411Y-51137346D01*
X103268659Y-51169380D01*
X103260790Y-51200794D01*
X103249880Y-51231286D01*
X103236034Y-51260561D01*
X103219385Y-51288338D01*
X103200093Y-51314350D01*
X103178345Y-51338345D01*
X103154350Y-51360093D01*
X103128338Y-51379385D01*
X103100561Y-51396034D01*
X103071286Y-51409880D01*
X103040794Y-51420790D01*
X103009380Y-51428659D01*
X102977346Y-51433411D01*
X102945000Y-51435000D01*
X101455000Y-51435000D01*
X101422654Y-51433411D01*
X101390620Y-51428659D01*
X101359206Y-51420790D01*
X101328714Y-51409880D01*
X101299439Y-51396034D01*
X101271662Y-51379385D01*
X101245650Y-51360093D01*
X101221655Y-51338345D01*
X101199907Y-51314350D01*
X101180615Y-51288338D01*
X101163966Y-51260561D01*
X101150120Y-51231286D01*
X101139210Y-51200794D01*
X101131341Y-51169380D01*
X101126589Y-51137346D01*
X101125000Y-51105000D01*
X101125000Y-50115000D01*
X101126589Y-50082654D01*
X101131341Y-50050620D01*
X101139210Y-50019206D01*
X101150120Y-49988714D01*
X101163966Y-49959439D01*
X101180615Y-49931662D01*
X101199907Y-49905650D01*
X101221655Y-49881655D01*
X101245650Y-49859907D01*
X101271662Y-49840615D01*
X101299439Y-49823966D01*
X101328714Y-49810120D01*
X101359206Y-49799210D01*
X101390620Y-49791341D01*
X101422654Y-49786589D01*
X101455000Y-49785000D01*
X102945000Y-49785000D01*
X102977346Y-49786589D01*
G37*
G36*
X100489018Y-59163843D02*
G01*
X100526537Y-59175224D01*
X100561114Y-59193706D01*
X100591421Y-59218579D01*
X100616410Y-59249060D01*
X101116410Y-59999060D01*
X101134856Y-60033657D01*
X101146198Y-60071187D01*
X101150000Y-60110209D01*
X101146116Y-60149223D01*
X101134696Y-60186730D01*
X101116410Y-60220940D01*
X100616410Y-60970940D01*
X100591569Y-61001273D01*
X100561288Y-61026178D01*
X100526730Y-61044696D01*
X100489223Y-61056116D01*
X100450000Y-61060000D01*
X99450000Y-61060000D01*
X99410982Y-61056157D01*
X99373463Y-61044776D01*
X99338886Y-61026294D01*
X99308579Y-61001421D01*
X99283706Y-60971114D01*
X99265224Y-60936537D01*
X99253843Y-60899018D01*
X99250000Y-60860000D01*
X99250000Y-59360000D01*
X99253843Y-59320982D01*
X99265224Y-59283463D01*
X99283706Y-59248886D01*
X99308579Y-59218579D01*
X99338886Y-59193706D01*
X99373463Y-59175224D01*
X99410982Y-59163843D01*
X99450000Y-59160000D01*
X100450000Y-59160000D01*
X100489018Y-59163843D01*
G37*
G36*
X101939018Y-59163843D02*
G01*
X101976537Y-59175224D01*
X102011114Y-59193706D01*
X102041421Y-59218579D01*
X102066294Y-59248886D01*
X102084776Y-59283463D01*
X102096157Y-59320982D01*
X102100000Y-59360000D01*
X102100000Y-60860000D01*
X102096157Y-60899018D01*
X102084776Y-60936537D01*
X102066294Y-60971114D01*
X102041421Y-61001421D01*
X102011114Y-61026294D01*
X101976537Y-61044776D01*
X101939018Y-61056157D01*
X101900000Y-61060000D01*
X100750000Y-61060000D01*
X100710982Y-61056157D01*
X100673463Y-61044776D01*
X100638886Y-61026294D01*
X100608579Y-61001421D01*
X100583706Y-60971114D01*
X100565224Y-60936537D01*
X100553843Y-60899018D01*
X100550000Y-60860000D01*
X100553843Y-60820982D01*
X100565224Y-60783463D01*
X100583590Y-60749060D01*
X101009630Y-60110000D01*
X100583590Y-59470940D01*
X100565144Y-59436343D01*
X100553802Y-59398813D01*
X100550000Y-59359791D01*
X100553884Y-59320777D01*
X100565304Y-59283270D01*
X100583822Y-59248712D01*
X100608727Y-59218431D01*
X100639060Y-59193590D01*
X100673657Y-59175144D01*
X100711187Y-59163802D01*
X100750000Y-59160000D01*
X101900000Y-59160000D01*
X101939018Y-59163843D01*
G37*
G36*
X100885982Y-63756157D02*
G01*
X100848463Y-63744776D01*
X100813886Y-63726294D01*
X100783579Y-63701421D01*
X100758590Y-63670940D01*
X100258590Y-62920940D01*
X100240144Y-62886343D01*
X100228802Y-62848813D01*
X100225000Y-62809791D01*
X100228884Y-62770777D01*
X100240304Y-62733270D01*
X100258590Y-62699060D01*
X100758590Y-61949060D01*
X100783431Y-61918727D01*
X100813712Y-61893822D01*
X100848270Y-61875304D01*
X100885777Y-61863884D01*
X100925000Y-61860000D01*
X101925000Y-61860000D01*
X101964018Y-61863843D01*
X102001537Y-61875224D01*
X102036114Y-61893706D01*
X102066421Y-61918579D01*
X102091294Y-61948886D01*
X102109776Y-61983463D01*
X102121157Y-62020982D01*
X102125000Y-62060000D01*
X102125000Y-63560000D01*
X102121157Y-63599018D01*
X102109776Y-63636537D01*
X102091294Y-63671114D01*
X102066421Y-63701421D01*
X102036114Y-63726294D01*
X102001537Y-63744776D01*
X101964018Y-63756157D01*
X101925000Y-63760000D01*
X100925000Y-63760000D01*
X100885982Y-63756157D01*
G37*
G36*
X99435982Y-63756157D02*
G01*
X99398463Y-63744776D01*
X99363886Y-63726294D01*
X99333579Y-63701421D01*
X99308706Y-63671114D01*
X99290224Y-63636537D01*
X99278843Y-63599018D01*
X99275000Y-63560000D01*
X99275000Y-62060000D01*
X99278843Y-62020982D01*
X99290224Y-61983463D01*
X99308706Y-61948886D01*
X99333579Y-61918579D01*
X99363886Y-61893706D01*
X99398463Y-61875224D01*
X99435982Y-61863843D01*
X99475000Y-61860000D01*
X100625000Y-61860000D01*
X100664018Y-61863843D01*
X100701537Y-61875224D01*
X100736114Y-61893706D01*
X100766421Y-61918579D01*
X100791294Y-61948886D01*
X100809776Y-61983463D01*
X100821157Y-62020982D01*
X100825000Y-62060000D01*
X100821157Y-62099018D01*
X100809776Y-62136537D01*
X100791410Y-62170940D01*
X100365370Y-62810000D01*
X100791410Y-63449060D01*
X100809856Y-63483657D01*
X100821198Y-63521187D01*
X100825000Y-63560209D01*
X100821116Y-63599223D01*
X100809696Y-63636730D01*
X100791178Y-63671288D01*
X100766273Y-63701569D01*
X100735940Y-63726410D01*
X100701343Y-63744856D01*
X100663813Y-63756198D01*
X100625000Y-63760000D01*
X99475000Y-63760000D01*
X99435982Y-63756157D01*
G37*
D18*
X105130000Y-93336000D03*
X95130000Y-93352000D03*
D20*
X103920000Y-74410000D03*
X101380000Y-74410000D03*
X98840000Y-74410000D03*
X96300000Y-74410000D03*
D21*
X96300000Y-69199620D03*
X96300000Y-70200380D03*
X98800000Y-69199620D03*
X98800000Y-70200380D03*
X101300000Y-69199620D03*
X101300000Y-70200380D03*
X103900000Y-69199620D03*
X103900000Y-70200380D03*
D22*
X205800000Y-104510000D03*
X129300000Y-97510000D03*
X129300000Y-59600000D03*
D10*
X106200000Y-109000000D03*
X106200000Y-104000000D03*
D23*
X99200000Y-112100000D03*
X99200000Y-100900000D03*
D10*
X91700000Y-109000000D03*
X91700000Y-106500000D03*
X91700000Y-104000000D03*
D22*
X103800000Y-120810000D03*
X205800000Y-66210000D03*
D24*
X123500000Y-78710000D03*
X121000000Y-78710000D03*
X118400000Y-78710000D03*
M02*
