<?xml version="1.0" standalone="no"?>
 <!DOCTYPE svg PUBLIC "-//W3C//DTD SVG 1.1//EN" 
 "http://www.w3.org/Graphics/SVG/1.1/DTD/svg11.dtd"> 
<svg
  xmlns:svg="http://www.w3.org/2000/svg"
  xmlns="http://www.w3.org/2000/svg"
  xmlns:xlink="http://www.w3.org/1999/xlink"
  version="1.1"
  width="148.6916mm" height="119.1260mm" viewBox="0.0000 0.0000 148.6916 119.1260">
<title>SVG Image created as Sofle_Pico-brd.svg date 2024/03/10 15:58:18 </title>
  <desc>Image generated by PCBNEW </desc>
<g style="fill:#000000; fill-opacity:1.0000;stroke:#000000; stroke-opacity:1.0000;
stroke-linecap:round; stroke-linejoin:round;"
 transform="translate(0 0) scale(1 1)">
</g>
<g style="fill:#000000; fill-opacity:0.0; 
stroke:#000000; stroke-width:0.0000; stroke-opacity:1; 
stroke-linecap:round; stroke-linejoin:round;">
</g>
<g style="fill:#000000; fill-opacity:0.0; 
stroke:#000000; stroke-width:0.1000; stroke-opacity:1; 
stroke-linecap:round; stroke-linejoin:round;">
<path d="M2.3684 95.2830 A1.5020 1.5020 0.0 0 0 2.5319 95.9907" />
<path d="M2.5319 95.9907
L13.3428 117.2076
" />
<path d="M16.0651 55.1830 A1.0000 1.0000 0.0 0 0 15.0651 56.1830" />
<path d="M30.9780 1.7279 A1.0000 1.0000 0.0 0 0 29.9780 2.7279" />
</g>
<g style="fill:#000000; fill-opacity:0.0; 
stroke:#000000; stroke-width:0.1500; stroke-opacity:1; 
stroke-linecap:round; stroke-linejoin:round;">
<path d="M89.1400 1.7279
L146.4538 9.1269
" />
</g>
<g style="fill:#000000; fill-opacity:0.0; 
stroke:#000000; stroke-width:0.1000; stroke-opacity:1; 
stroke-linecap:round; stroke-linejoin:round;">
<path d="M29.9780 14.6730 A1.0000 1.0000 0.0 0 0 30.9780 15.6730" />
<path d="M30.9780 15.6730
L31.7651 15.6730
" />
<path d="M28.6259 55.8162 A3.5476 3.5476 0.0 0 0 27.7651 55.1830" />
<path d="M2.3684 65.2001
L2.3684 95.2830
" />
<path d="M89.1400 1.7279
L30.9780 1.7279
" />
<path d="M15.0651 64.2001
L15.0651 56.1830
" />
</g>
<g style="fill:#000000; fill-opacity:0.0; 
stroke:#000000; stroke-width:0.1500; stroke-opacity:1; 
stroke-linecap:round; stroke-linejoin:round;">
<path d="M147.7900 10.6279 A1.5111 1.5111 0.0 0 0 146.4538 9.1269" />
</g>
<g style="fill:#000000; fill-opacity:0.0; 
stroke:#000000; stroke-width:0.1000; stroke-opacity:1; 
stroke-linecap:round; stroke-linejoin:round;">
<path d="M31.7651 55.8162
L31.7651 15.6730
" />
<path d="M27.7651 55.1830
L16.0651 55.1830
" />
</g>
<g style="fill:#000000; fill-opacity:0.0; 
stroke:#000000; stroke-width:0.1500; stroke-opacity:1; 
stroke-linecap:round; stroke-linejoin:round;">
<path d="M108.1900 102.4779
L146.8842 88.2051
" />
<path d="M147.7900 10.6279
L147.7900 86.8279
" />
</g>
<g style="fill:#000000; fill-opacity:0.0; 
stroke:#000000; stroke-width:0.1000; stroke-opacity:1; 
stroke-linecap:round; stroke-linejoin:round;">
<path d="M31.7651 55.8162
L28.6259 55.8162
" />
</g>
<g style="fill:#000000; fill-opacity:0.0; 
stroke:#000000; stroke-width:0.1500; stroke-opacity:1; 
stroke-linecap:round; stroke-linejoin:round;">
<path d="M70.0900 102.4779
L108.1900 102.4779
" />
</g>
<g style="fill:#000000; fill-opacity:0.0; 
stroke:#000000; stroke-width:0.1000; stroke-opacity:1; 
stroke-linecap:round; stroke-linejoin:round;">
<path d="M29.9780 2.7279
L29.9780 14.6730
" />
<path d="M3.3684 64.2001
L15.0651 64.2001
" />
<path d="M13.3428 117.2076 A1.4999 1.4999 0.0 0 0 15.0752 117.9734" />
</g>
<g style="fill:#000000; fill-opacity:0.0; 
stroke:#000000; stroke-width:0.1500; stroke-opacity:1; 
stroke-linecap:round; stroke-linejoin:round;">
<path d="M146.8842 88.2052 A1.4998 1.4998 0.0 0 0 147.7900 86.8279" />
</g>
<g style="fill:#000000; fill-opacity:0.0; 
stroke:#000000; stroke-width:0.1000; stroke-opacity:1; 
stroke-linecap:round; stroke-linejoin:round;">
<path d="M15.0752 117.9734
L70.0900 102.4779
" />
<path d="M3.3684 64.2002 A1.0000 1.0000 0.0 0 0 2.3684 65.2001" />
</g>
<g style="fill:#000000; fill-opacity:0.0; 
stroke:#000000; stroke-width:0.1200; stroke-opacity:1; 
stroke-linecap:round; stroke-linejoin:round;">
<path d="M28.9651 78.7530
L13.3651 78.7530
" />
<path d="M13.3651 78.7530
L13.3651 65.7530
" />
<path d="M13.3651 65.7530
L28.9651 65.7530
" />
<path d="M28.9651 65.7530
L28.9651 78.7530
" />
</g>
<g style="fill:#000000; fill-opacity:0.0; 
stroke:#000000; stroke-width:0.1000; stroke-opacity:1; 
stroke-linecap:round; stroke-linejoin:round;">
<circle cx="127.2551" cy="29.6630" r="1.1000" /> 
<circle cx="127.2401" cy="67.7780" r="1.1000" /> 
<circle cx="50.4051" cy="27.2630" r="1.1000" /> 
<circle cx="50.4951" cy="65.2130" r="1.1000" /> 
</g>
<g style="fill:#000000; fill-opacity:0.0; 
stroke:#000000; stroke-width:0.1200; stroke-opacity:1; 
stroke-linecap:round; stroke-linejoin:round;">
<circle cx="51.0401" cy="49.1230" r="1.7500" /> 
<circle cx="70.0901" cy="30.0730" r="1.7500" /> 
<circle cx="70.0901" cy="68.1730" r="1.7500" /> 
<circle cx="89.1401" cy="49.1230" r="1.7500" /> 
</g>
<g style="fill:#000000; fill-opacity:0.0; 
stroke:#000000; stroke-width:0.1000; stroke-opacity:1; 
stroke-linecap:round; stroke-linejoin:round;">
<circle cx="24.5551" cy="88.2830" r="1.1000" /> 
<circle cx="32.9751" cy="4.8704" r="2.0500" /> 
<circle cx="26.1051" cy="58.3430" r="2.0500" /> 
<circle cx="6.6142" cy="68.7530" r="2.0500" /> 
</g>
<g style="fill:#000000; fill-opacity:0.0; 
stroke:#000000; stroke-width:0.1200; stroke-opacity:1; 
stroke-linecap:round; stroke-linejoin:round;">
<path d="M48.5151 24.7530
L34.5151 24.7530
" />
<path d="M34.5151 24.7530
L34.5151 10.7530
" />
<path d="M34.5151 10.7530
L48.5151 10.7530
" />
<path d="M48.5151 10.7530
L48.5151 24.7530
" />
<path d="M86.6151 19.7530
L72.6151 19.7530
" />
<path d="M72.6151 19.7530
L72.6151 5.7530
" />
<path d="M72.6151 5.7530
L86.6151 5.7530
" />
<path d="M86.6151 5.7530
L86.6151 19.7530
" />
<path d="M48.5151 62.8530
L34.5151 62.8530
" />
<path d="M34.5151 62.8530
L34.5151 48.8530
" />
<path d="M34.5151 48.8530
L48.5151 48.8530
" />
<path d="M48.5151 48.8530
L48.5151 62.8530
" />
<path d="M67.5651 60.3530
L53.5651 60.3530
" />
<path d="M53.5651 60.3530
L53.5651 46.3530
" />
<path d="M53.5651 46.3530
L67.5651 46.3530
" />
<path d="M67.5651 46.3530
L67.5651 60.3530
" />
<path d="M86.6151 76.9030
L72.6151 76.9030
" />
<path d="M72.6151 76.9030
L72.6151 62.9030
" />
<path d="M72.6151 62.9030
L86.6151 62.9030
" />
<path d="M86.6151 62.9030
L86.6151 76.9030
" />
<path d="M124.7151 84.3030
L110.7151 84.3030
" />
<path d="M110.7151 84.3030
L110.7151 70.3030
" />
<path d="M110.7151 70.3030
L124.7151 70.3030
" />
<path d="M124.7151 70.3030
L124.7151 84.3030
" />
<path d="M14.7018 111.0088
L8.3459 98.5347
" />
<path d="M8.3459 98.5347
L20.8200 92.1788
" />
<path d="M20.8200 92.1788
L27.1758 104.6529
" />
<path d="M27.1758 104.6529
L14.7018 111.0088
" />
<path d="M47.1383 101.1028
L33.6154 104.7262
" />
<path d="M33.6154 104.7262
L29.9919 91.2033
" />
<path d="M29.9919 91.2033
L43.5149 87.5798
" />
<path d="M43.5149 87.5798
L47.1383 101.1028
" />
<path d="M143.7651 46.2030
L129.7651 46.2030
" />
<path d="M129.7651 46.2030
L129.7651 32.2030
" />
<path d="M129.7651 32.2030
L143.7651 32.2030
" />
<path d="M143.7651 32.2030
L143.7651 46.2030
" />
<path d="M143.7651 65.2530
L129.7651 65.2530
" />
<path d="M129.7651 65.2530
L129.7651 51.2530
" />
<path d="M129.7651 51.2530
L143.7651 51.2530
" />
<path d="M143.7651 51.2530
L143.7651 65.2530
" />
<path d="M143.7651 84.3030
L129.7651 84.3030
" />
<path d="M129.7651 84.3030
L129.7651 70.3030
" />
<path d="M129.7651 70.3030
L143.7651 70.3030
" />
<path d="M143.7651 70.3030
L143.7651 84.3030
" />
<path d="M105.6651 22.2530
L91.6651 22.2530
" />
<path d="M91.6651 22.2530
L91.6651 8.2530
" />
<path d="M91.6651 8.2530
L105.6651 8.2530
" />
<path d="M105.6651 8.2530
L105.6651 22.2530
" />
<path d="M124.7151 27.1530
L110.7151 27.1530
" />
<path d="M110.7151 27.1530
L110.7151 13.1530
" />
<path d="M110.7151 13.1530
L124.7151 13.1530
" />
<path d="M124.7151 13.1530
L124.7151 27.1530
" />
<path d="M67.5651 41.3030
L53.5651 41.3030
" />
<path d="M53.5651 41.3030
L53.5651 27.3030
" />
<path d="M53.5651 27.3030
L67.5651 27.3030
" />
<path d="M67.5651 27.3030
L67.5651 41.3030
" />
<path d="M105.6651 41.3030
L91.6651 41.3030
" />
<path d="M91.6651 41.3030
L91.6651 27.3030
" />
<path d="M91.6651 27.3030
L105.6651 27.3030
" />
<path d="M105.6651 27.3030
L105.6651 41.3030
" />
<path d="M86.6151 38.8030
L72.6151 38.8030
" />
<path d="M72.6151 38.8030
L72.6151 24.8030
" />
<path d="M72.6151 24.8030
L86.6151 24.8030
" />
<path d="M86.6151 24.8030
L86.6151 38.8030
" />
<path d="M105.6651 60.3530
L91.6651 60.3530
" />
<path d="M91.6651 60.3530
L91.6651 46.3530
" />
<path d="M91.6651 46.3530
L105.6651 46.3530
" />
<path d="M105.6651 46.3530
L105.6651 60.3530
" />
<path d="M143.7651 27.1530
L129.7651 27.1530
" />
<path d="M129.7651 27.1530
L129.7651 13.1530
" />
<path d="M129.7651 13.1530
L143.7651 13.1530
" />
<path d="M143.7651 13.1530
L143.7651 27.1530
" />
<path d="M48.5151 43.8030
L34.5151 43.8030
" />
<path d="M34.5151 43.8030
L34.5151 29.8030
" />
<path d="M34.5151 29.8030
L48.5151 29.8030
" />
<path d="M48.5151 29.8030
L48.5151 43.8030
" />
<path d="M105.6651 98.4530
L91.6651 98.4530
" />
<path d="M91.6651 98.4530
L91.6651 84.4530
" />
<path d="M91.6651 84.4530
L105.6651 84.4530
" />
<path d="M105.6651 84.4530
L105.6651 98.4530
" />
<path d="M124.7151 46.2030
L110.7151 46.2030
" />
<path d="M110.7151 46.2030
L110.7151 32.2030
" />
<path d="M110.7151 32.2030
L124.7151 32.2030
" />
<path d="M124.7151 32.2030
L124.7151 46.2030
" />
<path d="M105.6651 79.4030
L91.6651 79.4030
" />
<path d="M91.6651 79.4030
L91.6651 65.4030
" />
<path d="M91.6651 65.4030
L105.6651 65.4030
" />
<path d="M105.6651 65.4030
L105.6651 79.4030
" />
<path d="M124.7151 65.2530
L110.7151 65.2530
" />
<path d="M110.7151 65.2530
L110.7151 51.2530
" />
<path d="M110.7151 51.2530
L124.7151 51.2530
" />
<path d="M124.7151 51.2530
L124.7151 65.2530
" />
<path d="M86.6151 95.9530
L72.6151 95.9530
" />
<path d="M72.6151 95.9530
L72.6151 81.9530
" />
<path d="M72.6151 81.9530
L86.6151 81.9530
" />
<path d="M86.6151 81.9530
L86.6151 95.9530
" />
<path d="M86.6151 57.8530
L72.6151 57.8530
" />
<path d="M72.6151 57.8530
L72.6151 43.8530
" />
<path d="M72.6151 43.8530
L86.6151 43.8530
" />
<path d="M86.6151 43.8530
L86.6151 57.8530
" />
<path d="M67.5651 22.2530
L53.5651 22.2530
" />
<path d="M53.5651 22.2530
L53.5651 8.2530
" />
<path d="M53.5651 8.2530
L67.5651 8.2530
" />
<path d="M67.5651 8.2530
L67.5651 22.2530
" />
<path d="M67.5651 79.4030
L53.5651 79.4030
" />
<path d="M53.5651 79.4030
L53.5651 65.4030
" />
<path d="M53.5651 65.4030
L67.5651 65.4030
" />
<path d="M67.5651 65.4030
L67.5651 79.4030
" />
<path d="M67.5651 98.4530
L53.5651 98.4530
" />
<path d="M53.5651 98.4530
L53.5651 84.4530
" />
<path d="M53.5651 84.4530
L67.5651 84.4530
" />
<path d="M67.5651 84.4530
L67.5651 98.4530
" />
<path d="M48.5151 81.9030
L34.5151 81.9030
" />
<path d="M34.5151 81.9030
L34.5151 67.9030
" />
<path d="M34.5151 67.9030
L48.5151 67.9030
" />
<path d="M48.5151 67.9030
L48.5151 81.9030
" />
<g >
</g>
<g >
</g>
<g >
</g>
<g >
</g>
<g >
</g>
<g >
</g>
<g >
</g>
<g >
</g>
<g >
</g>
<g >
</g>
<g >
</g>
<g >
</g>
<g >
</g>
<g >
</g>
<g >
</g>
<g >
</g>
<g >
</g>
<g >
</g>
<g >
</g>
<g >
</g>
<g >
</g>
<g >
</g>
<g >
</g>
<g >
</g>
<g >
</g>
<g >
</g>
<g >
</g>
<g >
</g>
<g >
</g>
<g >
</g>
<g >
</g>
<g >
</g>
<g >
</g>
<g >
</g>
<g >
</g>
<g >
</g>
<g >
</g>
<g >
</g>
<g >
</g>
<g >
</g>
<g >
</g>
<g >
</g>
<g >
</g>
<g >
</g>
<g >
</g>
<g >
</g>
<g >
</g>
<g >
</g>
<g >
</g>
<g >
</g>
<g >
</g>
<g >
</g>
<g >
</g>
<g >
</g>
<g >
</g>
<g >
</g>
<g >
</g>
<g >
</g>
<g >
</g>
<g >
</g>
<g >
</g>
<g >
</g>
<g >
</g>
<g >
</g>
<g >
</g>
<g >
</g>
<g >
</g>
<g >
</g>
<g >
</g>
<g >
</g>
<g >
</g>
<g >
</g>
<g >
</g>
<g >
</g>
<g >
</g>
<g >
</g>
<g >
</g>
<g >
</g>
<g >
</g>
<g >
</g>
<g >
</g>
<g >
</g>
<g >
</g>
<g >
</g>
<g >
</g>
<g >
</g>
<g >
</g>
<g >
</g>
<g >
</g>
<g >
</g>
<g >
</g>
<g >
</g>
<g >
</g>
<g >
</g>
<g >
</g>
<g >
</g>
<g >
</g>
<g >
</g>
<g >
</g>
<g >
</g>
<g >
</g>
<g >
</g>
<g >
</g>
<g >
</g>
<g >
</g>
<g >
</g>
<g >
</g>
<g >
</g>
<g >
</g>
<g >
</g>
<g >
</g>
<g >
</g>
<g >
</g>
<g >
</g>
<g >
</g>
<g >
</g>
<g >
</g>
<g >
</g>
<g >
</g>
</g> 
</svg>
