M48
; DRILL file {KiCad (5.1.9-0-10_14)} date Friday, March 05, 2021 at 04:26:55 PM
; FORMAT={-:-/ absolute / inch / decimal}
; #@! TF.CreationDate,2021-03-05T16:26:55-07:00
; #@! TF.GenerationSoftware,Kicad,Pcbnew,(5.1.9-0-10_14)
; #@! TF.FileFunction,Plated,1,2,PTH
FMAT,2
INCH
T1C0.0118
T2C0.0320
T3C0.0394
T4C0.0512
T5C0.0591
T6C0.0866
T7C0.1614
%
G90
G05
T1
X3.4449Y-5.0454
X3.57Y-4.9732
X3.6127Y-5.0433
X3.6392Y-5.2591
X3.7323Y-2.7795
X3.7441Y-1.7402
X3.7457Y-4.9504
X3.7815Y-2.6695
X3.7835Y-2.0232
X3.8071Y-2.6693
X3.815Y-1.7703
X3.815Y-1.9213
X3.8785Y-2.0703
X3.8976Y-4.9691
X3.9152Y-5.0023
X3.9528Y-1.9703
X3.9528Y-2.7087
X3.9783Y-2.1232
X3.9789Y-5.0417
X3.9995Y-2.1703
X4.0204Y-2.2717
X4.041Y-2.3717
X4.0483Y-2.7075
X4.0591Y-2.6732
X4.0617Y-2.4717
X4.0736Y-5.2825
X4.0745Y-5.0717
X4.0824Y-2.531
X4.0929Y-5.3113
X4.103Y-2.5738
X4.1237Y-2.6468
X4.1239Y-5.1267
X4.1314Y-4.8917
X4.1468Y-2.6406
X4.1575Y-2.0236
X4.1575Y-2.5669
X4.1614Y-2.2323
X4.1614Y-1.7323
X4.1614Y-2.3228
X4.1614Y-2.437
X4.1614Y-1.6378
X4.1614Y-2.1339
X4.1627Y-2.518
X4.1789Y-3.8567
X4.2431Y-3.8494
X4.3087Y-5.2174
X4.3211Y-4.9601
X4.3239Y-3.8967
X4.3321Y-5.0441
X4.3461Y-5.3569
X4.3503Y-2.6297
X4.3503Y-3.016
X4.3503Y-3.299
X4.3503Y-4.039
X4.3544Y-1.8957
X4.38Y-2.5541
X4.38Y-3.2837
X4.38Y-4.0287
X4.38Y-4.8963
X4.3875Y-5.1944
X4.3921Y-1.7951
X4.4027Y-3.5237
X4.4056Y-2.9597
X4.4056Y-3.4842
X4.4064Y-2.0317
X4.4064Y-2.7817
X4.4064Y-4.2917
X4.4079Y-4.8319
X4.4166Y-4.8878
X4.4489Y-3.5342
X4.4989Y-2.9767
X4.5364Y-2.2692
X4.5389Y-4.4792
X4.5461Y-1.7501
X4.5461Y-2.4995
X4.5461Y-3.2501
X4.5461Y-4.0001
X4.5855Y-1.7525
X4.5855Y-2.5019
X4.5855Y-3.2525
X4.5864Y-4.0042
X4.6028Y-5.2246
X4.6189Y-4.7217
X4.6419Y-4.7427
X4.6722Y-2.1205
X4.6722Y-2.87
X4.6722Y-3.6205
X4.6722Y-4.3705
X4.7282Y-4.8074
X4.761Y-4.7962
X4.8239Y-1.6717
X4.8539Y-4.726
X4.9056Y-1.7556
X4.9056Y-2.5051
X4.9056Y-3.2556
X4.9056Y-4.0056
X4.9259Y-3.8137
X4.9474Y-1.75
X4.9474Y-2.4995
X4.9474Y-3.25
X4.9474Y-4.0
X5.0182Y-2.6396
X5.0182Y-3.3902
X5.0182Y-4.1402
X5.0449Y-3.8858
X5.0489Y-2.3853
X5.0489Y-3.1357
X5.0671Y-1.9374
X5.0689Y-5.0767
X5.1182Y-1.7502
X5.1182Y-2.4996
X5.1182Y-3.2502
X5.1182Y-4.0002
X5.1182Y-4.7502
X5.1189Y-4.6358
X5.138Y-1.9391
X5.138Y-2.0834
X5.138Y-2.6885
X5.138Y-2.8329
X5.138Y-3.4391
X5.138Y-3.5834
X5.138Y-4.1891
X5.138Y-4.3334
X5.138Y-4.9391
X5.138Y-5.0834
X5.1889Y-4.5817
X5.2202Y-1.9372
X5.2202Y-2.6866
X5.2202Y-3.4372
X5.2202Y-4.1872
X5.2202Y-4.9372
X5.2589Y-1.5717
X5.2961Y-1.6551
X5.2961Y-2.4045
X5.2961Y-3.1551
X5.2961Y-3.9051
X5.2961Y-4.6551
X5.3336Y-3.9064
X5.3336Y-4.6564
X5.3339Y-1.6567
X5.3364Y-3.1592
X5.3366Y-2.4089
X5.4202Y-2.0221
X5.4202Y-2.7716
X5.4202Y-3.5221
X5.4202Y-4.2721
X5.4202Y-5.0221
X5.5889Y-4.5567
X5.6535Y-1.6612
X5.6539Y-2.4088
X5.6539Y-3.1593
X5.6547Y-3.91
X5.6566Y-4.6598
X5.6689Y-1.7406
X5.6689Y-2.4901
X5.6689Y-3.2406
X5.6689Y-3.9906
X5.69Y-1.657
X5.69Y-2.4065
X5.69Y-3.157
X5.69Y-3.907
X5.69Y-4.657
X5.8665Y-4.9869
X5.8716Y-3.9106
X5.8747Y-1.6575
X5.8766Y-3.1553
X5.8783Y-2.4033
X5.8864Y-4.5317
X5.89Y-1.8406
X5.89Y-1.985
X5.89Y-2.5901
X5.89Y-2.7345
X5.89Y-3.3406
X5.89Y-3.485
X5.89Y-4.0906
X5.89Y-4.235
X5.89Y-4.8406
X5.89Y-4.985
X5.8964Y-1.4467
X5.9387Y-4.4766
X5.9611Y-4.6611
X5.9721Y-1.8387
X5.9721Y-2.5882
X5.9721Y-3.3387
X5.9721Y-4.0887
X5.9721Y-4.8387
X6.0476Y-1.56
X6.0476Y-2.3095
X6.0476Y-3.06
X6.0476Y-3.81
X6.0476Y-4.56
X6.0837Y-1.5599
X6.0837Y-2.3093
X6.0837Y-3.0599
X6.0837Y-3.8099
X6.0837Y-4.5599
X6.1089Y-4.4698
X6.1722Y-1.9237
X6.1722Y-2.6731
X6.1722Y-3.4237
X6.1722Y-4.9237
X6.182Y-4.1737
X6.3289Y-1.4695
X6.4035Y-4.5602
X6.4035Y-1.5602
X6.4035Y-2.3097
X6.4035Y-3.0602
X6.4035Y-3.8102
X6.4506Y-1.5606
X6.4506Y-2.31
X6.4506Y-3.0606
X6.4506Y-3.8106
X6.4506Y-4.5606
X6.6189Y-4.5967
X6.6189Y-4.8867
X6.638Y-1.9391
X6.638Y-2.0834
X6.638Y-2.6885
X6.638Y-2.8329
X6.638Y-3.4391
X6.638Y-3.5834
X6.638Y-4.1891
X6.638Y-4.3334
X6.638Y-4.9391
X6.638Y-5.0834
X6.6489Y-2.4574
X6.6499Y-1.708
X6.6499Y-3.208
X6.6499Y-3.958
X6.6764Y-4.4467
X6.712Y-4.7502
X6.7202Y-1.9372
X6.7202Y-2.6866
X6.7202Y-3.4372
X6.7202Y-4.1872
X6.7202Y-4.9372
X6.7789Y-1.5745
X6.7913Y-1.65
X6.7913Y-2.3995
X6.7913Y-3.15
X6.7913Y-3.9
X6.7913Y-4.65
X6.8337Y-2.4057
X6.8337Y-4.6563
X6.8365Y-1.659
X6.8365Y-3.159
X6.8365Y-3.909
X6.9202Y-2.0221
X6.9202Y-2.7716
X6.9202Y-3.5221
X6.9202Y-4.2721
X6.9202Y-5.0221
X7.0839Y-4.6092
X7.1535Y-1.662
X7.1535Y-3.162
X7.1539Y-2.4117
X7.1547Y-3.9125
X7.1547Y-4.6625
X7.1664Y-2.4867
X7.1689Y-1.7367
X7.1689Y-3.9892
X7.1739Y-3.2406
X7.1961Y-1.66
X7.1961Y-2.4095
X7.1961Y-3.16
X7.1961Y-3.91
X7.1961Y-4.66
X7.39Y-2.132
X7.39Y-2.2763
X7.39Y-2.8814
X7.39Y-3.0258
X7.39Y-3.632
X7.39Y-3.7763
X7.39Y-4.382
X7.39Y-4.5263
X7.3939Y-4.5667
X7.4191Y-1.8819
X7.4191Y-2.638
X7.4191Y-3.3952
X7.4191Y-4.1439
X7.4721Y-2.1301
X7.4721Y-2.8795
X7.4721Y-3.6301
X7.4721Y-4.3801
X7.5413Y-1.8409
X7.5413Y-2.5904
X7.5413Y-3.3409
X7.5413Y-4.0909
X7.5836Y-1.847
X7.5836Y-2.5965
X7.5836Y-3.347
X7.5886Y-4.1017
X7.6014Y-4.0145
X7.6722Y-2.215
X7.6722Y-2.9645
X7.6722Y-3.715
X7.6722Y-4.465
X7.8314Y-1.7645
X7.904Y-1.8521
X7.904Y-2.6016
X7.904Y-3.3521
X7.904Y-4.1021
X7.9479Y-1.8519
X7.9479Y-2.6014
X7.9479Y-3.3519
X7.9479Y-4.1019
X8.1321Y-1.9751
X8.1321Y-2.7245
X8.1321Y-3.4751
X8.1321Y-4.2251
X8.142Y-2.132
X8.142Y-2.2763
X8.142Y-2.8814
X8.142Y-3.0258
X8.142Y-3.632
X8.142Y-3.7763
X8.142Y-4.382
X8.142Y-4.5263
X8.1739Y-4.7017
X8.2241Y-2.1301
X8.2241Y-2.8795
X8.2241Y-3.6301
X8.2241Y-4.3801
X8.29Y-1.8417
X8.29Y-2.5912
X8.29Y-3.3417
X8.29Y-4.0917
X8.3355Y-1.851
X8.3355Y-2.6005
X8.3355Y-3.351
X8.3364Y-4.101
X8.4242Y-2.215
X8.4242Y-2.9645
X8.4242Y-3.715
X8.4242Y-4.465
X8.5814Y-4.0517
X8.6538Y-1.8538
X8.6538Y-2.6033
X8.6538Y-3.3538
X8.6538Y-4.1038
X8.6664Y-2.6842
X8.6689Y-3.4367
X8.6714Y-1.9342
X8.6939Y-1.85
X8.6939Y-2.5995
X8.6939Y-3.35
X8.6939Y-4.1
T2
X3.6291Y-1.6232
X3.6291Y-1.7232
X3.6291Y-1.8232
X3.6291Y-1.9232
X3.6291Y-2.0232
X3.6291Y-2.1232
X3.6291Y-2.2232
X3.6291Y-2.3232
X3.6291Y-2.4232
X3.6291Y-2.5232
X3.6291Y-2.6232
X3.6291Y-2.7232
X3.6803Y-1.6703
X3.6803Y-1.7703
X3.6803Y-1.8703
X3.6803Y-1.9703
X3.6803Y-2.0703
X3.6803Y-2.1703
X3.6803Y-2.2703
X3.6803Y-2.3703
X3.6803Y-2.4703
X3.6803Y-2.5703
X3.6803Y-2.6703
X3.6803Y-2.7703
X3.7598Y-3.0733
X3.7598Y-3.1619
X3.8071Y-2.937
X3.9071Y-2.937
X3.9598Y-3.0733
X3.9598Y-3.1619
X4.0071Y-2.937
X4.0433Y-3.0748
X4.0433Y-3.1614
X4.1071Y-2.937
X4.2291Y-1.6232
X4.2291Y-1.7232
X4.2291Y-1.8232
X4.2291Y-1.9232
X4.2291Y-2.0232
X4.2291Y-2.1232
X4.2291Y-2.2232
X4.2291Y-2.3232
X4.2291Y-2.4232
X4.2291Y-2.5232
X4.2291Y-2.6232
X4.2291Y-2.7232
X4.2803Y-1.6703
X4.2803Y-1.7703
X4.2803Y-1.8703
X4.2803Y-1.9703
X4.2803Y-2.0703
X4.2803Y-2.1703
X4.2803Y-2.2703
X4.2803Y-2.3703
X4.2803Y-2.4703
X4.2803Y-2.5703
X4.2803Y-2.6703
X4.2803Y-2.7703
T3
X3.6417Y-4.0157
X3.6417Y-4.1142
X3.6417Y-4.2126
X4.2126Y-4.0157
X4.2126Y-4.2126
T4
X3.5433Y-2.9232
X3.5433Y-3.1791
T6
X3.6024Y-3.6811
X4.2126Y-3.6811
T7
X4.0551Y-4.685
X5.1329Y-3.7737
X5.1389Y-2.2667
X8.1102Y-2.4213
X8.1102Y-3.937
T3
G00X3.5846Y-3.2894
M15
G01X3.6043Y-3.2894
M16
G05
G00X3.5846Y-3.5236
M15
G01X3.6043Y-3.5236
M16
G05
G00X3.7028Y-3.2894
M15
G01X3.7224Y-3.2894
M16
G05
G00X3.7028Y-3.5236
M15
G01X3.7224Y-3.5236
M16
G05
G00X3.8602Y-3.2894
M15
G01X3.8799Y-3.2894
M16
G05
G00X3.8602Y-3.5236
M15
G01X3.8799Y-3.5236
M16
G05
G00X3.9193Y-3.3583
M15
G01X3.939Y-3.3583
M16
G05
G00X3.9193Y-3.4547
M15
G01X3.939Y-3.4547
M16
G05
T5
G00X3.9114Y-3.8937
M15
G01X3.9626Y-3.8937
M16
G05
G00X3.9114Y-4.3346
M15
G01X3.9626Y-4.3346
M16
G05
T0
M30
