G04 #@! TF.GenerationSoftware,KiCad,Pcbnew,(5.1.9-0-10_14)*
G04 #@! TF.CreationDate,2021-03-05T16:26:51-07:00*
G04 #@! TF.ProjectId,SofleKeyboard,536f666c-654b-4657-9962-6f6172642e6b,rev?*
G04 #@! TF.SameCoordinates,Original*
G04 #@! TF.FileFunction,Soldermask,Top*
G04 #@! TF.FilePolarity,Negative*
%FSLAX46Y46*%
G04 Gerber Fmt 4.6, Leading zero omitted, Abs format (unit mm)*
G04 Created by KiCad (PCBNEW (5.1.9-0-10_14)) date 2021-03-05 16:26:51*
%MOMM*%
%LPD*%
G01*
G04 APERTURE LIST*
%ADD10C,1.400000*%
%ADD11C,3.400000*%
%ADD12C,3.800000*%
%ADD13C,2.200000*%
%ADD14C,1.924000*%
%ADD15C,4.400000*%
%ADD16C,1.797000*%
%ADD17C,2.400000*%
%ADD18C,5.100000*%
%ADD19C,1.600000*%
%ADD20O,2.900000X2.100000*%
G04 APERTURE END LIST*
G36*
G01*
X181500000Y-119201000D02*
X181500000Y-120201000D01*
G75*
G02*
X181300000Y-120401000I-200000J0D01*
G01*
X179600000Y-120401000D01*
G75*
G02*
X179400000Y-120201000I0J200000D01*
G01*
X179400000Y-119201000D01*
G75*
G02*
X179600000Y-119001000I200000J0D01*
G01*
X181300000Y-119001000D01*
G75*
G02*
X181500000Y-119201000I0J-200000D01*
G01*
G37*
G36*
G01*
X176000000Y-119201000D02*
X176000000Y-120201000D01*
G75*
G02*
X175800000Y-120401000I-200000J0D01*
G01*
X174100000Y-120401000D01*
G75*
G02*
X173900000Y-120201000I0J200000D01*
G01*
X173900000Y-119201000D01*
G75*
G02*
X174100000Y-119001000I200000J0D01*
G01*
X175800000Y-119001000D01*
G75*
G02*
X176000000Y-119201000I0J-200000D01*
G01*
G37*
G36*
G01*
X181500000Y-117801000D02*
X181500000Y-118801000D01*
G75*
G02*
X181300000Y-119001000I-200000J0D01*
G01*
X179600000Y-119001000D01*
G75*
G02*
X179400000Y-118801000I0J200000D01*
G01*
X179400000Y-117801000D01*
G75*
G02*
X179600000Y-117601000I200000J0D01*
G01*
X181300000Y-117601000D01*
G75*
G02*
X181500000Y-117801000I0J-200000D01*
G01*
G37*
G36*
G01*
X176000000Y-117801000D02*
X176000000Y-118801000D01*
G75*
G02*
X175800000Y-119001000I-200000J0D01*
G01*
X174100000Y-119001000D01*
G75*
G02*
X173900000Y-118801000I0J200000D01*
G01*
X173900000Y-117801000D01*
G75*
G02*
X174100000Y-117601000I200000J0D01*
G01*
X175800000Y-117601000D01*
G75*
G02*
X176000000Y-117801000I0J-200000D01*
G01*
G37*
D10*
X182920000Y-119500000D03*
X172480000Y-119500000D03*
D11*
X182700000Y-127400000D03*
G36*
G01*
X175900000Y-128500000D02*
X175900000Y-130700000D01*
G75*
G02*
X175700000Y-130900000I-200000J0D01*
G01*
X174100000Y-130900000D01*
G75*
G02*
X173900000Y-130700000I0J200000D01*
G01*
X173900000Y-128500000D01*
G75*
G02*
X174100000Y-128300000I200000J0D01*
G01*
X175700000Y-128300000D01*
G75*
G02*
X175900000Y-128500000I0J-200000D01*
G01*
G37*
G36*
G01*
X186600000Y-126300000D02*
X186600000Y-128500000D01*
G75*
G02*
X186400000Y-128700000I-200000J0D01*
G01*
X184800000Y-128700000D01*
G75*
G02*
X184600000Y-128500000I0J200000D01*
G01*
X184600000Y-126300000D01*
G75*
G02*
X184800000Y-126100000I200000J0D01*
G01*
X186400000Y-126100000D01*
G75*
G02*
X186600000Y-126300000I0J-200000D01*
G01*
G37*
X172700000Y-127400000D03*
X177700000Y-129600000D03*
D12*
X177700000Y-123700000D03*
D13*
X172200000Y-123700000D03*
X183200000Y-123700000D03*
G36*
G01*
X162450000Y-116701000D02*
X162450000Y-117701000D01*
G75*
G02*
X162250000Y-117901000I-200000J0D01*
G01*
X160550000Y-117901000D01*
G75*
G02*
X160350000Y-117701000I0J200000D01*
G01*
X160350000Y-116701000D01*
G75*
G02*
X160550000Y-116501000I200000J0D01*
G01*
X162250000Y-116501000D01*
G75*
G02*
X162450000Y-116701000I0J-200000D01*
G01*
G37*
G36*
G01*
X156950000Y-116701000D02*
X156950000Y-117701000D01*
G75*
G02*
X156750000Y-117901000I-200000J0D01*
G01*
X155050000Y-117901000D01*
G75*
G02*
X154850000Y-117701000I0J200000D01*
G01*
X154850000Y-116701000D01*
G75*
G02*
X155050000Y-116501000I200000J0D01*
G01*
X156750000Y-116501000D01*
G75*
G02*
X156950000Y-116701000I0J-200000D01*
G01*
G37*
G36*
G01*
X162450000Y-115301000D02*
X162450000Y-116301000D01*
G75*
G02*
X162250000Y-116501000I-200000J0D01*
G01*
X160550000Y-116501000D01*
G75*
G02*
X160350000Y-116301000I0J200000D01*
G01*
X160350000Y-115301000D01*
G75*
G02*
X160550000Y-115101000I200000J0D01*
G01*
X162250000Y-115101000D01*
G75*
G02*
X162450000Y-115301000I0J-200000D01*
G01*
G37*
G36*
G01*
X156950000Y-115301000D02*
X156950000Y-116301000D01*
G75*
G02*
X156750000Y-116501000I-200000J0D01*
G01*
X155050000Y-116501000D01*
G75*
G02*
X154850000Y-116301000I0J200000D01*
G01*
X154850000Y-115301000D01*
G75*
G02*
X155050000Y-115101000I200000J0D01*
G01*
X156750000Y-115101000D01*
G75*
G02*
X156950000Y-115301000I0J-200000D01*
G01*
G37*
D10*
X163870000Y-117000000D03*
X153430000Y-117000000D03*
D11*
X163650000Y-124900000D03*
G36*
G01*
X156850000Y-126000000D02*
X156850000Y-128200000D01*
G75*
G02*
X156650000Y-128400000I-200000J0D01*
G01*
X155050000Y-128400000D01*
G75*
G02*
X154850000Y-128200000I0J200000D01*
G01*
X154850000Y-126000000D01*
G75*
G02*
X155050000Y-125800000I200000J0D01*
G01*
X156650000Y-125800000D01*
G75*
G02*
X156850000Y-126000000I0J-200000D01*
G01*
G37*
G36*
G01*
X167550000Y-123800000D02*
X167550000Y-126000000D01*
G75*
G02*
X167350000Y-126200000I-200000J0D01*
G01*
X165750000Y-126200000D01*
G75*
G02*
X165550000Y-126000000I0J200000D01*
G01*
X165550000Y-123800000D01*
G75*
G02*
X165750000Y-123600000I200000J0D01*
G01*
X167350000Y-123600000D01*
G75*
G02*
X167550000Y-123800000I0J-200000D01*
G01*
G37*
X153650000Y-124900000D03*
X158650000Y-127100000D03*
D12*
X158650000Y-121200000D03*
D13*
X153150000Y-121200000D03*
X164150000Y-121200000D03*
G36*
G01*
X143400000Y-119201000D02*
X143400000Y-120201000D01*
G75*
G02*
X143200000Y-120401000I-200000J0D01*
G01*
X141500000Y-120401000D01*
G75*
G02*
X141300000Y-120201000I0J200000D01*
G01*
X141300000Y-119201000D01*
G75*
G02*
X141500000Y-119001000I200000J0D01*
G01*
X143200000Y-119001000D01*
G75*
G02*
X143400000Y-119201000I0J-200000D01*
G01*
G37*
G36*
G01*
X137900000Y-119201000D02*
X137900000Y-120201000D01*
G75*
G02*
X137700000Y-120401000I-200000J0D01*
G01*
X136000000Y-120401000D01*
G75*
G02*
X135800000Y-120201000I0J200000D01*
G01*
X135800000Y-119201000D01*
G75*
G02*
X136000000Y-119001000I200000J0D01*
G01*
X137700000Y-119001000D01*
G75*
G02*
X137900000Y-119201000I0J-200000D01*
G01*
G37*
G36*
G01*
X143400000Y-117801000D02*
X143400000Y-118801000D01*
G75*
G02*
X143200000Y-119001000I-200000J0D01*
G01*
X141500000Y-119001000D01*
G75*
G02*
X141300000Y-118801000I0J200000D01*
G01*
X141300000Y-117801000D01*
G75*
G02*
X141500000Y-117601000I200000J0D01*
G01*
X143200000Y-117601000D01*
G75*
G02*
X143400000Y-117801000I0J-200000D01*
G01*
G37*
G36*
G01*
X137900000Y-117801000D02*
X137900000Y-118801000D01*
G75*
G02*
X137700000Y-119001000I-200000J0D01*
G01*
X136000000Y-119001000D01*
G75*
G02*
X135800000Y-118801000I0J200000D01*
G01*
X135800000Y-117801000D01*
G75*
G02*
X136000000Y-117601000I200000J0D01*
G01*
X137700000Y-117601000D01*
G75*
G02*
X137900000Y-117801000I0J-200000D01*
G01*
G37*
D10*
X144820000Y-119500000D03*
X134380000Y-119500000D03*
D11*
X144600000Y-127400000D03*
G36*
G01*
X137800000Y-128500000D02*
X137800000Y-130700000D01*
G75*
G02*
X137600000Y-130900000I-200000J0D01*
G01*
X136000000Y-130900000D01*
G75*
G02*
X135800000Y-130700000I0J200000D01*
G01*
X135800000Y-128500000D01*
G75*
G02*
X136000000Y-128300000I200000J0D01*
G01*
X137600000Y-128300000D01*
G75*
G02*
X137800000Y-128500000I0J-200000D01*
G01*
G37*
G36*
G01*
X148500000Y-126300000D02*
X148500000Y-128500000D01*
G75*
G02*
X148300000Y-128700000I-200000J0D01*
G01*
X146700000Y-128700000D01*
G75*
G02*
X146500000Y-128500000I0J200000D01*
G01*
X146500000Y-126300000D01*
G75*
G02*
X146700000Y-126100000I200000J0D01*
G01*
X148300000Y-126100000D01*
G75*
G02*
X148500000Y-126300000I0J-200000D01*
G01*
G37*
X134600000Y-127400000D03*
X139600000Y-129600000D03*
D12*
X139600000Y-123700000D03*
D13*
X134100000Y-123700000D03*
X145100000Y-123700000D03*
G36*
G01*
X120106091Y-123070787D02*
X120364910Y-124036713D01*
G75*
G02*
X120223489Y-124281662I-193185J-51764D01*
G01*
X118581416Y-124721654D01*
G75*
G02*
X118336467Y-124580233I-51764J193185D01*
G01*
X118077648Y-123614307D01*
G75*
G02*
X118219069Y-123369358I193185J51764D01*
G01*
X119861142Y-122929366D01*
G75*
G02*
X120106091Y-123070787I51764J-193185D01*
G01*
G37*
G36*
G01*
X114793499Y-124494292D02*
X115052318Y-125460218D01*
G75*
G02*
X114910897Y-125705167I-193185J-51764D01*
G01*
X113268824Y-126145159D01*
G75*
G02*
X113023875Y-126003738I-51764J193185D01*
G01*
X112765056Y-125037812D01*
G75*
G02*
X112906477Y-124792863I193185J51764D01*
G01*
X114548550Y-124352871D01*
G75*
G02*
X114793499Y-124494292I51764J-193185D01*
G01*
G37*
G36*
G01*
X119743744Y-121718491D02*
X120002563Y-122684417D01*
G75*
G02*
X119861142Y-122929366I-193185J-51764D01*
G01*
X118219069Y-123369358D01*
G75*
G02*
X117974120Y-123227937I-51764J193185D01*
G01*
X117715301Y-122262011D01*
G75*
G02*
X117856722Y-122017062I193185J51764D01*
G01*
X119498795Y-121577070D01*
G75*
G02*
X119743744Y-121718491I51764J-193185D01*
G01*
G37*
G36*
G01*
X114431152Y-123141996D02*
X114689971Y-124107922D01*
G75*
G02*
X114548550Y-124352871I-193185J-51764D01*
G01*
X112906477Y-124792863D01*
G75*
G02*
X112661528Y-124651442I-51764J193185D01*
G01*
X112402709Y-123685516D01*
G75*
G02*
X112544130Y-123440567I193185J51764D01*
G01*
X114186203Y-123000575D01*
G75*
G02*
X114431152Y-123141996I51764J-193185D01*
G01*
G37*
D10*
X121555093Y-122992076D03*
X111470827Y-125694147D03*
D11*
X123387260Y-130679830D03*
G36*
G01*
X117103665Y-133502318D02*
X117673067Y-135627355D01*
G75*
G02*
X117531646Y-135872304I-193185J-51764D01*
G01*
X115986164Y-136286415D01*
G75*
G02*
X115741215Y-136144994I-51764J193185D01*
G01*
X115171813Y-134019957D01*
G75*
G02*
X115313234Y-133775008I193185J51764D01*
G01*
X116858716Y-133360897D01*
G75*
G02*
X117103665Y-133502318I51764J-193185D01*
G01*
G37*
G36*
G01*
X126869669Y-128607917D02*
X127439071Y-130732954D01*
G75*
G02*
X127297650Y-130977903I-193185J-51764D01*
G01*
X125752168Y-131392014D01*
G75*
G02*
X125507219Y-131250593I-51764J193185D01*
G01*
X124937817Y-129125556D01*
G75*
G02*
X125079238Y-128880607I193185J51764D01*
G01*
X126624720Y-128466496D01*
G75*
G02*
X126869669Y-128607917I51764J-193185D01*
G01*
G37*
X113728001Y-133268021D03*
X119127032Y-134098962D03*
D12*
X117600000Y-128400000D03*
D13*
X112287408Y-129823505D03*
X122912592Y-126976495D03*
G36*
G01*
X102506249Y-134441397D02*
X101640223Y-134941397D01*
G75*
G02*
X101367018Y-134868192I-100000J173205D01*
G01*
X100517018Y-133395948D01*
G75*
G02*
X100590223Y-133122743I173205J100000D01*
G01*
X101456249Y-132622743D01*
G75*
G02*
X101729454Y-132695948I100000J-173205D01*
G01*
X102579454Y-134168192D01*
G75*
G02*
X102506249Y-134441397I-173205J-100000D01*
G01*
G37*
G36*
G01*
X99756249Y-129678257D02*
X98890223Y-130178257D01*
G75*
G02*
X98617018Y-130105052I-100000J173205D01*
G01*
X97767018Y-128632808D01*
G75*
G02*
X97840223Y-128359603I173205J100000D01*
G01*
X98706249Y-127859603D01*
G75*
G02*
X98979454Y-127932808I100000J-173205D01*
G01*
X99829454Y-129405052D01*
G75*
G02*
X99756249Y-129678257I-173205J-100000D01*
G01*
G37*
G36*
G01*
X103718684Y-133741397D02*
X102852658Y-134241397D01*
G75*
G02*
X102579453Y-134168192I-100000J173205D01*
G01*
X101729453Y-132695948D01*
G75*
G02*
X101802658Y-132422743I173205J100000D01*
G01*
X102668684Y-131922743D01*
G75*
G02*
X102941889Y-131995948I100000J-173205D01*
G01*
X103791889Y-133468192D01*
G75*
G02*
X103718684Y-133741397I-173205J-100000D01*
G01*
G37*
G36*
G01*
X100968684Y-128978257D02*
X100102658Y-129478257D01*
G75*
G02*
X99829453Y-129405052I-100000J173205D01*
G01*
X98979453Y-127932808D01*
G75*
G02*
X99052658Y-127659603I173205J100000D01*
G01*
X99918684Y-127159603D01*
G75*
G02*
X100191889Y-127232808I100000J-173205D01*
G01*
X101041889Y-128705052D01*
G75*
G02*
X100968684Y-128978257I-173205J-100000D01*
G01*
G37*
D10*
X102957307Y-135820653D03*
X97737307Y-126779347D03*
D11*
X96005706Y-139580127D03*
G36*
G01*
X91653078Y-134241154D02*
X89747822Y-135341154D01*
G75*
G02*
X89474617Y-135267949I-100000J173205D01*
G01*
X88674617Y-133882309D01*
G75*
G02*
X88747822Y-133609104I173205J100000D01*
G01*
X90653078Y-132509104D01*
G75*
G02*
X90926283Y-132582309I100000J-173205D01*
G01*
X91726283Y-133967949D01*
G75*
G02*
X91653078Y-134241154I-173205J-100000D01*
G01*
G37*
G36*
G01*
X98908334Y-142407626D02*
X97003078Y-143507626D01*
G75*
G02*
X96729873Y-143434421I-100000J173205D01*
G01*
X95929873Y-142048781D01*
G75*
G02*
X96003078Y-141775576I173205J100000D01*
G01*
X97908334Y-140675576D01*
G75*
G02*
X98181539Y-140748781I100000J-173205D01*
G01*
X98981539Y-142134421D01*
G75*
G02*
X98908334Y-142407626I-173205J-100000D01*
G01*
G37*
X91005706Y-130919873D03*
X91600450Y-136350000D03*
D12*
X96710000Y-133400000D03*
D13*
X93960000Y-128636860D03*
X99460000Y-138163140D03*
G36*
G01*
X219600000Y-105051000D02*
X219600000Y-106051000D01*
G75*
G02*
X219400000Y-106251000I-200000J0D01*
G01*
X217700000Y-106251000D01*
G75*
G02*
X217500000Y-106051000I0J200000D01*
G01*
X217500000Y-105051000D01*
G75*
G02*
X217700000Y-104851000I200000J0D01*
G01*
X219400000Y-104851000D01*
G75*
G02*
X219600000Y-105051000I0J-200000D01*
G01*
G37*
G36*
G01*
X214100000Y-105051000D02*
X214100000Y-106051000D01*
G75*
G02*
X213900000Y-106251000I-200000J0D01*
G01*
X212200000Y-106251000D01*
G75*
G02*
X212000000Y-106051000I0J200000D01*
G01*
X212000000Y-105051000D01*
G75*
G02*
X212200000Y-104851000I200000J0D01*
G01*
X213900000Y-104851000D01*
G75*
G02*
X214100000Y-105051000I0J-200000D01*
G01*
G37*
G36*
G01*
X219600000Y-103651000D02*
X219600000Y-104651000D01*
G75*
G02*
X219400000Y-104851000I-200000J0D01*
G01*
X217700000Y-104851000D01*
G75*
G02*
X217500000Y-104651000I0J200000D01*
G01*
X217500000Y-103651000D01*
G75*
G02*
X217700000Y-103451000I200000J0D01*
G01*
X219400000Y-103451000D01*
G75*
G02*
X219600000Y-103651000I0J-200000D01*
G01*
G37*
G36*
G01*
X214100000Y-103651000D02*
X214100000Y-104651000D01*
G75*
G02*
X213900000Y-104851000I-200000J0D01*
G01*
X212200000Y-104851000D01*
G75*
G02*
X212000000Y-104651000I0J200000D01*
G01*
X212000000Y-103651000D01*
G75*
G02*
X212200000Y-103451000I200000J0D01*
G01*
X213900000Y-103451000D01*
G75*
G02*
X214100000Y-103651000I0J-200000D01*
G01*
G37*
D10*
X221020000Y-105350000D03*
X210580000Y-105350000D03*
D11*
X220800000Y-113250000D03*
G36*
G01*
X214000000Y-114350000D02*
X214000000Y-116550000D01*
G75*
G02*
X213800000Y-116750000I-200000J0D01*
G01*
X212200000Y-116750000D01*
G75*
G02*
X212000000Y-116550000I0J200000D01*
G01*
X212000000Y-114350000D01*
G75*
G02*
X212200000Y-114150000I200000J0D01*
G01*
X213800000Y-114150000D01*
G75*
G02*
X214000000Y-114350000I0J-200000D01*
G01*
G37*
G36*
G01*
X224700000Y-112150000D02*
X224700000Y-114350000D01*
G75*
G02*
X224500000Y-114550000I-200000J0D01*
G01*
X222900000Y-114550000D01*
G75*
G02*
X222700000Y-114350000I0J200000D01*
G01*
X222700000Y-112150000D01*
G75*
G02*
X222900000Y-111950000I200000J0D01*
G01*
X224500000Y-111950000D01*
G75*
G02*
X224700000Y-112150000I0J-200000D01*
G01*
G37*
X210800000Y-113250000D03*
X215800000Y-115450000D03*
D12*
X215800000Y-109550000D03*
D13*
X210300000Y-109550000D03*
X221300000Y-109550000D03*
G36*
G01*
X200550000Y-105051000D02*
X200550000Y-106051000D01*
G75*
G02*
X200350000Y-106251000I-200000J0D01*
G01*
X198650000Y-106251000D01*
G75*
G02*
X198450000Y-106051000I0J200000D01*
G01*
X198450000Y-105051000D01*
G75*
G02*
X198650000Y-104851000I200000J0D01*
G01*
X200350000Y-104851000D01*
G75*
G02*
X200550000Y-105051000I0J-200000D01*
G01*
G37*
G36*
G01*
X195050000Y-105051000D02*
X195050000Y-106051000D01*
G75*
G02*
X194850000Y-106251000I-200000J0D01*
G01*
X193150000Y-106251000D01*
G75*
G02*
X192950000Y-106051000I0J200000D01*
G01*
X192950000Y-105051000D01*
G75*
G02*
X193150000Y-104851000I200000J0D01*
G01*
X194850000Y-104851000D01*
G75*
G02*
X195050000Y-105051000I0J-200000D01*
G01*
G37*
G36*
G01*
X200550000Y-103651000D02*
X200550000Y-104651000D01*
G75*
G02*
X200350000Y-104851000I-200000J0D01*
G01*
X198650000Y-104851000D01*
G75*
G02*
X198450000Y-104651000I0J200000D01*
G01*
X198450000Y-103651000D01*
G75*
G02*
X198650000Y-103451000I200000J0D01*
G01*
X200350000Y-103451000D01*
G75*
G02*
X200550000Y-103651000I0J-200000D01*
G01*
G37*
G36*
G01*
X195050000Y-103651000D02*
X195050000Y-104651000D01*
G75*
G02*
X194850000Y-104851000I-200000J0D01*
G01*
X193150000Y-104851000D01*
G75*
G02*
X192950000Y-104651000I0J200000D01*
G01*
X192950000Y-103651000D01*
G75*
G02*
X193150000Y-103451000I200000J0D01*
G01*
X194850000Y-103451000D01*
G75*
G02*
X195050000Y-103651000I0J-200000D01*
G01*
G37*
D10*
X201970000Y-105350000D03*
X191530000Y-105350000D03*
D11*
X201750000Y-113250000D03*
G36*
G01*
X194950000Y-114350000D02*
X194950000Y-116550000D01*
G75*
G02*
X194750000Y-116750000I-200000J0D01*
G01*
X193150000Y-116750000D01*
G75*
G02*
X192950000Y-116550000I0J200000D01*
G01*
X192950000Y-114350000D01*
G75*
G02*
X193150000Y-114150000I200000J0D01*
G01*
X194750000Y-114150000D01*
G75*
G02*
X194950000Y-114350000I0J-200000D01*
G01*
G37*
G36*
G01*
X205650000Y-112150000D02*
X205650000Y-114350000D01*
G75*
G02*
X205450000Y-114550000I-200000J0D01*
G01*
X203850000Y-114550000D01*
G75*
G02*
X203650000Y-114350000I0J200000D01*
G01*
X203650000Y-112150000D01*
G75*
G02*
X203850000Y-111950000I200000J0D01*
G01*
X205450000Y-111950000D01*
G75*
G02*
X205650000Y-112150000I0J-200000D01*
G01*
G37*
X191750000Y-113250000D03*
X196750000Y-115450000D03*
D12*
X196750000Y-109550000D03*
D13*
X191250000Y-109550000D03*
X202250000Y-109550000D03*
G36*
G01*
X181500000Y-100151000D02*
X181500000Y-101151000D01*
G75*
G02*
X181300000Y-101351000I-200000J0D01*
G01*
X179600000Y-101351000D01*
G75*
G02*
X179400000Y-101151000I0J200000D01*
G01*
X179400000Y-100151000D01*
G75*
G02*
X179600000Y-99951000I200000J0D01*
G01*
X181300000Y-99951000D01*
G75*
G02*
X181500000Y-100151000I0J-200000D01*
G01*
G37*
G36*
G01*
X176000000Y-100151000D02*
X176000000Y-101151000D01*
G75*
G02*
X175800000Y-101351000I-200000J0D01*
G01*
X174100000Y-101351000D01*
G75*
G02*
X173900000Y-101151000I0J200000D01*
G01*
X173900000Y-100151000D01*
G75*
G02*
X174100000Y-99951000I200000J0D01*
G01*
X175800000Y-99951000D01*
G75*
G02*
X176000000Y-100151000I0J-200000D01*
G01*
G37*
G36*
G01*
X181500000Y-98751000D02*
X181500000Y-99751000D01*
G75*
G02*
X181300000Y-99951000I-200000J0D01*
G01*
X179600000Y-99951000D01*
G75*
G02*
X179400000Y-99751000I0J200000D01*
G01*
X179400000Y-98751000D01*
G75*
G02*
X179600000Y-98551000I200000J0D01*
G01*
X181300000Y-98551000D01*
G75*
G02*
X181500000Y-98751000I0J-200000D01*
G01*
G37*
G36*
G01*
X176000000Y-98751000D02*
X176000000Y-99751000D01*
G75*
G02*
X175800000Y-99951000I-200000J0D01*
G01*
X174100000Y-99951000D01*
G75*
G02*
X173900000Y-99751000I0J200000D01*
G01*
X173900000Y-98751000D01*
G75*
G02*
X174100000Y-98551000I200000J0D01*
G01*
X175800000Y-98551000D01*
G75*
G02*
X176000000Y-98751000I0J-200000D01*
G01*
G37*
D10*
X182920000Y-100450000D03*
X172480000Y-100450000D03*
D11*
X182700000Y-108350000D03*
G36*
G01*
X175900000Y-109450000D02*
X175900000Y-111650000D01*
G75*
G02*
X175700000Y-111850000I-200000J0D01*
G01*
X174100000Y-111850000D01*
G75*
G02*
X173900000Y-111650000I0J200000D01*
G01*
X173900000Y-109450000D01*
G75*
G02*
X174100000Y-109250000I200000J0D01*
G01*
X175700000Y-109250000D01*
G75*
G02*
X175900000Y-109450000I0J-200000D01*
G01*
G37*
G36*
G01*
X186600000Y-107250000D02*
X186600000Y-109450000D01*
G75*
G02*
X186400000Y-109650000I-200000J0D01*
G01*
X184800000Y-109650000D01*
G75*
G02*
X184600000Y-109450000I0J200000D01*
G01*
X184600000Y-107250000D01*
G75*
G02*
X184800000Y-107050000I200000J0D01*
G01*
X186400000Y-107050000D01*
G75*
G02*
X186600000Y-107250000I0J-200000D01*
G01*
G37*
X172700000Y-108350000D03*
X177700000Y-110550000D03*
D12*
X177700000Y-104650000D03*
D13*
X172200000Y-104650000D03*
X183200000Y-104650000D03*
G36*
G01*
X162450000Y-97651000D02*
X162450000Y-98651000D01*
G75*
G02*
X162250000Y-98851000I-200000J0D01*
G01*
X160550000Y-98851000D01*
G75*
G02*
X160350000Y-98651000I0J200000D01*
G01*
X160350000Y-97651000D01*
G75*
G02*
X160550000Y-97451000I200000J0D01*
G01*
X162250000Y-97451000D01*
G75*
G02*
X162450000Y-97651000I0J-200000D01*
G01*
G37*
G36*
G01*
X156950000Y-97651000D02*
X156950000Y-98651000D01*
G75*
G02*
X156750000Y-98851000I-200000J0D01*
G01*
X155050000Y-98851000D01*
G75*
G02*
X154850000Y-98651000I0J200000D01*
G01*
X154850000Y-97651000D01*
G75*
G02*
X155050000Y-97451000I200000J0D01*
G01*
X156750000Y-97451000D01*
G75*
G02*
X156950000Y-97651000I0J-200000D01*
G01*
G37*
G36*
G01*
X162450000Y-96251000D02*
X162450000Y-97251000D01*
G75*
G02*
X162250000Y-97451000I-200000J0D01*
G01*
X160550000Y-97451000D01*
G75*
G02*
X160350000Y-97251000I0J200000D01*
G01*
X160350000Y-96251000D01*
G75*
G02*
X160550000Y-96051000I200000J0D01*
G01*
X162250000Y-96051000D01*
G75*
G02*
X162450000Y-96251000I0J-200000D01*
G01*
G37*
G36*
G01*
X156950000Y-96251000D02*
X156950000Y-97251000D01*
G75*
G02*
X156750000Y-97451000I-200000J0D01*
G01*
X155050000Y-97451000D01*
G75*
G02*
X154850000Y-97251000I0J200000D01*
G01*
X154850000Y-96251000D01*
G75*
G02*
X155050000Y-96051000I200000J0D01*
G01*
X156750000Y-96051000D01*
G75*
G02*
X156950000Y-96251000I0J-200000D01*
G01*
G37*
D10*
X163870000Y-97950000D03*
X153430000Y-97950000D03*
D11*
X163650000Y-105850000D03*
G36*
G01*
X156850000Y-106950000D02*
X156850000Y-109150000D01*
G75*
G02*
X156650000Y-109350000I-200000J0D01*
G01*
X155050000Y-109350000D01*
G75*
G02*
X154850000Y-109150000I0J200000D01*
G01*
X154850000Y-106950000D01*
G75*
G02*
X155050000Y-106750000I200000J0D01*
G01*
X156650000Y-106750000D01*
G75*
G02*
X156850000Y-106950000I0J-200000D01*
G01*
G37*
G36*
G01*
X167550000Y-104750000D02*
X167550000Y-106950000D01*
G75*
G02*
X167350000Y-107150000I-200000J0D01*
G01*
X165750000Y-107150000D01*
G75*
G02*
X165550000Y-106950000I0J200000D01*
G01*
X165550000Y-104750000D01*
G75*
G02*
X165750000Y-104550000I200000J0D01*
G01*
X167350000Y-104550000D01*
G75*
G02*
X167550000Y-104750000I0J-200000D01*
G01*
G37*
X153650000Y-105850000D03*
X158650000Y-108050000D03*
D12*
X158650000Y-102150000D03*
D13*
X153150000Y-102150000D03*
X164150000Y-102150000D03*
G36*
G01*
X143400000Y-100151000D02*
X143400000Y-101151000D01*
G75*
G02*
X143200000Y-101351000I-200000J0D01*
G01*
X141500000Y-101351000D01*
G75*
G02*
X141300000Y-101151000I0J200000D01*
G01*
X141300000Y-100151000D01*
G75*
G02*
X141500000Y-99951000I200000J0D01*
G01*
X143200000Y-99951000D01*
G75*
G02*
X143400000Y-100151000I0J-200000D01*
G01*
G37*
G36*
G01*
X137900000Y-100151000D02*
X137900000Y-101151000D01*
G75*
G02*
X137700000Y-101351000I-200000J0D01*
G01*
X136000000Y-101351000D01*
G75*
G02*
X135800000Y-101151000I0J200000D01*
G01*
X135800000Y-100151000D01*
G75*
G02*
X136000000Y-99951000I200000J0D01*
G01*
X137700000Y-99951000D01*
G75*
G02*
X137900000Y-100151000I0J-200000D01*
G01*
G37*
G36*
G01*
X143400000Y-98751000D02*
X143400000Y-99751000D01*
G75*
G02*
X143200000Y-99951000I-200000J0D01*
G01*
X141500000Y-99951000D01*
G75*
G02*
X141300000Y-99751000I0J200000D01*
G01*
X141300000Y-98751000D01*
G75*
G02*
X141500000Y-98551000I200000J0D01*
G01*
X143200000Y-98551000D01*
G75*
G02*
X143400000Y-98751000I0J-200000D01*
G01*
G37*
G36*
G01*
X137900000Y-98751000D02*
X137900000Y-99751000D01*
G75*
G02*
X137700000Y-99951000I-200000J0D01*
G01*
X136000000Y-99951000D01*
G75*
G02*
X135800000Y-99751000I0J200000D01*
G01*
X135800000Y-98751000D01*
G75*
G02*
X136000000Y-98551000I200000J0D01*
G01*
X137700000Y-98551000D01*
G75*
G02*
X137900000Y-98751000I0J-200000D01*
G01*
G37*
D10*
X144820000Y-100450000D03*
X134380000Y-100450000D03*
D11*
X144600000Y-108350000D03*
G36*
G01*
X137800000Y-109450000D02*
X137800000Y-111650000D01*
G75*
G02*
X137600000Y-111850000I-200000J0D01*
G01*
X136000000Y-111850000D01*
G75*
G02*
X135800000Y-111650000I0J200000D01*
G01*
X135800000Y-109450000D01*
G75*
G02*
X136000000Y-109250000I200000J0D01*
G01*
X137600000Y-109250000D01*
G75*
G02*
X137800000Y-109450000I0J-200000D01*
G01*
G37*
G36*
G01*
X148500000Y-107250000D02*
X148500000Y-109450000D01*
G75*
G02*
X148300000Y-109650000I-200000J0D01*
G01*
X146700000Y-109650000D01*
G75*
G02*
X146500000Y-109450000I0J200000D01*
G01*
X146500000Y-107250000D01*
G75*
G02*
X146700000Y-107050000I200000J0D01*
G01*
X148300000Y-107050000D01*
G75*
G02*
X148500000Y-107250000I0J-200000D01*
G01*
G37*
X134600000Y-108350000D03*
X139600000Y-110550000D03*
D12*
X139600000Y-104650000D03*
D13*
X134100000Y-104650000D03*
X145100000Y-104650000D03*
G36*
G01*
X124350000Y-102651000D02*
X124350000Y-103651000D01*
G75*
G02*
X124150000Y-103851000I-200000J0D01*
G01*
X122450000Y-103851000D01*
G75*
G02*
X122250000Y-103651000I0J200000D01*
G01*
X122250000Y-102651000D01*
G75*
G02*
X122450000Y-102451000I200000J0D01*
G01*
X124150000Y-102451000D01*
G75*
G02*
X124350000Y-102651000I0J-200000D01*
G01*
G37*
G36*
G01*
X118850000Y-102651000D02*
X118850000Y-103651000D01*
G75*
G02*
X118650000Y-103851000I-200000J0D01*
G01*
X116950000Y-103851000D01*
G75*
G02*
X116750000Y-103651000I0J200000D01*
G01*
X116750000Y-102651000D01*
G75*
G02*
X116950000Y-102451000I200000J0D01*
G01*
X118650000Y-102451000D01*
G75*
G02*
X118850000Y-102651000I0J-200000D01*
G01*
G37*
G36*
G01*
X124350000Y-101251000D02*
X124350000Y-102251000D01*
G75*
G02*
X124150000Y-102451000I-200000J0D01*
G01*
X122450000Y-102451000D01*
G75*
G02*
X122250000Y-102251000I0J200000D01*
G01*
X122250000Y-101251000D01*
G75*
G02*
X122450000Y-101051000I200000J0D01*
G01*
X124150000Y-101051000D01*
G75*
G02*
X124350000Y-101251000I0J-200000D01*
G01*
G37*
G36*
G01*
X118850000Y-101251000D02*
X118850000Y-102251000D01*
G75*
G02*
X118650000Y-102451000I-200000J0D01*
G01*
X116950000Y-102451000D01*
G75*
G02*
X116750000Y-102251000I0J200000D01*
G01*
X116750000Y-101251000D01*
G75*
G02*
X116950000Y-101051000I200000J0D01*
G01*
X118650000Y-101051000D01*
G75*
G02*
X118850000Y-101251000I0J-200000D01*
G01*
G37*
D10*
X125770000Y-102950000D03*
X115330000Y-102950000D03*
D11*
X125550000Y-110850000D03*
G36*
G01*
X118750000Y-111950000D02*
X118750000Y-114150000D01*
G75*
G02*
X118550000Y-114350000I-200000J0D01*
G01*
X116950000Y-114350000D01*
G75*
G02*
X116750000Y-114150000I0J200000D01*
G01*
X116750000Y-111950000D01*
G75*
G02*
X116950000Y-111750000I200000J0D01*
G01*
X118550000Y-111750000D01*
G75*
G02*
X118750000Y-111950000I0J-200000D01*
G01*
G37*
G36*
G01*
X129450000Y-109750000D02*
X129450000Y-111950000D01*
G75*
G02*
X129250000Y-112150000I-200000J0D01*
G01*
X127650000Y-112150000D01*
G75*
G02*
X127450000Y-111950000I0J200000D01*
G01*
X127450000Y-109750000D01*
G75*
G02*
X127650000Y-109550000I200000J0D01*
G01*
X129250000Y-109550000D01*
G75*
G02*
X129450000Y-109750000I0J-200000D01*
G01*
G37*
X115550000Y-110850000D03*
X120550000Y-113050000D03*
D12*
X120550000Y-107150000D03*
D13*
X115050000Y-107150000D03*
X126050000Y-107150000D03*
G36*
G01*
X219600000Y-86001000D02*
X219600000Y-87001000D01*
G75*
G02*
X219400000Y-87201000I-200000J0D01*
G01*
X217700000Y-87201000D01*
G75*
G02*
X217500000Y-87001000I0J200000D01*
G01*
X217500000Y-86001000D01*
G75*
G02*
X217700000Y-85801000I200000J0D01*
G01*
X219400000Y-85801000D01*
G75*
G02*
X219600000Y-86001000I0J-200000D01*
G01*
G37*
G36*
G01*
X214100000Y-86001000D02*
X214100000Y-87001000D01*
G75*
G02*
X213900000Y-87201000I-200000J0D01*
G01*
X212200000Y-87201000D01*
G75*
G02*
X212000000Y-87001000I0J200000D01*
G01*
X212000000Y-86001000D01*
G75*
G02*
X212200000Y-85801000I200000J0D01*
G01*
X213900000Y-85801000D01*
G75*
G02*
X214100000Y-86001000I0J-200000D01*
G01*
G37*
G36*
G01*
X219600000Y-84601000D02*
X219600000Y-85601000D01*
G75*
G02*
X219400000Y-85801000I-200000J0D01*
G01*
X217700000Y-85801000D01*
G75*
G02*
X217500000Y-85601000I0J200000D01*
G01*
X217500000Y-84601000D01*
G75*
G02*
X217700000Y-84401000I200000J0D01*
G01*
X219400000Y-84401000D01*
G75*
G02*
X219600000Y-84601000I0J-200000D01*
G01*
G37*
G36*
G01*
X214100000Y-84601000D02*
X214100000Y-85601000D01*
G75*
G02*
X213900000Y-85801000I-200000J0D01*
G01*
X212200000Y-85801000D01*
G75*
G02*
X212000000Y-85601000I0J200000D01*
G01*
X212000000Y-84601000D01*
G75*
G02*
X212200000Y-84401000I200000J0D01*
G01*
X213900000Y-84401000D01*
G75*
G02*
X214100000Y-84601000I0J-200000D01*
G01*
G37*
D10*
X221020000Y-86300000D03*
X210580000Y-86300000D03*
D11*
X220800000Y-94200000D03*
G36*
G01*
X214000000Y-95300000D02*
X214000000Y-97500000D01*
G75*
G02*
X213800000Y-97700000I-200000J0D01*
G01*
X212200000Y-97700000D01*
G75*
G02*
X212000000Y-97500000I0J200000D01*
G01*
X212000000Y-95300000D01*
G75*
G02*
X212200000Y-95100000I200000J0D01*
G01*
X213800000Y-95100000D01*
G75*
G02*
X214000000Y-95300000I0J-200000D01*
G01*
G37*
G36*
G01*
X224700000Y-93100000D02*
X224700000Y-95300000D01*
G75*
G02*
X224500000Y-95500000I-200000J0D01*
G01*
X222900000Y-95500000D01*
G75*
G02*
X222700000Y-95300000I0J200000D01*
G01*
X222700000Y-93100000D01*
G75*
G02*
X222900000Y-92900000I200000J0D01*
G01*
X224500000Y-92900000D01*
G75*
G02*
X224700000Y-93100000I0J-200000D01*
G01*
G37*
X210800000Y-94200000D03*
X215800000Y-96400000D03*
D12*
X215800000Y-90500000D03*
D13*
X210300000Y-90500000D03*
X221300000Y-90500000D03*
G36*
G01*
X200550000Y-86001000D02*
X200550000Y-87001000D01*
G75*
G02*
X200350000Y-87201000I-200000J0D01*
G01*
X198650000Y-87201000D01*
G75*
G02*
X198450000Y-87001000I0J200000D01*
G01*
X198450000Y-86001000D01*
G75*
G02*
X198650000Y-85801000I200000J0D01*
G01*
X200350000Y-85801000D01*
G75*
G02*
X200550000Y-86001000I0J-200000D01*
G01*
G37*
G36*
G01*
X195050000Y-86001000D02*
X195050000Y-87001000D01*
G75*
G02*
X194850000Y-87201000I-200000J0D01*
G01*
X193150000Y-87201000D01*
G75*
G02*
X192950000Y-87001000I0J200000D01*
G01*
X192950000Y-86001000D01*
G75*
G02*
X193150000Y-85801000I200000J0D01*
G01*
X194850000Y-85801000D01*
G75*
G02*
X195050000Y-86001000I0J-200000D01*
G01*
G37*
G36*
G01*
X200550000Y-84601000D02*
X200550000Y-85601000D01*
G75*
G02*
X200350000Y-85801000I-200000J0D01*
G01*
X198650000Y-85801000D01*
G75*
G02*
X198450000Y-85601000I0J200000D01*
G01*
X198450000Y-84601000D01*
G75*
G02*
X198650000Y-84401000I200000J0D01*
G01*
X200350000Y-84401000D01*
G75*
G02*
X200550000Y-84601000I0J-200000D01*
G01*
G37*
G36*
G01*
X195050000Y-84601000D02*
X195050000Y-85601000D01*
G75*
G02*
X194850000Y-85801000I-200000J0D01*
G01*
X193150000Y-85801000D01*
G75*
G02*
X192950000Y-85601000I0J200000D01*
G01*
X192950000Y-84601000D01*
G75*
G02*
X193150000Y-84401000I200000J0D01*
G01*
X194850000Y-84401000D01*
G75*
G02*
X195050000Y-84601000I0J-200000D01*
G01*
G37*
D10*
X201970000Y-86300000D03*
X191530000Y-86300000D03*
D11*
X201750000Y-94200000D03*
G36*
G01*
X194950000Y-95300000D02*
X194950000Y-97500000D01*
G75*
G02*
X194750000Y-97700000I-200000J0D01*
G01*
X193150000Y-97700000D01*
G75*
G02*
X192950000Y-97500000I0J200000D01*
G01*
X192950000Y-95300000D01*
G75*
G02*
X193150000Y-95100000I200000J0D01*
G01*
X194750000Y-95100000D01*
G75*
G02*
X194950000Y-95300000I0J-200000D01*
G01*
G37*
G36*
G01*
X205650000Y-93100000D02*
X205650000Y-95300000D01*
G75*
G02*
X205450000Y-95500000I-200000J0D01*
G01*
X203850000Y-95500000D01*
G75*
G02*
X203650000Y-95300000I0J200000D01*
G01*
X203650000Y-93100000D01*
G75*
G02*
X203850000Y-92900000I200000J0D01*
G01*
X205450000Y-92900000D01*
G75*
G02*
X205650000Y-93100000I0J-200000D01*
G01*
G37*
X191750000Y-94200000D03*
X196750000Y-96400000D03*
D12*
X196750000Y-90500000D03*
D13*
X191250000Y-90500000D03*
X202250000Y-90500000D03*
G36*
G01*
X181500000Y-81101000D02*
X181500000Y-82101000D01*
G75*
G02*
X181300000Y-82301000I-200000J0D01*
G01*
X179600000Y-82301000D01*
G75*
G02*
X179400000Y-82101000I0J200000D01*
G01*
X179400000Y-81101000D01*
G75*
G02*
X179600000Y-80901000I200000J0D01*
G01*
X181300000Y-80901000D01*
G75*
G02*
X181500000Y-81101000I0J-200000D01*
G01*
G37*
G36*
G01*
X176000000Y-81101000D02*
X176000000Y-82101000D01*
G75*
G02*
X175800000Y-82301000I-200000J0D01*
G01*
X174100000Y-82301000D01*
G75*
G02*
X173900000Y-82101000I0J200000D01*
G01*
X173900000Y-81101000D01*
G75*
G02*
X174100000Y-80901000I200000J0D01*
G01*
X175800000Y-80901000D01*
G75*
G02*
X176000000Y-81101000I0J-200000D01*
G01*
G37*
G36*
G01*
X181500000Y-79701000D02*
X181500000Y-80701000D01*
G75*
G02*
X181300000Y-80901000I-200000J0D01*
G01*
X179600000Y-80901000D01*
G75*
G02*
X179400000Y-80701000I0J200000D01*
G01*
X179400000Y-79701000D01*
G75*
G02*
X179600000Y-79501000I200000J0D01*
G01*
X181300000Y-79501000D01*
G75*
G02*
X181500000Y-79701000I0J-200000D01*
G01*
G37*
G36*
G01*
X176000000Y-79701000D02*
X176000000Y-80701000D01*
G75*
G02*
X175800000Y-80901000I-200000J0D01*
G01*
X174100000Y-80901000D01*
G75*
G02*
X173900000Y-80701000I0J200000D01*
G01*
X173900000Y-79701000D01*
G75*
G02*
X174100000Y-79501000I200000J0D01*
G01*
X175800000Y-79501000D01*
G75*
G02*
X176000000Y-79701000I0J-200000D01*
G01*
G37*
D10*
X182920000Y-81400000D03*
X172480000Y-81400000D03*
D11*
X182700000Y-89300000D03*
G36*
G01*
X175900000Y-90400000D02*
X175900000Y-92600000D01*
G75*
G02*
X175700000Y-92800000I-200000J0D01*
G01*
X174100000Y-92800000D01*
G75*
G02*
X173900000Y-92600000I0J200000D01*
G01*
X173900000Y-90400000D01*
G75*
G02*
X174100000Y-90200000I200000J0D01*
G01*
X175700000Y-90200000D01*
G75*
G02*
X175900000Y-90400000I0J-200000D01*
G01*
G37*
G36*
G01*
X186600000Y-88200000D02*
X186600000Y-90400000D01*
G75*
G02*
X186400000Y-90600000I-200000J0D01*
G01*
X184800000Y-90600000D01*
G75*
G02*
X184600000Y-90400000I0J200000D01*
G01*
X184600000Y-88200000D01*
G75*
G02*
X184800000Y-88000000I200000J0D01*
G01*
X186400000Y-88000000D01*
G75*
G02*
X186600000Y-88200000I0J-200000D01*
G01*
G37*
X172700000Y-89300000D03*
X177700000Y-91500000D03*
D12*
X177700000Y-85600000D03*
D13*
X172200000Y-85600000D03*
X183200000Y-85600000D03*
G36*
G01*
X162450000Y-78601000D02*
X162450000Y-79601000D01*
G75*
G02*
X162250000Y-79801000I-200000J0D01*
G01*
X160550000Y-79801000D01*
G75*
G02*
X160350000Y-79601000I0J200000D01*
G01*
X160350000Y-78601000D01*
G75*
G02*
X160550000Y-78401000I200000J0D01*
G01*
X162250000Y-78401000D01*
G75*
G02*
X162450000Y-78601000I0J-200000D01*
G01*
G37*
G36*
G01*
X156950000Y-78601000D02*
X156950000Y-79601000D01*
G75*
G02*
X156750000Y-79801000I-200000J0D01*
G01*
X155050000Y-79801000D01*
G75*
G02*
X154850000Y-79601000I0J200000D01*
G01*
X154850000Y-78601000D01*
G75*
G02*
X155050000Y-78401000I200000J0D01*
G01*
X156750000Y-78401000D01*
G75*
G02*
X156950000Y-78601000I0J-200000D01*
G01*
G37*
G36*
G01*
X162450000Y-77201000D02*
X162450000Y-78201000D01*
G75*
G02*
X162250000Y-78401000I-200000J0D01*
G01*
X160550000Y-78401000D01*
G75*
G02*
X160350000Y-78201000I0J200000D01*
G01*
X160350000Y-77201000D01*
G75*
G02*
X160550000Y-77001000I200000J0D01*
G01*
X162250000Y-77001000D01*
G75*
G02*
X162450000Y-77201000I0J-200000D01*
G01*
G37*
G36*
G01*
X156950000Y-77201000D02*
X156950000Y-78201000D01*
G75*
G02*
X156750000Y-78401000I-200000J0D01*
G01*
X155050000Y-78401000D01*
G75*
G02*
X154850000Y-78201000I0J200000D01*
G01*
X154850000Y-77201000D01*
G75*
G02*
X155050000Y-77001000I200000J0D01*
G01*
X156750000Y-77001000D01*
G75*
G02*
X156950000Y-77201000I0J-200000D01*
G01*
G37*
D10*
X163870000Y-78900000D03*
X153430000Y-78900000D03*
D11*
X163650000Y-86800000D03*
G36*
G01*
X156850000Y-87900000D02*
X156850000Y-90100000D01*
G75*
G02*
X156650000Y-90300000I-200000J0D01*
G01*
X155050000Y-90300000D01*
G75*
G02*
X154850000Y-90100000I0J200000D01*
G01*
X154850000Y-87900000D01*
G75*
G02*
X155050000Y-87700000I200000J0D01*
G01*
X156650000Y-87700000D01*
G75*
G02*
X156850000Y-87900000I0J-200000D01*
G01*
G37*
G36*
G01*
X167550000Y-85700000D02*
X167550000Y-87900000D01*
G75*
G02*
X167350000Y-88100000I-200000J0D01*
G01*
X165750000Y-88100000D01*
G75*
G02*
X165550000Y-87900000I0J200000D01*
G01*
X165550000Y-85700000D01*
G75*
G02*
X165750000Y-85500000I200000J0D01*
G01*
X167350000Y-85500000D01*
G75*
G02*
X167550000Y-85700000I0J-200000D01*
G01*
G37*
X153650000Y-86800000D03*
X158650000Y-89000000D03*
D12*
X158650000Y-83100000D03*
D13*
X153150000Y-83100000D03*
X164150000Y-83100000D03*
G36*
G01*
X143400000Y-81101000D02*
X143400000Y-82101000D01*
G75*
G02*
X143200000Y-82301000I-200000J0D01*
G01*
X141500000Y-82301000D01*
G75*
G02*
X141300000Y-82101000I0J200000D01*
G01*
X141300000Y-81101000D01*
G75*
G02*
X141500000Y-80901000I200000J0D01*
G01*
X143200000Y-80901000D01*
G75*
G02*
X143400000Y-81101000I0J-200000D01*
G01*
G37*
G36*
G01*
X137900000Y-81101000D02*
X137900000Y-82101000D01*
G75*
G02*
X137700000Y-82301000I-200000J0D01*
G01*
X136000000Y-82301000D01*
G75*
G02*
X135800000Y-82101000I0J200000D01*
G01*
X135800000Y-81101000D01*
G75*
G02*
X136000000Y-80901000I200000J0D01*
G01*
X137700000Y-80901000D01*
G75*
G02*
X137900000Y-81101000I0J-200000D01*
G01*
G37*
G36*
G01*
X143400000Y-79701000D02*
X143400000Y-80701000D01*
G75*
G02*
X143200000Y-80901000I-200000J0D01*
G01*
X141500000Y-80901000D01*
G75*
G02*
X141300000Y-80701000I0J200000D01*
G01*
X141300000Y-79701000D01*
G75*
G02*
X141500000Y-79501000I200000J0D01*
G01*
X143200000Y-79501000D01*
G75*
G02*
X143400000Y-79701000I0J-200000D01*
G01*
G37*
G36*
G01*
X137900000Y-79701000D02*
X137900000Y-80701000D01*
G75*
G02*
X137700000Y-80901000I-200000J0D01*
G01*
X136000000Y-80901000D01*
G75*
G02*
X135800000Y-80701000I0J200000D01*
G01*
X135800000Y-79701000D01*
G75*
G02*
X136000000Y-79501000I200000J0D01*
G01*
X137700000Y-79501000D01*
G75*
G02*
X137900000Y-79701000I0J-200000D01*
G01*
G37*
D10*
X144820000Y-81400000D03*
X134380000Y-81400000D03*
D11*
X144600000Y-89300000D03*
G36*
G01*
X137800000Y-90400000D02*
X137800000Y-92600000D01*
G75*
G02*
X137600000Y-92800000I-200000J0D01*
G01*
X136000000Y-92800000D01*
G75*
G02*
X135800000Y-92600000I0J200000D01*
G01*
X135800000Y-90400000D01*
G75*
G02*
X136000000Y-90200000I200000J0D01*
G01*
X137600000Y-90200000D01*
G75*
G02*
X137800000Y-90400000I0J-200000D01*
G01*
G37*
G36*
G01*
X148500000Y-88200000D02*
X148500000Y-90400000D01*
G75*
G02*
X148300000Y-90600000I-200000J0D01*
G01*
X146700000Y-90600000D01*
G75*
G02*
X146500000Y-90400000I0J200000D01*
G01*
X146500000Y-88200000D01*
G75*
G02*
X146700000Y-88000000I200000J0D01*
G01*
X148300000Y-88000000D01*
G75*
G02*
X148500000Y-88200000I0J-200000D01*
G01*
G37*
X134600000Y-89300000D03*
X139600000Y-91500000D03*
D12*
X139600000Y-85600000D03*
D13*
X134100000Y-85600000D03*
X145100000Y-85600000D03*
G36*
G01*
X124350000Y-83601000D02*
X124350000Y-84601000D01*
G75*
G02*
X124150000Y-84801000I-200000J0D01*
G01*
X122450000Y-84801000D01*
G75*
G02*
X122250000Y-84601000I0J200000D01*
G01*
X122250000Y-83601000D01*
G75*
G02*
X122450000Y-83401000I200000J0D01*
G01*
X124150000Y-83401000D01*
G75*
G02*
X124350000Y-83601000I0J-200000D01*
G01*
G37*
G36*
G01*
X118850000Y-83601000D02*
X118850000Y-84601000D01*
G75*
G02*
X118650000Y-84801000I-200000J0D01*
G01*
X116950000Y-84801000D01*
G75*
G02*
X116750000Y-84601000I0J200000D01*
G01*
X116750000Y-83601000D01*
G75*
G02*
X116950000Y-83401000I200000J0D01*
G01*
X118650000Y-83401000D01*
G75*
G02*
X118850000Y-83601000I0J-200000D01*
G01*
G37*
G36*
G01*
X124350000Y-82201000D02*
X124350000Y-83201000D01*
G75*
G02*
X124150000Y-83401000I-200000J0D01*
G01*
X122450000Y-83401000D01*
G75*
G02*
X122250000Y-83201000I0J200000D01*
G01*
X122250000Y-82201000D01*
G75*
G02*
X122450000Y-82001000I200000J0D01*
G01*
X124150000Y-82001000D01*
G75*
G02*
X124350000Y-82201000I0J-200000D01*
G01*
G37*
G36*
G01*
X118850000Y-82201000D02*
X118850000Y-83201000D01*
G75*
G02*
X118650000Y-83401000I-200000J0D01*
G01*
X116950000Y-83401000D01*
G75*
G02*
X116750000Y-83201000I0J200000D01*
G01*
X116750000Y-82201000D01*
G75*
G02*
X116950000Y-82001000I200000J0D01*
G01*
X118650000Y-82001000D01*
G75*
G02*
X118850000Y-82201000I0J-200000D01*
G01*
G37*
D10*
X125770000Y-83900000D03*
X115330000Y-83900000D03*
D11*
X125550000Y-91800000D03*
G36*
G01*
X118750000Y-92900000D02*
X118750000Y-95100000D01*
G75*
G02*
X118550000Y-95300000I-200000J0D01*
G01*
X116950000Y-95300000D01*
G75*
G02*
X116750000Y-95100000I0J200000D01*
G01*
X116750000Y-92900000D01*
G75*
G02*
X116950000Y-92700000I200000J0D01*
G01*
X118550000Y-92700000D01*
G75*
G02*
X118750000Y-92900000I0J-200000D01*
G01*
G37*
G36*
G01*
X129450000Y-90700000D02*
X129450000Y-92900000D01*
G75*
G02*
X129250000Y-93100000I-200000J0D01*
G01*
X127650000Y-93100000D01*
G75*
G02*
X127450000Y-92900000I0J200000D01*
G01*
X127450000Y-90700000D01*
G75*
G02*
X127650000Y-90500000I200000J0D01*
G01*
X129250000Y-90500000D01*
G75*
G02*
X129450000Y-90700000I0J-200000D01*
G01*
G37*
X115550000Y-91800000D03*
X120550000Y-94000000D03*
D12*
X120550000Y-88100000D03*
D13*
X115050000Y-88100000D03*
X126050000Y-88100000D03*
G36*
G01*
X219600000Y-66951000D02*
X219600000Y-67951000D01*
G75*
G02*
X219400000Y-68151000I-200000J0D01*
G01*
X217700000Y-68151000D01*
G75*
G02*
X217500000Y-67951000I0J200000D01*
G01*
X217500000Y-66951000D01*
G75*
G02*
X217700000Y-66751000I200000J0D01*
G01*
X219400000Y-66751000D01*
G75*
G02*
X219600000Y-66951000I0J-200000D01*
G01*
G37*
G36*
G01*
X214100000Y-66951000D02*
X214100000Y-67951000D01*
G75*
G02*
X213900000Y-68151000I-200000J0D01*
G01*
X212200000Y-68151000D01*
G75*
G02*
X212000000Y-67951000I0J200000D01*
G01*
X212000000Y-66951000D01*
G75*
G02*
X212200000Y-66751000I200000J0D01*
G01*
X213900000Y-66751000D01*
G75*
G02*
X214100000Y-66951000I0J-200000D01*
G01*
G37*
G36*
G01*
X219600000Y-65551000D02*
X219600000Y-66551000D01*
G75*
G02*
X219400000Y-66751000I-200000J0D01*
G01*
X217700000Y-66751000D01*
G75*
G02*
X217500000Y-66551000I0J200000D01*
G01*
X217500000Y-65551000D01*
G75*
G02*
X217700000Y-65351000I200000J0D01*
G01*
X219400000Y-65351000D01*
G75*
G02*
X219600000Y-65551000I0J-200000D01*
G01*
G37*
G36*
G01*
X214100000Y-65551000D02*
X214100000Y-66551000D01*
G75*
G02*
X213900000Y-66751000I-200000J0D01*
G01*
X212200000Y-66751000D01*
G75*
G02*
X212000000Y-66551000I0J200000D01*
G01*
X212000000Y-65551000D01*
G75*
G02*
X212200000Y-65351000I200000J0D01*
G01*
X213900000Y-65351000D01*
G75*
G02*
X214100000Y-65551000I0J-200000D01*
G01*
G37*
D10*
X221020000Y-67250000D03*
X210580000Y-67250000D03*
D11*
X220800000Y-75150000D03*
G36*
G01*
X214000000Y-76250000D02*
X214000000Y-78450000D01*
G75*
G02*
X213800000Y-78650000I-200000J0D01*
G01*
X212200000Y-78650000D01*
G75*
G02*
X212000000Y-78450000I0J200000D01*
G01*
X212000000Y-76250000D01*
G75*
G02*
X212200000Y-76050000I200000J0D01*
G01*
X213800000Y-76050000D01*
G75*
G02*
X214000000Y-76250000I0J-200000D01*
G01*
G37*
G36*
G01*
X224700000Y-74050000D02*
X224700000Y-76250000D01*
G75*
G02*
X224500000Y-76450000I-200000J0D01*
G01*
X222900000Y-76450000D01*
G75*
G02*
X222700000Y-76250000I0J200000D01*
G01*
X222700000Y-74050000D01*
G75*
G02*
X222900000Y-73850000I200000J0D01*
G01*
X224500000Y-73850000D01*
G75*
G02*
X224700000Y-74050000I0J-200000D01*
G01*
G37*
X210800000Y-75150000D03*
X215800000Y-77350000D03*
D12*
X215800000Y-71450000D03*
D13*
X210300000Y-71450000D03*
X221300000Y-71450000D03*
G36*
G01*
X200550000Y-66951000D02*
X200550000Y-67951000D01*
G75*
G02*
X200350000Y-68151000I-200000J0D01*
G01*
X198650000Y-68151000D01*
G75*
G02*
X198450000Y-67951000I0J200000D01*
G01*
X198450000Y-66951000D01*
G75*
G02*
X198650000Y-66751000I200000J0D01*
G01*
X200350000Y-66751000D01*
G75*
G02*
X200550000Y-66951000I0J-200000D01*
G01*
G37*
G36*
G01*
X195050000Y-66951000D02*
X195050000Y-67951000D01*
G75*
G02*
X194850000Y-68151000I-200000J0D01*
G01*
X193150000Y-68151000D01*
G75*
G02*
X192950000Y-67951000I0J200000D01*
G01*
X192950000Y-66951000D01*
G75*
G02*
X193150000Y-66751000I200000J0D01*
G01*
X194850000Y-66751000D01*
G75*
G02*
X195050000Y-66951000I0J-200000D01*
G01*
G37*
G36*
G01*
X200550000Y-65551000D02*
X200550000Y-66551000D01*
G75*
G02*
X200350000Y-66751000I-200000J0D01*
G01*
X198650000Y-66751000D01*
G75*
G02*
X198450000Y-66551000I0J200000D01*
G01*
X198450000Y-65551000D01*
G75*
G02*
X198650000Y-65351000I200000J0D01*
G01*
X200350000Y-65351000D01*
G75*
G02*
X200550000Y-65551000I0J-200000D01*
G01*
G37*
G36*
G01*
X195050000Y-65551000D02*
X195050000Y-66551000D01*
G75*
G02*
X194850000Y-66751000I-200000J0D01*
G01*
X193150000Y-66751000D01*
G75*
G02*
X192950000Y-66551000I0J200000D01*
G01*
X192950000Y-65551000D01*
G75*
G02*
X193150000Y-65351000I200000J0D01*
G01*
X194850000Y-65351000D01*
G75*
G02*
X195050000Y-65551000I0J-200000D01*
G01*
G37*
D10*
X201970000Y-67250000D03*
X191530000Y-67250000D03*
D11*
X201750000Y-75150000D03*
G36*
G01*
X194950000Y-76250000D02*
X194950000Y-78450000D01*
G75*
G02*
X194750000Y-78650000I-200000J0D01*
G01*
X193150000Y-78650000D01*
G75*
G02*
X192950000Y-78450000I0J200000D01*
G01*
X192950000Y-76250000D01*
G75*
G02*
X193150000Y-76050000I200000J0D01*
G01*
X194750000Y-76050000D01*
G75*
G02*
X194950000Y-76250000I0J-200000D01*
G01*
G37*
G36*
G01*
X205650000Y-74050000D02*
X205650000Y-76250000D01*
G75*
G02*
X205450000Y-76450000I-200000J0D01*
G01*
X203850000Y-76450000D01*
G75*
G02*
X203650000Y-76250000I0J200000D01*
G01*
X203650000Y-74050000D01*
G75*
G02*
X203850000Y-73850000I200000J0D01*
G01*
X205450000Y-73850000D01*
G75*
G02*
X205650000Y-74050000I0J-200000D01*
G01*
G37*
X191750000Y-75150000D03*
X196750000Y-77350000D03*
D12*
X196750000Y-71450000D03*
D13*
X191250000Y-71450000D03*
X202250000Y-71450000D03*
G36*
G01*
X181500000Y-62051000D02*
X181500000Y-63051000D01*
G75*
G02*
X181300000Y-63251000I-200000J0D01*
G01*
X179600000Y-63251000D01*
G75*
G02*
X179400000Y-63051000I0J200000D01*
G01*
X179400000Y-62051000D01*
G75*
G02*
X179600000Y-61851000I200000J0D01*
G01*
X181300000Y-61851000D01*
G75*
G02*
X181500000Y-62051000I0J-200000D01*
G01*
G37*
G36*
G01*
X176000000Y-62051000D02*
X176000000Y-63051000D01*
G75*
G02*
X175800000Y-63251000I-200000J0D01*
G01*
X174100000Y-63251000D01*
G75*
G02*
X173900000Y-63051000I0J200000D01*
G01*
X173900000Y-62051000D01*
G75*
G02*
X174100000Y-61851000I200000J0D01*
G01*
X175800000Y-61851000D01*
G75*
G02*
X176000000Y-62051000I0J-200000D01*
G01*
G37*
G36*
G01*
X181500000Y-60651000D02*
X181500000Y-61651000D01*
G75*
G02*
X181300000Y-61851000I-200000J0D01*
G01*
X179600000Y-61851000D01*
G75*
G02*
X179400000Y-61651000I0J200000D01*
G01*
X179400000Y-60651000D01*
G75*
G02*
X179600000Y-60451000I200000J0D01*
G01*
X181300000Y-60451000D01*
G75*
G02*
X181500000Y-60651000I0J-200000D01*
G01*
G37*
G36*
G01*
X176000000Y-60651000D02*
X176000000Y-61651000D01*
G75*
G02*
X175800000Y-61851000I-200000J0D01*
G01*
X174100000Y-61851000D01*
G75*
G02*
X173900000Y-61651000I0J200000D01*
G01*
X173900000Y-60651000D01*
G75*
G02*
X174100000Y-60451000I200000J0D01*
G01*
X175800000Y-60451000D01*
G75*
G02*
X176000000Y-60651000I0J-200000D01*
G01*
G37*
D10*
X182920000Y-62350000D03*
X172480000Y-62350000D03*
D11*
X182700000Y-70250000D03*
G36*
G01*
X175900000Y-71350000D02*
X175900000Y-73550000D01*
G75*
G02*
X175700000Y-73750000I-200000J0D01*
G01*
X174100000Y-73750000D01*
G75*
G02*
X173900000Y-73550000I0J200000D01*
G01*
X173900000Y-71350000D01*
G75*
G02*
X174100000Y-71150000I200000J0D01*
G01*
X175700000Y-71150000D01*
G75*
G02*
X175900000Y-71350000I0J-200000D01*
G01*
G37*
G36*
G01*
X186600000Y-69150000D02*
X186600000Y-71350000D01*
G75*
G02*
X186400000Y-71550000I-200000J0D01*
G01*
X184800000Y-71550000D01*
G75*
G02*
X184600000Y-71350000I0J200000D01*
G01*
X184600000Y-69150000D01*
G75*
G02*
X184800000Y-68950000I200000J0D01*
G01*
X186400000Y-68950000D01*
G75*
G02*
X186600000Y-69150000I0J-200000D01*
G01*
G37*
X172700000Y-70250000D03*
X177700000Y-72450000D03*
D12*
X177700000Y-66550000D03*
D13*
X172200000Y-66550000D03*
X183200000Y-66550000D03*
G36*
G01*
X162450000Y-59551000D02*
X162450000Y-60551000D01*
G75*
G02*
X162250000Y-60751000I-200000J0D01*
G01*
X160550000Y-60751000D01*
G75*
G02*
X160350000Y-60551000I0J200000D01*
G01*
X160350000Y-59551000D01*
G75*
G02*
X160550000Y-59351000I200000J0D01*
G01*
X162250000Y-59351000D01*
G75*
G02*
X162450000Y-59551000I0J-200000D01*
G01*
G37*
G36*
G01*
X156950000Y-59551000D02*
X156950000Y-60551000D01*
G75*
G02*
X156750000Y-60751000I-200000J0D01*
G01*
X155050000Y-60751000D01*
G75*
G02*
X154850000Y-60551000I0J200000D01*
G01*
X154850000Y-59551000D01*
G75*
G02*
X155050000Y-59351000I200000J0D01*
G01*
X156750000Y-59351000D01*
G75*
G02*
X156950000Y-59551000I0J-200000D01*
G01*
G37*
G36*
G01*
X162450000Y-58151000D02*
X162450000Y-59151000D01*
G75*
G02*
X162250000Y-59351000I-200000J0D01*
G01*
X160550000Y-59351000D01*
G75*
G02*
X160350000Y-59151000I0J200000D01*
G01*
X160350000Y-58151000D01*
G75*
G02*
X160550000Y-57951000I200000J0D01*
G01*
X162250000Y-57951000D01*
G75*
G02*
X162450000Y-58151000I0J-200000D01*
G01*
G37*
G36*
G01*
X156950000Y-58151000D02*
X156950000Y-59151000D01*
G75*
G02*
X156750000Y-59351000I-200000J0D01*
G01*
X155050000Y-59351000D01*
G75*
G02*
X154850000Y-59151000I0J200000D01*
G01*
X154850000Y-58151000D01*
G75*
G02*
X155050000Y-57951000I200000J0D01*
G01*
X156750000Y-57951000D01*
G75*
G02*
X156950000Y-58151000I0J-200000D01*
G01*
G37*
D10*
X163870000Y-59850000D03*
X153430000Y-59850000D03*
D11*
X163650000Y-67750000D03*
G36*
G01*
X156850000Y-68850000D02*
X156850000Y-71050000D01*
G75*
G02*
X156650000Y-71250000I-200000J0D01*
G01*
X155050000Y-71250000D01*
G75*
G02*
X154850000Y-71050000I0J200000D01*
G01*
X154850000Y-68850000D01*
G75*
G02*
X155050000Y-68650000I200000J0D01*
G01*
X156650000Y-68650000D01*
G75*
G02*
X156850000Y-68850000I0J-200000D01*
G01*
G37*
G36*
G01*
X167550000Y-66650000D02*
X167550000Y-68850000D01*
G75*
G02*
X167350000Y-69050000I-200000J0D01*
G01*
X165750000Y-69050000D01*
G75*
G02*
X165550000Y-68850000I0J200000D01*
G01*
X165550000Y-66650000D01*
G75*
G02*
X165750000Y-66450000I200000J0D01*
G01*
X167350000Y-66450000D01*
G75*
G02*
X167550000Y-66650000I0J-200000D01*
G01*
G37*
X153650000Y-67750000D03*
X158650000Y-69950000D03*
D12*
X158650000Y-64050000D03*
D13*
X153150000Y-64050000D03*
X164150000Y-64050000D03*
G36*
G01*
X143400000Y-62051000D02*
X143400000Y-63051000D01*
G75*
G02*
X143200000Y-63251000I-200000J0D01*
G01*
X141500000Y-63251000D01*
G75*
G02*
X141300000Y-63051000I0J200000D01*
G01*
X141300000Y-62051000D01*
G75*
G02*
X141500000Y-61851000I200000J0D01*
G01*
X143200000Y-61851000D01*
G75*
G02*
X143400000Y-62051000I0J-200000D01*
G01*
G37*
G36*
G01*
X137900000Y-62051000D02*
X137900000Y-63051000D01*
G75*
G02*
X137700000Y-63251000I-200000J0D01*
G01*
X136000000Y-63251000D01*
G75*
G02*
X135800000Y-63051000I0J200000D01*
G01*
X135800000Y-62051000D01*
G75*
G02*
X136000000Y-61851000I200000J0D01*
G01*
X137700000Y-61851000D01*
G75*
G02*
X137900000Y-62051000I0J-200000D01*
G01*
G37*
G36*
G01*
X143400000Y-60651000D02*
X143400000Y-61651000D01*
G75*
G02*
X143200000Y-61851000I-200000J0D01*
G01*
X141500000Y-61851000D01*
G75*
G02*
X141300000Y-61651000I0J200000D01*
G01*
X141300000Y-60651000D01*
G75*
G02*
X141500000Y-60451000I200000J0D01*
G01*
X143200000Y-60451000D01*
G75*
G02*
X143400000Y-60651000I0J-200000D01*
G01*
G37*
G36*
G01*
X137900000Y-60651000D02*
X137900000Y-61651000D01*
G75*
G02*
X137700000Y-61851000I-200000J0D01*
G01*
X136000000Y-61851000D01*
G75*
G02*
X135800000Y-61651000I0J200000D01*
G01*
X135800000Y-60651000D01*
G75*
G02*
X136000000Y-60451000I200000J0D01*
G01*
X137700000Y-60451000D01*
G75*
G02*
X137900000Y-60651000I0J-200000D01*
G01*
G37*
D10*
X144820000Y-62350000D03*
X134380000Y-62350000D03*
D11*
X144600000Y-70250000D03*
G36*
G01*
X137800000Y-71350000D02*
X137800000Y-73550000D01*
G75*
G02*
X137600000Y-73750000I-200000J0D01*
G01*
X136000000Y-73750000D01*
G75*
G02*
X135800000Y-73550000I0J200000D01*
G01*
X135800000Y-71350000D01*
G75*
G02*
X136000000Y-71150000I200000J0D01*
G01*
X137600000Y-71150000D01*
G75*
G02*
X137800000Y-71350000I0J-200000D01*
G01*
G37*
G36*
G01*
X148500000Y-69150000D02*
X148500000Y-71350000D01*
G75*
G02*
X148300000Y-71550000I-200000J0D01*
G01*
X146700000Y-71550000D01*
G75*
G02*
X146500000Y-71350000I0J200000D01*
G01*
X146500000Y-69150000D01*
G75*
G02*
X146700000Y-68950000I200000J0D01*
G01*
X148300000Y-68950000D01*
G75*
G02*
X148500000Y-69150000I0J-200000D01*
G01*
G37*
X134600000Y-70250000D03*
X139600000Y-72450000D03*
D12*
X139600000Y-66550000D03*
D13*
X134100000Y-66550000D03*
X145100000Y-66550000D03*
G36*
G01*
X124350000Y-64601000D02*
X124350000Y-65601000D01*
G75*
G02*
X124150000Y-65801000I-200000J0D01*
G01*
X122450000Y-65801000D01*
G75*
G02*
X122250000Y-65601000I0J200000D01*
G01*
X122250000Y-64601000D01*
G75*
G02*
X122450000Y-64401000I200000J0D01*
G01*
X124150000Y-64401000D01*
G75*
G02*
X124350000Y-64601000I0J-200000D01*
G01*
G37*
G36*
G01*
X118850000Y-64601000D02*
X118850000Y-65601000D01*
G75*
G02*
X118650000Y-65801000I-200000J0D01*
G01*
X116950000Y-65801000D01*
G75*
G02*
X116750000Y-65601000I0J200000D01*
G01*
X116750000Y-64601000D01*
G75*
G02*
X116950000Y-64401000I200000J0D01*
G01*
X118650000Y-64401000D01*
G75*
G02*
X118850000Y-64601000I0J-200000D01*
G01*
G37*
G36*
G01*
X124350000Y-63201000D02*
X124350000Y-64201000D01*
G75*
G02*
X124150000Y-64401000I-200000J0D01*
G01*
X122450000Y-64401000D01*
G75*
G02*
X122250000Y-64201000I0J200000D01*
G01*
X122250000Y-63201000D01*
G75*
G02*
X122450000Y-63001000I200000J0D01*
G01*
X124150000Y-63001000D01*
G75*
G02*
X124350000Y-63201000I0J-200000D01*
G01*
G37*
G36*
G01*
X118850000Y-63201000D02*
X118850000Y-64201000D01*
G75*
G02*
X118650000Y-64401000I-200000J0D01*
G01*
X116950000Y-64401000D01*
G75*
G02*
X116750000Y-64201000I0J200000D01*
G01*
X116750000Y-63201000D01*
G75*
G02*
X116950000Y-63001000I200000J0D01*
G01*
X118650000Y-63001000D01*
G75*
G02*
X118850000Y-63201000I0J-200000D01*
G01*
G37*
D10*
X125770000Y-64900000D03*
X115330000Y-64900000D03*
D11*
X125550000Y-72800000D03*
G36*
G01*
X118750000Y-73900000D02*
X118750000Y-76100000D01*
G75*
G02*
X118550000Y-76300000I-200000J0D01*
G01*
X116950000Y-76300000D01*
G75*
G02*
X116750000Y-76100000I0J200000D01*
G01*
X116750000Y-73900000D01*
G75*
G02*
X116950000Y-73700000I200000J0D01*
G01*
X118550000Y-73700000D01*
G75*
G02*
X118750000Y-73900000I0J-200000D01*
G01*
G37*
G36*
G01*
X129450000Y-71700000D02*
X129450000Y-73900000D01*
G75*
G02*
X129250000Y-74100000I-200000J0D01*
G01*
X127650000Y-74100000D01*
G75*
G02*
X127450000Y-73900000I0J200000D01*
G01*
X127450000Y-71700000D01*
G75*
G02*
X127650000Y-71500000I200000J0D01*
G01*
X129250000Y-71500000D01*
G75*
G02*
X129450000Y-71700000I0J-200000D01*
G01*
G37*
X115550000Y-72800000D03*
X120550000Y-75000000D03*
D12*
X120550000Y-69100000D03*
D13*
X115050000Y-69100000D03*
X126050000Y-69100000D03*
G36*
G01*
X219600000Y-47901000D02*
X219600000Y-48901000D01*
G75*
G02*
X219400000Y-49101000I-200000J0D01*
G01*
X217700000Y-49101000D01*
G75*
G02*
X217500000Y-48901000I0J200000D01*
G01*
X217500000Y-47901000D01*
G75*
G02*
X217700000Y-47701000I200000J0D01*
G01*
X219400000Y-47701000D01*
G75*
G02*
X219600000Y-47901000I0J-200000D01*
G01*
G37*
G36*
G01*
X214100000Y-47901000D02*
X214100000Y-48901000D01*
G75*
G02*
X213900000Y-49101000I-200000J0D01*
G01*
X212200000Y-49101000D01*
G75*
G02*
X212000000Y-48901000I0J200000D01*
G01*
X212000000Y-47901000D01*
G75*
G02*
X212200000Y-47701000I200000J0D01*
G01*
X213900000Y-47701000D01*
G75*
G02*
X214100000Y-47901000I0J-200000D01*
G01*
G37*
G36*
G01*
X219600000Y-46501000D02*
X219600000Y-47501000D01*
G75*
G02*
X219400000Y-47701000I-200000J0D01*
G01*
X217700000Y-47701000D01*
G75*
G02*
X217500000Y-47501000I0J200000D01*
G01*
X217500000Y-46501000D01*
G75*
G02*
X217700000Y-46301000I200000J0D01*
G01*
X219400000Y-46301000D01*
G75*
G02*
X219600000Y-46501000I0J-200000D01*
G01*
G37*
G36*
G01*
X214100000Y-46501000D02*
X214100000Y-47501000D01*
G75*
G02*
X213900000Y-47701000I-200000J0D01*
G01*
X212200000Y-47701000D01*
G75*
G02*
X212000000Y-47501000I0J200000D01*
G01*
X212000000Y-46501000D01*
G75*
G02*
X212200000Y-46301000I200000J0D01*
G01*
X213900000Y-46301000D01*
G75*
G02*
X214100000Y-46501000I0J-200000D01*
G01*
G37*
D10*
X221020000Y-48200000D03*
X210580000Y-48200000D03*
D11*
X220800000Y-56100000D03*
G36*
G01*
X214000000Y-57200000D02*
X214000000Y-59400000D01*
G75*
G02*
X213800000Y-59600000I-200000J0D01*
G01*
X212200000Y-59600000D01*
G75*
G02*
X212000000Y-59400000I0J200000D01*
G01*
X212000000Y-57200000D01*
G75*
G02*
X212200000Y-57000000I200000J0D01*
G01*
X213800000Y-57000000D01*
G75*
G02*
X214000000Y-57200000I0J-200000D01*
G01*
G37*
G36*
G01*
X224700000Y-55000000D02*
X224700000Y-57200000D01*
G75*
G02*
X224500000Y-57400000I-200000J0D01*
G01*
X222900000Y-57400000D01*
G75*
G02*
X222700000Y-57200000I0J200000D01*
G01*
X222700000Y-55000000D01*
G75*
G02*
X222900000Y-54800000I200000J0D01*
G01*
X224500000Y-54800000D01*
G75*
G02*
X224700000Y-55000000I0J-200000D01*
G01*
G37*
X210800000Y-56100000D03*
X215800000Y-58300000D03*
D12*
X215800000Y-52400000D03*
D13*
X210300000Y-52400000D03*
X221300000Y-52400000D03*
G36*
G01*
X200550000Y-47901000D02*
X200550000Y-48901000D01*
G75*
G02*
X200350000Y-49101000I-200000J0D01*
G01*
X198650000Y-49101000D01*
G75*
G02*
X198450000Y-48901000I0J200000D01*
G01*
X198450000Y-47901000D01*
G75*
G02*
X198650000Y-47701000I200000J0D01*
G01*
X200350000Y-47701000D01*
G75*
G02*
X200550000Y-47901000I0J-200000D01*
G01*
G37*
G36*
G01*
X195050000Y-47901000D02*
X195050000Y-48901000D01*
G75*
G02*
X194850000Y-49101000I-200000J0D01*
G01*
X193150000Y-49101000D01*
G75*
G02*
X192950000Y-48901000I0J200000D01*
G01*
X192950000Y-47901000D01*
G75*
G02*
X193150000Y-47701000I200000J0D01*
G01*
X194850000Y-47701000D01*
G75*
G02*
X195050000Y-47901000I0J-200000D01*
G01*
G37*
G36*
G01*
X200550000Y-46501000D02*
X200550000Y-47501000D01*
G75*
G02*
X200350000Y-47701000I-200000J0D01*
G01*
X198650000Y-47701000D01*
G75*
G02*
X198450000Y-47501000I0J200000D01*
G01*
X198450000Y-46501000D01*
G75*
G02*
X198650000Y-46301000I200000J0D01*
G01*
X200350000Y-46301000D01*
G75*
G02*
X200550000Y-46501000I0J-200000D01*
G01*
G37*
G36*
G01*
X195050000Y-46501000D02*
X195050000Y-47501000D01*
G75*
G02*
X194850000Y-47701000I-200000J0D01*
G01*
X193150000Y-47701000D01*
G75*
G02*
X192950000Y-47501000I0J200000D01*
G01*
X192950000Y-46501000D01*
G75*
G02*
X193150000Y-46301000I200000J0D01*
G01*
X194850000Y-46301000D01*
G75*
G02*
X195050000Y-46501000I0J-200000D01*
G01*
G37*
D10*
X201970000Y-48200000D03*
X191530000Y-48200000D03*
D11*
X201750000Y-56100000D03*
G36*
G01*
X194950000Y-57200000D02*
X194950000Y-59400000D01*
G75*
G02*
X194750000Y-59600000I-200000J0D01*
G01*
X193150000Y-59600000D01*
G75*
G02*
X192950000Y-59400000I0J200000D01*
G01*
X192950000Y-57200000D01*
G75*
G02*
X193150000Y-57000000I200000J0D01*
G01*
X194750000Y-57000000D01*
G75*
G02*
X194950000Y-57200000I0J-200000D01*
G01*
G37*
G36*
G01*
X205650000Y-55000000D02*
X205650000Y-57200000D01*
G75*
G02*
X205450000Y-57400000I-200000J0D01*
G01*
X203850000Y-57400000D01*
G75*
G02*
X203650000Y-57200000I0J200000D01*
G01*
X203650000Y-55000000D01*
G75*
G02*
X203850000Y-54800000I200000J0D01*
G01*
X205450000Y-54800000D01*
G75*
G02*
X205650000Y-55000000I0J-200000D01*
G01*
G37*
X191750000Y-56100000D03*
X196750000Y-58300000D03*
D12*
X196750000Y-52400000D03*
D13*
X191250000Y-52400000D03*
X202250000Y-52400000D03*
G36*
G01*
X181500000Y-43001000D02*
X181500000Y-44001000D01*
G75*
G02*
X181300000Y-44201000I-200000J0D01*
G01*
X179600000Y-44201000D01*
G75*
G02*
X179400000Y-44001000I0J200000D01*
G01*
X179400000Y-43001000D01*
G75*
G02*
X179600000Y-42801000I200000J0D01*
G01*
X181300000Y-42801000D01*
G75*
G02*
X181500000Y-43001000I0J-200000D01*
G01*
G37*
G36*
G01*
X176000000Y-43001000D02*
X176000000Y-44001000D01*
G75*
G02*
X175800000Y-44201000I-200000J0D01*
G01*
X174100000Y-44201000D01*
G75*
G02*
X173900000Y-44001000I0J200000D01*
G01*
X173900000Y-43001000D01*
G75*
G02*
X174100000Y-42801000I200000J0D01*
G01*
X175800000Y-42801000D01*
G75*
G02*
X176000000Y-43001000I0J-200000D01*
G01*
G37*
G36*
G01*
X181500000Y-41601000D02*
X181500000Y-42601000D01*
G75*
G02*
X181300000Y-42801000I-200000J0D01*
G01*
X179600000Y-42801000D01*
G75*
G02*
X179400000Y-42601000I0J200000D01*
G01*
X179400000Y-41601000D01*
G75*
G02*
X179600000Y-41401000I200000J0D01*
G01*
X181300000Y-41401000D01*
G75*
G02*
X181500000Y-41601000I0J-200000D01*
G01*
G37*
G36*
G01*
X176000000Y-41601000D02*
X176000000Y-42601000D01*
G75*
G02*
X175800000Y-42801000I-200000J0D01*
G01*
X174100000Y-42801000D01*
G75*
G02*
X173900000Y-42601000I0J200000D01*
G01*
X173900000Y-41601000D01*
G75*
G02*
X174100000Y-41401000I200000J0D01*
G01*
X175800000Y-41401000D01*
G75*
G02*
X176000000Y-41601000I0J-200000D01*
G01*
G37*
D10*
X182920000Y-43300000D03*
X172480000Y-43300000D03*
D11*
X182700000Y-51200000D03*
G36*
G01*
X175900000Y-52300000D02*
X175900000Y-54500000D01*
G75*
G02*
X175700000Y-54700000I-200000J0D01*
G01*
X174100000Y-54700000D01*
G75*
G02*
X173900000Y-54500000I0J200000D01*
G01*
X173900000Y-52300000D01*
G75*
G02*
X174100000Y-52100000I200000J0D01*
G01*
X175700000Y-52100000D01*
G75*
G02*
X175900000Y-52300000I0J-200000D01*
G01*
G37*
G36*
G01*
X186600000Y-50100000D02*
X186600000Y-52300000D01*
G75*
G02*
X186400000Y-52500000I-200000J0D01*
G01*
X184800000Y-52500000D01*
G75*
G02*
X184600000Y-52300000I0J200000D01*
G01*
X184600000Y-50100000D01*
G75*
G02*
X184800000Y-49900000I200000J0D01*
G01*
X186400000Y-49900000D01*
G75*
G02*
X186600000Y-50100000I0J-200000D01*
G01*
G37*
X172700000Y-51200000D03*
X177700000Y-53400000D03*
D12*
X177700000Y-47500000D03*
D13*
X172200000Y-47500000D03*
X183200000Y-47500000D03*
G36*
G01*
X162450000Y-40501000D02*
X162450000Y-41501000D01*
G75*
G02*
X162250000Y-41701000I-200000J0D01*
G01*
X160550000Y-41701000D01*
G75*
G02*
X160350000Y-41501000I0J200000D01*
G01*
X160350000Y-40501000D01*
G75*
G02*
X160550000Y-40301000I200000J0D01*
G01*
X162250000Y-40301000D01*
G75*
G02*
X162450000Y-40501000I0J-200000D01*
G01*
G37*
G36*
G01*
X156950000Y-40501000D02*
X156950000Y-41501000D01*
G75*
G02*
X156750000Y-41701000I-200000J0D01*
G01*
X155050000Y-41701000D01*
G75*
G02*
X154850000Y-41501000I0J200000D01*
G01*
X154850000Y-40501000D01*
G75*
G02*
X155050000Y-40301000I200000J0D01*
G01*
X156750000Y-40301000D01*
G75*
G02*
X156950000Y-40501000I0J-200000D01*
G01*
G37*
G36*
G01*
X162450000Y-39101000D02*
X162450000Y-40101000D01*
G75*
G02*
X162250000Y-40301000I-200000J0D01*
G01*
X160550000Y-40301000D01*
G75*
G02*
X160350000Y-40101000I0J200000D01*
G01*
X160350000Y-39101000D01*
G75*
G02*
X160550000Y-38901000I200000J0D01*
G01*
X162250000Y-38901000D01*
G75*
G02*
X162450000Y-39101000I0J-200000D01*
G01*
G37*
G36*
G01*
X156950000Y-39101000D02*
X156950000Y-40101000D01*
G75*
G02*
X156750000Y-40301000I-200000J0D01*
G01*
X155050000Y-40301000D01*
G75*
G02*
X154850000Y-40101000I0J200000D01*
G01*
X154850000Y-39101000D01*
G75*
G02*
X155050000Y-38901000I200000J0D01*
G01*
X156750000Y-38901000D01*
G75*
G02*
X156950000Y-39101000I0J-200000D01*
G01*
G37*
D10*
X163870000Y-40800000D03*
X153430000Y-40800000D03*
D11*
X163650000Y-48700000D03*
G36*
G01*
X156850000Y-49800000D02*
X156850000Y-52000000D01*
G75*
G02*
X156650000Y-52200000I-200000J0D01*
G01*
X155050000Y-52200000D01*
G75*
G02*
X154850000Y-52000000I0J200000D01*
G01*
X154850000Y-49800000D01*
G75*
G02*
X155050000Y-49600000I200000J0D01*
G01*
X156650000Y-49600000D01*
G75*
G02*
X156850000Y-49800000I0J-200000D01*
G01*
G37*
G36*
G01*
X167550000Y-47600000D02*
X167550000Y-49800000D01*
G75*
G02*
X167350000Y-50000000I-200000J0D01*
G01*
X165750000Y-50000000D01*
G75*
G02*
X165550000Y-49800000I0J200000D01*
G01*
X165550000Y-47600000D01*
G75*
G02*
X165750000Y-47400000I200000J0D01*
G01*
X167350000Y-47400000D01*
G75*
G02*
X167550000Y-47600000I0J-200000D01*
G01*
G37*
X153650000Y-48700000D03*
X158650000Y-50900000D03*
D12*
X158650000Y-45000000D03*
D13*
X153150000Y-45000000D03*
X164150000Y-45000000D03*
G36*
G01*
X143400000Y-43001000D02*
X143400000Y-44001000D01*
G75*
G02*
X143200000Y-44201000I-200000J0D01*
G01*
X141500000Y-44201000D01*
G75*
G02*
X141300000Y-44001000I0J200000D01*
G01*
X141300000Y-43001000D01*
G75*
G02*
X141500000Y-42801000I200000J0D01*
G01*
X143200000Y-42801000D01*
G75*
G02*
X143400000Y-43001000I0J-200000D01*
G01*
G37*
G36*
G01*
X137900000Y-43001000D02*
X137900000Y-44001000D01*
G75*
G02*
X137700000Y-44201000I-200000J0D01*
G01*
X136000000Y-44201000D01*
G75*
G02*
X135800000Y-44001000I0J200000D01*
G01*
X135800000Y-43001000D01*
G75*
G02*
X136000000Y-42801000I200000J0D01*
G01*
X137700000Y-42801000D01*
G75*
G02*
X137900000Y-43001000I0J-200000D01*
G01*
G37*
G36*
G01*
X143400000Y-41601000D02*
X143400000Y-42601000D01*
G75*
G02*
X143200000Y-42801000I-200000J0D01*
G01*
X141500000Y-42801000D01*
G75*
G02*
X141300000Y-42601000I0J200000D01*
G01*
X141300000Y-41601000D01*
G75*
G02*
X141500000Y-41401000I200000J0D01*
G01*
X143200000Y-41401000D01*
G75*
G02*
X143400000Y-41601000I0J-200000D01*
G01*
G37*
G36*
G01*
X137900000Y-41601000D02*
X137900000Y-42601000D01*
G75*
G02*
X137700000Y-42801000I-200000J0D01*
G01*
X136000000Y-42801000D01*
G75*
G02*
X135800000Y-42601000I0J200000D01*
G01*
X135800000Y-41601000D01*
G75*
G02*
X136000000Y-41401000I200000J0D01*
G01*
X137700000Y-41401000D01*
G75*
G02*
X137900000Y-41601000I0J-200000D01*
G01*
G37*
D10*
X144820000Y-43300000D03*
X134380000Y-43300000D03*
D11*
X144600000Y-51200000D03*
G36*
G01*
X137800000Y-52300000D02*
X137800000Y-54500000D01*
G75*
G02*
X137600000Y-54700000I-200000J0D01*
G01*
X136000000Y-54700000D01*
G75*
G02*
X135800000Y-54500000I0J200000D01*
G01*
X135800000Y-52300000D01*
G75*
G02*
X136000000Y-52100000I200000J0D01*
G01*
X137600000Y-52100000D01*
G75*
G02*
X137800000Y-52300000I0J-200000D01*
G01*
G37*
G36*
G01*
X148500000Y-50100000D02*
X148500000Y-52300000D01*
G75*
G02*
X148300000Y-52500000I-200000J0D01*
G01*
X146700000Y-52500000D01*
G75*
G02*
X146500000Y-52300000I0J200000D01*
G01*
X146500000Y-50100000D01*
G75*
G02*
X146700000Y-49900000I200000J0D01*
G01*
X148300000Y-49900000D01*
G75*
G02*
X148500000Y-50100000I0J-200000D01*
G01*
G37*
X134600000Y-51200000D03*
X139600000Y-53400000D03*
D12*
X139600000Y-47500000D03*
D13*
X134100000Y-47500000D03*
X145100000Y-47500000D03*
G36*
G01*
X124350000Y-45501000D02*
X124350000Y-46501000D01*
G75*
G02*
X124150000Y-46701000I-200000J0D01*
G01*
X122450000Y-46701000D01*
G75*
G02*
X122250000Y-46501000I0J200000D01*
G01*
X122250000Y-45501000D01*
G75*
G02*
X122450000Y-45301000I200000J0D01*
G01*
X124150000Y-45301000D01*
G75*
G02*
X124350000Y-45501000I0J-200000D01*
G01*
G37*
G36*
G01*
X118850000Y-45501000D02*
X118850000Y-46501000D01*
G75*
G02*
X118650000Y-46701000I-200000J0D01*
G01*
X116950000Y-46701000D01*
G75*
G02*
X116750000Y-46501000I0J200000D01*
G01*
X116750000Y-45501000D01*
G75*
G02*
X116950000Y-45301000I200000J0D01*
G01*
X118650000Y-45301000D01*
G75*
G02*
X118850000Y-45501000I0J-200000D01*
G01*
G37*
G36*
G01*
X124350000Y-44101000D02*
X124350000Y-45101000D01*
G75*
G02*
X124150000Y-45301000I-200000J0D01*
G01*
X122450000Y-45301000D01*
G75*
G02*
X122250000Y-45101000I0J200000D01*
G01*
X122250000Y-44101000D01*
G75*
G02*
X122450000Y-43901000I200000J0D01*
G01*
X124150000Y-43901000D01*
G75*
G02*
X124350000Y-44101000I0J-200000D01*
G01*
G37*
G36*
G01*
X118850000Y-44101000D02*
X118850000Y-45101000D01*
G75*
G02*
X118650000Y-45301000I-200000J0D01*
G01*
X116950000Y-45301000D01*
G75*
G02*
X116750000Y-45101000I0J200000D01*
G01*
X116750000Y-44101000D01*
G75*
G02*
X116950000Y-43901000I200000J0D01*
G01*
X118650000Y-43901000D01*
G75*
G02*
X118850000Y-44101000I0J-200000D01*
G01*
G37*
D10*
X125770000Y-45800000D03*
X115330000Y-45800000D03*
D11*
X125550000Y-53700000D03*
G36*
G01*
X118750000Y-54800000D02*
X118750000Y-57000000D01*
G75*
G02*
X118550000Y-57200000I-200000J0D01*
G01*
X116950000Y-57200000D01*
G75*
G02*
X116750000Y-57000000I0J200000D01*
G01*
X116750000Y-54800000D01*
G75*
G02*
X116950000Y-54600000I200000J0D01*
G01*
X118550000Y-54600000D01*
G75*
G02*
X118750000Y-54800000I0J-200000D01*
G01*
G37*
G36*
G01*
X129450000Y-52600000D02*
X129450000Y-54800000D01*
G75*
G02*
X129250000Y-55000000I-200000J0D01*
G01*
X127650000Y-55000000D01*
G75*
G02*
X127450000Y-54800000I0J200000D01*
G01*
X127450000Y-52600000D01*
G75*
G02*
X127650000Y-52400000I200000J0D01*
G01*
X129250000Y-52400000D01*
G75*
G02*
X129450000Y-52600000I0J-200000D01*
G01*
G37*
X115550000Y-53700000D03*
X120550000Y-55900000D03*
D12*
X120550000Y-50000000D03*
D13*
X115050000Y-50000000D03*
X126050000Y-50000000D03*
G36*
G01*
X168870000Y-119905000D02*
X169820000Y-119905000D01*
G75*
G02*
X170020000Y-120105000I0J-200000D01*
G01*
X170020000Y-121405000D01*
G75*
G02*
X169820000Y-121605000I-200000J0D01*
G01*
X168870000Y-121605000D01*
G75*
G02*
X168670000Y-121405000I0J200000D01*
G01*
X168670000Y-120105000D01*
G75*
G02*
X168870000Y-119905000I200000J0D01*
G01*
G37*
G36*
G01*
X168870000Y-123455000D02*
X169820000Y-123455000D01*
G75*
G02*
X170020000Y-123655000I0J-200000D01*
G01*
X170020000Y-124955000D01*
G75*
G02*
X169820000Y-125155000I-200000J0D01*
G01*
X168870000Y-125155000D01*
G75*
G02*
X168670000Y-124955000I0J200000D01*
G01*
X168670000Y-123655000D01*
G75*
G02*
X168870000Y-123455000I200000J0D01*
G01*
G37*
G36*
G01*
X149870000Y-120945000D02*
X150820000Y-120945000D01*
G75*
G02*
X151020000Y-121145000I0J-200000D01*
G01*
X151020000Y-122445000D01*
G75*
G02*
X150820000Y-122645000I-200000J0D01*
G01*
X149870000Y-122645000D01*
G75*
G02*
X149670000Y-122445000I0J200000D01*
G01*
X149670000Y-121145000D01*
G75*
G02*
X149870000Y-120945000I200000J0D01*
G01*
G37*
G36*
G01*
X149870000Y-117395000D02*
X150820000Y-117395000D01*
G75*
G02*
X151020000Y-117595000I0J-200000D01*
G01*
X151020000Y-118895000D01*
G75*
G02*
X150820000Y-119095000I-200000J0D01*
G01*
X149870000Y-119095000D01*
G75*
G02*
X149670000Y-118895000I0J200000D01*
G01*
X149670000Y-117595000D01*
G75*
G02*
X149870000Y-117395000I200000J0D01*
G01*
G37*
G36*
G01*
X130770000Y-119805000D02*
X131720000Y-119805000D01*
G75*
G02*
X131920000Y-120005000I0J-200000D01*
G01*
X131920000Y-121305000D01*
G75*
G02*
X131720000Y-121505000I-200000J0D01*
G01*
X130770000Y-121505000D01*
G75*
G02*
X130570000Y-121305000I0J200000D01*
G01*
X130570000Y-120005000D01*
G75*
G02*
X130770000Y-119805000I200000J0D01*
G01*
G37*
G36*
G01*
X130770000Y-123355000D02*
X131720000Y-123355000D01*
G75*
G02*
X131920000Y-123555000I0J-200000D01*
G01*
X131920000Y-124855000D01*
G75*
G02*
X131720000Y-125055000I-200000J0D01*
G01*
X130770000Y-125055000D01*
G75*
G02*
X130570000Y-124855000I0J200000D01*
G01*
X130570000Y-123555000D01*
G75*
G02*
X130770000Y-123355000I200000J0D01*
G01*
G37*
G36*
G01*
X108235785Y-126748384D02*
X109153414Y-126502506D01*
G75*
G02*
X109398363Y-126643927I51764J-193185D01*
G01*
X109734828Y-127899631D01*
G75*
G02*
X109593407Y-128144580I-193185J-51764D01*
G01*
X108675778Y-128390458D01*
G75*
G02*
X108430829Y-128249037I-51764J193185D01*
G01*
X108094364Y-126993333D01*
G75*
G02*
X108235785Y-126748384I193185J51764D01*
G01*
G37*
G36*
G01*
X109154593Y-130177420D02*
X110072222Y-129931542D01*
G75*
G02*
X110317171Y-130072963I51764J-193185D01*
G01*
X110653636Y-131328667D01*
G75*
G02*
X110512215Y-131573616I-193185J-51764D01*
G01*
X109594586Y-131819494D01*
G75*
G02*
X109349637Y-131678073I-51764J193185D01*
G01*
X109013172Y-130422369D01*
G75*
G02*
X109154593Y-130177420I193185J51764D01*
G01*
G37*
G36*
G01*
X96042817Y-123627138D02*
X96517817Y-124449862D01*
G75*
G02*
X96444612Y-124723067I-173205J-100000D01*
G01*
X95318778Y-125373067D01*
G75*
G02*
X95045573Y-125299862I-100000J173205D01*
G01*
X94570573Y-124477138D01*
G75*
G02*
X94643778Y-124203933I173205J100000D01*
G01*
X95769612Y-123553933D01*
G75*
G02*
X96042817Y-123627138I100000J-173205D01*
G01*
G37*
G36*
G01*
X92968427Y-125402138D02*
X93443427Y-126224862D01*
G75*
G02*
X93370222Y-126498067I-173205J-100000D01*
G01*
X92244388Y-127148067D01*
G75*
G02*
X91971183Y-127074862I-100000J173205D01*
G01*
X91496183Y-126252138D01*
G75*
G02*
X91569388Y-125978933I173205J100000D01*
G01*
X92695222Y-125328933D01*
G75*
G02*
X92968427Y-125402138I100000J-173205D01*
G01*
G37*
G36*
G01*
X104375000Y-97475000D02*
X104375000Y-96525000D01*
G75*
G02*
X104575000Y-96325000I200000J0D01*
G01*
X105875000Y-96325000D01*
G75*
G02*
X106075000Y-96525000I0J-200000D01*
G01*
X106075000Y-97475000D01*
G75*
G02*
X105875000Y-97675000I-200000J0D01*
G01*
X104575000Y-97675000D01*
G75*
G02*
X104375000Y-97475000I0J200000D01*
G01*
G37*
G36*
G01*
X107925000Y-97475000D02*
X107925000Y-96525000D01*
G75*
G02*
X108125000Y-96325000I200000J0D01*
G01*
X109425000Y-96325000D01*
G75*
G02*
X109625000Y-96525000I0J-200000D01*
G01*
X109625000Y-97475000D01*
G75*
G02*
X109425000Y-97675000I-200000J0D01*
G01*
X108125000Y-97675000D01*
G75*
G02*
X107925000Y-97475000I0J200000D01*
G01*
G37*
G36*
G01*
X207020000Y-105605000D02*
X207970000Y-105605000D01*
G75*
G02*
X208170000Y-105805000I0J-200000D01*
G01*
X208170000Y-107105000D01*
G75*
G02*
X207970000Y-107305000I-200000J0D01*
G01*
X207020000Y-107305000D01*
G75*
G02*
X206820000Y-107105000I0J200000D01*
G01*
X206820000Y-105805000D01*
G75*
G02*
X207020000Y-105605000I200000J0D01*
G01*
G37*
G36*
G01*
X207020000Y-109155000D02*
X207970000Y-109155000D01*
G75*
G02*
X208170000Y-109355000I0J-200000D01*
G01*
X208170000Y-110655000D01*
G75*
G02*
X207970000Y-110855000I-200000J0D01*
G01*
X207020000Y-110855000D01*
G75*
G02*
X206820000Y-110655000I0J200000D01*
G01*
X206820000Y-109355000D01*
G75*
G02*
X207020000Y-109155000I200000J0D01*
G01*
G37*
G36*
G01*
X187970000Y-105605000D02*
X188920000Y-105605000D01*
G75*
G02*
X189120000Y-105805000I0J-200000D01*
G01*
X189120000Y-107105000D01*
G75*
G02*
X188920000Y-107305000I-200000J0D01*
G01*
X187970000Y-107305000D01*
G75*
G02*
X187770000Y-107105000I0J200000D01*
G01*
X187770000Y-105805000D01*
G75*
G02*
X187970000Y-105605000I200000J0D01*
G01*
G37*
G36*
G01*
X187970000Y-109155000D02*
X188920000Y-109155000D01*
G75*
G02*
X189120000Y-109355000I0J-200000D01*
G01*
X189120000Y-110655000D01*
G75*
G02*
X188920000Y-110855000I-200000J0D01*
G01*
X187970000Y-110855000D01*
G75*
G02*
X187770000Y-110655000I0J200000D01*
G01*
X187770000Y-109355000D01*
G75*
G02*
X187970000Y-109155000I200000J0D01*
G01*
G37*
G36*
G01*
X168870000Y-100805000D02*
X169820000Y-100805000D01*
G75*
G02*
X170020000Y-101005000I0J-200000D01*
G01*
X170020000Y-102305000D01*
G75*
G02*
X169820000Y-102505000I-200000J0D01*
G01*
X168870000Y-102505000D01*
G75*
G02*
X168670000Y-102305000I0J200000D01*
G01*
X168670000Y-101005000D01*
G75*
G02*
X168870000Y-100805000I200000J0D01*
G01*
G37*
G36*
G01*
X168870000Y-104355000D02*
X169820000Y-104355000D01*
G75*
G02*
X170020000Y-104555000I0J-200000D01*
G01*
X170020000Y-105855000D01*
G75*
G02*
X169820000Y-106055000I-200000J0D01*
G01*
X168870000Y-106055000D01*
G75*
G02*
X168670000Y-105855000I0J200000D01*
G01*
X168670000Y-104555000D01*
G75*
G02*
X168870000Y-104355000I200000J0D01*
G01*
G37*
G36*
G01*
X149870000Y-98295000D02*
X150820000Y-98295000D01*
G75*
G02*
X151020000Y-98495000I0J-200000D01*
G01*
X151020000Y-99795000D01*
G75*
G02*
X150820000Y-99995000I-200000J0D01*
G01*
X149870000Y-99995000D01*
G75*
G02*
X149670000Y-99795000I0J200000D01*
G01*
X149670000Y-98495000D01*
G75*
G02*
X149870000Y-98295000I200000J0D01*
G01*
G37*
G36*
G01*
X149870000Y-101845000D02*
X150820000Y-101845000D01*
G75*
G02*
X151020000Y-102045000I0J-200000D01*
G01*
X151020000Y-103345000D01*
G75*
G02*
X150820000Y-103545000I-200000J0D01*
G01*
X149870000Y-103545000D01*
G75*
G02*
X149670000Y-103345000I0J200000D01*
G01*
X149670000Y-102045000D01*
G75*
G02*
X149870000Y-101845000I200000J0D01*
G01*
G37*
G36*
G01*
X130770000Y-100805000D02*
X131720000Y-100805000D01*
G75*
G02*
X131920000Y-101005000I0J-200000D01*
G01*
X131920000Y-102305000D01*
G75*
G02*
X131720000Y-102505000I-200000J0D01*
G01*
X130770000Y-102505000D01*
G75*
G02*
X130570000Y-102305000I0J200000D01*
G01*
X130570000Y-101005000D01*
G75*
G02*
X130770000Y-100805000I200000J0D01*
G01*
G37*
G36*
G01*
X130770000Y-104355000D02*
X131720000Y-104355000D01*
G75*
G02*
X131920000Y-104555000I0J-200000D01*
G01*
X131920000Y-105855000D01*
G75*
G02*
X131720000Y-106055000I-200000J0D01*
G01*
X130770000Y-106055000D01*
G75*
G02*
X130570000Y-105855000I0J200000D01*
G01*
X130570000Y-104555000D01*
G75*
G02*
X130770000Y-104355000I200000J0D01*
G01*
G37*
G36*
G01*
X128230000Y-104355000D02*
X129180000Y-104355000D01*
G75*
G02*
X129380000Y-104555000I0J-200000D01*
G01*
X129380000Y-105855000D01*
G75*
G02*
X129180000Y-106055000I-200000J0D01*
G01*
X128230000Y-106055000D01*
G75*
G02*
X128030000Y-105855000I0J200000D01*
G01*
X128030000Y-104555000D01*
G75*
G02*
X128230000Y-104355000I200000J0D01*
G01*
G37*
G36*
G01*
X128230000Y-100805000D02*
X129180000Y-100805000D01*
G75*
G02*
X129380000Y-101005000I0J-200000D01*
G01*
X129380000Y-102305000D01*
G75*
G02*
X129180000Y-102505000I-200000J0D01*
G01*
X128230000Y-102505000D01*
G75*
G02*
X128030000Y-102305000I0J200000D01*
G01*
X128030000Y-101005000D01*
G75*
G02*
X128230000Y-100805000I200000J0D01*
G01*
G37*
G36*
G01*
X206970000Y-86605000D02*
X207920000Y-86605000D01*
G75*
G02*
X208120000Y-86805000I0J-200000D01*
G01*
X208120000Y-88105000D01*
G75*
G02*
X207920000Y-88305000I-200000J0D01*
G01*
X206970000Y-88305000D01*
G75*
G02*
X206770000Y-88105000I0J200000D01*
G01*
X206770000Y-86805000D01*
G75*
G02*
X206970000Y-86605000I200000J0D01*
G01*
G37*
G36*
G01*
X206970000Y-90155000D02*
X207920000Y-90155000D01*
G75*
G02*
X208120000Y-90355000I0J-200000D01*
G01*
X208120000Y-91655000D01*
G75*
G02*
X207920000Y-91855000I-200000J0D01*
G01*
X206970000Y-91855000D01*
G75*
G02*
X206770000Y-91655000I0J200000D01*
G01*
X206770000Y-90355000D01*
G75*
G02*
X206970000Y-90155000I200000J0D01*
G01*
G37*
G36*
G01*
X187970000Y-86605000D02*
X188920000Y-86605000D01*
G75*
G02*
X189120000Y-86805000I0J-200000D01*
G01*
X189120000Y-88105000D01*
G75*
G02*
X188920000Y-88305000I-200000J0D01*
G01*
X187970000Y-88305000D01*
G75*
G02*
X187770000Y-88105000I0J200000D01*
G01*
X187770000Y-86805000D01*
G75*
G02*
X187970000Y-86605000I200000J0D01*
G01*
G37*
G36*
G01*
X187970000Y-90155000D02*
X188920000Y-90155000D01*
G75*
G02*
X189120000Y-90355000I0J-200000D01*
G01*
X189120000Y-91655000D01*
G75*
G02*
X188920000Y-91855000I-200000J0D01*
G01*
X187970000Y-91855000D01*
G75*
G02*
X187770000Y-91655000I0J200000D01*
G01*
X187770000Y-90355000D01*
G75*
G02*
X187970000Y-90155000I200000J0D01*
G01*
G37*
G36*
G01*
X168870000Y-81705000D02*
X169820000Y-81705000D01*
G75*
G02*
X170020000Y-81905000I0J-200000D01*
G01*
X170020000Y-83205000D01*
G75*
G02*
X169820000Y-83405000I-200000J0D01*
G01*
X168870000Y-83405000D01*
G75*
G02*
X168670000Y-83205000I0J200000D01*
G01*
X168670000Y-81905000D01*
G75*
G02*
X168870000Y-81705000I200000J0D01*
G01*
G37*
G36*
G01*
X168870000Y-85255000D02*
X169820000Y-85255000D01*
G75*
G02*
X170020000Y-85455000I0J-200000D01*
G01*
X170020000Y-86755000D01*
G75*
G02*
X169820000Y-86955000I-200000J0D01*
G01*
X168870000Y-86955000D01*
G75*
G02*
X168670000Y-86755000I0J200000D01*
G01*
X168670000Y-85455000D01*
G75*
G02*
X168870000Y-85255000I200000J0D01*
G01*
G37*
G36*
G01*
X149870000Y-79295000D02*
X150820000Y-79295000D01*
G75*
G02*
X151020000Y-79495000I0J-200000D01*
G01*
X151020000Y-80795000D01*
G75*
G02*
X150820000Y-80995000I-200000J0D01*
G01*
X149870000Y-80995000D01*
G75*
G02*
X149670000Y-80795000I0J200000D01*
G01*
X149670000Y-79495000D01*
G75*
G02*
X149870000Y-79295000I200000J0D01*
G01*
G37*
G36*
G01*
X149870000Y-82845000D02*
X150820000Y-82845000D01*
G75*
G02*
X151020000Y-83045000I0J-200000D01*
G01*
X151020000Y-84345000D01*
G75*
G02*
X150820000Y-84545000I-200000J0D01*
G01*
X149870000Y-84545000D01*
G75*
G02*
X149670000Y-84345000I0J200000D01*
G01*
X149670000Y-83045000D01*
G75*
G02*
X149870000Y-82845000I200000J0D01*
G01*
G37*
G36*
G01*
X130770000Y-81705000D02*
X131720000Y-81705000D01*
G75*
G02*
X131920000Y-81905000I0J-200000D01*
G01*
X131920000Y-83205000D01*
G75*
G02*
X131720000Y-83405000I-200000J0D01*
G01*
X130770000Y-83405000D01*
G75*
G02*
X130570000Y-83205000I0J200000D01*
G01*
X130570000Y-81905000D01*
G75*
G02*
X130770000Y-81705000I200000J0D01*
G01*
G37*
G36*
G01*
X130770000Y-85255000D02*
X131720000Y-85255000D01*
G75*
G02*
X131920000Y-85455000I0J-200000D01*
G01*
X131920000Y-86755000D01*
G75*
G02*
X131720000Y-86955000I-200000J0D01*
G01*
X130770000Y-86955000D01*
G75*
G02*
X130570000Y-86755000I0J200000D01*
G01*
X130570000Y-85455000D01*
G75*
G02*
X130770000Y-85255000I200000J0D01*
G01*
G37*
G36*
G01*
X128230000Y-85255000D02*
X129180000Y-85255000D01*
G75*
G02*
X129380000Y-85455000I0J-200000D01*
G01*
X129380000Y-86755000D01*
G75*
G02*
X129180000Y-86955000I-200000J0D01*
G01*
X128230000Y-86955000D01*
G75*
G02*
X128030000Y-86755000I0J200000D01*
G01*
X128030000Y-85455000D01*
G75*
G02*
X128230000Y-85255000I200000J0D01*
G01*
G37*
G36*
G01*
X128230000Y-81705000D02*
X129180000Y-81705000D01*
G75*
G02*
X129380000Y-81905000I0J-200000D01*
G01*
X129380000Y-83205000D01*
G75*
G02*
X129180000Y-83405000I-200000J0D01*
G01*
X128230000Y-83405000D01*
G75*
G02*
X128030000Y-83205000I0J200000D01*
G01*
X128030000Y-81905000D01*
G75*
G02*
X128230000Y-81705000I200000J0D01*
G01*
G37*
G36*
G01*
X206970000Y-67405000D02*
X207920000Y-67405000D01*
G75*
G02*
X208120000Y-67605000I0J-200000D01*
G01*
X208120000Y-68905000D01*
G75*
G02*
X207920000Y-69105000I-200000J0D01*
G01*
X206970000Y-69105000D01*
G75*
G02*
X206770000Y-68905000I0J200000D01*
G01*
X206770000Y-67605000D01*
G75*
G02*
X206970000Y-67405000I200000J0D01*
G01*
G37*
G36*
G01*
X206970000Y-70955000D02*
X207920000Y-70955000D01*
G75*
G02*
X208120000Y-71155000I0J-200000D01*
G01*
X208120000Y-72455000D01*
G75*
G02*
X207920000Y-72655000I-200000J0D01*
G01*
X206970000Y-72655000D01*
G75*
G02*
X206770000Y-72455000I0J200000D01*
G01*
X206770000Y-71155000D01*
G75*
G02*
X206970000Y-70955000I200000J0D01*
G01*
G37*
G36*
G01*
X187970000Y-67405000D02*
X188920000Y-67405000D01*
G75*
G02*
X189120000Y-67605000I0J-200000D01*
G01*
X189120000Y-68905000D01*
G75*
G02*
X188920000Y-69105000I-200000J0D01*
G01*
X187970000Y-69105000D01*
G75*
G02*
X187770000Y-68905000I0J200000D01*
G01*
X187770000Y-67605000D01*
G75*
G02*
X187970000Y-67405000I200000J0D01*
G01*
G37*
G36*
G01*
X187970000Y-70955000D02*
X188920000Y-70955000D01*
G75*
G02*
X189120000Y-71155000I0J-200000D01*
G01*
X189120000Y-72455000D01*
G75*
G02*
X188920000Y-72655000I-200000J0D01*
G01*
X187970000Y-72655000D01*
G75*
G02*
X187770000Y-72455000I0J200000D01*
G01*
X187770000Y-71155000D01*
G75*
G02*
X187970000Y-70955000I200000J0D01*
G01*
G37*
G36*
G01*
X168870000Y-62605000D02*
X169820000Y-62605000D01*
G75*
G02*
X170020000Y-62805000I0J-200000D01*
G01*
X170020000Y-64105000D01*
G75*
G02*
X169820000Y-64305000I-200000J0D01*
G01*
X168870000Y-64305000D01*
G75*
G02*
X168670000Y-64105000I0J200000D01*
G01*
X168670000Y-62805000D01*
G75*
G02*
X168870000Y-62605000I200000J0D01*
G01*
G37*
G36*
G01*
X168870000Y-66155000D02*
X169820000Y-66155000D01*
G75*
G02*
X170020000Y-66355000I0J-200000D01*
G01*
X170020000Y-67655000D01*
G75*
G02*
X169820000Y-67855000I-200000J0D01*
G01*
X168870000Y-67855000D01*
G75*
G02*
X168670000Y-67655000I0J200000D01*
G01*
X168670000Y-66355000D01*
G75*
G02*
X168870000Y-66155000I200000J0D01*
G01*
G37*
G36*
G01*
X149870000Y-60195000D02*
X150820000Y-60195000D01*
G75*
G02*
X151020000Y-60395000I0J-200000D01*
G01*
X151020000Y-61695000D01*
G75*
G02*
X150820000Y-61895000I-200000J0D01*
G01*
X149870000Y-61895000D01*
G75*
G02*
X149670000Y-61695000I0J200000D01*
G01*
X149670000Y-60395000D01*
G75*
G02*
X149870000Y-60195000I200000J0D01*
G01*
G37*
G36*
G01*
X149870000Y-63745000D02*
X150820000Y-63745000D01*
G75*
G02*
X151020000Y-63945000I0J-200000D01*
G01*
X151020000Y-65245000D01*
G75*
G02*
X150820000Y-65445000I-200000J0D01*
G01*
X149870000Y-65445000D01*
G75*
G02*
X149670000Y-65245000I0J200000D01*
G01*
X149670000Y-63945000D01*
G75*
G02*
X149870000Y-63745000I200000J0D01*
G01*
G37*
G36*
G01*
X130770000Y-62705000D02*
X131720000Y-62705000D01*
G75*
G02*
X131920000Y-62905000I0J-200000D01*
G01*
X131920000Y-64205000D01*
G75*
G02*
X131720000Y-64405000I-200000J0D01*
G01*
X130770000Y-64405000D01*
G75*
G02*
X130570000Y-64205000I0J200000D01*
G01*
X130570000Y-62905000D01*
G75*
G02*
X130770000Y-62705000I200000J0D01*
G01*
G37*
G36*
G01*
X130770000Y-66255000D02*
X131720000Y-66255000D01*
G75*
G02*
X131920000Y-66455000I0J-200000D01*
G01*
X131920000Y-67755000D01*
G75*
G02*
X131720000Y-67955000I-200000J0D01*
G01*
X130770000Y-67955000D01*
G75*
G02*
X130570000Y-67755000I0J200000D01*
G01*
X130570000Y-66455000D01*
G75*
G02*
X130770000Y-66255000I200000J0D01*
G01*
G37*
G36*
G01*
X128230000Y-66255000D02*
X129180000Y-66255000D01*
G75*
G02*
X129380000Y-66455000I0J-200000D01*
G01*
X129380000Y-67755000D01*
G75*
G02*
X129180000Y-67955000I-200000J0D01*
G01*
X128230000Y-67955000D01*
G75*
G02*
X128030000Y-67755000I0J200000D01*
G01*
X128030000Y-66455000D01*
G75*
G02*
X128230000Y-66255000I200000J0D01*
G01*
G37*
G36*
G01*
X128230000Y-62705000D02*
X129180000Y-62705000D01*
G75*
G02*
X129380000Y-62905000I0J-200000D01*
G01*
X129380000Y-64205000D01*
G75*
G02*
X129180000Y-64405000I-200000J0D01*
G01*
X128230000Y-64405000D01*
G75*
G02*
X128030000Y-64205000I0J200000D01*
G01*
X128030000Y-62905000D01*
G75*
G02*
X128230000Y-62705000I200000J0D01*
G01*
G37*
G36*
G01*
X207070000Y-48505000D02*
X208020000Y-48505000D01*
G75*
G02*
X208220000Y-48705000I0J-200000D01*
G01*
X208220000Y-50005000D01*
G75*
G02*
X208020000Y-50205000I-200000J0D01*
G01*
X207070000Y-50205000D01*
G75*
G02*
X206870000Y-50005000I0J200000D01*
G01*
X206870000Y-48705000D01*
G75*
G02*
X207070000Y-48505000I200000J0D01*
G01*
G37*
G36*
G01*
X207070000Y-52055000D02*
X208020000Y-52055000D01*
G75*
G02*
X208220000Y-52255000I0J-200000D01*
G01*
X208220000Y-53555000D01*
G75*
G02*
X208020000Y-53755000I-200000J0D01*
G01*
X207070000Y-53755000D01*
G75*
G02*
X206870000Y-53555000I0J200000D01*
G01*
X206870000Y-52255000D01*
G75*
G02*
X207070000Y-52055000I200000J0D01*
G01*
G37*
G36*
G01*
X187970000Y-48375000D02*
X188920000Y-48375000D01*
G75*
G02*
X189120000Y-48575000I0J-200000D01*
G01*
X189120000Y-49875000D01*
G75*
G02*
X188920000Y-50075000I-200000J0D01*
G01*
X187970000Y-50075000D01*
G75*
G02*
X187770000Y-49875000I0J200000D01*
G01*
X187770000Y-48575000D01*
G75*
G02*
X187970000Y-48375000I200000J0D01*
G01*
G37*
G36*
G01*
X187970000Y-51925000D02*
X188920000Y-51925000D01*
G75*
G02*
X189120000Y-52125000I0J-200000D01*
G01*
X189120000Y-53425000D01*
G75*
G02*
X188920000Y-53625000I-200000J0D01*
G01*
X187970000Y-53625000D01*
G75*
G02*
X187770000Y-53425000I0J200000D01*
G01*
X187770000Y-52125000D01*
G75*
G02*
X187970000Y-51925000I200000J0D01*
G01*
G37*
G36*
G01*
X168870000Y-43605000D02*
X169820000Y-43605000D01*
G75*
G02*
X170020000Y-43805000I0J-200000D01*
G01*
X170020000Y-45105000D01*
G75*
G02*
X169820000Y-45305000I-200000J0D01*
G01*
X168870000Y-45305000D01*
G75*
G02*
X168670000Y-45105000I0J200000D01*
G01*
X168670000Y-43805000D01*
G75*
G02*
X168870000Y-43605000I200000J0D01*
G01*
G37*
G36*
G01*
X168870000Y-47155000D02*
X169820000Y-47155000D01*
G75*
G02*
X170020000Y-47355000I0J-200000D01*
G01*
X170020000Y-48655000D01*
G75*
G02*
X169820000Y-48855000I-200000J0D01*
G01*
X168870000Y-48855000D01*
G75*
G02*
X168670000Y-48655000I0J200000D01*
G01*
X168670000Y-47355000D01*
G75*
G02*
X168870000Y-47155000I200000J0D01*
G01*
G37*
G36*
G01*
X149870000Y-41105000D02*
X150820000Y-41105000D01*
G75*
G02*
X151020000Y-41305000I0J-200000D01*
G01*
X151020000Y-42605000D01*
G75*
G02*
X150820000Y-42805000I-200000J0D01*
G01*
X149870000Y-42805000D01*
G75*
G02*
X149670000Y-42605000I0J200000D01*
G01*
X149670000Y-41305000D01*
G75*
G02*
X149870000Y-41105000I200000J0D01*
G01*
G37*
G36*
G01*
X149870000Y-44655000D02*
X150820000Y-44655000D01*
G75*
G02*
X151020000Y-44855000I0J-200000D01*
G01*
X151020000Y-46155000D01*
G75*
G02*
X150820000Y-46355000I-200000J0D01*
G01*
X149870000Y-46355000D01*
G75*
G02*
X149670000Y-46155000I0J200000D01*
G01*
X149670000Y-44855000D01*
G75*
G02*
X149870000Y-44655000I200000J0D01*
G01*
G37*
G36*
G01*
X130770000Y-43605000D02*
X131720000Y-43605000D01*
G75*
G02*
X131920000Y-43805000I0J-200000D01*
G01*
X131920000Y-45105000D01*
G75*
G02*
X131720000Y-45305000I-200000J0D01*
G01*
X130770000Y-45305000D01*
G75*
G02*
X130570000Y-45105000I0J200000D01*
G01*
X130570000Y-43805000D01*
G75*
G02*
X130770000Y-43605000I200000J0D01*
G01*
G37*
G36*
G01*
X130770000Y-47155000D02*
X131720000Y-47155000D01*
G75*
G02*
X131920000Y-47355000I0J-200000D01*
G01*
X131920000Y-48655000D01*
G75*
G02*
X131720000Y-48855000I-200000J0D01*
G01*
X130770000Y-48855000D01*
G75*
G02*
X130570000Y-48655000I0J200000D01*
G01*
X130570000Y-47355000D01*
G75*
G02*
X130770000Y-47155000I200000J0D01*
G01*
G37*
G36*
G01*
X128230000Y-47152000D02*
X129180000Y-47152000D01*
G75*
G02*
X129380000Y-47352000I0J-200000D01*
G01*
X129380000Y-48652000D01*
G75*
G02*
X129180000Y-48852000I-200000J0D01*
G01*
X128230000Y-48852000D01*
G75*
G02*
X128030000Y-48652000I0J200000D01*
G01*
X128030000Y-47352000D01*
G75*
G02*
X128230000Y-47152000I200000J0D01*
G01*
G37*
G36*
G01*
X128230000Y-43602000D02*
X129180000Y-43602000D01*
G75*
G02*
X129380000Y-43802000I0J-200000D01*
G01*
X129380000Y-45102000D01*
G75*
G02*
X129180000Y-45302000I-200000J0D01*
G01*
X128230000Y-45302000D01*
G75*
G02*
X128030000Y-45102000I0J200000D01*
G01*
X128030000Y-43802000D01*
G75*
G02*
X128230000Y-43602000I200000J0D01*
G01*
G37*
D14*
X93478815Y-47505745D03*
X108718815Y-65285745D03*
X93478815Y-57665745D03*
X108718815Y-55125745D03*
X108718815Y-50045745D03*
X93478815Y-67825745D03*
X108718815Y-47505745D03*
X108718815Y-42425745D03*
X93478815Y-62745745D03*
X108718815Y-70365745D03*
X93478815Y-55125745D03*
X93478815Y-44965745D03*
X93478815Y-50045745D03*
X93478815Y-52585745D03*
X93478815Y-65285745D03*
X93478815Y-60205745D03*
X108718815Y-62745745D03*
X108718815Y-60205745D03*
X93478815Y-70365745D03*
X108718815Y-67825745D03*
X108718815Y-44965745D03*
X93478815Y-42425745D03*
X108718815Y-57665745D03*
X108718815Y-52585745D03*
X92180000Y-41230000D03*
X92180000Y-43770000D03*
X92180000Y-46310000D03*
X92180000Y-48850000D03*
X92180000Y-51390000D03*
X92180000Y-53930000D03*
X92180000Y-56470000D03*
X92180000Y-59010000D03*
X92180000Y-61550000D03*
X92180000Y-64090000D03*
X92180000Y-66630000D03*
X92180000Y-69170000D03*
X107420000Y-69170000D03*
X107420000Y-66630000D03*
X107420000Y-64090000D03*
X107420000Y-61550000D03*
X107420000Y-59010000D03*
X107420000Y-56470000D03*
X107420000Y-53930000D03*
X107420000Y-51390000D03*
X107420000Y-48850000D03*
X107420000Y-46310000D03*
X107420000Y-43770000D03*
X107420000Y-41230000D03*
D15*
X107000000Y-93500000D03*
X91500000Y-93500000D03*
D16*
X104320000Y-74600000D03*
X101780000Y-74600000D03*
X99240000Y-74600000D03*
X96700000Y-74600000D03*
G36*
G01*
X93428500Y-73982120D02*
X94571500Y-73982120D01*
G75*
G02*
X94771500Y-74182120I0J-200000D01*
G01*
X94771500Y-74817120D01*
G75*
G02*
X94571500Y-75017120I-200000J0D01*
G01*
X93428500Y-75017120D01*
G75*
G02*
X93228500Y-74817120I0J200000D01*
G01*
X93228500Y-74182120D01*
G75*
G02*
X93428500Y-73982120I200000J0D01*
G01*
G37*
G36*
G01*
X93428500Y-74982880D02*
X94571500Y-74982880D01*
G75*
G02*
X94771500Y-75182880I0J-200000D01*
G01*
X94771500Y-75817880D01*
G75*
G02*
X94571500Y-76017880I-200000J0D01*
G01*
X93428500Y-76017880D01*
G75*
G02*
X93228500Y-75817880I0J200000D01*
G01*
X93228500Y-75182880D01*
G75*
G02*
X93428500Y-74982880I200000J0D01*
G01*
G37*
D17*
X90000000Y-80750000D03*
X90000000Y-74250000D03*
G36*
G01*
X97271500Y-69317120D02*
X96128500Y-69317120D01*
G75*
G02*
X95928500Y-69117120I0J200000D01*
G01*
X95928500Y-68482120D01*
G75*
G02*
X96128500Y-68282120I200000J0D01*
G01*
X97271500Y-68282120D01*
G75*
G02*
X97471500Y-68482120I0J-200000D01*
G01*
X97471500Y-69117120D01*
G75*
G02*
X97271500Y-69317120I-200000J0D01*
G01*
G37*
G36*
G01*
X97271500Y-70317880D02*
X96128500Y-70317880D01*
G75*
G02*
X95928500Y-70117880I0J200000D01*
G01*
X95928500Y-69482880D01*
G75*
G02*
X96128500Y-69282880I200000J0D01*
G01*
X97271500Y-69282880D01*
G75*
G02*
X97471500Y-69482880I0J-200000D01*
G01*
X97471500Y-70117880D01*
G75*
G02*
X97271500Y-70317880I-200000J0D01*
G01*
G37*
G36*
G01*
X99771500Y-69317120D02*
X98628500Y-69317120D01*
G75*
G02*
X98428500Y-69117120I0J200000D01*
G01*
X98428500Y-68482120D01*
G75*
G02*
X98628500Y-68282120I200000J0D01*
G01*
X99771500Y-68282120D01*
G75*
G02*
X99971500Y-68482120I0J-200000D01*
G01*
X99971500Y-69117120D01*
G75*
G02*
X99771500Y-69317120I-200000J0D01*
G01*
G37*
G36*
G01*
X99771500Y-70317880D02*
X98628500Y-70317880D01*
G75*
G02*
X98428500Y-70117880I0J200000D01*
G01*
X98428500Y-69482880D01*
G75*
G02*
X98628500Y-69282880I200000J0D01*
G01*
X99771500Y-69282880D01*
G75*
G02*
X99971500Y-69482880I0J-200000D01*
G01*
X99971500Y-70117880D01*
G75*
G02*
X99771500Y-70317880I-200000J0D01*
G01*
G37*
G36*
G01*
X102271500Y-69317120D02*
X101128500Y-69317120D01*
G75*
G02*
X100928500Y-69117120I0J200000D01*
G01*
X100928500Y-68482120D01*
G75*
G02*
X101128500Y-68282120I200000J0D01*
G01*
X102271500Y-68282120D01*
G75*
G02*
X102471500Y-68482120I0J-200000D01*
G01*
X102471500Y-69117120D01*
G75*
G02*
X102271500Y-69317120I-200000J0D01*
G01*
G37*
G36*
G01*
X102271500Y-70317880D02*
X101128500Y-70317880D01*
G75*
G02*
X100928500Y-70117880I0J200000D01*
G01*
X100928500Y-69482880D01*
G75*
G02*
X101128500Y-69282880I200000J0D01*
G01*
X102271500Y-69282880D01*
G75*
G02*
X102471500Y-69482880I0J-200000D01*
G01*
X102471500Y-70117880D01*
G75*
G02*
X102271500Y-70317880I-200000J0D01*
G01*
G37*
G36*
G01*
X104871500Y-69317120D02*
X103728500Y-69317120D01*
G75*
G02*
X103528500Y-69117120I0J200000D01*
G01*
X103528500Y-68482120D01*
G75*
G02*
X103728500Y-68282120I200000J0D01*
G01*
X104871500Y-68282120D01*
G75*
G02*
X105071500Y-68482120I0J-200000D01*
G01*
X105071500Y-69117120D01*
G75*
G02*
X104871500Y-69317120I-200000J0D01*
G01*
G37*
G36*
G01*
X104871500Y-70317880D02*
X103728500Y-70317880D01*
G75*
G02*
X103528500Y-70117880I0J200000D01*
G01*
X103528500Y-69482880D01*
G75*
G02*
X103728500Y-69282880I200000J0D01*
G01*
X104871500Y-69282880D01*
G75*
G02*
X105071500Y-69482880I0J-200000D01*
G01*
X105071500Y-70117880D01*
G75*
G02*
X104871500Y-70317880I-200000J0D01*
G01*
G37*
D16*
X100579272Y-80311965D03*
X95499272Y-80311965D03*
X100579272Y-78061965D03*
X95499272Y-78061965D03*
X102700000Y-78100000D03*
X102700000Y-80300000D03*
D18*
X206000000Y-100000000D03*
X130375120Y-95852640D03*
X130527120Y-57573640D03*
D17*
X107000000Y-107000000D03*
X107000000Y-102000000D03*
G36*
G01*
X98200000Y-111100000D02*
X98200000Y-109100000D01*
G75*
G02*
X98400000Y-108900000I200000J0D01*
G01*
X101600000Y-108900000D01*
G75*
G02*
X101800000Y-109100000I0J-200000D01*
G01*
X101800000Y-111100000D01*
G75*
G02*
X101600000Y-111300000I-200000J0D01*
G01*
X98400000Y-111300000D01*
G75*
G02*
X98200000Y-111100000I0J200000D01*
G01*
G37*
G36*
G01*
X98200000Y-99900000D02*
X98200000Y-97900000D01*
G75*
G02*
X98400000Y-97700000I200000J0D01*
G01*
X101600000Y-97700000D01*
G75*
G02*
X101800000Y-97900000I0J-200000D01*
G01*
X101800000Y-99900000D01*
G75*
G02*
X101600000Y-100100000I-200000J0D01*
G01*
X98400000Y-100100000D01*
G75*
G02*
X98200000Y-99900000I0J200000D01*
G01*
G37*
X92500000Y-107000000D03*
X92500000Y-104500000D03*
X92500000Y-102000000D03*
D18*
X103000000Y-119000000D03*
X206000000Y-61500000D03*
D19*
X96500000Y-87400000D03*
X89500000Y-87400000D03*
D20*
X98300000Y-89500000D03*
X99800000Y-85300000D03*
X91300000Y-89500000D03*
X94300000Y-89500000D03*
D19*
X89500000Y-85650000D03*
X96500000Y-85650000D03*
D20*
X91300000Y-83550000D03*
X94300000Y-83550000D03*
X98300000Y-83550000D03*
X99800000Y-87750000D03*
M02*
