M48
; DRILL file {KiCad (5.1.9-0-10_14)} date Friday, March 05, 2021 at 04:26:55 PM
; FORMAT={-:-/ absolute / inch / decimal}
; #@! TF.CreationDate,2021-03-05T16:26:55-07:00
; #@! TF.GenerationSoftware,Kicad,Pcbnew,(5.1.9-0-10_14)
; #@! TF.FileFunction,NonPlated,1,2,NPTH
FMAT,2
INCH
T1C0.0394
T2C0.0472
T3C0.0709
T4C0.1181
T5C0.1339
%
G90
G05
T1
X3.8479Y-4.9913
X4.0534Y-5.3473
X4.3886Y-4.9486
X4.5406Y-1.8031
X4.5406Y-2.5551
X4.5406Y-3.3031
X4.5406Y-4.0531
X4.7856Y-4.8422
X4.9516Y-1.8031
X4.9516Y-2.5551
X4.9516Y-3.3031
X4.9516Y-4.0531
X5.2906Y-1.7047
X5.2906Y-2.4547
X5.2906Y-3.2047
X5.2906Y-3.9547
X5.2906Y-4.7047
X5.7016Y-1.7047
X5.7016Y-2.4547
X5.7016Y-3.2047
X5.7016Y-3.9547
X5.7016Y-4.7047
X6.0406Y-1.6063
X6.0406Y-2.3563
X6.0406Y-3.1063
X6.0406Y-3.8563
X6.0406Y-4.6063
X6.4516Y-1.6063
X6.4516Y-2.3563
X6.4516Y-3.1063
X6.4516Y-3.8563
X6.4516Y-4.6063
X6.7906Y-1.7047
X6.7906Y-2.4547
X6.7906Y-3.2047
X6.7906Y-3.9547
X6.7906Y-4.7047
X7.2016Y-1.7047
X7.2016Y-2.4547
X7.2016Y-3.2047
X7.2016Y-3.9547
X7.2016Y-4.7047
X7.5406Y-1.8976
X7.5406Y-2.6476
X7.5406Y-3.3976
X7.5406Y-4.1476
X7.9516Y-1.8976
X7.9516Y-2.6476
X7.9516Y-3.3976
X7.9516Y-4.1476
X8.2906Y-1.8976
X8.2906Y-2.6476
X8.2906Y-3.3976
X8.2906Y-4.1476
X8.7016Y-1.8976
X8.7016Y-2.6476
X8.7016Y-3.3976
X8.7016Y-4.1476
T2
X3.5236Y-3.372
X3.5236Y-3.4409
X3.7992Y-3.372
X3.7992Y-3.4409
T3
X3.6992Y-5.0644
X3.9157Y-5.4395
X4.4208Y-5.1112
X4.5295Y-1.9685
X4.5295Y-2.7205
X4.5295Y-3.4685
X4.5295Y-4.2185
X4.8391Y-4.9991
X4.9626Y-1.9685
X4.9626Y-2.7205
X4.9626Y-3.4685
X4.9626Y-4.2185
X5.2795Y-1.8701
X5.2795Y-2.6201
X5.2795Y-3.3701
X5.2795Y-4.1201
X5.2795Y-4.8701
X5.7126Y-1.8701
X5.7126Y-2.6201
X5.7126Y-3.3701
X5.7126Y-4.1201
X5.7126Y-4.8701
X6.0295Y-1.7717
X6.0295Y-2.5217
X6.0295Y-3.2717
X6.0295Y-4.0217
X6.0295Y-4.7717
X6.4626Y-1.7717
X6.4626Y-2.5217
X6.4626Y-3.2717
X6.4626Y-4.0217
X6.4626Y-4.7717
X6.7795Y-1.8701
X6.7795Y-2.6201
X6.7795Y-3.3701
X6.7795Y-4.1201
X6.7795Y-4.8701
X7.2126Y-1.8701
X7.2126Y-2.6201
X7.2126Y-3.3701
X7.2126Y-4.1201
X7.2126Y-4.8701
X7.5295Y-2.063
X7.5295Y-2.813
X7.5295Y-3.563
X7.5295Y-4.313
X7.9626Y-2.063
X7.9626Y-2.813
X7.9626Y-3.563
X7.9626Y-4.313
X8.2795Y-2.063
X8.2795Y-2.813
X8.2795Y-3.563
X8.2795Y-4.313
X8.7126Y-2.063
X8.7126Y-2.813
X8.7126Y-3.563
X8.7126Y-4.313
T4
X3.5829Y-5.1543
X3.6063Y-5.3681
X3.7798Y-5.4953
X4.4775Y-5.2468
X4.5492Y-2.1142
X4.5492Y-2.8661
X4.5492Y-3.6142
X4.5492Y-4.3642
X4.69Y-5.2795
X4.7461Y-2.2008
X4.7461Y-2.9528
X4.7461Y-3.7008
X4.7461Y-4.4508
X4.8578Y-5.1449
X4.9429Y-2.1142
X4.9429Y-2.8661
X4.9429Y-3.6142
X4.9429Y-4.3642
X5.2992Y-2.0157
X5.2992Y-2.7657
X5.2992Y-3.5157
X5.2992Y-4.2657
X5.2992Y-5.0157
X5.4961Y-2.1024
X5.4961Y-2.8524
X5.4961Y-3.6024
X5.4961Y-4.3524
X5.4961Y-5.1024
X5.6929Y-2.0157
X5.6929Y-2.7657
X5.6929Y-3.5157
X5.6929Y-4.2657
X5.6929Y-5.0157
X6.0492Y-1.9173
X6.0492Y-2.6673
X6.0492Y-3.4173
X6.0492Y-4.1673
X6.0492Y-4.9173
X6.2461Y-2.0039
X6.2461Y-2.7539
X6.2461Y-3.5039
X6.2461Y-4.2539
X6.2461Y-5.0039
X6.4429Y-1.9173
X6.4429Y-2.6673
X6.4429Y-3.4173
X6.4429Y-4.1673
X6.4429Y-4.9173
X6.7992Y-2.0157
X6.7992Y-2.7657
X6.7992Y-3.5157
X6.7992Y-4.2657
X6.7992Y-5.0157
X6.9961Y-2.1024
X6.9961Y-2.8524
X6.9961Y-3.6024
X6.9961Y-4.3524
X6.9961Y-5.1024
X7.1929Y-2.0157
X7.1929Y-2.7657
X7.1929Y-3.5157
X7.1929Y-4.2657
X7.1929Y-5.0157
X7.5492Y-2.2087
X7.5492Y-2.9587
X7.5492Y-3.7087
X7.5492Y-4.4587
X7.7461Y-2.2953
X7.7461Y-3.0453
X7.7461Y-3.7953
X7.7461Y-4.5453
X7.9429Y-2.2087
X7.9429Y-2.9587
X7.9429Y-3.7087
X7.9429Y-4.4587
X8.2992Y-2.2087
X8.2992Y-2.9587
X8.2992Y-3.7087
X8.2992Y-4.4587
X8.4961Y-2.2953
X8.4961Y-3.0453
X8.4961Y-3.7953
X8.4961Y-4.5453
X8.6929Y-2.2087
X8.6929Y-2.9587
X8.6929Y-3.7087
X8.6929Y-4.4587
T5
X3.8075Y-5.252
X4.6299Y-5.0551
X4.7461Y-1.9685
X4.7461Y-2.7205
X4.7461Y-3.4685
X4.7461Y-4.2185
X5.4961Y-1.8701
X5.4961Y-2.6201
X5.4961Y-3.3701
X5.4961Y-4.1201
X5.4961Y-4.8701
X6.2461Y-1.7717
X6.2461Y-2.5217
X6.2461Y-3.2717
X6.2461Y-4.0217
X6.2461Y-4.7717
X6.9961Y-1.8701
X6.9961Y-2.6201
X6.9961Y-3.3701
X6.9961Y-4.1201
X6.9961Y-4.8701
X7.7461Y-2.063
X7.7461Y-2.813
X7.7461Y-3.563
X7.7461Y-4.313
X8.4961Y-2.063
X8.4961Y-2.813
X8.4961Y-3.563
X8.4961Y-4.313
T0
M30
