<?xml version="1.0" standalone="no"?>
 <!DOCTYPE svg PUBLIC "-//W3C//DTD SVG 1.1//EN" 
 "http://www.w3.org/Graphics/SVG/1.1/DTD/svg11.dtd"> 
<svg
  xmlns:svg="http://www.w3.org/2000/svg"
  xmlns="http://www.w3.org/2000/svg"
  xmlns:xlink="http://www.w3.org/1999/xlink"
  version="1.1"
  width="145.5420mm" height="116.4082mm" viewBox="0.0000 0.0000 145.5420 116.4082">
<title>SVG Image created as Sofle_Pico-brd.svg date 2024/02/10 17:23:17 </title>
  <desc>Image generated by PCBNEW </desc>
<g style="fill:#000000; fill-opacity:1.0000;stroke:#000000; stroke-opacity:1.0000;
stroke-linecap:round; stroke-linejoin:round;"
 transform="translate(0 0) scale(1 1)">
</g>
<g style="fill:#000000; fill-opacity:0.0; 
stroke:#000000; stroke-width:0.0000; stroke-opacity:1; 
stroke-linecap:round; stroke-linejoin:round;">
</g>
<g style="fill:#000000; fill-opacity:0.0; 
stroke:#000000; stroke-width:0.1500; stroke-opacity:1; 
stroke-linecap:round; stroke-linejoin:round;">
<path d="M67.7718 100.8250
L105.8718 100.8250
" />
</g>
<g style="fill:#000000; fill-opacity:0.0; 
stroke:#000000; stroke-width:0.1000; stroke-opacity:1; 
stroke-linecap:round; stroke-linejoin:round;">
<path d="M0.0502 63.5472
L0.0502 93.6301
" />
<path d="M11.0247 115.5547 A1.4999 1.4999 0.0 0 0 12.7571 116.3206" />
<path d="M27.6599 13.0201 A1.0000 1.0000 0.0 0 0 28.6599 14.0201" />
<path d="M28.6599 0.0749 A1.0001 1.0001 0.0 0 0 27.6599 1.0750" />
<path d="M12.7470 62.5472
L12.7470 54.5301
" />
<path d="M29.4470 54.1633
L29.4470 14.0201
" />
<path d="M25.4470 53.5301
L13.7470 53.5301
" />
</g>
<g style="fill:#000000; fill-opacity:0.0; 
stroke:#000000; stroke-width:0.1500; stroke-opacity:1; 
stroke-linecap:round; stroke-linejoin:round;">
<path d="M86.8218 0.0750
L144.1356 7.4740
" />
<path d="M105.8718 100.8250
L144.5661 86.5523
" />
</g>
<g style="fill:#000000; fill-opacity:0.0; 
stroke:#000000; stroke-width:0.1000; stroke-opacity:1; 
stroke-linecap:round; stroke-linejoin:round;">
<path d="M29.4470 54.1633
L26.3077 54.1633
" />
</g>
<g style="fill:#000000; fill-opacity:0.0; 
stroke:#000000; stroke-width:0.1500; stroke-opacity:1; 
stroke-linecap:round; stroke-linejoin:round;">
<path d="M145.4718 8.9750 A1.5110 1.5110 0.0 0 0 144.1356 7.4740" />
<path d="M145.4718 8.9750
L145.4718 85.1750
" />
</g>
<g style="fill:#000000; fill-opacity:0.0; 
stroke:#000000; stroke-width:0.1000; stroke-opacity:1; 
stroke-linecap:round; stroke-linejoin:round;">
<path d="M0.2137 94.3378
L11.0247 115.5547
" />
<path d="M13.7470 53.5301 A1.0000 1.0000 0.0 0 0 12.7470 54.5301" />
<path d="M1.0502 62.5472
L12.7470 62.5472
" />
<path d="M26.3077 54.1633 A3.5480 3.5480 0.0 0 0 25.4470 53.5301" />
<path d="M28.6599 14.0201
L29.4470 14.0201
" />
<path d="M86.8218 0.0750
L28.6599 0.0750
" />
<path d="M0.0502 93.6301 A1.5021 1.5021 0.0 0 0 0.2137 94.3378" />
<path d="M12.7571 116.3206
L67.7718 100.8250
" />
<path d="M27.6599 1.0750
L27.6599 13.0201
" />
</g>
<g style="fill:#000000; fill-opacity:0.0; 
stroke:#000000; stroke-width:0.1500; stroke-opacity:1; 
stroke-linecap:round; stroke-linejoin:round;">
<path d="M144.5661 86.5523 A1.4996 1.4996 0.0 0 0 145.4718 85.1750" />
</g>
<g style="fill:#000000; fill-opacity:0.0; 
stroke:#000000; stroke-width:0.1000; stroke-opacity:1; 
stroke-linecap:round; stroke-linejoin:round;">
<path d="M1.0502 62.5473 A1.0000 1.0000 0.0 0 0 0.0502 63.5472" />
</g>
<g style="fill:#000000; fill-opacity:0.0; 
stroke:#000000; stroke-width:0.1200; stroke-opacity:1; 
stroke-linecap:round; stroke-linejoin:round;">
<circle cx="48.7220" cy="47.4701" r="1.7500" /> 
<circle cx="67.7720" cy="28.4201" r="1.7500" /> 
<circle cx="67.7720" cy="66.5201" r="1.7500" /> 
<circle cx="86.8220" cy="47.4701" r="1.7500" /> 
<path d="M26.6470 77.1001
L11.0470 77.1001
" />
<path d="M11.0470 77.1001
L11.0470 64.1001
" />
<path d="M11.0470 64.1001
L26.6470 64.1001
" />
<path d="M26.6470 64.1001
L26.6470 77.1001
" />
</g>
<g style="fill:#000000; fill-opacity:0.0; 
stroke:#000000; stroke-width:0.1000; stroke-opacity:1; 
stroke-linecap:round; stroke-linejoin:round;">
<circle cx="124.9370" cy="28.0101" r="1.1000" /> 
<circle cx="124.9220" cy="66.1251" r="1.1000" /> 
<circle cx="48.0870" cy="25.6101" r="1.1000" /> 
<circle cx="48.1770" cy="63.5601" r="1.1000" /> 
<circle cx="22.2370" cy="86.6301" r="1.1000" /> 
<circle cx="30.6570" cy="3.2176" r="2.0500" /> 
<circle cx="23.7870" cy="56.6901" r="2.0500" /> 
<circle cx="4.2960" cy="67.1001" r="2.0500" /> 
<path d="M37.0470 9.6001
L41.3470 9.6001
" />
<path d="M41.3470 9.6001
L41.3470 8.6001
" />
<path d="M41.3470 8.6001
L37.0470 8.6001
" />
<path d="M37.0470 8.6001
L37.0470 9.6001
" />
<path d="M37.0470 23.6001
L41.3470 23.6001
" />
<path d="M41.3470 23.6001
L41.3470 22.6001
" />
<path d="M41.3470 22.6001
L37.0470 22.6001
" />
<path d="M37.0470 22.6001
L37.0470 23.6001
" />
<path d="M46.1970 23.1001
L32.1970 23.1001
" />
<path d="M32.1970 23.1001
L32.1970 9.1001
" />
<path d="M32.1970 9.1001
L46.1970 9.1001
" />
<path d="M46.1970 9.1001
L46.1970 23.1001
" />
<path d="M75.1470 4.6001
L79.4470 4.6001
" />
<path d="M79.4470 4.6001
L79.4470 3.6001
" />
<path d="M79.4470 3.6001
L75.1470 3.6001
" />
<path d="M75.1470 3.6001
L75.1470 4.6001
" />
<path d="M75.1470 18.6001
L79.4470 18.6001
" />
<path d="M79.4470 18.6001
L79.4470 17.6001
" />
<path d="M79.4470 17.6001
L75.1470 17.6001
" />
<path d="M75.1470 17.6001
L75.1470 18.6001
" />
<path d="M84.2970 18.1001
L70.2970 18.1001
" />
<path d="M70.2970 18.1001
L70.2970 4.1001
" />
<path d="M70.2970 4.1001
L84.2970 4.1001
" />
<path d="M84.2970 4.1001
L84.2970 18.1001
" />
<path d="M37.0470 47.7001
L41.3470 47.7001
" />
<path d="M41.3470 47.7001
L41.3470 46.7001
" />
<path d="M41.3470 46.7001
L37.0470 46.7001
" />
<path d="M37.0470 46.7001
L37.0470 47.7001
" />
<path d="M37.0470 61.7001
L41.3470 61.7001
" />
<path d="M41.3470 61.7001
L41.3470 60.7001
" />
<path d="M41.3470 60.7001
L37.0470 60.7001
" />
<path d="M37.0470 60.7001
L37.0470 61.7001
" />
<path d="M46.1970 61.2001
L32.1970 61.2001
" />
<path d="M32.1970 61.2001
L32.1970 47.2001
" />
<path d="M32.1970 47.2001
L46.1970 47.2001
" />
<path d="M46.1970 47.2001
L46.1970 61.2001
" />
<path d="M56.0970 45.2001
L60.3970 45.2001
" />
<path d="M60.3970 45.2001
L60.3970 44.2001
" />
<path d="M60.3970 44.2001
L56.0970 44.2001
" />
<path d="M56.0970 44.2001
L56.0970 45.2001
" />
<path d="M56.0970 59.2001
L60.3970 59.2001
" />
<path d="M60.3970 59.2001
L60.3970 58.2001
" />
<path d="M60.3970 58.2001
L56.0970 58.2001
" />
<path d="M56.0970 58.2001
L56.0970 59.2001
" />
<path d="M65.2470 58.7001
L51.2470 58.7001
" />
<path d="M51.2470 58.7001
L51.2470 44.7001
" />
<path d="M51.2470 44.7001
L65.2470 44.7001
" />
<path d="M65.2470 44.7001
L65.2470 58.7001
" />
<path d="M75.1470 61.7501
L79.4470 61.7501
" />
<path d="M79.4470 61.7501
L79.4470 60.7501
" />
<path d="M79.4470 60.7501
L75.1470 60.7501
" />
<path d="M75.1470 60.7501
L75.1470 61.7501
" />
<path d="M75.1470 75.7501
L79.4470 75.7501
" />
<path d="M79.4470 75.7501
L79.4470 74.7501
" />
<path d="M79.4470 74.7501
L75.1470 74.7501
" />
<path d="M75.1470 74.7501
L75.1470 75.7501
" />
<path d="M84.2970 75.2501
L70.2970 75.2501
" />
<path d="M70.2970 75.2501
L70.2970 61.2501
" />
<path d="M70.2970 61.2501
L84.2970 61.2501
" />
<path d="M84.2970 61.2501
L84.2970 75.2501
" />
<path d="M113.2470 69.1501
L117.5470 69.1501
" />
<path d="M117.5470 69.1501
L117.5470 68.1501
" />
<path d="M117.5470 68.1501
L113.2470 68.1501
" />
<path d="M113.2470 68.1501
L113.2470 69.1501
" />
<path d="M113.2470 83.1501
L117.5470 83.1501
" />
<path d="M117.5470 83.1501
L117.5470 82.1501
" />
<path d="M117.5470 82.1501
L113.2470 82.1501
" />
<path d="M113.2470 82.1501
L113.2470 83.1501
" />
<path d="M122.3970 82.6501
L108.3970 82.6501
" />
<path d="M108.3970 82.6501
L108.3970 68.6501
" />
<path d="M108.3970 68.6501
L122.3970 68.6501
" />
<path d="M122.3970 68.6501
L122.3970 82.6501
" />
<path d="M20.2582 95.0743
L22.2103 98.9057
" />
<path d="M22.2103 98.9057
L23.1013 98.4517
" />
<path d="M23.1013 98.4517
L21.1492 94.6204
" />
<path d="M21.1492 94.6204
L20.2582 95.0743
" />
<path d="M7.7841 101.4302
L9.7362 105.2615
" />
<path d="M9.7362 105.2615
L10.6272 104.8075
" />
<path d="M10.6272 104.8075
L8.6751 100.9762
" />
<path d="M8.6751 100.9762
L7.7841 101.4302
" />
<path d="M12.3836 109.3559
L6.0277 96.8818
" />
<path d="M6.0277 96.8818
L18.5018 90.5260
" />
<path d="M18.5018 90.5260
L24.8577 103.0001
" />
<path d="M24.8577 103.0001
L12.3836 109.3559
" />
<path d="M32.4879 88.7781
L36.6414 87.6652
" />
<path d="M36.6414 87.6652
L36.3826 86.6992
" />
<path d="M36.3826 86.6992
L32.2291 87.8122
" />
<path d="M32.2291 87.8122
L32.4879 88.7781
" />
<path d="M36.1114 102.3010
L40.2648 101.1881
" />
<path d="M40.2648 101.1881
L40.0060 100.2222
" />
<path d="M40.0060 100.2222
L35.8525 101.3351
" />
<path d="M35.8525 101.3351
L36.1114 102.3010
" />
<path d="M44.8202 99.4499
L31.2972 103.0733
" />
<path d="M31.2972 103.0733
L27.6737 89.5504
" />
<path d="M27.6737 89.5504
L41.1967 85.9269
" />
<path d="M41.1967 85.9269
L44.8202 99.4499
" />
<path d="M132.2970 31.0501
L136.5970 31.0501
" />
<path d="M136.5970 31.0501
L136.5970 30.0501
" />
<path d="M136.5970 30.0501
L132.2970 30.0501
" />
<path d="M132.2970 30.0501
L132.2970 31.0501
" />
<path d="M132.2970 45.0501
L136.5970 45.0501
" />
<path d="M136.5970 45.0501
L136.5970 44.0501
" />
<path d="M136.5970 44.0501
L132.2970 44.0501
" />
<path d="M132.2970 44.0501
L132.2970 45.0501
" />
<path d="M141.4470 44.5501
L127.4470 44.5501
" />
<path d="M127.4470 44.5501
L127.4470 30.5501
" />
<path d="M127.4470 30.5501
L141.4470 30.5501
" />
<path d="M141.4470 30.5501
L141.4470 44.5501
" />
<path d="M132.2970 50.1001
L136.5970 50.1001
" />
<path d="M136.5970 50.1001
L136.5970 49.1001
" />
<path d="M136.5970 49.1001
L132.2970 49.1001
" />
<path d="M132.2970 49.1001
L132.2970 50.1001
" />
<path d="M132.2970 64.1001
L136.5970 64.1001
" />
<path d="M136.5970 64.1001
L136.5970 63.1001
" />
<path d="M136.5970 63.1001
L132.2970 63.1001
" />
<path d="M132.2970 63.1001
L132.2970 64.1001
" />
<path d="M141.4470 63.6001
L127.4470 63.6001
" />
<path d="M127.4470 63.6001
L127.4470 49.6001
" />
<path d="M127.4470 49.6001
L141.4470 49.6001
" />
<path d="M141.4470 49.6001
L141.4470 63.6001
" />
<path d="M132.2970 69.1501
L136.5970 69.1501
" />
<path d="M136.5970 69.1501
L136.5970 68.1501
" />
<path d="M136.5970 68.1501
L132.2970 68.1501
" />
<path d="M132.2970 68.1501
L132.2970 69.1501
" />
<path d="M132.2970 83.1501
L136.5970 83.1501
" />
<path d="M136.5970 83.1501
L136.5970 82.1501
" />
<path d="M136.5970 82.1501
L132.2970 82.1501
" />
<path d="M132.2970 82.1501
L132.2970 83.1501
" />
<path d="M141.4470 82.6501
L127.4470 82.6501
" />
<path d="M127.4470 82.6501
L127.4470 68.6501
" />
<path d="M127.4470 68.6501
L141.4470 68.6501
" />
<path d="M141.4470 68.6501
L141.4470 82.6501
" />
<path d="M94.1970 7.1001
L98.4970 7.1001
" />
<path d="M98.4970 7.1001
L98.4970 6.1001
" />
<path d="M98.4970 6.1001
L94.1970 6.1001
" />
<path d="M94.1970 6.1001
L94.1970 7.1001
" />
<path d="M94.1970 21.1001
L98.4970 21.1001
" />
<path d="M98.4970 21.1001
L98.4970 20.1001
" />
<path d="M98.4970 20.1001
L94.1970 20.1001
" />
<path d="M94.1970 20.1001
L94.1970 21.1001
" />
<path d="M103.3470 20.6001
L89.3470 20.6001
" />
<path d="M89.3470 20.6001
L89.3470 6.6001
" />
<path d="M89.3470 6.6001
L103.3470 6.6001
" />
<path d="M103.3470 6.6001
L103.3470 20.6001
" />
<path d="M113.2470 12.0001
L117.5470 12.0001
" />
<path d="M117.5470 12.0001
L117.5470 11.0001
" />
<path d="M117.5470 11.0001
L113.2470 11.0001
" />
<path d="M113.2470 11.0001
L113.2470 12.0001
" />
<path d="M113.2470 26.0001
L117.5470 26.0001
" />
<path d="M117.5470 26.0001
L117.5470 25.0001
" />
<path d="M117.5470 25.0001
L113.2470 25.0001
" />
<path d="M113.2470 25.0001
L113.2470 26.0001
" />
<path d="M122.3970 25.5001
L108.3970 25.5001
" />
<path d="M108.3970 25.5001
L108.3970 11.5001
" />
<path d="M108.3970 11.5001
L122.3970 11.5001
" />
<path d="M122.3970 11.5001
L122.3970 25.5001
" />
<path d="M56.0970 26.1501
L60.3970 26.1501
" />
<path d="M60.3970 26.1501
L60.3970 25.1501
" />
<path d="M60.3970 25.1501
L56.0970 25.1501
" />
<path d="M56.0970 25.1501
L56.0970 26.1501
" />
<path d="M56.0970 40.1501
L60.3970 40.1501
" />
<path d="M60.3970 40.1501
L60.3970 39.1501
" />
<path d="M60.3970 39.1501
L56.0970 39.1501
" />
<path d="M56.0970 39.1501
L56.0970 40.1501
" />
<path d="M65.2470 39.6501
L51.2470 39.6501
" />
<path d="M51.2470 39.6501
L51.2470 25.6501
" />
<path d="M51.2470 25.6501
L65.2470 25.6501
" />
<path d="M65.2470 25.6501
L65.2470 39.6501
" />
<path d="M94.1970 26.1501
L98.4970 26.1501
" />
<path d="M98.4970 26.1501
L98.4970 25.1501
" />
<path d="M98.4970 25.1501
L94.1970 25.1501
" />
<path d="M94.1970 25.1501
L94.1970 26.1501
" />
<path d="M94.1970 40.1501
L98.4970 40.1501
" />
<path d="M98.4970 40.1501
L98.4970 39.1501
" />
<path d="M98.4970 39.1501
L94.1970 39.1501
" />
<path d="M94.1970 39.1501
L94.1970 40.1501
" />
<path d="M103.3470 39.6501
L89.3470 39.6501
" />
<path d="M89.3470 39.6501
L89.3470 25.6501
" />
<path d="M89.3470 25.6501
L103.3470 25.6501
" />
<path d="M103.3470 25.6501
L103.3470 39.6501
" />
<path d="M75.1470 23.6501
L79.4470 23.6501
" />
<path d="M79.4470 23.6501
L79.4470 22.6501
" />
<path d="M79.4470 22.6501
L75.1470 22.6501
" />
<path d="M75.1470 22.6501
L75.1470 23.6501
" />
<path d="M75.1470 37.6501
L79.4470 37.6501
" />
<path d="M79.4470 37.6501
L79.4470 36.6501
" />
<path d="M79.4470 36.6501
L75.1470 36.6501
" />
<path d="M75.1470 36.6501
L75.1470 37.6501
" />
<path d="M84.2970 37.1501
L70.2970 37.1501
" />
<path d="M70.2970 37.1501
L70.2970 23.1501
" />
<path d="M70.2970 23.1501
L84.2970 23.1501
" />
<path d="M84.2970 23.1501
L84.2970 37.1501
" />
<path d="M94.1970 45.2001
L98.4970 45.2001
" />
<path d="M98.4970 45.2001
L98.4970 44.2001
" />
<path d="M98.4970 44.2001
L94.1970 44.2001
" />
<path d="M94.1970 44.2001
L94.1970 45.2001
" />
<path d="M94.1970 59.2001
L98.4970 59.2001
" />
<path d="M98.4970 59.2001
L98.4970 58.2001
" />
<path d="M98.4970 58.2001
L94.1970 58.2001
" />
<path d="M94.1970 58.2001
L94.1970 59.2001
" />
<path d="M103.3470 58.7001
L89.3470 58.7001
" />
<path d="M89.3470 58.7001
L89.3470 44.7001
" />
<path d="M89.3470 44.7001
L103.3470 44.7001
" />
<path d="M103.3470 44.7001
L103.3470 58.7001
" />
<path d="M132.2970 12.0001
L136.5970 12.0001
" />
<path d="M136.5970 12.0001
L136.5970 11.0001
" />
<path d="M136.5970 11.0001
L132.2970 11.0001
" />
<path d="M132.2970 11.0001
L132.2970 12.0001
" />
<path d="M132.2970 26.0001
L136.5970 26.0001
" />
<path d="M136.5970 26.0001
L136.5970 25.0001
" />
<path d="M136.5970 25.0001
L132.2970 25.0001
" />
<path d="M132.2970 25.0001
L132.2970 26.0001
" />
<path d="M141.4470 25.5001
L127.4470 25.5001
" />
<path d="M127.4470 25.5001
L127.4470 11.5001
" />
<path d="M127.4470 11.5001
L141.4470 11.5001
" />
<path d="M141.4470 11.5001
L141.4470 25.5001
" />
<path d="M37.0470 28.6501
L41.3470 28.6501
" />
<path d="M41.3470 28.6501
L41.3470 27.6501
" />
<path d="M41.3470 27.6501
L37.0470 27.6501
" />
<path d="M37.0470 27.6501
L37.0470 28.6501
" />
<path d="M37.0470 42.6501
L41.3470 42.6501
" />
<path d="M41.3470 42.6501
L41.3470 41.6501
" />
<path d="M41.3470 41.6501
L37.0470 41.6501
" />
<path d="M37.0470 41.6501
L37.0470 42.6501
" />
<path d="M46.1970 42.1501
L32.1970 42.1501
" />
<path d="M32.1970 42.1501
L32.1970 28.1501
" />
<path d="M32.1970 28.1501
L46.1970 28.1501
" />
<path d="M46.1970 28.1501
L46.1970 42.1501
" />
<path d="M94.1970 83.3001
L98.4970 83.3001
" />
<path d="M98.4970 83.3001
L98.4970 82.3001
" />
<path d="M98.4970 82.3001
L94.1970 82.3001
" />
<path d="M94.1970 82.3001
L94.1970 83.3001
" />
<path d="M94.1970 97.3001
L98.4970 97.3001
" />
<path d="M98.4970 97.3001
L98.4970 96.3001
" />
<path d="M98.4970 96.3001
L94.1970 96.3001
" />
<path d="M94.1970 96.3001
L94.1970 97.3001
" />
<path d="M103.3470 96.8001
L89.3470 96.8001
" />
<path d="M89.3470 96.8001
L89.3470 82.8001
" />
<path d="M89.3470 82.8001
L103.3470 82.8001
" />
<path d="M103.3470 82.8001
L103.3470 96.8001
" />
<path d="M113.2470 31.0501
L117.5470 31.0501
" />
<path d="M117.5470 31.0501
L117.5470 30.0501
" />
<path d="M117.5470 30.0501
L113.2470 30.0501
" />
<path d="M113.2470 30.0501
L113.2470 31.0501
" />
<path d="M113.2470 45.0501
L117.5470 45.0501
" />
<path d="M117.5470 45.0501
L117.5470 44.0501
" />
<path d="M117.5470 44.0501
L113.2470 44.0501
" />
<path d="M113.2470 44.0501
L113.2470 45.0501
" />
<path d="M122.3970 44.5501
L108.3970 44.5501
" />
<path d="M108.3970 44.5501
L108.3970 30.5501
" />
<path d="M108.3970 30.5501
L122.3970 30.5501
" />
<path d="M122.3970 30.5501
L122.3970 44.5501
" />
<path d="M94.1970 64.2501
L98.4970 64.2501
" />
<path d="M98.4970 64.2501
L98.4970 63.2501
" />
<path d="M98.4970 63.2501
L94.1970 63.2501
" />
<path d="M94.1970 63.2501
L94.1970 64.2501
" />
<path d="M94.1970 78.2501
L98.4970 78.2501
" />
<path d="M98.4970 78.2501
L98.4970 77.2501
" />
<path d="M98.4970 77.2501
L94.1970 77.2501
" />
<path d="M94.1970 77.2501
L94.1970 78.2501
" />
<path d="M103.3470 77.7501
L89.3470 77.7501
" />
<path d="M89.3470 77.7501
L89.3470 63.7501
" />
<path d="M89.3470 63.7501
L103.3470 63.7501
" />
<path d="M103.3470 63.7501
L103.3470 77.7501
" />
<path d="M113.2470 50.1001
L117.5470 50.1001
" />
<path d="M117.5470 50.1001
L117.5470 49.1001
" />
<path d="M117.5470 49.1001
L113.2470 49.1001
" />
<path d="M113.2470 49.1001
L113.2470 50.1001
" />
<path d="M113.2470 64.1001
L117.5470 64.1001
" />
<path d="M117.5470 64.1001
L117.5470 63.1001
" />
<path d="M117.5470 63.1001
L113.2470 63.1001
" />
<path d="M113.2470 63.1001
L113.2470 64.1001
" />
<path d="M122.3970 63.6001
L108.3970 63.6001
" />
<path d="M108.3970 63.6001
L108.3970 49.6001
" />
<path d="M108.3970 49.6001
L122.3970 49.6001
" />
<path d="M122.3970 49.6001
L122.3970 63.6001
" />
<path d="M75.1470 80.8001
L79.4470 80.8001
" />
<path d="M79.4470 80.8001
L79.4470 79.8001
" />
<path d="M79.4470 79.8001
L75.1470 79.8001
" />
<path d="M75.1470 79.8001
L75.1470 80.8001
" />
<path d="M75.1470 94.8001
L79.4470 94.8001
" />
<path d="M79.4470 94.8001
L79.4470 93.8001
" />
<path d="M79.4470 93.8001
L75.1470 93.8001
" />
<path d="M75.1470 93.8001
L75.1470 94.8001
" />
<path d="M84.2970 94.3001
L70.2970 94.3001
" />
<path d="M70.2970 94.3001
L70.2970 80.3001
" />
<path d="M70.2970 80.3001
L84.2970 80.3001
" />
<path d="M84.2970 80.3001
L84.2970 94.3001
" />
<path d="M75.1470 42.7001
L79.4470 42.7001
" />
<path d="M79.4470 42.7001
L79.4470 41.7001
" />
<path d="M79.4470 41.7001
L75.1470 41.7001
" />
<path d="M75.1470 41.7001
L75.1470 42.7001
" />
<path d="M75.1470 56.7001
L79.4470 56.7001
" />
<path d="M79.4470 56.7001
L79.4470 55.7001
" />
<path d="M79.4470 55.7001
L75.1470 55.7001
" />
<path d="M75.1470 55.7001
L75.1470 56.7001
" />
<path d="M84.2970 56.2001
L70.2970 56.2001
" />
<path d="M70.2970 56.2001
L70.2970 42.2001
" />
<path d="M70.2970 42.2001
L84.2970 42.2001
" />
<path d="M84.2970 42.2001
L84.2970 56.2001
" />
<path d="M56.0970 7.1001
L60.3970 7.1001
" />
<path d="M60.3970 7.1001
L60.3970 6.1001
" />
<path d="M60.3970 6.1001
L56.0970 6.1001
" />
<path d="M56.0970 6.1001
L56.0970 7.1001
" />
<path d="M56.0970 21.1001
L60.3970 21.1001
" />
<path d="M60.3970 21.1001
L60.3970 20.1001
" />
<path d="M60.3970 20.1001
L56.0970 20.1001
" />
<path d="M56.0970 20.1001
L56.0970 21.1001
" />
<path d="M65.2470 20.6001
L51.2470 20.6001
" />
<path d="M51.2470 20.6001
L51.2470 6.6001
" />
<path d="M51.2470 6.6001
L65.2470 6.6001
" />
<path d="M65.2470 6.6001
L65.2470 20.6001
" />
<path d="M56.0970 64.2501
L60.3970 64.2501
" />
<path d="M60.3970 64.2501
L60.3970 63.2501
" />
<path d="M60.3970 63.2501
L56.0970 63.2501
" />
<path d="M56.0970 63.2501
L56.0970 64.2501
" />
<path d="M56.0970 78.2501
L60.3970 78.2501
" />
<path d="M60.3970 78.2501
L60.3970 77.2501
" />
<path d="M60.3970 77.2501
L56.0970 77.2501
" />
<path d="M56.0970 77.2501
L56.0970 78.2501
" />
<path d="M65.2470 77.7501
L51.2470 77.7501
" />
<path d="M51.2470 77.7501
L51.2470 63.7501
" />
<path d="M51.2470 63.7501
L65.2470 63.7501
" />
<path d="M65.2470 63.7501
L65.2470 77.7501
" />
<path d="M56.0970 83.3001
L60.3970 83.3001
" />
<path d="M60.3970 83.3001
L60.3970 82.3001
" />
<path d="M60.3970 82.3001
L56.0970 82.3001
" />
<path d="M56.0970 82.3001
L56.0970 83.3001
" />
<path d="M56.0970 97.3001
L60.3970 97.3001
" />
<path d="M60.3970 97.3001
L60.3970 96.3001
" />
<path d="M60.3970 96.3001
L56.0970 96.3001
" />
<path d="M56.0970 96.3001
L56.0970 97.3001
" />
<path d="M65.2470 96.8001
L51.2470 96.8001
" />
<path d="M51.2470 96.8001
L51.2470 82.8001
" />
<path d="M51.2470 82.8001
L65.2470 82.8001
" />
<path d="M65.2470 82.8001
L65.2470 96.8001
" />
<path d="M37.0470 66.7501
L41.3470 66.7501
" />
<path d="M41.3470 66.7501
L41.3470 65.7501
" />
<path d="M41.3470 65.7501
L37.0470 65.7501
" />
<path d="M37.0470 65.7501
L37.0470 66.7501
" />
<path d="M37.0470 80.7501
L41.3470 80.7501
" />
<path d="M41.3470 80.7501
L41.3470 79.7501
" />
<path d="M41.3470 79.7501
L37.0470 79.7501
" />
<path d="M37.0470 79.7501
L37.0470 80.7501
" />
<path d="M46.1970 80.2501
L32.1970 80.2501
" />
<path d="M32.1970 80.2501
L32.1970 66.2501
" />
<path d="M32.1970 66.2501
L46.1970 66.2501
" />
<path d="M46.1970 66.2501
L46.1970 80.2501
" />
<g >
</g>
<g >
</g>
<g >
</g>
<g >
</g>
<g >
</g>
<g >
</g>
<g >
</g>
<g >
</g>
<g >
</g>
<g >
</g>
<g >
</g>
<g >
</g>
<g >
</g>
<g >
</g>
<g >
</g>
<g >
</g>
<g >
</g>
<g >
</g>
<g >
</g>
<g >
</g>
<g >
</g>
<g >
</g>
<g >
</g>
<g >
</g>
<g >
</g>
<g >
</g>
<g >
</g>
<g >
</g>
<g >
</g>
<g >
</g>
<g >
</g>
<g >
</g>
<g >
</g>
<g >
</g>
<g >
</g>
<g >
</g>
<g >
</g>
<g >
</g>
<g >
</g>
<g >
</g>
<g >
</g>
<g >
</g>
<g >
</g>
<g >
</g>
<g >
</g>
<g >
</g>
<g >
</g>
<g >
</g>
<g >
</g>
<g >
</g>
<g >
</g>
<g >
</g>
<g >
</g>
<g >
</g>
<g >
</g>
<g >
</g>
<g >
</g>
<g >
</g>
<g >
</g>
<g >
</g>
<g >
</g>
<g >
</g>
<g >
</g>
<g >
</g>
<g >
</g>
<g >
</g>
<g >
</g>
<g >
</g>
<g >
</g>
<g >
</g>
<g >
</g>
<g >
</g>
<g >
</g>
<g >
</g>
<g >
</g>
<g >
</g>
<g >
</g>
<g >
</g>
<g >
</g>
<g >
</g>
<g >
</g>
<g >
</g>
<g >
</g>
<g >
</g>
<g >
</g>
<g >
</g>
<g >
</g>
<g >
</g>
<g >
</g>
<g >
</g>
<g >
</g>
<g >
</g>
<g >
</g>
<g >
</g>
<g >
</g>
<g >
</g>
<g >
</g>
<g >
</g>
<g >
</g>
<g >
</g>
<g >
</g>
<g >
</g>
<g >
</g>
<g >
</g>
<g >
</g>
<g >
</g>
<g >
</g>
<g >
</g>
<g >
</g>
<g >
</g>
<g >
</g>
<g >
</g>
<g >
</g>
<g >
</g>
<g >
</g>
<g >
</g>
<g >
</g>
<g >
</g>
<g >
</g>
</g> 
</svg>
