  0
SECTION
  2
HEADER
  9
$ANGBASE
  50
0.0
  9
$ANGDIR
  70
1
  9
$MEASUREMENT
  70
1
  0
ENDSEC
  0
SECTION
  2
TABLES
  0
TABLE
  2
LTYPE
  70
4
  0
LTYPE
  5
40F
  2
CONTINUOUS
  70
0
  3
Solid line
  72
65
  73
0
  40
0.0
  0
LTYPE
  5
410
  2
DASHDOT
 70
0
  3
Dash Dot ____ _ ____ _
 72
65
 73
4
 40
2.0
 49
1.25
 49
-0.25
 49
0.25
 49
-0.25
  0
LTYPE
  5
411
  2
DASHED
 70
0
  3
Dashed __ __ __ __ __
 72
65
 73
2
 40
0.75
 49
0.5
 49
-0.25
  0
LTYPE
  5
43B
  2
DOTTED
 70
0
  3
Dotted .  .  .  .
 72
65
 73
2
 40
0.2
 49
0.0
 49
-0.2
  0
ENDTAB
  0
TABLE
  2
STYLE
  70
4
  0
STYLE
  2
KICAD
  70
0
  40
0
  41
1
  42
1
  50
0
  71
0
  3
isocp.shx
  0
STYLE
  2
KICADB
  70
0
  40
0
  41
1
  42
1
  50
0
  71
0
  3
isocp.shx
  0
STYLE
  2
KICADI
  70
0
  40
0
  41
1
  42
1
  50
15
  71
0
  3
isocp.shx
  0
STYLE
  2
KICADBI
  70
0
  40
0
  41
1
  42
1
  50
15
  71
0
  3
isocp.shx
  0
ENDTAB
  0
TABLE
  2
LAYER
  70
1
  0
LAYER
  2
BLACK
  70
0
  62
7
  6
CONTINUOUS
  0
ENDTAB
  0
ENDSEC
  0
SECTION
  2
ENTITIES
0
LINE
8
BLACK
6
CONTINUOUS
10
94.13
20
-143.047
11
94.1183
21
-143.045
0
LINE
8
BLACK
6
CONTINUOUS
10
94.1183
20
-143.045
11
94.1045
21
-143.04
0
LINE
8
BLACK
6
CONTINUOUS
10
94.1045
20
-143.04
11
94.0997
21
-143.037
0
LINE
8
BLACK
6
CONTINUOUS
10
94.0997
20
-143.037
11
94.0919
21
-143.032
0
LINE
8
BLACK
6
CONTINUOUS
10
94.0919
20
-143.032
11
94.0812
21
-143.022
0
LINE
8
BLACK
6
CONTINUOUS
10
94.0812
20
-143.022
11
94.0747
21
-143.013
0
LINE
8
BLACK
6
CONTINUOUS
10
94.0747
20
-143.013
11
94.0747
21
-143.013
0
LINE
8
BLACK
6
CONTINUOUS
10
94.0747
20
-143.013
11
94.0726
21
-143.01
0
LINE
8
BLACK
6
CONTINUOUS
10
94.0726
20
-143.01
11
94.071
21
-143.007
0
LINE
8
BLACK
6
CONTINUOUS
10
94.071
20
-143.007
11
87.0747
21
-130.889
0
LINE
8
BLACK
6
CONTINUOUS
10
87.0747
20
-130.889
11
87.0726
21
-130.886
0
LINE
8
BLACK
6
CONTINUOUS
10
87.0726
20
-130.886
11
87.068
21
-130.875
0
LINE
8
BLACK
6
CONTINUOUS
10
87.068
20
-130.875
11
87.0665
21
-130.872
0
LINE
8
BLACK
6
CONTINUOUS
10
87.0665
20
-130.872
11
87.0631
21
-130.858
0
LINE
8
BLACK
6
CONTINUOUS
10
87.0631
20
-130.858
11
87.0626
21
-130.843
0
LINE
8
BLACK
6
CONTINUOUS
10
87.0626
20
-130.843
11
87.065
21
-130.828
0
LINE
8
BLACK
6
CONTINUOUS
10
87.065
20
-130.828
11
87.0702
21
-130.814
0
LINE
8
BLACK
6
CONTINUOUS
10
87.0702
20
-130.814
11
87.078
21
-130.802
0
LINE
8
BLACK
6
CONTINUOUS
10
87.078
20
-130.802
11
87.0881
21
-130.791
0
LINE
8
BLACK
6
CONTINUOUS
10
87.0881
20
-130.791
11
87.1001
21
-130.783
0
LINE
8
BLACK
6
CONTINUOUS
10
87.1001
20
-130.783
11
87.1035
21
-130.781
0
LINE
8
BLACK
6
CONTINUOUS
10
87.1035
20
-130.781
11
99.2215
21
-123.785
0
LINE
8
BLACK
6
CONTINUOUS
10
99.2215
20
-123.785
11
99.2245
21
-123.783
0
LINE
8
BLACK
6
CONTINUOUS
10
99.2245
20
-123.783
11
99.2279
21
-123.781
0
LINE
8
BLACK
6
CONTINUOUS
10
99.2279
20
-123.781
11
99.2279
21
-123.781
0
LINE
8
BLACK
6
CONTINUOUS
10
99.2279
20
-123.781
11
99.238
21
-123.776
0
LINE
8
BLACK
6
CONTINUOUS
10
99.238
20
-123.776
11
99.2413
21
-123.776
0
LINE
8
BLACK
6
CONTINUOUS
10
99.2413
20
-123.776
11
99.2523
21
-123.773
0
LINE
8
BLACK
6
CONTINUOUS
10
99.2523
20
-123.773
11
99.2666
21
-123.773
0
LINE
8
BLACK
6
CONTINUOUS
10
99.2666
20
-123.773
11
99.2671
21
-123.773
0
LINE
8
BLACK
6
CONTINUOUS
10
99.2671
20
-123.773
11
99.2671
21
-123.773
0
LINE
8
BLACK
6
CONTINUOUS
10
99.2671
20
-123.773
11
99.2817
21
-123.775
0
LINE
8
BLACK
6
CONTINUOUS
10
99.2817
20
-123.775
11
99.2955
21
-123.78
0
LINE
8
BLACK
6
CONTINUOUS
10
99.2955
20
-123.78
11
99.3081
21
-123.788
0
LINE
8
BLACK
6
CONTINUOUS
10
99.3081
20
-123.788
11
99.3188
21
-123.798
0
LINE
8
BLACK
6
CONTINUOUS
10
99.3188
20
-123.798
11
99.3216
21
-123.802
0
LINE
8
BLACK
6
CONTINUOUS
10
99.3216
20
-123.802
11
99.3274
21
-123.81
0
LINE
8
BLACK
6
CONTINUOUS
10
99.3274
20
-123.81
11
99.329
21
-123.814
0
LINE
8
BLACK
6
CONTINUOUS
10
99.329
20
-123.814
11
106.325
21
-135.932
0
LINE
8
BLACK
6
CONTINUOUS
10
106.325
20
-135.932
11
106.327
21
-135.934
0
LINE
8
BLACK
6
CONTINUOUS
10
106.327
20
-135.934
11
106.329
21
-135.938
0
LINE
8
BLACK
6
CONTINUOUS
10
106.329
20
-135.938
11
106.329
21
-135.938
0
LINE
8
BLACK
6
CONTINUOUS
10
106.329
20
-135.938
11
106.334
21
-135.948
0
LINE
8
BLACK
6
CONTINUOUS
10
106.334
20
-135.948
11
106.334
21
-135.948
0
LINE
8
BLACK
6
CONTINUOUS
10
106.334
20
-135.948
11
106.337
21
-135.962
0
LINE
8
BLACK
6
CONTINUOUS
10
106.337
20
-135.962
11
106.337
21
-135.977
0
LINE
8
BLACK
6
CONTINUOUS
10
106.337
20
-135.977
11
106.335
21
-135.992
0
LINE
8
BLACK
6
CONTINUOUS
10
106.335
20
-135.992
11
106.33
21
-136.006
0
LINE
8
BLACK
6
CONTINUOUS
10
106.33
20
-136.006
11
106.322
21
-136.018
0
LINE
8
BLACK
6
CONTINUOUS
10
106.322
20
-136.018
11
106.312
21
-136.029
0
LINE
8
BLACK
6
CONTINUOUS
10
106.312
20
-136.029
11
106.303
21
-136.035
0
LINE
8
BLACK
6
CONTINUOUS
10
106.303
20
-136.035
11
106.303
21
-136.035
0
LINE
8
BLACK
6
CONTINUOUS
10
106.303
20
-136.035
11
106.3
21
-136.037
0
LINE
8
BLACK
6
CONTINUOUS
10
106.3
20
-136.037
11
106.297
21
-136.039
0
LINE
8
BLACK
6
CONTINUOUS
10
106.297
20
-136.039
11
94.1785
21
-143.035
0
LINE
8
BLACK
6
CONTINUOUS
10
94.1785
20
-143.035
11
94.1755
21
-143.037
0
LINE
8
BLACK
6
CONTINUOUS
10
94.1755
20
-143.037
11
94.1721
21
-143.039
0
LINE
8
BLACK
6
CONTINUOUS
10
94.1721
20
-143.039
11
94.1721
21
-143.039
0
LINE
8
BLACK
6
CONTINUOUS
10
94.1721
20
-143.039
11
94.162
21
-143.044
0
LINE
8
BLACK
6
CONTINUOUS
10
94.162
20
-143.044
11
94.1477
21
-143.047
0
LINE
8
BLACK
6
CONTINUOUS
10
94.1477
20
-143.047
11
94.1329
21
-143.047
0
LINE
8
BLACK
6
CONTINUOUS
10
94.1329
20
-143.047
11
94.1329
21
-143.047
0
LINE
8
BLACK
6
CONTINUOUS
10
94.1329
20
-143.047
11
94.13
21
-143.047
0
LINE
8
BLACK
6
CONTINUOUS
10
87.2403
20
-130.875
11
94.1653
21
-142.87
0
LINE
8
BLACK
6
CONTINUOUS
10
94.1653
20
-142.87
11
106.16
21
-135.945
0
LINE
8
BLACK
6
CONTINUOUS
10
106.16
20
-135.945
11
99.2347
21
-123.95
0
LINE
8
BLACK
6
CONTINUOUS
10
99.2347
20
-123.95
11
87.2403
21
-130.875
0
LINE
8
BLACK
6
CONTINUOUS
10
121.322
20
-119.147
11
121.337
21
-119.151
0
LINE
8
BLACK
6
CONTINUOUS
10
121.337
20
-119.151
11
121.35
21
-119.158
0
LINE
8
BLACK
6
CONTINUOUS
10
121.35
20
-119.158
11
121.361
21
-119.168
0
LINE
8
BLACK
6
CONTINUOUS
10
121.361
20
-119.168
11
121.371
21
-119.179
0
LINE
8
BLACK
6
CONTINUOUS
10
121.371
20
-119.179
11
121.378
21
-119.192
0
LINE
8
BLACK
6
CONTINUOUS
10
121.378
20
-119.192
11
121.379
21
-119.195
0
LINE
8
BLACK
6
CONTINUOUS
10
121.379
20
-119.195
11
126.846
21
-132.076
0
LINE
8
BLACK
6
CONTINUOUS
10
126.846
20
-132.076
11
126.848
21
-132.079
0
LINE
8
BLACK
6
CONTINUOUS
10
126.848
20
-132.079
11
126.849
21
-132.082
0
LINE
8
BLACK
6
CONTINUOUS
10
126.849
20
-132.082
11
126.849
21
-132.082
0
LINE
8
BLACK
6
CONTINUOUS
10
126.849
20
-132.082
11
126.852
21
-132.093
0
LINE
8
BLACK
6
CONTINUOUS
10
126.852
20
-132.093
11
126.852
21
-132.093
0
LINE
8
BLACK
6
CONTINUOUS
10
126.852
20
-132.093
11
126.854
21
-132.108
0
LINE
8
BLACK
6
CONTINUOUS
10
126.854
20
-132.108
11
126.853
21
-132.122
0
LINE
8
BLACK
6
CONTINUOUS
10
126.853
20
-132.122
11
126.849
21
-132.137
0
LINE
8
BLACK
6
CONTINUOUS
10
126.849
20
-132.137
11
126.842
21
-132.15
0
LINE
8
BLACK
6
CONTINUOUS
10
126.842
20
-132.15
11
126.832
21
-132.161
0
LINE
8
BLACK
6
CONTINUOUS
10
126.832
20
-132.161
11
126.821
21
-132.171
0
LINE
8
BLACK
6
CONTINUOUS
10
126.821
20
-132.171
11
126.811
21
-132.176
0
LINE
8
BLACK
6
CONTINUOUS
10
126.811
20
-132.176
11
126.811
21
-132.176
0
LINE
8
BLACK
6
CONTINUOUS
10
126.811
20
-132.176
11
126.808
21
-132.178
0
LINE
8
BLACK
6
CONTINUOUS
10
126.808
20
-132.178
11
126.805
21
-132.179
0
LINE
8
BLACK
6
CONTINUOUS
10
126.805
20
-132.179
11
113.924
21
-137.646
0
LINE
8
BLACK
6
CONTINUOUS
10
113.924
20
-137.646
11
113.921
21
-137.648
0
LINE
8
BLACK
6
CONTINUOUS
10
113.921
20
-137.648
11
113.918
21
-137.649
0
LINE
8
BLACK
6
CONTINUOUS
10
113.918
20
-137.649
11
113.918
21
-137.649
0
LINE
8
BLACK
6
CONTINUOUS
10
113.918
20
-137.649
11
113.907
21
-137.652
0
LINE
8
BLACK
6
CONTINUOUS
10
113.907
20
-137.652
11
113.892
21
-137.654
0
LINE
8
BLACK
6
CONTINUOUS
10
113.892
20
-137.654
11
113.878
21
-137.653
0
LINE
8
BLACK
6
CONTINUOUS
10
113.878
20
-137.653
11
113.863
21
-137.649
0
LINE
8
BLACK
6
CONTINUOUS
10
113.863
20
-137.649
11
113.85
21
-137.642
0
LINE
8
BLACK
6
CONTINUOUS
10
113.85
20
-137.642
11
113.839
21
-137.632
0
LINE
8
BLACK
6
CONTINUOUS
10
113.839
20
-137.632
11
113.829
21
-137.621
0
LINE
8
BLACK
6
CONTINUOUS
10
113.829
20
-137.621
11
113.824
21
-137.611
0
LINE
8
BLACK
6
CONTINUOUS
10
113.824
20
-137.611
11
113.824
21
-137.611
0
LINE
8
BLACK
6
CONTINUOUS
10
113.824
20
-137.611
11
113.822
21
-137.608
0
LINE
8
BLACK
6
CONTINUOUS
10
113.822
20
-137.608
11
113.821
21
-137.605
0
LINE
8
BLACK
6
CONTINUOUS
10
113.821
20
-137.605
11
108.354
21
-124.724
0
LINE
8
BLACK
6
CONTINUOUS
10
108.354
20
-124.724
11
108.352
21
-124.721
0
LINE
8
BLACK
6
CONTINUOUS
10
108.352
20
-124.721
11
108.348
21
-124.707
0
LINE
8
BLACK
6
CONTINUOUS
10
108.348
20
-124.707
11
108.346
21
-124.692
0
LINE
8
BLACK
6
CONTINUOUS
10
108.346
20
-124.692
11
108.347
21
-124.678
0
LINE
8
BLACK
6
CONTINUOUS
10
108.347
20
-124.678
11
108.351
21
-124.663
0
LINE
8
BLACK
6
CONTINUOUS
10
108.351
20
-124.663
11
108.358
21
-124.65
0
LINE
8
BLACK
6
CONTINUOUS
10
108.358
20
-124.65
11
108.368
21
-124.639
0
LINE
8
BLACK
6
CONTINUOUS
10
108.368
20
-124.639
11
108.379
21
-124.629
0
LINE
8
BLACK
6
CONTINUOUS
10
108.379
20
-124.629
11
108.38
21
-124.629
0
LINE
8
BLACK
6
CONTINUOUS
10
108.38
20
-124.629
11
108.392
21
-124.622
0
LINE
8
BLACK
6
CONTINUOUS
10
108.392
20
-124.622
11
108.395
21
-124.621
0
LINE
8
BLACK
6
CONTINUOUS
10
108.395
20
-124.621
11
121.276
21
-119.154
0
LINE
8
BLACK
6
CONTINUOUS
10
121.276
20
-119.154
11
121.279
21
-119.152
0
LINE
8
BLACK
6
CONTINUOUS
10
121.279
20
-119.152
11
121.287
21
-119.15
0
LINE
8
BLACK
6
CONTINUOUS
10
121.287
20
-119.15
11
121.293
21
-119.148
0
LINE
8
BLACK
6
CONTINUOUS
10
121.293
20
-119.148
11
121.308
21
-119.146
0
LINE
8
BLACK
6
CONTINUOUS
10
121.308
20
-119.146
11
121.308
21
-119.146
0
LINE
8
BLACK
6
CONTINUOUS
10
121.308
20
-119.146
11
121.322
21
-119.147
0
LINE
8
BLACK
6
CONTINUOUS
10
108.52
20
-124.731
11
113.931
21
-137.48
0
LINE
8
BLACK
6
CONTINUOUS
10
113.931
20
-137.48
11
126.68
21
-132.069
0
LINE
8
BLACK
6
CONTINUOUS
10
126.68
20
-132.069
11
121.269
21
-119.32
0
LINE
8
BLACK
6
CONTINUOUS
10
121.269
20
-119.32
11
108.52
21
-124.731
0
LINE
8
BLACK
6
CONTINUOUS
10
146.504
20
-116.725
11
146.515
21
-116.726
0
LINE
8
BLACK
6
CONTINUOUS
10
146.515
20
-116.726
11
146.529
21
-116.73
0
LINE
8
BLACK
6
CONTINUOUS
10
146.529
20
-116.73
11
146.542
21
-116.737
0
LINE
8
BLACK
6
CONTINUOUS
10
146.542
20
-116.737
11
146.553
21
-116.747
0
LINE
8
BLACK
6
CONTINUOUS
10
146.553
20
-116.747
11
146.563
21
-116.758
0
LINE
8
BLACK
6
CONTINUOUS
10
146.563
20
-116.758
11
146.57
21
-116.771
0
LINE
8
BLACK
6
CONTINUOUS
10
146.57
20
-116.771
11
146.574
21
-116.785
0
LINE
8
BLACK
6
CONTINUOUS
10
146.574
20
-116.785
11
146.575
21
-116.8
0
LINE
8
BLACK
6
CONTINUOUS
10
146.575
20
-116.8
11
146.575
21
-116.804
0
LINE
8
BLACK
6
CONTINUOUS
10
146.575
20
-116.804
11
146.575
21
-130.796
0
LINE
8
BLACK
6
CONTINUOUS
10
146.575
20
-130.796
11
146.575
21
-130.8
0
LINE
8
BLACK
6
CONTINUOUS
10
146.575
20
-130.8
11
146.574
21
-130.815
0
LINE
8
BLACK
6
CONTINUOUS
10
146.574
20
-130.815
11
146.57
21
-130.829
0
LINE
8
BLACK
6
CONTINUOUS
10
146.57
20
-130.829
11
146.563
21
-130.842
0
LINE
8
BLACK
6
CONTINUOUS
10
146.563
20
-130.842
11
146.553
21
-130.853
0
LINE
8
BLACK
6
CONTINUOUS
10
146.553
20
-130.853
11
146.542
21
-130.863
0
LINE
8
BLACK
6
CONTINUOUS
10
146.542
20
-130.863
11
146.529
21
-130.87
0
LINE
8
BLACK
6
CONTINUOUS
10
146.529
20
-130.87
11
146.515
21
-130.874
0
LINE
8
BLACK
6
CONTINUOUS
10
146.515
20
-130.874
11
146.504
21
-130.875
0
LINE
8
BLACK
6
CONTINUOUS
10
146.504
20
-130.875
11
146.5
21
-130.875
0
LINE
8
BLACK
6
CONTINUOUS
10
146.5
20
-130.875
11
146.496
21
-130.875
0
LINE
8
BLACK
6
CONTINUOUS
10
146.496
20
-130.875
11
132.504
21
-130.875
0
LINE
8
BLACK
6
CONTINUOUS
10
132.504
20
-130.875
11
132.5
21
-130.875
0
LINE
8
BLACK
6
CONTINUOUS
10
132.5
20
-130.875
11
132.485
21
-130.874
0
LINE
8
BLACK
6
CONTINUOUS
10
132.485
20
-130.874
11
132.471
21
-130.87
0
LINE
8
BLACK
6
CONTINUOUS
10
132.471
20
-130.87
11
132.458
21
-130.863
0
LINE
8
BLACK
6
CONTINUOUS
10
132.458
20
-130.863
11
132.447
21
-130.853
0
LINE
8
BLACK
6
CONTINUOUS
10
132.447
20
-130.853
11
132.437
21
-130.842
0
LINE
8
BLACK
6
CONTINUOUS
10
132.437
20
-130.842
11
132.43
21
-130.829
0
LINE
8
BLACK
6
CONTINUOUS
10
132.43
20
-130.829
11
132.426
21
-130.815
0
LINE
8
BLACK
6
CONTINUOUS
10
132.426
20
-130.815
11
132.425
21
-130.8
0
LINE
8
BLACK
6
CONTINUOUS
10
132.425
20
-130.8
11
132.425
21
-130.796
0
LINE
8
BLACK
6
CONTINUOUS
10
132.425
20
-130.796
11
132.425
21
-116.804
0
LINE
8
BLACK
6
CONTINUOUS
10
132.425
20
-116.804
11
132.425
21
-116.8
0
LINE
8
BLACK
6
CONTINUOUS
10
132.425
20
-116.8
11
132.426
21
-116.785
0
LINE
8
BLACK
6
CONTINUOUS
10
132.426
20
-116.785
11
132.43
21
-116.771
0
LINE
8
BLACK
6
CONTINUOUS
10
132.43
20
-116.771
11
132.437
21
-116.758
0
LINE
8
BLACK
6
CONTINUOUS
10
132.437
20
-116.758
11
132.447
21
-116.747
0
LINE
8
BLACK
6
CONTINUOUS
10
132.447
20
-116.747
11
132.458
21
-116.737
0
LINE
8
BLACK
6
CONTINUOUS
10
132.458
20
-116.737
11
132.471
21
-116.73
0
LINE
8
BLACK
6
CONTINUOUS
10
132.471
20
-116.73
11
132.485
21
-116.726
0
LINE
8
BLACK
6
CONTINUOUS
10
132.485
20
-116.726
11
132.496
21
-116.725
0
LINE
8
BLACK
6
CONTINUOUS
10
132.496
20
-116.725
11
132.5
21
-116.725
0
LINE
8
BLACK
6
CONTINUOUS
10
132.5
20
-116.725
11
132.504
21
-116.725
0
LINE
8
BLACK
6
CONTINUOUS
10
132.504
20
-116.725
11
146.496
21
-116.725
0
LINE
8
BLACK
6
CONTINUOUS
10
146.496
20
-116.725
11
146.5
21
-116.725
0
LINE
8
BLACK
6
CONTINUOUS
10
146.5
20
-116.725
11
146.504
21
-116.725
0
LINE
8
BLACK
6
CONTINUOUS
10
132.575
20
-116.875
11
132.575
21
-130.725
0
LINE
8
BLACK
6
CONTINUOUS
10
132.575
20
-130.725
11
146.425
21
-130.725
0
LINE
8
BLACK
6
CONTINUOUS
10
146.425
20
-130.725
11
146.425
21
-116.875
0
LINE
8
BLACK
6
CONTINUOUS
10
146.425
20
-116.875
11
132.575
21
-116.875
0
LINE
8
BLACK
6
CONTINUOUS
10
184.504
20
-116.625
11
184.515
21
-116.626
0
LINE
8
BLACK
6
CONTINUOUS
10
184.515
20
-116.626
11
184.529
21
-116.63
0
LINE
8
BLACK
6
CONTINUOUS
10
184.529
20
-116.63
11
184.542
21
-116.637
0
LINE
8
BLACK
6
CONTINUOUS
10
184.542
20
-116.637
11
184.553
21
-116.647
0
LINE
8
BLACK
6
CONTINUOUS
10
184.553
20
-116.647
11
184.563
21
-116.658
0
LINE
8
BLACK
6
CONTINUOUS
10
184.563
20
-116.658
11
184.57
21
-116.671
0
LINE
8
BLACK
6
CONTINUOUS
10
184.57
20
-116.671
11
184.574
21
-116.685
0
LINE
8
BLACK
6
CONTINUOUS
10
184.574
20
-116.685
11
184.575
21
-116.7
0
LINE
8
BLACK
6
CONTINUOUS
10
184.575
20
-116.7
11
184.575
21
-116.704
0
LINE
8
BLACK
6
CONTINUOUS
10
184.575
20
-116.704
11
184.575
21
-130.696
0
LINE
8
BLACK
6
CONTINUOUS
10
184.575
20
-130.696
11
184.575
21
-130.7
0
LINE
8
BLACK
6
CONTINUOUS
10
184.575
20
-130.7
11
184.574
21
-130.715
0
LINE
8
BLACK
6
CONTINUOUS
10
184.574
20
-130.715
11
184.57
21
-130.729
0
LINE
8
BLACK
6
CONTINUOUS
10
184.57
20
-130.729
11
184.563
21
-130.742
0
LINE
8
BLACK
6
CONTINUOUS
10
184.563
20
-130.742
11
184.553
21
-130.753
0
LINE
8
BLACK
6
CONTINUOUS
10
184.553
20
-130.753
11
184.542
21
-130.763
0
LINE
8
BLACK
6
CONTINUOUS
10
184.542
20
-130.763
11
184.529
21
-130.77
0
LINE
8
BLACK
6
CONTINUOUS
10
184.529
20
-130.77
11
184.515
21
-130.774
0
LINE
8
BLACK
6
CONTINUOUS
10
184.515
20
-130.774
11
184.504
21
-130.775
0
LINE
8
BLACK
6
CONTINUOUS
10
184.504
20
-130.775
11
184.5
21
-130.775
0
LINE
8
BLACK
6
CONTINUOUS
10
184.5
20
-130.775
11
184.496
21
-130.775
0
LINE
8
BLACK
6
CONTINUOUS
10
184.496
20
-130.775
11
170.504
21
-130.775
0
LINE
8
BLACK
6
CONTINUOUS
10
170.504
20
-130.775
11
170.5
21
-130.775
0
LINE
8
BLACK
6
CONTINUOUS
10
170.5
20
-130.775
11
170.485
21
-130.774
0
LINE
8
BLACK
6
CONTINUOUS
10
170.485
20
-130.774
11
170.471
21
-130.77
0
LINE
8
BLACK
6
CONTINUOUS
10
170.471
20
-130.77
11
170.458
21
-130.763
0
LINE
8
BLACK
6
CONTINUOUS
10
170.458
20
-130.763
11
170.447
21
-130.753
0
LINE
8
BLACK
6
CONTINUOUS
10
170.447
20
-130.753
11
170.441
21
-130.747
0
LINE
8
BLACK
6
CONTINUOUS
10
170.441
20
-130.747
11
170.437
21
-130.742
0
LINE
8
BLACK
6
CONTINUOUS
10
170.437
20
-130.742
11
170.43
21
-130.729
0
LINE
8
BLACK
6
CONTINUOUS
10
170.43
20
-130.729
11
170.426
21
-130.715
0
LINE
8
BLACK
6
CONTINUOUS
10
170.426
20
-130.715
11
170.425
21
-130.7
0
LINE
8
BLACK
6
CONTINUOUS
10
170.425
20
-130.7
11
170.425
21
-130.696
0
LINE
8
BLACK
6
CONTINUOUS
10
170.425
20
-130.696
11
170.425
21
-116.704
0
LINE
8
BLACK
6
CONTINUOUS
10
170.425
20
-116.704
11
170.425
21
-116.7
0
LINE
8
BLACK
6
CONTINUOUS
10
170.425
20
-116.7
11
170.426
21
-116.685
0
LINE
8
BLACK
6
CONTINUOUS
10
170.426
20
-116.685
11
170.43
21
-116.671
0
LINE
8
BLACK
6
CONTINUOUS
10
170.43
20
-116.671
11
170.437
21
-116.658
0
LINE
8
BLACK
6
CONTINUOUS
10
170.437
20
-116.658
11
170.447
21
-116.647
0
LINE
8
BLACK
6
CONTINUOUS
10
170.447
20
-116.647
11
170.458
21
-116.637
0
LINE
8
BLACK
6
CONTINUOUS
10
170.458
20
-116.637
11
170.471
21
-116.63
0
LINE
8
BLACK
6
CONTINUOUS
10
170.471
20
-116.63
11
170.485
21
-116.626
0
LINE
8
BLACK
6
CONTINUOUS
10
170.485
20
-116.626
11
170.496
21
-116.625
0
LINE
8
BLACK
6
CONTINUOUS
10
170.496
20
-116.625
11
170.5
21
-116.625
0
LINE
8
BLACK
6
CONTINUOUS
10
170.5
20
-116.625
11
170.504
21
-116.625
0
LINE
8
BLACK
6
CONTINUOUS
10
170.504
20
-116.625
11
184.496
21
-116.625
0
LINE
8
BLACK
6
CONTINUOUS
10
184.496
20
-116.625
11
184.5
21
-116.625
0
LINE
8
BLACK
6
CONTINUOUS
10
184.5
20
-116.625
11
184.504
21
-116.625
0
LINE
8
BLACK
6
CONTINUOUS
10
170.575
20
-116.775
11
170.575
21
-130.625
0
LINE
8
BLACK
6
CONTINUOUS
10
170.575
20
-130.625
11
184.425
21
-130.625
0
LINE
8
BLACK
6
CONTINUOUS
10
184.425
20
-130.625
11
184.425
21
-116.775
0
LINE
8
BLACK
6
CONTINUOUS
10
184.425
20
-116.775
11
170.575
21
-116.775
0
LINE
8
BLACK
6
CONTINUOUS
10
165.504
20
-114.125
11
165.515
21
-114.126
0
LINE
8
BLACK
6
CONTINUOUS
10
165.515
20
-114.126
11
165.529
21
-114.13
0
LINE
8
BLACK
6
CONTINUOUS
10
165.529
20
-114.13
11
165.542
21
-114.137
0
LINE
8
BLACK
6
CONTINUOUS
10
165.542
20
-114.137
11
165.553
21
-114.147
0
LINE
8
BLACK
6
CONTINUOUS
10
165.553
20
-114.147
11
165.563
21
-114.158
0
LINE
8
BLACK
6
CONTINUOUS
10
165.563
20
-114.158
11
165.57
21
-114.171
0
LINE
8
BLACK
6
CONTINUOUS
10
165.57
20
-114.171
11
165.574
21
-114.185
0
LINE
8
BLACK
6
CONTINUOUS
10
165.574
20
-114.185
11
165.575
21
-114.2
0
LINE
8
BLACK
6
CONTINUOUS
10
165.575
20
-114.2
11
165.575
21
-114.204
0
LINE
8
BLACK
6
CONTINUOUS
10
165.575
20
-114.204
11
165.575
21
-128.196
0
LINE
8
BLACK
6
CONTINUOUS
10
165.575
20
-128.196
11
165.575
21
-128.2
0
LINE
8
BLACK
6
CONTINUOUS
10
165.575
20
-128.2
11
165.574
21
-128.215
0
LINE
8
BLACK
6
CONTINUOUS
10
165.574
20
-128.215
11
165.57
21
-128.229
0
LINE
8
BLACK
6
CONTINUOUS
10
165.57
20
-128.229
11
165.563
21
-128.242
0
LINE
8
BLACK
6
CONTINUOUS
10
165.563
20
-128.242
11
165.553
21
-128.253
0
LINE
8
BLACK
6
CONTINUOUS
10
165.553
20
-128.253
11
165.542
21
-128.263
0
LINE
8
BLACK
6
CONTINUOUS
10
165.542
20
-128.263
11
165.529
21
-128.27
0
LINE
8
BLACK
6
CONTINUOUS
10
165.529
20
-128.27
11
165.515
21
-128.274
0
LINE
8
BLACK
6
CONTINUOUS
10
165.515
20
-128.274
11
165.504
21
-128.275
0
LINE
8
BLACK
6
CONTINUOUS
10
165.504
20
-128.275
11
165.5
21
-128.275
0
LINE
8
BLACK
6
CONTINUOUS
10
165.5
20
-128.275
11
165.496
21
-128.275
0
LINE
8
BLACK
6
CONTINUOUS
10
165.496
20
-128.275
11
151.504
21
-128.275
0
LINE
8
BLACK
6
CONTINUOUS
10
151.504
20
-128.275
11
151.5
21
-128.275
0
LINE
8
BLACK
6
CONTINUOUS
10
151.5
20
-128.275
11
151.485
21
-128.274
0
LINE
8
BLACK
6
CONTINUOUS
10
151.485
20
-128.274
11
151.471
21
-128.27
0
LINE
8
BLACK
6
CONTINUOUS
10
151.471
20
-128.27
11
151.458
21
-128.263
0
LINE
8
BLACK
6
CONTINUOUS
10
151.458
20
-128.263
11
151.447
21
-128.253
0
LINE
8
BLACK
6
CONTINUOUS
10
151.447
20
-128.253
11
151.437
21
-128.242
0
LINE
8
BLACK
6
CONTINUOUS
10
151.437
20
-128.242
11
151.43
21
-128.229
0
LINE
8
BLACK
6
CONTINUOUS
10
151.43
20
-128.229
11
151.426
21
-128.215
0
LINE
8
BLACK
6
CONTINUOUS
10
151.426
20
-128.215
11
151.425
21
-128.2
0
LINE
8
BLACK
6
CONTINUOUS
10
151.425
20
-128.2
11
151.425
21
-128.196
0
LINE
8
BLACK
6
CONTINUOUS
10
151.425
20
-128.196
11
151.425
21
-114.204
0
LINE
8
BLACK
6
CONTINUOUS
10
151.425
20
-114.204
11
151.425
21
-114.2
0
LINE
8
BLACK
6
CONTINUOUS
10
151.425
20
-114.2
11
151.426
21
-114.185
0
LINE
8
BLACK
6
CONTINUOUS
10
151.426
20
-114.185
11
151.43
21
-114.171
0
LINE
8
BLACK
6
CONTINUOUS
10
151.43
20
-114.171
11
151.437
21
-114.158
0
LINE
8
BLACK
6
CONTINUOUS
10
151.437
20
-114.158
11
151.447
21
-114.147
0
LINE
8
BLACK
6
CONTINUOUS
10
151.447
20
-114.147
11
151.458
21
-114.137
0
LINE
8
BLACK
6
CONTINUOUS
10
151.458
20
-114.137
11
151.471
21
-114.13
0
LINE
8
BLACK
6
CONTINUOUS
10
151.471
20
-114.13
11
151.485
21
-114.126
0
LINE
8
BLACK
6
CONTINUOUS
10
151.485
20
-114.126
11
151.496
21
-114.125
0
LINE
8
BLACK
6
CONTINUOUS
10
151.496
20
-114.125
11
151.5
21
-114.125
0
LINE
8
BLACK
6
CONTINUOUS
10
151.5
20
-114.125
11
151.504
21
-114.125
0
LINE
8
BLACK
6
CONTINUOUS
10
151.504
20
-114.125
11
165.496
21
-114.125
0
LINE
8
BLACK
6
CONTINUOUS
10
165.496
20
-114.125
11
165.5
21
-114.125
0
LINE
8
BLACK
6
CONTINUOUS
10
165.5
20
-114.125
11
165.504
21
-114.125
0
LINE
8
BLACK
6
CONTINUOUS
10
151.575
20
-114.275
11
151.575
21
-128.125
0
LINE
8
BLACK
6
CONTINUOUS
10
151.575
20
-128.125
11
165.425
21
-128.125
0
LINE
8
BLACK
6
CONTINUOUS
10
165.425
20
-128.125
11
165.425
21
-114.275
0
LINE
8
BLACK
6
CONTINUOUS
10
165.425
20
-114.275
11
151.575
21
-114.275
0
LINE
8
BLACK
6
CONTINUOUS
10
222.554
20
-106.525
11
222.565
21
-106.526
0
LINE
8
BLACK
6
CONTINUOUS
10
222.565
20
-106.526
11
222.579
21
-106.53
0
LINE
8
BLACK
6
CONTINUOUS
10
222.579
20
-106.53
11
222.592
21
-106.537
0
LINE
8
BLACK
6
CONTINUOUS
10
222.592
20
-106.537
11
222.603
21
-106.547
0
LINE
8
BLACK
6
CONTINUOUS
10
222.603
20
-106.547
11
222.613
21
-106.558
0
LINE
8
BLACK
6
CONTINUOUS
10
222.613
20
-106.558
11
222.62
21
-106.571
0
LINE
8
BLACK
6
CONTINUOUS
10
222.62
20
-106.571
11
222.624
21
-106.585
0
LINE
8
BLACK
6
CONTINUOUS
10
222.624
20
-106.585
11
222.625
21
-106.6
0
LINE
8
BLACK
6
CONTINUOUS
10
222.625
20
-106.6
11
222.625
21
-106.604
0
LINE
8
BLACK
6
CONTINUOUS
10
222.625
20
-106.604
11
222.625
21
-120.596
0
LINE
8
BLACK
6
CONTINUOUS
10
222.625
20
-120.596
11
222.625
21
-120.6
0
LINE
8
BLACK
6
CONTINUOUS
10
222.625
20
-120.6
11
222.624
21
-120.615
0
LINE
8
BLACK
6
CONTINUOUS
10
222.624
20
-120.615
11
222.62
21
-120.629
0
LINE
8
BLACK
6
CONTINUOUS
10
222.62
20
-120.629
11
222.613
21
-120.642
0
LINE
8
BLACK
6
CONTINUOUS
10
222.613
20
-120.642
11
222.603
21
-120.653
0
LINE
8
BLACK
6
CONTINUOUS
10
222.603
20
-120.653
11
222.592
21
-120.663
0
LINE
8
BLACK
6
CONTINUOUS
10
222.592
20
-120.663
11
222.579
21
-120.67
0
LINE
8
BLACK
6
CONTINUOUS
10
222.579
20
-120.67
11
222.565
21
-120.674
0
LINE
8
BLACK
6
CONTINUOUS
10
222.565
20
-120.674
11
222.554
21
-120.675
0
LINE
8
BLACK
6
CONTINUOUS
10
222.554
20
-120.675
11
222.55
21
-120.675
0
LINE
8
BLACK
6
CONTINUOUS
10
222.55
20
-120.675
11
222.546
21
-120.675
0
LINE
8
BLACK
6
CONTINUOUS
10
222.546
20
-120.675
11
208.554
21
-120.675
0
LINE
8
BLACK
6
CONTINUOUS
10
208.554
20
-120.675
11
208.55
21
-120.675
0
LINE
8
BLACK
6
CONTINUOUS
10
208.55
20
-120.675
11
208.535
21
-120.674
0
LINE
8
BLACK
6
CONTINUOUS
10
208.535
20
-120.674
11
208.521
21
-120.67
0
LINE
8
BLACK
6
CONTINUOUS
10
208.521
20
-120.67
11
208.508
21
-120.663
0
LINE
8
BLACK
6
CONTINUOUS
10
208.508
20
-120.663
11
208.497
21
-120.653
0
LINE
8
BLACK
6
CONTINUOUS
10
208.497
20
-120.653
11
208.487
21
-120.642
0
LINE
8
BLACK
6
CONTINUOUS
10
208.487
20
-120.642
11
208.48
21
-120.629
0
LINE
8
BLACK
6
CONTINUOUS
10
208.48
20
-120.629
11
208.476
21
-120.615
0
LINE
8
BLACK
6
CONTINUOUS
10
208.476
20
-120.615
11
208.475
21
-120.6
0
LINE
8
BLACK
6
CONTINUOUS
10
208.475
20
-120.6
11
208.475
21
-120.596
0
LINE
8
BLACK
6
CONTINUOUS
10
208.475
20
-120.596
11
208.475
21
-106.604
0
LINE
8
BLACK
6
CONTINUOUS
10
208.475
20
-106.604
11
208.475
21
-106.6
0
LINE
8
BLACK
6
CONTINUOUS
10
208.475
20
-106.6
11
208.476
21
-106.585
0
LINE
8
BLACK
6
CONTINUOUS
10
208.476
20
-106.585
11
208.48
21
-106.571
0
LINE
8
BLACK
6
CONTINUOUS
10
208.48
20
-106.571
11
208.487
21
-106.558
0
LINE
8
BLACK
6
CONTINUOUS
10
208.487
20
-106.558
11
208.497
21
-106.547
0
LINE
8
BLACK
6
CONTINUOUS
10
208.497
20
-106.547
11
208.508
21
-106.537
0
LINE
8
BLACK
6
CONTINUOUS
10
208.508
20
-106.537
11
208.521
21
-106.53
0
LINE
8
BLACK
6
CONTINUOUS
10
208.521
20
-106.53
11
208.535
21
-106.526
0
LINE
8
BLACK
6
CONTINUOUS
10
208.535
20
-106.526
11
208.546
21
-106.525
0
LINE
8
BLACK
6
CONTINUOUS
10
208.546
20
-106.525
11
208.55
21
-106.525
0
LINE
8
BLACK
6
CONTINUOUS
10
208.55
20
-106.525
11
208.554
21
-106.525
0
LINE
8
BLACK
6
CONTINUOUS
10
208.554
20
-106.525
11
222.546
21
-106.525
0
LINE
8
BLACK
6
CONTINUOUS
10
222.546
20
-106.525
11
222.55
21
-106.525
0
LINE
8
BLACK
6
CONTINUOUS
10
222.55
20
-106.525
11
222.554
21
-106.525
0
LINE
8
BLACK
6
CONTINUOUS
10
208.625
20
-106.675
11
208.625
21
-120.525
0
LINE
8
BLACK
6
CONTINUOUS
10
208.625
20
-120.525
11
222.475
21
-120.525
0
LINE
8
BLACK
6
CONTINUOUS
10
222.475
20
-120.525
11
222.475
21
-106.675
0
LINE
8
BLACK
6
CONTINUOUS
10
222.475
20
-106.675
11
208.625
21
-106.675
0
LINE
8
BLACK
6
CONTINUOUS
10
203.504
20
-106.525
11
203.515
21
-106.526
0
LINE
8
BLACK
6
CONTINUOUS
10
203.515
20
-106.526
11
203.529
21
-106.53
0
LINE
8
BLACK
6
CONTINUOUS
10
203.529
20
-106.53
11
203.542
21
-106.537
0
LINE
8
BLACK
6
CONTINUOUS
10
203.542
20
-106.537
11
203.553
21
-106.547
0
LINE
8
BLACK
6
CONTINUOUS
10
203.553
20
-106.547
11
203.563
21
-106.558
0
LINE
8
BLACK
6
CONTINUOUS
10
203.563
20
-106.558
11
203.57
21
-106.571
0
LINE
8
BLACK
6
CONTINUOUS
10
203.57
20
-106.571
11
203.574
21
-106.585
0
LINE
8
BLACK
6
CONTINUOUS
10
203.574
20
-106.585
11
203.575
21
-106.6
0
LINE
8
BLACK
6
CONTINUOUS
10
203.575
20
-106.6
11
203.575
21
-106.604
0
LINE
8
BLACK
6
CONTINUOUS
10
203.575
20
-106.604
11
203.575
21
-120.596
0
LINE
8
BLACK
6
CONTINUOUS
10
203.575
20
-120.596
11
203.575
21
-120.6
0
LINE
8
BLACK
6
CONTINUOUS
10
203.575
20
-120.6
11
203.574
21
-120.615
0
LINE
8
BLACK
6
CONTINUOUS
10
203.574
20
-120.615
11
203.57
21
-120.629
0
LINE
8
BLACK
6
CONTINUOUS
10
203.57
20
-120.629
11
203.563
21
-120.642
0
LINE
8
BLACK
6
CONTINUOUS
10
203.563
20
-120.642
11
203.553
21
-120.653
0
LINE
8
BLACK
6
CONTINUOUS
10
203.553
20
-120.653
11
203.542
21
-120.663
0
LINE
8
BLACK
6
CONTINUOUS
10
203.542
20
-120.663
11
203.529
21
-120.67
0
LINE
8
BLACK
6
CONTINUOUS
10
203.529
20
-120.67
11
203.515
21
-120.674
0
LINE
8
BLACK
6
CONTINUOUS
10
203.515
20
-120.674
11
203.504
21
-120.675
0
LINE
8
BLACK
6
CONTINUOUS
10
203.504
20
-120.675
11
203.5
21
-120.675
0
LINE
8
BLACK
6
CONTINUOUS
10
203.5
20
-120.675
11
203.496
21
-120.675
0
LINE
8
BLACK
6
CONTINUOUS
10
203.496
20
-120.675
11
189.504
21
-120.675
0
LINE
8
BLACK
6
CONTINUOUS
10
189.504
20
-120.675
11
189.5
21
-120.675
0
LINE
8
BLACK
6
CONTINUOUS
10
189.5
20
-120.675
11
189.485
21
-120.674
0
LINE
8
BLACK
6
CONTINUOUS
10
189.485
20
-120.674
11
189.471
21
-120.67
0
LINE
8
BLACK
6
CONTINUOUS
10
189.471
20
-120.67
11
189.458
21
-120.663
0
LINE
8
BLACK
6
CONTINUOUS
10
189.458
20
-120.663
11
189.447
21
-120.653
0
LINE
8
BLACK
6
CONTINUOUS
10
189.447
20
-120.653
11
189.437
21
-120.642
0
LINE
8
BLACK
6
CONTINUOUS
10
189.437
20
-120.642
11
189.43
21
-120.629
0
LINE
8
BLACK
6
CONTINUOUS
10
189.43
20
-120.629
11
189.426
21
-120.615
0
LINE
8
BLACK
6
CONTINUOUS
10
189.426
20
-120.615
11
189.425
21
-120.6
0
LINE
8
BLACK
6
CONTINUOUS
10
189.425
20
-120.6
11
189.425
21
-120.596
0
LINE
8
BLACK
6
CONTINUOUS
10
189.425
20
-120.596
11
189.425
21
-106.604
0
LINE
8
BLACK
6
CONTINUOUS
10
189.425
20
-106.604
11
189.425
21
-106.6
0
LINE
8
BLACK
6
CONTINUOUS
10
189.425
20
-106.6
11
189.426
21
-106.585
0
LINE
8
BLACK
6
CONTINUOUS
10
189.426
20
-106.585
11
189.43
21
-106.571
0
LINE
8
BLACK
6
CONTINUOUS
10
189.43
20
-106.571
11
189.437
21
-106.558
0
LINE
8
BLACK
6
CONTINUOUS
10
189.437
20
-106.558
11
189.447
21
-106.547
0
LINE
8
BLACK
6
CONTINUOUS
10
189.447
20
-106.547
11
189.458
21
-106.537
0
LINE
8
BLACK
6
CONTINUOUS
10
189.458
20
-106.537
11
189.471
21
-106.53
0
LINE
8
BLACK
6
CONTINUOUS
10
189.471
20
-106.53
11
189.485
21
-106.526
0
LINE
8
BLACK
6
CONTINUOUS
10
189.485
20
-106.526
11
189.496
21
-106.525
0
LINE
8
BLACK
6
CONTINUOUS
10
189.496
20
-106.525
11
189.5
21
-106.525
0
LINE
8
BLACK
6
CONTINUOUS
10
189.5
20
-106.525
11
189.504
21
-106.525
0
LINE
8
BLACK
6
CONTINUOUS
10
189.504
20
-106.525
11
203.496
21
-106.525
0
LINE
8
BLACK
6
CONTINUOUS
10
203.496
20
-106.525
11
203.5
21
-106.525
0
LINE
8
BLACK
6
CONTINUOUS
10
203.5
20
-106.525
11
203.504
21
-106.525
0
LINE
8
BLACK
6
CONTINUOUS
10
189.575
20
-106.675
11
189.575
21
-120.525
0
LINE
8
BLACK
6
CONTINUOUS
10
189.575
20
-120.525
11
203.425
21
-120.525
0
LINE
8
BLACK
6
CONTINUOUS
10
203.425
20
-120.525
11
203.425
21
-106.675
0
LINE
8
BLACK
6
CONTINUOUS
10
203.425
20
-106.675
11
189.575
21
-106.675
0
LINE
8
BLACK
6
CONTINUOUS
10
127.504
20
-100.025
11
127.515
21
-100.026
0
LINE
8
BLACK
6
CONTINUOUS
10
127.515
20
-100.026
11
127.529
21
-100.03
0
LINE
8
BLACK
6
CONTINUOUS
10
127.529
20
-100.03
11
127.542
21
-100.037
0
LINE
8
BLACK
6
CONTINUOUS
10
127.542
20
-100.037
11
127.553
21
-100.047
0
LINE
8
BLACK
6
CONTINUOUS
10
127.553
20
-100.047
11
127.563
21
-100.058
0
LINE
8
BLACK
6
CONTINUOUS
10
127.563
20
-100.058
11
127.57
21
-100.071
0
LINE
8
BLACK
6
CONTINUOUS
10
127.57
20
-100.071
11
127.574
21
-100.085
0
LINE
8
BLACK
6
CONTINUOUS
10
127.574
20
-100.085
11
127.575
21
-100.1
0
LINE
8
BLACK
6
CONTINUOUS
10
127.575
20
-100.1
11
127.575
21
-100.104
0
LINE
8
BLACK
6
CONTINUOUS
10
127.575
20
-100.104
11
127.575
21
-114.096
0
LINE
8
BLACK
6
CONTINUOUS
10
127.575
20
-114.096
11
127.575
21
-114.1
0
LINE
8
BLACK
6
CONTINUOUS
10
127.575
20
-114.1
11
127.574
21
-114.115
0
LINE
8
BLACK
6
CONTINUOUS
10
127.574
20
-114.115
11
127.57
21
-114.129
0
LINE
8
BLACK
6
CONTINUOUS
10
127.57
20
-114.129
11
127.563
21
-114.142
0
LINE
8
BLACK
6
CONTINUOUS
10
127.563
20
-114.142
11
127.553
21
-114.153
0
LINE
8
BLACK
6
CONTINUOUS
10
127.553
20
-114.153
11
127.542
21
-114.163
0
LINE
8
BLACK
6
CONTINUOUS
10
127.542
20
-114.163
11
127.529
21
-114.17
0
LINE
8
BLACK
6
CONTINUOUS
10
127.529
20
-114.17
11
127.515
21
-114.174
0
LINE
8
BLACK
6
CONTINUOUS
10
127.515
20
-114.174
11
127.504
21
-114.175
0
LINE
8
BLACK
6
CONTINUOUS
10
127.504
20
-114.175
11
127.5
21
-114.175
0
LINE
8
BLACK
6
CONTINUOUS
10
127.5
20
-114.175
11
127.496
21
-114.175
0
LINE
8
BLACK
6
CONTINUOUS
10
127.496
20
-114.175
11
113.504
21
-114.175
0
LINE
8
BLACK
6
CONTINUOUS
10
113.504
20
-114.175
11
113.5
21
-114.175
0
LINE
8
BLACK
6
CONTINUOUS
10
113.5
20
-114.175
11
113.485
21
-114.174
0
LINE
8
BLACK
6
CONTINUOUS
10
113.485
20
-114.174
11
113.471
21
-114.17
0
LINE
8
BLACK
6
CONTINUOUS
10
113.471
20
-114.17
11
113.458
21
-114.163
0
LINE
8
BLACK
6
CONTINUOUS
10
113.458
20
-114.163
11
113.447
21
-114.153
0
LINE
8
BLACK
6
CONTINUOUS
10
113.447
20
-114.153
11
113.441
21
-114.147
0
LINE
8
BLACK
6
CONTINUOUS
10
113.441
20
-114.147
11
113.437
21
-114.142
0
LINE
8
BLACK
6
CONTINUOUS
10
113.437
20
-114.142
11
113.43
21
-114.129
0
LINE
8
BLACK
6
CONTINUOUS
10
113.43
20
-114.129
11
113.426
21
-114.115
0
LINE
8
BLACK
6
CONTINUOUS
10
113.426
20
-114.115
11
113.425
21
-114.1
0
LINE
8
BLACK
6
CONTINUOUS
10
113.425
20
-114.1
11
113.425
21
-114.096
0
LINE
8
BLACK
6
CONTINUOUS
10
113.425
20
-114.096
11
113.425
21
-100.104
0
LINE
8
BLACK
6
CONTINUOUS
10
113.425
20
-100.104
11
113.425
21
-100.1
0
LINE
8
BLACK
6
CONTINUOUS
10
113.425
20
-100.1
11
113.426
21
-100.085
0
LINE
8
BLACK
6
CONTINUOUS
10
113.426
20
-100.085
11
113.43
21
-100.071
0
LINE
8
BLACK
6
CONTINUOUS
10
113.43
20
-100.071
11
113.437
21
-100.058
0
LINE
8
BLACK
6
CONTINUOUS
10
113.437
20
-100.058
11
113.447
21
-100.047
0
LINE
8
BLACK
6
CONTINUOUS
10
113.447
20
-100.047
11
113.458
21
-100.037
0
LINE
8
BLACK
6
CONTINUOUS
10
113.458
20
-100.037
11
113.471
21
-100.03
0
LINE
8
BLACK
6
CONTINUOUS
10
113.471
20
-100.03
11
113.485
21
-100.026
0
LINE
8
BLACK
6
CONTINUOUS
10
113.485
20
-100.026
11
113.496
21
-100.025
0
LINE
8
BLACK
6
CONTINUOUS
10
113.496
20
-100.025
11
113.5
21
-100.025
0
LINE
8
BLACK
6
CONTINUOUS
10
113.5
20
-100.025
11
113.504
21
-100.025
0
LINE
8
BLACK
6
CONTINUOUS
10
113.504
20
-100.025
11
127.496
21
-100.025
0
LINE
8
BLACK
6
CONTINUOUS
10
127.496
20
-100.025
11
127.5
21
-100.025
0
LINE
8
BLACK
6
CONTINUOUS
10
127.5
20
-100.025
11
127.504
21
-100.025
0
LINE
8
BLACK
6
CONTINUOUS
10
113.575
20
-100.175
11
113.575
21
-114.025
0
LINE
8
BLACK
6
CONTINUOUS
10
113.575
20
-114.025
11
127.425
21
-114.025
0
LINE
8
BLACK
6
CONTINUOUS
10
127.425
20
-114.025
11
127.425
21
-100.175
0
LINE
8
BLACK
6
CONTINUOUS
10
127.425
20
-100.175
11
113.575
21
-100.175
0
LINE
8
BLACK
6
CONTINUOUS
10
184.504
20
-97.625
11
184.515
21
-97.6261
0
LINE
8
BLACK
6
CONTINUOUS
10
184.515
20
-97.6261
11
184.529
21
-97.6304
0
LINE
8
BLACK
6
CONTINUOUS
10
184.529
20
-97.6304
11
184.542
21
-97.6373
0
LINE
8
BLACK
6
CONTINUOUS
10
184.542
20
-97.6373
11
184.553
21
-97.6467
0
LINE
8
BLACK
6
CONTINUOUS
10
184.553
20
-97.6467
11
184.563
21
-97.6581
0
LINE
8
BLACK
6
CONTINUOUS
10
184.563
20
-97.6581
11
184.57
21
-97.6712
0
LINE
8
BLACK
6
CONTINUOUS
10
184.57
20
-97.6712
11
184.574
21
-97.6853
0
LINE
8
BLACK
6
CONTINUOUS
10
184.574
20
-97.6853
11
184.575
21
-97.7
0
LINE
8
BLACK
6
CONTINUOUS
10
184.575
20
-97.7
11
184.575
21
-97.7037
0
LINE
8
BLACK
6
CONTINUOUS
10
184.575
20
-97.7037
11
184.575
21
-111.696
0
LINE
8
BLACK
6
CONTINUOUS
10
184.575
20
-111.696
11
184.575
21
-111.7
0
LINE
8
BLACK
6
CONTINUOUS
10
184.575
20
-111.7
11
184.574
21
-111.715
0
LINE
8
BLACK
6
CONTINUOUS
10
184.574
20
-111.715
11
184.57
21
-111.729
0
LINE
8
BLACK
6
CONTINUOUS
10
184.57
20
-111.729
11
184.563
21
-111.742
0
LINE
8
BLACK
6
CONTINUOUS
10
184.563
20
-111.742
11
184.553
21
-111.753
0
LINE
8
BLACK
6
CONTINUOUS
10
184.553
20
-111.753
11
184.542
21
-111.763
0
LINE
8
BLACK
6
CONTINUOUS
10
184.542
20
-111.763
11
184.529
21
-111.77
0
LINE
8
BLACK
6
CONTINUOUS
10
184.529
20
-111.77
11
184.515
21
-111.774
0
LINE
8
BLACK
6
CONTINUOUS
10
184.515
20
-111.774
11
184.504
21
-111.775
0
LINE
8
BLACK
6
CONTINUOUS
10
184.504
20
-111.775
11
184.5
21
-111.775
0
LINE
8
BLACK
6
CONTINUOUS
10
184.5
20
-111.775
11
184.496
21
-111.775
0
LINE
8
BLACK
6
CONTINUOUS
10
184.496
20
-111.775
11
170.504
21
-111.775
0
LINE
8
BLACK
6
CONTINUOUS
10
170.504
20
-111.775
11
170.5
21
-111.775
0
LINE
8
BLACK
6
CONTINUOUS
10
170.5
20
-111.775
11
170.485
21
-111.774
0
LINE
8
BLACK
6
CONTINUOUS
10
170.485
20
-111.774
11
170.471
21
-111.77
0
LINE
8
BLACK
6
CONTINUOUS
10
170.471
20
-111.77
11
170.458
21
-111.763
0
LINE
8
BLACK
6
CONTINUOUS
10
170.458
20
-111.763
11
170.447
21
-111.753
0
LINE
8
BLACK
6
CONTINUOUS
10
170.447
20
-111.753
11
170.437
21
-111.742
0
LINE
8
BLACK
6
CONTINUOUS
10
170.437
20
-111.742
11
170.43
21
-111.729
0
LINE
8
BLACK
6
CONTINUOUS
10
170.43
20
-111.729
11
170.426
21
-111.715
0
LINE
8
BLACK
6
CONTINUOUS
10
170.426
20
-111.715
11
170.425
21
-111.7
0
LINE
8
BLACK
6
CONTINUOUS
10
170.425
20
-111.7
11
170.425
21
-111.696
0
LINE
8
BLACK
6
CONTINUOUS
10
170.425
20
-111.696
11
170.425
21
-97.7037
0
LINE
8
BLACK
6
CONTINUOUS
10
170.425
20
-97.7037
11
170.425
21
-97.7
0
LINE
8
BLACK
6
CONTINUOUS
10
170.425
20
-97.7
11
170.426
21
-97.6853
0
LINE
8
BLACK
6
CONTINUOUS
10
170.426
20
-97.6853
11
170.43
21
-97.6712
0
LINE
8
BLACK
6
CONTINUOUS
10
170.43
20
-97.6712
11
170.437
21
-97.6581
0
LINE
8
BLACK
6
CONTINUOUS
10
170.437
20
-97.6581
11
170.447
21
-97.6467
0
LINE
8
BLACK
6
CONTINUOUS
10
170.447
20
-97.6467
11
170.458
21
-97.6373
0
LINE
8
BLACK
6
CONTINUOUS
10
170.458
20
-97.6373
11
170.471
21
-97.6304
0
LINE
8
BLACK
6
CONTINUOUS
10
170.471
20
-97.6304
11
170.485
21
-97.6261
0
LINE
8
BLACK
6
CONTINUOUS
10
170.485
20
-97.6261
11
170.496
21
-97.625
0
LINE
8
BLACK
6
CONTINUOUS
10
170.496
20
-97.625
11
170.5
21
-97.6246
0
LINE
8
BLACK
6
CONTINUOUS
10
170.5
20
-97.6246
11
170.504
21
-97.625
0
LINE
8
BLACK
6
CONTINUOUS
10
170.504
20
-97.625
11
184.496
21
-97.625
0
LINE
8
BLACK
6
CONTINUOUS
10
184.496
20
-97.625
11
184.5
21
-97.6246
0
LINE
8
BLACK
6
CONTINUOUS
10
184.5
20
-97.6246
11
184.504
21
-97.625
0
LINE
8
BLACK
6
CONTINUOUS
10
170.575
20
-97.775
11
170.575
21
-111.625
0
LINE
8
BLACK
6
CONTINUOUS
10
170.575
20
-111.625
11
184.425
21
-111.625
0
LINE
8
BLACK
6
CONTINUOUS
10
184.425
20
-111.625
11
184.425
21
-97.775
0
LINE
8
BLACK
6
CONTINUOUS
10
184.425
20
-97.775
11
170.575
21
-97.775
0
LINE
8
BLACK
6
CONTINUOUS
10
146.504
20
-97.625
11
146.515
21
-97.6261
0
LINE
8
BLACK
6
CONTINUOUS
10
146.515
20
-97.6261
11
146.529
21
-97.6304
0
LINE
8
BLACK
6
CONTINUOUS
10
146.529
20
-97.6304
11
146.542
21
-97.6373
0
LINE
8
BLACK
6
CONTINUOUS
10
146.542
20
-97.6373
11
146.553
21
-97.6467
0
LINE
8
BLACK
6
CONTINUOUS
10
146.553
20
-97.6467
11
146.563
21
-97.6581
0
LINE
8
BLACK
6
CONTINUOUS
10
146.563
20
-97.6581
11
146.57
21
-97.6712
0
LINE
8
BLACK
6
CONTINUOUS
10
146.57
20
-97.6712
11
146.574
21
-97.6853
0
LINE
8
BLACK
6
CONTINUOUS
10
146.574
20
-97.6853
11
146.575
21
-97.7
0
LINE
8
BLACK
6
CONTINUOUS
10
146.575
20
-97.7
11
146.575
21
-97.7037
0
LINE
8
BLACK
6
CONTINUOUS
10
146.575
20
-97.7037
11
146.575
21
-111.696
0
LINE
8
BLACK
6
CONTINUOUS
10
146.575
20
-111.696
11
146.575
21
-111.7
0
LINE
8
BLACK
6
CONTINUOUS
10
146.575
20
-111.7
11
146.574
21
-111.715
0
LINE
8
BLACK
6
CONTINUOUS
10
146.574
20
-111.715
11
146.57
21
-111.729
0
LINE
8
BLACK
6
CONTINUOUS
10
146.57
20
-111.729
11
146.563
21
-111.742
0
LINE
8
BLACK
6
CONTINUOUS
10
146.563
20
-111.742
11
146.553
21
-111.753
0
LINE
8
BLACK
6
CONTINUOUS
10
146.553
20
-111.753
11
146.542
21
-111.763
0
LINE
8
BLACK
6
CONTINUOUS
10
146.542
20
-111.763
11
146.529
21
-111.77
0
LINE
8
BLACK
6
CONTINUOUS
10
146.529
20
-111.77
11
146.515
21
-111.774
0
LINE
8
BLACK
6
CONTINUOUS
10
146.515
20
-111.774
11
146.504
21
-111.775
0
LINE
8
BLACK
6
CONTINUOUS
10
146.504
20
-111.775
11
146.5
21
-111.775
0
LINE
8
BLACK
6
CONTINUOUS
10
146.5
20
-111.775
11
146.496
21
-111.775
0
LINE
8
BLACK
6
CONTINUOUS
10
146.496
20
-111.775
11
132.504
21
-111.775
0
LINE
8
BLACK
6
CONTINUOUS
10
132.504
20
-111.775
11
132.5
21
-111.775
0
LINE
8
BLACK
6
CONTINUOUS
10
132.5
20
-111.775
11
132.485
21
-111.774
0
LINE
8
BLACK
6
CONTINUOUS
10
132.485
20
-111.774
11
132.471
21
-111.77
0
LINE
8
BLACK
6
CONTINUOUS
10
132.471
20
-111.77
11
132.458
21
-111.763
0
LINE
8
BLACK
6
CONTINUOUS
10
132.458
20
-111.763
11
132.447
21
-111.753
0
LINE
8
BLACK
6
CONTINUOUS
10
132.447
20
-111.753
11
132.437
21
-111.742
0
LINE
8
BLACK
6
CONTINUOUS
10
132.437
20
-111.742
11
132.43
21
-111.729
0
LINE
8
BLACK
6
CONTINUOUS
10
132.43
20
-111.729
11
132.426
21
-111.715
0
LINE
8
BLACK
6
CONTINUOUS
10
132.426
20
-111.715
11
132.425
21
-111.7
0
LINE
8
BLACK
6
CONTINUOUS
10
132.425
20
-111.7
11
132.425
21
-111.696
0
LINE
8
BLACK
6
CONTINUOUS
10
132.425
20
-111.696
11
132.425
21
-97.7037
0
LINE
8
BLACK
6
CONTINUOUS
10
132.425
20
-97.7037
11
132.425
21
-97.7
0
LINE
8
BLACK
6
CONTINUOUS
10
132.425
20
-97.7
11
132.426
21
-97.6853
0
LINE
8
BLACK
6
CONTINUOUS
10
132.426
20
-97.6853
11
132.43
21
-97.6712
0
LINE
8
BLACK
6
CONTINUOUS
10
132.43
20
-97.6712
11
132.437
21
-97.6581
0
LINE
8
BLACK
6
CONTINUOUS
10
132.437
20
-97.6581
11
132.447
21
-97.6467
0
LINE
8
BLACK
6
CONTINUOUS
10
132.447
20
-97.6467
11
132.458
21
-97.6373
0
LINE
8
BLACK
6
CONTINUOUS
10
132.458
20
-97.6373
11
132.471
21
-97.6304
0
LINE
8
BLACK
6
CONTINUOUS
10
132.471
20
-97.6304
11
132.485
21
-97.6261
0
LINE
8
BLACK
6
CONTINUOUS
10
132.485
20
-97.6261
11
132.496
21
-97.625
0
LINE
8
BLACK
6
CONTINUOUS
10
132.496
20
-97.625
11
132.5
21
-97.6246
0
LINE
8
BLACK
6
CONTINUOUS
10
132.5
20
-97.6246
11
132.504
21
-97.625
0
LINE
8
BLACK
6
CONTINUOUS
10
132.504
20
-97.625
11
146.496
21
-97.625
0
LINE
8
BLACK
6
CONTINUOUS
10
146.496
20
-97.625
11
146.5
21
-97.6246
0
LINE
8
BLACK
6
CONTINUOUS
10
146.5
20
-97.6246
11
146.504
21
-97.625
0
LINE
8
BLACK
6
CONTINUOUS
10
132.575
20
-97.775
11
132.575
21
-111.625
0
LINE
8
BLACK
6
CONTINUOUS
10
132.575
20
-111.625
11
146.425
21
-111.625
0
LINE
8
BLACK
6
CONTINUOUS
10
146.425
20
-111.625
11
146.425
21
-97.775
0
LINE
8
BLACK
6
CONTINUOUS
10
146.425
20
-97.775
11
132.575
21
-97.775
0
LINE
8
BLACK
6
CONTINUOUS
10
165.504
20
-95.125
11
165.515
21
-95.1261
0
LINE
8
BLACK
6
CONTINUOUS
10
165.515
20
-95.1261
11
165.529
21
-95.1304
0
LINE
8
BLACK
6
CONTINUOUS
10
165.529
20
-95.1304
11
165.542
21
-95.1373
0
LINE
8
BLACK
6
CONTINUOUS
10
165.542
20
-95.1373
11
165.553
21
-95.1467
0
LINE
8
BLACK
6
CONTINUOUS
10
165.553
20
-95.1467
11
165.563
21
-95.1581
0
LINE
8
BLACK
6
CONTINUOUS
10
165.563
20
-95.1581
11
165.57
21
-95.1712
0
LINE
8
BLACK
6
CONTINUOUS
10
165.57
20
-95.1712
11
165.574
21
-95.1853
0
LINE
8
BLACK
6
CONTINUOUS
10
165.574
20
-95.1853
11
165.575
21
-95.2
0
LINE
8
BLACK
6
CONTINUOUS
10
165.575
20
-95.2
11
165.575
21
-95.2037
0
LINE
8
BLACK
6
CONTINUOUS
10
165.575
20
-95.2037
11
165.575
21
-109.196
0
LINE
8
BLACK
6
CONTINUOUS
10
165.575
20
-109.196
11
165.575
21
-109.2
0
LINE
8
BLACK
6
CONTINUOUS
10
165.575
20
-109.2
11
165.574
21
-109.215
0
LINE
8
BLACK
6
CONTINUOUS
10
165.574
20
-109.215
11
165.57
21
-109.229
0
LINE
8
BLACK
6
CONTINUOUS
10
165.57
20
-109.229
11
165.563
21
-109.242
0
LINE
8
BLACK
6
CONTINUOUS
10
165.563
20
-109.242
11
165.553
21
-109.253
0
LINE
8
BLACK
6
CONTINUOUS
10
165.553
20
-109.253
11
165.542
21
-109.263
0
LINE
8
BLACK
6
CONTINUOUS
10
165.542
20
-109.263
11
165.529
21
-109.27
0
LINE
8
BLACK
6
CONTINUOUS
10
165.529
20
-109.27
11
165.515
21
-109.274
0
LINE
8
BLACK
6
CONTINUOUS
10
165.515
20
-109.274
11
165.504
21
-109.275
0
LINE
8
BLACK
6
CONTINUOUS
10
165.504
20
-109.275
11
165.5
21
-109.275
0
LINE
8
BLACK
6
CONTINUOUS
10
165.5
20
-109.275
11
165.496
21
-109.275
0
LINE
8
BLACK
6
CONTINUOUS
10
165.496
20
-109.275
11
151.504
21
-109.275
0
LINE
8
BLACK
6
CONTINUOUS
10
151.504
20
-109.275
11
151.5
21
-109.275
0
LINE
8
BLACK
6
CONTINUOUS
10
151.5
20
-109.275
11
151.485
21
-109.274
0
LINE
8
BLACK
6
CONTINUOUS
10
151.485
20
-109.274
11
151.471
21
-109.27
0
LINE
8
BLACK
6
CONTINUOUS
10
151.471
20
-109.27
11
151.458
21
-109.263
0
LINE
8
BLACK
6
CONTINUOUS
10
151.458
20
-109.263
11
151.447
21
-109.253
0
LINE
8
BLACK
6
CONTINUOUS
10
151.447
20
-109.253
11
151.437
21
-109.242
0
LINE
8
BLACK
6
CONTINUOUS
10
151.437
20
-109.242
11
151.43
21
-109.229
0
LINE
8
BLACK
6
CONTINUOUS
10
151.43
20
-109.229
11
151.426
21
-109.215
0
LINE
8
BLACK
6
CONTINUOUS
10
151.426
20
-109.215
11
151.425
21
-109.2
0
LINE
8
BLACK
6
CONTINUOUS
10
151.425
20
-109.2
11
151.425
21
-109.196
0
LINE
8
BLACK
6
CONTINUOUS
10
151.425
20
-109.196
11
151.425
21
-95.2037
0
LINE
8
BLACK
6
CONTINUOUS
10
151.425
20
-95.2037
11
151.425
21
-95.2
0
LINE
8
BLACK
6
CONTINUOUS
10
151.425
20
-95.2
11
151.426
21
-95.1853
0
LINE
8
BLACK
6
CONTINUOUS
10
151.426
20
-95.1853
11
151.43
21
-95.1712
0
LINE
8
BLACK
6
CONTINUOUS
10
151.43
20
-95.1712
11
151.437
21
-95.1581
0
LINE
8
BLACK
6
CONTINUOUS
10
151.437
20
-95.1581
11
151.447
21
-95.1467
0
LINE
8
BLACK
6
CONTINUOUS
10
151.447
20
-95.1467
11
151.458
21
-95.1373
0
LINE
8
BLACK
6
CONTINUOUS
10
151.458
20
-95.1373
11
151.471
21
-95.1304
0
LINE
8
BLACK
6
CONTINUOUS
10
151.471
20
-95.1304
11
151.485
21
-95.1261
0
LINE
8
BLACK
6
CONTINUOUS
10
151.485
20
-95.1261
11
151.496
21
-95.125
0
LINE
8
BLACK
6
CONTINUOUS
10
151.496
20
-95.125
11
151.5
21
-95.1246
0
LINE
8
BLACK
6
CONTINUOUS
10
151.5
20
-95.1246
11
151.504
21
-95.125
0
LINE
8
BLACK
6
CONTINUOUS
10
151.504
20
-95.125
11
165.496
21
-95.125
0
LINE
8
BLACK
6
CONTINUOUS
10
165.496
20
-95.125
11
165.5
21
-95.1246
0
LINE
8
BLACK
6
CONTINUOUS
10
165.5
20
-95.1246
11
165.504
21
-95.125
0
LINE
8
BLACK
6
CONTINUOUS
10
151.575
20
-95.275
11
151.575
21
-109.125
0
LINE
8
BLACK
6
CONTINUOUS
10
151.575
20
-109.125
11
165.425
21
-109.125
0
LINE
8
BLACK
6
CONTINUOUS
10
165.425
20
-109.125
11
165.425
21
-95.275
0
LINE
8
BLACK
6
CONTINUOUS
10
165.425
20
-95.275
11
151.575
21
-95.275
0
LINE
8
BLACK
6
CONTINUOUS
10
222.504
20
-87.525
11
222.515
21
-87.5261
0
LINE
8
BLACK
6
CONTINUOUS
10
222.515
20
-87.5261
11
222.529
21
-87.5304
0
LINE
8
BLACK
6
CONTINUOUS
10
222.529
20
-87.5304
11
222.542
21
-87.5373
0
LINE
8
BLACK
6
CONTINUOUS
10
222.542
20
-87.5373
11
222.553
21
-87.5467
0
LINE
8
BLACK
6
CONTINUOUS
10
222.553
20
-87.5467
11
222.563
21
-87.5581
0
LINE
8
BLACK
6
CONTINUOUS
10
222.563
20
-87.5581
11
222.57
21
-87.5712
0
LINE
8
BLACK
6
CONTINUOUS
10
222.57
20
-87.5712
11
222.574
21
-87.5853
0
LINE
8
BLACK
6
CONTINUOUS
10
222.574
20
-87.5853
11
222.575
21
-87.6
0
LINE
8
BLACK
6
CONTINUOUS
10
222.575
20
-87.6
11
222.575
21
-87.6037
0
LINE
8
BLACK
6
CONTINUOUS
10
222.575
20
-87.6037
11
222.575
21
-101.596
0
LINE
8
BLACK
6
CONTINUOUS
10
222.575
20
-101.596
11
222.575
21
-101.6
0
LINE
8
BLACK
6
CONTINUOUS
10
222.575
20
-101.6
11
222.574
21
-101.615
0
LINE
8
BLACK
6
CONTINUOUS
10
222.574
20
-101.615
11
222.57
21
-101.629
0
LINE
8
BLACK
6
CONTINUOUS
10
222.57
20
-101.629
11
222.563
21
-101.642
0
LINE
8
BLACK
6
CONTINUOUS
10
222.563
20
-101.642
11
222.553
21
-101.653
0
LINE
8
BLACK
6
CONTINUOUS
10
222.553
20
-101.653
11
222.542
21
-101.663
0
LINE
8
BLACK
6
CONTINUOUS
10
222.542
20
-101.663
11
222.529
21
-101.67
0
LINE
8
BLACK
6
CONTINUOUS
10
222.529
20
-101.67
11
222.515
21
-101.674
0
LINE
8
BLACK
6
CONTINUOUS
10
222.515
20
-101.674
11
222.504
21
-101.675
0
LINE
8
BLACK
6
CONTINUOUS
10
222.504
20
-101.675
11
222.5
21
-101.675
0
LINE
8
BLACK
6
CONTINUOUS
10
222.5
20
-101.675
11
222.496
21
-101.675
0
LINE
8
BLACK
6
CONTINUOUS
10
222.496
20
-101.675
11
208.504
21
-101.675
0
LINE
8
BLACK
6
CONTINUOUS
10
208.504
20
-101.675
11
208.5
21
-101.675
0
LINE
8
BLACK
6
CONTINUOUS
10
208.5
20
-101.675
11
208.485
21
-101.674
0
LINE
8
BLACK
6
CONTINUOUS
10
208.485
20
-101.674
11
208.471
21
-101.67
0
LINE
8
BLACK
6
CONTINUOUS
10
208.471
20
-101.67
11
208.458
21
-101.663
0
LINE
8
BLACK
6
CONTINUOUS
10
208.458
20
-101.663
11
208.447
21
-101.653
0
LINE
8
BLACK
6
CONTINUOUS
10
208.447
20
-101.653
11
208.437
21
-101.642
0
LINE
8
BLACK
6
CONTINUOUS
10
208.437
20
-101.642
11
208.43
21
-101.629
0
LINE
8
BLACK
6
CONTINUOUS
10
208.43
20
-101.629
11
208.426
21
-101.615
0
LINE
8
BLACK
6
CONTINUOUS
10
208.426
20
-101.615
11
208.425
21
-101.6
0
LINE
8
BLACK
6
CONTINUOUS
10
208.425
20
-101.6
11
208.425
21
-101.596
0
LINE
8
BLACK
6
CONTINUOUS
10
208.425
20
-101.596
11
208.425
21
-87.6037
0
LINE
8
BLACK
6
CONTINUOUS
10
208.425
20
-87.6037
11
208.425
21
-87.6
0
LINE
8
BLACK
6
CONTINUOUS
10
208.425
20
-87.6
11
208.426
21
-87.5853
0
LINE
8
BLACK
6
CONTINUOUS
10
208.426
20
-87.5853
11
208.43
21
-87.5712
0
LINE
8
BLACK
6
CONTINUOUS
10
208.43
20
-87.5712
11
208.437
21
-87.5581
0
LINE
8
BLACK
6
CONTINUOUS
10
208.437
20
-87.5581
11
208.447
21
-87.5467
0
LINE
8
BLACK
6
CONTINUOUS
10
208.447
20
-87.5467
11
208.458
21
-87.5373
0
LINE
8
BLACK
6
CONTINUOUS
10
208.458
20
-87.5373
11
208.471
21
-87.5304
0
LINE
8
BLACK
6
CONTINUOUS
10
208.471
20
-87.5304
11
208.485
21
-87.5261
0
LINE
8
BLACK
6
CONTINUOUS
10
208.485
20
-87.5261
11
208.496
21
-87.525
0
LINE
8
BLACK
6
CONTINUOUS
10
208.496
20
-87.525
11
208.5
21
-87.5246
0
LINE
8
BLACK
6
CONTINUOUS
10
208.5
20
-87.5246
11
208.504
21
-87.525
0
LINE
8
BLACK
6
CONTINUOUS
10
208.504
20
-87.525
11
222.496
21
-87.525
0
LINE
8
BLACK
6
CONTINUOUS
10
222.496
20
-87.525
11
222.5
21
-87.5246
0
LINE
8
BLACK
6
CONTINUOUS
10
222.5
20
-87.5246
11
222.504
21
-87.525
0
LINE
8
BLACK
6
CONTINUOUS
10
208.575
20
-87.675
11
208.575
21
-101.525
0
LINE
8
BLACK
6
CONTINUOUS
10
208.575
20
-101.525
11
222.425
21
-101.525
0
LINE
8
BLACK
6
CONTINUOUS
10
222.425
20
-101.525
11
222.425
21
-87.675
0
LINE
8
BLACK
6
CONTINUOUS
10
222.425
20
-87.675
11
208.575
21
-87.675
0
LINE
8
BLACK
6
CONTINUOUS
10
203.504
20
-87.525
11
203.515
21
-87.5261
0
LINE
8
BLACK
6
CONTINUOUS
10
203.515
20
-87.5261
11
203.529
21
-87.5304
0
LINE
8
BLACK
6
CONTINUOUS
10
203.529
20
-87.5304
11
203.542
21
-87.5373
0
LINE
8
BLACK
6
CONTINUOUS
10
203.542
20
-87.5373
11
203.553
21
-87.5467
0
LINE
8
BLACK
6
CONTINUOUS
10
203.553
20
-87.5467
11
203.563
21
-87.5581
0
LINE
8
BLACK
6
CONTINUOUS
10
203.563
20
-87.5581
11
203.57
21
-87.5712
0
LINE
8
BLACK
6
CONTINUOUS
10
203.57
20
-87.5712
11
203.574
21
-87.5853
0
LINE
8
BLACK
6
CONTINUOUS
10
203.574
20
-87.5853
11
203.575
21
-87.6
0
LINE
8
BLACK
6
CONTINUOUS
10
203.575
20
-87.6
11
203.575
21
-87.6037
0
LINE
8
BLACK
6
CONTINUOUS
10
203.575
20
-87.6037
11
203.575
21
-101.596
0
LINE
8
BLACK
6
CONTINUOUS
10
203.575
20
-101.596
11
203.575
21
-101.6
0
LINE
8
BLACK
6
CONTINUOUS
10
203.575
20
-101.6
11
203.574
21
-101.615
0
LINE
8
BLACK
6
CONTINUOUS
10
203.574
20
-101.615
11
203.57
21
-101.629
0
LINE
8
BLACK
6
CONTINUOUS
10
203.57
20
-101.629
11
203.563
21
-101.642
0
LINE
8
BLACK
6
CONTINUOUS
10
203.563
20
-101.642
11
203.553
21
-101.653
0
LINE
8
BLACK
6
CONTINUOUS
10
203.553
20
-101.653
11
203.542
21
-101.663
0
LINE
8
BLACK
6
CONTINUOUS
10
203.542
20
-101.663
11
203.529
21
-101.67
0
LINE
8
BLACK
6
CONTINUOUS
10
203.529
20
-101.67
11
203.515
21
-101.674
0
LINE
8
BLACK
6
CONTINUOUS
10
203.515
20
-101.674
11
203.504
21
-101.675
0
LINE
8
BLACK
6
CONTINUOUS
10
203.504
20
-101.675
11
203.5
21
-101.675
0
LINE
8
BLACK
6
CONTINUOUS
10
203.5
20
-101.675
11
203.496
21
-101.675
0
LINE
8
BLACK
6
CONTINUOUS
10
203.496
20
-101.675
11
189.504
21
-101.675
0
LINE
8
BLACK
6
CONTINUOUS
10
189.504
20
-101.675
11
189.5
21
-101.675
0
LINE
8
BLACK
6
CONTINUOUS
10
189.5
20
-101.675
11
189.485
21
-101.674
0
LINE
8
BLACK
6
CONTINUOUS
10
189.485
20
-101.674
11
189.471
21
-101.67
0
LINE
8
BLACK
6
CONTINUOUS
10
189.471
20
-101.67
11
189.458
21
-101.663
0
LINE
8
BLACK
6
CONTINUOUS
10
189.458
20
-101.663
11
189.447
21
-101.653
0
LINE
8
BLACK
6
CONTINUOUS
10
189.447
20
-101.653
11
189.437
21
-101.642
0
LINE
8
BLACK
6
CONTINUOUS
10
189.437
20
-101.642
11
189.43
21
-101.629
0
LINE
8
BLACK
6
CONTINUOUS
10
189.43
20
-101.629
11
189.426
21
-101.615
0
LINE
8
BLACK
6
CONTINUOUS
10
189.426
20
-101.615
11
189.425
21
-101.6
0
LINE
8
BLACK
6
CONTINUOUS
10
189.425
20
-101.6
11
189.425
21
-101.596
0
LINE
8
BLACK
6
CONTINUOUS
10
189.425
20
-101.596
11
189.425
21
-87.6037
0
LINE
8
BLACK
6
CONTINUOUS
10
189.425
20
-87.6037
11
189.425
21
-87.6
0
LINE
8
BLACK
6
CONTINUOUS
10
189.425
20
-87.6
11
189.426
21
-87.5853
0
LINE
8
BLACK
6
CONTINUOUS
10
189.426
20
-87.5853
11
189.43
21
-87.5712
0
LINE
8
BLACK
6
CONTINUOUS
10
189.43
20
-87.5712
11
189.437
21
-87.5581
0
LINE
8
BLACK
6
CONTINUOUS
10
189.437
20
-87.5581
11
189.447
21
-87.5467
0
LINE
8
BLACK
6
CONTINUOUS
10
189.447
20
-87.5467
11
189.458
21
-87.5373
0
LINE
8
BLACK
6
CONTINUOUS
10
189.458
20
-87.5373
11
189.471
21
-87.5304
0
LINE
8
BLACK
6
CONTINUOUS
10
189.471
20
-87.5304
11
189.485
21
-87.5261
0
LINE
8
BLACK
6
CONTINUOUS
10
189.485
20
-87.5261
11
189.496
21
-87.525
0
LINE
8
BLACK
6
CONTINUOUS
10
189.496
20
-87.525
11
189.5
21
-87.5246
0
LINE
8
BLACK
6
CONTINUOUS
10
189.5
20
-87.5246
11
189.504
21
-87.525
0
LINE
8
BLACK
6
CONTINUOUS
10
189.504
20
-87.525
11
203.496
21
-87.525
0
LINE
8
BLACK
6
CONTINUOUS
10
203.496
20
-87.525
11
203.5
21
-87.5246
0
LINE
8
BLACK
6
CONTINUOUS
10
203.5
20
-87.5246
11
203.504
21
-87.525
0
LINE
8
BLACK
6
CONTINUOUS
10
189.575
20
-87.675
11
189.575
21
-101.525
0
LINE
8
BLACK
6
CONTINUOUS
10
189.575
20
-101.525
11
203.425
21
-101.525
0
LINE
8
BLACK
6
CONTINUOUS
10
203.425
20
-101.525
11
203.425
21
-87.675
0
LINE
8
BLACK
6
CONTINUOUS
10
203.425
20
-87.675
11
189.575
21
-87.675
0
LINE
8
BLACK
6
CONTINUOUS
10
127.504
20
-81.025
11
127.515
21
-81.0261
0
LINE
8
BLACK
6
CONTINUOUS
10
127.515
20
-81.0261
11
127.529
21
-81.0304
0
LINE
8
BLACK
6
CONTINUOUS
10
127.529
20
-81.0304
11
127.542
21
-81.0373
0
LINE
8
BLACK
6
CONTINUOUS
10
127.542
20
-81.0373
11
127.553
21
-81.0467
0
LINE
8
BLACK
6
CONTINUOUS
10
127.553
20
-81.0467
11
127.563
21
-81.0581
0
LINE
8
BLACK
6
CONTINUOUS
10
127.563
20
-81.0581
11
127.57
21
-81.0712
0
LINE
8
BLACK
6
CONTINUOUS
10
127.57
20
-81.0712
11
127.574
21
-81.0853
0
LINE
8
BLACK
6
CONTINUOUS
10
127.574
20
-81.0853
11
127.575
21
-81.1
0
LINE
8
BLACK
6
CONTINUOUS
10
127.575
20
-81.1
11
127.575
21
-81.1037
0
LINE
8
BLACK
6
CONTINUOUS
10
127.575
20
-81.1037
11
127.575
21
-95.0963
0
LINE
8
BLACK
6
CONTINUOUS
10
127.575
20
-95.0963
11
127.575
21
-95.1
0
LINE
8
BLACK
6
CONTINUOUS
10
127.575
20
-95.1
11
127.574
21
-95.1147
0
LINE
8
BLACK
6
CONTINUOUS
10
127.574
20
-95.1147
11
127.57
21
-95.1288
0
LINE
8
BLACK
6
CONTINUOUS
10
127.57
20
-95.1288
11
127.563
21
-95.1419
0
LINE
8
BLACK
6
CONTINUOUS
10
127.563
20
-95.1419
11
127.553
21
-95.1533
0
LINE
8
BLACK
6
CONTINUOUS
10
127.553
20
-95.1533
11
127.542
21
-95.1627
0
LINE
8
BLACK
6
CONTINUOUS
10
127.542
20
-95.1627
11
127.529
21
-95.1696
0
LINE
8
BLACK
6
CONTINUOUS
10
127.529
20
-95.1696
11
127.515
21
-95.1739
0
LINE
8
BLACK
6
CONTINUOUS
10
127.515
20
-95.1739
11
127.504
21
-95.175
0
LINE
8
BLACK
6
CONTINUOUS
10
127.504
20
-95.175
11
127.5
21
-95.1754
0
LINE
8
BLACK
6
CONTINUOUS
10
127.5
20
-95.1754
11
127.496
21
-95.175
0
LINE
8
BLACK
6
CONTINUOUS
10
127.496
20
-95.175
11
113.504
21
-95.175
0
LINE
8
BLACK
6
CONTINUOUS
10
113.504
20
-95.175
11
113.5
21
-95.1754
0
LINE
8
BLACK
6
CONTINUOUS
10
113.5
20
-95.1754
11
113.485
21
-95.1739
0
LINE
8
BLACK
6
CONTINUOUS
10
113.485
20
-95.1739
11
113.471
21
-95.1696
0
LINE
8
BLACK
6
CONTINUOUS
10
113.471
20
-95.1696
11
113.458
21
-95.1627
0
LINE
8
BLACK
6
CONTINUOUS
10
113.458
20
-95.1627
11
113.447
21
-95.1533
0
LINE
8
BLACK
6
CONTINUOUS
10
113.447
20
-95.1533
11
113.441
21
-95.1467
0
LINE
8
BLACK
6
CONTINUOUS
10
113.441
20
-95.1467
11
113.437
21
-95.1419
0
LINE
8
BLACK
6
CONTINUOUS
10
113.437
20
-95.1419
11
113.43
21
-95.1288
0
LINE
8
BLACK
6
CONTINUOUS
10
113.43
20
-95.1288
11
113.426
21
-95.1147
0
LINE
8
BLACK
6
CONTINUOUS
10
113.426
20
-95.1147
11
113.425
21
-95.1
0
LINE
8
BLACK
6
CONTINUOUS
10
113.425
20
-95.1
11
113.425
21
-95.0963
0
LINE
8
BLACK
6
CONTINUOUS
10
113.425
20
-95.0963
11
113.425
21
-81.1037
0
LINE
8
BLACK
6
CONTINUOUS
10
113.425
20
-81.1037
11
113.425
21
-81.1
0
LINE
8
BLACK
6
CONTINUOUS
10
113.425
20
-81.1
11
113.426
21
-81.0853
0
LINE
8
BLACK
6
CONTINUOUS
10
113.426
20
-81.0853
11
113.43
21
-81.0712
0
LINE
8
BLACK
6
CONTINUOUS
10
113.43
20
-81.0712
11
113.437
21
-81.0581
0
LINE
8
BLACK
6
CONTINUOUS
10
113.437
20
-81.0581
11
113.447
21
-81.0467
0
LINE
8
BLACK
6
CONTINUOUS
10
113.447
20
-81.0467
11
113.458
21
-81.0373
0
LINE
8
BLACK
6
CONTINUOUS
10
113.458
20
-81.0373
11
113.471
21
-81.0304
0
LINE
8
BLACK
6
CONTINUOUS
10
113.471
20
-81.0304
11
113.485
21
-81.0261
0
LINE
8
BLACK
6
CONTINUOUS
10
113.485
20
-81.0261
11
113.496
21
-81.025
0
LINE
8
BLACK
6
CONTINUOUS
10
113.496
20
-81.025
11
113.5
21
-81.0246
0
LINE
8
BLACK
6
CONTINUOUS
10
113.5
20
-81.0246
11
113.504
21
-81.025
0
LINE
8
BLACK
6
CONTINUOUS
10
113.504
20
-81.025
11
127.496
21
-81.025
0
LINE
8
BLACK
6
CONTINUOUS
10
127.496
20
-81.025
11
127.5
21
-81.0246
0
LINE
8
BLACK
6
CONTINUOUS
10
127.5
20
-81.0246
11
127.504
21
-81.025
0
LINE
8
BLACK
6
CONTINUOUS
10
113.575
20
-81.175
11
113.575
21
-95.025
0
LINE
8
BLACK
6
CONTINUOUS
10
113.575
20
-95.025
11
127.425
21
-95.025
0
LINE
8
BLACK
6
CONTINUOUS
10
127.425
20
-95.025
11
127.425
21
-81.175
0
LINE
8
BLACK
6
CONTINUOUS
10
127.425
20
-81.175
11
113.575
21
-81.175
0
LINE
8
BLACK
6
CONTINUOUS
10
184.504
20
-78.525
11
184.515
21
-78.5261
0
LINE
8
BLACK
6
CONTINUOUS
10
184.515
20
-78.5261
11
184.529
21
-78.5304
0
LINE
8
BLACK
6
CONTINUOUS
10
184.529
20
-78.5304
11
184.542
21
-78.5373
0
LINE
8
BLACK
6
CONTINUOUS
10
184.542
20
-78.5373
11
184.553
21
-78.5467
0
LINE
8
BLACK
6
CONTINUOUS
10
184.553
20
-78.5467
11
184.563
21
-78.5581
0
LINE
8
BLACK
6
CONTINUOUS
10
184.563
20
-78.5581
11
184.57
21
-78.5712
0
LINE
8
BLACK
6
CONTINUOUS
10
184.57
20
-78.5712
11
184.574
21
-78.5853
0
LINE
8
BLACK
6
CONTINUOUS
10
184.574
20
-78.5853
11
184.575
21
-78.6
0
LINE
8
BLACK
6
CONTINUOUS
10
184.575
20
-78.6
11
184.575
21
-78.6037
0
LINE
8
BLACK
6
CONTINUOUS
10
184.575
20
-78.6037
11
184.575
21
-92.5963
0
LINE
8
BLACK
6
CONTINUOUS
10
184.575
20
-92.5963
11
184.575
21
-92.6
0
LINE
8
BLACK
6
CONTINUOUS
10
184.575
20
-92.6
11
184.574
21
-92.6147
0
LINE
8
BLACK
6
CONTINUOUS
10
184.574
20
-92.6147
11
184.57
21
-92.6288
0
LINE
8
BLACK
6
CONTINUOUS
10
184.57
20
-92.6288
11
184.563
21
-92.6419
0
LINE
8
BLACK
6
CONTINUOUS
10
184.563
20
-92.6419
11
184.553
21
-92.6533
0
LINE
8
BLACK
6
CONTINUOUS
10
184.553
20
-92.6533
11
184.542
21
-92.6627
0
LINE
8
BLACK
6
CONTINUOUS
10
184.542
20
-92.6627
11
184.529
21
-92.6696
0
LINE
8
BLACK
6
CONTINUOUS
10
184.529
20
-92.6696
11
184.515
21
-92.6739
0
LINE
8
BLACK
6
CONTINUOUS
10
184.515
20
-92.6739
11
184.504
21
-92.675
0
LINE
8
BLACK
6
CONTINUOUS
10
184.504
20
-92.675
11
184.5
21
-92.6754
0
LINE
8
BLACK
6
CONTINUOUS
10
184.5
20
-92.6754
11
184.496
21
-92.675
0
LINE
8
BLACK
6
CONTINUOUS
10
184.496
20
-92.675
11
170.504
21
-92.675
0
LINE
8
BLACK
6
CONTINUOUS
10
170.504
20
-92.675
11
170.5
21
-92.6754
0
LINE
8
BLACK
6
CONTINUOUS
10
170.5
20
-92.6754
11
170.485
21
-92.6739
0
LINE
8
BLACK
6
CONTINUOUS
10
170.485
20
-92.6739
11
170.471
21
-92.6696
0
LINE
8
BLACK
6
CONTINUOUS
10
170.471
20
-92.6696
11
170.458
21
-92.6627
0
LINE
8
BLACK
6
CONTINUOUS
10
170.458
20
-92.6627
11
170.447
21
-92.6533
0
LINE
8
BLACK
6
CONTINUOUS
10
170.447
20
-92.6533
11
170.437
21
-92.6419
0
LINE
8
BLACK
6
CONTINUOUS
10
170.437
20
-92.6419
11
170.43
21
-92.6288
0
LINE
8
BLACK
6
CONTINUOUS
10
170.43
20
-92.6288
11
170.426
21
-92.6147
0
LINE
8
BLACK
6
CONTINUOUS
10
170.426
20
-92.6147
11
170.425
21
-92.6
0
LINE
8
BLACK
6
CONTINUOUS
10
170.425
20
-92.6
11
170.425
21
-92.5963
0
LINE
8
BLACK
6
CONTINUOUS
10
170.425
20
-92.5963
11
170.425
21
-78.6037
0
LINE
8
BLACK
6
CONTINUOUS
10
170.425
20
-78.6037
11
170.425
21
-78.6
0
LINE
8
BLACK
6
CONTINUOUS
10
170.425
20
-78.6
11
170.426
21
-78.5853
0
LINE
8
BLACK
6
CONTINUOUS
10
170.426
20
-78.5853
11
170.43
21
-78.5712
0
LINE
8
BLACK
6
CONTINUOUS
10
170.43
20
-78.5712
11
170.437
21
-78.5581
0
LINE
8
BLACK
6
CONTINUOUS
10
170.437
20
-78.5581
11
170.447
21
-78.5467
0
LINE
8
BLACK
6
CONTINUOUS
10
170.447
20
-78.5467
11
170.458
21
-78.5373
0
LINE
8
BLACK
6
CONTINUOUS
10
170.458
20
-78.5373
11
170.471
21
-78.5304
0
LINE
8
BLACK
6
CONTINUOUS
10
170.471
20
-78.5304
11
170.485
21
-78.5261
0
LINE
8
BLACK
6
CONTINUOUS
10
170.485
20
-78.5261
11
170.496
21
-78.525
0
LINE
8
BLACK
6
CONTINUOUS
10
170.496
20
-78.525
11
170.5
21
-78.5246
0
LINE
8
BLACK
6
CONTINUOUS
10
170.5
20
-78.5246
11
170.504
21
-78.525
0
LINE
8
BLACK
6
CONTINUOUS
10
170.504
20
-78.525
11
184.496
21
-78.525
0
LINE
8
BLACK
6
CONTINUOUS
10
184.496
20
-78.525
11
184.5
21
-78.5246
0
LINE
8
BLACK
6
CONTINUOUS
10
184.5
20
-78.5246
11
184.504
21
-78.525
0
LINE
8
BLACK
6
CONTINUOUS
10
170.575
20
-78.675
11
170.575
21
-92.525
0
LINE
8
BLACK
6
CONTINUOUS
10
170.575
20
-92.525
11
184.425
21
-92.525
0
LINE
8
BLACK
6
CONTINUOUS
10
184.425
20
-92.525
11
184.425
21
-78.675
0
LINE
8
BLACK
6
CONTINUOUS
10
184.425
20
-78.675
11
170.575
21
-78.675
0
LINE
8
BLACK
6
CONTINUOUS
10
146.504
20
-78.525
11
146.515
21
-78.5261
0
LINE
8
BLACK
6
CONTINUOUS
10
146.515
20
-78.5261
11
146.529
21
-78.5304
0
LINE
8
BLACK
6
CONTINUOUS
10
146.529
20
-78.5304
11
146.542
21
-78.5373
0
LINE
8
BLACK
6
CONTINUOUS
10
146.542
20
-78.5373
11
146.553
21
-78.5467
0
LINE
8
BLACK
6
CONTINUOUS
10
146.553
20
-78.5467
11
146.563
21
-78.5581
0
LINE
8
BLACK
6
CONTINUOUS
10
146.563
20
-78.5581
11
146.57
21
-78.5712
0
LINE
8
BLACK
6
CONTINUOUS
10
146.57
20
-78.5712
11
146.574
21
-78.5853
0
LINE
8
BLACK
6
CONTINUOUS
10
146.574
20
-78.5853
11
146.575
21
-78.6
0
LINE
8
BLACK
6
CONTINUOUS
10
146.575
20
-78.6
11
146.575
21
-78.6037
0
LINE
8
BLACK
6
CONTINUOUS
10
146.575
20
-78.6037
11
146.575
21
-92.5963
0
LINE
8
BLACK
6
CONTINUOUS
10
146.575
20
-92.5963
11
146.575
21
-92.6
0
LINE
8
BLACK
6
CONTINUOUS
10
146.575
20
-92.6
11
146.574
21
-92.6147
0
LINE
8
BLACK
6
CONTINUOUS
10
146.574
20
-92.6147
11
146.57
21
-92.6288
0
LINE
8
BLACK
6
CONTINUOUS
10
146.57
20
-92.6288
11
146.563
21
-92.6419
0
LINE
8
BLACK
6
CONTINUOUS
10
146.563
20
-92.6419
11
146.553
21
-92.6533
0
LINE
8
BLACK
6
CONTINUOUS
10
146.553
20
-92.6533
11
146.542
21
-92.6627
0
LINE
8
BLACK
6
CONTINUOUS
10
146.542
20
-92.6627
11
146.529
21
-92.6696
0
LINE
8
BLACK
6
CONTINUOUS
10
146.529
20
-92.6696
11
146.515
21
-92.6739
0
LINE
8
BLACK
6
CONTINUOUS
10
146.515
20
-92.6739
11
146.504
21
-92.675
0
LINE
8
BLACK
6
CONTINUOUS
10
146.504
20
-92.675
11
146.5
21
-92.6754
0
LINE
8
BLACK
6
CONTINUOUS
10
146.5
20
-92.6754
11
146.496
21
-92.675
0
LINE
8
BLACK
6
CONTINUOUS
10
146.496
20
-92.675
11
132.504
21
-92.675
0
LINE
8
BLACK
6
CONTINUOUS
10
132.504
20
-92.675
11
132.5
21
-92.6754
0
LINE
8
BLACK
6
CONTINUOUS
10
132.5
20
-92.6754
11
132.485
21
-92.6739
0
LINE
8
BLACK
6
CONTINUOUS
10
132.485
20
-92.6739
11
132.471
21
-92.6696
0
LINE
8
BLACK
6
CONTINUOUS
10
132.471
20
-92.6696
11
132.458
21
-92.6627
0
LINE
8
BLACK
6
CONTINUOUS
10
132.458
20
-92.6627
11
132.447
21
-92.6533
0
LINE
8
BLACK
6
CONTINUOUS
10
132.447
20
-92.6533
11
132.437
21
-92.6419
0
LINE
8
BLACK
6
CONTINUOUS
10
132.437
20
-92.6419
11
132.43
21
-92.6288
0
LINE
8
BLACK
6
CONTINUOUS
10
132.43
20
-92.6288
11
132.426
21
-92.6147
0
LINE
8
BLACK
6
CONTINUOUS
10
132.426
20
-92.6147
11
132.425
21
-92.6
0
LINE
8
BLACK
6
CONTINUOUS
10
132.425
20
-92.6
11
132.425
21
-92.5963
0
LINE
8
BLACK
6
CONTINUOUS
10
132.425
20
-92.5963
11
132.425
21
-78.6037
0
LINE
8
BLACK
6
CONTINUOUS
10
132.425
20
-78.6037
11
132.425
21
-78.6
0
LINE
8
BLACK
6
CONTINUOUS
10
132.425
20
-78.6
11
132.426
21
-78.5853
0
LINE
8
BLACK
6
CONTINUOUS
10
132.426
20
-78.5853
11
132.43
21
-78.5712
0
LINE
8
BLACK
6
CONTINUOUS
10
132.43
20
-78.5712
11
132.437
21
-78.5581
0
LINE
8
BLACK
6
CONTINUOUS
10
132.437
20
-78.5581
11
132.447
21
-78.5467
0
LINE
8
BLACK
6
CONTINUOUS
10
132.447
20
-78.5467
11
132.458
21
-78.5373
0
LINE
8
BLACK
6
CONTINUOUS
10
132.458
20
-78.5373
11
132.471
21
-78.5304
0
LINE
8
BLACK
6
CONTINUOUS
10
132.471
20
-78.5304
11
132.485
21
-78.5261
0
LINE
8
BLACK
6
CONTINUOUS
10
132.485
20
-78.5261
11
132.496
21
-78.525
0
LINE
8
BLACK
6
CONTINUOUS
10
132.496
20
-78.525
11
132.5
21
-78.5246
0
LINE
8
BLACK
6
CONTINUOUS
10
132.5
20
-78.5246
11
132.504
21
-78.525
0
LINE
8
BLACK
6
CONTINUOUS
10
132.504
20
-78.525
11
146.496
21
-78.525
0
LINE
8
BLACK
6
CONTINUOUS
10
146.496
20
-78.525
11
146.5
21
-78.5246
0
LINE
8
BLACK
6
CONTINUOUS
10
146.5
20
-78.5246
11
146.504
21
-78.525
0
LINE
8
BLACK
6
CONTINUOUS
10
132.575
20
-78.675
11
132.575
21
-92.525
0
LINE
8
BLACK
6
CONTINUOUS
10
132.575
20
-92.525
11
146.425
21
-92.525
0
LINE
8
BLACK
6
CONTINUOUS
10
146.425
20
-92.525
11
146.425
21
-78.675
0
LINE
8
BLACK
6
CONTINUOUS
10
146.425
20
-78.675
11
132.575
21
-78.675
0
LINE
8
BLACK
6
CONTINUOUS
10
165.504
20
-76.125
11
165.515
21
-76.1261
0
LINE
8
BLACK
6
CONTINUOUS
10
165.515
20
-76.1261
11
165.529
21
-76.1304
0
LINE
8
BLACK
6
CONTINUOUS
10
165.529
20
-76.1304
11
165.542
21
-76.1373
0
LINE
8
BLACK
6
CONTINUOUS
10
165.542
20
-76.1373
11
165.553
21
-76.1467
0
LINE
8
BLACK
6
CONTINUOUS
10
165.553
20
-76.1467
11
165.563
21
-76.1581
0
LINE
8
BLACK
6
CONTINUOUS
10
165.563
20
-76.1581
11
165.57
21
-76.1712
0
LINE
8
BLACK
6
CONTINUOUS
10
165.57
20
-76.1712
11
165.574
21
-76.1853
0
LINE
8
BLACK
6
CONTINUOUS
10
165.574
20
-76.1853
11
165.575
21
-76.2
0
LINE
8
BLACK
6
CONTINUOUS
10
165.575
20
-76.2
11
165.575
21
-76.2037
0
LINE
8
BLACK
6
CONTINUOUS
10
165.575
20
-76.2037
11
165.575
21
-90.1963
0
LINE
8
BLACK
6
CONTINUOUS
10
165.575
20
-90.1963
11
165.575
21
-90.2
0
LINE
8
BLACK
6
CONTINUOUS
10
165.575
20
-90.2
11
165.574
21
-90.2147
0
LINE
8
BLACK
6
CONTINUOUS
10
165.574
20
-90.2147
11
165.57
21
-90.2288
0
LINE
8
BLACK
6
CONTINUOUS
10
165.57
20
-90.2288
11
165.563
21
-90.2419
0
LINE
8
BLACK
6
CONTINUOUS
10
165.563
20
-90.2419
11
165.553
21
-90.2533
0
LINE
8
BLACK
6
CONTINUOUS
10
165.553
20
-90.2533
11
165.542
21
-90.2627
0
LINE
8
BLACK
6
CONTINUOUS
10
165.542
20
-90.2627
11
165.529
21
-90.2696
0
LINE
8
BLACK
6
CONTINUOUS
10
165.529
20
-90.2696
11
165.515
21
-90.2739
0
LINE
8
BLACK
6
CONTINUOUS
10
165.515
20
-90.2739
11
165.504
21
-90.275
0
LINE
8
BLACK
6
CONTINUOUS
10
165.504
20
-90.275
11
165.5
21
-90.2754
0
LINE
8
BLACK
6
CONTINUOUS
10
165.5
20
-90.2754
11
165.496
21
-90.275
0
LINE
8
BLACK
6
CONTINUOUS
10
165.496
20
-90.275
11
151.504
21
-90.275
0
LINE
8
BLACK
6
CONTINUOUS
10
151.504
20
-90.275
11
151.5
21
-90.2754
0
LINE
8
BLACK
6
CONTINUOUS
10
151.5
20
-90.2754
11
151.485
21
-90.2739
0
LINE
8
BLACK
6
CONTINUOUS
10
151.485
20
-90.2739
11
151.471
21
-90.2696
0
LINE
8
BLACK
6
CONTINUOUS
10
151.471
20
-90.2696
11
151.458
21
-90.2627
0
LINE
8
BLACK
6
CONTINUOUS
10
151.458
20
-90.2627
11
151.447
21
-90.2533
0
LINE
8
BLACK
6
CONTINUOUS
10
151.447
20
-90.2533
11
151.437
21
-90.2419
0
LINE
8
BLACK
6
CONTINUOUS
10
151.437
20
-90.2419
11
151.43
21
-90.2288
0
LINE
8
BLACK
6
CONTINUOUS
10
151.43
20
-90.2288
11
151.426
21
-90.2147
0
LINE
8
BLACK
6
CONTINUOUS
10
151.426
20
-90.2147
11
151.425
21
-90.2
0
LINE
8
BLACK
6
CONTINUOUS
10
151.425
20
-90.2
11
151.425
21
-90.1963
0
LINE
8
BLACK
6
CONTINUOUS
10
151.425
20
-90.1963
11
151.425
21
-76.2037
0
LINE
8
BLACK
6
CONTINUOUS
10
151.425
20
-76.2037
11
151.425
21
-76.2
0
LINE
8
BLACK
6
CONTINUOUS
10
151.425
20
-76.2
11
151.426
21
-76.1853
0
LINE
8
BLACK
6
CONTINUOUS
10
151.426
20
-76.1853
11
151.43
21
-76.1712
0
LINE
8
BLACK
6
CONTINUOUS
10
151.43
20
-76.1712
11
151.437
21
-76.1581
0
LINE
8
BLACK
6
CONTINUOUS
10
151.437
20
-76.1581
11
151.447
21
-76.1467
0
LINE
8
BLACK
6
CONTINUOUS
10
151.447
20
-76.1467
11
151.458
21
-76.1373
0
LINE
8
BLACK
6
CONTINUOUS
10
151.458
20
-76.1373
11
151.471
21
-76.1304
0
LINE
8
BLACK
6
CONTINUOUS
10
151.471
20
-76.1304
11
151.485
21
-76.1261
0
LINE
8
BLACK
6
CONTINUOUS
10
151.485
20
-76.1261
11
151.496
21
-76.125
0
LINE
8
BLACK
6
CONTINUOUS
10
151.496
20
-76.125
11
151.5
21
-76.1246
0
LINE
8
BLACK
6
CONTINUOUS
10
151.5
20
-76.1246
11
151.504
21
-76.125
0
LINE
8
BLACK
6
CONTINUOUS
10
151.504
20
-76.125
11
165.496
21
-76.125
0
LINE
8
BLACK
6
CONTINUOUS
10
165.496
20
-76.125
11
165.5
21
-76.1246
0
LINE
8
BLACK
6
CONTINUOUS
10
165.5
20
-76.1246
11
165.504
21
-76.125
0
LINE
8
BLACK
6
CONTINUOUS
10
151.575
20
-76.275
11
151.575
21
-90.125
0
LINE
8
BLACK
6
CONTINUOUS
10
151.575
20
-90.125
11
165.425
21
-90.125
0
LINE
8
BLACK
6
CONTINUOUS
10
165.425
20
-90.125
11
165.425
21
-76.275
0
LINE
8
BLACK
6
CONTINUOUS
10
165.425
20
-76.275
11
151.575
21
-76.275
0
LINE
8
BLACK
6
CONTINUOUS
10
222.504
20
-68.325
11
222.515
21
-68.3261
0
LINE
8
BLACK
6
CONTINUOUS
10
222.515
20
-68.3261
11
222.529
21
-68.3304
0
LINE
8
BLACK
6
CONTINUOUS
10
222.529
20
-68.3304
11
222.542
21
-68.3373
0
LINE
8
BLACK
6
CONTINUOUS
10
222.542
20
-68.3373
11
222.553
21
-68.3467
0
LINE
8
BLACK
6
CONTINUOUS
10
222.553
20
-68.3467
11
222.563
21
-68.3581
0
LINE
8
BLACK
6
CONTINUOUS
10
222.563
20
-68.3581
11
222.57
21
-68.3712
0
LINE
8
BLACK
6
CONTINUOUS
10
222.57
20
-68.3712
11
222.574
21
-68.3853
0
LINE
8
BLACK
6
CONTINUOUS
10
222.574
20
-68.3853
11
222.575
21
-68.4
0
LINE
8
BLACK
6
CONTINUOUS
10
222.575
20
-68.4
11
222.575
21
-68.4037
0
LINE
8
BLACK
6
CONTINUOUS
10
222.575
20
-68.4037
11
222.575
21
-82.3963
0
LINE
8
BLACK
6
CONTINUOUS
10
222.575
20
-82.3963
11
222.575
21
-82.4
0
LINE
8
BLACK
6
CONTINUOUS
10
222.575
20
-82.4
11
222.574
21
-82.4147
0
LINE
8
BLACK
6
CONTINUOUS
10
222.574
20
-82.4147
11
222.57
21
-82.4288
0
LINE
8
BLACK
6
CONTINUOUS
10
222.57
20
-82.4288
11
222.563
21
-82.4419
0
LINE
8
BLACK
6
CONTINUOUS
10
222.563
20
-82.4419
11
222.553
21
-82.4533
0
LINE
8
BLACK
6
CONTINUOUS
10
222.553
20
-82.4533
11
222.542
21
-82.4627
0
LINE
8
BLACK
6
CONTINUOUS
10
222.542
20
-82.4627
11
222.529
21
-82.4696
0
LINE
8
BLACK
6
CONTINUOUS
10
222.529
20
-82.4696
11
222.515
21
-82.4739
0
LINE
8
BLACK
6
CONTINUOUS
10
222.515
20
-82.4739
11
222.504
21
-82.475
0
LINE
8
BLACK
6
CONTINUOUS
10
222.504
20
-82.475
11
222.5
21
-82.4754
0
LINE
8
BLACK
6
CONTINUOUS
10
222.5
20
-82.4754
11
222.496
21
-82.475
0
LINE
8
BLACK
6
CONTINUOUS
10
222.496
20
-82.475
11
208.504
21
-82.475
0
LINE
8
BLACK
6
CONTINUOUS
10
208.504
20
-82.475
11
208.5
21
-82.4754
0
LINE
8
BLACK
6
CONTINUOUS
10
208.5
20
-82.4754
11
208.485
21
-82.4739
0
LINE
8
BLACK
6
CONTINUOUS
10
208.485
20
-82.4739
11
208.471
21
-82.4696
0
LINE
8
BLACK
6
CONTINUOUS
10
208.471
20
-82.4696
11
208.458
21
-82.4627
0
LINE
8
BLACK
6
CONTINUOUS
10
208.458
20
-82.4627
11
208.447
21
-82.4533
0
LINE
8
BLACK
6
CONTINUOUS
10
208.447
20
-82.4533
11
208.437
21
-82.4419
0
LINE
8
BLACK
6
CONTINUOUS
10
208.437
20
-82.4419
11
208.43
21
-82.4288
0
LINE
8
BLACK
6
CONTINUOUS
10
208.43
20
-82.4288
11
208.426
21
-82.4147
0
LINE
8
BLACK
6
CONTINUOUS
10
208.426
20
-82.4147
11
208.425
21
-82.4
0
LINE
8
BLACK
6
CONTINUOUS
10
208.425
20
-82.4
11
208.425
21
-82.3963
0
LINE
8
BLACK
6
CONTINUOUS
10
208.425
20
-82.3963
11
208.425
21
-68.4037
0
LINE
8
BLACK
6
CONTINUOUS
10
208.425
20
-68.4037
11
208.425
21
-68.4
0
LINE
8
BLACK
6
CONTINUOUS
10
208.425
20
-68.4
11
208.426
21
-68.3853
0
LINE
8
BLACK
6
CONTINUOUS
10
208.426
20
-68.3853
11
208.43
21
-68.3712
0
LINE
8
BLACK
6
CONTINUOUS
10
208.43
20
-68.3712
11
208.437
21
-68.3581
0
LINE
8
BLACK
6
CONTINUOUS
10
208.437
20
-68.3581
11
208.447
21
-68.3467
0
LINE
8
BLACK
6
CONTINUOUS
10
208.447
20
-68.3467
11
208.458
21
-68.3373
0
LINE
8
BLACK
6
CONTINUOUS
10
208.458
20
-68.3373
11
208.471
21
-68.3304
0
LINE
8
BLACK
6
CONTINUOUS
10
208.471
20
-68.3304
11
208.485
21
-68.3261
0
LINE
8
BLACK
6
CONTINUOUS
10
208.485
20
-68.3261
11
208.496
21
-68.325
0
LINE
8
BLACK
6
CONTINUOUS
10
208.496
20
-68.325
11
208.5
21
-68.3246
0
LINE
8
BLACK
6
CONTINUOUS
10
208.5
20
-68.3246
11
208.504
21
-68.325
0
LINE
8
BLACK
6
CONTINUOUS
10
208.504
20
-68.325
11
222.496
21
-68.325
0
LINE
8
BLACK
6
CONTINUOUS
10
222.496
20
-68.325
11
222.5
21
-68.3246
0
LINE
8
BLACK
6
CONTINUOUS
10
222.5
20
-68.3246
11
222.504
21
-68.325
0
LINE
8
BLACK
6
CONTINUOUS
10
208.575
20
-68.475
11
208.575
21
-82.325
0
LINE
8
BLACK
6
CONTINUOUS
10
208.575
20
-82.325
11
222.425
21
-82.325
0
LINE
8
BLACK
6
CONTINUOUS
10
222.425
20
-82.325
11
222.425
21
-68.475
0
LINE
8
BLACK
6
CONTINUOUS
10
222.425
20
-68.475
11
208.575
21
-68.475
0
LINE
8
BLACK
6
CONTINUOUS
10
203.504
20
-68.325
11
203.515
21
-68.3261
0
LINE
8
BLACK
6
CONTINUOUS
10
203.515
20
-68.3261
11
203.529
21
-68.3304
0
LINE
8
BLACK
6
CONTINUOUS
10
203.529
20
-68.3304
11
203.542
21
-68.3373
0
LINE
8
BLACK
6
CONTINUOUS
10
203.542
20
-68.3373
11
203.553
21
-68.3467
0
LINE
8
BLACK
6
CONTINUOUS
10
203.553
20
-68.3467
11
203.563
21
-68.3581
0
LINE
8
BLACK
6
CONTINUOUS
10
203.563
20
-68.3581
11
203.57
21
-68.3712
0
LINE
8
BLACK
6
CONTINUOUS
10
203.57
20
-68.3712
11
203.574
21
-68.3853
0
LINE
8
BLACK
6
CONTINUOUS
10
203.574
20
-68.3853
11
203.575
21
-68.4
0
LINE
8
BLACK
6
CONTINUOUS
10
203.575
20
-68.4
11
203.575
21
-68.4037
0
LINE
8
BLACK
6
CONTINUOUS
10
203.575
20
-68.4037
11
203.575
21
-82.3963
0
LINE
8
BLACK
6
CONTINUOUS
10
203.575
20
-82.3963
11
203.575
21
-82.4
0
LINE
8
BLACK
6
CONTINUOUS
10
203.575
20
-82.4
11
203.574
21
-82.4147
0
LINE
8
BLACK
6
CONTINUOUS
10
203.574
20
-82.4147
11
203.57
21
-82.4288
0
LINE
8
BLACK
6
CONTINUOUS
10
203.57
20
-82.4288
11
203.563
21
-82.4419
0
LINE
8
BLACK
6
CONTINUOUS
10
203.563
20
-82.4419
11
203.553
21
-82.4533
0
LINE
8
BLACK
6
CONTINUOUS
10
203.553
20
-82.4533
11
203.542
21
-82.4627
0
LINE
8
BLACK
6
CONTINUOUS
10
203.542
20
-82.4627
11
203.529
21
-82.4696
0
LINE
8
BLACK
6
CONTINUOUS
10
203.529
20
-82.4696
11
203.515
21
-82.4739
0
LINE
8
BLACK
6
CONTINUOUS
10
203.515
20
-82.4739
11
203.504
21
-82.475
0
LINE
8
BLACK
6
CONTINUOUS
10
203.504
20
-82.475
11
203.5
21
-82.4754
0
LINE
8
BLACK
6
CONTINUOUS
10
203.5
20
-82.4754
11
203.496
21
-82.475
0
LINE
8
BLACK
6
CONTINUOUS
10
203.496
20
-82.475
11
189.504
21
-82.475
0
LINE
8
BLACK
6
CONTINUOUS
10
189.504
20
-82.475
11
189.5
21
-82.4754
0
LINE
8
BLACK
6
CONTINUOUS
10
189.5
20
-82.4754
11
189.485
21
-82.4739
0
LINE
8
BLACK
6
CONTINUOUS
10
189.485
20
-82.4739
11
189.471
21
-82.4696
0
LINE
8
BLACK
6
CONTINUOUS
10
189.471
20
-82.4696
11
189.458
21
-82.4627
0
LINE
8
BLACK
6
CONTINUOUS
10
189.458
20
-82.4627
11
189.447
21
-82.4533
0
LINE
8
BLACK
6
CONTINUOUS
10
189.447
20
-82.4533
11
189.437
21
-82.4419
0
LINE
8
BLACK
6
CONTINUOUS
10
189.437
20
-82.4419
11
189.43
21
-82.4288
0
LINE
8
BLACK
6
CONTINUOUS
10
189.43
20
-82.4288
11
189.426
21
-82.4147
0
LINE
8
BLACK
6
CONTINUOUS
10
189.426
20
-82.4147
11
189.425
21
-82.4
0
LINE
8
BLACK
6
CONTINUOUS
10
189.425
20
-82.4
11
189.425
21
-82.3963
0
LINE
8
BLACK
6
CONTINUOUS
10
189.425
20
-82.3963
11
189.425
21
-68.4037
0
LINE
8
BLACK
6
CONTINUOUS
10
189.425
20
-68.4037
11
189.425
21
-68.4
0
LINE
8
BLACK
6
CONTINUOUS
10
189.425
20
-68.4
11
189.426
21
-68.3853
0
LINE
8
BLACK
6
CONTINUOUS
10
189.426
20
-68.3853
11
189.43
21
-68.3712
0
LINE
8
BLACK
6
CONTINUOUS
10
189.43
20
-68.3712
11
189.437
21
-68.3581
0
LINE
8
BLACK
6
CONTINUOUS
10
189.437
20
-68.3581
11
189.447
21
-68.3467
0
LINE
8
BLACK
6
CONTINUOUS
10
189.447
20
-68.3467
11
189.458
21
-68.3373
0
LINE
8
BLACK
6
CONTINUOUS
10
189.458
20
-68.3373
11
189.471
21
-68.3304
0
LINE
8
BLACK
6
CONTINUOUS
10
189.471
20
-68.3304
11
189.485
21
-68.3261
0
LINE
8
BLACK
6
CONTINUOUS
10
189.485
20
-68.3261
11
189.496
21
-68.325
0
LINE
8
BLACK
6
CONTINUOUS
10
189.496
20
-68.325
11
189.5
21
-68.3246
0
LINE
8
BLACK
6
CONTINUOUS
10
189.5
20
-68.3246
11
189.504
21
-68.325
0
LINE
8
BLACK
6
CONTINUOUS
10
189.504
20
-68.325
11
203.496
21
-68.325
0
LINE
8
BLACK
6
CONTINUOUS
10
203.496
20
-68.325
11
203.5
21
-68.3246
0
LINE
8
BLACK
6
CONTINUOUS
10
203.5
20
-68.3246
11
203.504
21
-68.325
0
LINE
8
BLACK
6
CONTINUOUS
10
189.575
20
-68.475
11
189.575
21
-82.325
0
LINE
8
BLACK
6
CONTINUOUS
10
189.575
20
-82.325
11
203.425
21
-82.325
0
LINE
8
BLACK
6
CONTINUOUS
10
203.425
20
-82.325
11
203.425
21
-68.475
0
LINE
8
BLACK
6
CONTINUOUS
10
203.425
20
-68.475
11
189.575
21
-68.475
0
LINE
8
BLACK
6
CONTINUOUS
10
127.504
20
-62.025
11
127.515
21
-62.0261
0
LINE
8
BLACK
6
CONTINUOUS
10
127.515
20
-62.0261
11
127.529
21
-62.0304
0
LINE
8
BLACK
6
CONTINUOUS
10
127.529
20
-62.0304
11
127.542
21
-62.0373
0
LINE
8
BLACK
6
CONTINUOUS
10
127.542
20
-62.0373
11
127.553
21
-62.0467
0
LINE
8
BLACK
6
CONTINUOUS
10
127.553
20
-62.0467
11
127.563
21
-62.0581
0
LINE
8
BLACK
6
CONTINUOUS
10
127.563
20
-62.0581
11
127.57
21
-62.0712
0
LINE
8
BLACK
6
CONTINUOUS
10
127.57
20
-62.0712
11
127.574
21
-62.0853
0
LINE
8
BLACK
6
CONTINUOUS
10
127.574
20
-62.0853
11
127.575
21
-62.1
0
LINE
8
BLACK
6
CONTINUOUS
10
127.575
20
-62.1
11
127.575
21
-62.1037
0
LINE
8
BLACK
6
CONTINUOUS
10
127.575
20
-62.1037
11
127.575
21
-76.0963
0
LINE
8
BLACK
6
CONTINUOUS
10
127.575
20
-76.0963
11
127.575
21
-76.1
0
LINE
8
BLACK
6
CONTINUOUS
10
127.575
20
-76.1
11
127.574
21
-76.1147
0
LINE
8
BLACK
6
CONTINUOUS
10
127.574
20
-76.1147
11
127.57
21
-76.1288
0
LINE
8
BLACK
6
CONTINUOUS
10
127.57
20
-76.1288
11
127.563
21
-76.1419
0
LINE
8
BLACK
6
CONTINUOUS
10
127.563
20
-76.1419
11
127.553
21
-76.1533
0
LINE
8
BLACK
6
CONTINUOUS
10
127.553
20
-76.1533
11
127.542
21
-76.1627
0
LINE
8
BLACK
6
CONTINUOUS
10
127.542
20
-76.1627
11
127.529
21
-76.1696
0
LINE
8
BLACK
6
CONTINUOUS
10
127.529
20
-76.1696
11
127.515
21
-76.1739
0
LINE
8
BLACK
6
CONTINUOUS
10
127.515
20
-76.1739
11
127.504
21
-76.175
0
LINE
8
BLACK
6
CONTINUOUS
10
127.504
20
-76.175
11
127.5
21
-76.1754
0
LINE
8
BLACK
6
CONTINUOUS
10
127.5
20
-76.1754
11
127.496
21
-76.175
0
LINE
8
BLACK
6
CONTINUOUS
10
127.496
20
-76.175
11
113.504
21
-76.175
0
LINE
8
BLACK
6
CONTINUOUS
10
113.504
20
-76.175
11
113.5
21
-76.1754
0
LINE
8
BLACK
6
CONTINUOUS
10
113.5
20
-76.1754
11
113.485
21
-76.1739
0
LINE
8
BLACK
6
CONTINUOUS
10
113.485
20
-76.1739
11
113.471
21
-76.1696
0
LINE
8
BLACK
6
CONTINUOUS
10
113.471
20
-76.1696
11
113.458
21
-76.1627
0
LINE
8
BLACK
6
CONTINUOUS
10
113.458
20
-76.1627
11
113.447
21
-76.1533
0
LINE
8
BLACK
6
CONTINUOUS
10
113.447
20
-76.1533
11
113.441
21
-76.1467
0
LINE
8
BLACK
6
CONTINUOUS
10
113.441
20
-76.1467
11
113.437
21
-76.1419
0
LINE
8
BLACK
6
CONTINUOUS
10
113.437
20
-76.1419
11
113.43
21
-76.1288
0
LINE
8
BLACK
6
CONTINUOUS
10
113.43
20
-76.1288
11
113.426
21
-76.1147
0
LINE
8
BLACK
6
CONTINUOUS
10
113.426
20
-76.1147
11
113.425
21
-76.1
0
LINE
8
BLACK
6
CONTINUOUS
10
113.425
20
-76.1
11
113.425
21
-76.0963
0
LINE
8
BLACK
6
CONTINUOUS
10
113.425
20
-76.0963
11
113.425
21
-62.1037
0
LINE
8
BLACK
6
CONTINUOUS
10
113.425
20
-62.1037
11
113.425
21
-62.1
0
LINE
8
BLACK
6
CONTINUOUS
10
113.425
20
-62.1
11
113.426
21
-62.0853
0
LINE
8
BLACK
6
CONTINUOUS
10
113.426
20
-62.0853
11
113.43
21
-62.0712
0
LINE
8
BLACK
6
CONTINUOUS
10
113.43
20
-62.0712
11
113.437
21
-62.0581
0
LINE
8
BLACK
6
CONTINUOUS
10
113.437
20
-62.0581
11
113.447
21
-62.0467
0
LINE
8
BLACK
6
CONTINUOUS
10
113.447
20
-62.0467
11
113.458
21
-62.0373
0
LINE
8
BLACK
6
CONTINUOUS
10
113.458
20
-62.0373
11
113.471
21
-62.0304
0
LINE
8
BLACK
6
CONTINUOUS
10
113.471
20
-62.0304
11
113.485
21
-62.0261
0
LINE
8
BLACK
6
CONTINUOUS
10
113.485
20
-62.0261
11
113.496
21
-62.025
0
LINE
8
BLACK
6
CONTINUOUS
10
113.496
20
-62.025
11
113.5
21
-62.0246
0
LINE
8
BLACK
6
CONTINUOUS
10
113.5
20
-62.0246
11
113.504
21
-62.025
0
LINE
8
BLACK
6
CONTINUOUS
10
113.504
20
-62.025
11
127.496
21
-62.025
0
LINE
8
BLACK
6
CONTINUOUS
10
127.496
20
-62.025
11
127.5
21
-62.0246
0
LINE
8
BLACK
6
CONTINUOUS
10
127.5
20
-62.0246
11
127.504
21
-62.025
0
LINE
8
BLACK
6
CONTINUOUS
10
113.575
20
-62.175
11
113.575
21
-76.025
0
LINE
8
BLACK
6
CONTINUOUS
10
113.575
20
-76.025
11
127.425
21
-76.025
0
LINE
8
BLACK
6
CONTINUOUS
10
127.425
20
-76.025
11
127.425
21
-62.175
0
LINE
8
BLACK
6
CONTINUOUS
10
127.425
20
-62.175
11
113.575
21
-62.175
0
LINE
8
BLACK
6
CONTINUOUS
10
146.504
20
-59.525
11
146.515
21
-59.5261
0
LINE
8
BLACK
6
CONTINUOUS
10
146.515
20
-59.5261
11
146.529
21
-59.5304
0
LINE
8
BLACK
6
CONTINUOUS
10
146.529
20
-59.5304
11
146.542
21
-59.5373
0
LINE
8
BLACK
6
CONTINUOUS
10
146.542
20
-59.5373
11
146.553
21
-59.5467
0
LINE
8
BLACK
6
CONTINUOUS
10
146.553
20
-59.5467
11
146.563
21
-59.5581
0
LINE
8
BLACK
6
CONTINUOUS
10
146.563
20
-59.5581
11
146.57
21
-59.5712
0
LINE
8
BLACK
6
CONTINUOUS
10
146.57
20
-59.5712
11
146.574
21
-59.5853
0
LINE
8
BLACK
6
CONTINUOUS
10
146.574
20
-59.5853
11
146.575
21
-59.6
0
LINE
8
BLACK
6
CONTINUOUS
10
146.575
20
-59.6
11
146.575
21
-59.6037
0
LINE
8
BLACK
6
CONTINUOUS
10
146.575
20
-59.6037
11
146.575
21
-73.5963
0
LINE
8
BLACK
6
CONTINUOUS
10
146.575
20
-73.5963
11
146.575
21
-73.6
0
LINE
8
BLACK
6
CONTINUOUS
10
146.575
20
-73.6
11
146.574
21
-73.6147
0
LINE
8
BLACK
6
CONTINUOUS
10
146.574
20
-73.6147
11
146.57
21
-73.6288
0
LINE
8
BLACK
6
CONTINUOUS
10
146.57
20
-73.6288
11
146.563
21
-73.6419
0
LINE
8
BLACK
6
CONTINUOUS
10
146.563
20
-73.6419
11
146.553
21
-73.6533
0
LINE
8
BLACK
6
CONTINUOUS
10
146.553
20
-73.6533
11
146.542
21
-73.6627
0
LINE
8
BLACK
6
CONTINUOUS
10
146.542
20
-73.6627
11
146.529
21
-73.6696
0
LINE
8
BLACK
6
CONTINUOUS
10
146.529
20
-73.6696
11
146.515
21
-73.6739
0
LINE
8
BLACK
6
CONTINUOUS
10
146.515
20
-73.6739
11
146.504
21
-73.675
0
LINE
8
BLACK
6
CONTINUOUS
10
146.504
20
-73.675
11
146.5
21
-73.6754
0
LINE
8
BLACK
6
CONTINUOUS
10
146.5
20
-73.6754
11
146.496
21
-73.675
0
LINE
8
BLACK
6
CONTINUOUS
10
146.496
20
-73.675
11
132.504
21
-73.675
0
LINE
8
BLACK
6
CONTINUOUS
10
132.504
20
-73.675
11
132.5
21
-73.6754
0
LINE
8
BLACK
6
CONTINUOUS
10
132.5
20
-73.6754
11
132.485
21
-73.6739
0
LINE
8
BLACK
6
CONTINUOUS
10
132.485
20
-73.6739
11
132.471
21
-73.6696
0
LINE
8
BLACK
6
CONTINUOUS
10
132.471
20
-73.6696
11
132.458
21
-73.6627
0
LINE
8
BLACK
6
CONTINUOUS
10
132.458
20
-73.6627
11
132.447
21
-73.6533
0
LINE
8
BLACK
6
CONTINUOUS
10
132.447
20
-73.6533
11
132.437
21
-73.6419
0
LINE
8
BLACK
6
CONTINUOUS
10
132.437
20
-73.6419
11
132.43
21
-73.6288
0
LINE
8
BLACK
6
CONTINUOUS
10
132.43
20
-73.6288
11
132.426
21
-73.6147
0
LINE
8
BLACK
6
CONTINUOUS
10
132.426
20
-73.6147
11
132.425
21
-73.6
0
LINE
8
BLACK
6
CONTINUOUS
10
132.425
20
-73.6
11
132.425
21
-73.5963
0
LINE
8
BLACK
6
CONTINUOUS
10
132.425
20
-73.5963
11
132.425
21
-59.6037
0
LINE
8
BLACK
6
CONTINUOUS
10
132.425
20
-59.6037
11
132.425
21
-59.6
0
LINE
8
BLACK
6
CONTINUOUS
10
132.425
20
-59.6
11
132.426
21
-59.5853
0
LINE
8
BLACK
6
CONTINUOUS
10
132.426
20
-59.5853
11
132.43
21
-59.5712
0
LINE
8
BLACK
6
CONTINUOUS
10
132.43
20
-59.5712
11
132.437
21
-59.5581
0
LINE
8
BLACK
6
CONTINUOUS
10
132.437
20
-59.5581
11
132.447
21
-59.5467
0
LINE
8
BLACK
6
CONTINUOUS
10
132.447
20
-59.5467
11
132.458
21
-59.5373
0
LINE
8
BLACK
6
CONTINUOUS
10
132.458
20
-59.5373
11
132.471
21
-59.5304
0
LINE
8
BLACK
6
CONTINUOUS
10
132.471
20
-59.5304
11
132.485
21
-59.5261
0
LINE
8
BLACK
6
CONTINUOUS
10
132.485
20
-59.5261
11
132.496
21
-59.525
0
LINE
8
BLACK
6
CONTINUOUS
10
132.496
20
-59.525
11
132.5
21
-59.5246
0
LINE
8
BLACK
6
CONTINUOUS
10
132.5
20
-59.5246
11
132.504
21
-59.525
0
LINE
8
BLACK
6
CONTINUOUS
10
132.504
20
-59.525
11
146.496
21
-59.525
0
LINE
8
BLACK
6
CONTINUOUS
10
146.496
20
-59.525
11
146.5
21
-59.5246
0
LINE
8
BLACK
6
CONTINUOUS
10
146.5
20
-59.5246
11
146.504
21
-59.525
0
LINE
8
BLACK
6
CONTINUOUS
10
132.575
20
-59.675
11
132.575
21
-73.525
0
LINE
8
BLACK
6
CONTINUOUS
10
132.575
20
-73.525
11
146.425
21
-73.525
0
LINE
8
BLACK
6
CONTINUOUS
10
146.425
20
-73.525
11
146.425
21
-59.675
0
LINE
8
BLACK
6
CONTINUOUS
10
146.425
20
-59.675
11
132.575
21
-59.675
0
LINE
8
BLACK
6
CONTINUOUS
10
184.504
20
-59.425
11
184.515
21
-59.4261
0
LINE
8
BLACK
6
CONTINUOUS
10
184.515
20
-59.4261
11
184.529
21
-59.4304
0
LINE
8
BLACK
6
CONTINUOUS
10
184.529
20
-59.4304
11
184.542
21
-59.4373
0
LINE
8
BLACK
6
CONTINUOUS
10
184.542
20
-59.4373
11
184.553
21
-59.4467
0
LINE
8
BLACK
6
CONTINUOUS
10
184.553
20
-59.4467
11
184.563
21
-59.4581
0
LINE
8
BLACK
6
CONTINUOUS
10
184.563
20
-59.4581
11
184.57
21
-59.4712
0
LINE
8
BLACK
6
CONTINUOUS
10
184.57
20
-59.4712
11
184.574
21
-59.4853
0
LINE
8
BLACK
6
CONTINUOUS
10
184.574
20
-59.4853
11
184.575
21
-59.5
0
LINE
8
BLACK
6
CONTINUOUS
10
184.575
20
-59.5
11
184.575
21
-59.5037
0
LINE
8
BLACK
6
CONTINUOUS
10
184.575
20
-59.5037
11
184.575
21
-73.4963
0
LINE
8
BLACK
6
CONTINUOUS
10
184.575
20
-73.4963
11
184.575
21
-73.5
0
LINE
8
BLACK
6
CONTINUOUS
10
184.575
20
-73.5
11
184.574
21
-73.5147
0
LINE
8
BLACK
6
CONTINUOUS
10
184.574
20
-73.5147
11
184.57
21
-73.5288
0
LINE
8
BLACK
6
CONTINUOUS
10
184.57
20
-73.5288
11
184.563
21
-73.5419
0
LINE
8
BLACK
6
CONTINUOUS
10
184.563
20
-73.5419
11
184.553
21
-73.5533
0
LINE
8
BLACK
6
CONTINUOUS
10
184.553
20
-73.5533
11
184.542
21
-73.5627
0
LINE
8
BLACK
6
CONTINUOUS
10
184.542
20
-73.5627
11
184.529
21
-73.5696
0
LINE
8
BLACK
6
CONTINUOUS
10
184.529
20
-73.5696
11
184.515
21
-73.5739
0
LINE
8
BLACK
6
CONTINUOUS
10
184.515
20
-73.5739
11
184.504
21
-73.575
0
LINE
8
BLACK
6
CONTINUOUS
10
184.504
20
-73.575
11
184.5
21
-73.5754
0
LINE
8
BLACK
6
CONTINUOUS
10
184.5
20
-73.5754
11
184.496
21
-73.575
0
LINE
8
BLACK
6
CONTINUOUS
10
184.496
20
-73.575
11
170.504
21
-73.575
0
LINE
8
BLACK
6
CONTINUOUS
10
170.504
20
-73.575
11
170.5
21
-73.5754
0
LINE
8
BLACK
6
CONTINUOUS
10
170.5
20
-73.5754
11
170.485
21
-73.5739
0
LINE
8
BLACK
6
CONTINUOUS
10
170.485
20
-73.5739
11
170.471
21
-73.5696
0
LINE
8
BLACK
6
CONTINUOUS
10
170.471
20
-73.5696
11
170.458
21
-73.5627
0
LINE
8
BLACK
6
CONTINUOUS
10
170.458
20
-73.5627
11
170.447
21
-73.5533
0
LINE
8
BLACK
6
CONTINUOUS
10
170.447
20
-73.5533
11
170.441
21
-73.5467
0
LINE
8
BLACK
6
CONTINUOUS
10
170.441
20
-73.5467
11
170.437
21
-73.5419
0
LINE
8
BLACK
6
CONTINUOUS
10
170.437
20
-73.5419
11
170.43
21
-73.5288
0
LINE
8
BLACK
6
CONTINUOUS
10
170.43
20
-73.5288
11
170.426
21
-73.5147
0
LINE
8
BLACK
6
CONTINUOUS
10
170.426
20
-73.5147
11
170.425
21
-73.5
0
LINE
8
BLACK
6
CONTINUOUS
10
170.425
20
-73.5
11
170.425
21
-73.4963
0
LINE
8
BLACK
6
CONTINUOUS
10
170.425
20
-73.4963
11
170.425
21
-59.5037
0
LINE
8
BLACK
6
CONTINUOUS
10
170.425
20
-59.5037
11
170.425
21
-59.5
0
LINE
8
BLACK
6
CONTINUOUS
10
170.425
20
-59.5
11
170.426
21
-59.4853
0
LINE
8
BLACK
6
CONTINUOUS
10
170.426
20
-59.4853
11
170.43
21
-59.4712
0
LINE
8
BLACK
6
CONTINUOUS
10
170.43
20
-59.4712
11
170.437
21
-59.4581
0
LINE
8
BLACK
6
CONTINUOUS
10
170.437
20
-59.4581
11
170.447
21
-59.4467
0
LINE
8
BLACK
6
CONTINUOUS
10
170.447
20
-59.4467
11
170.458
21
-59.4373
0
LINE
8
BLACK
6
CONTINUOUS
10
170.458
20
-59.4373
11
170.471
21
-59.4304
0
LINE
8
BLACK
6
CONTINUOUS
10
170.471
20
-59.4304
11
170.485
21
-59.4261
0
LINE
8
BLACK
6
CONTINUOUS
10
170.485
20
-59.4261
11
170.496
21
-59.425
0
LINE
8
BLACK
6
CONTINUOUS
10
170.496
20
-59.425
11
170.5
21
-59.4246
0
LINE
8
BLACK
6
CONTINUOUS
10
170.5
20
-59.4246
11
170.504
21
-59.425
0
LINE
8
BLACK
6
CONTINUOUS
10
170.504
20
-59.425
11
184.496
21
-59.425
0
LINE
8
BLACK
6
CONTINUOUS
10
184.496
20
-59.425
11
184.5
21
-59.4246
0
LINE
8
BLACK
6
CONTINUOUS
10
184.5
20
-59.4246
11
184.504
21
-59.425
0
LINE
8
BLACK
6
CONTINUOUS
10
170.575
20
-59.575
11
170.575
21
-73.425
0
LINE
8
BLACK
6
CONTINUOUS
10
170.575
20
-73.425
11
184.425
21
-73.425
0
LINE
8
BLACK
6
CONTINUOUS
10
184.425
20
-73.425
11
184.425
21
-59.575
0
LINE
8
BLACK
6
CONTINUOUS
10
184.425
20
-59.575
11
170.575
21
-59.575
0
LINE
8
BLACK
6
CONTINUOUS
10
165.504
20
-57.025
11
165.515
21
-57.0261
0
LINE
8
BLACK
6
CONTINUOUS
10
165.515
20
-57.0261
11
165.529
21
-57.0304
0
LINE
8
BLACK
6
CONTINUOUS
10
165.529
20
-57.0304
11
165.542
21
-57.0373
0
LINE
8
BLACK
6
CONTINUOUS
10
165.542
20
-57.0373
11
165.553
21
-57.0467
0
LINE
8
BLACK
6
CONTINUOUS
10
165.553
20
-57.0467
11
165.563
21
-57.0581
0
LINE
8
BLACK
6
CONTINUOUS
10
165.563
20
-57.0581
11
165.57
21
-57.0712
0
LINE
8
BLACK
6
CONTINUOUS
10
165.57
20
-57.0712
11
165.574
21
-57.0853
0
LINE
8
BLACK
6
CONTINUOUS
10
165.574
20
-57.0853
11
165.575
21
-57.1
0
LINE
8
BLACK
6
CONTINUOUS
10
165.575
20
-57.1
11
165.575
21
-57.1037
0
LINE
8
BLACK
6
CONTINUOUS
10
165.575
20
-57.1037
11
165.575
21
-71.0963
0
LINE
8
BLACK
6
CONTINUOUS
10
165.575
20
-71.0963
11
165.575
21
-71.1
0
LINE
8
BLACK
6
CONTINUOUS
10
165.575
20
-71.1
11
165.574
21
-71.1147
0
LINE
8
BLACK
6
CONTINUOUS
10
165.574
20
-71.1147
11
165.57
21
-71.1288
0
LINE
8
BLACK
6
CONTINUOUS
10
165.57
20
-71.1288
11
165.563
21
-71.1419
0
LINE
8
BLACK
6
CONTINUOUS
10
165.563
20
-71.1419
11
165.553
21
-71.1533
0
LINE
8
BLACK
6
CONTINUOUS
10
165.553
20
-71.1533
11
165.542
21
-71.1627
0
LINE
8
BLACK
6
CONTINUOUS
10
165.542
20
-71.1627
11
165.529
21
-71.1696
0
LINE
8
BLACK
6
CONTINUOUS
10
165.529
20
-71.1696
11
165.515
21
-71.1739
0
LINE
8
BLACK
6
CONTINUOUS
10
165.515
20
-71.1739
11
165.504
21
-71.175
0
LINE
8
BLACK
6
CONTINUOUS
10
165.504
20
-71.175
11
165.5
21
-71.1754
0
LINE
8
BLACK
6
CONTINUOUS
10
165.5
20
-71.1754
11
165.496
21
-71.175
0
LINE
8
BLACK
6
CONTINUOUS
10
165.496
20
-71.175
11
151.504
21
-71.175
0
LINE
8
BLACK
6
CONTINUOUS
10
151.504
20
-71.175
11
151.5
21
-71.1754
0
LINE
8
BLACK
6
CONTINUOUS
10
151.5
20
-71.1754
11
151.485
21
-71.1739
0
LINE
8
BLACK
6
CONTINUOUS
10
151.485
20
-71.1739
11
151.471
21
-71.1696
0
LINE
8
BLACK
6
CONTINUOUS
10
151.471
20
-71.1696
11
151.458
21
-71.1627
0
LINE
8
BLACK
6
CONTINUOUS
10
151.458
20
-71.1627
11
151.447
21
-71.1533
0
LINE
8
BLACK
6
CONTINUOUS
10
151.447
20
-71.1533
11
151.437
21
-71.1419
0
LINE
8
BLACK
6
CONTINUOUS
10
151.437
20
-71.1419
11
151.43
21
-71.1288
0
LINE
8
BLACK
6
CONTINUOUS
10
151.43
20
-71.1288
11
151.426
21
-71.1147
0
LINE
8
BLACK
6
CONTINUOUS
10
151.426
20
-71.1147
11
151.425
21
-71.1
0
LINE
8
BLACK
6
CONTINUOUS
10
151.425
20
-71.1
11
151.425
21
-71.0963
0
LINE
8
BLACK
6
CONTINUOUS
10
151.425
20
-71.0963
11
151.425
21
-57.1037
0
LINE
8
BLACK
6
CONTINUOUS
10
151.425
20
-57.1037
11
151.425
21
-57.1
0
LINE
8
BLACK
6
CONTINUOUS
10
151.425
20
-57.1
11
151.426
21
-57.0853
0
LINE
8
BLACK
6
CONTINUOUS
10
151.426
20
-57.0853
11
151.43
21
-57.0712
0
LINE
8
BLACK
6
CONTINUOUS
10
151.43
20
-57.0712
11
151.437
21
-57.0581
0
LINE
8
BLACK
6
CONTINUOUS
10
151.437
20
-57.0581
11
151.447
21
-57.0467
0
LINE
8
BLACK
6
CONTINUOUS
10
151.447
20
-57.0467
11
151.458
21
-57.0373
0
LINE
8
BLACK
6
CONTINUOUS
10
151.458
20
-57.0373
11
151.471
21
-57.0304
0
LINE
8
BLACK
6
CONTINUOUS
10
151.471
20
-57.0304
11
151.485
21
-57.0261
0
LINE
8
BLACK
6
CONTINUOUS
10
151.485
20
-57.0261
11
151.496
21
-57.025
0
LINE
8
BLACK
6
CONTINUOUS
10
151.496
20
-57.025
11
151.5
21
-57.0246
0
LINE
8
BLACK
6
CONTINUOUS
10
151.5
20
-57.0246
11
151.504
21
-57.025
0
LINE
8
BLACK
6
CONTINUOUS
10
151.504
20
-57.025
11
165.496
21
-57.025
0
LINE
8
BLACK
6
CONTINUOUS
10
165.496
20
-57.025
11
165.5
21
-57.0246
0
LINE
8
BLACK
6
CONTINUOUS
10
165.5
20
-57.0246
11
165.504
21
-57.025
0
LINE
8
BLACK
6
CONTINUOUS
10
151.575
20
-57.175
11
151.575
21
-71.025
0
LINE
8
BLACK
6
CONTINUOUS
10
151.575
20
-71.025
11
165.425
21
-71.025
0
LINE
8
BLACK
6
CONTINUOUS
10
165.425
20
-71.025
11
165.425
21
-57.175
0
LINE
8
BLACK
6
CONTINUOUS
10
165.425
20
-57.175
11
151.575
21
-57.175
0
LINE
8
BLACK
6
CONTINUOUS
10
203.504
20
-49.425
11
203.515
21
-49.4261
0
LINE
8
BLACK
6
CONTINUOUS
10
203.515
20
-49.4261
11
203.529
21
-49.4304
0
LINE
8
BLACK
6
CONTINUOUS
10
203.529
20
-49.4304
11
203.542
21
-49.4373
0
LINE
8
BLACK
6
CONTINUOUS
10
203.542
20
-49.4373
11
203.553
21
-49.4467
0
LINE
8
BLACK
6
CONTINUOUS
10
203.553
20
-49.4467
11
203.563
21
-49.4581
0
LINE
8
BLACK
6
CONTINUOUS
10
203.563
20
-49.4581
11
203.57
21
-49.4712
0
LINE
8
BLACK
6
CONTINUOUS
10
203.57
20
-49.4712
11
203.574
21
-49.4853
0
LINE
8
BLACK
6
CONTINUOUS
10
203.574
20
-49.4853
11
203.575
21
-49.5
0
LINE
8
BLACK
6
CONTINUOUS
10
203.575
20
-49.5
11
203.575
21
-49.5037
0
LINE
8
BLACK
6
CONTINUOUS
10
203.575
20
-49.5037
11
203.575
21
-63.4963
0
LINE
8
BLACK
6
CONTINUOUS
10
203.575
20
-63.4963
11
203.575
21
-63.5
0
LINE
8
BLACK
6
CONTINUOUS
10
203.575
20
-63.5
11
203.574
21
-63.5147
0
LINE
8
BLACK
6
CONTINUOUS
10
203.574
20
-63.5147
11
203.57
21
-63.5288
0
LINE
8
BLACK
6
CONTINUOUS
10
203.57
20
-63.5288
11
203.563
21
-63.5419
0
LINE
8
BLACK
6
CONTINUOUS
10
203.563
20
-63.5419
11
203.553
21
-63.5533
0
LINE
8
BLACK
6
CONTINUOUS
10
203.553
20
-63.5533
11
203.542
21
-63.5627
0
LINE
8
BLACK
6
CONTINUOUS
10
203.542
20
-63.5627
11
203.529
21
-63.5696
0
LINE
8
BLACK
6
CONTINUOUS
10
203.529
20
-63.5696
11
203.515
21
-63.5739
0
LINE
8
BLACK
6
CONTINUOUS
10
203.515
20
-63.5739
11
203.504
21
-63.575
0
LINE
8
BLACK
6
CONTINUOUS
10
203.504
20
-63.575
11
203.5
21
-63.5754
0
LINE
8
BLACK
6
CONTINUOUS
10
203.5
20
-63.5754
11
203.496
21
-63.575
0
LINE
8
BLACK
6
CONTINUOUS
10
203.496
20
-63.575
11
189.504
21
-63.575
0
LINE
8
BLACK
6
CONTINUOUS
10
189.504
20
-63.575
11
189.5
21
-63.5754
0
LINE
8
BLACK
6
CONTINUOUS
10
189.5
20
-63.5754
11
189.485
21
-63.5739
0
LINE
8
BLACK
6
CONTINUOUS
10
189.485
20
-63.5739
11
189.471
21
-63.5696
0
LINE
8
BLACK
6
CONTINUOUS
10
189.471
20
-63.5696
11
189.458
21
-63.5627
0
LINE
8
BLACK
6
CONTINUOUS
10
189.458
20
-63.5627
11
189.447
21
-63.5533
0
LINE
8
BLACK
6
CONTINUOUS
10
189.447
20
-63.5533
11
189.437
21
-63.5419
0
LINE
8
BLACK
6
CONTINUOUS
10
189.437
20
-63.5419
11
189.43
21
-63.5288
0
LINE
8
BLACK
6
CONTINUOUS
10
189.43
20
-63.5288
11
189.426
21
-63.5147
0
LINE
8
BLACK
6
CONTINUOUS
10
189.426
20
-63.5147
11
189.425
21
-63.5
0
LINE
8
BLACK
6
CONTINUOUS
10
189.425
20
-63.5
11
189.425
21
-63.4963
0
LINE
8
BLACK
6
CONTINUOUS
10
189.425
20
-63.4963
11
189.425
21
-49.5037
0
LINE
8
BLACK
6
CONTINUOUS
10
189.425
20
-49.5037
11
189.425
21
-49.5
0
LINE
8
BLACK
6
CONTINUOUS
10
189.425
20
-49.5
11
189.426
21
-49.4853
0
LINE
8
BLACK
6
CONTINUOUS
10
189.426
20
-49.4853
11
189.43
21
-49.4712
0
LINE
8
BLACK
6
CONTINUOUS
10
189.43
20
-49.4712
11
189.437
21
-49.4581
0
LINE
8
BLACK
6
CONTINUOUS
10
189.437
20
-49.4581
11
189.447
21
-49.4467
0
LINE
8
BLACK
6
CONTINUOUS
10
189.447
20
-49.4467
11
189.458
21
-49.4373
0
LINE
8
BLACK
6
CONTINUOUS
10
189.458
20
-49.4373
11
189.471
21
-49.4304
0
LINE
8
BLACK
6
CONTINUOUS
10
189.471
20
-49.4304
11
189.485
21
-49.4261
0
LINE
8
BLACK
6
CONTINUOUS
10
189.485
20
-49.4261
11
189.496
21
-49.425
0
LINE
8
BLACK
6
CONTINUOUS
10
189.496
20
-49.425
11
189.5
21
-49.4246
0
LINE
8
BLACK
6
CONTINUOUS
10
189.5
20
-49.4246
11
189.504
21
-49.425
0
LINE
8
BLACK
6
CONTINUOUS
10
189.504
20
-49.425
11
203.496
21
-49.425
0
LINE
8
BLACK
6
CONTINUOUS
10
203.496
20
-49.425
11
203.5
21
-49.4246
0
LINE
8
BLACK
6
CONTINUOUS
10
203.5
20
-49.4246
11
203.504
21
-49.425
0
LINE
8
BLACK
6
CONTINUOUS
10
189.575
20
-49.575
11
189.575
21
-63.425
0
LINE
8
BLACK
6
CONTINUOUS
10
189.575
20
-63.425
11
203.425
21
-63.425
0
LINE
8
BLACK
6
CONTINUOUS
10
203.425
20
-63.425
11
203.425
21
-49.575
0
LINE
8
BLACK
6
CONTINUOUS
10
203.425
20
-49.575
11
189.575
21
-49.575
0
LINE
8
BLACK
6
CONTINUOUS
10
222.504
20
-49.425
11
222.515
21
-49.4261
0
LINE
8
BLACK
6
CONTINUOUS
10
222.515
20
-49.4261
11
222.529
21
-49.4304
0
LINE
8
BLACK
6
CONTINUOUS
10
222.529
20
-49.4304
11
222.542
21
-49.4373
0
LINE
8
BLACK
6
CONTINUOUS
10
222.542
20
-49.4373
11
222.553
21
-49.4467
0
LINE
8
BLACK
6
CONTINUOUS
10
222.553
20
-49.4467
11
222.563
21
-49.4581
0
LINE
8
BLACK
6
CONTINUOUS
10
222.563
20
-49.4581
11
222.57
21
-49.4712
0
LINE
8
BLACK
6
CONTINUOUS
10
222.57
20
-49.4712
11
222.574
21
-49.4853
0
LINE
8
BLACK
6
CONTINUOUS
10
222.574
20
-49.4853
11
222.575
21
-49.5
0
LINE
8
BLACK
6
CONTINUOUS
10
222.575
20
-49.5
11
222.575
21
-49.5037
0
LINE
8
BLACK
6
CONTINUOUS
10
222.575
20
-49.5037
11
222.575
21
-63.4963
0
LINE
8
BLACK
6
CONTINUOUS
10
222.575
20
-63.4963
11
222.575
21
-63.5
0
LINE
8
BLACK
6
CONTINUOUS
10
222.575
20
-63.5
11
222.574
21
-63.5147
0
LINE
8
BLACK
6
CONTINUOUS
10
222.574
20
-63.5147
11
222.57
21
-63.5288
0
LINE
8
BLACK
6
CONTINUOUS
10
222.57
20
-63.5288
11
222.563
21
-63.5419
0
LINE
8
BLACK
6
CONTINUOUS
10
222.563
20
-63.5419
11
222.553
21
-63.5533
0
LINE
8
BLACK
6
CONTINUOUS
10
222.553
20
-63.5533
11
222.542
21
-63.5627
0
LINE
8
BLACK
6
CONTINUOUS
10
222.542
20
-63.5627
11
222.529
21
-63.5696
0
LINE
8
BLACK
6
CONTINUOUS
10
222.529
20
-63.5696
11
222.515
21
-63.5739
0
LINE
8
BLACK
6
CONTINUOUS
10
222.515
20
-63.5739
11
222.504
21
-63.575
0
LINE
8
BLACK
6
CONTINUOUS
10
222.504
20
-63.575
11
222.5
21
-63.5754
0
LINE
8
BLACK
6
CONTINUOUS
10
222.5
20
-63.5754
11
222.496
21
-63.575
0
LINE
8
BLACK
6
CONTINUOUS
10
222.496
20
-63.575
11
208.504
21
-63.575
0
LINE
8
BLACK
6
CONTINUOUS
10
208.504
20
-63.575
11
208.5
21
-63.5754
0
LINE
8
BLACK
6
CONTINUOUS
10
208.5
20
-63.5754
11
208.485
21
-63.5739
0
LINE
8
BLACK
6
CONTINUOUS
10
208.485
20
-63.5739
11
208.471
21
-63.5696
0
LINE
8
BLACK
6
CONTINUOUS
10
208.471
20
-63.5696
11
208.458
21
-63.5627
0
LINE
8
BLACK
6
CONTINUOUS
10
208.458
20
-63.5627
11
208.447
21
-63.5533
0
LINE
8
BLACK
6
CONTINUOUS
10
208.447
20
-63.5533
11
208.437
21
-63.5419
0
LINE
8
BLACK
6
CONTINUOUS
10
208.437
20
-63.5419
11
208.43
21
-63.5288
0
LINE
8
BLACK
6
CONTINUOUS
10
208.43
20
-63.5288
11
208.426
21
-63.5147
0
LINE
8
BLACK
6
CONTINUOUS
10
208.426
20
-63.5147
11
208.425
21
-63.5
0
LINE
8
BLACK
6
CONTINUOUS
10
208.425
20
-63.5
11
208.425
21
-63.4963
0
LINE
8
BLACK
6
CONTINUOUS
10
208.425
20
-63.4963
11
208.425
21
-49.5037
0
LINE
8
BLACK
6
CONTINUOUS
10
208.425
20
-49.5037
11
208.425
21
-49.5
0
LINE
8
BLACK
6
CONTINUOUS
10
208.425
20
-49.5
11
208.426
21
-49.4853
0
LINE
8
BLACK
6
CONTINUOUS
10
208.426
20
-49.4853
11
208.43
21
-49.4712
0
LINE
8
BLACK
6
CONTINUOUS
10
208.43
20
-49.4712
11
208.437
21
-49.4581
0
LINE
8
BLACK
6
CONTINUOUS
10
208.437
20
-49.4581
11
208.447
21
-49.4467
0
LINE
8
BLACK
6
CONTINUOUS
10
208.447
20
-49.4467
11
208.458
21
-49.4373
0
LINE
8
BLACK
6
CONTINUOUS
10
208.458
20
-49.4373
11
208.471
21
-49.4304
0
LINE
8
BLACK
6
CONTINUOUS
10
208.471
20
-49.4304
11
208.485
21
-49.4261
0
LINE
8
BLACK
6
CONTINUOUS
10
208.485
20
-49.4261
11
208.496
21
-49.425
0
LINE
8
BLACK
6
CONTINUOUS
10
208.496
20
-49.425
11
208.5
21
-49.4246
0
LINE
8
BLACK
6
CONTINUOUS
10
208.5
20
-49.4246
11
208.504
21
-49.425
0
LINE
8
BLACK
6
CONTINUOUS
10
208.504
20
-49.425
11
222.496
21
-49.425
0
LINE
8
BLACK
6
CONTINUOUS
10
222.496
20
-49.425
11
222.5
21
-49.4246
0
LINE
8
BLACK
6
CONTINUOUS
10
222.5
20
-49.4246
11
222.504
21
-49.425
0
LINE
8
BLACK
6
CONTINUOUS
10
208.575
20
-49.575
11
208.575
21
-63.425
0
LINE
8
BLACK
6
CONTINUOUS
10
208.575
20
-63.425
11
222.425
21
-63.425
0
LINE
8
BLACK
6
CONTINUOUS
10
222.425
20
-63.425
11
222.425
21
-49.575
0
LINE
8
BLACK
6
CONTINUOUS
10
222.425
20
-49.575
11
208.575
21
-49.575
0
LINE
8
BLACK
6
CONTINUOUS
10
127.504
20
-42.925
11
127.515
21
-42.9261
0
LINE
8
BLACK
6
CONTINUOUS
10
127.515
20
-42.9261
11
127.529
21
-42.9304
0
LINE
8
BLACK
6
CONTINUOUS
10
127.529
20
-42.9304
11
127.542
21
-42.9373
0
LINE
8
BLACK
6
CONTINUOUS
10
127.542
20
-42.9373
11
127.553
21
-42.9467
0
LINE
8
BLACK
6
CONTINUOUS
10
127.553
20
-42.9467
11
127.563
21
-42.9581
0
LINE
8
BLACK
6
CONTINUOUS
10
127.563
20
-42.9581
11
127.57
21
-42.9712
0
LINE
8
BLACK
6
CONTINUOUS
10
127.57
20
-42.9712
11
127.574
21
-42.9853
0
LINE
8
BLACK
6
CONTINUOUS
10
127.574
20
-42.9853
11
127.575
21
-43
0
LINE
8
BLACK
6
CONTINUOUS
10
127.575
20
-43
11
127.575
21
-43.0037
0
LINE
8
BLACK
6
CONTINUOUS
10
127.575
20
-43.0037
11
127.575
21
-56.9963
0
LINE
8
BLACK
6
CONTINUOUS
10
127.575
20
-56.9963
11
127.575
21
-57
0
LINE
8
BLACK
6
CONTINUOUS
10
127.575
20
-57
11
127.574
21
-57.0147
0
LINE
8
BLACK
6
CONTINUOUS
10
127.574
20
-57.0147
11
127.57
21
-57.0288
0
LINE
8
BLACK
6
CONTINUOUS
10
127.57
20
-57.0288
11
127.563
21
-57.0419
0
LINE
8
BLACK
6
CONTINUOUS
10
127.563
20
-57.0419
11
127.553
21
-57.0533
0
LINE
8
BLACK
6
CONTINUOUS
10
127.553
20
-57.0533
11
127.542
21
-57.0627
0
LINE
8
BLACK
6
CONTINUOUS
10
127.542
20
-57.0627
11
127.529
21
-57.0696
0
LINE
8
BLACK
6
CONTINUOUS
10
127.529
20
-57.0696
11
127.515
21
-57.0739
0
LINE
8
BLACK
6
CONTINUOUS
10
127.515
20
-57.0739
11
127.504
21
-57.075
0
LINE
8
BLACK
6
CONTINUOUS
10
127.504
20
-57.075
11
127.5
21
-57.0754
0
LINE
8
BLACK
6
CONTINUOUS
10
127.5
20
-57.0754
11
127.496
21
-57.075
0
LINE
8
BLACK
6
CONTINUOUS
10
127.496
20
-57.075
11
113.504
21
-57.075
0
LINE
8
BLACK
6
CONTINUOUS
10
113.504
20
-57.075
11
113.5
21
-57.0754
0
LINE
8
BLACK
6
CONTINUOUS
10
113.5
20
-57.0754
11
113.485
21
-57.0739
0
LINE
8
BLACK
6
CONTINUOUS
10
113.485
20
-57.0739
11
113.471
21
-57.0696
0
LINE
8
BLACK
6
CONTINUOUS
10
113.471
20
-57.0696
11
113.458
21
-57.0627
0
LINE
8
BLACK
6
CONTINUOUS
10
113.458
20
-57.0627
11
113.447
21
-57.0533
0
LINE
8
BLACK
6
CONTINUOUS
10
113.447
20
-57.0533
11
113.441
21
-57.0467
0
LINE
8
BLACK
6
CONTINUOUS
10
113.441
20
-57.0467
11
113.437
21
-57.0419
0
LINE
8
BLACK
6
CONTINUOUS
10
113.437
20
-57.0419
11
113.43
21
-57.0288
0
LINE
8
BLACK
6
CONTINUOUS
10
113.43
20
-57.0288
11
113.426
21
-57.0147
0
LINE
8
BLACK
6
CONTINUOUS
10
113.426
20
-57.0147
11
113.425
21
-57
0
LINE
8
BLACK
6
CONTINUOUS
10
113.425
20
-57
11
113.425
21
-56.9963
0
LINE
8
BLACK
6
CONTINUOUS
10
113.425
20
-56.9963
11
113.425
21
-43.0037
0
LINE
8
BLACK
6
CONTINUOUS
10
113.425
20
-43.0037
11
113.425
21
-43
0
LINE
8
BLACK
6
CONTINUOUS
10
113.425
20
-43
11
113.426
21
-42.9853
0
LINE
8
BLACK
6
CONTINUOUS
10
113.426
20
-42.9853
11
113.43
21
-42.9712
0
LINE
8
BLACK
6
CONTINUOUS
10
113.43
20
-42.9712
11
113.437
21
-42.9581
0
LINE
8
BLACK
6
CONTINUOUS
10
113.437
20
-42.9581
11
113.447
21
-42.9467
0
LINE
8
BLACK
6
CONTINUOUS
10
113.447
20
-42.9467
11
113.458
21
-42.9373
0
LINE
8
BLACK
6
CONTINUOUS
10
113.458
20
-42.9373
11
113.471
21
-42.9304
0
LINE
8
BLACK
6
CONTINUOUS
10
113.471
20
-42.9304
11
113.485
21
-42.9261
0
LINE
8
BLACK
6
CONTINUOUS
10
113.485
20
-42.9261
11
113.496
21
-42.925
0
LINE
8
BLACK
6
CONTINUOUS
10
113.496
20
-42.925
11
113.5
21
-42.9246
0
LINE
8
BLACK
6
CONTINUOUS
10
113.5
20
-42.9246
11
113.504
21
-42.925
0
LINE
8
BLACK
6
CONTINUOUS
10
113.504
20
-42.925
11
127.496
21
-42.925
0
LINE
8
BLACK
6
CONTINUOUS
10
127.496
20
-42.925
11
127.5
21
-42.9246
0
LINE
8
BLACK
6
CONTINUOUS
10
127.5
20
-42.9246
11
127.504
21
-42.925
0
LINE
8
BLACK
6
CONTINUOUS
10
113.575
20
-43.075
11
113.575
21
-56.925
0
LINE
8
BLACK
6
CONTINUOUS
10
113.575
20
-56.925
11
127.425
21
-56.925
0
LINE
8
BLACK
6
CONTINUOUS
10
127.425
20
-56.925
11
127.425
21
-43.075
0
LINE
8
BLACK
6
CONTINUOUS
10
127.425
20
-43.075
11
113.575
21
-43.075
0
LINE
8
BLACK
6
CONTINUOUS
10
184.504
20
-40.425
11
184.515
21
-40.4261
0
LINE
8
BLACK
6
CONTINUOUS
10
184.515
20
-40.4261
11
184.529
21
-40.4304
0
LINE
8
BLACK
6
CONTINUOUS
10
184.529
20
-40.4304
11
184.542
21
-40.4373
0
LINE
8
BLACK
6
CONTINUOUS
10
184.542
20
-40.4373
11
184.553
21
-40.4467
0
LINE
8
BLACK
6
CONTINUOUS
10
184.553
20
-40.4467
11
184.563
21
-40.4581
0
LINE
8
BLACK
6
CONTINUOUS
10
184.563
20
-40.4581
11
184.57
21
-40.4712
0
LINE
8
BLACK
6
CONTINUOUS
10
184.57
20
-40.4712
11
184.574
21
-40.4853
0
LINE
8
BLACK
6
CONTINUOUS
10
184.574
20
-40.4853
11
184.575
21
-40.5
0
LINE
8
BLACK
6
CONTINUOUS
10
184.575
20
-40.5
11
184.575
21
-40.5037
0
LINE
8
BLACK
6
CONTINUOUS
10
184.575
20
-40.5037
11
184.575
21
-54.4963
0
LINE
8
BLACK
6
CONTINUOUS
10
184.575
20
-54.4963
11
184.575
21
-54.5
0
LINE
8
BLACK
6
CONTINUOUS
10
184.575
20
-54.5
11
184.574
21
-54.5147
0
LINE
8
BLACK
6
CONTINUOUS
10
184.574
20
-54.5147
11
184.57
21
-54.5288
0
LINE
8
BLACK
6
CONTINUOUS
10
184.57
20
-54.5288
11
184.563
21
-54.5419
0
LINE
8
BLACK
6
CONTINUOUS
10
184.563
20
-54.5419
11
184.553
21
-54.5533
0
LINE
8
BLACK
6
CONTINUOUS
10
184.553
20
-54.5533
11
184.542
21
-54.5627
0
LINE
8
BLACK
6
CONTINUOUS
10
184.542
20
-54.5627
11
184.529
21
-54.5696
0
LINE
8
BLACK
6
CONTINUOUS
10
184.529
20
-54.5696
11
184.515
21
-54.5739
0
LINE
8
BLACK
6
CONTINUOUS
10
184.515
20
-54.5739
11
184.504
21
-54.575
0
LINE
8
BLACK
6
CONTINUOUS
10
184.504
20
-54.575
11
184.5
21
-54.5754
0
LINE
8
BLACK
6
CONTINUOUS
10
184.5
20
-54.5754
11
184.496
21
-54.575
0
LINE
8
BLACK
6
CONTINUOUS
10
184.496
20
-54.575
11
170.504
21
-54.575
0
LINE
8
BLACK
6
CONTINUOUS
10
170.504
20
-54.575
11
170.5
21
-54.5754
0
LINE
8
BLACK
6
CONTINUOUS
10
170.5
20
-54.5754
11
170.485
21
-54.5739
0
LINE
8
BLACK
6
CONTINUOUS
10
170.485
20
-54.5739
11
170.471
21
-54.5696
0
LINE
8
BLACK
6
CONTINUOUS
10
170.471
20
-54.5696
11
170.458
21
-54.5627
0
LINE
8
BLACK
6
CONTINUOUS
10
170.458
20
-54.5627
11
170.447
21
-54.5533
0
LINE
8
BLACK
6
CONTINUOUS
10
170.447
20
-54.5533
11
170.437
21
-54.5419
0
LINE
8
BLACK
6
CONTINUOUS
10
170.437
20
-54.5419
11
170.43
21
-54.5288
0
LINE
8
BLACK
6
CONTINUOUS
10
170.43
20
-54.5288
11
170.426
21
-54.5147
0
LINE
8
BLACK
6
CONTINUOUS
10
170.426
20
-54.5147
11
170.425
21
-54.5
0
LINE
8
BLACK
6
CONTINUOUS
10
170.425
20
-54.5
11
170.425
21
-54.4963
0
LINE
8
BLACK
6
CONTINUOUS
10
170.425
20
-54.4963
11
170.425
21
-40.5037
0
LINE
8
BLACK
6
CONTINUOUS
10
170.425
20
-40.5037
11
170.425
21
-40.5
0
LINE
8
BLACK
6
CONTINUOUS
10
170.425
20
-40.5
11
170.426
21
-40.4853
0
LINE
8
BLACK
6
CONTINUOUS
10
170.426
20
-40.4853
11
170.43
21
-40.4712
0
LINE
8
BLACK
6
CONTINUOUS
10
170.43
20
-40.4712
11
170.437
21
-40.4581
0
LINE
8
BLACK
6
CONTINUOUS
10
170.437
20
-40.4581
11
170.447
21
-40.4467
0
LINE
8
BLACK
6
CONTINUOUS
10
170.447
20
-40.4467
11
170.458
21
-40.4373
0
LINE
8
BLACK
6
CONTINUOUS
10
170.458
20
-40.4373
11
170.471
21
-40.4304
0
LINE
8
BLACK
6
CONTINUOUS
10
170.471
20
-40.4304
11
170.485
21
-40.4261
0
LINE
8
BLACK
6
CONTINUOUS
10
170.485
20
-40.4261
11
170.496
21
-40.425
0
LINE
8
BLACK
6
CONTINUOUS
10
170.496
20
-40.425
11
170.5
21
-40.4246
0
LINE
8
BLACK
6
CONTINUOUS
10
170.5
20
-40.4246
11
170.504
21
-40.425
0
LINE
8
BLACK
6
CONTINUOUS
10
170.504
20
-40.425
11
184.496
21
-40.425
0
LINE
8
BLACK
6
CONTINUOUS
10
184.496
20
-40.425
11
184.5
21
-40.4246
0
LINE
8
BLACK
6
CONTINUOUS
10
184.5
20
-40.4246
11
184.504
21
-40.425
0
LINE
8
BLACK
6
CONTINUOUS
10
170.575
20
-40.575
11
170.575
21
-54.425
0
LINE
8
BLACK
6
CONTINUOUS
10
170.575
20
-54.425
11
184.425
21
-54.425
0
LINE
8
BLACK
6
CONTINUOUS
10
184.425
20
-54.425
11
184.425
21
-40.575
0
LINE
8
BLACK
6
CONTINUOUS
10
184.425
20
-40.575
11
170.575
21
-40.575
0
LINE
8
BLACK
6
CONTINUOUS
10
146.504
20
-40.425
11
146.515
21
-40.4261
0
LINE
8
BLACK
6
CONTINUOUS
10
146.515
20
-40.4261
11
146.529
21
-40.4304
0
LINE
8
BLACK
6
CONTINUOUS
10
146.529
20
-40.4304
11
146.542
21
-40.4373
0
LINE
8
BLACK
6
CONTINUOUS
10
146.542
20
-40.4373
11
146.553
21
-40.4467
0
LINE
8
BLACK
6
CONTINUOUS
10
146.553
20
-40.4467
11
146.563
21
-40.4581
0
LINE
8
BLACK
6
CONTINUOUS
10
146.563
20
-40.4581
11
146.57
21
-40.4712
0
LINE
8
BLACK
6
CONTINUOUS
10
146.57
20
-40.4712
11
146.574
21
-40.4853
0
LINE
8
BLACK
6
CONTINUOUS
10
146.574
20
-40.4853
11
146.575
21
-40.5
0
LINE
8
BLACK
6
CONTINUOUS
10
146.575
20
-40.5
11
146.575
21
-40.5037
0
LINE
8
BLACK
6
CONTINUOUS
10
146.575
20
-40.5037
11
146.575
21
-54.4963
0
LINE
8
BLACK
6
CONTINUOUS
10
146.575
20
-54.4963
11
146.575
21
-54.5
0
LINE
8
BLACK
6
CONTINUOUS
10
146.575
20
-54.5
11
146.574
21
-54.5147
0
LINE
8
BLACK
6
CONTINUOUS
10
146.574
20
-54.5147
11
146.57
21
-54.5288
0
LINE
8
BLACK
6
CONTINUOUS
10
146.57
20
-54.5288
11
146.563
21
-54.5419
0
LINE
8
BLACK
6
CONTINUOUS
10
146.563
20
-54.5419
11
146.553
21
-54.5533
0
LINE
8
BLACK
6
CONTINUOUS
10
146.553
20
-54.5533
11
146.542
21
-54.5627
0
LINE
8
BLACK
6
CONTINUOUS
10
146.542
20
-54.5627
11
146.529
21
-54.5696
0
LINE
8
BLACK
6
CONTINUOUS
10
146.529
20
-54.5696
11
146.515
21
-54.5739
0
LINE
8
BLACK
6
CONTINUOUS
10
146.515
20
-54.5739
11
146.504
21
-54.575
0
LINE
8
BLACK
6
CONTINUOUS
10
146.504
20
-54.575
11
146.5
21
-54.5754
0
LINE
8
BLACK
6
CONTINUOUS
10
146.5
20
-54.5754
11
146.496
21
-54.575
0
LINE
8
BLACK
6
CONTINUOUS
10
146.496
20
-54.575
11
132.504
21
-54.575
0
LINE
8
BLACK
6
CONTINUOUS
10
132.504
20
-54.575
11
132.5
21
-54.5754
0
LINE
8
BLACK
6
CONTINUOUS
10
132.5
20
-54.5754
11
132.485
21
-54.5739
0
LINE
8
BLACK
6
CONTINUOUS
10
132.485
20
-54.5739
11
132.471
21
-54.5696
0
LINE
8
BLACK
6
CONTINUOUS
10
132.471
20
-54.5696
11
132.458
21
-54.5627
0
LINE
8
BLACK
6
CONTINUOUS
10
132.458
20
-54.5627
11
132.447
21
-54.5533
0
LINE
8
BLACK
6
CONTINUOUS
10
132.447
20
-54.5533
11
132.437
21
-54.5419
0
LINE
8
BLACK
6
CONTINUOUS
10
132.437
20
-54.5419
11
132.43
21
-54.5288
0
LINE
8
BLACK
6
CONTINUOUS
10
132.43
20
-54.5288
11
132.426
21
-54.5147
0
LINE
8
BLACK
6
CONTINUOUS
10
132.426
20
-54.5147
11
132.425
21
-54.5
0
LINE
8
BLACK
6
CONTINUOUS
10
132.425
20
-54.5
11
132.425
21
-54.4963
0
LINE
8
BLACK
6
CONTINUOUS
10
132.425
20
-54.4963
11
132.425
21
-40.5037
0
LINE
8
BLACK
6
CONTINUOUS
10
132.425
20
-40.5037
11
132.425
21
-40.5
0
LINE
8
BLACK
6
CONTINUOUS
10
132.425
20
-40.5
11
132.426
21
-40.4853
0
LINE
8
BLACK
6
CONTINUOUS
10
132.426
20
-40.4853
11
132.43
21
-40.4712
0
LINE
8
BLACK
6
CONTINUOUS
10
132.43
20
-40.4712
11
132.437
21
-40.4581
0
LINE
8
BLACK
6
CONTINUOUS
10
132.437
20
-40.4581
11
132.447
21
-40.4467
0
LINE
8
BLACK
6
CONTINUOUS
10
132.447
20
-40.4467
11
132.458
21
-40.4373
0
LINE
8
BLACK
6
CONTINUOUS
10
132.458
20
-40.4373
11
132.471
21
-40.4304
0
LINE
8
BLACK
6
CONTINUOUS
10
132.471
20
-40.4304
11
132.485
21
-40.4261
0
LINE
8
BLACK
6
CONTINUOUS
10
132.485
20
-40.4261
11
132.496
21
-40.425
0
LINE
8
BLACK
6
CONTINUOUS
10
132.496
20
-40.425
11
132.5
21
-40.4246
0
LINE
8
BLACK
6
CONTINUOUS
10
132.5
20
-40.4246
11
132.504
21
-40.425
0
LINE
8
BLACK
6
CONTINUOUS
10
132.504
20
-40.425
11
146.496
21
-40.425
0
LINE
8
BLACK
6
CONTINUOUS
10
146.496
20
-40.425
11
146.5
21
-40.4246
0
LINE
8
BLACK
6
CONTINUOUS
10
146.5
20
-40.4246
11
146.504
21
-40.425
0
LINE
8
BLACK
6
CONTINUOUS
10
132.575
20
-40.575
11
132.575
21
-54.425
0
LINE
8
BLACK
6
CONTINUOUS
10
132.575
20
-54.425
11
146.425
21
-54.425
0
LINE
8
BLACK
6
CONTINUOUS
10
146.425
20
-54.425
11
146.425
21
-40.575
0
LINE
8
BLACK
6
CONTINUOUS
10
146.425
20
-40.575
11
132.575
21
-40.575
0
LINE
8
BLACK
6
CONTINUOUS
10
165.504
20
-37.935
11
165.515
21
-37.9361
0
LINE
8
BLACK
6
CONTINUOUS
10
165.515
20
-37.9361
11
165.529
21
-37.9404
0
LINE
8
BLACK
6
CONTINUOUS
10
165.529
20
-37.9404
11
165.542
21
-37.9473
0
LINE
8
BLACK
6
CONTINUOUS
10
165.542
20
-37.9473
11
165.553
21
-37.9567
0
LINE
8
BLACK
6
CONTINUOUS
10
165.553
20
-37.9567
11
165.563
21
-37.9681
0
LINE
8
BLACK
6
CONTINUOUS
10
165.563
20
-37.9681
11
165.57
21
-37.9812
0
LINE
8
BLACK
6
CONTINUOUS
10
165.57
20
-37.9812
11
165.574
21
-37.9953
0
LINE
8
BLACK
6
CONTINUOUS
10
165.574
20
-37.9953
11
165.575
21
-38.01
0
LINE
8
BLACK
6
CONTINUOUS
10
165.575
20
-38.01
11
165.575
21
-38.0137
0
LINE
8
BLACK
6
CONTINUOUS
10
165.575
20
-38.0137
11
165.575
21
-52.0063
0
LINE
8
BLACK
6
CONTINUOUS
10
165.575
20
-52.0063
11
165.575
21
-52.01
0
LINE
8
BLACK
6
CONTINUOUS
10
165.575
20
-52.01
11
165.574
21
-52.0247
0
LINE
8
BLACK
6
CONTINUOUS
10
165.574
20
-52.0247
11
165.57
21
-52.0388
0
LINE
8
BLACK
6
CONTINUOUS
10
165.57
20
-52.0388
11
165.563
21
-52.0519
0
LINE
8
BLACK
6
CONTINUOUS
10
165.563
20
-52.0519
11
165.553
21
-52.0633
0
LINE
8
BLACK
6
CONTINUOUS
10
165.553
20
-52.0633
11
165.542
21
-52.0727
0
LINE
8
BLACK
6
CONTINUOUS
10
165.542
20
-52.0727
11
165.529
21
-52.0796
0
LINE
8
BLACK
6
CONTINUOUS
10
165.529
20
-52.0796
11
165.515
21
-52.0839
0
LINE
8
BLACK
6
CONTINUOUS
10
165.515
20
-52.0839
11
165.504
21
-52.085
0
LINE
8
BLACK
6
CONTINUOUS
10
165.504
20
-52.085
11
165.5
21
-52.0854
0
LINE
8
BLACK
6
CONTINUOUS
10
165.5
20
-52.0854
11
165.496
21
-52.085
0
LINE
8
BLACK
6
CONTINUOUS
10
165.496
20
-52.085
11
151.504
21
-52.085
0
LINE
8
BLACK
6
CONTINUOUS
10
151.504
20
-52.085
11
151.5
21
-52.0854
0
LINE
8
BLACK
6
CONTINUOUS
10
151.5
20
-52.0854
11
151.485
21
-52.0839
0
LINE
8
BLACK
6
CONTINUOUS
10
151.485
20
-52.0839
11
151.471
21
-52.0796
0
LINE
8
BLACK
6
CONTINUOUS
10
151.471
20
-52.0796
11
151.458
21
-52.0727
0
LINE
8
BLACK
6
CONTINUOUS
10
151.458
20
-52.0727
11
151.447
21
-52.0633
0
LINE
8
BLACK
6
CONTINUOUS
10
151.447
20
-52.0633
11
151.437
21
-52.0519
0
LINE
8
BLACK
6
CONTINUOUS
10
151.437
20
-52.0519
11
151.43
21
-52.0388
0
LINE
8
BLACK
6
CONTINUOUS
10
151.43
20
-52.0388
11
151.426
21
-52.0247
0
LINE
8
BLACK
6
CONTINUOUS
10
151.426
20
-52.0247
11
151.425
21
-52.01
0
LINE
8
BLACK
6
CONTINUOUS
10
151.425
20
-52.01
11
151.425
21
-52.0063
0
LINE
8
BLACK
6
CONTINUOUS
10
151.425
20
-52.0063
11
151.425
21
-38.0137
0
LINE
8
BLACK
6
CONTINUOUS
10
151.425
20
-38.0137
11
151.425
21
-38.01
0
LINE
8
BLACK
6
CONTINUOUS
10
151.425
20
-38.01
11
151.426
21
-37.9953
0
LINE
8
BLACK
6
CONTINUOUS
10
151.426
20
-37.9953
11
151.43
21
-37.9812
0
LINE
8
BLACK
6
CONTINUOUS
10
151.43
20
-37.9812
11
151.437
21
-37.9681
0
LINE
8
BLACK
6
CONTINUOUS
10
151.437
20
-37.9681
11
151.447
21
-37.9567
0
LINE
8
BLACK
6
CONTINUOUS
10
151.447
20
-37.9567
11
151.458
21
-37.9473
0
LINE
8
BLACK
6
CONTINUOUS
10
151.458
20
-37.9473
11
151.471
21
-37.9404
0
LINE
8
BLACK
6
CONTINUOUS
10
151.471
20
-37.9404
11
151.485
21
-37.9361
0
LINE
8
BLACK
6
CONTINUOUS
10
151.485
20
-37.9361
11
151.496
21
-37.935
0
LINE
8
BLACK
6
CONTINUOUS
10
151.496
20
-37.935
11
151.5
21
-37.9346
0
LINE
8
BLACK
6
CONTINUOUS
10
151.5
20
-37.9346
11
151.504
21
-37.935
0
LINE
8
BLACK
6
CONTINUOUS
10
151.504
20
-37.935
11
165.496
21
-37.935
0
LINE
8
BLACK
6
CONTINUOUS
10
165.496
20
-37.935
11
165.5
21
-37.9346
0
LINE
8
BLACK
6
CONTINUOUS
10
165.5
20
-37.9346
11
165.504
21
-37.935
0
LINE
8
BLACK
6
CONTINUOUS
10
151.575
20
-38.085
11
151.575
21
-51.935
0
LINE
8
BLACK
6
CONTINUOUS
10
151.575
20
-51.935
11
165.425
21
-51.935
0
LINE
8
BLACK
6
CONTINUOUS
10
165.425
20
-51.935
11
165.425
21
-38.085
0
LINE
8
BLACK
6
CONTINUOUS
10
165.425
20
-38.085
11
151.575
21
-38.085
0
LINE
8
BLACK
6
CONTINUOUS
10
45.5131
20
45.002
11
45.5225
21
44.9992
0
LINE
8
BLACK
6
CONTINUOUS
10
45.5225
20
44.9992
11
45.5312
21
44.9945
0
LINE
8
BLACK
6
CONTINUOUS
10
45.5312
20
44.9945
11
45.5388
21
44.9883
0
LINE
8
BLACK
6
CONTINUOUS
10
45.5388
20
44.9883
11
45.5451
21
44.9807
0
LINE
8
BLACK
6
CONTINUOUS
10
45.5451
20
44.9807
11
45.5497
21
44.972
0
LINE
8
BLACK
6
CONTINUOUS
10
45.5497
20
44.972
11
45.5526
21
44.9626
0
LINE
8
BLACK
6
CONTINUOUS
10
45.5526
20
44.9626
11
45.5535
21
44.9528
0
LINE
8
BLACK
6
CONTINUOUS
10
45.5535
20
44.9528
11
45.5526
21
44.943
0
LINE
8
BLACK
6
CONTINUOUS
10
45.5526
20
44.943
11
45.5497
21
44.9335
0
LINE
8
BLACK
6
CONTINUOUS
10
45.5497
20
44.9335
11
45.5451
21
44.9249
0
LINE
8
BLACK
6
CONTINUOUS
10
45.5451
20
44.9249
11
45.5388
21
44.9172
0
LINE
8
BLACK
6
CONTINUOUS
10
45.5388
20
44.9172
11
45.5312
21
44.911
0
LINE
8
BLACK
6
CONTINUOUS
10
45.5312
20
44.911
11
45.5225
21
44.9063
0
LINE
8
BLACK
6
CONTINUOUS
10
45.5225
20
44.9063
11
45.5131
21
44.9035
0
LINE
8
BLACK
6
CONTINUOUS
10
45.5131
20
44.9035
11
45.5057
21
44.9028
0
LINE
8
BLACK
6
CONTINUOUS
10
45.5057
20
44.9028
11
45.5008
21
44.9028
0
LINE
8
BLACK
6
CONTINUOUS
10
45.5008
20
44.9028
11
45.4935
21
44.9035
0
LINE
8
BLACK
6
CONTINUOUS
10
45.4935
20
44.9035
11
45.4841
21
44.9063
0
LINE
8
BLACK
6
CONTINUOUS
10
45.4841
20
44.9063
11
45.4754
21
44.911
0
LINE
8
BLACK
6
CONTINUOUS
10
45.4754
20
44.911
11
45.4678
21
44.9172
0
LINE
8
BLACK
6
CONTINUOUS
10
45.4678
20
44.9172
11
45.4615
21
44.9249
0
LINE
8
BLACK
6
CONTINUOUS
10
45.4615
20
44.9249
11
45.4569
21
44.9335
0
LINE
8
BLACK
6
CONTINUOUS
10
45.4569
20
44.9335
11
45.454
21
44.943
0
LINE
8
BLACK
6
CONTINUOUS
10
45.454
20
44.943
11
45.4531
21
44.9528
0
LINE
8
BLACK
6
CONTINUOUS
10
45.4531
20
44.9528
11
45.454
21
44.9626
0
LINE
8
BLACK
6
CONTINUOUS
10
45.454
20
44.9626
11
45.4569
21
44.972
0
LINE
8
BLACK
6
CONTINUOUS
10
45.4569
20
44.972
11
45.4615
21
44.9807
0
LINE
8
BLACK
6
CONTINUOUS
10
45.4615
20
44.9807
11
45.4678
21
44.9883
0
LINE
8
BLACK
6
CONTINUOUS
10
45.4678
20
44.9883
11
45.4754
21
44.9945
0
LINE
8
BLACK
6
CONTINUOUS
10
45.4754
20
44.9945
11
45.4841
21
44.9992
0
LINE
8
BLACK
6
CONTINUOUS
10
45.4841
20
44.9992
11
45.4935
21
45.002
0
LINE
8
BLACK
6
CONTINUOUS
10
45.4935
20
45.002
11
45.5008
21
45.0028
0
LINE
8
BLACK
6
CONTINUOUS
10
45.5008
20
45.0028
11
45.5057
21
45.0028
0
LINE
8
BLACK
6
CONTINUOUS
10
45.5057
20
45.0028
11
45.5131
21
45.002
  0
ENDSEC
  0
EOF
