<?xml version="1.0" standalone="no"?>
 <!DOCTYPE svg PUBLIC "-//W3C//DTD SVG 1.1//EN" 
 "http://www.w3.org/Graphics/SVG/1.1/DTD/svg11.dtd"> 
<svg xmlns="http://www.w3.org/2000/svg" version="1.1" 
    width="17.9349cm" height="19.6113cm" viewBox="0 0 70610 77210 ">
<title>SVG Picture created as SofleKeyboard-brd.svg date 2020/04/30 21:51:39 </title>
  <desc>Picture generated by PCBNEW </desc>
<g style="fill:#000000; fill-opacity:1;stroke:#000000; stroke-opacity:1;
stroke-linecap:round; stroke-linejoin:round; "
 transform="translate(0 0) scale(1 1)">
</g>
<g style="fill:#000000; fill-opacity:0.0; 
stroke:#000000; stroke-width:-0.000393701; stroke-opacity:1; 
stroke-linecap:round; stroke-linejoin:round;">
</g>
<g style="fill:#848484; fill-opacity:0.0; 
stroke:#848484; stroke-width:-0.000393701; stroke-opacity:1; 
stroke-linecap:round; stroke-linejoin:round;">
</g>
<g style="fill:#848484; fill-opacity:0.0; 
stroke:#848484; stroke-width:59.0551; stroke-opacity:1; 
stroke-linecap:round; stroke-linejoin:round;">
<path d="M19412 77501
L26913 73170
" />
<path d="M13472 67292
L19378 77520
" />
<path d="M20973 62961
L13472 67292
" />
<path d="M26879 73190
L20973 62961
" />
<path d="M56317 70749
L56317 62087
" />
<path d="M47656 70749
L56317 70749
" />
<path d="M47656 62087
L47656 70749
" />
<path d="M56317 62087
L47656 62087
" />
<path d="M48837 69764
L48837 61103
" />
<path d="M40175 69764
L48837 69764
" />
<path d="M40175 61103
L40175 69764
" />
<path d="M48837 61103
L40175 61103
" />
<path d="M41356 70788
L41356 62127
" />
<path d="M32695 70788
L41356 70788
" />
<path d="M32695 62127
L32695 70788
" />
<path d="M41356 62127
L32695 62127
" />
<path d="M34082 70563
L30698 62590
" />
<path d="M26109 73947
L34082 70563
" />
<path d="M22725 65974
L26109 73947
" />
<path d="M30698 62590
L22725 65974
" />
<path d="M71297 66772
L71297 58111
" />
<path d="M62636 66772
L71297 66772
" />
<path d="M62636 58111
L62636 66772
" />
<path d="M71297 58111
L62636 58111
" />
<path d="M63797 66772
L63797 58111
" />
<path d="M55136 66772
L63797 66772
" />
<path d="M55136 58111
L55136 66772
" />
<path d="M63797 58111
L55136 58111
" />
<path d="M56317 63268
L56317 54607
" />
<path d="M47656 63268
L56317 63268
" />
<path d="M47656 54607
L47656 63268
" />
<path d="M56317 54607
L47656 54607
" />
<path d="M48837 62284
L48837 53623
" />
<path d="M40175 62284
L48837 62284
" />
<path d="M40175 53623
L40175 62284
" />
<path d="M48837 53623
L40175 53623
" />
<path d="M41356 63268
L41356 54607
" />
<path d="M32695 63268
L41356 63268
" />
<path d="M32695 54607
L32695 63268
" />
<path d="M41356 54607
L32695 54607
" />
<path d="M33876 64213
L33876 55552
" />
<path d="M25215 64213
L33876 64213
" />
<path d="M25215 55552
L25215 64213
" />
<path d="M33876 55552
L25215 55552
" />
<path d="M71278 59292
L71278 50631
" />
<path d="M62616 59292
L71278 59292
" />
<path d="M62616 50631
L62616 59292
" />
<path d="M71278 50631
L62616 50631
" />
<path d="M63797 59292
L63797 50631
" />
<path d="M55136 59292
L63797 59292
" />
<path d="M55136 50631
L55136 59292
" />
<path d="M63797 50631
L55136 50631
" />
<path d="M56317 55749
L56317 47087
" />
<path d="M47656 55749
L56317 55749
" />
<path d="M47656 47087
L47656 55749
" />
<path d="M56317 47087
L47656 47087
" />
<path d="M48837 54804
L48837 46142
" />
<path d="M40175 54804
L48837 54804
" />
<path d="M40175 46142
L40175 54804
" />
<path d="M48837 46142
L40175 46142
" />
<path d="M41356 55749
L41356 47087
" />
<path d="M32695 55749
L41356 55749
" />
<path d="M32695 47087
L32695 55749
" />
<path d="M41356 47087
L32695 47087
" />
<path d="M33876 56733
L33876 48071
" />
<path d="M25215 56733
L33876 56733
" />
<path d="M25215 48071
L25215 56733
" />
<path d="M33876 48071
L25215 48071
" />
<path d="M71278 51733
L71278 43071
" />
<path d="M62616 51733
L71278 51733
" />
<path d="M62616 43071
L62616 51733
" />
<path d="M71278 43071
L62616 43071
" />
<path d="M63797 51733
L63797 43071
" />
<path d="M55136 51733
L63797 51733
" />
<path d="M55136 43071
L55136 51733
" />
<path d="M63797 43071
L55136 43071
" />
<path d="M56317 48229
L56317 39568
" />
<path d="M47656 48229
L56317 48229
" />
<path d="M47656 39568
L47656 48229
" />
<path d="M56317 39568
L47656 39568
" />
<path d="M48837 47284
L48837 38623
" />
<path d="M40175 47284
L48837 47284
" />
<path d="M40175 38623
L40175 47284
" />
<path d="M48837 38623
L40175 38623
" />
<path d="M41356 48268
L41356 39607
" />
<path d="M32695 48268
L41356 48268
" />
<path d="M32695 39607
L32695 48268
" />
<path d="M41356 39607
L32695 39607
" />
<path d="M33876 49253
L33876 40591
" />
<path d="M25215 49253
L33876 49253
" />
<path d="M25215 40591
L25215 49253
" />
<path d="M33876 40591
L25215 40591
" />
<path d="M71278 44292
L71278 35631
" />
<path d="M62616 44292
L71278 44292
" />
<path d="M62616 35631
L62616 44292
" />
<path d="M71278 35631
L62616 35631
" />
<path d="M63797 44292
L63797 35631
" />
<path d="M55136 44292
L63797 44292
" />
<path d="M55136 35631
L55136 44292
" />
<path d="M63797 35631
L55136 35631
" />
<path d="M56317 40749
L56317 32087
" />
<path d="M47656 40749
L56317 40749
" />
<path d="M47656 32087
L47656 40749
" />
<path d="M56317 32087
L47656 32087
" />
<path d="M48837 39768
L48837 31107
" />
<path d="M40175 39768
L48837 39768
" />
<path d="M40175 31107
L40175 39768
" />
<path d="M48837 31107
L40175 31107
" />
<path d="M41356 40749
L41356 32087
" />
<path d="M32695 40749
L41356 40749
" />
<path d="M32695 32087
L32695 40749
" />
<path d="M41356 32087
L32695 32087
" />
<path d="M33876 41733
L33876 33071
" />
<path d="M25215 41733
L33876 41733
" />
<path d="M25215 33071
L25215 41733
" />
<path d="M33876 33071
L25215 33071
" />
</g>
<g style="fill:#848484; fill-opacity:0.0; 
stroke:#848484; stroke-width:47.2441; stroke-opacity:1; 
stroke-linecap:round; stroke-linejoin:round;">
<path d="M19979 59646
L22341 59646
" />
<path d="M21160 58465
L21160 60827
" />
<path d="M18797 57796
L19191 57363
" />
<path d="M18797 61930
L18797 57796
" />
<path d="M23522 61930
L18797 61930
" />
<path d="M23522 57363
L23522 61930
" />
<path d="M19191 57363
L23522 57363
" />
<circle cx="21160.1" cy="59646.8" r="1181.1" /> 
<g >
</g>
<g >
</g>
<g >
</g>
<g >
</g>
<g >
</g>
<g >
</g>
<g >
</g>
<g >
</g>
<g >
</g>
<g >
</g>
<g >
</g>
<g >
</g>
<g >
</g>
<g >
</g>
<g >
</g>
<g >
</g>
<g >
</g>
<g >
</g>
<g >
</g>
<g >
</g>
<g >
</g>
<g >
</g>
<g >
</g>
<g >
</g>
<g >
</g>
<g >
</g>
<g >
</g>
<g >
</g>
<g >
</g>
<g >
</g>
<g >
</g>
<g >
</g>
<g >
</g>
<g >
</g>
<g >
</g>
<g >
</g>
<g >
</g>
<g >
</g>
<g >
</g>
<g >
</g>
<g >
</g>
<g >
</g>
<g >
</g>
<g >
</g>
<g >
</g>
<g >
</g>
<g >
</g>
<g >
</g>
<g >
</g>
<g >
</g>
<g >
</g>
<g >
</g>
<g >
</g>
<g >
</g>
<g >
</g>
<g >
</g>
<g >
</g>
<g >
</g>
<g >
</g>
<g >
</g>
<g >
</g>
<g >
</g>
<g >
</g>
<g >
</g>
<g >
</g>
<g >
</g>
<g >
</g>
<g >
</g>
<g >
</g>
<g >
</g>
<g >
</g>
<g >
</g>
<g >
</g>
<g >
</g>
<g >
</g>
<g >
</g>
<g >
</g>
<g >
</g>
<g >
</g>
<g >
</g>
<g >
</g>
<g >
</g>
<g >
</g>
<g >
</g>
<g >
</g>
</g>
<g style="fill:#848484; fill-opacity:0.0; 
stroke:#848484; stroke-width:47.2441; stroke-opacity:1; 
stroke-linecap:round; stroke-linejoin:round;">
</g>
<g style="fill:#848484; fill-opacity:0.0; 
stroke:#848484; stroke-width:59.0551; stroke-opacity:1; 
stroke-linecap:round; stroke-linejoin:round;">
<g transform="rotate(-90 20055.2 51729.8)">
<text x="20055.2" y="51926.7"
textLength="793.026" font-size="524.934" lengthAdjust="spacingAndGlyphs"
text-anchor="middle" opacity="0">J2</text>
</g>
<path d="M19839 51861
L20120 51861
L20177 51879
L20214 51917
L20233 51973
L20233 52011
" />
<path d="M19877 51692
L19858 51673
L19839 51636
L19839 51542
L19858 51504
L19877 51486
L19914 51467
L19952 51467
L20008 51486
L20233 51711
L20233 51467
" />
<text x="21740.8" y="42327.9"
textLength="2139.01" font-size="524.934" lengthAdjust="spacingAndGlyphs"
text-anchor="middle" opacity="0">IC2SDA</text>
<path d="M20803 42309
L20803 41915
" />
<path d="M21215 42271
L21197 42290
L21140 42309
L21103 42309
L21047 42290
L21009 42252
L20990 42215
L20972 42140
L20972 42084
L20990 42009
L21009 41971
L21047 41934
L21103 41915
L21140 41915
L21197 41934
L21215 41952
" />
<path d="M21365 41952
L21384 41934
L21422 41915
L21515 41915
L21553 41934
L21572 41952
L21590 41990
L21590 42027
L21572 42084
L21347 42309
L21590 42309
" />
<path d="M21740 42290
L21797 42309
L21890 42309
L21928 42290
L21947 42271
L21965 42234
L21965 42196
L21947 42159
L21928 42140
L21890 42121
L21815 42102
L21778 42084
L21759 42065
L21740 42027
L21740 41990
L21759 41952
L21778 41934
L21815 41915
L21909 41915
L21965 41934
" />
<path d="M22134 42309
L22134 41915
L22228 41915
L22284 41934
L22322 41971
L22340 42009
L22359 42084
L22359 42140
L22340 42215
L22322 42252
L22284 42290
L22228 42309
L22134 42309
" />
<path d="M22509 42196
L22696 42196
" />
<path d="M22471 42309
L22603 41915
L22734 42309
" />
<text x="21750.7" y="41894.8"
textLength="2120.27" font-size="524.934" lengthAdjust="spacingAndGlyphs"
text-anchor="middle" opacity="0">I2CSCL</text>
<path d="M20822 41876
L20822 41482
" />
<path d="M20991 41519
L21010 41501
L21047 41482
L21141 41482
L21178 41501
L21197 41519
L21216 41557
L21216 41594
L21197 41651
L20972 41876
L21216 41876
" />
<path d="M21610 41838
L21591 41857
L21535 41876
L21497 41876
L21441 41857
L21403 41819
L21385 41782
L21366 41707
L21366 41651
L21385 41576
L21403 41538
L21441 41501
L21497 41482
L21535 41482
L21591 41501
L21610 41519
" />
<path d="M21760 41857
L21816 41876
L21910 41876
L21947 41857
L21966 41838
L21985 41801
L21985 41763
L21966 41726
L21947 41707
L21910 41688
L21835 41669
L21797 41651
L21778 41632
L21760 41594
L21760 41557
L21778 41519
L21797 41501
L21835 41482
L21928 41482
L21985 41501
" />
<path d="M22378 41838
L22359 41857
L22303 41876
L22266 41876
L22209 41857
L22172 41819
L22153 41782
L22134 41707
L22134 41651
L22153 41576
L22172 41538
L22209 41501
L22266 41482
L22303 41482
L22359 41501
L22378 41519
" />
<path d="M22734 41876
L22547 41876
L22547 41482
" />
<text x="23494.8" y="53637.3"
textLength="1576.58" font-size="524.934" lengthAdjust="spacingAndGlyphs"
text-anchor="middle" opacity="0">HOLE</text>
<path d="M22838 53618
L22838 53224
" />
<path d="M22838 53412
L23063 53412
" />
<path d="M23063 53618
L23063 53224
" />
<path d="M23326 53224
L23401 53224
L23438 53243
L23476 53281
L23494 53356
L23494 53487
L23476 53562
L23438 53599
L23401 53618
L23326 53618
L23288 53599
L23251 53562
L23232 53487
L23232 53356
L23251 53281
L23288 53243
L23326 53224
" />
<path d="M23850 53618
L23663 53618
L23663 53224
" />
<path d="M23982 53412
L24113 53412
" />
<path d="M24169 53618
L23982 53618
L23982 53224
L24169 53224
" />
<text x="19557.8" y="53643.6"
textLength="1576.58" font-size="524.934" lengthAdjust="spacingAndGlyphs"
text-anchor="middle" opacity="0">HOLE</text>
<path d="M18901 53624
L18901 53231
" />
<path d="M18901 53418
L19126 53418
" />
<path d="M19126 53624
L19126 53231
" />
<path d="M19389 53231
L19464 53231
L19501 53249
L19539 53287
L19557 53362
L19557 53493
L19539 53568
L19501 53606
L19464 53624
L19389 53624
L19351 53606
L19314 53568
L19295 53493
L19295 53362
L19314 53287
L19351 53249
L19389 53231
" />
<path d="M19913 53624
L19726 53624
L19726 53231
" />
<path d="M20045 53418
L20176 53418
" />
<path d="M20232 53624
L20045 53624
L20045 53231
L20232 53231
" />
<text x="21160.1" y="62953.8"
textLength="6788.43" font-size="524.934" lengthAdjust="spacingAndGlyphs"
text-anchor="middle" opacity="0">Rotary_Encoder_Switch</text>
<path d="M18123 62935
L17991 62747
" />
<path d="M17898 62935
L17898 62541
L18048 62541
L18085 62560
L18104 62578
L18123 62616
L18123 62672
L18104 62710
L18085 62728
L18048 62747
L17898 62747
" />
<path d="M18347 62935
L18310 62916
L18291 62897
L18272 62860
L18272 62747
L18291 62710
L18310 62691
L18347 62672
L18404 62672
L18441 62691
L18460 62710
L18479 62747
L18479 62860
L18460 62897
L18441 62916
L18404 62935
L18347 62935
" />
<path d="M18591 62672
L18741 62672
" />
<path d="M18647 62541
L18647 62878
L18666 62916
L18704 62935
L18741 62935
" />
<path d="M19041 62935
L19041 62728
L19022 62691
L18985 62672
L18910 62672
L18872 62691
" />
<path d="M19041 62916
L19004 62935
L18910 62935
L18872 62916
L18854 62878
L18854 62841
L18872 62803
L18910 62785
L19004 62785
L19041 62766
" />
<path d="M19229 62935
L19229 62672
" />
<path d="M19229 62747
L19247 62710
L19266 62691
L19304 62672
L19341 62672
" />
<path d="M19435 62672
L19529 62935
" />
<path d="M19622 62672
L19529 62935
L19491 63028
L19472 63047
L19435 63066
" />
<path d="M19679 62972
L19979 62972
" />
<path d="M20072 62728
L20203 62728
" />
<path d="M20260 62935
L20072 62935
L20072 62541
L20260 62541
" />
<path d="M20428 62672
L20428 62935
" />
<path d="M20428 62710
L20447 62691
L20485 62672
L20541 62672
L20578 62691
L20597 62728
L20597 62935
" />
<path d="M20953 62916
L20916 62935
L20841 62935
L20803 62916
L20785 62897
L20766 62860
L20766 62747
L20785 62710
L20803 62691
L20841 62672
L20916 62672
L20953 62691
" />
<path d="M21178 62935
L21141 62916
L21122 62897
L21103 62860
L21103 62747
L21122 62710
L21141 62691
L21178 62672
L21235 62672
L21272 62691
L21291 62710
L21310 62747
L21310 62860
L21291 62897
L21272 62916
L21235 62935
L21178 62935
" />
<path d="M21647 62935
L21647 62541
" />
<path d="M21647 62916
L21610 62935
L21535 62935
L21497 62916
L21478 62897
L21460 62860
L21460 62747
L21478 62710
L21497 62691
L21535 62672
L21610 62672
L21647 62691
" />
<path d="M21985 62916
L21947 62935
L21872 62935
L21835 62916
L21816 62878
L21816 62728
L21835 62691
L21872 62672
L21947 62672
L21985 62691
L22003 62728
L22003 62766
L21816 62803
" />
<path d="M22172 62935
L22172 62672
" />
<path d="M22172 62747
L22191 62710
L22209 62691
L22247 62672
L22284 62672
" />
<path d="M22322 62972
L22622 62972
" />
<path d="M22697 62916
L22753 62935
L22847 62935
L22884 62916
L22903 62897
L22922 62860
L22922 62822
L22903 62785
L22884 62766
L22847 62747
L22772 62728
L22734 62710
L22716 62691
L22697 62653
L22697 62616
L22716 62578
L22734 62560
L22772 62541
L22866 62541
L22922 62560
" />
<path d="M23053 62672
L23128 62935
L23203 62747
L23278 62935
L23353 62672
" />
<path d="M23503 62935
L23503 62672
" />
<path d="M23503 62541
L23484 62560
L23503 62578
L23522 62560
L23503 62541
L23503 62578
" />
<path d="M23634 62672
L23784 62672
" />
<path d="M23691 62541
L23691 62878
L23709 62916
L23747 62935
L23784 62935
" />
<path d="M24084 62916
L24047 62935
L23972 62935
L23934 62916
L23916 62897
L23897 62860
L23897 62747
L23916 62710
L23934 62691
L23972 62672
L24047 62672
L24084 62691
" />
<path d="M24253 62935
L24253 62541
" />
<path d="M24422 62935
L24422 62728
L24403 62691
L24365 62672
L24309 62672
L24272 62691
L24253 62710
" />
<g >
</g>
</g>
<g style="fill:#000000; fill-opacity:0.0; 
stroke:#000000; stroke-width:59.0551; stroke-opacity:1; 
stroke-linecap:round; stroke-linejoin:round;">
</g>
<g style="fill:#C2C200; fill-opacity:0.0; 
stroke:#C2C200; stroke-width:59.0551; stroke-opacity:1; 
stroke-linecap:round; stroke-linejoin:round;">
</g>
<g style="fill:#C2C200; fill-opacity:0.0; 
stroke:#C2C200; stroke-width:39.3701; stroke-opacity:1; 
stroke-linecap:round; stroke-linejoin:round;">
<path d="M19 19
L19 19
" />
</g>
<g style="fill:#C2C200; fill-opacity:0.0; 
stroke:#C2C200; stroke-width:59.0551; stroke-opacity:1; 
stroke-linecap:round; stroke-linejoin:round;">
<path d="M16411 69232
L21184 66476
" />
<path d="M19167 74005
L16411 69232
" />
<path d="M23940 71249
L19167 74005
" />
<path d="M21184 66476
L23940 71249
" />
<path d="M49230 69174
L49230 63662
" />
<path d="M54742 69174
L49230 69174
" />
<path d="M54742 63662
L54742 69174
" />
<path d="M49230 63662
L54742 63662
" />
<path d="M41750 68190
L41750 62678
" />
<path d="M47262 68190
L41750 68190
" />
<path d="M47262 62678
L47262 68190
" />
<path d="M41750 62678
L47262 62678
" />
<path d="M34270 69213
L34270 63701
" />
<path d="M39782 69213
L34270 69213
" />
<path d="M39782 63701
L39782 69213
" />
<path d="M34270 63701
L39782 63701
" />
<path d="M26944 71882
L24790 66808
" />
<path d="M32017 69728
L26944 71882
" />
<path d="M29864 64655
L32017 69728
" />
<path d="M24790 66808
L29864 64655
" />
<path d="M64211 65197
L64211 59686
" />
<path d="M69723 65197
L64211 65197
" />
<path d="M69723 59686
L69723 65197
" />
<path d="M64211 59686
L69723 59686
" />
<path d="M56711 65197
L56711 59686
" />
<path d="M62223 65197
L56711 65197
" />
<path d="M62223 59686
L62223 65197
" />
<path d="M56711 59686
L62223 59686
" />
<path d="M49230 61694
L49230 56182
" />
<path d="M54742 61694
L49230 61694
" />
<path d="M54742 56182
L54742 61694
" />
<path d="M49230 56182
L54742 56182
" />
<path d="M41750 60709
L41750 55197
" />
<path d="M47262 60709
L41750 60709
" />
<path d="M47262 55197
L47262 60709
" />
<path d="M41750 55197
L47262 55197
" />
<path d="M34270 61694
L34270 56182
" />
<path d="M39782 61694
L34270 61694
" />
<path d="M39782 56182
L39782 61694
" />
<path d="M34270 56182
L39782 56182
" />
<path d="M26790 62638
L26790 57127
" />
<path d="M32301 62638
L26790 62638
" />
<path d="M32301 57127
L32301 62638
" />
<path d="M26790 57127
L32301 57127
" />
<path d="M64191 57717
L64191 52205
" />
<path d="M69703 57717
L64191 57717
" />
<path d="M69703 52205
L69703 57717
" />
<path d="M64191 52205
L69703 52205
" />
<path d="M56711 57717
L56711 52205
" />
<path d="M62223 57717
L56711 57717
" />
<path d="M62223 52205
L62223 57717
" />
<path d="M56711 52205
L62223 52205
" />
<path d="M49230 54174
L49230 48662
" />
<path d="M54742 54174
L49230 54174
" />
<path d="M54742 48662
L54742 54174
" />
<path d="M49230 48662
L54742 48662
" />
<path d="M41750 53229
L41750 47717
" />
<path d="M47262 53229
L41750 53229
" />
<path d="M47262 47717
L47262 53229
" />
<path d="M41750 47717
L47262 47717
" />
<path d="M34270 54174
L34270 48662
" />
<path d="M39782 54174
L34270 54174
" />
<path d="M39782 48662
L39782 54174
" />
<path d="M34270 48662
L39782 48662
" />
<path d="M26790 55158
L26790 49646
" />
<path d="M32301 55158
L26790 55158
" />
<path d="M32301 49646
L32301 55158
" />
<path d="M26790 49646
L32301 49646
" />
<path d="M64191 50158
L64191 44646
" />
<path d="M69703 50158
L64191 50158
" />
<path d="M69703 44646
L69703 50158
" />
<path d="M64191 44646
L69703 44646
" />
<path d="M56711 50158
L56711 44646
" />
<path d="M62223 50158
L56711 50158
" />
<path d="M62223 44646
L62223 50158
" />
<path d="M56711 44646
L62223 44646
" />
<path d="M49230 46654
L49230 41142
" />
<path d="M54742 46654
L49230 46654
" />
<path d="M54742 41142
L54742 46654
" />
<path d="M49230 41142
L54742 41142
" />
<path d="M41750 45709
L41750 40197
" />
<path d="M47262 45709
L41750 45709
" />
<path d="M47262 40197
L47262 45709
" />
<path d="M41750 40197
L47262 40197
" />
<path d="M34270 46694
L34270 41182
" />
<path d="M39782 46694
L34270 46694
" />
<path d="M39782 41182
L39782 46694
" />
<path d="M34270 41182
L39782 41182
" />
<path d="M26790 47678
L26790 42166
" />
<path d="M32301 47678
L26790 47678
" />
<path d="M32301 42166
L32301 47678
" />
<path d="M26790 42166
L32301 42166
" />
<path d="M64191 42717
L64191 37205
" />
<path d="M69703 42717
L64191 42717
" />
<path d="M69703 37205
L69703 42717
" />
<path d="M64191 37205
L69703 37205
" />
<path d="M56711 42717
L56711 37205
" />
<path d="M62223 42717
L56711 42717
" />
<path d="M62223 37205
L62223 42717
" />
<path d="M56711 37205
L62223 37205
" />
<path d="M49230 39174
L49230 33662
" />
<path d="M54742 39174
L49230 39174
" />
<path d="M54742 33662
L54742 39174
" />
<path d="M49230 33662
L54742 33662
" />
<path d="M41750 38194
L41750 32682
" />
<path d="M47262 38194
L41750 38194
" />
<path d="M47262 32682
L47262 38194
" />
<path d="M41750 32682
L47262 32682
" />
<path d="M34270 39174
L34270 33662
" />
<path d="M39782 39174
L34270 39174
" />
<path d="M39782 33662
L39782 39174
" />
<path d="M34270 33662
L39782 33662
" />
<path d="M26790 40158
L26790 34646
" />
<path d="M32301 40158
L26790 40158
" />
<path d="M32301 34646
L32301 40158
" />
<path d="M26790 34646
L32301 34646
" />
<g >
</g>
<g >
</g>
<g >
</g>
<g >
</g>
<g >
</g>
<g >
</g>
<g >
</g>
<g >
</g>
<g >
</g>
<g >
</g>
<g >
</g>
<g >
</g>
<g >
</g>
<g >
</g>
<g >
</g>
<g >
</g>
<g >
</g>
<g >
</g>
<g >
</g>
<g >
</g>
<g >
</g>
<g >
</g>
<g >
</g>
<g >
</g>
<g >
</g>
<g >
</g>
<g >
</g>
<g >
</g>
<g >
</g>
<g >
</g>
<g >
</g>
<g >
</g>
<g >
</g>
<g >
</g>
<g >
</g>
<g >
</g>
<g >
</g>
<g >
</g>
<g >
</g>
<g >
</g>
<g >
</g>
<g >
</g>
<g >
</g>
<g >
</g>
<g >
</g>
<g >
</g>
<g >
</g>
<g >
</g>
<g >
</g>
<g >
</g>
<g >
</g>
<g >
</g>
<g >
</g>
<g >
</g>
<g >
</g>
<g >
</g>
<g >
</g>
<g >
</g>
<g >
</g>
<g >
</g>
<g >
</g>
<g >
</g>
<g >
</g>
<g >
</g>
<g >
</g>
<g >
</g>
<g >
</g>
<g >
</g>
<g >
</g>
<g >
</g>
<g >
</g>
<g >
</g>
<g >
</g>
<g >
</g>
<g >
</g>
<g >
</g>
<g >
</g>
<g >
</g>
<g >
</g>
<g >
</g>
<g >
</g>
<g >
</g>
<g >
</g>
<g >
</g>
<g >
</g>
<g >
</g>
</g>
<g style="fill:#000000; fill-opacity:0.0; 
stroke:#000000; stroke-width:59.0551; stroke-opacity:1; 
stroke-linecap:round; stroke-linejoin:round;">
</g>
<g style="fill:#C2C200; fill-opacity:0.0; 
stroke:#C2C200; stroke-width:59.0551; stroke-opacity:1; 
stroke-linecap:round; stroke-linejoin:round;">
<circle cx="18002.6" cy="33053.1" r="656.168" /> 
<path d="M17018 33053
L18986 33053
" />
<path d="M18002 32068
L18002 34037
" />
<circle cx="16435.7" cy="30394.8" r="656.168" /> 
<path d="M15451 30394
L17419 30394
" />
<path d="M16435 29410
L16435 31379
" />
<path d="M25896 33682
L17431 33682
" />
<path d="M33573 33682
L25896 33682
" />
<path d="M33573 32698
L33573 33682
" />
<path d="M41053 32698
L33573 32698
" />
<path d="M41053 31714
L41053 32698
" />
<path d="M48140 31714
L41053 31714
" />
<path d="M48140 32698
L48140 31714
" />
<path d="M55620 32698
L48140 32698
" />
<path d="M55620 36242
L55620 32698
" />
<path d="M70581 36242
L55620 36242
" />
<path d="M70581 66163
L70581 36242
" />
<path d="M55620 70100
L70581 66163
" />
<path d="M33376 70100
L55620 70100
" />
<path d="M26486 73249
L33376 70100
" />
<path d="M19793 77186
L26486 73249
" />
<path d="M14085 67344
L19793 77186
" />
<path d="M16447 65966
L14085 67344
" />
<path d="M17431 33682
L17431 57064
" />
<path d="M17431 57064
L17431 57305
" />
<path d="M17431 57305
L17431 65375
" />
<path d="M17431 65375
L16447 65966
" />
<g >
</g>
<g >
</g>
<g >
</g>
<g >
</g>
<g >
</g>
<g >
</g>
<g >
</g>
<g >
</g>
<g >
</g>
<g >
</g>
<g >
</g>
<g >
</g>
<g >
</g>
<g >
</g>
<g >
</g>
<g >
</g>
<g >
</g>
<g >
</g>
<g >
</g>
<g >
</g>
<g >
</g>
<g >
</g>
<g >
</g>
<g >
</g>
<g >
</g>
<g >
</g>
<g >
</g>
<g >
</g>
<g >
</g>
<g >
</g>
<g >
</g>
<g >
</g>
<g >
</g>
<g >
</g>
<g >
</g>
<g >
</g>
<g >
</g>
<g >
</g>
<g >
</g>
<g >
</g>
<g >
</g>
<g >
</g>
<g >
</g>
<g >
</g>
<g >
</g>
<g >
</g>
<g >
</g>
<g >
</g>
<g >
</g>
<g >
</g>
<g >
</g>
<g >
</g>
<g >
</g>
<g >
</g>
<g >
</g>
<g >
</g>
<g >
</g>
<g >
</g>
<g >
</g>
<g >
</g>
<g >
</g>
<g >
</g>
<g >
</g>
<g >
</g>
<g >
</g>
<g >
</g>
<g >
</g>
<g >
</g>
<g >
</g>
<g >
</g>
<g >
</g>
<g >
</g>
<g >
</g>
<g >
</g>
<g >
</g>
<g >
</g>
<g >
</g>
<g >
</g>
<g >
</g>
<g >
</g>
<g >
</g>
<g >
</g>
<g >
</g>
<g >
</g>
<g >
</g>
<g >
</g>
</g> 
</svg>
