<?xml version="1.0" standalone="no"?>
 <!DOCTYPE svg PUBLIC "-//W3C//DTD SVG 1.1//EN" 
 "http://www.w3.org/Graphics/SVG/1.1/DTD/svg11.dtd"> 
<svg xmlns="http://www.w3.org/2000/svg" version="1.1" 
    width="17.9349cm" height="19.6113cm" viewBox="0 0 70610 77210 ">
<title>SVG Picture created as SofleKeyboard-brd.svg date 2020/05/01 15:16:33 </title>
  <desc>Picture generated by PCBNEW </desc>
<g style="fill:#000000; fill-opacity:1;stroke:#000000; stroke-opacity:1;
stroke-linecap:round; stroke-linejoin:round; "
 transform="translate(0 0) scale(1 1)">
</g>
<g style="fill:#000000; fill-opacity:0.0; 
stroke:#000000; stroke-width:-0.000393701; stroke-opacity:1; 
stroke-linecap:round; stroke-linejoin:round;">
</g>
<g style="fill:#C2C200; fill-opacity:0.0; 
stroke:#C2C200; stroke-width:-0.000393701; stroke-opacity:1; 
stroke-linecap:round; stroke-linejoin:round;">
</g>
<g style="fill:#C2C200; fill-opacity:0.0; 
stroke:#C2C200; stroke-width:39.3701; stroke-opacity:1; 
stroke-linecap:round; stroke-linejoin:round;">
<path d="M19 19
L19 19
" />
</g>
<g style="fill:#C2C200; fill-opacity:0.0; 
stroke:#C2C200; stroke-width:59.0551; stroke-opacity:1; 
stroke-linecap:round; stroke-linejoin:round;">
<path d="M16411 69232
L21184 66476
" />
<path d="M19167 74005
L16411 69232
" />
<path d="M23940 71249
L19167 74005
" />
<path d="M21184 66476
L23940 71249
" />
<path d="M49230 69174
L49230 63662
" />
<path d="M54742 69174
L49230 69174
" />
<path d="M54742 63662
L54742 69174
" />
<path d="M49230 63662
L54742 63662
" />
<path d="M41750 68190
L41750 62678
" />
<path d="M47262 68190
L41750 68190
" />
<path d="M47262 62678
L47262 68190
" />
<path d="M41750 62678
L47262 62678
" />
<path d="M34270 69213
L34270 63701
" />
<path d="M39782 69213
L34270 69213
" />
<path d="M39782 63701
L39782 69213
" />
<path d="M34270 63701
L39782 63701
" />
<path d="M26944 71882
L24790 66808
" />
<path d="M32017 69728
L26944 71882
" />
<path d="M29864 64655
L32017 69728
" />
<path d="M24790 66808
L29864 64655
" />
<path d="M64211 65197
L64211 59686
" />
<path d="M69723 65197
L64211 65197
" />
<path d="M69723 59686
L69723 65197
" />
<path d="M64211 59686
L69723 59686
" />
<path d="M56711 65197
L56711 59686
" />
<path d="M62223 65197
L56711 65197
" />
<path d="M62223 59686
L62223 65197
" />
<path d="M56711 59686
L62223 59686
" />
<path d="M49230 61694
L49230 56182
" />
<path d="M54742 61694
L49230 61694
" />
<path d="M54742 56182
L54742 61694
" />
<path d="M49230 56182
L54742 56182
" />
<path d="M41750 60709
L41750 55197
" />
<path d="M47262 60709
L41750 60709
" />
<path d="M47262 55197
L47262 60709
" />
<path d="M41750 55197
L47262 55197
" />
<path d="M34270 61694
L34270 56182
" />
<path d="M39782 61694
L34270 61694
" />
<path d="M39782 56182
L39782 61694
" />
<path d="M34270 56182
L39782 56182
" />
<path d="M26790 62638
L26790 57127
" />
<path d="M32301 62638
L26790 62638
" />
<path d="M32301 57127
L32301 62638
" />
<path d="M26790 57127
L32301 57127
" />
<path d="M64191 57717
L64191 52205
" />
<path d="M69703 57717
L64191 57717
" />
<path d="M69703 52205
L69703 57717
" />
<path d="M64191 52205
L69703 52205
" />
<path d="M56711 57717
L56711 52205
" />
<path d="M62223 57717
L56711 57717
" />
<path d="M62223 52205
L62223 57717
" />
<path d="M56711 52205
L62223 52205
" />
<path d="M49230 54174
L49230 48662
" />
<path d="M54742 54174
L49230 54174
" />
<path d="M54742 48662
L54742 54174
" />
<path d="M49230 48662
L54742 48662
" />
<path d="M41750 53229
L41750 47717
" />
<path d="M47262 53229
L41750 53229
" />
<path d="M47262 47717
L47262 53229
" />
<path d="M41750 47717
L47262 47717
" />
<path d="M34270 54174
L34270 48662
" />
<path d="M39782 54174
L34270 54174
" />
<path d="M39782 48662
L39782 54174
" />
<path d="M34270 48662
L39782 48662
" />
<path d="M26790 55158
L26790 49646
" />
<path d="M32301 55158
L26790 55158
" />
<path d="M32301 49646
L32301 55158
" />
<path d="M26790 49646
L32301 49646
" />
<path d="M64191 50158
L64191 44646
" />
<path d="M69703 50158
L64191 50158
" />
<path d="M69703 44646
L69703 50158
" />
<path d="M64191 44646
L69703 44646
" />
<path d="M56711 50158
L56711 44646
" />
<path d="M62223 50158
L56711 50158
" />
<path d="M62223 44646
L62223 50158
" />
<path d="M56711 44646
L62223 44646
" />
<path d="M49230 46654
L49230 41142
" />
<path d="M54742 46654
L49230 46654
" />
<path d="M54742 41142
L54742 46654
" />
<path d="M49230 41142
L54742 41142
" />
<path d="M41750 45709
L41750 40197
" />
<path d="M47262 45709
L41750 45709
" />
<path d="M47262 40197
L47262 45709
" />
<path d="M41750 40197
L47262 40197
" />
<path d="M34270 46694
L34270 41182
" />
<path d="M39782 46694
L34270 46694
" />
<path d="M39782 41182
L39782 46694
" />
<path d="M34270 41182
L39782 41182
" />
<path d="M26790 47678
L26790 42166
" />
<path d="M32301 47678
L26790 47678
" />
<path d="M32301 42166
L32301 47678
" />
<path d="M26790 42166
L32301 42166
" />
<path d="M64191 42717
L64191 37205
" />
<path d="M69703 42717
L64191 42717
" />
<path d="M69703 37205
L69703 42717
" />
<path d="M64191 37205
L69703 37205
" />
<path d="M56711 42717
L56711 37205
" />
<path d="M62223 42717
L56711 42717
" />
<path d="M62223 37205
L62223 42717
" />
<path d="M56711 37205
L62223 37205
" />
<path d="M49230 39174
L49230 33662
" />
<path d="M54742 39174
L49230 39174
" />
<path d="M54742 33662
L54742 39174
" />
<path d="M49230 33662
L54742 33662
" />
<path d="M41750 38194
L41750 32682
" />
<path d="M47262 38194
L41750 38194
" />
<path d="M47262 32682
L47262 38194
" />
<path d="M41750 32682
L47262 32682
" />
<path d="M34270 39174
L34270 33662
" />
<path d="M39782 39174
L34270 39174
" />
<path d="M39782 33662
L39782 39174
" />
<path d="M34270 33662
L39782 33662
" />
<path d="M26790 40158
L26790 34646
" />
<path d="M32301 40158
L26790 40158
" />
<path d="M32301 34646
L32301 40158
" />
<path d="M26790 34646
L32301 34646
" />
<g >
</g>
<g >
</g>
<g >
</g>
<g >
</g>
<g >
</g>
<g >
</g>
<g >
</g>
<g >
</g>
<g >
</g>
<g >
</g>
<g >
</g>
<g >
</g>
<g >
</g>
<g >
</g>
<g >
</g>
<g >
</g>
<g >
</g>
<g >
</g>
<g >
</g>
<g >
</g>
<g >
</g>
<g >
</g>
<g >
</g>
<g >
</g>
<g >
</g>
<g >
</g>
<g >
</g>
<g >
</g>
<g >
</g>
<g >
</g>
<g >
</g>
<g >
</g>
<g >
</g>
<g >
</g>
<g >
</g>
<g >
</g>
<g >
</g>
<g >
</g>
<g >
</g>
<g >
</g>
<g >
</g>
<g >
</g>
<g >
</g>
<g >
</g>
<g >
</g>
<g >
</g>
<g >
</g>
<g >
</g>
<g >
</g>
<g >
</g>
<g >
</g>
<g >
</g>
<g >
</g>
<g >
</g>
<g >
</g>
<g >
</g>
<g >
</g>
<g >
</g>
<g >
</g>
<g >
</g>
<g >
</g>
<g >
</g>
<g >
</g>
<g >
</g>
<g >
</g>
<g >
</g>
<g >
</g>
<g >
</g>
<g >
</g>
<g >
</g>
<g >
</g>
<g >
</g>
<g >
</g>
<g >
</g>
<g >
</g>
<g >
</g>
<g >
</g>
<g >
</g>
<g >
</g>
<g >
</g>
<g >
</g>
<g >
</g>
<g >
</g>
<g >
</g>
<g >
</g>
<g >
</g>
</g>
<g style="fill:#000000; fill-opacity:0.0; 
stroke:#000000; stroke-width:59.0551; stroke-opacity:1; 
stroke-linecap:round; stroke-linejoin:round;">
</g>
<g style="fill:#C2C200; fill-opacity:0.0; 
stroke:#C2C200; stroke-width:59.0551; stroke-opacity:1; 
stroke-linecap:round; stroke-linejoin:round;">
<circle cx="17431.8" cy="33683" r="656.168" /> 
<path d="M16447 33682
L18416 33682
" />
<path d="M17431 32698
L17431 34667
" />
<path d="M25896 33682
L17431 33682
" />
<path d="M33573 33682
L25896 33682
" />
<path d="M33573 32698
L33573 33682
" />
<path d="M41053 32698
L33573 32698
" />
<path d="M41053 31714
L41053 32698
" />
<path d="M48140 31714
L41053 31714
" />
<path d="M48140 32698
L48140 31714
" />
<path d="M55620 32698
L48140 32698
" />
<path d="M55620 36242
L55620 32698
" />
<path d="M70581 36242
L55620 36242
" />
<path d="M70581 66163
L70581 36242
" />
<path d="M55620 70100
L70581 66163
" />
<path d="M33376 70100
L55620 70100
" />
<path d="M26486 73249
L33376 70100
" />
<path d="M19793 77186
L26486 73249
" />
<path d="M14085 67344
L19793 77186
" />
<path d="M16447 65966
L14085 67344
" />
<path d="M17431 33682
L17431 57064
" />
<path d="M17431 57064
L17431 57305
" />
<path d="M17431 57305
L17431 65375
" />
<path d="M17431 65375
L16447 65966
" />
<g >
</g>
<g >
</g>
<g >
</g>
<g >
</g>
<g >
</g>
<g >
</g>
<g >
</g>
<g >
</g>
<g >
</g>
<g >
</g>
<g >
</g>
<g >
</g>
<g >
</g>
<g >
</g>
<g >
</g>
<g >
</g>
<g >
</g>
<g >
</g>
<g >
</g>
<g >
</g>
<g >
</g>
<g >
</g>
<g >
</g>
<g >
</g>
<g >
</g>
<g >
</g>
<g >
</g>
<g >
</g>
<g >
</g>
<g >
</g>
<g >
</g>
<g >
</g>
<g >
</g>
<g >
</g>
<g >
</g>
<g >
</g>
<g >
</g>
<g >
</g>
<g >
</g>
<g >
</g>
<g >
</g>
<g >
</g>
<g >
</g>
<g >
</g>
<g >
</g>
<g >
</g>
<g >
</g>
<g >
</g>
<g >
</g>
<g >
</g>
<g >
</g>
<g >
</g>
<g >
</g>
<g >
</g>
<g >
</g>
<g >
</g>
<g >
</g>
<g >
</g>
<g >
</g>
<g >
</g>
<g >
</g>
<g >
</g>
<g >
</g>
<g >
</g>
<g >
</g>
<g >
</g>
<g >
</g>
<g >
</g>
<g >
</g>
<g >
</g>
<g >
</g>
<g >
</g>
<g >
</g>
<g >
</g>
<g >
</g>
<g >
</g>
<g >
</g>
<g >
</g>
<g >
</g>
<g >
</g>
<g >
</g>
<g >
</g>
<g >
</g>
<g >
</g>
<g >
</g>
<g >
</g>
</g> 
</svg>
