%TF.GenerationSoftware,KiCad,Pcbnew,7.0.5-0*%
%TF.CreationDate,2024-02-11T16:35:11-08:00*%
%TF.ProjectId,Sofle_Pico_Bottom_Plate,536f666c-655f-4506-9963-6f5f426f7474,3.5.5*%
%TF.SameCoordinates,Original*%
%TF.FileFunction,Copper,L1,Top*%
%TF.FilePolarity,Positive*%
%FSLAX46Y46*%
G04 Gerber Fmt 4.6, Leading zero omitted, Abs format (unit mm)*
G04 Created by KiCad (PCBNEW 7.0.5-0) date 2024-02-11 16:35:11*
%MOMM*%
%LPD*%
G01*
G04 APERTURE LIST*
%TA.AperFunction,EtchedComponent*%
%ADD10C,0.022619*%
%TD*%
%TA.AperFunction,ComponentPad*%
%ADD11C,3.400000*%
%TD*%
%TA.AperFunction,ComponentPad*%
%ADD12C,46.200000*%
%TD*%
G04 APERTURE END LIST*
%TO.C,REF\u002A\u002A*%
D10*
X188157952Y-127363632D02*
X188197722Y-127365223D01*
X188237587Y-127367758D01*
X188277502Y-127371252D01*
X188317417Y-127375721D01*
X188357287Y-127381180D01*
X188397063Y-127387646D01*
X188436698Y-127395133D01*
X188476146Y-127403659D01*
X188515359Y-127413238D01*
X188554289Y-127423886D01*
X188592889Y-127435619D01*
X188631113Y-127448453D01*
X188668912Y-127462403D01*
X188706240Y-127477486D01*
X188787192Y-127474029D01*
X188868850Y-127476362D01*
X188950925Y-127484356D01*
X189033127Y-127497884D01*
X189115166Y-127516816D01*
X189196750Y-127541024D01*
X189277591Y-127570379D01*
X189357398Y-127604753D01*
X189435881Y-127644017D01*
X189512749Y-127688042D01*
X189587713Y-127736700D01*
X189660483Y-127789863D01*
X189730767Y-127847401D01*
X189798277Y-127909187D01*
X189862721Y-127975091D01*
X189923810Y-128044985D01*
X189981254Y-128118741D01*
X190034762Y-128196229D01*
X190084045Y-128277321D01*
X190128811Y-128361889D01*
X190168772Y-128449804D01*
X190203636Y-128540938D01*
X190233114Y-128635161D01*
X190256915Y-128732346D01*
X190274750Y-128832364D01*
X190286328Y-128935085D01*
X190291358Y-129040382D01*
X190289552Y-129148126D01*
X190280618Y-129258188D01*
X190264267Y-129370440D01*
X190240208Y-129484754D01*
X190208151Y-129601000D01*
X190190078Y-129646749D01*
X190169813Y-129691461D01*
X190147442Y-129735087D01*
X190123048Y-129777577D01*
X190096715Y-129818883D01*
X190068529Y-129858955D01*
X190038572Y-129897745D01*
X190006929Y-129935203D01*
X189973685Y-129971281D01*
X189938924Y-130005930D01*
X189902730Y-130039101D01*
X189865186Y-130070744D01*
X189826378Y-130100812D01*
X189786389Y-130129254D01*
X189745304Y-130156022D01*
X189703208Y-130181067D01*
X189654371Y-130255262D01*
X189604537Y-130326657D01*
X189553454Y-130395327D01*
X189500866Y-130461345D01*
X189446519Y-130524785D01*
X189390159Y-130585722D01*
X189331532Y-130644230D01*
X189270383Y-130700383D01*
X189206460Y-130754255D01*
X189139506Y-130805920D01*
X189069268Y-130855452D01*
X188995493Y-130902925D01*
X188917925Y-130948414D01*
X188836310Y-130991992D01*
X188750395Y-131033734D01*
X188659925Y-131073713D01*
X188582109Y-131094360D01*
X188492209Y-131110854D01*
X188392198Y-131122720D01*
X188284047Y-131129487D01*
X188169729Y-131130681D01*
X188051213Y-131125828D01*
X187930474Y-131114457D01*
X187809482Y-131096095D01*
X187690209Y-131070267D01*
X187574627Y-131036502D01*
X187518836Y-131016494D01*
X187464708Y-130994325D01*
X187412488Y-130969936D01*
X187362423Y-130943266D01*
X187314760Y-130914256D01*
X187269745Y-130882849D01*
X187227624Y-130848984D01*
X187188645Y-130812603D01*
X187153053Y-130773645D01*
X187121095Y-130732054D01*
X187093017Y-130687768D01*
X187069066Y-130640729D01*
X186993936Y-130612424D01*
X186947783Y-130593510D01*
X186897110Y-130570717D01*
X186842821Y-130543517D01*
X186785820Y-130511379D01*
X186727011Y-130473777D01*
X186667297Y-130430180D01*
X186607583Y-130380059D01*
X186548772Y-130322887D01*
X186519988Y-130291491D01*
X186491769Y-130258134D01*
X186464227Y-130222750D01*
X186437477Y-130185272D01*
X186411630Y-130145634D01*
X186386800Y-130103771D01*
X186363099Y-130059616D01*
X186340641Y-130013103D01*
X186319539Y-129964166D01*
X186299906Y-129912739D01*
X186281855Y-129858756D01*
X186265498Y-129802150D01*
X186228529Y-129766698D01*
X186193785Y-129728232D01*
X186161296Y-129687061D01*
X186131092Y-129643498D01*
X186103203Y-129597852D01*
X186077659Y-129550433D01*
X186054489Y-129501553D01*
X186033724Y-129451521D01*
X186015394Y-129400649D01*
X185999528Y-129349247D01*
X185986157Y-129297625D01*
X185975310Y-129246095D01*
X185967017Y-129194966D01*
X185961309Y-129144548D01*
X185958215Y-129095154D01*
X185957765Y-129047093D01*
X185937818Y-129019142D01*
X185918940Y-128989873D01*
X185901085Y-128959422D01*
X185884208Y-128927925D01*
X185868264Y-128895518D01*
X185853208Y-128862339D01*
X185838994Y-128828524D01*
X185825577Y-128794208D01*
X185800953Y-128724623D01*
X185778973Y-128654675D01*
X185759276Y-128585455D01*
X185741499Y-128518055D01*
X185733037Y-128479155D01*
X185725147Y-128440038D01*
X185718081Y-128400731D01*
X185712093Y-128361256D01*
X185707434Y-128321640D01*
X185705683Y-128301786D01*
X185704359Y-128281905D01*
X185703494Y-128262002D01*
X185703244Y-128248692D01*
X186167183Y-128248692D01*
X186172520Y-128310386D01*
X186182088Y-128369287D01*
X186195489Y-128425455D01*
X186212325Y-128478950D01*
X186232197Y-128529832D01*
X186254707Y-128578161D01*
X186279455Y-128623998D01*
X186306045Y-128667401D01*
X186334076Y-128708432D01*
X186363150Y-128747150D01*
X186422836Y-128817888D01*
X186481913Y-128880096D01*
X186537194Y-128934253D01*
X186585490Y-128980840D01*
X186623614Y-129020337D01*
X186637864Y-129037577D01*
X186648376Y-129053225D01*
X186654751Y-129067340D01*
X186656589Y-129079983D01*
X186653494Y-129091214D01*
X186645065Y-129101093D01*
X186630906Y-129109679D01*
X186610616Y-129117034D01*
X186583798Y-129123216D01*
X186550053Y-129128286D01*
X186460189Y-129135330D01*
X186468409Y-129189351D01*
X186481589Y-129240777D01*
X186499241Y-129289663D01*
X186520884Y-129336061D01*
X186546030Y-129380024D01*
X186574196Y-129421605D01*
X186604898Y-129460857D01*
X186637651Y-129497834D01*
X186671969Y-129532588D01*
X186707369Y-129565172D01*
X186779474Y-129624042D01*
X186850090Y-129674869D01*
X186915339Y-129718077D01*
X187014230Y-129783331D01*
X187029541Y-129795545D01*
X187040118Y-129806225D01*
X187045476Y-129815425D01*
X187045131Y-129823196D01*
X187038598Y-129829593D01*
X187025393Y-129834668D01*
X187005031Y-129838474D01*
X186977027Y-129841064D01*
X186896156Y-129842808D01*
X186778903Y-129840326D01*
X186798771Y-129878452D01*
X186823994Y-129914403D01*
X186854048Y-129948282D01*
X186888412Y-129980191D01*
X186926563Y-130010234D01*
X186967979Y-130038514D01*
X187012137Y-130065132D01*
X187058515Y-130090193D01*
X187155840Y-130136051D01*
X187255777Y-130176910D01*
X187446766Y-130246922D01*
X187529459Y-130277720D01*
X187598047Y-130306809D01*
X187625745Y-130320969D01*
X187648350Y-130335011D01*
X187665338Y-130349037D01*
X187676188Y-130363150D01*
X187680377Y-130377452D01*
X187677382Y-130392047D01*
X187666682Y-130407037D01*
X187647754Y-130422525D01*
X187620075Y-130438614D01*
X187583124Y-130455406D01*
X187536377Y-130473005D01*
X187479312Y-130491513D01*
X187566688Y-130537265D01*
X187660633Y-130579498D01*
X187760455Y-130616760D01*
X187865457Y-130647599D01*
X187974943Y-130670562D01*
X188088219Y-130684196D01*
X188146061Y-130687061D01*
X188204590Y-130687048D01*
X188263718Y-130683978D01*
X188323359Y-130677667D01*
X188383425Y-130667934D01*
X188443831Y-130654598D01*
X188504489Y-130637477D01*
X188565312Y-130616390D01*
X188626213Y-130591155D01*
X188687105Y-130561590D01*
X188747902Y-130527514D01*
X188808516Y-130488745D01*
X188868860Y-130445101D01*
X188928848Y-130396402D01*
X188988393Y-130342465D01*
X189047408Y-130283109D01*
X189105805Y-130218152D01*
X189163498Y-130147413D01*
X189220401Y-130070710D01*
X189276425Y-129987862D01*
X189208127Y-129915432D01*
X189132847Y-129841451D01*
X189050337Y-129765853D01*
X188960349Y-129688571D01*
X188862635Y-129609540D01*
X188756945Y-129528693D01*
X188520645Y-129361286D01*
X188249460Y-129185820D01*
X187941403Y-129001767D01*
X187594486Y-128808595D01*
X187206719Y-128605776D01*
X187364774Y-128659917D01*
X187520801Y-128716356D01*
X187674734Y-128775168D01*
X187826508Y-128836425D01*
X187976055Y-128900200D01*
X188123309Y-128966567D01*
X188268205Y-129035597D01*
X188410675Y-129107363D01*
X188550653Y-129181940D01*
X188688074Y-129259399D01*
X188822870Y-129339815D01*
X188954975Y-129423258D01*
X189084323Y-129509804D01*
X189210847Y-129599524D01*
X189334482Y-129692491D01*
X189455161Y-129788779D01*
X189519969Y-129750880D01*
X189578138Y-129708531D01*
X189629798Y-129662057D01*
X189675080Y-129611787D01*
X189714116Y-129558048D01*
X189747038Y-129501165D01*
X189773977Y-129441467D01*
X189795064Y-129379281D01*
X189810431Y-129314932D01*
X189820209Y-129248750D01*
X189824529Y-129181059D01*
X189823524Y-129112189D01*
X189817324Y-129042464D01*
X189806061Y-128972214D01*
X189789867Y-128901764D01*
X189768872Y-128831441D01*
X189743208Y-128761574D01*
X189713007Y-128692488D01*
X189678400Y-128624510D01*
X189639518Y-128557969D01*
X189596494Y-128493190D01*
X189549457Y-128430502D01*
X189498541Y-128370230D01*
X189443875Y-128312702D01*
X189385593Y-128258245D01*
X189323824Y-128207186D01*
X189258700Y-128159852D01*
X189190354Y-128116570D01*
X189118916Y-128077667D01*
X189044518Y-128043470D01*
X188967290Y-128014307D01*
X188887366Y-127990504D01*
X188891398Y-128034194D01*
X188892757Y-128071016D01*
X188891531Y-128101332D01*
X188887810Y-128125506D01*
X188881682Y-128143901D01*
X188873235Y-128156879D01*
X188862560Y-128164804D01*
X188849744Y-128168039D01*
X188834877Y-128166947D01*
X188818048Y-128161892D01*
X188799344Y-128153236D01*
X188778856Y-128141342D01*
X188732881Y-128109296D01*
X188680834Y-128068657D01*
X188561364Y-127973222D01*
X188495364Y-127924237D01*
X188426135Y-127878279D01*
X188390531Y-127857344D01*
X188354387Y-127838255D01*
X188317791Y-127821375D01*
X188280833Y-127807068D01*
X188243600Y-127795697D01*
X188206182Y-127787624D01*
X188168668Y-127783214D01*
X188131146Y-127782829D01*
X188121148Y-127783454D01*
X188111154Y-127784400D01*
X188101168Y-127785675D01*
X188091190Y-127787282D01*
X188081226Y-127789230D01*
X188071276Y-127791523D01*
X188061345Y-127794167D01*
X188051435Y-127797169D01*
X188086022Y-127881665D01*
X188096238Y-127914812D01*
X188101970Y-127942363D01*
X188103397Y-127964674D01*
X188100694Y-127982099D01*
X188094040Y-127994993D01*
X188083610Y-128003709D01*
X188069582Y-128008603D01*
X188052132Y-128010028D01*
X188031438Y-128008341D01*
X188007676Y-128003894D01*
X187951658Y-127988140D01*
X187885493Y-127965604D01*
X187728384Y-127911530D01*
X187640270Y-127885662D01*
X187547671Y-127864357D01*
X187500131Y-127856300D01*
X187452001Y-127850448D01*
X187403458Y-127847154D01*
X187354677Y-127846773D01*
X187305837Y-127849659D01*
X187257114Y-127856167D01*
X187208685Y-127866651D01*
X187160727Y-127881466D01*
X187223258Y-127953110D01*
X187260898Y-128004471D01*
X187270938Y-128023469D01*
X187275420Y-128038505D01*
X187274566Y-128049947D01*
X187268598Y-128058165D01*
X187257736Y-128063530D01*
X187242203Y-128066409D01*
X187198009Y-128066189D01*
X187063317Y-128052184D01*
X186976365Y-128044309D01*
X186878705Y-128039791D01*
X186772111Y-128041586D01*
X186658356Y-128052650D01*
X186599347Y-128062581D01*
X186539213Y-128075938D01*
X186478175Y-128093089D01*
X186416454Y-128114404D01*
X186354273Y-128140252D01*
X186291853Y-128171003D01*
X186229416Y-128207027D01*
X186167183Y-128248692D01*
X185703244Y-128248692D01*
X185703119Y-128242078D01*
X185703267Y-128222138D01*
X185703969Y-128202183D01*
X185705092Y-128181879D01*
X185707283Y-128161690D01*
X185710523Y-128141661D01*
X185714792Y-128121840D01*
X185720070Y-128102275D01*
X185726339Y-128083012D01*
X185733577Y-128064099D01*
X185741767Y-128045582D01*
X185750887Y-128027509D01*
X185760920Y-128009927D01*
X185771844Y-127992883D01*
X185783642Y-127976424D01*
X185796292Y-127960597D01*
X185809776Y-127945450D01*
X185824074Y-127931029D01*
X185839167Y-127917381D01*
X185882393Y-127883761D01*
X185926848Y-127851854D01*
X185972461Y-127821667D01*
X186019160Y-127793205D01*
X186066875Y-127766476D01*
X186115533Y-127741485D01*
X186165064Y-127718239D01*
X186215396Y-127696745D01*
X186266458Y-127677008D01*
X186318179Y-127659034D01*
X186370487Y-127642831D01*
X186423311Y-127628405D01*
X186476580Y-127615761D01*
X186530223Y-127604907D01*
X186584167Y-127595847D01*
X186638343Y-127588590D01*
X186659976Y-127574746D01*
X186682055Y-127562139D01*
X186704562Y-127550632D01*
X186727477Y-127540087D01*
X186750781Y-127530365D01*
X186774453Y-127521329D01*
X186822825Y-127504759D01*
X186923132Y-127473769D01*
X186974753Y-127457138D01*
X187000862Y-127448055D01*
X187027144Y-127438276D01*
X187065704Y-127426824D01*
X187106040Y-127416543D01*
X187147904Y-127407459D01*
X187191051Y-127399595D01*
X187235235Y-127392973D01*
X187280210Y-127387618D01*
X187325728Y-127383553D01*
X187371546Y-127380801D01*
X187417415Y-127379386D01*
X187463090Y-127379331D01*
X187508325Y-127380660D01*
X187552874Y-127383397D01*
X187596491Y-127387564D01*
X187638929Y-127393186D01*
X187679942Y-127400285D01*
X187719285Y-127408885D01*
X187761608Y-127399139D01*
X187804845Y-127390492D01*
X187848915Y-127382971D01*
X187893735Y-127376603D01*
X187939224Y-127371417D01*
X187985300Y-127367438D01*
X188031882Y-127364696D01*
X188078888Y-127363216D01*
X188118325Y-127362968D01*
X188157952Y-127363632D01*
%TA.AperFunction,EtchedComponent*%
G36*
X188157952Y-127363632D02*
G01*
X188197722Y-127365223D01*
X188237587Y-127367758D01*
X188277502Y-127371252D01*
X188317417Y-127375721D01*
X188357287Y-127381180D01*
X188397063Y-127387646D01*
X188436698Y-127395133D01*
X188476146Y-127403659D01*
X188515359Y-127413238D01*
X188554289Y-127423886D01*
X188592889Y-127435619D01*
X188631113Y-127448453D01*
X188668912Y-127462403D01*
X188706240Y-127477486D01*
X188787192Y-127474029D01*
X188868850Y-127476362D01*
X188950925Y-127484356D01*
X189033127Y-127497884D01*
X189115166Y-127516816D01*
X189196750Y-127541024D01*
X189277591Y-127570379D01*
X189357398Y-127604753D01*
X189435881Y-127644017D01*
X189512749Y-127688042D01*
X189587713Y-127736700D01*
X189660483Y-127789863D01*
X189730767Y-127847401D01*
X189798277Y-127909187D01*
X189862721Y-127975091D01*
X189923810Y-128044985D01*
X189981254Y-128118741D01*
X190034762Y-128196229D01*
X190084045Y-128277321D01*
X190128811Y-128361889D01*
X190168772Y-128449804D01*
X190203636Y-128540938D01*
X190233114Y-128635161D01*
X190256915Y-128732346D01*
X190274750Y-128832364D01*
X190286328Y-128935085D01*
X190291358Y-129040382D01*
X190289552Y-129148126D01*
X190280618Y-129258188D01*
X190264267Y-129370440D01*
X190240208Y-129484754D01*
X190208151Y-129601000D01*
X190190078Y-129646749D01*
X190169813Y-129691461D01*
X190147442Y-129735087D01*
X190123048Y-129777577D01*
X190096715Y-129818883D01*
X190068529Y-129858955D01*
X190038572Y-129897745D01*
X190006929Y-129935203D01*
X189973685Y-129971281D01*
X189938924Y-130005930D01*
X189902730Y-130039101D01*
X189865186Y-130070744D01*
X189826378Y-130100812D01*
X189786389Y-130129254D01*
X189745304Y-130156022D01*
X189703208Y-130181067D01*
X189654371Y-130255262D01*
X189604537Y-130326657D01*
X189553454Y-130395327D01*
X189500866Y-130461345D01*
X189446519Y-130524785D01*
X189390159Y-130585722D01*
X189331532Y-130644230D01*
X189270383Y-130700383D01*
X189206460Y-130754255D01*
X189139506Y-130805920D01*
X189069268Y-130855452D01*
X188995493Y-130902925D01*
X188917925Y-130948414D01*
X188836310Y-130991992D01*
X188750395Y-131033734D01*
X188659925Y-131073713D01*
X188582109Y-131094360D01*
X188492209Y-131110854D01*
X188392198Y-131122720D01*
X188284047Y-131129487D01*
X188169729Y-131130681D01*
X188051213Y-131125828D01*
X187930474Y-131114457D01*
X187809482Y-131096095D01*
X187690209Y-131070267D01*
X187574627Y-131036502D01*
X187518836Y-131016494D01*
X187464708Y-130994325D01*
X187412488Y-130969936D01*
X187362423Y-130943266D01*
X187314760Y-130914256D01*
X187269745Y-130882849D01*
X187227624Y-130848984D01*
X187188645Y-130812603D01*
X187153053Y-130773645D01*
X187121095Y-130732054D01*
X187093017Y-130687768D01*
X187069066Y-130640729D01*
X186993936Y-130612424D01*
X186947783Y-130593510D01*
X186897110Y-130570717D01*
X186842821Y-130543517D01*
X186785820Y-130511379D01*
X186727011Y-130473777D01*
X186667297Y-130430180D01*
X186607583Y-130380059D01*
X186548772Y-130322887D01*
X186519988Y-130291491D01*
X186491769Y-130258134D01*
X186464227Y-130222750D01*
X186437477Y-130185272D01*
X186411630Y-130145634D01*
X186386800Y-130103771D01*
X186363099Y-130059616D01*
X186340641Y-130013103D01*
X186319539Y-129964166D01*
X186299906Y-129912739D01*
X186281855Y-129858756D01*
X186265498Y-129802150D01*
X186228529Y-129766698D01*
X186193785Y-129728232D01*
X186161296Y-129687061D01*
X186131092Y-129643498D01*
X186103203Y-129597852D01*
X186077659Y-129550433D01*
X186054489Y-129501553D01*
X186033724Y-129451521D01*
X186015394Y-129400649D01*
X185999528Y-129349247D01*
X185986157Y-129297625D01*
X185975310Y-129246095D01*
X185967017Y-129194966D01*
X185961309Y-129144548D01*
X185958215Y-129095154D01*
X185957765Y-129047093D01*
X185937818Y-129019142D01*
X185918940Y-128989873D01*
X185901085Y-128959422D01*
X185884208Y-128927925D01*
X185868264Y-128895518D01*
X185853208Y-128862339D01*
X185838994Y-128828524D01*
X185825577Y-128794208D01*
X185800953Y-128724623D01*
X185778973Y-128654675D01*
X185759276Y-128585455D01*
X185741499Y-128518055D01*
X185733037Y-128479155D01*
X185725147Y-128440038D01*
X185718081Y-128400731D01*
X185712093Y-128361256D01*
X185707434Y-128321640D01*
X185705683Y-128301786D01*
X185704359Y-128281905D01*
X185703494Y-128262002D01*
X185703244Y-128248692D01*
X186167183Y-128248692D01*
X186172520Y-128310386D01*
X186182088Y-128369287D01*
X186195489Y-128425455D01*
X186212325Y-128478950D01*
X186232197Y-128529832D01*
X186254707Y-128578161D01*
X186279455Y-128623998D01*
X186306045Y-128667401D01*
X186334076Y-128708432D01*
X186363150Y-128747150D01*
X186422836Y-128817888D01*
X186481913Y-128880096D01*
X186537194Y-128934253D01*
X186585490Y-128980840D01*
X186623614Y-129020337D01*
X186637864Y-129037577D01*
X186648376Y-129053225D01*
X186654751Y-129067340D01*
X186656589Y-129079983D01*
X186653494Y-129091214D01*
X186645065Y-129101093D01*
X186630906Y-129109679D01*
X186610616Y-129117034D01*
X186583798Y-129123216D01*
X186550053Y-129128286D01*
X186460189Y-129135330D01*
X186468409Y-129189351D01*
X186481589Y-129240777D01*
X186499241Y-129289663D01*
X186520884Y-129336061D01*
X186546030Y-129380024D01*
X186574196Y-129421605D01*
X186604898Y-129460857D01*
X186637651Y-129497834D01*
X186671969Y-129532588D01*
X186707369Y-129565172D01*
X186779474Y-129624042D01*
X186850090Y-129674869D01*
X186915339Y-129718077D01*
X187014230Y-129783331D01*
X187029541Y-129795545D01*
X187040118Y-129806225D01*
X187045476Y-129815425D01*
X187045131Y-129823196D01*
X187038598Y-129829593D01*
X187025393Y-129834668D01*
X187005031Y-129838474D01*
X186977027Y-129841064D01*
X186896156Y-129842808D01*
X186778903Y-129840326D01*
X186798771Y-129878452D01*
X186823994Y-129914403D01*
X186854048Y-129948282D01*
X186888412Y-129980191D01*
X186926563Y-130010234D01*
X186967979Y-130038514D01*
X187012137Y-130065132D01*
X187058515Y-130090193D01*
X187155840Y-130136051D01*
X187255777Y-130176910D01*
X187446766Y-130246922D01*
X187529459Y-130277720D01*
X187598047Y-130306809D01*
X187625745Y-130320969D01*
X187648350Y-130335011D01*
X187665338Y-130349037D01*
X187676188Y-130363150D01*
X187680377Y-130377452D01*
X187677382Y-130392047D01*
X187666682Y-130407037D01*
X187647754Y-130422525D01*
X187620075Y-130438614D01*
X187583124Y-130455406D01*
X187536377Y-130473005D01*
X187479312Y-130491513D01*
X187566688Y-130537265D01*
X187660633Y-130579498D01*
X187760455Y-130616760D01*
X187865457Y-130647599D01*
X187974943Y-130670562D01*
X188088219Y-130684196D01*
X188146061Y-130687061D01*
X188204590Y-130687048D01*
X188263718Y-130683978D01*
X188323359Y-130677667D01*
X188383425Y-130667934D01*
X188443831Y-130654598D01*
X188504489Y-130637477D01*
X188565312Y-130616390D01*
X188626213Y-130591155D01*
X188687105Y-130561590D01*
X188747902Y-130527514D01*
X188808516Y-130488745D01*
X188868860Y-130445101D01*
X188928848Y-130396402D01*
X188988393Y-130342465D01*
X189047408Y-130283109D01*
X189105805Y-130218152D01*
X189163498Y-130147413D01*
X189220401Y-130070710D01*
X189276425Y-129987862D01*
X189208127Y-129915432D01*
X189132847Y-129841451D01*
X189050337Y-129765853D01*
X188960349Y-129688571D01*
X188862635Y-129609540D01*
X188756945Y-129528693D01*
X188520645Y-129361286D01*
X188249460Y-129185820D01*
X187941403Y-129001767D01*
X187594486Y-128808595D01*
X187206719Y-128605776D01*
X187364774Y-128659917D01*
X187520801Y-128716356D01*
X187674734Y-128775168D01*
X187826508Y-128836425D01*
X187976055Y-128900200D01*
X188123309Y-128966567D01*
X188268205Y-129035597D01*
X188410675Y-129107363D01*
X188550653Y-129181940D01*
X188688074Y-129259399D01*
X188822870Y-129339815D01*
X188954975Y-129423258D01*
X189084323Y-129509804D01*
X189210847Y-129599524D01*
X189334482Y-129692491D01*
X189455161Y-129788779D01*
X189519969Y-129750880D01*
X189578138Y-129708531D01*
X189629798Y-129662057D01*
X189675080Y-129611787D01*
X189714116Y-129558048D01*
X189747038Y-129501165D01*
X189773977Y-129441467D01*
X189795064Y-129379281D01*
X189810431Y-129314932D01*
X189820209Y-129248750D01*
X189824529Y-129181059D01*
X189823524Y-129112189D01*
X189817324Y-129042464D01*
X189806061Y-128972214D01*
X189789867Y-128901764D01*
X189768872Y-128831441D01*
X189743208Y-128761574D01*
X189713007Y-128692488D01*
X189678400Y-128624510D01*
X189639518Y-128557969D01*
X189596494Y-128493190D01*
X189549457Y-128430502D01*
X189498541Y-128370230D01*
X189443875Y-128312702D01*
X189385593Y-128258245D01*
X189323824Y-128207186D01*
X189258700Y-128159852D01*
X189190354Y-128116570D01*
X189118916Y-128077667D01*
X189044518Y-128043470D01*
X188967290Y-128014307D01*
X188887366Y-127990504D01*
X188891398Y-128034194D01*
X188892757Y-128071016D01*
X188891531Y-128101332D01*
X188887810Y-128125506D01*
X188881682Y-128143901D01*
X188873235Y-128156879D01*
X188862560Y-128164804D01*
X188849744Y-128168039D01*
X188834877Y-128166947D01*
X188818048Y-128161892D01*
X188799344Y-128153236D01*
X188778856Y-128141342D01*
X188732881Y-128109296D01*
X188680834Y-128068657D01*
X188561364Y-127973222D01*
X188495364Y-127924237D01*
X188426135Y-127878279D01*
X188390531Y-127857344D01*
X188354387Y-127838255D01*
X188317791Y-127821375D01*
X188280833Y-127807068D01*
X188243600Y-127795697D01*
X188206182Y-127787624D01*
X188168668Y-127783214D01*
X188131146Y-127782829D01*
X188121148Y-127783454D01*
X188111154Y-127784400D01*
X188101168Y-127785675D01*
X188091190Y-127787282D01*
X188081226Y-127789230D01*
X188071276Y-127791523D01*
X188061345Y-127794167D01*
X188051435Y-127797169D01*
X188086022Y-127881665D01*
X188096238Y-127914812D01*
X188101970Y-127942363D01*
X188103397Y-127964674D01*
X188100694Y-127982099D01*
X188094040Y-127994993D01*
X188083610Y-128003709D01*
X188069582Y-128008603D01*
X188052132Y-128010028D01*
X188031438Y-128008341D01*
X188007676Y-128003894D01*
X187951658Y-127988140D01*
X187885493Y-127965604D01*
X187728384Y-127911530D01*
X187640270Y-127885662D01*
X187547671Y-127864357D01*
X187500131Y-127856300D01*
X187452001Y-127850448D01*
X187403458Y-127847154D01*
X187354677Y-127846773D01*
X187305837Y-127849659D01*
X187257114Y-127856167D01*
X187208685Y-127866651D01*
X187160727Y-127881466D01*
X187223258Y-127953110D01*
X187260898Y-128004471D01*
X187270938Y-128023469D01*
X187275420Y-128038505D01*
X187274566Y-128049947D01*
X187268598Y-128058165D01*
X187257736Y-128063530D01*
X187242203Y-128066409D01*
X187198009Y-128066189D01*
X187063317Y-128052184D01*
X186976365Y-128044309D01*
X186878705Y-128039791D01*
X186772111Y-128041586D01*
X186658356Y-128052650D01*
X186599347Y-128062581D01*
X186539213Y-128075938D01*
X186478175Y-128093089D01*
X186416454Y-128114404D01*
X186354273Y-128140252D01*
X186291853Y-128171003D01*
X186229416Y-128207027D01*
X186167183Y-128248692D01*
X185703244Y-128248692D01*
X185703119Y-128242078D01*
X185703267Y-128222138D01*
X185703969Y-128202183D01*
X185705092Y-128181879D01*
X185707283Y-128161690D01*
X185710523Y-128141661D01*
X185714792Y-128121840D01*
X185720070Y-128102275D01*
X185726339Y-128083012D01*
X185733577Y-128064099D01*
X185741767Y-128045582D01*
X185750887Y-128027509D01*
X185760920Y-128009927D01*
X185771844Y-127992883D01*
X185783642Y-127976424D01*
X185796292Y-127960597D01*
X185809776Y-127945450D01*
X185824074Y-127931029D01*
X185839167Y-127917381D01*
X185882393Y-127883761D01*
X185926848Y-127851854D01*
X185972461Y-127821667D01*
X186019160Y-127793205D01*
X186066875Y-127766476D01*
X186115533Y-127741485D01*
X186165064Y-127718239D01*
X186215396Y-127696745D01*
X186266458Y-127677008D01*
X186318179Y-127659034D01*
X186370487Y-127642831D01*
X186423311Y-127628405D01*
X186476580Y-127615761D01*
X186530223Y-127604907D01*
X186584167Y-127595847D01*
X186638343Y-127588590D01*
X186659976Y-127574746D01*
X186682055Y-127562139D01*
X186704562Y-127550632D01*
X186727477Y-127540087D01*
X186750781Y-127530365D01*
X186774453Y-127521329D01*
X186822825Y-127504759D01*
X186923132Y-127473769D01*
X186974753Y-127457138D01*
X187000862Y-127448055D01*
X187027144Y-127438276D01*
X187065704Y-127426824D01*
X187106040Y-127416543D01*
X187147904Y-127407459D01*
X187191051Y-127399595D01*
X187235235Y-127392973D01*
X187280210Y-127387618D01*
X187325728Y-127383553D01*
X187371546Y-127380801D01*
X187417415Y-127379386D01*
X187463090Y-127379331D01*
X187508325Y-127380660D01*
X187552874Y-127383397D01*
X187596491Y-127387564D01*
X187638929Y-127393186D01*
X187679942Y-127400285D01*
X187719285Y-127408885D01*
X187761608Y-127399139D01*
X187804845Y-127390492D01*
X187848915Y-127382971D01*
X187893735Y-127376603D01*
X187939224Y-127371417D01*
X187985300Y-127367438D01*
X188031882Y-127364696D01*
X188078888Y-127363216D01*
X188118325Y-127362968D01*
X188157952Y-127363632D01*
G37*
%TD.AperFunction*%
X195011113Y-127363216D02*
X195058119Y-127364696D01*
X195104701Y-127367438D01*
X195150778Y-127371417D01*
X195196267Y-127376603D01*
X195241087Y-127382971D01*
X195285156Y-127390492D01*
X195328393Y-127399139D01*
X195370716Y-127408885D01*
X195410059Y-127400285D01*
X195451072Y-127393186D01*
X195493510Y-127387564D01*
X195537127Y-127383397D01*
X195581676Y-127380660D01*
X195626911Y-127379331D01*
X195672586Y-127379386D01*
X195718456Y-127380801D01*
X195764273Y-127383553D01*
X195809792Y-127387618D01*
X195854766Y-127392973D01*
X195898950Y-127399595D01*
X195942097Y-127407459D01*
X195983962Y-127416543D01*
X196024297Y-127426824D01*
X196062858Y-127438276D01*
X196089139Y-127448055D01*
X196115248Y-127457138D01*
X196166869Y-127473769D01*
X196267176Y-127504759D01*
X196315548Y-127521329D01*
X196339220Y-127530365D01*
X196362524Y-127540087D01*
X196385439Y-127550632D01*
X196407946Y-127562139D01*
X196430026Y-127574746D01*
X196451658Y-127588590D01*
X196505834Y-127595847D01*
X196559779Y-127604907D01*
X196613421Y-127615761D01*
X196666690Y-127628405D01*
X196719514Y-127642831D01*
X196771822Y-127659034D01*
X196823543Y-127677008D01*
X196874605Y-127696745D01*
X196924937Y-127718239D01*
X196974468Y-127741485D01*
X197023126Y-127766476D01*
X197070841Y-127793205D01*
X197117540Y-127821667D01*
X197163153Y-127851854D01*
X197207608Y-127883761D01*
X197250834Y-127917381D01*
X197265926Y-127931029D01*
X197280225Y-127945450D01*
X197293709Y-127960597D01*
X197306359Y-127976424D01*
X197318157Y-127992883D01*
X197329081Y-128009927D01*
X197339114Y-128027509D01*
X197348234Y-128045582D01*
X197356424Y-128064099D01*
X197363662Y-128083012D01*
X197369931Y-128102275D01*
X197375209Y-128121840D01*
X197379478Y-128141661D01*
X197382718Y-128161690D01*
X197384909Y-128181879D01*
X197386032Y-128202183D01*
X197386734Y-128222138D01*
X197386882Y-128242078D01*
X197386507Y-128262002D01*
X197385642Y-128281905D01*
X197384318Y-128301786D01*
X197382567Y-128321640D01*
X197377908Y-128361256D01*
X197371920Y-128400731D01*
X197364854Y-128440038D01*
X197356964Y-128479155D01*
X197348502Y-128518055D01*
X197330725Y-128585455D01*
X197311028Y-128654675D01*
X197289048Y-128724623D01*
X197264424Y-128794208D01*
X197251007Y-128828524D01*
X197236793Y-128862339D01*
X197221737Y-128895518D01*
X197205793Y-128927925D01*
X197188916Y-128959422D01*
X197171062Y-128989873D01*
X197152183Y-129019142D01*
X197132237Y-129047093D01*
X197131787Y-129095154D01*
X197128692Y-129144548D01*
X197122984Y-129194966D01*
X197114691Y-129246095D01*
X197103845Y-129297625D01*
X197090473Y-129349247D01*
X197074607Y-129400649D01*
X197056277Y-129451521D01*
X197035512Y-129501553D01*
X197012342Y-129550433D01*
X196986798Y-129597852D01*
X196958909Y-129643498D01*
X196928705Y-129687061D01*
X196896216Y-129728232D01*
X196861472Y-129766698D01*
X196824503Y-129802150D01*
X196808146Y-129858756D01*
X196790095Y-129912739D01*
X196770461Y-129964166D01*
X196749359Y-130013103D01*
X196726902Y-130059616D01*
X196703201Y-130103771D01*
X196678371Y-130145634D01*
X196652524Y-130185272D01*
X196625774Y-130222750D01*
X196598232Y-130258134D01*
X196570013Y-130291491D01*
X196541229Y-130322887D01*
X196482418Y-130380059D01*
X196422704Y-130430180D01*
X196362990Y-130473777D01*
X196304181Y-130511379D01*
X196247180Y-130543517D01*
X196192891Y-130570717D01*
X196142219Y-130593510D01*
X196096066Y-130612424D01*
X196020935Y-130640729D01*
X195996984Y-130687768D01*
X195968907Y-130732054D01*
X195936948Y-130773645D01*
X195901356Y-130812602D01*
X195862377Y-130848984D01*
X195820256Y-130882849D01*
X195775241Y-130914256D01*
X195727578Y-130943265D01*
X195677513Y-130969935D01*
X195625293Y-130994325D01*
X195571165Y-131016494D01*
X195515374Y-131036501D01*
X195399792Y-131070267D01*
X195280519Y-131096095D01*
X195159527Y-131114457D01*
X195038788Y-131125828D01*
X194920273Y-131130681D01*
X194805954Y-131129487D01*
X194697803Y-131122720D01*
X194597792Y-131110854D01*
X194507892Y-131094360D01*
X194430076Y-131073713D01*
X194339606Y-131033734D01*
X194253691Y-130991992D01*
X194172076Y-130948414D01*
X194094508Y-130902925D01*
X194020733Y-130855452D01*
X193950495Y-130805920D01*
X193883541Y-130754255D01*
X193819617Y-130700383D01*
X193758469Y-130644230D01*
X193699842Y-130585722D01*
X193643482Y-130524785D01*
X193589135Y-130461345D01*
X193536547Y-130395327D01*
X193485463Y-130326657D01*
X193435630Y-130255262D01*
X193386793Y-130181067D01*
X193344696Y-130156022D01*
X193303611Y-130129254D01*
X193263623Y-130100812D01*
X193224815Y-130070744D01*
X193187271Y-130039101D01*
X193151077Y-130005930D01*
X193116315Y-129971281D01*
X193083071Y-129935203D01*
X193051429Y-129897745D01*
X193021472Y-129858955D01*
X192993286Y-129818883D01*
X192966953Y-129777577D01*
X192942559Y-129735087D01*
X192920188Y-129691461D01*
X192899923Y-129646749D01*
X192881850Y-129601000D01*
X192849793Y-129484754D01*
X192825734Y-129370440D01*
X192809383Y-129258188D01*
X192803122Y-129181059D01*
X193265471Y-129181059D01*
X193269791Y-129248750D01*
X193279569Y-129314932D01*
X193294936Y-129379281D01*
X193316023Y-129441467D01*
X193342962Y-129501165D01*
X193375884Y-129558048D01*
X193414920Y-129611787D01*
X193460203Y-129662057D01*
X193511862Y-129708531D01*
X193570031Y-129750880D01*
X193634840Y-129788779D01*
X193755518Y-129692491D01*
X193879153Y-129599524D01*
X194005677Y-129509804D01*
X194135025Y-129423258D01*
X194267130Y-129339815D01*
X194401926Y-129259399D01*
X194539346Y-129181940D01*
X194679325Y-129107363D01*
X194821795Y-129035597D01*
X194966690Y-128966567D01*
X195113945Y-128900200D01*
X195263492Y-128836425D01*
X195415266Y-128775168D01*
X195569199Y-128716356D01*
X195725226Y-128659917D01*
X195883281Y-128605776D01*
X195495514Y-128808595D01*
X195148597Y-129001767D01*
X194840540Y-129185820D01*
X194569356Y-129361286D01*
X194333055Y-129528693D01*
X194227365Y-129609540D01*
X194129651Y-129688571D01*
X194039663Y-129765853D01*
X193957153Y-129841451D01*
X193881873Y-129915432D01*
X193813575Y-129987862D01*
X193869599Y-130070710D01*
X193926502Y-130147413D01*
X193984195Y-130218152D01*
X194042592Y-130283109D01*
X194101607Y-130342465D01*
X194161152Y-130396402D01*
X194221140Y-130445101D01*
X194281485Y-130488745D01*
X194342099Y-130527514D01*
X194402895Y-130561590D01*
X194463788Y-130591155D01*
X194524689Y-130616390D01*
X194585512Y-130637477D01*
X194646169Y-130654598D01*
X194706575Y-130667934D01*
X194766642Y-130677667D01*
X194826283Y-130683978D01*
X194885411Y-130687048D01*
X194943939Y-130687061D01*
X195001781Y-130684196D01*
X195115057Y-130670562D01*
X195224544Y-130647599D01*
X195329545Y-130616760D01*
X195429367Y-130579498D01*
X195523312Y-130537265D01*
X195610687Y-130491513D01*
X195553623Y-130473005D01*
X195506876Y-130455406D01*
X195469924Y-130438614D01*
X195442246Y-130422525D01*
X195423317Y-130407037D01*
X195412617Y-130392047D01*
X195409623Y-130377452D01*
X195413812Y-130363150D01*
X195424662Y-130349037D01*
X195441650Y-130335011D01*
X195464254Y-130320969D01*
X195491952Y-130306809D01*
X195560540Y-130277720D01*
X195643234Y-130246922D01*
X195834223Y-130176910D01*
X195934159Y-130136051D01*
X196031485Y-130090193D01*
X196077863Y-130065132D01*
X196122021Y-130038514D01*
X196163437Y-130010234D01*
X196201588Y-129980191D01*
X196235952Y-129948282D01*
X196266006Y-129914403D01*
X196291229Y-129878452D01*
X196311097Y-129840326D01*
X196193844Y-129842808D01*
X196112973Y-129841064D01*
X196084969Y-129838474D01*
X196064607Y-129834668D01*
X196051402Y-129829593D01*
X196044869Y-129823196D01*
X196044524Y-129815425D01*
X196049882Y-129806225D01*
X196060459Y-129795545D01*
X196075770Y-129783331D01*
X196174661Y-129718077D01*
X196239910Y-129674869D01*
X196310526Y-129624042D01*
X196382631Y-129565172D01*
X196418031Y-129532588D01*
X196452350Y-129497834D01*
X196485102Y-129460857D01*
X196515804Y-129421605D01*
X196543970Y-129380024D01*
X196569117Y-129336061D01*
X196590759Y-129289663D01*
X196608411Y-129240777D01*
X196621591Y-129189351D01*
X196629811Y-129135330D01*
X196539947Y-129128286D01*
X196506202Y-129123216D01*
X196479384Y-129117034D01*
X196459094Y-129109679D01*
X196444934Y-129101093D01*
X196436506Y-129091214D01*
X196433410Y-129079983D01*
X196435249Y-129067340D01*
X196441624Y-129053225D01*
X196452136Y-129037577D01*
X196466386Y-129020337D01*
X196504510Y-128980840D01*
X196552806Y-128934253D01*
X196608087Y-128880096D01*
X196667164Y-128817888D01*
X196726850Y-128747150D01*
X196755924Y-128708432D01*
X196783956Y-128667401D01*
X196810545Y-128623998D01*
X196835293Y-128578161D01*
X196857803Y-128529832D01*
X196877675Y-128478950D01*
X196894511Y-128425455D01*
X196907912Y-128369287D01*
X196917481Y-128310386D01*
X196922817Y-128248692D01*
X196860584Y-128207027D01*
X196798147Y-128171003D01*
X196735727Y-128140252D01*
X196673546Y-128114404D01*
X196611826Y-128093089D01*
X196550788Y-128075938D01*
X196490653Y-128062581D01*
X196431644Y-128052650D01*
X196317889Y-128041586D01*
X196211295Y-128039791D01*
X196113636Y-128044309D01*
X196026683Y-128052184D01*
X195891991Y-128066189D01*
X195847797Y-128066409D01*
X195832264Y-128063530D01*
X195821403Y-128058165D01*
X195815434Y-128049947D01*
X195814580Y-128038505D01*
X195819062Y-128023469D01*
X195829102Y-128004471D01*
X195866742Y-127953110D01*
X195929273Y-127881466D01*
X195881315Y-127866651D01*
X195832886Y-127856167D01*
X195784163Y-127849659D01*
X195735323Y-127846773D01*
X195686542Y-127847154D01*
X195637999Y-127850448D01*
X195589869Y-127856300D01*
X195542329Y-127864357D01*
X195449730Y-127885662D01*
X195361617Y-127911530D01*
X195204507Y-127965604D01*
X195138342Y-127988140D01*
X195082324Y-128003894D01*
X195058562Y-128008341D01*
X195037868Y-128010028D01*
X195020419Y-128008603D01*
X195006390Y-128003709D01*
X194995960Y-127994993D01*
X194989306Y-127982099D01*
X194986603Y-127964674D01*
X194988030Y-127942363D01*
X194993762Y-127914812D01*
X195003977Y-127881665D01*
X195038565Y-127797169D01*
X195028655Y-127794167D01*
X195018724Y-127791523D01*
X195008774Y-127789230D01*
X194998810Y-127787282D01*
X194988832Y-127785675D01*
X194978846Y-127784400D01*
X194968852Y-127783454D01*
X194958854Y-127782829D01*
X194921332Y-127783214D01*
X194883818Y-127787624D01*
X194846400Y-127795697D01*
X194809167Y-127807068D01*
X194772209Y-127821375D01*
X194735613Y-127838255D01*
X194699469Y-127857344D01*
X194663866Y-127878279D01*
X194594636Y-127924237D01*
X194528636Y-127973222D01*
X194409167Y-128068657D01*
X194357119Y-128109296D01*
X194311144Y-128141342D01*
X194290656Y-128153236D01*
X194271953Y-128161892D01*
X194255123Y-128166947D01*
X194240256Y-128168039D01*
X194227440Y-128164804D01*
X194216765Y-128156879D01*
X194208319Y-128143901D01*
X194202190Y-128125506D01*
X194198469Y-128101332D01*
X194197243Y-128071016D01*
X194198602Y-128034194D01*
X194202634Y-127990504D01*
X194122709Y-128014307D01*
X194045482Y-128043470D01*
X193971084Y-128077667D01*
X193899646Y-128116570D01*
X193831299Y-128159852D01*
X193766176Y-128207186D01*
X193704407Y-128258245D01*
X193646124Y-128312702D01*
X193591459Y-128370230D01*
X193540542Y-128430502D01*
X193493506Y-128493190D01*
X193450481Y-128557969D01*
X193411600Y-128624510D01*
X193376993Y-128692488D01*
X193346792Y-128761574D01*
X193321128Y-128831441D01*
X193300133Y-128901764D01*
X193283939Y-128972214D01*
X193272676Y-129042464D01*
X193266476Y-129112189D01*
X193265471Y-129181059D01*
X192803122Y-129181059D01*
X192800449Y-129148126D01*
X192798642Y-129040382D01*
X192803673Y-128935085D01*
X192815251Y-128832364D01*
X192833086Y-128732346D01*
X192856887Y-128635161D01*
X192886365Y-128540938D01*
X192921229Y-128449804D01*
X192961189Y-128361889D01*
X193005956Y-128277321D01*
X193055238Y-128196229D01*
X193108747Y-128118741D01*
X193166190Y-128044985D01*
X193227280Y-127975091D01*
X193291724Y-127909187D01*
X193359234Y-127847402D01*
X193429518Y-127789863D01*
X193502288Y-127736700D01*
X193577252Y-127688042D01*
X193654120Y-127644017D01*
X193732603Y-127604753D01*
X193812410Y-127570379D01*
X193893251Y-127541024D01*
X193974835Y-127516816D01*
X194056874Y-127497884D01*
X194139076Y-127484356D01*
X194221151Y-127476362D01*
X194302810Y-127474029D01*
X194383761Y-127477486D01*
X194421089Y-127462403D01*
X194458888Y-127448453D01*
X194497112Y-127435619D01*
X194535712Y-127423886D01*
X194574642Y-127413238D01*
X194613855Y-127403659D01*
X194653302Y-127395133D01*
X194692938Y-127387646D01*
X194732714Y-127381180D01*
X194772584Y-127375721D01*
X194812499Y-127371252D01*
X194852414Y-127367758D01*
X194892280Y-127365223D01*
X194932050Y-127363632D01*
X194971677Y-127362968D01*
X195011113Y-127363216D01*
%TA.AperFunction,EtchedComponent*%
G36*
X195011113Y-127363216D02*
G01*
X195058119Y-127364696D01*
X195104701Y-127367438D01*
X195150778Y-127371417D01*
X195196267Y-127376603D01*
X195241087Y-127382971D01*
X195285156Y-127390492D01*
X195328393Y-127399139D01*
X195370716Y-127408885D01*
X195410059Y-127400285D01*
X195451072Y-127393186D01*
X195493510Y-127387564D01*
X195537127Y-127383397D01*
X195581676Y-127380660D01*
X195626911Y-127379331D01*
X195672586Y-127379386D01*
X195718456Y-127380801D01*
X195764273Y-127383553D01*
X195809792Y-127387618D01*
X195854766Y-127392973D01*
X195898950Y-127399595D01*
X195942097Y-127407459D01*
X195983962Y-127416543D01*
X196024297Y-127426824D01*
X196062858Y-127438276D01*
X196089139Y-127448055D01*
X196115248Y-127457138D01*
X196166869Y-127473769D01*
X196267176Y-127504759D01*
X196315548Y-127521329D01*
X196339220Y-127530365D01*
X196362524Y-127540087D01*
X196385439Y-127550632D01*
X196407946Y-127562139D01*
X196430026Y-127574746D01*
X196451658Y-127588590D01*
X196505834Y-127595847D01*
X196559779Y-127604907D01*
X196613421Y-127615761D01*
X196666690Y-127628405D01*
X196719514Y-127642831D01*
X196771822Y-127659034D01*
X196823543Y-127677008D01*
X196874605Y-127696745D01*
X196924937Y-127718239D01*
X196974468Y-127741485D01*
X197023126Y-127766476D01*
X197070841Y-127793205D01*
X197117540Y-127821667D01*
X197163153Y-127851854D01*
X197207608Y-127883761D01*
X197250834Y-127917381D01*
X197265926Y-127931029D01*
X197280225Y-127945450D01*
X197293709Y-127960597D01*
X197306359Y-127976424D01*
X197318157Y-127992883D01*
X197329081Y-128009927D01*
X197339114Y-128027509D01*
X197348234Y-128045582D01*
X197356424Y-128064099D01*
X197363662Y-128083012D01*
X197369931Y-128102275D01*
X197375209Y-128121840D01*
X197379478Y-128141661D01*
X197382718Y-128161690D01*
X197384909Y-128181879D01*
X197386032Y-128202183D01*
X197386734Y-128222138D01*
X197386882Y-128242078D01*
X197386507Y-128262002D01*
X197385642Y-128281905D01*
X197384318Y-128301786D01*
X197382567Y-128321640D01*
X197377908Y-128361256D01*
X197371920Y-128400731D01*
X197364854Y-128440038D01*
X197356964Y-128479155D01*
X197348502Y-128518055D01*
X197330725Y-128585455D01*
X197311028Y-128654675D01*
X197289048Y-128724623D01*
X197264424Y-128794208D01*
X197251007Y-128828524D01*
X197236793Y-128862339D01*
X197221737Y-128895518D01*
X197205793Y-128927925D01*
X197188916Y-128959422D01*
X197171062Y-128989873D01*
X197152183Y-129019142D01*
X197132237Y-129047093D01*
X197131787Y-129095154D01*
X197128692Y-129144548D01*
X197122984Y-129194966D01*
X197114691Y-129246095D01*
X197103845Y-129297625D01*
X197090473Y-129349247D01*
X197074607Y-129400649D01*
X197056277Y-129451521D01*
X197035512Y-129501553D01*
X197012342Y-129550433D01*
X196986798Y-129597852D01*
X196958909Y-129643498D01*
X196928705Y-129687061D01*
X196896216Y-129728232D01*
X196861472Y-129766698D01*
X196824503Y-129802150D01*
X196808146Y-129858756D01*
X196790095Y-129912739D01*
X196770461Y-129964166D01*
X196749359Y-130013103D01*
X196726902Y-130059616D01*
X196703201Y-130103771D01*
X196678371Y-130145634D01*
X196652524Y-130185272D01*
X196625774Y-130222750D01*
X196598232Y-130258134D01*
X196570013Y-130291491D01*
X196541229Y-130322887D01*
X196482418Y-130380059D01*
X196422704Y-130430180D01*
X196362990Y-130473777D01*
X196304181Y-130511379D01*
X196247180Y-130543517D01*
X196192891Y-130570717D01*
X196142219Y-130593510D01*
X196096066Y-130612424D01*
X196020935Y-130640729D01*
X195996984Y-130687768D01*
X195968907Y-130732054D01*
X195936948Y-130773645D01*
X195901356Y-130812602D01*
X195862377Y-130848984D01*
X195820256Y-130882849D01*
X195775241Y-130914256D01*
X195727578Y-130943265D01*
X195677513Y-130969935D01*
X195625293Y-130994325D01*
X195571165Y-131016494D01*
X195515374Y-131036501D01*
X195399792Y-131070267D01*
X195280519Y-131096095D01*
X195159527Y-131114457D01*
X195038788Y-131125828D01*
X194920273Y-131130681D01*
X194805954Y-131129487D01*
X194697803Y-131122720D01*
X194597792Y-131110854D01*
X194507892Y-131094360D01*
X194430076Y-131073713D01*
X194339606Y-131033734D01*
X194253691Y-130991992D01*
X194172076Y-130948414D01*
X194094508Y-130902925D01*
X194020733Y-130855452D01*
X193950495Y-130805920D01*
X193883541Y-130754255D01*
X193819617Y-130700383D01*
X193758469Y-130644230D01*
X193699842Y-130585722D01*
X193643482Y-130524785D01*
X193589135Y-130461345D01*
X193536547Y-130395327D01*
X193485463Y-130326657D01*
X193435630Y-130255262D01*
X193386793Y-130181067D01*
X193344696Y-130156022D01*
X193303611Y-130129254D01*
X193263623Y-130100812D01*
X193224815Y-130070744D01*
X193187271Y-130039101D01*
X193151077Y-130005930D01*
X193116315Y-129971281D01*
X193083071Y-129935203D01*
X193051429Y-129897745D01*
X193021472Y-129858955D01*
X192993286Y-129818883D01*
X192966953Y-129777577D01*
X192942559Y-129735087D01*
X192920188Y-129691461D01*
X192899923Y-129646749D01*
X192881850Y-129601000D01*
X192849793Y-129484754D01*
X192825734Y-129370440D01*
X192809383Y-129258188D01*
X192803122Y-129181059D01*
X193265471Y-129181059D01*
X193269791Y-129248750D01*
X193279569Y-129314932D01*
X193294936Y-129379281D01*
X193316023Y-129441467D01*
X193342962Y-129501165D01*
X193375884Y-129558048D01*
X193414920Y-129611787D01*
X193460203Y-129662057D01*
X193511862Y-129708531D01*
X193570031Y-129750880D01*
X193634840Y-129788779D01*
X193755518Y-129692491D01*
X193879153Y-129599524D01*
X194005677Y-129509804D01*
X194135025Y-129423258D01*
X194267130Y-129339815D01*
X194401926Y-129259399D01*
X194539346Y-129181940D01*
X194679325Y-129107363D01*
X194821795Y-129035597D01*
X194966690Y-128966567D01*
X195113945Y-128900200D01*
X195263492Y-128836425D01*
X195415266Y-128775168D01*
X195569199Y-128716356D01*
X195725226Y-128659917D01*
X195883281Y-128605776D01*
X195495514Y-128808595D01*
X195148597Y-129001767D01*
X194840540Y-129185820D01*
X194569356Y-129361286D01*
X194333055Y-129528693D01*
X194227365Y-129609540D01*
X194129651Y-129688571D01*
X194039663Y-129765853D01*
X193957153Y-129841451D01*
X193881873Y-129915432D01*
X193813575Y-129987862D01*
X193869599Y-130070710D01*
X193926502Y-130147413D01*
X193984195Y-130218152D01*
X194042592Y-130283109D01*
X194101607Y-130342465D01*
X194161152Y-130396402D01*
X194221140Y-130445101D01*
X194281485Y-130488745D01*
X194342099Y-130527514D01*
X194402895Y-130561590D01*
X194463788Y-130591155D01*
X194524689Y-130616390D01*
X194585512Y-130637477D01*
X194646169Y-130654598D01*
X194706575Y-130667934D01*
X194766642Y-130677667D01*
X194826283Y-130683978D01*
X194885411Y-130687048D01*
X194943939Y-130687061D01*
X195001781Y-130684196D01*
X195115057Y-130670562D01*
X195224544Y-130647599D01*
X195329545Y-130616760D01*
X195429367Y-130579498D01*
X195523312Y-130537265D01*
X195610687Y-130491513D01*
X195553623Y-130473005D01*
X195506876Y-130455406D01*
X195469924Y-130438614D01*
X195442246Y-130422525D01*
X195423317Y-130407037D01*
X195412617Y-130392047D01*
X195409623Y-130377452D01*
X195413812Y-130363150D01*
X195424662Y-130349037D01*
X195441650Y-130335011D01*
X195464254Y-130320969D01*
X195491952Y-130306809D01*
X195560540Y-130277720D01*
X195643234Y-130246922D01*
X195834223Y-130176910D01*
X195934159Y-130136051D01*
X196031485Y-130090193D01*
X196077863Y-130065132D01*
X196122021Y-130038514D01*
X196163437Y-130010234D01*
X196201588Y-129980191D01*
X196235952Y-129948282D01*
X196266006Y-129914403D01*
X196291229Y-129878452D01*
X196311097Y-129840326D01*
X196193844Y-129842808D01*
X196112973Y-129841064D01*
X196084969Y-129838474D01*
X196064607Y-129834668D01*
X196051402Y-129829593D01*
X196044869Y-129823196D01*
X196044524Y-129815425D01*
X196049882Y-129806225D01*
X196060459Y-129795545D01*
X196075770Y-129783331D01*
X196174661Y-129718077D01*
X196239910Y-129674869D01*
X196310526Y-129624042D01*
X196382631Y-129565172D01*
X196418031Y-129532588D01*
X196452350Y-129497834D01*
X196485102Y-129460857D01*
X196515804Y-129421605D01*
X196543970Y-129380024D01*
X196569117Y-129336061D01*
X196590759Y-129289663D01*
X196608411Y-129240777D01*
X196621591Y-129189351D01*
X196629811Y-129135330D01*
X196539947Y-129128286D01*
X196506202Y-129123216D01*
X196479384Y-129117034D01*
X196459094Y-129109679D01*
X196444934Y-129101093D01*
X196436506Y-129091214D01*
X196433410Y-129079983D01*
X196435249Y-129067340D01*
X196441624Y-129053225D01*
X196452136Y-129037577D01*
X196466386Y-129020337D01*
X196504510Y-128980840D01*
X196552806Y-128934253D01*
X196608087Y-128880096D01*
X196667164Y-128817888D01*
X196726850Y-128747150D01*
X196755924Y-128708432D01*
X196783956Y-128667401D01*
X196810545Y-128623998D01*
X196835293Y-128578161D01*
X196857803Y-128529832D01*
X196877675Y-128478950D01*
X196894511Y-128425455D01*
X196907912Y-128369287D01*
X196917481Y-128310386D01*
X196922817Y-128248692D01*
X196860584Y-128207027D01*
X196798147Y-128171003D01*
X196735727Y-128140252D01*
X196673546Y-128114404D01*
X196611826Y-128093089D01*
X196550788Y-128075938D01*
X196490653Y-128062581D01*
X196431644Y-128052650D01*
X196317889Y-128041586D01*
X196211295Y-128039791D01*
X196113636Y-128044309D01*
X196026683Y-128052184D01*
X195891991Y-128066189D01*
X195847797Y-128066409D01*
X195832264Y-128063530D01*
X195821403Y-128058165D01*
X195815434Y-128049947D01*
X195814580Y-128038505D01*
X195819062Y-128023469D01*
X195829102Y-128004471D01*
X195866742Y-127953110D01*
X195929273Y-127881466D01*
X195881315Y-127866651D01*
X195832886Y-127856167D01*
X195784163Y-127849659D01*
X195735323Y-127846773D01*
X195686542Y-127847154D01*
X195637999Y-127850448D01*
X195589869Y-127856300D01*
X195542329Y-127864357D01*
X195449730Y-127885662D01*
X195361617Y-127911530D01*
X195204507Y-127965604D01*
X195138342Y-127988140D01*
X195082324Y-128003894D01*
X195058562Y-128008341D01*
X195037868Y-128010028D01*
X195020419Y-128008603D01*
X195006390Y-128003709D01*
X194995960Y-127994993D01*
X194989306Y-127982099D01*
X194986603Y-127964674D01*
X194988030Y-127942363D01*
X194993762Y-127914812D01*
X195003977Y-127881665D01*
X195038565Y-127797169D01*
X195028655Y-127794167D01*
X195018724Y-127791523D01*
X195008774Y-127789230D01*
X194998810Y-127787282D01*
X194988832Y-127785675D01*
X194978846Y-127784400D01*
X194968852Y-127783454D01*
X194958854Y-127782829D01*
X194921332Y-127783214D01*
X194883818Y-127787624D01*
X194846400Y-127795697D01*
X194809167Y-127807068D01*
X194772209Y-127821375D01*
X194735613Y-127838255D01*
X194699469Y-127857344D01*
X194663866Y-127878279D01*
X194594636Y-127924237D01*
X194528636Y-127973222D01*
X194409167Y-128068657D01*
X194357119Y-128109296D01*
X194311144Y-128141342D01*
X194290656Y-128153236D01*
X194271953Y-128161892D01*
X194255123Y-128166947D01*
X194240256Y-128168039D01*
X194227440Y-128164804D01*
X194216765Y-128156879D01*
X194208319Y-128143901D01*
X194202190Y-128125506D01*
X194198469Y-128101332D01*
X194197243Y-128071016D01*
X194198602Y-128034194D01*
X194202634Y-127990504D01*
X194122709Y-128014307D01*
X194045482Y-128043470D01*
X193971084Y-128077667D01*
X193899646Y-128116570D01*
X193831299Y-128159852D01*
X193766176Y-128207186D01*
X193704407Y-128258245D01*
X193646124Y-128312702D01*
X193591459Y-128370230D01*
X193540542Y-128430502D01*
X193493506Y-128493190D01*
X193450481Y-128557969D01*
X193411600Y-128624510D01*
X193376993Y-128692488D01*
X193346792Y-128761574D01*
X193321128Y-128831441D01*
X193300133Y-128901764D01*
X193283939Y-128972214D01*
X193272676Y-129042464D01*
X193266476Y-129112189D01*
X193265471Y-129181059D01*
X192803122Y-129181059D01*
X192800449Y-129148126D01*
X192798642Y-129040382D01*
X192803673Y-128935085D01*
X192815251Y-128832364D01*
X192833086Y-128732346D01*
X192856887Y-128635161D01*
X192886365Y-128540938D01*
X192921229Y-128449804D01*
X192961189Y-128361889D01*
X193005956Y-128277321D01*
X193055238Y-128196229D01*
X193108747Y-128118741D01*
X193166190Y-128044985D01*
X193227280Y-127975091D01*
X193291724Y-127909187D01*
X193359234Y-127847402D01*
X193429518Y-127789863D01*
X193502288Y-127736700D01*
X193577252Y-127688042D01*
X193654120Y-127644017D01*
X193732603Y-127604753D01*
X193812410Y-127570379D01*
X193893251Y-127541024D01*
X193974835Y-127516816D01*
X194056874Y-127497884D01*
X194139076Y-127484356D01*
X194221151Y-127476362D01*
X194302810Y-127474029D01*
X194383761Y-127477486D01*
X194421089Y-127462403D01*
X194458888Y-127448453D01*
X194497112Y-127435619D01*
X194535712Y-127423886D01*
X194574642Y-127413238D01*
X194613855Y-127403659D01*
X194653302Y-127395133D01*
X194692938Y-127387646D01*
X194732714Y-127381180D01*
X194772584Y-127375721D01*
X194812499Y-127371252D01*
X194852414Y-127367758D01*
X194892280Y-127365223D01*
X194932050Y-127363632D01*
X194971677Y-127362968D01*
X195011113Y-127363216D01*
G37*
%TD.AperFunction*%
%TA.AperFunction,EtchedComponent*%
G36*
X191497644Y-129813707D02*
G01*
X191725033Y-129829699D01*
X191941063Y-129855821D01*
X192146394Y-129892433D01*
X192245253Y-129914785D01*
X192341686Y-129939896D01*
X192435773Y-129967809D01*
X192527599Y-129998570D01*
X192617245Y-130032224D01*
X192704795Y-130068816D01*
X192790330Y-130108392D01*
X192873933Y-130150995D01*
X192955687Y-130196673D01*
X193035674Y-130245468D01*
X193113978Y-130297428D01*
X193190679Y-130352596D01*
X193265862Y-130411018D01*
X193339608Y-130472739D01*
X193412000Y-130537804D01*
X193483121Y-130606258D01*
X193621880Y-130753513D01*
X193756544Y-130914867D01*
X193887773Y-131090678D01*
X194016230Y-131281308D01*
X194142572Y-131487119D01*
X194257463Y-131603167D01*
X194366280Y-131724661D01*
X194468546Y-131851405D01*
X194563780Y-131983201D01*
X194651505Y-132119854D01*
X194731239Y-132261169D01*
X194802505Y-132406949D01*
X194864823Y-132556997D01*
X194917714Y-132711119D01*
X194960698Y-132869118D01*
X194993297Y-133030798D01*
X195015031Y-133195963D01*
X195025421Y-133364417D01*
X195023988Y-133535964D01*
X195010252Y-133710409D01*
X194983735Y-133887554D01*
X194965639Y-133975108D01*
X194944542Y-134059377D01*
X194920633Y-134140417D01*
X194894098Y-134218285D01*
X194865126Y-134293037D01*
X194833903Y-134364728D01*
X194800617Y-134433416D01*
X194765457Y-134499157D01*
X194728608Y-134562005D01*
X194690260Y-134622019D01*
X194650598Y-134679253D01*
X194609811Y-134733765D01*
X194568087Y-134785610D01*
X194525612Y-134834845D01*
X194482575Y-134881525D01*
X194439162Y-134925708D01*
X194351962Y-135006804D01*
X194265510Y-135078582D01*
X194181307Y-135141491D01*
X194100853Y-135195983D01*
X194025649Y-135242506D01*
X193957194Y-135281509D01*
X193846531Y-135338757D01*
X193793929Y-135411839D01*
X193739245Y-135482001D01*
X193624014Y-135613713D01*
X193501604Y-135734200D01*
X193372779Y-135843768D01*
X193238305Y-135942722D01*
X193098944Y-136031370D01*
X192955463Y-136110018D01*
X192808626Y-136178970D01*
X192659197Y-136238535D01*
X192507942Y-136289018D01*
X192355624Y-136330725D01*
X192203010Y-136363963D01*
X192050863Y-136389037D01*
X191899948Y-136406254D01*
X191751029Y-136415921D01*
X191604872Y-136418342D01*
X191450782Y-136415022D01*
X191293604Y-136404569D01*
X191134162Y-136386670D01*
X190973279Y-136361012D01*
X190811777Y-136327279D01*
X190650479Y-136285160D01*
X190490208Y-136234340D01*
X190331786Y-136174505D01*
X190176035Y-136105341D01*
X190023779Y-136026536D01*
X189875840Y-135937775D01*
X189733041Y-135838744D01*
X189596204Y-135729131D01*
X189530278Y-135670257D01*
X189466152Y-135608620D01*
X189403928Y-135544180D01*
X189343708Y-135476899D01*
X189285596Y-135406737D01*
X189229694Y-135333654D01*
X189112088Y-135276403D01*
X189039336Y-135237396D01*
X188959411Y-135190870D01*
X188873908Y-135136373D01*
X188784420Y-135073458D01*
X188692541Y-135001674D01*
X188608273Y-134927929D01*
X189819129Y-134927929D01*
X189821923Y-134979777D01*
X189830165Y-135031686D01*
X189843644Y-135083541D01*
X189862150Y-135135229D01*
X189885472Y-135186636D01*
X189913399Y-135237648D01*
X189945719Y-135288152D01*
X189982224Y-135338033D01*
X190066939Y-135435472D01*
X190165860Y-135529055D01*
X190277299Y-135617870D01*
X190399572Y-135701008D01*
X190530990Y-135777557D01*
X190669870Y-135846607D01*
X190814524Y-135907246D01*
X190963267Y-135958564D01*
X191114413Y-135999650D01*
X191266275Y-136029593D01*
X191417167Y-136047483D01*
X191565404Y-136052409D01*
X191647458Y-136052302D01*
X191729187Y-136048379D01*
X191810443Y-136040814D01*
X191891075Y-136029781D01*
X191970934Y-136015457D01*
X192049872Y-135998016D01*
X192127737Y-135977634D01*
X192204381Y-135954484D01*
X192279654Y-135928742D01*
X192353406Y-135900584D01*
X192425488Y-135870184D01*
X192495750Y-135837716D01*
X192564043Y-135803357D01*
X192630217Y-135767282D01*
X192694122Y-135729664D01*
X192755609Y-135690680D01*
X192814529Y-135650504D01*
X192870731Y-135609311D01*
X192924066Y-135567276D01*
X192974385Y-135524575D01*
X193021539Y-135481381D01*
X193065376Y-135437872D01*
X193105749Y-135394220D01*
X193142506Y-135350602D01*
X193175500Y-135307191D01*
X193204579Y-135264165D01*
X193229596Y-135221696D01*
X193250399Y-135179961D01*
X193266840Y-135139134D01*
X193278768Y-135099391D01*
X193286035Y-135060905D01*
X193288490Y-135023854D01*
X193286757Y-134979811D01*
X193280982Y-134935796D01*
X193271230Y-134891898D01*
X193257568Y-134848203D01*
X193240061Y-134804799D01*
X193218777Y-134761772D01*
X193165137Y-134677200D01*
X193097175Y-134595186D01*
X193015421Y-134516426D01*
X192920402Y-134441620D01*
X192812647Y-134371464D01*
X192692683Y-134306657D01*
X192561038Y-134247897D01*
X192418242Y-134195880D01*
X192264821Y-134151305D01*
X192101304Y-134114870D01*
X191928218Y-134087272D01*
X191746093Y-134069209D01*
X191555457Y-134061380D01*
X191457371Y-134061913D01*
X191361585Y-134064717D01*
X191268153Y-134069734D01*
X191177127Y-134076910D01*
X191088560Y-134086189D01*
X191002504Y-134097515D01*
X190919012Y-134110832D01*
X190838137Y-134126085D01*
X190759931Y-134143218D01*
X190684447Y-134162174D01*
X190611738Y-134182899D01*
X190541856Y-134205337D01*
X190474855Y-134229432D01*
X190410786Y-134255128D01*
X190349703Y-134282369D01*
X190291658Y-134311100D01*
X190236704Y-134341265D01*
X190184894Y-134372809D01*
X190136280Y-134405675D01*
X190090915Y-134439807D01*
X190048851Y-134475151D01*
X190010142Y-134511651D01*
X189974840Y-134549250D01*
X189942997Y-134587892D01*
X189914667Y-134627523D01*
X189889902Y-134668087D01*
X189868755Y-134709527D01*
X189851278Y-134751789D01*
X189837524Y-134794815D01*
X189827546Y-134838551D01*
X189821397Y-134882941D01*
X189819129Y-134927929D01*
X188608273Y-134927929D01*
X188599866Y-134920572D01*
X188507990Y-134829703D01*
X188418505Y-134728618D01*
X188333007Y-134616866D01*
X188292251Y-134556850D01*
X188253090Y-134493999D01*
X188215722Y-134428256D01*
X188180347Y-134359566D01*
X188147165Y-134287873D01*
X188116374Y-134213120D01*
X188088174Y-134135251D01*
X188062764Y-134054209D01*
X188040344Y-133969940D01*
X188021112Y-133882386D01*
X188004977Y-133794000D01*
X187991697Y-133707247D01*
X187981249Y-133622085D01*
X187978029Y-133586835D01*
X188346617Y-133586835D01*
X188350929Y-133683668D01*
X188356473Y-133733358D01*
X188364439Y-133783833D01*
X188374949Y-133835045D01*
X188388124Y-133886944D01*
X188404087Y-133939484D01*
X188422959Y-133992615D01*
X188444864Y-134046290D01*
X188469923Y-134100460D01*
X188499996Y-134146011D01*
X188530860Y-134189157D01*
X188562450Y-134229928D01*
X188594698Y-134268355D01*
X188627536Y-134304468D01*
X188660899Y-134338297D01*
X188694718Y-134369873D01*
X188728927Y-134399224D01*
X188763459Y-134426383D01*
X188798246Y-134451379D01*
X188833222Y-134474241D01*
X188868320Y-134495001D01*
X188903472Y-134513689D01*
X188938611Y-134530334D01*
X188973671Y-134544968D01*
X189008584Y-134557619D01*
X189043283Y-134568319D01*
X189077702Y-134577097D01*
X189111773Y-134583985D01*
X189145429Y-134589011D01*
X189178603Y-134592206D01*
X189211228Y-134593601D01*
X189243237Y-134593226D01*
X189274563Y-134591110D01*
X189305139Y-134587284D01*
X189334898Y-134581779D01*
X189363772Y-134574624D01*
X189391696Y-134565850D01*
X189418601Y-134555486D01*
X189444420Y-134543564D01*
X189469087Y-134530113D01*
X189492535Y-134515163D01*
X189516137Y-134492486D01*
X189538488Y-134466155D01*
X189559560Y-134436373D01*
X189579326Y-134403346D01*
X189614828Y-134328365D01*
X189644777Y-134242844D01*
X189668954Y-134148410D01*
X189687139Y-134046693D01*
X189699115Y-133939324D01*
X189704663Y-133827931D01*
X189703996Y-133759008D01*
X193284165Y-133759008D01*
X193289713Y-133870401D01*
X193301688Y-133977771D01*
X193319874Y-134079487D01*
X193344051Y-134173921D01*
X193374000Y-134259443D01*
X193391071Y-134298352D01*
X193409503Y-134334423D01*
X193429268Y-134367451D01*
X193450340Y-134397232D01*
X193472691Y-134423563D01*
X193496294Y-134446240D01*
X193519742Y-134461190D01*
X193544409Y-134474641D01*
X193570228Y-134486563D01*
X193597133Y-134496927D01*
X193625056Y-134505701D01*
X193653931Y-134512856D01*
X193683690Y-134518361D01*
X193714266Y-134522187D01*
X193745592Y-134524303D01*
X193777601Y-134524678D01*
X193810226Y-134523283D01*
X193843400Y-134520088D01*
X193877056Y-134515062D01*
X193911127Y-134508174D01*
X193945545Y-134499396D01*
X193980245Y-134488696D01*
X194015158Y-134476044D01*
X194050218Y-134461411D01*
X194085357Y-134444766D01*
X194120509Y-134426078D01*
X194155607Y-134405318D01*
X194190583Y-134382455D01*
X194225370Y-134357460D01*
X194259902Y-134330301D01*
X194294111Y-134300949D01*
X194327930Y-134269374D01*
X194361292Y-134235545D01*
X194394131Y-134199432D01*
X194426379Y-134161005D01*
X194457968Y-134120233D01*
X194488833Y-134077087D01*
X194518906Y-134031537D01*
X194544159Y-133977208D01*
X194566620Y-133923068D01*
X194586372Y-133869180D01*
X194603495Y-133815606D01*
X194618071Y-133762411D01*
X194630183Y-133709657D01*
X194639912Y-133657409D01*
X194647340Y-133605729D01*
X194652550Y-133554681D01*
X194655622Y-133504328D01*
X194656639Y-133454734D01*
X194655682Y-133405962D01*
X194652834Y-133358075D01*
X194648176Y-133311137D01*
X194641790Y-133265211D01*
X194633758Y-133220361D01*
X194624162Y-133176649D01*
X194613083Y-133134140D01*
X194600605Y-133092896D01*
X194586807Y-133052982D01*
X194571773Y-133014459D01*
X194555584Y-132977393D01*
X194538321Y-132941846D01*
X194520068Y-132907881D01*
X194500905Y-132875562D01*
X194480915Y-132844952D01*
X194460179Y-132816116D01*
X194438779Y-132789115D01*
X194416798Y-132764013D01*
X194394316Y-132740875D01*
X194371416Y-132719762D01*
X194348180Y-132700739D01*
X194327731Y-132685325D01*
X194307285Y-132670541D01*
X194286828Y-132656437D01*
X194266346Y-132643061D01*
X194245825Y-132630464D01*
X194225250Y-132618695D01*
X194204609Y-132607804D01*
X194183887Y-132597841D01*
X194163069Y-132588854D01*
X194142143Y-132580894D01*
X194121093Y-132574010D01*
X194099907Y-132568251D01*
X194078569Y-132563668D01*
X194057067Y-132560310D01*
X194035385Y-132558226D01*
X194013511Y-132557466D01*
X194013512Y-132557467D01*
X193985081Y-132558516D01*
X193956279Y-132561942D01*
X193927076Y-132567851D01*
X193897441Y-132576347D01*
X193867347Y-132587537D01*
X193836762Y-132601526D01*
X193805658Y-132618419D01*
X193774004Y-132638322D01*
X193741772Y-132661340D01*
X193708931Y-132687579D01*
X193675453Y-132717144D01*
X193641307Y-132750141D01*
X193606465Y-132786675D01*
X193570895Y-132826852D01*
X193534570Y-132870777D01*
X193497459Y-132918556D01*
X193469545Y-132959787D01*
X193443704Y-133003475D01*
X193419907Y-133049416D01*
X193398128Y-133097407D01*
X193378338Y-133147244D01*
X193360511Y-133198722D01*
X193330635Y-133305790D01*
X193308281Y-133416983D01*
X193293231Y-133530669D01*
X193285265Y-133645221D01*
X193284165Y-133759008D01*
X189703996Y-133759008D01*
X189703563Y-133714144D01*
X189695597Y-133599592D01*
X189680547Y-133485906D01*
X189658193Y-133374713D01*
X189628317Y-133267645D01*
X189590701Y-133166330D01*
X189568921Y-133118339D01*
X189545125Y-133072398D01*
X189519284Y-133028710D01*
X189491371Y-132987479D01*
X189458070Y-132945131D01*
X189424881Y-132906434D01*
X189391832Y-132871271D01*
X189358952Y-132839520D01*
X189326272Y-132811064D01*
X189293820Y-132785782D01*
X189261627Y-132763557D01*
X189229721Y-132744268D01*
X189198132Y-132727796D01*
X189166890Y-132714022D01*
X189136024Y-132702827D01*
X189105563Y-132694091D01*
X189075537Y-132687696D01*
X189045976Y-132683522D01*
X189016909Y-132681450D01*
X188988365Y-132681361D01*
X188988367Y-132681360D01*
X188974301Y-132682022D01*
X188960376Y-132683134D01*
X188946597Y-132684682D01*
X188932967Y-132686652D01*
X188906169Y-132691794D01*
X188880012Y-132698440D01*
X188854525Y-132706472D01*
X188829739Y-132715770D01*
X188805682Y-132726214D01*
X188782385Y-132737685D01*
X188759876Y-132750064D01*
X188738186Y-132763230D01*
X188717344Y-132777065D01*
X188697380Y-132791449D01*
X188678323Y-132806262D01*
X188660202Y-132821386D01*
X188643048Y-132836700D01*
X188626890Y-132852086D01*
X188594491Y-132886768D01*
X188560546Y-132929032D01*
X188526031Y-132978491D01*
X188491923Y-133034759D01*
X188459199Y-133097449D01*
X188428836Y-133166176D01*
X188401811Y-133240553D01*
X188379099Y-133320194D01*
X188361679Y-133404712D01*
X188350526Y-133493721D01*
X188346617Y-133586835D01*
X187978029Y-133586835D01*
X187973611Y-133538474D01*
X187968757Y-133456372D01*
X187966666Y-133375738D01*
X187967313Y-133296532D01*
X187970676Y-133218713D01*
X187976730Y-133142239D01*
X187985453Y-133067070D01*
X187996821Y-132993165D01*
X188010811Y-132920483D01*
X188027398Y-132848983D01*
X188046561Y-132778624D01*
X188068275Y-132709365D01*
X188092517Y-132641165D01*
X188119264Y-132573984D01*
X188148492Y-132507779D01*
X188180177Y-132442512D01*
X188214297Y-132378139D01*
X188289748Y-132251918D01*
X188374655Y-132128787D01*
X188419918Y-132070935D01*
X189651574Y-132070935D01*
X189655968Y-132161517D01*
X189665873Y-132250191D01*
X189681126Y-132336875D01*
X189701566Y-132421485D01*
X189727031Y-132503938D01*
X189757359Y-132584151D01*
X189792388Y-132662041D01*
X189831956Y-132737525D01*
X189875902Y-132810520D01*
X189924063Y-132880942D01*
X189976278Y-132948709D01*
X190032384Y-133013738D01*
X190092220Y-133075944D01*
X190155625Y-133135246D01*
X190222435Y-133191561D01*
X190292489Y-133244804D01*
X190365625Y-133294893D01*
X190441682Y-133341745D01*
X190520497Y-133385277D01*
X190601909Y-133425405D01*
X190685756Y-133462048D01*
X190771875Y-133495120D01*
X190860105Y-133524540D01*
X190950284Y-133550224D01*
X191042251Y-133572090D01*
X191135842Y-133590053D01*
X191230897Y-133604032D01*
X191327254Y-133613942D01*
X191424750Y-133619701D01*
X191523223Y-133621226D01*
X191621288Y-133618062D01*
X191717601Y-133609923D01*
X191812071Y-133596981D01*
X191904605Y-133579407D01*
X191995109Y-133557369D01*
X192083491Y-133531040D01*
X192169658Y-133500590D01*
X192253518Y-133466189D01*
X192334976Y-133428008D01*
X192413941Y-133386217D01*
X192490320Y-133340988D01*
X192564019Y-133292490D01*
X192634946Y-133240895D01*
X192703009Y-133186373D01*
X192768113Y-133129094D01*
X192830166Y-133069229D01*
X192889076Y-133006949D01*
X192944750Y-132942424D01*
X192997094Y-132875825D01*
X193046016Y-132807323D01*
X193091423Y-132737087D01*
X193133222Y-132665290D01*
X193171321Y-132592100D01*
X193205626Y-132517690D01*
X193236044Y-132442229D01*
X193262483Y-132365888D01*
X193284850Y-132288837D01*
X193303052Y-132211248D01*
X193316995Y-132133290D01*
X193326588Y-132055135D01*
X193331738Y-131976953D01*
X193332351Y-131898915D01*
X193328319Y-131821357D01*
X193319678Y-131744579D01*
X193306551Y-131668691D01*
X193289059Y-131593804D01*
X193267325Y-131520030D01*
X193241472Y-131447481D01*
X193211621Y-131376266D01*
X193177895Y-131306497D01*
X193140416Y-131238286D01*
X193099307Y-131171744D01*
X193054690Y-131106982D01*
X193006687Y-131044112D01*
X192955420Y-130983243D01*
X192901013Y-130924489D01*
X192843586Y-130867959D01*
X192783263Y-130813766D01*
X192720166Y-130762020D01*
X192654418Y-130712832D01*
X192586139Y-130666315D01*
X192515454Y-130622578D01*
X192442484Y-130581734D01*
X192367351Y-130543893D01*
X192290178Y-130509167D01*
X192211087Y-130477667D01*
X192130201Y-130449504D01*
X192047642Y-130424789D01*
X191963532Y-130403634D01*
X191877993Y-130386150D01*
X191791148Y-130372448D01*
X191703119Y-130362639D01*
X191614028Y-130356835D01*
X191523999Y-130355146D01*
X191345237Y-130361903D01*
X191257614Y-130369738D01*
X191171286Y-130380542D01*
X191086348Y-130394314D01*
X191002893Y-130411054D01*
X190921014Y-130430760D01*
X190840806Y-130453432D01*
X190762361Y-130479068D01*
X190685774Y-130507667D01*
X190611136Y-130539227D01*
X190538544Y-130573749D01*
X190468088Y-130611231D01*
X190399864Y-130651672D01*
X190333965Y-130695071D01*
X190270483Y-130741426D01*
X190209514Y-130790738D01*
X190151150Y-130843004D01*
X190095484Y-130898223D01*
X190042611Y-130956396D01*
X189992623Y-131017519D01*
X189945615Y-131081594D01*
X189901679Y-131148617D01*
X189860910Y-131218589D01*
X189823401Y-131291509D01*
X189789245Y-131367374D01*
X189758535Y-131446185D01*
X189731367Y-131527940D01*
X189707832Y-131612638D01*
X189688024Y-131700279D01*
X189672037Y-131790860D01*
X189659965Y-131884381D01*
X189652852Y-131978528D01*
X189651574Y-132070935D01*
X188419918Y-132070935D01*
X188468831Y-132008419D01*
X188572091Y-131890487D01*
X188684245Y-131774664D01*
X188805108Y-131660622D01*
X188939027Y-131453034D01*
X189074463Y-131257362D01*
X189212073Y-131073686D01*
X189352513Y-130902086D01*
X189496440Y-130742641D01*
X189644512Y-130595431D01*
X189797384Y-130460535D01*
X189955713Y-130338032D01*
X190120157Y-130228002D01*
X190291373Y-130130524D01*
X190470016Y-130045678D01*
X190656745Y-129973543D01*
X190852215Y-129914199D01*
X191057084Y-129867726D01*
X191272007Y-129834201D01*
X191497644Y-129813706D01*
X191497644Y-129813707D01*
G37*
%TD.AperFunction*%
%TD*%
D11*
%TO.P,TH2,*%
%TO.N,*%
X103110000Y-97040000D03*
%TD*%
%TO.P,TH1,*%
%TO.N,*%
X83619033Y-107450000D03*
%TD*%
%TO.P,TH8,*%
%TO.N,*%
X101560000Y-126980000D03*
%TD*%
%TO.P,TH3,*%
%TO.N,*%
X127410000Y-65960000D03*
%TD*%
%TO.P,TH6,*%
%TO.N,*%
X204245000Y-106475000D03*
%TD*%
%TO.P,TH5,*%
%TO.N,*%
X127500000Y-103910000D03*
%TD*%
%TO.P,TH4,*%
%TO.N,*%
X204260000Y-68360000D03*
%TD*%
%TO.P,TH7,*%
%TO.N,*%
X109980000Y-43567432D03*
%TD*%
D12*
%TO.P,REF\u002A\u002A,*%
%TO.N,*%
X147120000Y-87895000D03*
%TD*%
%TA.AperFunction,NonConductor*%
G36*
X166176164Y-40501185D02*
G01*
X172796747Y-41355877D01*
X223409460Y-47889786D01*
X223413459Y-47891258D01*
X223479977Y-47898939D01*
X223487215Y-47900046D01*
X223542509Y-47910611D01*
X223701766Y-47942414D01*
X223714932Y-47945997D01*
X223799853Y-47975490D01*
X223802069Y-47976290D01*
X223920963Y-48020840D01*
X223931984Y-48025749D01*
X224018453Y-48070736D01*
X224021940Y-48072640D01*
X224089633Y-48111411D01*
X224125576Y-48131998D01*
X224134362Y-48137663D01*
X224180367Y-48170869D01*
X224215695Y-48196368D01*
X224220154Y-48199783D01*
X224310795Y-48273348D01*
X224317410Y-48279223D01*
X224390141Y-48349844D01*
X224395146Y-48355071D01*
X224472282Y-48441719D01*
X224476887Y-48447286D01*
X224499690Y-48476994D01*
X224538623Y-48527717D01*
X224543692Y-48534967D01*
X224606266Y-48633510D01*
X224609139Y-48638331D01*
X224658037Y-48725918D01*
X224662647Y-48735303D01*
X224709589Y-48845068D01*
X224711090Y-48848786D01*
X224724439Y-48883857D01*
X224745767Y-48939889D01*
X224749368Y-48951404D01*
X224779848Y-49074633D01*
X224780399Y-49076983D01*
X224799846Y-49164675D01*
X224801883Y-49178198D01*
X224815438Y-49345504D01*
X224816971Y-49366540D01*
X224819080Y-49395473D01*
X224819343Y-49402690D01*
X224819343Y-125596248D01*
X224819080Y-125603481D01*
X224815859Y-125647690D01*
X224801241Y-125823243D01*
X224799224Y-125836533D01*
X224780176Y-125922471D01*
X224779458Y-125925489D01*
X224747228Y-126052082D01*
X224743797Y-126062925D01*
X224709608Y-126152782D01*
X224707645Y-126157563D01*
X224658053Y-126269967D01*
X224653903Y-126278296D01*
X224605822Y-126364453D01*
X224602068Y-126370639D01*
X224535534Y-126471810D01*
X224531341Y-126477707D01*
X224471283Y-126555986D01*
X224465280Y-126563096D01*
X224381721Y-126653161D01*
X224378110Y-126656856D01*
X224309151Y-126723848D01*
X224300553Y-126731295D01*
X224197057Y-126811062D01*
X224194573Y-126812916D01*
X224123245Y-126864430D01*
X224111841Y-126871547D01*
X223956670Y-126954399D01*
X223919502Y-126973752D01*
X223907972Y-126978856D01*
X185253088Y-141237069D01*
X185184221Y-141249365D01*
X147125544Y-141249365D01*
X147121375Y-141249127D01*
X147119651Y-141249198D01*
X147118589Y-141249452D01*
X147114471Y-141250858D01*
X92108988Y-156743819D01*
X92100916Y-156745734D01*
X92053280Y-156754954D01*
X91883949Y-156786069D01*
X91855808Y-156789192D01*
X91770703Y-156792541D01*
X91767872Y-156792612D01*
X91634062Y-156794067D01*
X91621795Y-156793443D01*
X91521866Y-156782150D01*
X91517189Y-156781509D01*
X91393098Y-156761487D01*
X91382941Y-156759299D01*
X91283091Y-156732268D01*
X91276769Y-156730329D01*
X91160271Y-156690319D01*
X91152357Y-156687217D01*
X91057040Y-156645081D01*
X91049419Y-156641315D01*
X90941407Y-156582076D01*
X90935720Y-156578706D01*
X90917651Y-156567173D01*
X90848522Y-156523048D01*
X90840077Y-156517016D01*
X90741744Y-156438710D01*
X90738134Y-156435694D01*
X90662518Y-156369380D01*
X90653811Y-156360738D01*
X90613240Y-156315171D01*
X90564798Y-156260762D01*
X90562945Y-156258620D01*
X90508155Y-156193437D01*
X90491528Y-156170528D01*
X90400773Y-156024679D01*
X90375092Y-155982521D01*
X90371429Y-155975960D01*
X79563541Y-134765131D01*
X79560969Y-134759677D01*
X79552845Y-134740996D01*
X79552058Y-134739137D01*
X79550878Y-134736265D01*
X79481951Y-134568491D01*
X79478586Y-134558947D01*
X79458816Y-134492238D01*
X79457268Y-134486363D01*
X79452473Y-134465608D01*
X79425551Y-134349086D01*
X79424385Y-134343230D01*
X79412883Y-134274580D01*
X79411722Y-134264548D01*
X79399823Y-134079557D01*
X79399721Y-134077668D01*
X79398869Y-134058261D01*
X79398787Y-134052331D01*
X79399813Y-133988123D01*
X79398744Y-133980138D01*
X79398744Y-126980000D01*
X99554390Y-126980000D01*
X99574803Y-127265427D01*
X99635631Y-127545048D01*
X99735633Y-127813161D01*
X99872771Y-128064311D01*
X99872774Y-128064315D01*
X100044261Y-128293395D01*
X100044265Y-128293399D01*
X100044268Y-128293403D01*
X100246596Y-128495731D01*
X100246599Y-128495733D01*
X100246605Y-128495739D01*
X100474456Y-128666306D01*
X100475688Y-128667228D01*
X100577292Y-128722708D01*
X100726839Y-128804367D01*
X100913789Y-128874096D01*
X100959008Y-128890962D01*
X100994954Y-128904369D01*
X101274572Y-128965196D01*
X101274571Y-128965196D01*
X101294985Y-128966655D01*
X101560000Y-128985610D01*
X101845428Y-128965196D01*
X102125046Y-128904369D01*
X102393161Y-128804367D01*
X102644315Y-128667226D01*
X102873395Y-128495739D01*
X103075739Y-128293395D01*
X103115175Y-128240714D01*
X185190486Y-128240714D01*
X185190532Y-128241978D01*
X185190553Y-128247108D01*
X185191044Y-128258422D01*
X185191135Y-128263459D01*
X185191050Y-128275097D01*
X185191119Y-128277451D01*
X185191215Y-128278879D01*
X185191435Y-128285495D01*
X185191435Y-128322278D01*
X185193461Y-128336370D01*
X185193249Y-128336400D01*
X185194629Y-128343163D01*
X185196333Y-128357647D01*
X185196795Y-128362659D01*
X185197438Y-128372322D01*
X185197840Y-128375219D01*
X185199114Y-128383756D01*
X185199764Y-128391109D01*
X185200219Y-128396257D01*
X185200340Y-128398776D01*
X185200583Y-128401825D01*
X185204535Y-128427883D01*
X185204979Y-128431182D01*
X185208062Y-128457392D01*
X185208510Y-128459745D01*
X185209377Y-128463644D01*
X185212869Y-128483067D01*
X185213313Y-128485747D01*
X185215573Y-128500644D01*
X185215885Y-128502868D01*
X185216254Y-128505737D01*
X185216900Y-128509393D01*
X185217550Y-128513678D01*
X185218075Y-128516006D01*
X185219485Y-128521617D01*
X185222171Y-128534936D01*
X185222564Y-128537000D01*
X185224234Y-128546290D01*
X185224792Y-128549741D01*
X185225141Y-128552172D01*
X185225624Y-128554392D01*
X185226322Y-128557909D01*
X185227888Y-128566617D01*
X185229126Y-128571484D01*
X185230196Y-128575413D01*
X185232100Y-128584168D01*
X185235542Y-128601232D01*
X185236847Y-128609464D01*
X185237275Y-128613166D01*
X185237280Y-128613192D01*
X185243210Y-128635676D01*
X185244223Y-128639891D01*
X185244582Y-128641538D01*
X185249166Y-128662615D01*
X185251168Y-128669431D01*
X185251008Y-128669477D01*
X185256875Y-128689770D01*
X185256989Y-128690320D01*
X185265645Y-128720740D01*
X185273726Y-128751377D01*
X185274889Y-128754780D01*
X185277540Y-128763960D01*
X185279729Y-128773183D01*
X185288206Y-128800158D01*
X185288978Y-128802737D01*
X185290753Y-128808976D01*
X185296722Y-128829952D01*
X185299014Y-128836256D01*
X185304006Y-128854084D01*
X185304360Y-128853987D01*
X185306248Y-128860842D01*
X185306249Y-128860847D01*
X185306251Y-128860853D01*
X185310940Y-128874103D01*
X185314833Y-128885104D01*
X185315948Y-128888442D01*
X185318749Y-128897356D01*
X185323655Y-128912969D01*
X185326267Y-128919588D01*
X185325687Y-128919816D01*
X185332769Y-128939922D01*
X185333469Y-128939705D01*
X185335576Y-128946484D01*
X185335577Y-128946487D01*
X185337925Y-128952492D01*
X185345285Y-128971318D01*
X185346401Y-128974315D01*
X185351570Y-128988920D01*
X185352986Y-128993096D01*
X185352989Y-128993107D01*
X185352993Y-128993116D01*
X185353399Y-128994314D01*
X185354344Y-128996759D01*
X185355295Y-128999447D01*
X185355489Y-128999892D01*
X185358746Y-129006804D01*
X185364183Y-129019737D01*
X185365110Y-129022021D01*
X185365135Y-129022085D01*
X185369455Y-129033136D01*
X185371366Y-129038748D01*
X185372012Y-129040495D01*
X185373225Y-129043166D01*
X185375279Y-129048032D01*
X185375648Y-129048977D01*
X185377322Y-129052493D01*
X185378565Y-129054935D01*
X185383589Y-129066007D01*
X185384711Y-129068574D01*
X185390338Y-129081962D01*
X185392235Y-129087061D01*
X185392868Y-129088619D01*
X185393408Y-129089716D01*
X185395337Y-129093949D01*
X185397229Y-129097678D01*
X185398238Y-129099530D01*
X185404809Y-129112890D01*
X185406132Y-129115688D01*
X185413448Y-129131809D01*
X185415028Y-129135679D01*
X185416016Y-129137887D01*
X185416310Y-129138482D01*
X185419077Y-129143575D01*
X185419424Y-129144165D01*
X185428069Y-129160301D01*
X185429641Y-129163362D01*
X185437038Y-129178395D01*
X185454914Y-129234392D01*
X185459457Y-129262399D01*
X185460108Y-129267131D01*
X185462575Y-129288915D01*
X185463877Y-129295906D01*
X185463224Y-129296027D01*
X185465280Y-129308753D01*
X185465973Y-129308659D01*
X185466937Y-129315705D01*
X185471537Y-129337556D01*
X185472387Y-129342118D01*
X185475965Y-129364176D01*
X185477601Y-129371095D01*
X185476904Y-129371259D01*
X185479510Y-129383657D01*
X185480231Y-129383525D01*
X185481517Y-129390511D01*
X185487175Y-129412356D01*
X185488219Y-129416807D01*
X185492862Y-129438866D01*
X185494819Y-129445700D01*
X185494123Y-129445899D01*
X185497376Y-129458457D01*
X185498082Y-129458294D01*
X185499687Y-129465213D01*
X185506344Y-129486782D01*
X185507589Y-129491171D01*
X185513247Y-129513013D01*
X185515514Y-129519744D01*
X185514860Y-129519964D01*
X185518904Y-129533049D01*
X185519554Y-129532867D01*
X185521477Y-129539698D01*
X185521479Y-129539706D01*
X185529088Y-129560825D01*
X185530540Y-129565169D01*
X185537149Y-129586579D01*
X185539725Y-129593206D01*
X185539149Y-129593429D01*
X185544174Y-129607347D01*
X185544731Y-129607162D01*
X185546980Y-129613904D01*
X185555431Y-129634269D01*
X185557138Y-129638676D01*
X185564625Y-129659453D01*
X185567504Y-129665948D01*
X185567033Y-129666156D01*
X185573313Y-129681251D01*
X185573752Y-129681081D01*
X185576331Y-129687708D01*
X185585556Y-129707169D01*
X185587542Y-129711641D01*
X185595805Y-129731548D01*
X185598996Y-129737912D01*
X185598658Y-129738081D01*
X185606505Y-129754585D01*
X185606794Y-129754456D01*
X185609708Y-129760934D01*
X185619603Y-129779304D01*
X185621913Y-129783870D01*
X185630856Y-129802736D01*
X185634350Y-129808922D01*
X185634169Y-129809023D01*
X185644002Y-129827213D01*
X185644118Y-129827154D01*
X185647319Y-129833349D01*
X185647363Y-129833429D01*
X185647372Y-129833450D01*
X185647378Y-129833462D01*
X185652437Y-129841742D01*
X185657432Y-129849917D01*
X185657791Y-129850503D01*
X185660485Y-129855195D01*
X185669971Y-129872806D01*
X185669976Y-129872814D01*
X185670640Y-129873711D01*
X185673355Y-129878138D01*
X185673780Y-129878807D01*
X185673769Y-129878813D01*
X185688655Y-129903081D01*
X185689629Y-129905031D01*
X185689634Y-129905039D01*
X185700429Y-129920610D01*
X185703563Y-129925421D01*
X185713435Y-129941577D01*
X185715610Y-129944206D01*
X185715624Y-129944222D01*
X185734474Y-129971293D01*
X185736838Y-129975372D01*
X185736839Y-129975373D01*
X185736842Y-129975378D01*
X185747719Y-129989163D01*
X185747796Y-129989260D01*
X185751450Y-129994197D01*
X185761071Y-130008072D01*
X185761551Y-130008764D01*
X185765707Y-130013234D01*
X185765716Y-130013243D01*
X185785150Y-130037751D01*
X185789436Y-130044129D01*
X185793808Y-130049724D01*
X185791949Y-130051175D01*
X185822566Y-130103551D01*
X185823397Y-130103206D01*
X185825940Y-130109322D01*
X185826025Y-130109468D01*
X185826125Y-130109769D01*
X185829749Y-130118484D01*
X185831819Y-130123901D01*
X185835070Y-130133218D01*
X185844422Y-130154905D01*
X185846010Y-130158812D01*
X185854442Y-130180900D01*
X185858189Y-130188940D01*
X185860459Y-130194202D01*
X185863830Y-130202680D01*
X185874060Y-130223866D01*
X185875824Y-130227729D01*
X185885159Y-130249377D01*
X185888960Y-130256705D01*
X185891433Y-130261826D01*
X185894838Y-130269426D01*
X185905948Y-130290122D01*
X185907880Y-130293914D01*
X185918112Y-130315106D01*
X185921878Y-130321665D01*
X185924571Y-130326682D01*
X185927926Y-130333385D01*
X185939929Y-130353622D01*
X185942019Y-130357323D01*
X185953166Y-130378090D01*
X185956797Y-130383830D01*
X185959714Y-130388749D01*
X185962915Y-130394519D01*
X185975810Y-130414294D01*
X185978043Y-130417884D01*
X185990101Y-130438211D01*
X185993517Y-130443133D01*
X185996682Y-130447989D01*
X185999628Y-130452810D01*
X185999629Y-130452812D01*
X186013421Y-130472136D01*
X186015779Y-130475592D01*
X186028754Y-130495490D01*
X186031833Y-130499546D01*
X186035253Y-130504340D01*
X186037856Y-130508227D01*
X186037861Y-130508233D01*
X186037862Y-130508235D01*
X186037864Y-130508238D01*
X186052539Y-130527090D01*
X186055008Y-130530402D01*
X186068910Y-130549880D01*
X186071573Y-130553098D01*
X186075272Y-130557854D01*
X186077379Y-130560740D01*
X186083689Y-130568197D01*
X186093007Y-130579212D01*
X186095522Y-130582312D01*
X186108073Y-130598436D01*
X186110376Y-130601395D01*
X186112441Y-130603689D01*
X186116433Y-130608412D01*
X186117990Y-130610375D01*
X186117994Y-130610379D01*
X186117995Y-130610380D01*
X186134477Y-130628358D01*
X186134496Y-130628378D01*
X186137111Y-130631347D01*
X186152886Y-130649994D01*
X186152892Y-130650000D01*
X186157431Y-130654647D01*
X186165062Y-130663433D01*
X186165772Y-130664355D01*
X186171882Y-130670294D01*
X186179432Y-130677634D01*
X186183399Y-130681719D01*
X186196251Y-130695737D01*
X186196257Y-130695743D01*
X186204395Y-130702405D01*
X186210722Y-130708052D01*
X186220396Y-130717456D01*
X186235541Y-130732179D01*
X186240324Y-130737165D01*
X186250503Y-130748546D01*
X186261453Y-130757737D01*
X186266818Y-130762585D01*
X186277076Y-130772556D01*
X186277079Y-130772558D01*
X186277080Y-130772559D01*
X186289422Y-130781529D01*
X186294879Y-130785793D01*
X186320644Y-130807418D01*
X186326183Y-130812433D01*
X186335938Y-130821958D01*
X186335944Y-130821962D01*
X186335946Y-130821964D01*
X186348813Y-130831358D01*
X186354100Y-130835498D01*
X186366293Y-130845733D01*
X186377862Y-130852913D01*
X186384046Y-130857081D01*
X186390491Y-130861786D01*
X186405206Y-130872530D01*
X186411512Y-130877538D01*
X186420465Y-130885259D01*
X186431468Y-130892294D01*
X186435392Y-130894803D01*
X186440463Y-130898271D01*
X186443303Y-130900344D01*
X186454781Y-130908724D01*
X186465237Y-130914272D01*
X186472177Y-130918323D01*
X186487619Y-130928196D01*
X186494705Y-130933176D01*
X186502569Y-130939231D01*
X186519696Y-130948888D01*
X186524404Y-130951718D01*
X186537299Y-130959962D01*
X186540954Y-130962299D01*
X186550015Y-130966411D01*
X186557723Y-130970327D01*
X186561966Y-130972720D01*
X186566523Y-130975294D01*
X186574375Y-130980223D01*
X186580826Y-130984705D01*
X186580832Y-130984709D01*
X186600219Y-130994422D01*
X186604470Y-130996685D01*
X186623342Y-131007325D01*
X186623354Y-131007329D01*
X186629764Y-131010363D01*
X186629631Y-131010642D01*
X186647265Y-131019556D01*
X186647515Y-131019094D01*
X186653768Y-131022462D01*
X186653772Y-131022463D01*
X186653774Y-131022465D01*
X186675551Y-131032260D01*
X186679256Y-131034021D01*
X186681944Y-131035368D01*
X186682109Y-131035451D01*
X186745321Y-131086929D01*
X186745705Y-131086579D01*
X186748071Y-131089168D01*
X186748990Y-131089917D01*
X186750498Y-131091825D01*
X186750502Y-131091830D01*
X186750504Y-131091832D01*
X186757646Y-131099649D01*
X186763072Y-131106121D01*
X186769519Y-131114511D01*
X186769523Y-131114516D01*
X186783097Y-131127753D01*
X186787077Y-131131863D01*
X186793005Y-131138352D01*
X186797754Y-131143551D01*
X186801835Y-131148311D01*
X186809224Y-131157503D01*
X186812664Y-131161783D01*
X186821638Y-131170159D01*
X186827199Y-131175779D01*
X186835476Y-131184840D01*
X186835479Y-131184843D01*
X186835480Y-131184844D01*
X186848818Y-131195801D01*
X186853543Y-131199939D01*
X186858526Y-131204589D01*
X186862977Y-131208743D01*
X186867816Y-131213582D01*
X186878401Y-131224925D01*
X186889351Y-131233729D01*
X186894890Y-131238528D01*
X186905159Y-131248114D01*
X186905161Y-131248115D01*
X186905164Y-131248118D01*
X186917897Y-131256982D01*
X186923357Y-131261070D01*
X186931216Y-131267388D01*
X186936833Y-131272261D01*
X186944099Y-131279056D01*
X186946869Y-131281647D01*
X186958763Y-131289945D01*
X186959838Y-131290695D01*
X186965254Y-131294754D01*
X186977570Y-131304657D01*
X186977572Y-131304658D01*
X186977578Y-131304663D01*
X186985466Y-131309331D01*
X186986054Y-131309679D01*
X187011313Y-131327407D01*
X187017383Y-131332412D01*
X187017390Y-131332418D01*
X187017392Y-131332419D01*
X187017393Y-131332420D01*
X187032366Y-131341534D01*
X187037547Y-131344913D01*
X187051926Y-131354945D01*
X187056743Y-131357370D01*
X187057608Y-131357805D01*
X187085748Y-131375031D01*
X187089485Y-131377769D01*
X187106331Y-131386743D01*
X187111255Y-131389549D01*
X187124048Y-131397335D01*
X187127591Y-131399492D01*
X187130541Y-131400753D01*
X187161338Y-131417253D01*
X187162738Y-131418170D01*
X187162739Y-131418170D01*
X187162742Y-131418172D01*
X187181345Y-131426860D01*
X187181356Y-131426865D01*
X187186017Y-131429192D01*
X187204164Y-131438860D01*
X187204477Y-131438973D01*
X187205481Y-131439444D01*
X187210653Y-131441742D01*
X187210604Y-131441850D01*
X187230373Y-131451135D01*
X187230481Y-131450918D01*
X187236847Y-131454072D01*
X187236853Y-131454076D01*
X187257118Y-131462376D01*
X187261453Y-131464274D01*
X187281294Y-131473541D01*
X187281302Y-131473543D01*
X187287930Y-131476080D01*
X187287788Y-131476449D01*
X187304891Y-131483491D01*
X187305096Y-131483029D01*
X187311596Y-131485897D01*
X187311607Y-131485903D01*
X187333312Y-131493686D01*
X187337419Y-131495264D01*
X187346741Y-131499081D01*
X187358730Y-131503992D01*
X187358743Y-131503995D01*
X187365493Y-131506213D01*
X187365428Y-131506408D01*
X187391965Y-131515689D01*
X187395974Y-131517513D01*
X187413463Y-131522622D01*
X187419148Y-131524469D01*
X187436310Y-131530624D01*
X187445773Y-131532557D01*
X187447393Y-131532888D01*
X187455383Y-131534868D01*
X187467529Y-131538416D01*
X187525624Y-131555387D01*
X187532389Y-131557630D01*
X187546114Y-131562735D01*
X187560667Y-131565886D01*
X187567505Y-131567622D01*
X187581829Y-131571807D01*
X187595342Y-131573730D01*
X187596328Y-131573871D01*
X187603363Y-131575131D01*
X187677217Y-131591124D01*
X187684901Y-131593114D01*
X187696497Y-131596618D01*
X187713768Y-131599239D01*
X187719881Y-131600363D01*
X187736938Y-131604057D01*
X187749010Y-131604908D01*
X187756896Y-131605783D01*
X187777640Y-131608931D01*
X187860044Y-131641371D01*
X187920216Y-131706355D01*
X187946233Y-131791010D01*
X187932943Y-131878571D01*
X187911600Y-131918647D01*
X187890978Y-131948552D01*
X187886337Y-131954751D01*
X187878520Y-131964387D01*
X187878517Y-131964392D01*
X187870146Y-131978393D01*
X187866664Y-131983811D01*
X187857391Y-131997261D01*
X187857382Y-131997277D01*
X187851858Y-132008399D01*
X187848148Y-132015193D01*
X187798784Y-132097774D01*
X187793772Y-132105351D01*
X187788837Y-132112117D01*
X187779282Y-132130143D01*
X187776781Y-132134584D01*
X187766334Y-132152062D01*
X187766329Y-132152071D01*
X187763111Y-132159769D01*
X187759229Y-132167979D01*
X187753059Y-132179620D01*
X187747567Y-132188762D01*
X187745571Y-132191712D01*
X187745563Y-132191727D01*
X187734571Y-132214369D01*
X187732976Y-132217512D01*
X187721189Y-132239749D01*
X187718325Y-132246234D01*
X187717808Y-132246005D01*
X187707934Y-132266364D01*
X187708409Y-132266616D01*
X187705087Y-132272887D01*
X187695016Y-132295696D01*
X187693506Y-132298956D01*
X187682610Y-132321401D01*
X187679972Y-132327997D01*
X187679494Y-132327806D01*
X187670150Y-132348988D01*
X187670593Y-132349202D01*
X187667507Y-132355584D01*
X187658351Y-132378579D01*
X187656936Y-132381948D01*
X187646939Y-132404596D01*
X187644542Y-132411282D01*
X187644103Y-132411124D01*
X187635353Y-132433119D01*
X187635763Y-132433299D01*
X187632910Y-132439810D01*
X187624678Y-132462966D01*
X187623372Y-132466434D01*
X187614274Y-132489289D01*
X187612125Y-132496058D01*
X187611723Y-132495930D01*
X187603627Y-132518717D01*
X187604009Y-132518868D01*
X187601404Y-132525481D01*
X187594073Y-132548860D01*
X187592887Y-132552404D01*
X187584693Y-132575461D01*
X187582795Y-132582317D01*
X187582419Y-132582212D01*
X187575049Y-132605733D01*
X187575408Y-132605859D01*
X187573056Y-132612565D01*
X187566638Y-132636130D01*
X187565579Y-132639745D01*
X187558272Y-132663053D01*
X187556637Y-132669964D01*
X187556286Y-132669881D01*
X187549691Y-132694103D01*
X187550033Y-132694209D01*
X187547935Y-132701007D01*
X187542422Y-132724770D01*
X187541500Y-132728426D01*
X187535079Y-132752001D01*
X187533708Y-132758966D01*
X187533380Y-132758901D01*
X187527609Y-132783773D01*
X187527937Y-132783861D01*
X187526099Y-132790729D01*
X187521475Y-132814750D01*
X187520695Y-132818424D01*
X187515168Y-132842250D01*
X187515168Y-132842251D01*
X187514797Y-132846598D01*
X187513351Y-132856956D01*
X187512383Y-132861980D01*
X187511256Y-132867784D01*
X187508779Y-132877748D01*
X187507584Y-132881674D01*
X187507578Y-132881701D01*
X187503847Y-132905954D01*
X187503212Y-132909623D01*
X187498577Y-132933708D01*
X187498576Y-132933714D01*
X187498376Y-132937940D01*
X187497326Y-132948352D01*
X187496555Y-132953363D01*
X187495571Y-132959728D01*
X187493443Y-132969923D01*
X187492418Y-132973805D01*
X187492415Y-132973821D01*
X187489573Y-132998301D01*
X187489082Y-133001946D01*
X187485329Y-133026350D01*
X187485327Y-133026379D01*
X187485287Y-133030413D01*
X187484634Y-133040846D01*
X187484093Y-133045531D01*
X187483247Y-133052823D01*
X187481477Y-133063232D01*
X187480618Y-133067041D01*
X187480616Y-133067054D01*
X187478653Y-133091833D01*
X187478301Y-133095442D01*
X187475439Y-133120106D01*
X187475439Y-133120113D01*
X187475545Y-133123996D01*
X187475271Y-133134572D01*
X187474271Y-133147182D01*
X187472869Y-133157709D01*
X187472190Y-133161317D01*
X187472188Y-133161340D01*
X187471105Y-133186376D01*
X187470888Y-133189924D01*
X187468911Y-133214902D01*
X187468911Y-133214909D01*
X187469145Y-133218565D01*
X187469254Y-133229183D01*
X187468678Y-133242563D01*
X187467639Y-133253243D01*
X187467122Y-133256639D01*
X187467121Y-133256650D01*
X187466915Y-133281915D01*
X187466826Y-133285392D01*
X187465733Y-133310687D01*
X187465734Y-133310694D01*
X187466076Y-133314119D01*
X187466564Y-133324815D01*
X187466448Y-133338998D01*
X187465775Y-133349776D01*
X187465407Y-133352912D01*
X187465406Y-133352937D01*
X187466068Y-133378491D01*
X187466098Y-133381877D01*
X187465889Y-133407451D01*
X187466314Y-133410585D01*
X187467180Y-133421360D01*
X187467570Y-133436414D01*
X187467256Y-133447308D01*
X187467017Y-133450160D01*
X187467016Y-133450170D01*
X187467756Y-133462682D01*
X187468544Y-133476012D01*
X187468681Y-133479254D01*
X187469352Y-133505131D01*
X187469353Y-133505138D01*
X187469835Y-133507968D01*
X187471072Y-133518786D01*
X187471261Y-133521973D01*
X187472020Y-133534803D01*
X187472061Y-133545822D01*
X187471929Y-133548355D01*
X187471929Y-133548356D01*
X187474311Y-133574427D01*
X187474550Y-133577605D01*
X187476096Y-133603761D01*
X187476683Y-133608238D01*
X187477528Y-133621181D01*
X187477528Y-133658796D01*
X187477529Y-133658798D01*
X187478579Y-133662375D01*
X187485810Y-133700305D01*
X187486081Y-133703268D01*
X187486082Y-133703278D01*
X187486598Y-133705443D01*
X187488564Y-133716380D01*
X187490787Y-133734504D01*
X187491523Y-133745676D01*
X187491540Y-133747559D01*
X187491544Y-133747602D01*
X187495608Y-133774156D01*
X187496012Y-133777089D01*
X187499279Y-133803719D01*
X187499281Y-133803726D01*
X187499772Y-133805537D01*
X187502092Y-133816513D01*
X187502816Y-133821240D01*
X187505050Y-133835841D01*
X187506124Y-133847113D01*
X187506181Y-133848637D01*
X187506184Y-133848663D01*
X187511061Y-133875377D01*
X187511533Y-133878188D01*
X187515656Y-133905119D01*
X187515657Y-133905120D01*
X187516101Y-133906584D01*
X187518768Y-133917602D01*
X187520657Y-133927944D01*
X187522968Y-133940604D01*
X187524318Y-133951173D01*
X187524585Y-133954796D01*
X187529968Y-133979309D01*
X187530666Y-133982777D01*
X187535179Y-134007490D01*
X187536330Y-134010926D01*
X187539169Y-134021195D01*
X187545118Y-134048276D01*
X187546752Y-134057982D01*
X187547463Y-134064017D01*
X187547464Y-134064024D01*
X187547465Y-134064027D01*
X187551597Y-134079557D01*
X187553289Y-134085917D01*
X187554317Y-134090151D01*
X187559176Y-134112275D01*
X187559178Y-134112281D01*
X187559179Y-134112284D01*
X187560770Y-134116524D01*
X187561311Y-134117964D01*
X187564311Y-134127345D01*
X187571443Y-134154153D01*
X187573501Y-134163779D01*
X187574475Y-134169779D01*
X187574478Y-134169788D01*
X187581263Y-134191431D01*
X187582474Y-134195611D01*
X187588292Y-134217481D01*
X187588299Y-134217501D01*
X187590675Y-134223076D01*
X187594081Y-134232311D01*
X187600532Y-134252886D01*
X187601686Y-134256565D01*
X187604166Y-134266109D01*
X187605391Y-134272009D01*
X187613120Y-134293352D01*
X187614507Y-134297459D01*
X187621307Y-134319148D01*
X187621308Y-134319150D01*
X187623909Y-134324581D01*
X187627722Y-134333676D01*
X187635608Y-134355450D01*
X187638511Y-134364913D01*
X187639960Y-134370637D01*
X187648645Y-134391723D01*
X187650197Y-134395735D01*
X187657971Y-134417202D01*
X187660754Y-134422416D01*
X187664980Y-134431381D01*
X187672944Y-134450717D01*
X187676265Y-134460083D01*
X187677918Y-134465608D01*
X187687573Y-134486468D01*
X187689277Y-134490367D01*
X187698020Y-134511592D01*
X187698023Y-134511599D01*
X187700948Y-134516551D01*
X187705574Y-134525361D01*
X187713430Y-134542335D01*
X187717175Y-134551624D01*
X187718996Y-134556893D01*
X187729603Y-134577488D01*
X187731429Y-134581225D01*
X187737860Y-134595119D01*
X187741175Y-134602281D01*
X187744203Y-134606939D01*
X187749240Y-134615619D01*
X187756810Y-134630321D01*
X187760964Y-134639504D01*
X187762903Y-134644442D01*
X187762909Y-134644455D01*
X187774474Y-134664803D01*
X187776429Y-134668415D01*
X187787151Y-134689233D01*
X187790239Y-134693574D01*
X187795671Y-134702094D01*
X187797783Y-134705811D01*
X187802775Y-134714596D01*
X187807341Y-134723684D01*
X187809364Y-134728283D01*
X187809367Y-134728288D01*
X187809369Y-134728292D01*
X187820128Y-134745560D01*
X187821890Y-134748388D01*
X187823942Y-134751835D01*
X187835654Y-134772439D01*
X187835665Y-134772455D01*
X187838739Y-134776420D01*
X187844543Y-134784750D01*
X187848455Y-134791024D01*
X187851026Y-134795150D01*
X187856006Y-134804144D01*
X187858087Y-134808411D01*
X187858088Y-134808412D01*
X187858091Y-134808417D01*
X187871558Y-134828248D01*
X187873692Y-134831527D01*
X187886393Y-134851911D01*
X187886396Y-134851915D01*
X187886402Y-134851923D01*
X187889443Y-134855534D01*
X187895656Y-134863736D01*
X187904402Y-134876615D01*
X187908910Y-134883912D01*
X187913748Y-134892554D01*
X187922361Y-134903812D01*
X187925188Y-134907507D01*
X187928476Y-134912066D01*
X187939059Y-134927650D01*
X187939064Y-134927656D01*
X187939066Y-134927659D01*
X187945743Y-134934981D01*
X187951240Y-134941559D01*
X188007992Y-135015738D01*
X188012096Y-135021517D01*
X188020020Y-135033564D01*
X188020022Y-135033566D01*
X188020026Y-135033572D01*
X188029530Y-135044307D01*
X188034036Y-135049780D01*
X188042751Y-135061170D01*
X188042755Y-135061174D01*
X188042756Y-135061175D01*
X188053052Y-135071259D01*
X188057923Y-135076382D01*
X188118020Y-135144267D01*
X188122835Y-135150145D01*
X188130585Y-135160381D01*
X188141874Y-135171545D01*
X188146411Y-135176340D01*
X188156961Y-135188257D01*
X188156963Y-135188259D01*
X188165030Y-135195101D01*
X188166758Y-135196566D01*
X188172354Y-135201692D01*
X188203151Y-135232150D01*
X188216475Y-135248592D01*
X188216811Y-135248302D01*
X188226129Y-135259056D01*
X188257761Y-135286466D01*
X188262572Y-135290921D01*
X188273367Y-135301597D01*
X188273369Y-135301599D01*
X188282401Y-135308283D01*
X188288736Y-135313384D01*
X188343254Y-135361094D01*
X188349498Y-135367057D01*
X188356192Y-135374033D01*
X188356195Y-135374036D01*
X188371249Y-135385797D01*
X188375507Y-135389319D01*
X188389873Y-135401891D01*
X188397961Y-135407145D01*
X188405009Y-135412174D01*
X188454434Y-135450789D01*
X188461403Y-135456772D01*
X188467278Y-135462306D01*
X188484196Y-135474200D01*
X188488178Y-135477152D01*
X188504490Y-135489897D01*
X188504492Y-135489898D01*
X188504495Y-135489900D01*
X188511507Y-135493919D01*
X188519261Y-135498852D01*
X188562093Y-135528965D01*
X188569749Y-135534925D01*
X188570784Y-135535815D01*
X188574711Y-135539192D01*
X188581737Y-135543670D01*
X188593439Y-135551129D01*
X188597165Y-135553623D01*
X188611740Y-135563870D01*
X188615340Y-135566401D01*
X188621160Y-135569357D01*
X188629572Y-135574159D01*
X188664456Y-135596393D01*
X188672751Y-135602300D01*
X188676676Y-135605409D01*
X188687540Y-135611733D01*
X188697160Y-135617333D01*
X188700586Y-135619421D01*
X188720586Y-135632169D01*
X188720591Y-135632172D01*
X188725159Y-135634237D01*
X188734231Y-135638913D01*
X188759563Y-135653660D01*
X188768531Y-135659549D01*
X188771285Y-135661578D01*
X188786860Y-135669928D01*
X188793577Y-135673530D01*
X188796620Y-135675231D01*
X188818479Y-135687956D01*
X188821656Y-135689240D01*
X188831366Y-135693790D01*
X188845140Y-135701176D01*
X188848152Y-135702791D01*
X188856967Y-135708124D01*
X188860833Y-135710745D01*
X188866828Y-135713663D01*
X188933005Y-135765672D01*
X188938250Y-135772006D01*
X188944443Y-135780333D01*
X188946895Y-135784016D01*
X188946898Y-135784020D01*
X188947428Y-135784612D01*
X188963098Y-135802120D01*
X188965588Y-135805011D01*
X188981088Y-135823725D01*
X188984372Y-135826701D01*
X188991685Y-135834059D01*
X189000861Y-135844311D01*
X189009968Y-135854487D01*
X189016509Y-135862615D01*
X189019010Y-135866081D01*
X189019013Y-135866085D01*
X189019017Y-135866089D01*
X189036035Y-135883713D01*
X189038551Y-135886420D01*
X189054870Y-135904653D01*
X189058148Y-135907403D01*
X189065781Y-135914520D01*
X189084090Y-135933480D01*
X189090982Y-135941414D01*
X189093510Y-135944655D01*
X189111252Y-135961708D01*
X189113855Y-135964304D01*
X189130976Y-135982035D01*
X189134225Y-135984557D01*
X189142157Y-135991414D01*
X189160460Y-136009007D01*
X189167667Y-136016709D01*
X189170199Y-136019721D01*
X189170207Y-136019728D01*
X189188720Y-136036262D01*
X189191392Y-136038738D01*
X189205995Y-136052773D01*
X189209253Y-136055905D01*
X189212434Y-136058189D01*
X189220671Y-136064794D01*
X189242852Y-136084602D01*
X189249190Y-136090792D01*
X189255355Y-136097375D01*
X189270767Y-136109720D01*
X189274809Y-136113141D01*
X189289529Y-136126286D01*
X189297037Y-136131271D01*
X189304200Y-136136503D01*
X189402853Y-136215528D01*
X189408396Y-136220314D01*
X189414154Y-136225669D01*
X189418403Y-136229621D01*
X189418404Y-136229622D01*
X189430787Y-136238209D01*
X189436298Y-136242320D01*
X189448069Y-136251749D01*
X189459833Y-136258682D01*
X189466012Y-136262637D01*
X189571678Y-136335916D01*
X189577769Y-136340498D01*
X189587639Y-136348533D01*
X189587641Y-136348534D01*
X189587642Y-136348535D01*
X189601371Y-136356772D01*
X189606872Y-136360324D01*
X189620037Y-136369454D01*
X189631437Y-136375152D01*
X189638123Y-136378822D01*
X189745665Y-136443345D01*
X189752318Y-136447707D01*
X189761925Y-136454572D01*
X189777005Y-136462377D01*
X189782452Y-136465417D01*
X189796977Y-136474132D01*
X189807844Y-136478695D01*
X189815043Y-136482064D01*
X189923803Y-136538356D01*
X189930984Y-136542459D01*
X189939552Y-136547840D01*
X189940188Y-136548239D01*
X189951124Y-136553095D01*
X189956550Y-136555505D01*
X189961906Y-136558077D01*
X189977767Y-136566287D01*
X189988012Y-136569851D01*
X189995679Y-136572880D01*
X190104955Y-136621406D01*
X190105059Y-136621452D01*
X190112732Y-136625263D01*
X190121448Y-136630070D01*
X190121449Y-136630070D01*
X190121454Y-136630073D01*
X190138973Y-136636690D01*
X190138992Y-136636697D01*
X190144217Y-136638842D01*
X190161368Y-136646458D01*
X190161375Y-136646461D01*
X190168240Y-136648398D01*
X190170973Y-136649170D01*
X190179108Y-136651848D01*
X190288444Y-136693145D01*
X190296552Y-136696625D01*
X190303903Y-136700174D01*
X190304804Y-136700609D01*
X190323463Y-136706525D01*
X190328500Y-136708273D01*
X190346855Y-136715206D01*
X190355811Y-136717192D01*
X190364303Y-136719474D01*
X190473115Y-136753977D01*
X190481620Y-136757109D01*
X190485050Y-136758552D01*
X190489388Y-136760377D01*
X190509066Y-136765515D01*
X190513968Y-136766932D01*
X190533324Y-136773070D01*
X190539439Y-136774083D01*
X190541638Y-136774448D01*
X190550512Y-136776338D01*
X190584849Y-136785303D01*
X190658235Y-136804466D01*
X190667079Y-136807223D01*
X190674403Y-136809887D01*
X190694915Y-136814170D01*
X190699683Y-136815290D01*
X190719961Y-136820586D01*
X190722816Y-136820908D01*
X190727699Y-136821461D01*
X190736861Y-136822931D01*
X190843018Y-136845104D01*
X190852151Y-136847470D01*
X190859102Y-136849628D01*
X190873860Y-136851981D01*
X190880306Y-136853009D01*
X190884988Y-136853871D01*
X190893855Y-136855723D01*
X190905990Y-136858258D01*
X190910225Y-136858525D01*
X190913222Y-136858715D01*
X190922627Y-136859759D01*
X190933764Y-136861535D01*
X191026751Y-136876364D01*
X191036134Y-136878329D01*
X191042751Y-136880052D01*
X191064501Y-136882493D01*
X191069066Y-136883114D01*
X191082788Y-136885302D01*
X191090689Y-136886562D01*
X191097536Y-136886666D01*
X191107089Y-136887274D01*
X191208710Y-136898682D01*
X191218259Y-136900228D01*
X191224672Y-136901590D01*
X191246823Y-136903062D01*
X191251254Y-136903458D01*
X191273344Y-136905939D01*
X191279907Y-136905735D01*
X191289587Y-136905906D01*
X191388223Y-136912466D01*
X191397893Y-136913588D01*
X191402855Y-136914410D01*
X191404210Y-136914635D01*
X191426596Y-136915116D01*
X191430986Y-136915310D01*
X191453290Y-136916794D01*
X191459650Y-136916306D01*
X191469395Y-136916039D01*
X191562670Y-136918048D01*
X191573047Y-136918817D01*
X191577367Y-136919366D01*
X191601743Y-136918962D01*
X191605467Y-136918970D01*
X191629882Y-136919497D01*
X191634201Y-136918970D01*
X191644600Y-136918252D01*
X191667080Y-136917879D01*
X191730950Y-136916821D01*
X191740321Y-136917110D01*
X191747727Y-136917689D01*
X191769037Y-136916304D01*
X191773807Y-136916111D01*
X191795112Y-136915759D01*
X191802426Y-136914583D01*
X191811751Y-136913532D01*
X191904224Y-136907529D01*
X191913536Y-136907364D01*
X191921111Y-136907586D01*
X191942167Y-136905183D01*
X191946912Y-136904758D01*
X191968093Y-136903384D01*
X191975497Y-136901823D01*
X191984727Y-136900328D01*
X191999155Y-136898682D01*
X192079849Y-136889476D01*
X192089055Y-136888858D01*
X192096926Y-136888697D01*
X192117588Y-136885291D01*
X192122362Y-136884626D01*
X192143162Y-136882254D01*
X192150759Y-136880261D01*
X192159816Y-136878332D01*
X192257250Y-136862274D01*
X192266274Y-136861209D01*
X192274539Y-136860617D01*
X192294552Y-136856257D01*
X192299479Y-136855315D01*
X192319717Y-136851981D01*
X192327605Y-136849487D01*
X192336418Y-136847140D01*
X192341331Y-136846070D01*
X192435747Y-136825506D01*
X192444546Y-136824001D01*
X192453275Y-136822910D01*
X192472520Y-136817639D01*
X192477605Y-136816390D01*
X192497111Y-136812143D01*
X192505359Y-136809063D01*
X192513832Y-136806327D01*
X192614652Y-136778721D01*
X192623181Y-136776785D01*
X192632439Y-136775107D01*
X192650804Y-136768976D01*
X192655991Y-136767402D01*
X192674649Y-136762294D01*
X192683275Y-136758543D01*
X192691432Y-136755417D01*
X192793268Y-136721428D01*
X192801449Y-136719081D01*
X192811269Y-136716715D01*
X192828594Y-136709808D01*
X192833912Y-136707861D01*
X192851609Y-136701956D01*
X192860644Y-136697423D01*
X192868390Y-136693944D01*
X192970770Y-136653133D01*
X192978572Y-136650393D01*
X192988960Y-136647224D01*
X193005158Y-136639616D01*
X193010608Y-136637253D01*
X193027207Y-136630638D01*
X193036618Y-136625222D01*
X193043922Y-136621413D01*
X193146378Y-136573302D01*
X193153709Y-136570213D01*
X193164645Y-136566115D01*
X193179621Y-136557905D01*
X193185130Y-136555105D01*
X193200605Y-136547839D01*
X193210367Y-136541416D01*
X193217176Y-136537318D01*
X193319098Y-136481452D01*
X193325977Y-136478022D01*
X193337366Y-136472886D01*
X193351083Y-136464159D01*
X193356647Y-136460869D01*
X193370910Y-136453053D01*
X193380896Y-136445551D01*
X193387235Y-136441163D01*
X193487956Y-136377095D01*
X193494378Y-136373340D01*
X193506111Y-136367059D01*
X193518544Y-136357909D01*
X193524105Y-136354100D01*
X193537138Y-136345811D01*
X193547248Y-136337130D01*
X193553040Y-136332524D01*
X193651939Y-136259748D01*
X193657862Y-136255713D01*
X193669772Y-136248214D01*
X193680941Y-136238712D01*
X193686421Y-136234374D01*
X193698252Y-136225670D01*
X193708297Y-136215788D01*
X193713599Y-136210938D01*
X193809847Y-136129076D01*
X193815287Y-136124769D01*
X193827185Y-136116010D01*
X193837165Y-136106185D01*
X193842472Y-136101328D01*
X193853136Y-136092260D01*
X193862917Y-136081179D01*
X193867679Y-136076151D01*
X193960508Y-135984779D01*
X193965500Y-135980190D01*
X193977131Y-135970210D01*
X193985987Y-135960085D01*
X193991038Y-135954728D01*
X194000621Y-135945298D01*
X194009909Y-135933091D01*
X194014187Y-135927852D01*
X194025851Y-135914520D01*
X194098928Y-135830991D01*
X194104806Y-135824829D01*
X194111999Y-135817912D01*
X194123573Y-135803060D01*
X194127129Y-135798756D01*
X194139506Y-135784611D01*
X194144935Y-135776249D01*
X194149883Y-135769302D01*
X194154409Y-135763496D01*
X194213562Y-135714382D01*
X194213199Y-135713789D01*
X194213164Y-135713739D01*
X194213167Y-135713736D01*
X194212902Y-135713302D01*
X194218948Y-135709604D01*
X194218959Y-135709599D01*
X194223083Y-135706653D01*
X194231645Y-135701176D01*
X194238395Y-135697328D01*
X194245588Y-135693230D01*
X194255055Y-135688486D01*
X194258515Y-135686978D01*
X194279754Y-135673838D01*
X194282828Y-135672012D01*
X194304525Y-135659651D01*
X194307491Y-135657345D01*
X194316186Y-135651300D01*
X194338264Y-135637642D01*
X194347087Y-135632786D01*
X194351885Y-135630454D01*
X194371297Y-135617304D01*
X194374656Y-135615129D01*
X194394608Y-135602788D01*
X194398701Y-135599362D01*
X194406746Y-135593296D01*
X194438017Y-135572116D01*
X194446185Y-135567142D01*
X194452186Y-135563873D01*
X194453007Y-135563259D01*
X194469726Y-135550768D01*
X194473479Y-135548097D01*
X194491620Y-135535811D01*
X194496685Y-135531202D01*
X194504068Y-135525110D01*
X194543060Y-135495978D01*
X194550587Y-135490874D01*
X194557681Y-135486525D01*
X194573392Y-135473479D01*
X194577370Y-135470345D01*
X194593747Y-135458111D01*
X194599636Y-135452231D01*
X194606374Y-135446096D01*
X194607484Y-135445174D01*
X194651697Y-135408465D01*
X194658518Y-135403285D01*
X194666594Y-135397686D01*
X194680461Y-135384787D01*
X194684656Y-135381102D01*
X194699216Y-135369014D01*
X194699220Y-135369011D01*
X194705807Y-135361724D01*
X194711833Y-135355613D01*
X194758516Y-135312197D01*
X194765948Y-135305935D01*
X194771076Y-135302026D01*
X194786731Y-135286091D01*
X194789882Y-135283026D01*
X194806223Y-135267831D01*
X194808173Y-135265413D01*
X194817460Y-135255394D01*
X194826267Y-135247114D01*
X194826283Y-135247102D01*
X194844106Y-135227768D01*
X194846273Y-135225493D01*
X194864669Y-135206772D01*
X194864675Y-135206763D01*
X194869740Y-135200815D01*
X194875002Y-135195101D01*
X194881178Y-135188896D01*
X194881193Y-135188884D01*
X194898146Y-135169232D01*
X194900260Y-135166861D01*
X194917852Y-135147782D01*
X194917861Y-135147767D01*
X194923637Y-135140529D01*
X194928561Y-135134815D01*
X194935546Y-135127304D01*
X194935556Y-135127295D01*
X194951589Y-135107371D01*
X194953762Y-135104765D01*
X194970437Y-135085437D01*
X194970441Y-135085430D01*
X194974686Y-135079735D01*
X194975521Y-135080357D01*
X194985202Y-135068298D01*
X194984451Y-135067647D01*
X194989104Y-135062274D01*
X194989103Y-135062274D01*
X194989106Y-135062272D01*
X195004213Y-135042079D01*
X195006355Y-135039321D01*
X195010987Y-135033566D01*
X195022169Y-135019672D01*
X195022172Y-135019665D01*
X195026218Y-135013832D01*
X195026892Y-135014299D01*
X195037744Y-134999780D01*
X195037133Y-134999289D01*
X195041585Y-134993754D01*
X195055787Y-134973258D01*
X195057829Y-134970422D01*
X195072787Y-134950433D01*
X195072791Y-134950424D01*
X195076626Y-134944455D01*
X195077167Y-134944803D01*
X195088971Y-134927752D01*
X195088484Y-134927389D01*
X195092727Y-134921688D01*
X195092728Y-134921685D01*
X195092735Y-134921678D01*
X195106003Y-134900912D01*
X195108013Y-134897893D01*
X195122028Y-134877671D01*
X195122034Y-134877657D01*
X195125651Y-134871552D01*
X195126062Y-134871795D01*
X195138602Y-134852150D01*
X195138235Y-134851898D01*
X195142261Y-134846034D01*
X195154559Y-134825058D01*
X195156542Y-134821819D01*
X195169635Y-134801331D01*
X195169640Y-134801318D01*
X195173027Y-134795080D01*
X195173307Y-134795232D01*
X195186368Y-134772932D01*
X195186126Y-134772780D01*
X195189905Y-134766783D01*
X195189918Y-134766767D01*
X195201285Y-134745511D01*
X195203132Y-134742214D01*
X195215323Y-134721424D01*
X195217091Y-134717090D01*
X195221474Y-134707761D01*
X195227382Y-134696713D01*
X195232665Y-134687952D01*
X195235407Y-134683895D01*
X195245825Y-134662394D01*
X195247593Y-134658923D01*
X195258844Y-134637890D01*
X195260511Y-134633298D01*
X195264490Y-134623879D01*
X195270919Y-134610612D01*
X195275800Y-134601729D01*
X195278478Y-134597397D01*
X195287925Y-134575704D01*
X195289590Y-134572082D01*
X195299916Y-134550776D01*
X195301461Y-134545926D01*
X195305030Y-134536428D01*
X195311796Y-134520895D01*
X195316309Y-134511826D01*
X195318864Y-134507288D01*
X195327381Y-134485311D01*
X195328883Y-134481660D01*
X195338290Y-134460063D01*
X195339677Y-134455009D01*
X195342844Y-134445412D01*
X195349760Y-134427568D01*
X195353887Y-134418341D01*
X195356299Y-134413609D01*
X195363843Y-134391470D01*
X195365251Y-134387601D01*
X195371826Y-134370637D01*
X195373710Y-134365777D01*
X195374907Y-134360593D01*
X195377678Y-134350870D01*
X195384572Y-134330639D01*
X195388297Y-134321286D01*
X195390547Y-134316379D01*
X195397154Y-134293979D01*
X195398395Y-134290076D01*
X195405929Y-134267970D01*
X195406924Y-134262669D01*
X195409279Y-134252886D01*
X195415982Y-134230164D01*
X195419316Y-134220661D01*
X195421364Y-134215655D01*
X195427033Y-134193010D01*
X195428123Y-134189013D01*
X195434713Y-134166676D01*
X195434716Y-134166667D01*
X195435493Y-134161306D01*
X195437433Y-134151463D01*
X195443765Y-134126173D01*
X195446708Y-134116524D01*
X195448534Y-134111470D01*
X195453258Y-134088607D01*
X195454179Y-134084576D01*
X195454593Y-134082921D01*
X195459849Y-134061931D01*
X195460400Y-134056571D01*
X195461937Y-134046618D01*
X195462861Y-134042150D01*
X195468555Y-134014597D01*
X195470689Y-134006156D01*
X195473420Y-133997053D01*
X195476266Y-133978040D01*
X195477227Y-133972643D01*
X195477864Y-133969563D01*
X195481122Y-133953800D01*
X195481702Y-133944294D01*
X195482610Y-133935656D01*
X195502005Y-133806089D01*
X195503330Y-133799009D01*
X195506397Y-133785386D01*
X195507555Y-133770658D01*
X195508347Y-133763723D01*
X195510021Y-133752543D01*
X195510537Y-133749099D01*
X195510617Y-133735139D01*
X195510923Y-133727901D01*
X195521232Y-133596980D01*
X195522061Y-133589799D01*
X195524172Y-133575943D01*
X195524185Y-133574427D01*
X195524294Y-133561205D01*
X195524597Y-133554251D01*
X195525754Y-133539564D01*
X195524853Y-133525571D01*
X195524652Y-133518360D01*
X195525720Y-133390451D01*
X195526045Y-133383222D01*
X195527176Y-133369336D01*
X195526263Y-133354540D01*
X195526079Y-133347601D01*
X195526203Y-133332804D01*
X195526202Y-133332803D01*
X195526203Y-133332800D01*
X195524333Y-133318982D01*
X195523626Y-133311784D01*
X195522693Y-133296654D01*
X195515940Y-133187185D01*
X195515759Y-133179893D01*
X195515924Y-133166158D01*
X195513959Y-133151236D01*
X195513302Y-133144415D01*
X195512378Y-133129420D01*
X195510449Y-133120113D01*
X195509593Y-133115983D01*
X195508373Y-133108780D01*
X195492443Y-132987727D01*
X195491750Y-132980327D01*
X195490999Y-132966970D01*
X195490997Y-132966957D01*
X195487965Y-132951924D01*
X195486850Y-132945222D01*
X195486575Y-132943135D01*
X195484849Y-132930007D01*
X195481225Y-132917097D01*
X195479489Y-132909885D01*
X195455835Y-132792573D01*
X195454632Y-132785153D01*
X195453043Y-132772275D01*
X195448888Y-132757004D01*
X195447372Y-132750595D01*
X195444249Y-132735102D01*
X195439905Y-132722890D01*
X195437652Y-132715703D01*
X195406792Y-132602271D01*
X195405058Y-132594755D01*
X195402734Y-132582520D01*
X195399716Y-132573727D01*
X195397439Y-132567090D01*
X195395539Y-132560908D01*
X195391263Y-132545189D01*
X195386322Y-132533772D01*
X195383533Y-132526571D01*
X195345983Y-132417154D01*
X195343718Y-132409579D01*
X195340774Y-132398088D01*
X195334303Y-132382508D01*
X195332078Y-132376635D01*
X195326602Y-132360678D01*
X195326602Y-132360677D01*
X195321188Y-132350110D01*
X195317863Y-132342926D01*
X195274134Y-132237635D01*
X195271331Y-132230020D01*
X195267874Y-132219296D01*
X195260191Y-132203580D01*
X195257710Y-132198087D01*
X195250995Y-132181918D01*
X195245240Y-132172239D01*
X195241370Y-132165080D01*
X195208467Y-132097774D01*
X195191936Y-132063960D01*
X195188592Y-132056324D01*
X195184737Y-132046410D01*
X195184733Y-132046403D01*
X195184732Y-132046399D01*
X195175838Y-132030636D01*
X195173107Y-132025443D01*
X195168096Y-132015193D01*
X195165163Y-132009193D01*
X195159167Y-132000381D01*
X195154783Y-131993320D01*
X195109793Y-131913584D01*
X195084528Y-131828705D01*
X195098593Y-131741265D01*
X195149204Y-131668588D01*
X195226337Y-131625067D01*
X195237119Y-131622579D01*
X195237039Y-131622248D01*
X195243955Y-131620579D01*
X195243959Y-131620579D01*
X195253953Y-131618167D01*
X195262332Y-131616523D01*
X195333094Y-131605784D01*
X195340998Y-131604907D01*
X195353062Y-131604057D01*
X195370109Y-131600364D01*
X195376230Y-131599238D01*
X195393503Y-131596618D01*
X195405087Y-131593117D01*
X195412799Y-131591120D01*
X195486650Y-131575128D01*
X195493651Y-131573873D01*
X195508176Y-131571806D01*
X195522498Y-131567621D01*
X195529318Y-131565889D01*
X195543887Y-131562735D01*
X195557631Y-131557622D01*
X195564370Y-131555388D01*
X195634618Y-131534866D01*
X195642590Y-131532891D01*
X195653683Y-131530626D01*
X195670847Y-131524469D01*
X195676537Y-131522620D01*
X195694030Y-131517511D01*
X195698021Y-131515694D01*
X195724576Y-131506407D01*
X195724512Y-131506212D01*
X195731259Y-131503995D01*
X195731272Y-131503992D01*
X195752606Y-131495253D01*
X195756672Y-131493691D01*
X195778387Y-131485906D01*
X195778398Y-131485900D01*
X195784893Y-131483034D01*
X195785098Y-131483499D01*
X195802216Y-131476449D01*
X195802075Y-131476079D01*
X195808703Y-131473541D01*
X195808714Y-131473538D01*
X195828511Y-131464291D01*
X195832910Y-131462364D01*
X195853148Y-131454076D01*
X195853153Y-131454072D01*
X195859519Y-131450919D01*
X195859627Y-131451138D01*
X195879383Y-131441859D01*
X195879334Y-131441748D01*
X195884634Y-131439393D01*
X195885554Y-131438960D01*
X195885837Y-131438859D01*
X195903974Y-131429196D01*
X195908630Y-131426870D01*
X195927266Y-131418167D01*
X195928652Y-131417259D01*
X195959464Y-131400751D01*
X195962401Y-131399496D01*
X195978740Y-131389550D01*
X195983649Y-131386752D01*
X196000516Y-131377768D01*
X196004252Y-131375030D01*
X196032382Y-131357810D01*
X196038076Y-131354944D01*
X196052449Y-131344914D01*
X196057644Y-131341528D01*
X196072597Y-131332428D01*
X196072600Y-131332426D01*
X196072598Y-131332426D01*
X196072602Y-131332425D01*
X196078678Y-131327414D01*
X196103946Y-131309679D01*
X196112423Y-131304663D01*
X196124770Y-131294734D01*
X196130145Y-131290707D01*
X196143132Y-131281647D01*
X196153182Y-131272246D01*
X196158765Y-131267403D01*
X196166640Y-131261070D01*
X196172110Y-131256976D01*
X196184842Y-131248114D01*
X196195112Y-131238528D01*
X196200642Y-131233734D01*
X196211600Y-131224925D01*
X196222162Y-131213604D01*
X196227017Y-131208748D01*
X196228533Y-131207333D01*
X196236465Y-131199929D01*
X196241157Y-131195819D01*
X196254520Y-131184843D01*
X196262795Y-131175784D01*
X196268349Y-131170170D01*
X196277341Y-131161778D01*
X196288170Y-131148303D01*
X196292245Y-131143549D01*
X196302927Y-131131858D01*
X196306879Y-131127775D01*
X196320477Y-131114517D01*
X196326922Y-131106128D01*
X196332330Y-131099676D01*
X196339493Y-131091837D01*
X196339503Y-131091821D01*
X196341006Y-131089922D01*
X196341926Y-131089172D01*
X196344294Y-131086582D01*
X196344677Y-131086932D01*
X196407968Y-131035411D01*
X196410791Y-131033997D01*
X196414471Y-131032249D01*
X196436230Y-131022463D01*
X196436240Y-131022456D01*
X196442491Y-131019090D01*
X196442741Y-131019555D01*
X196460366Y-131010645D01*
X196460233Y-131010364D01*
X196466647Y-131007328D01*
X196466659Y-131007324D01*
X196485542Y-130996676D01*
X196489792Y-130994416D01*
X196509169Y-130984709D01*
X196515638Y-130980212D01*
X196523493Y-130975282D01*
X196526208Y-130973748D01*
X196532296Y-130970316D01*
X196539978Y-130966415D01*
X196549048Y-130962299D01*
X196565621Y-130951700D01*
X196570311Y-130948883D01*
X196587433Y-130939231D01*
X196595287Y-130933182D01*
X196602382Y-130928196D01*
X196617819Y-130918326D01*
X196624766Y-130914271D01*
X196635221Y-130908724D01*
X196649555Y-130898257D01*
X196654573Y-130894825D01*
X196669537Y-130885259D01*
X196678487Y-130877538D01*
X196684795Y-130872529D01*
X196705957Y-130857078D01*
X196712109Y-130852931D01*
X196723709Y-130845733D01*
X196735915Y-130835486D01*
X196741165Y-130831374D01*
X196754063Y-130821958D01*
X196763827Y-130812423D01*
X196769333Y-130807436D01*
X196795120Y-130785793D01*
X196800586Y-130781521D01*
X196812925Y-130772555D01*
X196823185Y-130762579D01*
X196828551Y-130757731D01*
X196839498Y-130748545D01*
X196849673Y-130737166D01*
X196854470Y-130732166D01*
X196854479Y-130732158D01*
X196879285Y-130708042D01*
X196885606Y-130702402D01*
X196893748Y-130695739D01*
X196906611Y-130681706D01*
X196910562Y-130677638D01*
X196924230Y-130664353D01*
X196924940Y-130663431D01*
X196932563Y-130654654D01*
X196937100Y-130650006D01*
X196937115Y-130649994D01*
X196952923Y-130631305D01*
X196955483Y-130628399D01*
X196972006Y-130610379D01*
X196972017Y-130610362D01*
X196973543Y-130608439D01*
X196977557Y-130603691D01*
X196979616Y-130601402D01*
X196979629Y-130601390D01*
X196994488Y-130582298D01*
X196996989Y-130579216D01*
X197012617Y-130560745D01*
X197012621Y-130560738D01*
X197014727Y-130557855D01*
X197018439Y-130553083D01*
X197021082Y-130549887D01*
X197021090Y-130549880D01*
X197034996Y-130530394D01*
X197037451Y-130527103D01*
X197038647Y-130525565D01*
X197052139Y-130508234D01*
X197052152Y-130508210D01*
X197054732Y-130504360D01*
X197058165Y-130499548D01*
X197061242Y-130495494D01*
X197061246Y-130495490D01*
X197074231Y-130475574D01*
X197076547Y-130472179D01*
X197090371Y-130452814D01*
X197090377Y-130452801D01*
X197093322Y-130447984D01*
X197096495Y-130443115D01*
X197099888Y-130438225D01*
X197099899Y-130438213D01*
X197111957Y-130417882D01*
X197114191Y-130414294D01*
X197127076Y-130394534D01*
X197127081Y-130394527D01*
X197127086Y-130394514D01*
X197130277Y-130388763D01*
X197133207Y-130383821D01*
X197136827Y-130378097D01*
X197136840Y-130378080D01*
X197147997Y-130357292D01*
X197150041Y-130353672D01*
X197162077Y-130333382D01*
X197162086Y-130333358D01*
X197165417Y-130326704D01*
X197168121Y-130321667D01*
X197171880Y-130315119D01*
X197171888Y-130315108D01*
X197182129Y-130293893D01*
X197184020Y-130290182D01*
X197195166Y-130269420D01*
X197195170Y-130269406D01*
X197198578Y-130261803D01*
X197201060Y-130256664D01*
X197204841Y-130249375D01*
X197204842Y-130249374D01*
X197214175Y-130227729D01*
X197215932Y-130223883D01*
X197215940Y-130223866D01*
X197226176Y-130202667D01*
X197226180Y-130202652D01*
X197229537Y-130194209D01*
X197231818Y-130188922D01*
X197235546Y-130180921D01*
X197235552Y-130180912D01*
X197243999Y-130158787D01*
X197245555Y-130154954D01*
X197254932Y-130133210D01*
X197254934Y-130133199D01*
X197258181Y-130123901D01*
X197260254Y-130118473D01*
X197263869Y-130109777D01*
X197263878Y-130109761D01*
X197263970Y-130109483D01*
X197264047Y-130109352D01*
X197266610Y-130103192D01*
X197267449Y-130103541D01*
X197298082Y-130051211D01*
X197296187Y-130049731D01*
X197300557Y-130044136D01*
X197300564Y-130044129D01*
X197304846Y-130037756D01*
X197324292Y-130013234D01*
X197328446Y-130008767D01*
X197328450Y-130008763D01*
X197338555Y-129994187D01*
X197342186Y-129989281D01*
X197353159Y-129975378D01*
X197355522Y-129971301D01*
X197374381Y-129944217D01*
X197376566Y-129941577D01*
X197386440Y-129925414D01*
X197389555Y-129920629D01*
X197400368Y-129905036D01*
X197401333Y-129903104D01*
X197416227Y-129878819D01*
X197416217Y-129878813D01*
X197416670Y-129878098D01*
X197419371Y-129873694D01*
X197420029Y-129872806D01*
X197429516Y-129855193D01*
X197432186Y-129850542D01*
X197442625Y-129833458D01*
X197442632Y-129833440D01*
X197445888Y-129827144D01*
X197446005Y-129827204D01*
X197455832Y-129809027D01*
X197455649Y-129808924D01*
X197459142Y-129802738D01*
X197459143Y-129802736D01*
X197459144Y-129802735D01*
X197468087Y-129783864D01*
X197470395Y-129779304D01*
X197480292Y-129760934D01*
X197480293Y-129760928D01*
X197483209Y-129754449D01*
X197483501Y-129754580D01*
X197491346Y-129738078D01*
X197491007Y-129737908D01*
X197494193Y-129731554D01*
X197502452Y-129711652D01*
X197504446Y-129707163D01*
X197513670Y-129687705D01*
X197516252Y-129681073D01*
X197516694Y-129681245D01*
X197522972Y-129666154D01*
X197522962Y-129666151D01*
X197522962Y-129666149D01*
X197522498Y-129665943D01*
X197525374Y-129659455D01*
X197526403Y-129656600D01*
X197532861Y-129638676D01*
X197534553Y-129634304D01*
X197543021Y-129613904D01*
X197543025Y-129613886D01*
X197545271Y-129607159D01*
X197545839Y-129607348D01*
X197550866Y-129593426D01*
X197550279Y-129593198D01*
X197552851Y-129586582D01*
X197552853Y-129586576D01*
X197559461Y-129565166D01*
X197560910Y-129560829D01*
X197568522Y-129539705D01*
X197568524Y-129539692D01*
X197570450Y-129532857D01*
X197571110Y-129533042D01*
X197575140Y-129519999D01*
X197574476Y-129519776D01*
X197576743Y-129513040D01*
X197576750Y-129513024D01*
X197582410Y-129491171D01*
X197583646Y-129486812D01*
X197590312Y-129465221D01*
X197590313Y-129465212D01*
X197590315Y-129465207D01*
X197591922Y-129458286D01*
X197592641Y-129458452D01*
X197595892Y-129445901D01*
X197595183Y-129445698D01*
X197597134Y-129438879D01*
X197597141Y-129438861D01*
X197601797Y-129416735D01*
X197602826Y-129412356D01*
X197608480Y-129390531D01*
X197608481Y-129390517D01*
X197609766Y-129383543D01*
X197610508Y-129383679D01*
X197613118Y-129371259D01*
X197612401Y-129371090D01*
X197614037Y-129364171D01*
X197614188Y-129363237D01*
X197617614Y-129342106D01*
X197618461Y-129337564D01*
X197619433Y-129332945D01*
X197623066Y-129315690D01*
X197623066Y-129315676D01*
X197624030Y-129308645D01*
X197624732Y-129308741D01*
X197626785Y-129296030D01*
X197626124Y-129295907D01*
X197627425Y-129288920D01*
X197627426Y-129288914D01*
X197629892Y-129267120D01*
X197630542Y-129262404D01*
X197630543Y-129262399D01*
X197634051Y-129240777D01*
X197634051Y-129240768D01*
X197635087Y-129234382D01*
X197652965Y-129178385D01*
X197660358Y-129163362D01*
X197661908Y-129160343D01*
X197670767Y-129143810D01*
X197671124Y-129143208D01*
X197672672Y-129140354D01*
X197672679Y-129140344D01*
X197672684Y-129140332D01*
X197673761Y-129138348D01*
X197673950Y-129137966D01*
X197674203Y-129137399D01*
X197674210Y-129137387D01*
X197674214Y-129137374D01*
X197674949Y-129135732D01*
X197676534Y-129131846D01*
X197683887Y-129115640D01*
X197685139Y-129112991D01*
X197691850Y-129099350D01*
X197692839Y-129097545D01*
X197694422Y-129094422D01*
X197694429Y-129094412D01*
X197694433Y-129094400D01*
X197694673Y-129093929D01*
X197696598Y-129089702D01*
X197697134Y-129088614D01*
X197697141Y-129088592D01*
X197697777Y-129087027D01*
X197699650Y-129081987D01*
X197705324Y-129068491D01*
X197706388Y-129066058D01*
X197711496Y-129054799D01*
X197712737Y-129052370D01*
X197714337Y-129049008D01*
X197714340Y-129048999D01*
X197714348Y-129048986D01*
X197714721Y-129048032D01*
X197716754Y-129043214D01*
X197717987Y-129040498D01*
X197717989Y-129040490D01*
X197717993Y-129040482D01*
X197718641Y-129038731D01*
X197720541Y-129033144D01*
X197720811Y-129032454D01*
X197724907Y-129021977D01*
X197725787Y-129019809D01*
X197731260Y-129006789D01*
X197734500Y-128999917D01*
X197734695Y-128999469D01*
X197734703Y-128999455D01*
X197735657Y-128996759D01*
X197736592Y-128994344D01*
X197737005Y-128993122D01*
X197737012Y-128993107D01*
X197737016Y-128993090D01*
X197738382Y-128989055D01*
X197743604Y-128974297D01*
X197744700Y-128971351D01*
X197754424Y-128946486D01*
X197754426Y-128946477D01*
X197756534Y-128939695D01*
X197757245Y-128939916D01*
X197764317Y-128919829D01*
X197763731Y-128919598D01*
X197766342Y-128912981D01*
X197766346Y-128912969D01*
X197774061Y-128888417D01*
X197775168Y-128885104D01*
X197783749Y-128860854D01*
X197783751Y-128860846D01*
X197785638Y-128853995D01*
X197785994Y-128854093D01*
X197790985Y-128836262D01*
X197793268Y-128829976D01*
X197793276Y-128829960D01*
X197801039Y-128802673D01*
X197801783Y-128800192D01*
X197802182Y-128798922D01*
X197810271Y-128773184D01*
X197810273Y-128773169D01*
X197812460Y-128763957D01*
X197815125Y-128754735D01*
X197816266Y-128751393D01*
X197816274Y-128751377D01*
X197824347Y-128720767D01*
X197833010Y-128690325D01*
X197833012Y-128690306D01*
X197833118Y-128689806D01*
X197838993Y-128669485D01*
X197838830Y-128669438D01*
X197840830Y-128662623D01*
X197840834Y-128662614D01*
X197845776Y-128639890D01*
X197846795Y-128635658D01*
X197852721Y-128613192D01*
X197852721Y-128613191D01*
X197852722Y-128613188D01*
X197853149Y-128609486D01*
X197854452Y-128601258D01*
X197857908Y-128584122D01*
X197859899Y-128574966D01*
X197860966Y-128571116D01*
X197862111Y-128566621D01*
X197862112Y-128566619D01*
X197863677Y-128557908D01*
X197864379Y-128554377D01*
X197864803Y-128552428D01*
X197864858Y-128552177D01*
X197864859Y-128552157D01*
X197865198Y-128549798D01*
X197865765Y-128546291D01*
X197867448Y-128536935D01*
X197867829Y-128534932D01*
X197870518Y-128521607D01*
X197871924Y-128516007D01*
X197872449Y-128513684D01*
X197872448Y-128513684D01*
X197872450Y-128513681D01*
X197873095Y-128509419D01*
X197873748Y-128505726D01*
X197873794Y-128505361D01*
X197873797Y-128505351D01*
X197873797Y-128505339D01*
X197874109Y-128502917D01*
X197874425Y-128500657D01*
X197875328Y-128494704D01*
X197876690Y-128485724D01*
X197877130Y-128483072D01*
X197877906Y-128478754D01*
X197880631Y-128463594D01*
X197881485Y-128459766D01*
X197881936Y-128457400D01*
X197881935Y-128457400D01*
X197881939Y-128457389D01*
X197885025Y-128431141D01*
X197885457Y-128427930D01*
X197889418Y-128401823D01*
X197889418Y-128401811D01*
X197889660Y-128398762D01*
X197889778Y-128396290D01*
X197890478Y-128388355D01*
X197890888Y-128383720D01*
X197892146Y-128375321D01*
X197892562Y-128372322D01*
X197892563Y-128372319D01*
X197893206Y-128362659D01*
X197893666Y-128357660D01*
X197894192Y-128353186D01*
X197895148Y-128345064D01*
X197895147Y-128345026D01*
X197895168Y-128344577D01*
X197895259Y-128343453D01*
X197895566Y-128336400D01*
X197895960Y-128327320D01*
X197896252Y-128322884D01*
X197897364Y-128310286D01*
X197897363Y-128310282D01*
X197897534Y-128308353D01*
X197897536Y-128308237D01*
X197897537Y-128308232D01*
X197897770Y-128295786D01*
X197897969Y-128291122D01*
X197898752Y-128279390D01*
X197898751Y-128279387D01*
X197898882Y-128277437D01*
X197898951Y-128275100D01*
X197898864Y-128263487D01*
X197898955Y-128258415D01*
X197899345Y-128249449D01*
X197899423Y-128247654D01*
X197899422Y-128247651D01*
X197899447Y-128247093D01*
X197899469Y-128241958D01*
X197899512Y-128240741D01*
X197899514Y-128240726D01*
X197899148Y-128230323D01*
X197899104Y-128224946D01*
X197899215Y-128219012D01*
X197899289Y-128215110D01*
X197899286Y-128215093D01*
X197899253Y-128214435D01*
X197899230Y-128213169D01*
X197898507Y-128200102D01*
X197898357Y-128195332D01*
X197898257Y-128181735D01*
X197898256Y-128181726D01*
X197897851Y-128176592D01*
X197897602Y-128165290D01*
X197897680Y-128163051D01*
X197896738Y-128154373D01*
X197896285Y-128148050D01*
X197895480Y-128140529D01*
X197895939Y-128140479D01*
X197894645Y-128130289D01*
X197893915Y-128117065D01*
X197893913Y-128117058D01*
X197893889Y-128116612D01*
X197893885Y-128116579D01*
X197893852Y-128116392D01*
X197890514Y-128095756D01*
X197889818Y-128090607D01*
X197889151Y-128084464D01*
X197887713Y-128071213D01*
X197887638Y-128070344D01*
X197887579Y-128069866D01*
X197887504Y-128069490D01*
X197887241Y-128068383D01*
X197883148Y-128049380D01*
X197882194Y-128044320D01*
X197881946Y-128042789D01*
X197878874Y-128023795D01*
X197878870Y-128023784D01*
X197878694Y-128023039D01*
X197878262Y-128021566D01*
X197873438Y-128003682D01*
X197872248Y-127998774D01*
X197868430Y-127981042D01*
X197868013Y-127978899D01*
X197867919Y-127978493D01*
X197867763Y-127977991D01*
X197866996Y-127975787D01*
X197861454Y-127958756D01*
X197860005Y-127953885D01*
X197858665Y-127948917D01*
X197855425Y-127936907D01*
X197854878Y-127934699D01*
X197854662Y-127933948D01*
X197854427Y-127933303D01*
X197854384Y-127933180D01*
X197853445Y-127930871D01*
X197847218Y-127914598D01*
X197845530Y-127909827D01*
X197842053Y-127899142D01*
X197840186Y-127893404D01*
X197839442Y-127890946D01*
X197839390Y-127890800D01*
X197839181Y-127890189D01*
X197838892Y-127889508D01*
X197838845Y-127889394D01*
X197837778Y-127887110D01*
X197830780Y-127871290D01*
X197828852Y-127866609D01*
X197822684Y-127850491D01*
X197821799Y-127848030D01*
X197821524Y-127847341D01*
X197821160Y-127846593D01*
X197819964Y-127844341D01*
X197814315Y-127833146D01*
X197812175Y-127828904D01*
X197810010Y-127824328D01*
X197806254Y-127815836D01*
X197802927Y-127808315D01*
X197801986Y-127806062D01*
X197801894Y-127805869D01*
X197801659Y-127805361D01*
X197801270Y-127804653D01*
X197801239Y-127804596D01*
X197800118Y-127802723D01*
X197791393Y-127787432D01*
X197788984Y-127782948D01*
X197780851Y-127766831D01*
X197779943Y-127764937D01*
X197779666Y-127764408D01*
X197779340Y-127763883D01*
X197778233Y-127762228D01*
X197768466Y-127746989D01*
X197765818Y-127742614D01*
X197756631Y-127726516D01*
X197755931Y-127725225D01*
X197755464Y-127724458D01*
X197747066Y-127712743D01*
X197743377Y-127707598D01*
X197740477Y-127703320D01*
X197734836Y-127694519D01*
X197729759Y-127686597D01*
X197729208Y-127685699D01*
X197729184Y-127685663D01*
X197728673Y-127685048D01*
X197716148Y-127669377D01*
X197713014Y-127665237D01*
X197700703Y-127648064D01*
X197700592Y-127647925D01*
X197700329Y-127647629D01*
X197700328Y-127647628D01*
X197686772Y-127632401D01*
X197683376Y-127628375D01*
X197670421Y-127612167D01*
X197669599Y-127611245D01*
X197669437Y-127611082D01*
X197669436Y-127611080D01*
X197655235Y-127596758D01*
X197651573Y-127592860D01*
X197638030Y-127577647D01*
X197636416Y-127576020D01*
X197621555Y-127562581D01*
X197617641Y-127558843D01*
X197603593Y-127544676D01*
X197599531Y-127541126D01*
X197594846Y-127536663D01*
X197593949Y-127535857D01*
X197593948Y-127535856D01*
X197593947Y-127535855D01*
X197582940Y-127527294D01*
X197577301Y-127522562D01*
X197566971Y-127513221D01*
X197566968Y-127513219D01*
X197566966Y-127513217D01*
X197560232Y-127508685D01*
X197541484Y-127493562D01*
X197541241Y-127493855D01*
X197535780Y-127489311D01*
X197535778Y-127489309D01*
X197515603Y-127474828D01*
X197512565Y-127472558D01*
X197492933Y-127457289D01*
X197486875Y-127453236D01*
X197481504Y-127449379D01*
X197476135Y-127445245D01*
X197455262Y-127431431D01*
X197452172Y-127429302D01*
X197431847Y-127414714D01*
X197431842Y-127414711D01*
X197425985Y-127411112D01*
X197420369Y-127407392D01*
X197415162Y-127403685D01*
X197415163Y-127403685D01*
X197415160Y-127403683D01*
X197393581Y-127390531D01*
X197390513Y-127388581D01*
X197381072Y-127382332D01*
X197369480Y-127374660D01*
X197363820Y-127371471D01*
X197357976Y-127367907D01*
X197352910Y-127364573D01*
X197346098Y-127360757D01*
X197330744Y-127352155D01*
X197327605Y-127350320D01*
X197305947Y-127337120D01*
X197305946Y-127337119D01*
X197300467Y-127334295D01*
X197294409Y-127330898D01*
X197289523Y-127327931D01*
X197289520Y-127327929D01*
X197289518Y-127327928D01*
X197271284Y-127318563D01*
X197266765Y-127316242D01*
X197263594Y-127314540D01*
X197261687Y-127313472D01*
X197241323Y-127302064D01*
X197241322Y-127302063D01*
X197241321Y-127302063D01*
X197236079Y-127299600D01*
X197229804Y-127296376D01*
X197225056Y-127293719D01*
X197225052Y-127293717D01*
X197201785Y-127282797D01*
X197198607Y-127281235D01*
X197175725Y-127269484D01*
X197170672Y-127267330D01*
X197164202Y-127264291D01*
X197159613Y-127261931D01*
X197135797Y-127251759D01*
X197132607Y-127250330D01*
X197109237Y-127239363D01*
X197104353Y-127237483D01*
X197097706Y-127234642D01*
X197093284Y-127232559D01*
X197069044Y-127223189D01*
X197065856Y-127221893D01*
X197041945Y-127211682D01*
X197041937Y-127211680D01*
X197037259Y-127210066D01*
X197030429Y-127207424D01*
X197026130Y-127205576D01*
X197001476Y-127197009D01*
X196998270Y-127195832D01*
X196973928Y-127186424D01*
X196969405Y-127185038D01*
X196962424Y-127182610D01*
X196958225Y-127180973D01*
X196933198Y-127173220D01*
X196929981Y-127172163D01*
X196905257Y-127163571D01*
X196900866Y-127162389D01*
X196893741Y-127160180D01*
X196889661Y-127158745D01*
X196870392Y-127153483D01*
X196864300Y-127151820D01*
X196861098Y-127150887D01*
X196835975Y-127143105D01*
X196831731Y-127142116D01*
X196824502Y-127140141D01*
X196820502Y-127138884D01*
X196794858Y-127132797D01*
X196791627Y-127131973D01*
X196771896Y-127126585D01*
X196766213Y-127125033D01*
X196766212Y-127125032D01*
X196766209Y-127125032D01*
X196762078Y-127124215D01*
X196754744Y-127122474D01*
X196750791Y-127121375D01*
X196724942Y-127116145D01*
X196721700Y-127115432D01*
X196695999Y-127109332D01*
X196691947Y-127108671D01*
X196684537Y-127107171D01*
X196680661Y-127106232D01*
X196654569Y-127101849D01*
X196651322Y-127101248D01*
X196645092Y-127099988D01*
X196599964Y-127084372D01*
X196599890Y-127084551D01*
X196597033Y-127083358D01*
X196595021Y-127082662D01*
X196592795Y-127081541D01*
X196586888Y-127078803D01*
X196585839Y-127078267D01*
X196585826Y-127078261D01*
X196583280Y-127077390D01*
X196577198Y-127075083D01*
X196568085Y-127071282D01*
X196567760Y-127071132D01*
X196557920Y-127066363D01*
X196556326Y-127065477D01*
X196555936Y-127065260D01*
X196555932Y-127065259D01*
X196553548Y-127064349D01*
X196547432Y-127061778D01*
X196543225Y-127059842D01*
X196536581Y-127057342D01*
X196536745Y-127056903D01*
X196522773Y-127051311D01*
X196522576Y-127051778D01*
X196516036Y-127049001D01*
X196511515Y-127047453D01*
X196505457Y-127045155D01*
X196502491Y-127043917D01*
X196500294Y-127043351D01*
X196489666Y-127039963D01*
X196463868Y-127030115D01*
X196460859Y-127029207D01*
X196453535Y-127026681D01*
X196453235Y-127026564D01*
X196453228Y-127026561D01*
X196453219Y-127026558D01*
X196453216Y-127026557D01*
X196427117Y-127018493D01*
X196424252Y-127017560D01*
X196405959Y-127011295D01*
X196398407Y-127008708D01*
X196398404Y-127008707D01*
X196398400Y-127008706D01*
X196396226Y-127008294D01*
X196385386Y-127005600D01*
X196320912Y-126985681D01*
X196278911Y-126972149D01*
X196276724Y-126971417D01*
X196264604Y-126967199D01*
X196255690Y-126963606D01*
X196243662Y-126958069D01*
X196228350Y-126953521D01*
X196221981Y-126951393D01*
X196207038Y-126945832D01*
X196207022Y-126945828D01*
X196203485Y-126945061D01*
X196193181Y-126942240D01*
X196186186Y-126939914D01*
X196162297Y-126933824D01*
X196158554Y-126932792D01*
X196134912Y-126925771D01*
X196133878Y-126925543D01*
X196129083Y-126924312D01*
X196107628Y-126919657D01*
X196103220Y-126918700D01*
X196099760Y-126917884D01*
X196074544Y-126911458D01*
X196071763Y-126910851D01*
X196043905Y-126905773D01*
X196040655Y-126905124D01*
X196013574Y-126899249D01*
X195984373Y-126894872D01*
X195981287Y-126894360D01*
X195953635Y-126889320D01*
X195924434Y-126885842D01*
X195921460Y-126885443D01*
X195893397Y-126881237D01*
X195864294Y-126878639D01*
X195861380Y-126878336D01*
X195832876Y-126874941D01*
X195803811Y-126873196D01*
X195800984Y-126872985D01*
X195784874Y-126871547D01*
X195772047Y-126870401D01*
X195747624Y-126869648D01*
X195743138Y-126869509D01*
X195740253Y-126869378D01*
X195711015Y-126867622D01*
X195682217Y-126867587D01*
X195679273Y-126867540D01*
X195649762Y-126866629D01*
X195621252Y-126867467D01*
X195618217Y-126867510D01*
X195588367Y-126867475D01*
X195560036Y-126869214D01*
X195556865Y-126869358D01*
X195527968Y-126870208D01*
X195525713Y-126870348D01*
X195498753Y-126872923D01*
X195495406Y-126873185D01*
X195485870Y-126873771D01*
X195468145Y-126874861D01*
X195463088Y-126875351D01*
X195462585Y-126875381D01*
X195462584Y-126875381D01*
X195462583Y-126875381D01*
X195448419Y-126877257D01*
X195437364Y-126878721D01*
X195433766Y-126879131D01*
X195401333Y-126882231D01*
X195401225Y-126881106D01*
X195354357Y-126882043D01*
X195349527Y-126881429D01*
X195321567Y-126877456D01*
X195318826Y-126877028D01*
X195290979Y-126872276D01*
X195266320Y-126869465D01*
X195262614Y-126869042D01*
X195259892Y-126868694D01*
X195231731Y-126864692D01*
X195203138Y-126862224D01*
X195200431Y-126861953D01*
X195171851Y-126858694D01*
X195143116Y-126857002D01*
X195140411Y-126856806D01*
X195111553Y-126854314D01*
X195086825Y-126853536D01*
X195082561Y-126853402D01*
X195079865Y-126853280D01*
X195051654Y-126851619D01*
X195049956Y-126851640D01*
X195043536Y-126851600D01*
X195022002Y-126851464D01*
X195019505Y-126851417D01*
X195014379Y-126851256D01*
X195008436Y-126851068D01*
X195006197Y-126850972D01*
X194999705Y-126850618D01*
X194999703Y-126850618D01*
X194999700Y-126850618D01*
X194998441Y-126850639D01*
X194993666Y-126850604D01*
X194990636Y-126850508D01*
X194986814Y-126850660D01*
X194983130Y-126850894D01*
X194970153Y-126851112D01*
X194967857Y-126851124D01*
X194958621Y-126851066D01*
X194956118Y-126851019D01*
X194948151Y-126850768D01*
X194945429Y-126850877D01*
X194940862Y-126850954D01*
X194938296Y-126850938D01*
X194930614Y-126851438D01*
X194928128Y-126851569D01*
X194918683Y-126851947D01*
X194916373Y-126852013D01*
X194906714Y-126852175D01*
X194904260Y-126852185D01*
X194896325Y-126852122D01*
X194893792Y-126852283D01*
X194889186Y-126852468D01*
X194886881Y-126852507D01*
X194879351Y-126853172D01*
X194876913Y-126853357D01*
X194866989Y-126853988D01*
X194864655Y-126854108D01*
X194854521Y-126854514D01*
X194852140Y-126854580D01*
X194844247Y-126854706D01*
X194841985Y-126854904D01*
X194837314Y-126855202D01*
X194835251Y-126855284D01*
X194827842Y-126856113D01*
X194825457Y-126856351D01*
X194815016Y-126857264D01*
X194812667Y-126857441D01*
X194802192Y-126858108D01*
X194799871Y-126858229D01*
X194791929Y-126858548D01*
X194791928Y-126858548D01*
X194791926Y-126858548D01*
X194791905Y-126858549D01*
X194789866Y-126858777D01*
X194785144Y-126859192D01*
X194783408Y-126859302D01*
X194776156Y-126860285D01*
X194773873Y-126860568D01*
X194762864Y-126861801D01*
X194760469Y-126862040D01*
X194749610Y-126862990D01*
X194747376Y-126863161D01*
X194739422Y-126863676D01*
X194737654Y-126863919D01*
X194732852Y-126864457D01*
X194731413Y-126864583D01*
X194724273Y-126865724D01*
X194722074Y-126866050D01*
X194710569Y-126867626D01*
X194708142Y-126867928D01*
X194702669Y-126868541D01*
X194696803Y-126869198D01*
X194694656Y-126869415D01*
X194686725Y-126870128D01*
X194685212Y-126870374D01*
X194680375Y-126871037D01*
X194679256Y-126871162D01*
X194672312Y-126872447D01*
X194670181Y-126872817D01*
X194658166Y-126874770D01*
X194655707Y-126875138D01*
X194647118Y-126876315D01*
X194643788Y-126876771D01*
X194641756Y-126877028D01*
X194633904Y-126877936D01*
X194632731Y-126878158D01*
X194627835Y-126878955D01*
X194627028Y-126879065D01*
X194620169Y-126880509D01*
X194618150Y-126880912D01*
X194605597Y-126883283D01*
X194603095Y-126883722D01*
X194590007Y-126885850D01*
X194586385Y-126886370D01*
X194586265Y-126886384D01*
X194580956Y-126887141D01*
X194580066Y-126887334D01*
X194575046Y-126888283D01*
X194574688Y-126888341D01*
X194567150Y-126890125D01*
X194552989Y-126893185D01*
X194550452Y-126893699D01*
X194536724Y-126896292D01*
X194527954Y-126897783D01*
X194527494Y-126897896D01*
X194522383Y-126899002D01*
X194522340Y-126899009D01*
X194514883Y-126900976D01*
X194500327Y-126904532D01*
X194497737Y-126905128D01*
X194483547Y-126908195D01*
X194474917Y-126909905D01*
X194474772Y-126909945D01*
X194470143Y-126911077D01*
X194462990Y-126913167D01*
X194447687Y-126917353D01*
X194445045Y-126918036D01*
X194430236Y-126921653D01*
X194421701Y-126923595D01*
X194418124Y-126924575D01*
X194411120Y-126926826D01*
X194395083Y-126931700D01*
X194392399Y-126932475D01*
X194376975Y-126936693D01*
X194368503Y-126938880D01*
X194366085Y-126939617D01*
X194359584Y-126941906D01*
X194342570Y-126947619D01*
X194339837Y-126948493D01*
X194323646Y-126953414D01*
X194319289Y-126954678D01*
X194283743Y-126961559D01*
X194273431Y-126962594D01*
X194266327Y-126963052D01*
X194229225Y-126964112D01*
X194221840Y-126964049D01*
X194218959Y-126963917D01*
X194207963Y-126963414D01*
X194192400Y-126964930D01*
X194185603Y-126965358D01*
X194169950Y-126965805D01*
X194157678Y-126967929D01*
X194156249Y-126968176D01*
X194148930Y-126969164D01*
X194112827Y-126972680D01*
X194105212Y-126973128D01*
X194093818Y-126973360D01*
X194092085Y-126973396D01*
X194092083Y-126973396D01*
X194075881Y-126976062D01*
X194069379Y-126976912D01*
X194066901Y-126977154D01*
X194053026Y-126978506D01*
X194040275Y-126981624D01*
X194032796Y-126983152D01*
X193997637Y-126988938D01*
X193989835Y-126989907D01*
X193977454Y-126990951D01*
X193960768Y-126994802D01*
X193954551Y-126996029D01*
X193937644Y-126998811D01*
X193937643Y-126998811D01*
X193925790Y-127002554D01*
X193918209Y-127004622D01*
X193896498Y-127009632D01*
X193883933Y-127012532D01*
X193876010Y-127014026D01*
X193864340Y-127015738D01*
X193864331Y-127015740D01*
X193847302Y-127020792D01*
X193841380Y-127022353D01*
X193824080Y-127026345D01*
X193813085Y-127030604D01*
X193805456Y-127033208D01*
X193771979Y-127043143D01*
X193763976Y-127045161D01*
X193758021Y-127046403D01*
X193752965Y-127047457D01*
X193752964Y-127047457D01*
X193735753Y-127053707D01*
X193730098Y-127055570D01*
X193712567Y-127060772D01*
X193712564Y-127060773D01*
X193702338Y-127065477D01*
X193694714Y-127068608D01*
X193661995Y-127080489D01*
X193653993Y-127083019D01*
X193643568Y-127085836D01*
X193626330Y-127093260D01*
X193620938Y-127095398D01*
X193603317Y-127101796D01*
X193603308Y-127101801D01*
X193593790Y-127106890D01*
X193586231Y-127110531D01*
X193554182Y-127124334D01*
X193546235Y-127127361D01*
X193536346Y-127130651D01*
X193519231Y-127139213D01*
X193514086Y-127141605D01*
X193496518Y-127149173D01*
X193496516Y-127149174D01*
X193487633Y-127154614D01*
X193480191Y-127158744D01*
X193448796Y-127174451D01*
X193440941Y-127177965D01*
X193431522Y-127181698D01*
X193431514Y-127181702D01*
X193414681Y-127191342D01*
X193409758Y-127193981D01*
X193392386Y-127202672D01*
X193392385Y-127202673D01*
X193384049Y-127208458D01*
X193376777Y-127213051D01*
X193346033Y-127230660D01*
X193338329Y-127234637D01*
X193329308Y-127238806D01*
X193329299Y-127238811D01*
X193312849Y-127249488D01*
X193308136Y-127252364D01*
X193291125Y-127262108D01*
X193291113Y-127262116D01*
X193283284Y-127268228D01*
X193276226Y-127273260D01*
X193246099Y-127292814D01*
X193238601Y-127297227D01*
X193229930Y-127301832D01*
X193229928Y-127301834D01*
X193213998Y-127313470D01*
X193209486Y-127316580D01*
X193192929Y-127327327D01*
X193192922Y-127327332D01*
X193185529Y-127333797D01*
X193178727Y-127339239D01*
X193149272Y-127360757D01*
X193142015Y-127365585D01*
X193133648Y-127370638D01*
X193133621Y-127370657D01*
X193118316Y-127383186D01*
X193113989Y-127386534D01*
X193098041Y-127398185D01*
X193098040Y-127398186D01*
X193091049Y-127405015D01*
X193084550Y-127410830D01*
X193055772Y-127434388D01*
X193048798Y-127439605D01*
X193040708Y-127445121D01*
X193040688Y-127445137D01*
X193026112Y-127458476D01*
X193021975Y-127462057D01*
X193006703Y-127474560D01*
X193006694Y-127474569D01*
X193000074Y-127481789D01*
X192993909Y-127487949D01*
X192965898Y-127513585D01*
X192959242Y-127519163D01*
X192951390Y-127525179D01*
X192951379Y-127525189D01*
X192937641Y-127539238D01*
X192933686Y-127543064D01*
X192919183Y-127556338D01*
X192919173Y-127556349D01*
X192912903Y-127563993D01*
X192907112Y-127570458D01*
X192879918Y-127598267D01*
X192873621Y-127604172D01*
X192866007Y-127610714D01*
X192853168Y-127625403D01*
X192849397Y-127629481D01*
X192835762Y-127643425D01*
X192835747Y-127643442D01*
X192829820Y-127651548D01*
X192824432Y-127658280D01*
X192814734Y-127669377D01*
X192798190Y-127688305D01*
X192792274Y-127694513D01*
X192784893Y-127701617D01*
X192784886Y-127701625D01*
X192773023Y-127716857D01*
X192769444Y-127721192D01*
X192756737Y-127735731D01*
X192751163Y-127744323D01*
X192746195Y-127751302D01*
X192721011Y-127783639D01*
X192715510Y-127790113D01*
X192708392Y-127797797D01*
X192708391Y-127797799D01*
X192697556Y-127813488D01*
X192694188Y-127818078D01*
X192682467Y-127833128D01*
X192682455Y-127833146D01*
X192677261Y-127842241D01*
X192672735Y-127849434D01*
X192648776Y-127884129D01*
X192643712Y-127890837D01*
X192636875Y-127899140D01*
X192636875Y-127899141D01*
X192627115Y-127915200D01*
X192623965Y-127920058D01*
X192613288Y-127935521D01*
X192613284Y-127935527D01*
X192608499Y-127945147D01*
X192604440Y-127952510D01*
X192581847Y-127989684D01*
X192577240Y-127996597D01*
X192570745Y-128005512D01*
X192570735Y-128005528D01*
X192562093Y-128021855D01*
X192559187Y-128026971D01*
X192549574Y-128042790D01*
X192549568Y-128042803D01*
X192545230Y-128052968D01*
X192541653Y-128060466D01*
X192520664Y-128100116D01*
X192516527Y-128107209D01*
X192510402Y-128116777D01*
X192510394Y-128116792D01*
X192502874Y-128133334D01*
X192500238Y-128138700D01*
X192491728Y-128154777D01*
X192491721Y-128154793D01*
X192487894Y-128165475D01*
X192484807Y-128173085D01*
X192465609Y-128215319D01*
X192461960Y-128222551D01*
X192456284Y-128232744D01*
X192456283Y-128232746D01*
X192449893Y-128249449D01*
X192447547Y-128255062D01*
X192440148Y-128271340D01*
X192440142Y-128271355D01*
X192436882Y-128282534D01*
X192434293Y-128290227D01*
X192417151Y-128335032D01*
X192413991Y-128342390D01*
X192408835Y-128353174D01*
X192408833Y-128353180D01*
X192403575Y-128369984D01*
X192401549Y-128375816D01*
X192395263Y-128392250D01*
X192395261Y-128392259D01*
X192393096Y-128401825D01*
X192392624Y-128403908D01*
X192390540Y-128411648D01*
X192375708Y-128459057D01*
X192373042Y-128466522D01*
X192368475Y-128477861D01*
X192368475Y-128477862D01*
X192364351Y-128494702D01*
X192362669Y-128500737D01*
X192357498Y-128517268D01*
X192357493Y-128517288D01*
X192355544Y-128529335D01*
X192353965Y-128537108D01*
X192341723Y-128587097D01*
X192339554Y-128594651D01*
X192335652Y-128606457D01*
X192332642Y-128623333D01*
X192331333Y-128629525D01*
X192327260Y-128646157D01*
X192326053Y-128658514D01*
X192324979Y-128666306D01*
X192322412Y-128680702D01*
X192315608Y-128718856D01*
X192313937Y-128726481D01*
X192310763Y-128738658D01*
X192310762Y-128738662D01*
X192308861Y-128755528D01*
X192307942Y-128761849D01*
X192304963Y-128778556D01*
X192304540Y-128791118D01*
X192303971Y-128798915D01*
X192297766Y-128853965D01*
X192296591Y-128861665D01*
X192294193Y-128874097D01*
X192293387Y-128890969D01*
X192292875Y-128897356D01*
X192290985Y-128914130D01*
X192290984Y-128914136D01*
X192291371Y-128926781D01*
X192291304Y-128934568D01*
X192288557Y-128992048D01*
X192287883Y-128999788D01*
X192286291Y-129012363D01*
X192286290Y-129012370D01*
X192286573Y-129029239D01*
X192286474Y-129035641D01*
X192285668Y-129052519D01*
X192286871Y-129065137D01*
X192287306Y-129072911D01*
X192288307Y-129132678D01*
X192288132Y-129140486D01*
X192287355Y-129153041D01*
X192287356Y-129153061D01*
X192287530Y-129155207D01*
X192287386Y-129156202D01*
X192287424Y-129160152D01*
X192286814Y-129160157D01*
X192274864Y-129242860D01*
X192225420Y-129316337D01*
X192148993Y-129361084D01*
X192060719Y-129368239D01*
X192037444Y-129363442D01*
X192036689Y-129363238D01*
X192036681Y-129363237D01*
X192017878Y-129360963D01*
X192012364Y-129360139D01*
X192007124Y-129359205D01*
X191993679Y-129356808D01*
X191993672Y-129356807D01*
X191983896Y-129356478D01*
X191975301Y-129355814D01*
X191812740Y-129336157D01*
X191803659Y-129334630D01*
X191795868Y-129332945D01*
X191795844Y-129332942D01*
X191775153Y-129331486D01*
X191770201Y-129331013D01*
X191749583Y-129328521D01*
X191749562Y-129328520D01*
X191741595Y-129328699D01*
X191732386Y-129328479D01*
X191611414Y-129319971D01*
X191599109Y-129318330D01*
X191582654Y-129315081D01*
X191569608Y-129313206D01*
X191569605Y-129313206D01*
X191518704Y-129313206D01*
X191511723Y-129312961D01*
X191497041Y-129311928D01*
X191492488Y-129311933D01*
X191488030Y-129312019D01*
X191485423Y-129312256D01*
X191479451Y-129312798D01*
X191470452Y-129313206D01*
X191425681Y-129313206D01*
X191417520Y-129314379D01*
X191397655Y-129317975D01*
X191386121Y-129320498D01*
X191373854Y-129322389D01*
X191313660Y-129327856D01*
X191250245Y-129333616D01*
X191242439Y-129334017D01*
X191230244Y-129334163D01*
X191230234Y-129334164D01*
X191213876Y-129336714D01*
X191207556Y-129337493D01*
X191191087Y-129338989D01*
X191191070Y-129338992D01*
X191179204Y-129341813D01*
X191171528Y-129343321D01*
X191031715Y-129365130D01*
X190943367Y-129358966D01*
X190866442Y-129315079D01*
X190816177Y-129242162D01*
X190803388Y-129160176D01*
X190802577Y-129160169D01*
X190802623Y-129155271D01*
X190802528Y-129154657D01*
X190802644Y-129153112D01*
X190802645Y-129153051D01*
X190801868Y-129140493D01*
X190801691Y-129132691D01*
X190802693Y-129072892D01*
X190803129Y-129065122D01*
X190804331Y-129052524D01*
X190803524Y-129035649D01*
X190803425Y-129029268D01*
X190803709Y-129012360D01*
X190802116Y-128999788D01*
X190801441Y-128992048D01*
X190798696Y-128934568D01*
X190798629Y-128926786D01*
X190798740Y-128923148D01*
X190799016Y-128914135D01*
X190797124Y-128897356D01*
X190796612Y-128890969D01*
X190795807Y-128874101D01*
X190793408Y-128861665D01*
X190792235Y-128853976D01*
X190790238Y-128836256D01*
X190786027Y-128798907D01*
X190785459Y-128791118D01*
X190785037Y-128778553D01*
X190783011Y-128767198D01*
X190782059Y-128761853D01*
X190781139Y-128755525D01*
X190779239Y-128738667D01*
X190779239Y-128738665D01*
X190776066Y-128726495D01*
X190774391Y-128718856D01*
X190774258Y-128718108D01*
X190765016Y-128666285D01*
X190763946Y-128658512D01*
X190762740Y-128646154D01*
X190761609Y-128641538D01*
X190758668Y-128629529D01*
X190757356Y-128623322D01*
X190755737Y-128614242D01*
X190754350Y-128606462D01*
X190752280Y-128600201D01*
X190750451Y-128594666D01*
X190748279Y-128587104D01*
X190736034Y-128537107D01*
X190734454Y-128529322D01*
X190732508Y-128517290D01*
X190732506Y-128517281D01*
X190732505Y-128517279D01*
X190727334Y-128500748D01*
X190725650Y-128494704D01*
X190721525Y-128477859D01*
X190718492Y-128470332D01*
X190716954Y-128466514D01*
X190714296Y-128459075D01*
X190699461Y-128411656D01*
X190697375Y-128403906D01*
X190694739Y-128392255D01*
X190688441Y-128375794D01*
X190686428Y-128370000D01*
X190681169Y-128353186D01*
X190676007Y-128342390D01*
X190672854Y-128335051D01*
X190655706Y-128290227D01*
X190653116Y-128282528D01*
X190651635Y-128277451D01*
X190649854Y-128271342D01*
X190642446Y-128255044D01*
X190640106Y-128249448D01*
X190633716Y-128232744D01*
X190629401Y-128224997D01*
X190628041Y-128222555D01*
X190624382Y-128215306D01*
X190623986Y-128214435D01*
X190605192Y-128173085D01*
X190602109Y-128165483D01*
X190601994Y-128165164D01*
X190598279Y-128154794D01*
X190598278Y-128154792D01*
X190598278Y-128154791D01*
X190590701Y-128140479D01*
X190589758Y-128138699D01*
X190587122Y-128133334D01*
X190579598Y-128116779D01*
X190573475Y-128107216D01*
X190569351Y-128100148D01*
X190550382Y-128064311D01*
X190548337Y-128060448D01*
X190544755Y-128052938D01*
X190542159Y-128046854D01*
X190540427Y-128042793D01*
X190530832Y-128027005D01*
X190527920Y-128021877D01*
X190519263Y-128005524D01*
X190519254Y-128005512D01*
X190512749Y-127996583D01*
X190508141Y-127989668D01*
X190499705Y-127975787D01*
X190485553Y-127952501D01*
X190481508Y-127945164D01*
X190476716Y-127935529D01*
X190466033Y-127920058D01*
X190462884Y-127915200D01*
X190453123Y-127899139D01*
X190446287Y-127890837D01*
X190441225Y-127884132D01*
X190417256Y-127849421D01*
X190412726Y-127842221D01*
X190407537Y-127833134D01*
X190395813Y-127818080D01*
X190392447Y-127813494D01*
X190381609Y-127797798D01*
X190374482Y-127790104D01*
X190368991Y-127783642D01*
X190343800Y-127751299D01*
X190338837Y-127744327D01*
X190333261Y-127735731D01*
X190320544Y-127721182D01*
X190316980Y-127716863D01*
X190305108Y-127701619D01*
X190297732Y-127694519D01*
X190291820Y-127688316D01*
X190275267Y-127669377D01*
X190265565Y-127658276D01*
X190260163Y-127651525D01*
X190257947Y-127648495D01*
X190257314Y-127647629D01*
X190254252Y-127643441D01*
X190254250Y-127643439D01*
X190254248Y-127643436D01*
X190240608Y-127629487D01*
X190236845Y-127625417D01*
X190225296Y-127612204D01*
X190223994Y-127610714D01*
X190216379Y-127604172D01*
X190210078Y-127598265D01*
X190182896Y-127570467D01*
X190177103Y-127564002D01*
X190170824Y-127556345D01*
X190156305Y-127543057D01*
X190152358Y-127539237D01*
X190138618Y-127525187D01*
X190138616Y-127525185D01*
X190130779Y-127519181D01*
X190124113Y-127513595D01*
X190096092Y-127487950D01*
X190089920Y-127481783D01*
X190083302Y-127474563D01*
X190083299Y-127474561D01*
X190080839Y-127472547D01*
X190068008Y-127462043D01*
X190063870Y-127458460D01*
X190060050Y-127454964D01*
X190049307Y-127445132D01*
X190049299Y-127445126D01*
X190049296Y-127445124D01*
X190041219Y-127439618D01*
X190034233Y-127434393D01*
X190024156Y-127426144D01*
X190005445Y-127410826D01*
X189998951Y-127405015D01*
X189991961Y-127398186D01*
X189975982Y-127386512D01*
X189971668Y-127383174D01*
X189961260Y-127374654D01*
X189956367Y-127370648D01*
X189948005Y-127365599D01*
X189940735Y-127360762D01*
X189911265Y-127339232D01*
X189904463Y-127333790D01*
X189897082Y-127327336D01*
X189897077Y-127327332D01*
X189897071Y-127327327D01*
X189880514Y-127316580D01*
X189876004Y-127313472D01*
X189872277Y-127310749D01*
X189860076Y-127301836D01*
X189855851Y-127299592D01*
X189851397Y-127297226D01*
X189843894Y-127292810D01*
X189813767Y-127273255D01*
X189806706Y-127268221D01*
X189798880Y-127262110D01*
X189781865Y-127252365D01*
X189777142Y-127249483D01*
X189761551Y-127239363D01*
X189760699Y-127238810D01*
X189760697Y-127238809D01*
X189760694Y-127238807D01*
X189751686Y-127234644D01*
X189743973Y-127230663D01*
X189713224Y-127213052D01*
X189705943Y-127208453D01*
X189697622Y-127202678D01*
X189697616Y-127202674D01*
X189697611Y-127202671D01*
X189697604Y-127202667D01*
X189697593Y-127202661D01*
X189680237Y-127193977D01*
X189675313Y-127191338D01*
X189658483Y-127181700D01*
X189649055Y-127177963D01*
X189641201Y-127174449D01*
X189609813Y-127158747D01*
X189602364Y-127154613D01*
X189593484Y-127149174D01*
X189579403Y-127143109D01*
X189575899Y-127141599D01*
X189570758Y-127139208D01*
X189553662Y-127130655D01*
X189553648Y-127130650D01*
X189543776Y-127127366D01*
X189535818Y-127124335D01*
X189503769Y-127110531D01*
X189496203Y-127106887D01*
X189486689Y-127101799D01*
X189469051Y-127095394D01*
X189463652Y-127093253D01*
X189446430Y-127085835D01*
X189446431Y-127085835D01*
X189436014Y-127083021D01*
X189428005Y-127080490D01*
X189395263Y-127068601D01*
X189387641Y-127065469D01*
X189377436Y-127060772D01*
X189359890Y-127055566D01*
X189354239Y-127053704D01*
X189337040Y-127047458D01*
X189337032Y-127047456D01*
X189337031Y-127047456D01*
X189326011Y-127045158D01*
X189318026Y-127043144D01*
X189284548Y-127033210D01*
X189276909Y-127030602D01*
X189265922Y-127026345D01*
X189265914Y-127026343D01*
X189248623Y-127022353D01*
X189242696Y-127020792D01*
X189233441Y-127018046D01*
X189225666Y-127015739D01*
X189225663Y-127015738D01*
X189225658Y-127015737D01*
X189225661Y-127015737D01*
X189213990Y-127014025D01*
X189206058Y-127012531D01*
X189203625Y-127011969D01*
X189171785Y-127004621D01*
X189164202Y-127002552D01*
X189152356Y-126998811D01*
X189135441Y-126996028D01*
X189129225Y-126994800D01*
X189112546Y-126990951D01*
X189100168Y-126989908D01*
X189092369Y-126988939D01*
X189057212Y-126983154D01*
X189049721Y-126981624D01*
X189036979Y-126978507D01*
X189036962Y-126978504D01*
X189020625Y-126976912D01*
X189014126Y-126976062D01*
X188997928Y-126973397D01*
X188997918Y-126973396D01*
X188997916Y-126973396D01*
X188996433Y-126973365D01*
X188984786Y-126973128D01*
X188977169Y-126972680D01*
X188941071Y-126969164D01*
X188933753Y-126968176D01*
X188920048Y-126965805D01*
X188920052Y-126965805D01*
X188904397Y-126965358D01*
X188897600Y-126964930D01*
X188882035Y-126963414D01*
X188869736Y-126963976D01*
X188868160Y-126964049D01*
X188860774Y-126964112D01*
X188823671Y-126963052D01*
X188816574Y-126962594D01*
X188813145Y-126962250D01*
X188806239Y-126961556D01*
X188770706Y-126954677D01*
X188766360Y-126953416D01*
X188750167Y-126948494D01*
X188747449Y-126947625D01*
X188731408Y-126942240D01*
X188730372Y-126941892D01*
X188723877Y-126939604D01*
X188721533Y-126938890D01*
X188712996Y-126936686D01*
X188697602Y-126932475D01*
X188694920Y-126931701D01*
X188678947Y-126926846D01*
X188671867Y-126924573D01*
X188668307Y-126923598D01*
X188659753Y-126921652D01*
X188644920Y-126918028D01*
X188642307Y-126917351D01*
X188628984Y-126913708D01*
X188626981Y-126913160D01*
X188619848Y-126911075D01*
X188615216Y-126909942D01*
X188615088Y-126909907D01*
X188615081Y-126909905D01*
X188615079Y-126909905D01*
X188615076Y-126909904D01*
X188606496Y-126908204D01*
X188592260Y-126905127D01*
X188589668Y-126904531D01*
X188583520Y-126903029D01*
X188574917Y-126900928D01*
X188567673Y-126899015D01*
X188567667Y-126899013D01*
X188567660Y-126899011D01*
X188567650Y-126899009D01*
X188567633Y-126899006D01*
X188562531Y-126897902D01*
X188562045Y-126897783D01*
X188553351Y-126896308D01*
X188539570Y-126893705D01*
X188537012Y-126893187D01*
X188522848Y-126890125D01*
X188515311Y-126888340D01*
X188514918Y-126888277D01*
X188509898Y-126887327D01*
X188509042Y-126887142D01*
X188500135Y-126885874D01*
X188495055Y-126885048D01*
X188486868Y-126883717D01*
X188484375Y-126883279D01*
X188471888Y-126880920D01*
X188469920Y-126880527D01*
X188462971Y-126879065D01*
X188462181Y-126878957D01*
X188457248Y-126878154D01*
X188456103Y-126877937D01*
X188448234Y-126877026D01*
X188446184Y-126876767D01*
X188434295Y-126875139D01*
X188431847Y-126874772D01*
X188427518Y-126874068D01*
X188419851Y-126872822D01*
X188417744Y-126872456D01*
X188410736Y-126871161D01*
X188409635Y-126871038D01*
X188404757Y-126870369D01*
X188403274Y-126870128D01*
X188395310Y-126869411D01*
X188393164Y-126869194D01*
X188381817Y-126867923D01*
X188379396Y-126867622D01*
X188367954Y-126866055D01*
X188365738Y-126865727D01*
X188358593Y-126864584D01*
X188357287Y-126864470D01*
X188357157Y-126864458D01*
X188352339Y-126863918D01*
X188350577Y-126863676D01*
X188342622Y-126863160D01*
X188340399Y-126862990D01*
X188329512Y-126862038D01*
X188327123Y-126861800D01*
X188316109Y-126860567D01*
X188313790Y-126860280D01*
X188306585Y-126859302D01*
X188304831Y-126859190D01*
X188300131Y-126858778D01*
X188298071Y-126858547D01*
X188290133Y-126858229D01*
X188287819Y-126858109D01*
X188277328Y-126857442D01*
X188274960Y-126857263D01*
X188264535Y-126856350D01*
X188262156Y-126856113D01*
X188254764Y-126855286D01*
X188252692Y-126855203D01*
X188248033Y-126854906D01*
X188245759Y-126854707D01*
X188237924Y-126854583D01*
X188235527Y-126854516D01*
X188225335Y-126854108D01*
X188222993Y-126853986D01*
X188213069Y-126853355D01*
X188210645Y-126853171D01*
X188203123Y-126852507D01*
X188200805Y-126852468D01*
X188196207Y-126852283D01*
X188193671Y-126852123D01*
X188193668Y-126852123D01*
X188193665Y-126852123D01*
X188185695Y-126852186D01*
X188183235Y-126852174D01*
X188173615Y-126852012D01*
X188171314Y-126851947D01*
X188161898Y-126851570D01*
X188159415Y-126851440D01*
X188151707Y-126850938D01*
X188149140Y-126850954D01*
X188144573Y-126850877D01*
X188141839Y-126850768D01*
X188133843Y-126851019D01*
X188131350Y-126851066D01*
X188122146Y-126851124D01*
X188119848Y-126851112D01*
X188106857Y-126850894D01*
X188103177Y-126850660D01*
X188099366Y-126850508D01*
X188096334Y-126850604D01*
X188091559Y-126850639D01*
X188090301Y-126850618D01*
X188090300Y-126850618D01*
X188090299Y-126850618D01*
X188083800Y-126850972D01*
X188081527Y-126851069D01*
X188070509Y-126851417D01*
X188068003Y-126851464D01*
X188047886Y-126851591D01*
X188040050Y-126851640D01*
X188038342Y-126851619D01*
X188010134Y-126853280D01*
X188007431Y-126853402D01*
X188002664Y-126853552D01*
X187978432Y-126854315D01*
X187949602Y-126856806D01*
X187946885Y-126857003D01*
X187918156Y-126858693D01*
X187889587Y-126861950D01*
X187886889Y-126862220D01*
X187858241Y-126864695D01*
X187830118Y-126868692D01*
X187827394Y-126869040D01*
X187799026Y-126872275D01*
X187771205Y-126877023D01*
X187768465Y-126877452D01*
X187768437Y-126877456D01*
X187740679Y-126881400D01*
X187740675Y-126881400D01*
X187740429Y-126881436D01*
X187740376Y-126881442D01*
X187740370Y-126881443D01*
X187740363Y-126881444D01*
X187735615Y-126882047D01*
X187688781Y-126881108D01*
X187688674Y-126882231D01*
X187669522Y-126880401D01*
X187656226Y-126879131D01*
X187652642Y-126878722D01*
X187627412Y-126875380D01*
X187626894Y-126875349D01*
X187621875Y-126874862D01*
X187601054Y-126873583D01*
X187594597Y-126873186D01*
X187591244Y-126872923D01*
X187564311Y-126870350D01*
X187562023Y-126870207D01*
X187533135Y-126869358D01*
X187529962Y-126869214D01*
X187501634Y-126867475D01*
X187471783Y-126867510D01*
X187468747Y-126867467D01*
X187440240Y-126866629D01*
X187410726Y-126867540D01*
X187407783Y-126867587D01*
X187378981Y-126867622D01*
X187349750Y-126869378D01*
X187346880Y-126869508D01*
X187338523Y-126869766D01*
X187317949Y-126870401D01*
X187289057Y-126872980D01*
X187286182Y-126873195D01*
X187257154Y-126874939D01*
X187241803Y-126876767D01*
X187228626Y-126878335D01*
X187225724Y-126878638D01*
X187196578Y-126881241D01*
X187168537Y-126885444D01*
X187165558Y-126885845D01*
X187136358Y-126889322D01*
X187108739Y-126894356D01*
X187105647Y-126894869D01*
X187076425Y-126899249D01*
X187049341Y-126905125D01*
X187046089Y-126905774D01*
X187018209Y-126910856D01*
X187015475Y-126911453D01*
X186990243Y-126917884D01*
X186986772Y-126918703D01*
X186960911Y-126924315D01*
X186956119Y-126925545D01*
X186955082Y-126925774D01*
X186931470Y-126932785D01*
X186927730Y-126933817D01*
X186903824Y-126939911D01*
X186896813Y-126942242D01*
X186886512Y-126945061D01*
X186882982Y-126945826D01*
X186882976Y-126945828D01*
X186867994Y-126951402D01*
X186861629Y-126953528D01*
X186846352Y-126958065D01*
X186846323Y-126958076D01*
X186834298Y-126963612D01*
X186825373Y-126967209D01*
X186813275Y-126971416D01*
X186811103Y-126972144D01*
X186769088Y-126985681D01*
X186704619Y-127005598D01*
X186693791Y-127008289D01*
X186691613Y-127008702D01*
X186691593Y-127008707D01*
X186665760Y-127017557D01*
X186662888Y-127018492D01*
X186636747Y-127026568D01*
X186636425Y-127026694D01*
X186629139Y-127029207D01*
X186626136Y-127030113D01*
X186600325Y-127039965D01*
X186589708Y-127043350D01*
X186587516Y-127043915D01*
X186587507Y-127043918D01*
X186584533Y-127045159D01*
X186578502Y-127047447D01*
X186573972Y-127048999D01*
X186567435Y-127051774D01*
X186567239Y-127051314D01*
X186553254Y-127056910D01*
X186553417Y-127057343D01*
X186546768Y-127059844D01*
X186542561Y-127061780D01*
X186536483Y-127064336D01*
X186534075Y-127065255D01*
X186534047Y-127065268D01*
X186532074Y-127066365D01*
X186522253Y-127071125D01*
X186522004Y-127071240D01*
X186513825Y-127074656D01*
X186512853Y-127075062D01*
X186506752Y-127077379D01*
X186504172Y-127078262D01*
X186504149Y-127078272D01*
X186503089Y-127078814D01*
X186497198Y-127081544D01*
X186494983Y-127082661D01*
X186492974Y-127083355D01*
X186490162Y-127084531D01*
X186490088Y-127084354D01*
X186444894Y-127099990D01*
X186438663Y-127101250D01*
X186435427Y-127101849D01*
X186409343Y-127106231D01*
X186405452Y-127107174D01*
X186398049Y-127108672D01*
X186394007Y-127109331D01*
X186368315Y-127115428D01*
X186365078Y-127116140D01*
X186339195Y-127121377D01*
X186335234Y-127122478D01*
X186327910Y-127124217D01*
X186323794Y-127125030D01*
X186304793Y-127130219D01*
X186298345Y-127131980D01*
X186295137Y-127132799D01*
X186269484Y-127138888D01*
X186265493Y-127140142D01*
X186258267Y-127142117D01*
X186254016Y-127143107D01*
X186228916Y-127150882D01*
X186225695Y-127151820D01*
X186200347Y-127158743D01*
X186196264Y-127160179D01*
X186189152Y-127162383D01*
X186184753Y-127163568D01*
X186160000Y-127172170D01*
X186156782Y-127173227D01*
X186131764Y-127180977D01*
X186127556Y-127182617D01*
X186120593Y-127185038D01*
X186116079Y-127186421D01*
X186091744Y-127195827D01*
X186088542Y-127197002D01*
X186063866Y-127205578D01*
X186059563Y-127207427D01*
X186052744Y-127210064D01*
X186048057Y-127211681D01*
X186024148Y-127221891D01*
X186020951Y-127223191D01*
X185996718Y-127232558D01*
X185992286Y-127234646D01*
X185985642Y-127237485D01*
X185980763Y-127239363D01*
X185957361Y-127250344D01*
X185954177Y-127251770D01*
X185930388Y-127261931D01*
X185925784Y-127264298D01*
X185919324Y-127267332D01*
X185914269Y-127269487D01*
X185891405Y-127281230D01*
X185888229Y-127282790D01*
X185864945Y-127293719D01*
X185860208Y-127296370D01*
X185853939Y-127299592D01*
X185848681Y-127302062D01*
X185848678Y-127302064D01*
X185848674Y-127302065D01*
X185848668Y-127302069D01*
X185826371Y-127314558D01*
X185823209Y-127316255D01*
X185800482Y-127327927D01*
X185795585Y-127330902D01*
X185789542Y-127334289D01*
X185784058Y-127337117D01*
X185762356Y-127350341D01*
X185759218Y-127352176D01*
X185737080Y-127364579D01*
X185732031Y-127367902D01*
X185726202Y-127371457D01*
X185720530Y-127374654D01*
X185699484Y-127388581D01*
X185696365Y-127390563D01*
X185674829Y-127403690D01*
X185669624Y-127407396D01*
X185664029Y-127411102D01*
X185658160Y-127414709D01*
X185637841Y-127429292D01*
X185634744Y-127431427D01*
X185613852Y-127445255D01*
X185608483Y-127449387D01*
X185603141Y-127453224D01*
X185597070Y-127457286D01*
X185577450Y-127472547D01*
X185574383Y-127474838D01*
X185554219Y-127489311D01*
X185548761Y-127493852D01*
X185548518Y-127493560D01*
X185529785Y-127508672D01*
X185523043Y-127513210D01*
X185523039Y-127513213D01*
X185523037Y-127513215D01*
X185512681Y-127522577D01*
X185507045Y-127527306D01*
X185496050Y-127535858D01*
X185495119Y-127536695D01*
X185490472Y-127541120D01*
X185486410Y-127544670D01*
X185472352Y-127558849D01*
X185468438Y-127562586D01*
X185453601Y-127576003D01*
X185451969Y-127577648D01*
X185438420Y-127592868D01*
X185434764Y-127596758D01*
X185420406Y-127611239D01*
X185419547Y-127612204D01*
X185406610Y-127628390D01*
X185403209Y-127632422D01*
X185389430Y-127647900D01*
X185389279Y-127648088D01*
X185376990Y-127665231D01*
X185373851Y-127669377D01*
X185361215Y-127685188D01*
X185360818Y-127685666D01*
X185360810Y-127685677D01*
X185360333Y-127686453D01*
X185349507Y-127703341D01*
X185346612Y-127707611D01*
X185334541Y-127724450D01*
X185334188Y-127725025D01*
X185333540Y-127726214D01*
X185324185Y-127742608D01*
X185321535Y-127746985D01*
X185311696Y-127762337D01*
X185310640Y-127763917D01*
X185310345Y-127764395D01*
X185310037Y-127764982D01*
X185309167Y-127766792D01*
X185301021Y-127782937D01*
X185298607Y-127787432D01*
X185289847Y-127802782D01*
X185288731Y-127804650D01*
X185288665Y-127804776D01*
X185288348Y-127805351D01*
X185288194Y-127805686D01*
X185288027Y-127806033D01*
X185287101Y-127808248D01*
X185279990Y-127824326D01*
X185277822Y-127828909D01*
X185270035Y-127844341D01*
X185268834Y-127846605D01*
X185268748Y-127846791D01*
X185268486Y-127847328D01*
X185268254Y-127847910D01*
X185268194Y-127848051D01*
X185267330Y-127850452D01*
X185261151Y-127866601D01*
X185259216Y-127871295D01*
X185252215Y-127887122D01*
X185251137Y-127889432D01*
X185250966Y-127889854D01*
X185250827Y-127890181D01*
X185250715Y-127890509D01*
X185250560Y-127890941D01*
X185249813Y-127893404D01*
X185244461Y-127909849D01*
X185242772Y-127914625D01*
X185236526Y-127930943D01*
X185235600Y-127933223D01*
X185235500Y-127933513D01*
X185235346Y-127933935D01*
X185235176Y-127934529D01*
X185235105Y-127934763D01*
X185234555Y-127936980D01*
X185229994Y-127953886D01*
X185228544Y-127958762D01*
X185222989Y-127975830D01*
X185222299Y-127977816D01*
X185222095Y-127978479D01*
X185221931Y-127979183D01*
X185221562Y-127981084D01*
X185217760Y-127998733D01*
X185216556Y-128003702D01*
X185211687Y-128021749D01*
X185211276Y-128023161D01*
X185211124Y-128023808D01*
X185207806Y-128044317D01*
X185206855Y-128049366D01*
X185202710Y-128068614D01*
X185202431Y-128069797D01*
X185202414Y-128069885D01*
X185202406Y-128069949D01*
X185202320Y-128070915D01*
X185200187Y-128090563D01*
X185199492Y-128095715D01*
X185196120Y-128116560D01*
X185196118Y-128116571D01*
X185196106Y-128116674D01*
X185195050Y-128135777D01*
X185194393Y-128141719D01*
X185193716Y-128148044D01*
X185193261Y-128154382D01*
X185192319Y-128163062D01*
X185192223Y-128165694D01*
X185191435Y-128174451D01*
X185191435Y-128198412D01*
X185191283Y-128203907D01*
X185190770Y-128213177D01*
X185190747Y-128214419D01*
X185190709Y-128215140D01*
X185190894Y-128224997D01*
X185190850Y-128230354D01*
X185190486Y-128240714D01*
X103115175Y-128240714D01*
X103247226Y-128064315D01*
X103384367Y-127813161D01*
X103484369Y-127545046D01*
X103545196Y-127265428D01*
X103565610Y-126980000D01*
X103545196Y-126694572D01*
X103484369Y-126414954D01*
X103384367Y-126146839D01*
X103308057Y-126007088D01*
X103247228Y-125895688D01*
X103202945Y-125836533D01*
X103075739Y-125666605D01*
X103075733Y-125666599D01*
X103075731Y-125666596D01*
X102873403Y-125464268D01*
X102873399Y-125464265D01*
X102873395Y-125464261D01*
X102644315Y-125292774D01*
X102644311Y-125292771D01*
X102393161Y-125155633D01*
X102125048Y-125055631D01*
X101845425Y-124994803D01*
X101845428Y-124994803D01*
X101560000Y-124974390D01*
X101274572Y-124994803D01*
X100994951Y-125055631D01*
X100726838Y-125155633D01*
X100475688Y-125292771D01*
X100246596Y-125464268D01*
X100044268Y-125666596D01*
X99872771Y-125895688D01*
X99735633Y-126146838D01*
X99635631Y-126414951D01*
X99574803Y-126694572D01*
X99554390Y-126980000D01*
X79398744Y-126980000D01*
X79398744Y-107450000D01*
X81613423Y-107450000D01*
X81633836Y-107735427D01*
X81694664Y-108015048D01*
X81794666Y-108283161D01*
X81931804Y-108534311D01*
X81931807Y-108534315D01*
X82103294Y-108763395D01*
X82103298Y-108763399D01*
X82103301Y-108763403D01*
X82305629Y-108965731D01*
X82305632Y-108965733D01*
X82305638Y-108965739D01*
X82534718Y-109137226D01*
X82534721Y-109137228D01*
X82646121Y-109198057D01*
X82785872Y-109274367D01*
X83011232Y-109358422D01*
X83034889Y-109367246D01*
X83053987Y-109374369D01*
X83333605Y-109435196D01*
X83333604Y-109435196D01*
X83352655Y-109436558D01*
X83619033Y-109455610D01*
X83904461Y-109435196D01*
X84184079Y-109374369D01*
X84452194Y-109274367D01*
X84703348Y-109137226D01*
X84932428Y-108965739D01*
X85134772Y-108763395D01*
X85306259Y-108534315D01*
X85443400Y-108283161D01*
X85543402Y-108015046D01*
X85604229Y-107735428D01*
X85624643Y-107450000D01*
X85604229Y-107164572D01*
X85543402Y-106884954D01*
X85443400Y-106616839D01*
X85306259Y-106365685D01*
X85134772Y-106136605D01*
X85134766Y-106136599D01*
X85134764Y-106136596D01*
X84932436Y-105934268D01*
X84932432Y-105934265D01*
X84932428Y-105934261D01*
X84703348Y-105762774D01*
X84703344Y-105762771D01*
X84452194Y-105625633D01*
X84184081Y-105525631D01*
X83904458Y-105464803D01*
X83904461Y-105464803D01*
X83619033Y-105444390D01*
X83333605Y-105464803D01*
X83053984Y-105525631D01*
X82785871Y-105625633D01*
X82534721Y-105762771D01*
X82439078Y-105834369D01*
X82338109Y-105909954D01*
X82305629Y-105934268D01*
X82103301Y-106136596D01*
X81931804Y-106365688D01*
X81794666Y-106616838D01*
X81694664Y-106884951D01*
X81633836Y-107164572D01*
X81613423Y-107450000D01*
X79398744Y-107450000D01*
X79398744Y-97040000D01*
X101104390Y-97040000D01*
X101124803Y-97325427D01*
X101185631Y-97605048D01*
X101285633Y-97873161D01*
X101422771Y-98124311D01*
X101422774Y-98124315D01*
X101594261Y-98353395D01*
X101594265Y-98353399D01*
X101594268Y-98353403D01*
X101796596Y-98555731D01*
X101796599Y-98555733D01*
X101796605Y-98555739D01*
X102025685Y-98727226D01*
X102025688Y-98727228D01*
X102137088Y-98788057D01*
X102276839Y-98864367D01*
X102544954Y-98964369D01*
X102824572Y-99025196D01*
X102824571Y-99025196D01*
X102844984Y-99026655D01*
X103110000Y-99045610D01*
X103395428Y-99025196D01*
X103675046Y-98964369D01*
X103943161Y-98864367D01*
X104194315Y-98727226D01*
X104423395Y-98555739D01*
X104625739Y-98353395D01*
X104797226Y-98124315D01*
X104934367Y-97873161D01*
X105034369Y-97605046D01*
X105095196Y-97325428D01*
X105115610Y-97040000D01*
X105095196Y-96754572D01*
X105034369Y-96474954D01*
X104934367Y-96206839D01*
X104797226Y-95955685D01*
X104625739Y-95726605D01*
X104625733Y-95726599D01*
X104625731Y-95726596D01*
X104423403Y-95524268D01*
X104423399Y-95524265D01*
X104423395Y-95524261D01*
X104194315Y-95352774D01*
X104194311Y-95352771D01*
X103943161Y-95215633D01*
X103675048Y-95115631D01*
X103395425Y-95054803D01*
X103395428Y-95054803D01*
X103110000Y-95034390D01*
X102824572Y-95054803D01*
X102544951Y-95115631D01*
X102276838Y-95215633D01*
X102025688Y-95352771D01*
X101796596Y-95524268D01*
X101594268Y-95726596D01*
X101422771Y-95955688D01*
X101285633Y-96206838D01*
X101185631Y-96474951D01*
X101124803Y-96754572D01*
X101104390Y-97040000D01*
X79398744Y-97040000D01*
X79398744Y-87895000D01*
X123514588Y-87895000D01*
X123534232Y-88857841D01*
X123534234Y-88857889D01*
X123593130Y-89819022D01*
X123593133Y-89819058D01*
X123691191Y-90777080D01*
X123691196Y-90777117D01*
X123828240Y-91730284D01*
X123828248Y-91730332D01*
X124004059Y-92677130D01*
X124218362Y-93616054D01*
X124470768Y-94545397D01*
X124760885Y-95463716D01*
X124760887Y-95463721D01*
X125088206Y-96369406D01*
X125452191Y-97260979D01*
X125852262Y-98137011D01*
X126287705Y-98995943D01*
X126287730Y-98995990D01*
X126757838Y-99836433D01*
X126757867Y-99836483D01*
X127261856Y-100657037D01*
X127798939Y-101456419D01*
X127907775Y-101604940D01*
X127942914Y-101686233D01*
X127939302Y-101774723D01*
X127897653Y-101852882D01*
X127826217Y-101905230D01*
X127739142Y-101921399D01*
X127733063Y-101921058D01*
X127500000Y-101904390D01*
X127214572Y-101924803D01*
X126934951Y-101985631D01*
X126666838Y-102085633D01*
X126415688Y-102222771D01*
X126186596Y-102394268D01*
X125984268Y-102596596D01*
X125812771Y-102825688D01*
X125675633Y-103076838D01*
X125575631Y-103344951D01*
X125514803Y-103624572D01*
X125494390Y-103910000D01*
X125514803Y-104195427D01*
X125575631Y-104475048D01*
X125675633Y-104743161D01*
X125812771Y-104994311D01*
X125812774Y-104994315D01*
X125984261Y-105223395D01*
X125984265Y-105223399D01*
X125984268Y-105223403D01*
X126186596Y-105425731D01*
X126186599Y-105425733D01*
X126186605Y-105425739D01*
X126415685Y-105597226D01*
X126415688Y-105597228D01*
X126467708Y-105625633D01*
X126666839Y-105734367D01*
X126934954Y-105834369D01*
X127214572Y-105895196D01*
X127214571Y-105895196D01*
X127233622Y-105896558D01*
X127500000Y-105915610D01*
X127785428Y-105895196D01*
X128065046Y-105834369D01*
X128333161Y-105734367D01*
X128584315Y-105597226D01*
X128813395Y-105425739D01*
X129015739Y-105223395D01*
X129187226Y-104994315D01*
X129324367Y-104743161D01*
X129424369Y-104475046D01*
X129485196Y-104195428D01*
X129492870Y-104088122D01*
X129518686Y-104003407D01*
X129578703Y-103938280D01*
X129661034Y-103905644D01*
X129749371Y-103911961D01*
X129826220Y-103955982D01*
X129836317Y-103965976D01*
X130259074Y-104415431D01*
X130259081Y-104415439D01*
X130814113Y-104959261D01*
X130946948Y-105089413D01*
X131661743Y-105734780D01*
X132402266Y-106350454D01*
X133167286Y-106935411D01*
X133955529Y-107488677D01*
X133955539Y-107488684D01*
X134421912Y-107788403D01*
X134765683Y-108009331D01*
X135596400Y-108496507D01*
X136446296Y-108949394D01*
X137313957Y-109367238D01*
X137518402Y-109455610D01*
X138197902Y-109749327D01*
X138197915Y-109749332D01*
X138197940Y-109749343D01*
X139096773Y-110095074D01*
X139096789Y-110095080D01*
X139096793Y-110095082D01*
X140008941Y-110403850D01*
X140008943Y-110403850D01*
X140008960Y-110403856D01*
X140814183Y-110640290D01*
X140932978Y-110675172D01*
X140932981Y-110675172D01*
X140932982Y-110675173D01*
X141867302Y-110908575D01*
X142810364Y-111103673D01*
X143760600Y-111260143D01*
X144716426Y-111377724D01*
X145676254Y-111456220D01*
X145676265Y-111456220D01*
X145676284Y-111456222D01*
X146638479Y-111495500D01*
X146638484Y-111495500D01*
X147601521Y-111495500D01*
X148563715Y-111456222D01*
X148563732Y-111456220D01*
X148563746Y-111456220D01*
X149523574Y-111377724D01*
X150479400Y-111260143D01*
X151429636Y-111103673D01*
X152372698Y-110908575D01*
X153307018Y-110675173D01*
X154231040Y-110403856D01*
X154231058Y-110403850D01*
X155143206Y-110095082D01*
X155143210Y-110095080D01*
X155143215Y-110095077D01*
X155143227Y-110095074D01*
X156042060Y-109749343D01*
X156926043Y-109367238D01*
X157793704Y-108949394D01*
X158643600Y-108496507D01*
X159474317Y-108009331D01*
X160284471Y-107488677D01*
X161072714Y-106935411D01*
X161674851Y-106474999D01*
X202239390Y-106474999D01*
X202259803Y-106760427D01*
X202320631Y-107040048D01*
X202420633Y-107308161D01*
X202557771Y-107559311D01*
X202557774Y-107559315D01*
X202729261Y-107788395D01*
X202729265Y-107788399D01*
X202729268Y-107788403D01*
X202931596Y-107990731D01*
X202931599Y-107990733D01*
X202931605Y-107990739D01*
X203160685Y-108162226D01*
X203160688Y-108162228D01*
X203272088Y-108223057D01*
X203411839Y-108299367D01*
X203679954Y-108399369D01*
X203959572Y-108460196D01*
X203959571Y-108460196D01*
X203978622Y-108461558D01*
X204245000Y-108480610D01*
X204530428Y-108460196D01*
X204810046Y-108399369D01*
X205078161Y-108299367D01*
X205329315Y-108162226D01*
X205558395Y-107990739D01*
X205760739Y-107788395D01*
X205932226Y-107559315D01*
X206069367Y-107308161D01*
X206169369Y-107040046D01*
X206230196Y-106760428D01*
X206250610Y-106475000D01*
X206230196Y-106189572D01*
X206169369Y-105909954D01*
X206069367Y-105641839D01*
X205932226Y-105390685D01*
X205760739Y-105161605D01*
X205760733Y-105161599D01*
X205760731Y-105161596D01*
X205558403Y-104959268D01*
X205558399Y-104959265D01*
X205558395Y-104959261D01*
X205329315Y-104787774D01*
X205329311Y-104787771D01*
X205078161Y-104650633D01*
X204810048Y-104550631D01*
X204530425Y-104489803D01*
X204530428Y-104489803D01*
X204245000Y-104469390D01*
X203959572Y-104489803D01*
X203679951Y-104550631D01*
X203411838Y-104650633D01*
X203160688Y-104787771D01*
X202931596Y-104959268D01*
X202729268Y-105161596D01*
X202557771Y-105390688D01*
X202420633Y-105641838D01*
X202320631Y-105909951D01*
X202259803Y-106189572D01*
X202239390Y-106474999D01*
X161674851Y-106474999D01*
X161837734Y-106350454D01*
X162578257Y-105734780D01*
X163293052Y-105089413D01*
X163980929Y-104415428D01*
X164640742Y-103713946D01*
X165271394Y-102986136D01*
X165871834Y-102233207D01*
X166441064Y-101456414D01*
X166978136Y-100657049D01*
X167177053Y-100333186D01*
X167482132Y-99836483D01*
X167482141Y-99836466D01*
X167482156Y-99836443D01*
X167952285Y-98995962D01*
X168387741Y-98137004D01*
X168787799Y-97261000D01*
X169151793Y-96369407D01*
X169479117Y-95463709D01*
X169769227Y-94545413D01*
X170021639Y-93616049D01*
X170235934Y-92677162D01*
X170411754Y-91730316D01*
X170548808Y-90777087D01*
X170646867Y-89819060D01*
X170668791Y-89461261D01*
X170705765Y-88857889D01*
X170705767Y-88857841D01*
X170705768Y-88857831D01*
X170725412Y-87895000D01*
X170705768Y-86932169D01*
X170705766Y-86932141D01*
X170705765Y-86932110D01*
X170646869Y-85970977D01*
X170646867Y-85970940D01*
X170548808Y-85012913D01*
X170480280Y-84536298D01*
X170411759Y-84059715D01*
X170411751Y-84059667D01*
X170235940Y-83112869D01*
X170235938Y-83112863D01*
X170235934Y-83112838D01*
X170021639Y-82173951D01*
X169769227Y-81244587D01*
X169479117Y-80326291D01*
X169151793Y-79420593D01*
X169151793Y-79420592D01*
X168787808Y-78529020D01*
X168387737Y-77652988D01*
X167952294Y-76794056D01*
X167952285Y-76794038D01*
X167482156Y-75953557D01*
X167482152Y-75953550D01*
X167482132Y-75953516D01*
X166978143Y-75132962D01*
X166441060Y-74333580D01*
X165871835Y-73556795D01*
X165871834Y-73556793D01*
X165271394Y-72803864D01*
X164640742Y-72076054D01*
X163980929Y-71374572D01*
X163980925Y-71374568D01*
X163980918Y-71374560D01*
X163293060Y-70700595D01*
X163293052Y-70700587D01*
X162578257Y-70055220D01*
X161837734Y-69439546D01*
X161072714Y-68854589D01*
X161072706Y-68854583D01*
X161072699Y-68854578D01*
X160496436Y-68450100D01*
X160368068Y-68359999D01*
X202254390Y-68359999D01*
X202274803Y-68645427D01*
X202335631Y-68925048D01*
X202435633Y-69193161D01*
X202572771Y-69444311D01*
X202572774Y-69444315D01*
X202744261Y-69673395D01*
X202744265Y-69673399D01*
X202744268Y-69673403D01*
X202946596Y-69875731D01*
X202946599Y-69875733D01*
X202946605Y-69875739D01*
X203175685Y-70047226D01*
X203175688Y-70047228D01*
X203287088Y-70108057D01*
X203426839Y-70184367D01*
X203694954Y-70284369D01*
X203974572Y-70345196D01*
X203974571Y-70345196D01*
X203993622Y-70346558D01*
X204260000Y-70365610D01*
X204545428Y-70345196D01*
X204825046Y-70284369D01*
X205093161Y-70184367D01*
X205344315Y-70047226D01*
X205573395Y-69875739D01*
X205775739Y-69673395D01*
X205947226Y-69444315D01*
X206084367Y-69193161D01*
X206184369Y-68925046D01*
X206245196Y-68645428D01*
X206265610Y-68360000D01*
X206245196Y-68074572D01*
X206184369Y-67794954D01*
X206084367Y-67526839D01*
X205947226Y-67275685D01*
X205775739Y-67046605D01*
X205775733Y-67046599D01*
X205775731Y-67046596D01*
X205573403Y-66844268D01*
X205573399Y-66844265D01*
X205573395Y-66844261D01*
X205344315Y-66672774D01*
X205344311Y-66672771D01*
X205093161Y-66535633D01*
X204825048Y-66435631D01*
X204545425Y-66374803D01*
X204545428Y-66374803D01*
X204260000Y-66354390D01*
X203974572Y-66374803D01*
X203694951Y-66435631D01*
X203426838Y-66535633D01*
X203175688Y-66672771D01*
X203014867Y-66793161D01*
X202951491Y-66840604D01*
X202946596Y-66844268D01*
X202744268Y-67046596D01*
X202572771Y-67275688D01*
X202435633Y-67526838D01*
X202335631Y-67794951D01*
X202274803Y-68074572D01*
X202254390Y-68359999D01*
X160368068Y-68359999D01*
X160284471Y-68301323D01*
X160284472Y-68301323D01*
X160284460Y-68301315D01*
X159474316Y-67780668D01*
X159474313Y-67780666D01*
X158930866Y-67461960D01*
X158643600Y-67293493D01*
X157793704Y-66840606D01*
X157445198Y-66672774D01*
X156926058Y-66422769D01*
X156926023Y-66422753D01*
X156042097Y-66040672D01*
X156042072Y-66040662D01*
X156042068Y-66040660D01*
X156042060Y-66040657D01*
X155633462Y-65883492D01*
X155143210Y-65694919D01*
X155143206Y-65694917D01*
X154231058Y-65386149D01*
X154231052Y-65386148D01*
X154231050Y-65386147D01*
X154231040Y-65386144D01*
X153906682Y-65290904D01*
X153307021Y-65114827D01*
X152372721Y-64881430D01*
X152372713Y-64881428D01*
X151429633Y-64686326D01*
X150479407Y-64529858D01*
X150479403Y-64529857D01*
X150479400Y-64529857D01*
X150319334Y-64510166D01*
X149523604Y-64412279D01*
X149523576Y-64412276D01*
X148563715Y-64333777D01*
X147601521Y-64294500D01*
X147601516Y-64294500D01*
X146638484Y-64294500D01*
X146638479Y-64294500D01*
X145676284Y-64333777D01*
X144716423Y-64412276D01*
X144716395Y-64412279D01*
X143760592Y-64529858D01*
X142810366Y-64686326D01*
X141867286Y-64881428D01*
X141867278Y-64881430D01*
X140932978Y-65114827D01*
X140133429Y-65349596D01*
X140008960Y-65386144D01*
X140008955Y-65386145D01*
X140008947Y-65386148D01*
X140008941Y-65386149D01*
X139096793Y-65694917D01*
X139096789Y-65694919D01*
X138197927Y-66040662D01*
X138197902Y-66040672D01*
X137313976Y-66422753D01*
X137313941Y-66422769D01*
X136446299Y-66840604D01*
X135596403Y-67293491D01*
X134765686Y-67780666D01*
X134765683Y-67780668D01*
X133955539Y-68301315D01*
X133955514Y-68301333D01*
X133167300Y-68854578D01*
X132402257Y-69439553D01*
X131661737Y-70055225D01*
X130946939Y-70700595D01*
X130259081Y-71374560D01*
X130259074Y-71374568D01*
X129599257Y-72076054D01*
X129599248Y-72076065D01*
X128968606Y-72803864D01*
X128968594Y-72803877D01*
X128968589Y-72803885D01*
X128368164Y-73556795D01*
X127798939Y-74333580D01*
X127261856Y-75132962D01*
X126757867Y-75953516D01*
X126757838Y-75953566D01*
X126287730Y-76794009D01*
X126287705Y-76794056D01*
X125852262Y-77652988D01*
X125452191Y-78529020D01*
X125088206Y-79420593D01*
X124760887Y-80326278D01*
X124760885Y-80326283D01*
X124470768Y-81244602D01*
X124218362Y-82173945D01*
X124004059Y-83112869D01*
X123828248Y-84059667D01*
X123828240Y-84059715D01*
X123691196Y-85012882D01*
X123691191Y-85012919D01*
X123593133Y-85970941D01*
X123593130Y-85970977D01*
X123534234Y-86932110D01*
X123534232Y-86932158D01*
X123514588Y-87895000D01*
X79398744Y-87895000D01*
X79398744Y-65960000D01*
X125404390Y-65960000D01*
X125424803Y-66245427D01*
X125485631Y-66525048D01*
X125585633Y-66793161D01*
X125722771Y-67044311D01*
X125722774Y-67044315D01*
X125894261Y-67273395D01*
X125894265Y-67273399D01*
X125894268Y-67273403D01*
X126096596Y-67475731D01*
X126096599Y-67475733D01*
X126096605Y-67475739D01*
X126325685Y-67647226D01*
X126325688Y-67647228D01*
X126437088Y-67708057D01*
X126576839Y-67784367D01*
X126844954Y-67884369D01*
X127124572Y-67945196D01*
X127124571Y-67945196D01*
X127143622Y-67946558D01*
X127410000Y-67965610D01*
X127695428Y-67945196D01*
X127975046Y-67884369D01*
X128243161Y-67784367D01*
X128494315Y-67647226D01*
X128723395Y-67475739D01*
X128925739Y-67273395D01*
X129097226Y-67044315D01*
X129234367Y-66793161D01*
X129334369Y-66525046D01*
X129395196Y-66245428D01*
X129415610Y-65960000D01*
X129395196Y-65674572D01*
X129334369Y-65394954D01*
X129234367Y-65126839D01*
X129100362Y-64881428D01*
X129097228Y-64875688D01*
X129097226Y-64875685D01*
X128925739Y-64646605D01*
X128925733Y-64646599D01*
X128925731Y-64646596D01*
X128723403Y-64444268D01*
X128723399Y-64444265D01*
X128723395Y-64444261D01*
X128494315Y-64272774D01*
X128494311Y-64272771D01*
X128243161Y-64135633D01*
X127975048Y-64035631D01*
X127695425Y-63974803D01*
X127695428Y-63974803D01*
X127410000Y-63954390D01*
X127124572Y-63974803D01*
X126844951Y-64035631D01*
X126576838Y-64135633D01*
X126325688Y-64272771D01*
X126096596Y-64444268D01*
X125894268Y-64646596D01*
X125722771Y-64875688D01*
X125585633Y-65126838D01*
X125485631Y-65394951D01*
X125424803Y-65674572D01*
X125404390Y-65960000D01*
X79398744Y-65960000D01*
X79398744Y-43567431D01*
X107974390Y-43567431D01*
X107994803Y-43852859D01*
X108055631Y-44132480D01*
X108155633Y-44400593D01*
X108292771Y-44651743D01*
X108292774Y-44651747D01*
X108464261Y-44880827D01*
X108464265Y-44880831D01*
X108464268Y-44880835D01*
X108666596Y-45083163D01*
X108666599Y-45083165D01*
X108666605Y-45083171D01*
X108895685Y-45254658D01*
X108895688Y-45254660D01*
X109007088Y-45315489D01*
X109146839Y-45391799D01*
X109414954Y-45491801D01*
X109694572Y-45552628D01*
X109694571Y-45552628D01*
X109714984Y-45554087D01*
X109980000Y-45573042D01*
X110265428Y-45552628D01*
X110545046Y-45491801D01*
X110813161Y-45391799D01*
X111064315Y-45254658D01*
X111293395Y-45083171D01*
X111495739Y-44880827D01*
X111667226Y-44651747D01*
X111804367Y-44400593D01*
X111904369Y-44132478D01*
X111965196Y-43852860D01*
X111985610Y-43567432D01*
X111965196Y-43282004D01*
X111904369Y-43002386D01*
X111804367Y-42734271D01*
X111667226Y-42483117D01*
X111495739Y-42254037D01*
X111495733Y-42254031D01*
X111495731Y-42254028D01*
X111293403Y-42051700D01*
X111293399Y-42051697D01*
X111293395Y-42051693D01*
X111064315Y-41880206D01*
X111064311Y-41880203D01*
X110813161Y-41743065D01*
X110545048Y-41643063D01*
X110265425Y-41582235D01*
X110265428Y-41582235D01*
X109980000Y-41561822D01*
X109694572Y-41582235D01*
X109414951Y-41643063D01*
X109146838Y-41743065D01*
X108895688Y-41880203D01*
X108666596Y-42051700D01*
X108464268Y-42254028D01*
X108292771Y-42483120D01*
X108155633Y-42734270D01*
X108055631Y-43002383D01*
X107994803Y-43282004D01*
X107974390Y-43567431D01*
X79398744Y-43567431D01*
X79398744Y-42003812D01*
X79398998Y-41996710D01*
X79403666Y-41931458D01*
X79407706Y-41880203D01*
X79415137Y-41785929D01*
X79417101Y-41772618D01*
X79436747Y-41682314D01*
X79437169Y-41680470D01*
X79464667Y-41565946D01*
X79468177Y-41554451D01*
X79502463Y-41462530D01*
X79503709Y-41459363D01*
X79546576Y-41355877D01*
X79551148Y-41346323D01*
X79599198Y-41258326D01*
X79601664Y-41254066D01*
X79659038Y-41160442D01*
X79664213Y-41152817D01*
X79724862Y-41071800D01*
X79728825Y-41066845D01*
X79799627Y-40983946D01*
X79804856Y-40978290D01*
X79876654Y-40906491D01*
X79882359Y-40901217D01*
X79965227Y-40830439D01*
X79970163Y-40826490D01*
X80051223Y-40765807D01*
X80058811Y-40760658D01*
X80152487Y-40703250D01*
X80156655Y-40700838D01*
X80244697Y-40652761D01*
X80254285Y-40648174D01*
X80357688Y-40605339D01*
X80360918Y-40604068D01*
X80452832Y-40569783D01*
X80464337Y-40566270D01*
X80578861Y-40538771D01*
X80580687Y-40538353D01*
X80670994Y-40518705D01*
X80684308Y-40516741D01*
X80831895Y-40505119D01*
X80894786Y-40500618D01*
X80901883Y-40500365D01*
X166163411Y-40500365D01*
X166176164Y-40501185D01*
G37*
%TD.AperFunction*%
%TA.AperFunction,NonConductor*%
G36*
X191590768Y-130856985D02*
G01*
X191595309Y-130857175D01*
X191656835Y-130861184D01*
X191661366Y-130861583D01*
X191722172Y-130868359D01*
X191726631Y-130868959D01*
X191786685Y-130878435D01*
X191790983Y-130879213D01*
X191850190Y-130891314D01*
X191854452Y-130892286D01*
X191912620Y-130906916D01*
X191916875Y-130908088D01*
X191973964Y-130925178D01*
X191978148Y-130926532D01*
X192034059Y-130946000D01*
X192038138Y-130947520D01*
X192092776Y-130969282D01*
X192096756Y-130970968D01*
X192148832Y-130994401D01*
X192150005Y-130994929D01*
X192153934Y-130996801D01*
X192205649Y-131022848D01*
X192209472Y-131024879D01*
X192259563Y-131052916D01*
X192263276Y-131055104D01*
X192311600Y-131085004D01*
X192315207Y-131087347D01*
X192361674Y-131119005D01*
X192365206Y-131121528D01*
X192409659Y-131154784D01*
X192413128Y-131157503D01*
X192446466Y-131184844D01*
X192455434Y-131192198D01*
X192458834Y-131195117D01*
X192498916Y-131231127D01*
X192502221Y-131234235D01*
X192540006Y-131271429D01*
X192543207Y-131274728D01*
X192549612Y-131281646D01*
X192578606Y-131312957D01*
X192581701Y-131316461D01*
X192614117Y-131354948D01*
X192614617Y-131355541D01*
X192617589Y-131359246D01*
X192638585Y-131386744D01*
X192647997Y-131399071D01*
X192650842Y-131402992D01*
X192660674Y-131417263D01*
X192678663Y-131443374D01*
X192681375Y-131447528D01*
X192706580Y-131488327D01*
X192709128Y-131492697D01*
X192731715Y-131533806D01*
X192734094Y-131538416D01*
X192754034Y-131579666D01*
X192756216Y-131584506D01*
X192773548Y-131625852D01*
X192775508Y-131630911D01*
X192777555Y-131636654D01*
X192790242Y-131672259D01*
X192791961Y-131677543D01*
X192804124Y-131718832D01*
X192805570Y-131724314D01*
X192815196Y-131765518D01*
X192816350Y-131771198D01*
X192823473Y-131812385D01*
X192824305Y-131818213D01*
X192828941Y-131859402D01*
X192829429Y-131865343D01*
X192831594Y-131906983D01*
X192831725Y-131912933D01*
X192831389Y-131955632D01*
X192831177Y-131961391D01*
X192828279Y-132005374D01*
X192827753Y-132010955D01*
X192822227Y-132055979D01*
X192821414Y-132061378D01*
X192813191Y-132107351D01*
X192812115Y-132112560D01*
X192801154Y-132159282D01*
X192799840Y-132164295D01*
X192786076Y-132211709D01*
X192784541Y-132216534D01*
X192767991Y-132264321D01*
X192766254Y-132268960D01*
X192746891Y-132316996D01*
X192744966Y-132321453D01*
X192722832Y-132369466D01*
X192720729Y-132373752D01*
X192695810Y-132421625D01*
X192693540Y-132425744D01*
X192665937Y-132473156D01*
X192663507Y-132477115D01*
X192633241Y-132523931D01*
X192630652Y-132527739D01*
X192597809Y-132573727D01*
X192595067Y-132577385D01*
X192559737Y-132622337D01*
X192556841Y-132625853D01*
X192519090Y-132669606D01*
X192516041Y-132672980D01*
X192475998Y-132715314D01*
X192472794Y-132718549D01*
X192430514Y-132759338D01*
X192427157Y-132762431D01*
X192401375Y-132785116D01*
X192382794Y-132801463D01*
X192379286Y-132804409D01*
X192332924Y-132841547D01*
X192329249Y-132844353D01*
X192280980Y-132879466D01*
X192277143Y-132882122D01*
X192227060Y-132915080D01*
X192223061Y-132917577D01*
X192171289Y-132948235D01*
X192167134Y-132950563D01*
X192113698Y-132978844D01*
X192109381Y-132980996D01*
X192054425Y-133006754D01*
X192049961Y-133008715D01*
X191993480Y-133031885D01*
X191988867Y-133033645D01*
X191930917Y-133054123D01*
X191926173Y-133055667D01*
X191866786Y-133073359D01*
X191861917Y-133074676D01*
X191801099Y-133089485D01*
X191796124Y-133090562D01*
X191733887Y-133102383D01*
X191728824Y-133103210D01*
X191665066Y-133111944D01*
X191659939Y-133112511D01*
X191594716Y-133118022D01*
X191589547Y-133118324D01*
X191521394Y-133120523D01*
X191516645Y-133120563D01*
X191510485Y-133120467D01*
X191445547Y-133119462D01*
X191441234Y-133119301D01*
X191369781Y-133115080D01*
X191365470Y-133114731D01*
X191295097Y-133107494D01*
X191290796Y-133106957D01*
X191221596Y-133096779D01*
X191217321Y-133096055D01*
X191195321Y-133091833D01*
X191149495Y-133083038D01*
X191145259Y-133082128D01*
X191078895Y-133066349D01*
X191074656Y-133065242D01*
X191010028Y-133046835D01*
X191005808Y-133045531D01*
X190942946Y-133024571D01*
X190938748Y-133023065D01*
X190877886Y-132999692D01*
X190873713Y-132997980D01*
X190814969Y-132972308D01*
X190810822Y-132970382D01*
X190754325Y-132942534D01*
X190750217Y-132940389D01*
X190704395Y-132915080D01*
X190696136Y-132910518D01*
X190692056Y-132908137D01*
X190691501Y-132907795D01*
X190640461Y-132876353D01*
X190636454Y-132873748D01*
X190587522Y-132840235D01*
X190583540Y-132837361D01*
X190581181Y-132835568D01*
X190537318Y-132802231D01*
X190533454Y-132799137D01*
X190490039Y-132762543D01*
X190486199Y-132759133D01*
X190445676Y-132721231D01*
X190441933Y-132717541D01*
X190404351Y-132678470D01*
X190400735Y-132674502D01*
X190366068Y-132634322D01*
X190362593Y-132630061D01*
X190359351Y-132625853D01*
X190330896Y-132588921D01*
X190327607Y-132584392D01*
X190313424Y-132563654D01*
X190298841Y-132542331D01*
X190295726Y-132537482D01*
X190291358Y-132530226D01*
X190269889Y-132494566D01*
X190267014Y-132489454D01*
X190244059Y-132445663D01*
X190241438Y-132440274D01*
X190241229Y-132439810D01*
X190221351Y-132395606D01*
X190219027Y-132389986D01*
X190201753Y-132344299D01*
X190199763Y-132338501D01*
X190185304Y-132291685D01*
X190183674Y-132285757D01*
X190172059Y-132237674D01*
X190170782Y-132231552D01*
X190162070Y-132182041D01*
X190161183Y-132175862D01*
X190155465Y-132124677D01*
X190154967Y-132118453D01*
X190152390Y-132065340D01*
X190152283Y-132059184D01*
X190153048Y-132003906D01*
X190153320Y-131997823D01*
X190157846Y-131937915D01*
X190158380Y-131932703D01*
X190160932Y-131912933D01*
X190166643Y-131868679D01*
X190167330Y-131864183D01*
X190178427Y-131801310D01*
X190179353Y-131796709D01*
X190192798Y-131737225D01*
X190193972Y-131732559D01*
X190209606Y-131676296D01*
X190211032Y-131671617D01*
X190228704Y-131618435D01*
X190230406Y-131613721D01*
X190249985Y-131563474D01*
X190251963Y-131558763D01*
X190273365Y-131511226D01*
X190275602Y-131506581D01*
X190298794Y-131461496D01*
X190301281Y-131456960D01*
X190302962Y-131454076D01*
X190326177Y-131414231D01*
X190328915Y-131409802D01*
X190355548Y-131369174D01*
X190358493Y-131364930D01*
X190386863Y-131326261D01*
X190390001Y-131322210D01*
X190420159Y-131285334D01*
X190423494Y-131281466D01*
X190455446Y-131246312D01*
X190458954Y-131242647D01*
X190492778Y-131209095D01*
X190496434Y-131205649D01*
X190532182Y-131173637D01*
X190535983Y-131170402D01*
X190536284Y-131170159D01*
X190569181Y-131143551D01*
X190573704Y-131139893D01*
X190577600Y-131136898D01*
X190584476Y-131131877D01*
X190617431Y-131107812D01*
X190621350Y-131105095D01*
X190629630Y-131099642D01*
X190663310Y-131077460D01*
X190667254Y-131074995D01*
X190704545Y-131052891D01*
X190711395Y-131048831D01*
X190715396Y-131046583D01*
X190736320Y-131035451D01*
X190761728Y-131021933D01*
X190765652Y-131019958D01*
X190814228Y-130996857D01*
X190818174Y-130995087D01*
X190842717Y-130984709D01*
X190868925Y-130973627D01*
X190872850Y-130972066D01*
X190925800Y-130952294D01*
X190929673Y-130950938D01*
X190984832Y-130932911D01*
X190988554Y-130931778D01*
X191045849Y-130915582D01*
X191049538Y-130914617D01*
X191108871Y-130900339D01*
X191112559Y-130899526D01*
X191173879Y-130887225D01*
X191177420Y-130886583D01*
X191240703Y-130876322D01*
X191244199Y-130875819D01*
X191309252Y-130867679D01*
X191312744Y-130867305D01*
X191318169Y-130866819D01*
X191374493Y-130861783D01*
X191379534Y-130861463D01*
X191525971Y-130855928D01*
X191531560Y-130855875D01*
X191590768Y-130856985D01*
G37*
%TD.AperFunction*%
%TA.AperFunction,NonConductor*%
G36*
X191548843Y-134562029D02*
G01*
X191708251Y-134568576D01*
X191713922Y-134568973D01*
X191861129Y-134583573D01*
X191866956Y-134584325D01*
X192004391Y-134606239D01*
X192010348Y-134607376D01*
X192084411Y-134623879D01*
X192137369Y-134635679D01*
X192143479Y-134637245D01*
X192259425Y-134670933D01*
X192265689Y-134672981D01*
X192369864Y-134710930D01*
X192376336Y-134713548D01*
X192468012Y-134754468D01*
X192474708Y-134757765D01*
X192553158Y-134800146D01*
X192560142Y-134804297D01*
X192613327Y-134838924D01*
X192674929Y-134902546D01*
X192702828Y-134986601D01*
X192691495Y-135074436D01*
X192643173Y-135148655D01*
X192633507Y-135157419D01*
X192608508Y-135178633D01*
X192605717Y-135180916D01*
X192569170Y-135209720D01*
X192566401Y-135211825D01*
X192526887Y-135240787D01*
X192524122Y-135242742D01*
X192481926Y-135271514D01*
X192479149Y-135273341D01*
X192434482Y-135301661D01*
X192431678Y-135303374D01*
X192384812Y-135330962D01*
X192381961Y-135332577D01*
X192333166Y-135359177D01*
X192330262Y-135360699D01*
X192279734Y-135386121D01*
X192276750Y-135387561D01*
X192224715Y-135411605D01*
X192221644Y-135412962D01*
X192168433Y-135435403D01*
X192165257Y-135436679D01*
X192111008Y-135457391D01*
X192107715Y-135458582D01*
X192052706Y-135477394D01*
X192049280Y-135478497D01*
X191993744Y-135495273D01*
X191990167Y-135496281D01*
X191934316Y-135510900D01*
X191930585Y-135511800D01*
X191874659Y-135524156D01*
X191870762Y-135524936D01*
X191814977Y-135534942D01*
X191810897Y-135535587D01*
X191755405Y-135543180D01*
X191751140Y-135543670D01*
X191696206Y-135548785D01*
X191691751Y-135549099D01*
X191637448Y-135551705D01*
X191632807Y-135551820D01*
X191575098Y-135551895D01*
X191571663Y-135551840D01*
X191459233Y-135548104D01*
X191450819Y-135547467D01*
X191348055Y-135535283D01*
X191340519Y-135534095D01*
X191232074Y-135512713D01*
X191225219Y-135511108D01*
X191113896Y-135480847D01*
X191107554Y-135478893D01*
X191068509Y-135465422D01*
X190996122Y-135440448D01*
X190990121Y-135438158D01*
X190881185Y-135392492D01*
X190875375Y-135389833D01*
X190771544Y-135338209D01*
X190765780Y-135335101D01*
X190719738Y-135308283D01*
X190669558Y-135279054D01*
X190663702Y-135275364D01*
X190577521Y-135216766D01*
X190571453Y-135212295D01*
X190542078Y-135188884D01*
X190497700Y-135153515D01*
X190491335Y-135147986D01*
X190491123Y-135147785D01*
X190438912Y-135098392D01*
X190389736Y-135024742D01*
X190377384Y-134937044D01*
X190404305Y-134852672D01*
X190465169Y-134788336D01*
X190472158Y-134783877D01*
X190485505Y-134775750D01*
X190489336Y-134773535D01*
X190521346Y-134755964D01*
X190525062Y-134754027D01*
X190560945Y-134736265D01*
X190564519Y-134734583D01*
X190604265Y-134716857D01*
X190607671Y-134715416D01*
X190651157Y-134697975D01*
X190654404Y-134696742D01*
X190701485Y-134679810D01*
X190704705Y-134678714D01*
X190755327Y-134662460D01*
X190758434Y-134661519D01*
X190812561Y-134646091D01*
X190815461Y-134645313D01*
X190873010Y-134630861D01*
X190875951Y-134630170D01*
X190910030Y-134622703D01*
X190936667Y-134616868D01*
X190939474Y-134616295D01*
X191003509Y-134604219D01*
X191006169Y-134603756D01*
X191073322Y-134593045D01*
X191075890Y-134592672D01*
X191145973Y-134583448D01*
X191148531Y-134583145D01*
X191221632Y-134575486D01*
X191224118Y-134575257D01*
X191300036Y-134569271D01*
X191302382Y-134569116D01*
X191381172Y-134564884D01*
X191383532Y-134564787D01*
X191464907Y-134562406D01*
X191467203Y-134562366D01*
X191544250Y-134561947D01*
X191548843Y-134562029D01*
G37*
%TD.AperFunction*%
M02*
