G04 #@! TF.GenerationSoftware,KiCad,Pcbnew,5.1.5-52549c5~86~ubuntu19.10.1*
G04 #@! TF.CreationDate,2020-05-05T19:49:36+02:00*
G04 #@! TF.ProjectId,bottom_plate,626f7474-6f6d-45f7-906c-6174652e6b69,rev?*
G04 #@! TF.SameCoordinates,Original*
G04 #@! TF.FileFunction,Legend,Top*
G04 #@! TF.FilePolarity,Positive*
%FSLAX46Y46*%
G04 Gerber Fmt 4.6, Leading zero omitted, Abs format (unit mm)*
G04 Created by KiCad (PCBNEW 5.1.5-52549c5~86~ubuntu19.10.1) date 2020-05-05 19:49:36*
%MOMM*%
%LPD*%
G04 APERTURE LIST*
%ADD10C,0.300000*%
%ADD11C,0.150000*%
%ADD12C,0.010000*%
G04 APERTURE END LIST*
D10*
X92228571Y-140278571D02*
X92228571Y-138778571D01*
X92871428Y-140278571D02*
X92871428Y-139492857D01*
X92800000Y-139350000D01*
X92657142Y-139278571D01*
X92442857Y-139278571D01*
X92300000Y-139350000D01*
X92228571Y-139421428D01*
X93371428Y-139278571D02*
X93942857Y-139278571D01*
X93585714Y-138778571D02*
X93585714Y-140064285D01*
X93657142Y-140207142D01*
X93800000Y-140278571D01*
X93942857Y-140278571D01*
X94228571Y-139278571D02*
X94800000Y-139278571D01*
X94442857Y-138778571D02*
X94442857Y-140064285D01*
X94514285Y-140207142D01*
X94657142Y-140278571D01*
X94800000Y-140278571D01*
X95300000Y-139278571D02*
X95300000Y-140778571D01*
X95300000Y-139350000D02*
X95442857Y-139278571D01*
X95728571Y-139278571D01*
X95871428Y-139350000D01*
X95942857Y-139421428D01*
X96014285Y-139564285D01*
X96014285Y-139992857D01*
X95942857Y-140135714D01*
X95871428Y-140207142D01*
X95728571Y-140278571D01*
X95442857Y-140278571D01*
X95300000Y-140207142D01*
X96585714Y-140207142D02*
X96728571Y-140278571D01*
X97014285Y-140278571D01*
X97157142Y-140207142D01*
X97228571Y-140064285D01*
X97228571Y-139992857D01*
X97157142Y-139850000D01*
X97014285Y-139778571D01*
X96800000Y-139778571D01*
X96657142Y-139707142D01*
X96585714Y-139564285D01*
X96585714Y-139492857D01*
X96657142Y-139350000D01*
X96800000Y-139278571D01*
X97014285Y-139278571D01*
X97157142Y-139350000D01*
X97871428Y-140135714D02*
X97942857Y-140207142D01*
X97871428Y-140278571D01*
X97800000Y-140207142D01*
X97871428Y-140135714D01*
X97871428Y-140278571D01*
X97871428Y-139350000D02*
X97942857Y-139421428D01*
X97871428Y-139492857D01*
X97800000Y-139421428D01*
X97871428Y-139350000D01*
X97871428Y-139492857D01*
X99657142Y-138707142D02*
X98371428Y-140635714D01*
X101228571Y-138707142D02*
X99942857Y-140635714D01*
X101728571Y-139278571D02*
X101728571Y-140564285D01*
X101657142Y-140707142D01*
X101514285Y-140778571D01*
X101442857Y-140778571D01*
X101728571Y-138778571D02*
X101657142Y-138850000D01*
X101728571Y-138921428D01*
X101800000Y-138850000D01*
X101728571Y-138778571D01*
X101728571Y-138921428D01*
X102657142Y-140278571D02*
X102514285Y-140207142D01*
X102442857Y-140135714D01*
X102371428Y-139992857D01*
X102371428Y-139564285D01*
X102442857Y-139421428D01*
X102514285Y-139350000D01*
X102657142Y-139278571D01*
X102871428Y-139278571D01*
X103014285Y-139350000D01*
X103085714Y-139421428D01*
X103157142Y-139564285D01*
X103157142Y-139992857D01*
X103085714Y-140135714D01*
X103014285Y-140207142D01*
X102871428Y-140278571D01*
X102657142Y-140278571D01*
X103728571Y-140207142D02*
X103871428Y-140278571D01*
X104157142Y-140278571D01*
X104300000Y-140207142D01*
X104371428Y-140064285D01*
X104371428Y-139992857D01*
X104300000Y-139850000D01*
X104157142Y-139778571D01*
X103942857Y-139778571D01*
X103800000Y-139707142D01*
X103728571Y-139564285D01*
X103728571Y-139492857D01*
X103800000Y-139350000D01*
X103942857Y-139278571D01*
X104157142Y-139278571D01*
X104300000Y-139350000D01*
X105585714Y-140207142D02*
X105442857Y-140278571D01*
X105157142Y-140278571D01*
X105014285Y-140207142D01*
X104942857Y-140064285D01*
X104942857Y-139492857D01*
X105014285Y-139350000D01*
X105157142Y-139278571D01*
X105442857Y-139278571D01*
X105585714Y-139350000D01*
X105657142Y-139492857D01*
X105657142Y-139635714D01*
X104942857Y-139778571D01*
X106085714Y-139278571D02*
X106657142Y-139278571D01*
X106300000Y-140278571D02*
X106300000Y-138992857D01*
X106371428Y-138850000D01*
X106514285Y-138778571D01*
X106657142Y-138778571D01*
X107800000Y-140278571D02*
X107800000Y-139492857D01*
X107728571Y-139350000D01*
X107585714Y-139278571D01*
X107300000Y-139278571D01*
X107157142Y-139350000D01*
X107800000Y-140207142D02*
X107657142Y-140278571D01*
X107300000Y-140278571D01*
X107157142Y-140207142D01*
X107085714Y-140064285D01*
X107085714Y-139921428D01*
X107157142Y-139778571D01*
X107300000Y-139707142D01*
X107657142Y-139707142D01*
X107800000Y-139635714D01*
X109157142Y-140278571D02*
X109157142Y-138778571D01*
X109157142Y-140207142D02*
X109014285Y-140278571D01*
X108728571Y-140278571D01*
X108585714Y-140207142D01*
X108514285Y-140135714D01*
X108442857Y-139992857D01*
X108442857Y-139564285D01*
X108514285Y-139421428D01*
X108585714Y-139350000D01*
X108728571Y-139278571D01*
X109014285Y-139278571D01*
X109157142Y-139350000D01*
X110514285Y-140278571D02*
X110514285Y-139492857D01*
X110442857Y-139350000D01*
X110300000Y-139278571D01*
X110014285Y-139278571D01*
X109871428Y-139350000D01*
X110514285Y-140207142D02*
X110371428Y-140278571D01*
X110014285Y-140278571D01*
X109871428Y-140207142D01*
X109800000Y-140064285D01*
X109800000Y-139921428D01*
X109871428Y-139778571D01*
X110014285Y-139707142D01*
X110371428Y-139707142D01*
X110514285Y-139635714D01*
X111228571Y-140278571D02*
X111228571Y-139278571D01*
X111228571Y-139421428D02*
X111300000Y-139350000D01*
X111442857Y-139278571D01*
X111657142Y-139278571D01*
X111800000Y-139350000D01*
X111871428Y-139492857D01*
X111871428Y-140278571D01*
X111871428Y-139492857D02*
X111942857Y-139350000D01*
X112085714Y-139278571D01*
X112300000Y-139278571D01*
X112442857Y-139350000D01*
X112514285Y-139492857D01*
X112514285Y-140278571D01*
X113871428Y-140207142D02*
X113728571Y-140278571D01*
X113442857Y-140278571D01*
X113300000Y-140207142D01*
X113228571Y-140135714D01*
X113157142Y-139992857D01*
X113157142Y-139564285D01*
X113228571Y-139421428D01*
X113300000Y-139350000D01*
X113442857Y-139278571D01*
X113728571Y-139278571D01*
X113871428Y-139350000D01*
X114514285Y-140278571D02*
X114514285Y-139278571D01*
X114514285Y-138778571D02*
X114442857Y-138850000D01*
X114514285Y-138921428D01*
X114585714Y-138850000D01*
X114514285Y-138778571D01*
X114514285Y-138921428D01*
X115228571Y-140278571D02*
X115228571Y-138778571D01*
X115371428Y-139707142D02*
X115800000Y-140278571D01*
X115800000Y-139278571D02*
X115228571Y-139850000D01*
X116442857Y-140135714D02*
X116514285Y-140207142D01*
X116442857Y-140278571D01*
X116371428Y-140207142D01*
X116442857Y-140135714D01*
X116442857Y-140278571D01*
X117800000Y-139278571D02*
X117800000Y-140492857D01*
X117728571Y-140635714D01*
X117657142Y-140707142D01*
X117514285Y-140778571D01*
X117300000Y-140778571D01*
X117157142Y-140707142D01*
X117800000Y-140207142D02*
X117657142Y-140278571D01*
X117371428Y-140278571D01*
X117228571Y-140207142D01*
X117157142Y-140135714D01*
X117085714Y-139992857D01*
X117085714Y-139564285D01*
X117157142Y-139421428D01*
X117228571Y-139350000D01*
X117371428Y-139278571D01*
X117657142Y-139278571D01*
X117800000Y-139350000D01*
X118514285Y-140278571D02*
X118514285Y-139278571D01*
X118514285Y-138778571D02*
X118442857Y-138850000D01*
X118514285Y-138921428D01*
X118585714Y-138850000D01*
X118514285Y-138778571D01*
X118514285Y-138921428D01*
X119014285Y-139278571D02*
X119585714Y-139278571D01*
X119228571Y-138778571D02*
X119228571Y-140064285D01*
X119300000Y-140207142D01*
X119442857Y-140278571D01*
X119585714Y-140278571D01*
X120085714Y-140278571D02*
X120085714Y-138778571D01*
X120728571Y-140278571D02*
X120728571Y-139492857D01*
X120657142Y-139350000D01*
X120514285Y-139278571D01*
X120300000Y-139278571D01*
X120157142Y-139350000D01*
X120085714Y-139421428D01*
X122085714Y-139278571D02*
X122085714Y-140278571D01*
X121442857Y-139278571D02*
X121442857Y-140064285D01*
X121514285Y-140207142D01*
X121657142Y-140278571D01*
X121871428Y-140278571D01*
X122014285Y-140207142D01*
X122085714Y-140135714D01*
X122800000Y-140278571D02*
X122800000Y-138778571D01*
X122800000Y-139350000D02*
X122942857Y-139278571D01*
X123228571Y-139278571D01*
X123371428Y-139350000D01*
X123442857Y-139421428D01*
X123514285Y-139564285D01*
X123514285Y-139992857D01*
X123442857Y-140135714D01*
X123371428Y-140207142D01*
X123228571Y-140278571D01*
X122942857Y-140278571D01*
X122800000Y-140207142D01*
X124157142Y-140135714D02*
X124228571Y-140207142D01*
X124157142Y-140278571D01*
X124085714Y-140207142D01*
X124157142Y-140135714D01*
X124157142Y-140278571D01*
X124871428Y-140278571D02*
X124871428Y-139278571D01*
X124871428Y-138778571D02*
X124800000Y-138850000D01*
X124871428Y-138921428D01*
X124942857Y-138850000D01*
X124871428Y-138778571D01*
X124871428Y-138921428D01*
X125800000Y-140278571D02*
X125657142Y-140207142D01*
X125585714Y-140135714D01*
X125514285Y-139992857D01*
X125514285Y-139564285D01*
X125585714Y-139421428D01*
X125657142Y-139350000D01*
X125800000Y-139278571D01*
X126014285Y-139278571D01*
X126157142Y-139350000D01*
X126228571Y-139421428D01*
X126300000Y-139564285D01*
X126300000Y-139992857D01*
X126228571Y-140135714D01*
X126157142Y-140207142D01*
X126014285Y-140278571D01*
X125800000Y-140278571D01*
X128014285Y-138707142D02*
X126728571Y-140635714D01*
X128442857Y-140207142D02*
X128657142Y-140278571D01*
X129014285Y-140278571D01*
X129157142Y-140207142D01*
X129228571Y-140135714D01*
X129300000Y-139992857D01*
X129300000Y-139850000D01*
X129228571Y-139707142D01*
X129157142Y-139635714D01*
X129014285Y-139564285D01*
X128728571Y-139492857D01*
X128585714Y-139421428D01*
X128514285Y-139350000D01*
X128442857Y-139207142D01*
X128442857Y-139064285D01*
X128514285Y-138921428D01*
X128585714Y-138850000D01*
X128728571Y-138778571D01*
X129085714Y-138778571D01*
X129300000Y-138850000D01*
X130157142Y-140278571D02*
X130014285Y-140207142D01*
X129942857Y-140135714D01*
X129871428Y-139992857D01*
X129871428Y-139564285D01*
X129942857Y-139421428D01*
X130014285Y-139350000D01*
X130157142Y-139278571D01*
X130371428Y-139278571D01*
X130514285Y-139350000D01*
X130585714Y-139421428D01*
X130657142Y-139564285D01*
X130657142Y-139992857D01*
X130585714Y-140135714D01*
X130514285Y-140207142D01*
X130371428Y-140278571D01*
X130157142Y-140278571D01*
X131085714Y-139278571D02*
X131657142Y-139278571D01*
X131300000Y-140278571D02*
X131300000Y-138992857D01*
X131371428Y-138850000D01*
X131514285Y-138778571D01*
X131657142Y-138778571D01*
X132371428Y-140278571D02*
X132228571Y-140207142D01*
X132157142Y-140064285D01*
X132157142Y-138778571D01*
X133514285Y-140207142D02*
X133371428Y-140278571D01*
X133085714Y-140278571D01*
X132942857Y-140207142D01*
X132871428Y-140064285D01*
X132871428Y-139492857D01*
X132942857Y-139350000D01*
X133085714Y-139278571D01*
X133371428Y-139278571D01*
X133514285Y-139350000D01*
X133585714Y-139492857D01*
X133585714Y-139635714D01*
X132871428Y-139778571D01*
X134228571Y-140278571D02*
X134228571Y-138778571D01*
X135085714Y-140278571D02*
X134442857Y-139421428D01*
X135085714Y-138778571D02*
X134228571Y-139635714D01*
X136300000Y-140207142D02*
X136157142Y-140278571D01*
X135871428Y-140278571D01*
X135728571Y-140207142D01*
X135657142Y-140064285D01*
X135657142Y-139492857D01*
X135728571Y-139350000D01*
X135871428Y-139278571D01*
X136157142Y-139278571D01*
X136300000Y-139350000D01*
X136371428Y-139492857D01*
X136371428Y-139635714D01*
X135657142Y-139778571D01*
X136871428Y-139278571D02*
X137228571Y-140278571D01*
X137585714Y-139278571D02*
X137228571Y-140278571D01*
X137085714Y-140635714D01*
X137014285Y-140707142D01*
X136871428Y-140778571D01*
X138157142Y-140278571D02*
X138157142Y-138778571D01*
X138157142Y-139350000D02*
X138300000Y-139278571D01*
X138585714Y-139278571D01*
X138728571Y-139350000D01*
X138800000Y-139421428D01*
X138871428Y-139564285D01*
X138871428Y-139992857D01*
X138800000Y-140135714D01*
X138728571Y-140207142D01*
X138585714Y-140278571D01*
X138300000Y-140278571D01*
X138157142Y-140207142D01*
X139728571Y-140278571D02*
X139585714Y-140207142D01*
X139514285Y-140135714D01*
X139442857Y-139992857D01*
X139442857Y-139564285D01*
X139514285Y-139421428D01*
X139585714Y-139350000D01*
X139728571Y-139278571D01*
X139942857Y-139278571D01*
X140085714Y-139350000D01*
X140157142Y-139421428D01*
X140228571Y-139564285D01*
X140228571Y-139992857D01*
X140157142Y-140135714D01*
X140085714Y-140207142D01*
X139942857Y-140278571D01*
X139728571Y-140278571D01*
X141514285Y-140278571D02*
X141514285Y-139492857D01*
X141442857Y-139350000D01*
X141300000Y-139278571D01*
X141014285Y-139278571D01*
X140871428Y-139350000D01*
X141514285Y-140207142D02*
X141371428Y-140278571D01*
X141014285Y-140278571D01*
X140871428Y-140207142D01*
X140800000Y-140064285D01*
X140800000Y-139921428D01*
X140871428Y-139778571D01*
X141014285Y-139707142D01*
X141371428Y-139707142D01*
X141514285Y-139635714D01*
X142228571Y-140278571D02*
X142228571Y-139278571D01*
X142228571Y-139564285D02*
X142300000Y-139421428D01*
X142371428Y-139350000D01*
X142514285Y-139278571D01*
X142657142Y-139278571D01*
X143800000Y-140278571D02*
X143800000Y-138778571D01*
X143800000Y-140207142D02*
X143657142Y-140278571D01*
X143371428Y-140278571D01*
X143228571Y-140207142D01*
X143157142Y-140135714D01*
X143085714Y-139992857D01*
X143085714Y-139564285D01*
X143157142Y-139421428D01*
X143228571Y-139350000D01*
X143371428Y-139278571D01*
X143657142Y-139278571D01*
X143800000Y-139350000D01*
X145585714Y-138707142D02*
X144300000Y-140635714D01*
D11*
X151103862Y-139886281D02*
X151254176Y-139895303D01*
X151484158Y-139833680D01*
X151563826Y-139763034D01*
X151597498Y-139704713D01*
X151618845Y-139600395D01*
X151594196Y-139508402D01*
X151523550Y-139428734D01*
X151465229Y-139395062D01*
X151360911Y-139373715D01*
X151164600Y-139377017D01*
X151060283Y-139355670D01*
X151001961Y-139321999D01*
X150931316Y-139242330D01*
X150906666Y-139150338D01*
X150928013Y-139046020D01*
X150961685Y-138987699D01*
X151041353Y-138917053D01*
X151271335Y-138855429D01*
X151421650Y-138864452D01*
X152220102Y-139636484D02*
X152115784Y-139615137D01*
X152057463Y-139581465D01*
X151986817Y-139501797D01*
X151912869Y-139225818D01*
X151934216Y-139121501D01*
X151967887Y-139063180D01*
X152047556Y-138992534D01*
X152185545Y-138955560D01*
X152289863Y-138976907D01*
X152348184Y-139010578D01*
X152418830Y-139090247D01*
X152492778Y-139366225D01*
X152471431Y-139470543D01*
X152437759Y-139528864D01*
X152358091Y-139599510D01*
X152220102Y-139636484D01*
X152645510Y-138832312D02*
X153013481Y-138733715D01*
X152956045Y-139439289D02*
X152734200Y-138611352D01*
X152755547Y-138507035D01*
X152835215Y-138436389D01*
X152927208Y-138411739D01*
X153645992Y-139254418D02*
X153541674Y-139233071D01*
X153471028Y-139153403D01*
X153249184Y-138325466D01*
X154369611Y-139011226D02*
X154289943Y-139081872D01*
X154105957Y-139131171D01*
X154001639Y-139109824D01*
X153930993Y-139030156D01*
X153832395Y-138662184D01*
X153853742Y-138557866D01*
X153933411Y-138487220D01*
X154117397Y-138437921D01*
X154221714Y-138459269D01*
X154292360Y-138538937D01*
X154317010Y-138630930D01*
X153881694Y-138846170D01*
X155577844Y-138736780D02*
X155319025Y-137770854D01*
X156129801Y-138588883D02*
X155567937Y-138147848D01*
X155870982Y-137622958D02*
X155466921Y-138322812D01*
X156899417Y-138333367D02*
X156819748Y-138404013D01*
X156635762Y-138453312D01*
X156531445Y-138431964D01*
X156460799Y-138352296D01*
X156362201Y-137984325D01*
X156383548Y-137880007D01*
X156463216Y-137809361D01*
X156647202Y-137760062D01*
X156751520Y-137781409D01*
X156822166Y-137861077D01*
X156846815Y-137953070D01*
X156411500Y-138168310D01*
X157107167Y-137636815D02*
X157509695Y-138219142D01*
X157567132Y-137513568D02*
X157509695Y-138219142D01*
X157479326Y-138473774D01*
X157445654Y-138532095D01*
X157365986Y-138602741D01*
X158107649Y-138058921D02*
X157848830Y-137092995D01*
X157947428Y-137460966D02*
X158027096Y-137390321D01*
X158211082Y-137341022D01*
X158315400Y-137362369D01*
X158373721Y-137396041D01*
X158444367Y-137475709D01*
X158518315Y-137751688D01*
X158496968Y-137856005D01*
X158463296Y-137914326D01*
X158383628Y-137984972D01*
X158199642Y-138034271D01*
X158095325Y-138012924D01*
X159119572Y-137787777D02*
X159015254Y-137766430D01*
X158956933Y-137732758D01*
X158886287Y-137653090D01*
X158812339Y-137377111D01*
X158833686Y-137272793D01*
X158867357Y-137214472D01*
X158947026Y-137143826D01*
X159085015Y-137106852D01*
X159189333Y-137128199D01*
X159247654Y-137161871D01*
X159318300Y-137241539D01*
X159392248Y-137517518D01*
X159370901Y-137621836D01*
X159337229Y-137680157D01*
X159257561Y-137750803D01*
X159119572Y-137787777D01*
X160269483Y-137479659D02*
X160133912Y-136973698D01*
X160063266Y-136894030D01*
X159958948Y-136872683D01*
X159774962Y-136921981D01*
X159695294Y-136992627D01*
X160257159Y-137433662D02*
X160177490Y-137504308D01*
X159947508Y-137565932D01*
X159843191Y-137544585D01*
X159772545Y-137464917D01*
X159747895Y-137372924D01*
X159769242Y-137268606D01*
X159848910Y-137197960D01*
X160078893Y-137136337D01*
X160158561Y-137065691D01*
X160729448Y-137356412D02*
X160556902Y-136712461D01*
X160606201Y-136896447D02*
X160627548Y-136792129D01*
X160661220Y-136733808D01*
X160740888Y-136663162D01*
X160832881Y-136638513D01*
X161741370Y-137085268D02*
X161482551Y-136119342D01*
X161729046Y-137039272D02*
X161649377Y-137109917D01*
X161465392Y-137159216D01*
X161361074Y-137137869D01*
X161302753Y-137104197D01*
X161232107Y-137024529D01*
X161158159Y-136748550D01*
X161179506Y-136644233D01*
X161213177Y-136585912D01*
X161292846Y-136515266D01*
X161476831Y-136465967D01*
X161581149Y-136487314D01*
X162672740Y-136145524D02*
X163075268Y-136727851D01*
X163132704Y-136022277D01*
X163393056Y-135706022D02*
X163426728Y-135647701D01*
X163506396Y-135577055D01*
X163736378Y-135515431D01*
X163840696Y-135536778D01*
X163899017Y-135570450D01*
X163969663Y-135650118D01*
X163994312Y-135742111D01*
X163985290Y-135892425D01*
X163581229Y-136592279D01*
X164179183Y-136432058D01*
X164568502Y-136229143D02*
X164626823Y-136262814D01*
X164593151Y-136321136D01*
X164534830Y-136287464D01*
X164568502Y-136229143D01*
X164593151Y-136321136D01*
X164978283Y-135182664D02*
X165070276Y-135158014D01*
X165174594Y-135179361D01*
X165232915Y-135213033D01*
X165303561Y-135292701D01*
X165398856Y-135464362D01*
X165460480Y-135694345D01*
X165463782Y-135890655D01*
X165442435Y-135994973D01*
X165408763Y-136053294D01*
X165329095Y-136123940D01*
X165237102Y-136148590D01*
X165132784Y-136127242D01*
X165074463Y-136093571D01*
X165003817Y-136013903D01*
X164908522Y-135842241D01*
X164846898Y-135612259D01*
X164843596Y-135415948D01*
X164864943Y-135311631D01*
X164898615Y-135253310D01*
X164978283Y-135182664D01*
X167444932Y-135557003D02*
X167186113Y-134591077D01*
X167284711Y-134959049D02*
X167364379Y-134888403D01*
X167548365Y-134839104D01*
X167652683Y-134860451D01*
X167711004Y-134894123D01*
X167781650Y-134973791D01*
X167855598Y-135249770D01*
X167834251Y-135354088D01*
X167800579Y-135412409D01*
X167720911Y-135483055D01*
X167536925Y-135532354D01*
X167432608Y-135511007D01*
X168054326Y-134703532D02*
X168456855Y-135285859D01*
X168514291Y-134580285D02*
X168456855Y-135285859D01*
X168426485Y-135540491D01*
X168392814Y-135598812D01*
X168313145Y-135669458D01*
X169807912Y-133888568D02*
X169992783Y-134578515D01*
X169983760Y-134728830D01*
X169916417Y-134845472D01*
X169790752Y-134928443D01*
X169698759Y-134953092D01*
X170664685Y-134694273D02*
X170560368Y-134672926D01*
X170502046Y-134639254D01*
X170431400Y-134559586D01*
X170357452Y-134283607D01*
X170378799Y-134179290D01*
X170412471Y-134120968D01*
X170492139Y-134050322D01*
X170630129Y-134013348D01*
X170734446Y-134034695D01*
X170792767Y-134068367D01*
X170863413Y-134148035D01*
X170937362Y-134424014D01*
X170916015Y-134528332D01*
X170882343Y-134586653D01*
X170802675Y-134657299D01*
X170664685Y-134694273D01*
X171342307Y-134463406D02*
X171446625Y-134484753D01*
X171630611Y-134435454D01*
X171710279Y-134364808D01*
X171731626Y-134260490D01*
X171719302Y-134214494D01*
X171648656Y-134134826D01*
X171544338Y-134113479D01*
X171406349Y-134150453D01*
X171302031Y-134129106D01*
X171231385Y-134049438D01*
X171219060Y-134003441D01*
X171240407Y-133899123D01*
X171320076Y-133828478D01*
X171458065Y-133791503D01*
X171562383Y-133812850D01*
X172538216Y-134142963D02*
X172458547Y-134213609D01*
X172274562Y-134262908D01*
X172170244Y-134241561D01*
X172099598Y-134161893D01*
X172001000Y-133793921D01*
X172022347Y-133689603D01*
X172102016Y-133618957D01*
X172286001Y-133569658D01*
X172390319Y-133591006D01*
X172460965Y-133670674D01*
X172485614Y-133762667D01*
X172050299Y-133977907D01*
X172699970Y-133458736D02*
X173067941Y-133360138D01*
X173010505Y-134065712D02*
X172788660Y-133237776D01*
X172810007Y-133133458D01*
X172889675Y-133062812D01*
X172981668Y-133038163D01*
X174178461Y-133456966D02*
X174638426Y-133333719D01*
X174160417Y-133757595D02*
X174223573Y-132705396D01*
X174804367Y-133585049D01*
X175540311Y-133387853D02*
X175281492Y-132421927D01*
X175527986Y-133341857D02*
X175448318Y-133412502D01*
X175264332Y-133461801D01*
X175160014Y-133440454D01*
X175101693Y-133406783D01*
X175031047Y-133327114D01*
X174957099Y-133051136D01*
X174978446Y-132946818D01*
X175012118Y-132888497D01*
X175091786Y-132817851D01*
X175275772Y-132768552D01*
X175380089Y-132789899D01*
X176414244Y-133153683D02*
X176278672Y-132647722D01*
X176208026Y-132568054D01*
X176103708Y-132546707D01*
X175919722Y-132596006D01*
X175840054Y-132666652D01*
X176401919Y-133107687D02*
X176322251Y-133178333D01*
X176092268Y-133239956D01*
X175987951Y-133218609D01*
X175917305Y-133138941D01*
X175892655Y-133046948D01*
X175914002Y-132942631D01*
X175993671Y-132871985D01*
X176223653Y-132810361D01*
X176303321Y-132739715D01*
X176874208Y-133030436D02*
X176701662Y-132386486D01*
X176726312Y-132478479D02*
X176759984Y-132420157D01*
X176839652Y-132349512D01*
X176977641Y-132312537D01*
X177081959Y-132333884D01*
X177152605Y-132413553D01*
X177288177Y-132919514D01*
X177152605Y-132413553D02*
X177173952Y-132309235D01*
X177253620Y-132238589D01*
X177391609Y-132201615D01*
X177495927Y-132222962D01*
X177566573Y-132302630D01*
X177702145Y-132808591D01*
X178563753Y-132528425D02*
X178484085Y-132599071D01*
X178300099Y-132648370D01*
X178195781Y-132627023D01*
X178137460Y-132593351D01*
X178066814Y-132513683D01*
X177992866Y-132237704D01*
X178014213Y-132133387D01*
X178047885Y-132075065D01*
X178127553Y-132004420D01*
X178311539Y-131955121D01*
X178415856Y-131976468D01*
X178990046Y-132463499D02*
X178817500Y-131819549D01*
X178731227Y-131497573D02*
X178697555Y-131555895D01*
X178755876Y-131589566D01*
X178789548Y-131531245D01*
X178731227Y-131497573D01*
X178755876Y-131589566D01*
X179450011Y-132340252D02*
X179191192Y-131374326D01*
X179443406Y-131947631D02*
X179817982Y-132241654D01*
X179645436Y-131597704D02*
X179376062Y-132064273D01*
D12*
G36*
X94918250Y-59209901D02*
G01*
X95017079Y-59232075D01*
X95059817Y-59288257D01*
X95069150Y-59338767D01*
X95082466Y-59454367D01*
X95174983Y-59349305D01*
X95285144Y-59264855D01*
X95405083Y-59217830D01*
X95497363Y-59205659D01*
X95535085Y-59232387D01*
X95542630Y-59319341D01*
X95542667Y-59338174D01*
X95534877Y-59433512D01*
X95496124Y-59487421D01*
X95403334Y-59526432D01*
X95370052Y-59536648D01*
X95251010Y-59590021D01*
X95167345Y-59675660D01*
X95113896Y-59806285D01*
X95085503Y-59994621D01*
X95077002Y-60253389D01*
X95077000Y-60258974D01*
X95077000Y-60641334D01*
X94780667Y-60641334D01*
X94780667Y-59196636D01*
X94918250Y-59209901D01*
G37*
X94918250Y-59209901D02*
X95017079Y-59232075D01*
X95059817Y-59288257D01*
X95069150Y-59338767D01*
X95082466Y-59454367D01*
X95174983Y-59349305D01*
X95285144Y-59264855D01*
X95405083Y-59217830D01*
X95497363Y-59205659D01*
X95535085Y-59232387D01*
X95542630Y-59319341D01*
X95542667Y-59338174D01*
X95534877Y-59433512D01*
X95496124Y-59487421D01*
X95403334Y-59526432D01*
X95370052Y-59536648D01*
X95251010Y-59590021D01*
X95167345Y-59675660D01*
X95113896Y-59806285D01*
X95085503Y-59994621D01*
X95077002Y-60253389D01*
X95077000Y-60258974D01*
X95077000Y-60641334D01*
X94780667Y-60641334D01*
X94780667Y-59196636D01*
X94918250Y-59209901D01*
G36*
X85171000Y-59540667D02*
G01*
X85313524Y-59540667D01*
X85378582Y-59535204D01*
X85437552Y-59511246D01*
X85503140Y-59457440D01*
X85588054Y-59362435D01*
X85704999Y-59214877D01*
X85763667Y-59138500D01*
X85895438Y-58968044D01*
X85989846Y-58854087D01*
X86060184Y-58785287D01*
X86119744Y-58750304D01*
X86181817Y-58737793D01*
X86234976Y-58736334D01*
X86338958Y-58741702D01*
X86395333Y-58755060D01*
X86398667Y-58759760D01*
X86374136Y-58801373D01*
X86308705Y-58892153D01*
X86214616Y-59015353D01*
X86174298Y-59066677D01*
X86052839Y-59221103D01*
X85935671Y-59371692D01*
X85844976Y-59489907D01*
X85832829Y-59506002D01*
X85715730Y-59661838D01*
X86078112Y-60151586D01*
X86440493Y-60641334D01*
X86255405Y-60641334D01*
X86175564Y-60639308D01*
X86112944Y-60625664D01*
X86053789Y-60589053D01*
X85984346Y-60518126D01*
X85890860Y-60401533D01*
X85768028Y-60239167D01*
X85637171Y-60067420D01*
X85542990Y-59952890D01*
X85472659Y-59884105D01*
X85413353Y-59849595D01*
X85352246Y-59837888D01*
X85318370Y-59837000D01*
X85171000Y-59837000D01*
X85171000Y-60641334D01*
X84874667Y-60641334D01*
X84874667Y-58736334D01*
X85171000Y-58736334D01*
X85171000Y-59540667D01*
G37*
X85171000Y-59540667D02*
X85313524Y-59540667D01*
X85378582Y-59535204D01*
X85437552Y-59511246D01*
X85503140Y-59457440D01*
X85588054Y-59362435D01*
X85704999Y-59214877D01*
X85763667Y-59138500D01*
X85895438Y-58968044D01*
X85989846Y-58854087D01*
X86060184Y-58785287D01*
X86119744Y-58750304D01*
X86181817Y-58737793D01*
X86234976Y-58736334D01*
X86338958Y-58741702D01*
X86395333Y-58755060D01*
X86398667Y-58759760D01*
X86374136Y-58801373D01*
X86308705Y-58892153D01*
X86214616Y-59015353D01*
X86174298Y-59066677D01*
X86052839Y-59221103D01*
X85935671Y-59371692D01*
X85844976Y-59489907D01*
X85832829Y-59506002D01*
X85715730Y-59661838D01*
X86078112Y-60151586D01*
X86440493Y-60641334D01*
X86255405Y-60641334D01*
X86175564Y-60639308D01*
X86112944Y-60625664D01*
X86053789Y-60589053D01*
X85984346Y-60518126D01*
X85890860Y-60401533D01*
X85768028Y-60239167D01*
X85637171Y-60067420D01*
X85542990Y-59952890D01*
X85472659Y-59884105D01*
X85413353Y-59849595D01*
X85352246Y-59837888D01*
X85318370Y-59837000D01*
X85171000Y-59837000D01*
X85171000Y-60641334D01*
X84874667Y-60641334D01*
X84874667Y-58736334D01*
X85171000Y-58736334D01*
X85171000Y-59540667D01*
G36*
X82123000Y-60641334D02*
G01*
X81826667Y-60641334D01*
X81826667Y-58567000D01*
X82123000Y-58567000D01*
X82123000Y-60641334D01*
G37*
X82123000Y-60641334D02*
X81826667Y-60641334D01*
X81826667Y-58567000D01*
X82123000Y-58567000D01*
X82123000Y-60641334D01*
G36*
X81530333Y-58688078D02*
G01*
X81522502Y-58777610D01*
X81481748Y-58814097D01*
X81383656Y-58821000D01*
X81250793Y-58850138D01*
X81173852Y-58940261D01*
X81149333Y-59093384D01*
X81156835Y-59160358D01*
X81194505Y-59192089D01*
X81285093Y-59201548D01*
X81339833Y-59202000D01*
X81456885Y-59205163D01*
X81512312Y-59226600D01*
X81529158Y-59284232D01*
X81530333Y-59350167D01*
X81526266Y-59441207D01*
X81498705Y-59484317D01*
X81424606Y-59497420D01*
X81339833Y-59498334D01*
X81149333Y-59498334D01*
X81149333Y-60641334D01*
X80853000Y-60641334D01*
X80853000Y-59503698D01*
X80715417Y-59490432D01*
X80620072Y-59471342D01*
X80583076Y-59421933D01*
X80577833Y-59350167D01*
X80589260Y-59259708D01*
X80641259Y-59221050D01*
X80709788Y-59210321D01*
X80787939Y-59196725D01*
X80830915Y-59160447D01*
X80854248Y-59078778D01*
X80867539Y-58979662D01*
X80906051Y-58799199D01*
X80980609Y-58682125D01*
X81106881Y-58613629D01*
X81290420Y-58579916D01*
X81530333Y-58555155D01*
X81530333Y-58688078D01*
G37*
X81530333Y-58688078D02*
X81522502Y-58777610D01*
X81481748Y-58814097D01*
X81383656Y-58821000D01*
X81250793Y-58850138D01*
X81173852Y-58940261D01*
X81149333Y-59093384D01*
X81156835Y-59160358D01*
X81194505Y-59192089D01*
X81285093Y-59201548D01*
X81339833Y-59202000D01*
X81456885Y-59205163D01*
X81512312Y-59226600D01*
X81529158Y-59284232D01*
X81530333Y-59350167D01*
X81526266Y-59441207D01*
X81498705Y-59484317D01*
X81424606Y-59497420D01*
X81339833Y-59498334D01*
X81149333Y-59498334D01*
X81149333Y-60641334D01*
X80853000Y-60641334D01*
X80853000Y-59503698D01*
X80715417Y-59490432D01*
X80620072Y-59471342D01*
X80583076Y-59421933D01*
X80577833Y-59350167D01*
X80589260Y-59259708D01*
X80641259Y-59221050D01*
X80709788Y-59210321D01*
X80787939Y-59196725D01*
X80830915Y-59160447D01*
X80854248Y-59078778D01*
X80867539Y-58979662D01*
X80906051Y-58799199D01*
X80980609Y-58682125D01*
X81106881Y-58613629D01*
X81290420Y-58579916D01*
X81530333Y-58555155D01*
X81530333Y-58688078D01*
G36*
X97066667Y-60641334D02*
G01*
X96918500Y-60641334D01*
X96816949Y-60632390D01*
X96774554Y-60595273D01*
X96766991Y-60546084D01*
X96757138Y-60492986D01*
X96742000Y-60504641D01*
X96668146Y-60585749D01*
X96536734Y-60643650D01*
X96372629Y-60674484D01*
X96200698Y-60674391D01*
X96045810Y-60639511D01*
X96002240Y-60619472D01*
X95908979Y-60540720D01*
X95846004Y-60415792D01*
X95809795Y-60233099D01*
X95796828Y-59981049D01*
X95796667Y-59942834D01*
X96093000Y-59942834D01*
X96099400Y-60142596D01*
X96124938Y-60272577D01*
X96179122Y-60347112D01*
X96271459Y-60380537D01*
X96387799Y-60387334D01*
X96554058Y-60370941D01*
X96657585Y-60324505D01*
X96661476Y-60320810D01*
X96707963Y-60229545D01*
X96734599Y-60086933D01*
X96741676Y-59920216D01*
X96729485Y-59756639D01*
X96698317Y-59623445D01*
X96653247Y-59551250D01*
X96571280Y-59519447D01*
X96443746Y-59500577D01*
X96382731Y-59498334D01*
X96252413Y-59508298D01*
X96167600Y-59547706D01*
X96118986Y-59630836D01*
X96097267Y-59771960D01*
X96093000Y-59942834D01*
X95796667Y-59942834D01*
X95806510Y-59683471D01*
X95838613Y-59494521D01*
X95896835Y-59363757D01*
X95985035Y-59278948D01*
X96010821Y-59264214D01*
X96191949Y-59210827D01*
X96397387Y-59210517D01*
X96586657Y-59261854D01*
X96632750Y-59286203D01*
X96770333Y-59370089D01*
X96770333Y-58567000D01*
X97066667Y-58567000D01*
X97066667Y-60641334D01*
G37*
X97066667Y-60641334D02*
X96918500Y-60641334D01*
X96816949Y-60632390D01*
X96774554Y-60595273D01*
X96766991Y-60546084D01*
X96757138Y-60492986D01*
X96742000Y-60504641D01*
X96668146Y-60585749D01*
X96536734Y-60643650D01*
X96372629Y-60674484D01*
X96200698Y-60674391D01*
X96045810Y-60639511D01*
X96002240Y-60619472D01*
X95908979Y-60540720D01*
X95846004Y-60415792D01*
X95809795Y-60233099D01*
X95796828Y-59981049D01*
X95796667Y-59942834D01*
X96093000Y-59942834D01*
X96099400Y-60142596D01*
X96124938Y-60272577D01*
X96179122Y-60347112D01*
X96271459Y-60380537D01*
X96387799Y-60387334D01*
X96554058Y-60370941D01*
X96657585Y-60324505D01*
X96661476Y-60320810D01*
X96707963Y-60229545D01*
X96734599Y-60086933D01*
X96741676Y-59920216D01*
X96729485Y-59756639D01*
X96698317Y-59623445D01*
X96653247Y-59551250D01*
X96571280Y-59519447D01*
X96443746Y-59500577D01*
X96382731Y-59498334D01*
X96252413Y-59508298D01*
X96167600Y-59547706D01*
X96118986Y-59630836D01*
X96097267Y-59771960D01*
X96093000Y-59942834D01*
X95796667Y-59942834D01*
X95806510Y-59683471D01*
X95838613Y-59494521D01*
X95896835Y-59363757D01*
X95985035Y-59278948D01*
X96010821Y-59264214D01*
X96191949Y-59210827D01*
X96397387Y-59210517D01*
X96586657Y-59261854D01*
X96632750Y-59286203D01*
X96770333Y-59370089D01*
X96770333Y-58567000D01*
X97066667Y-58567000D01*
X97066667Y-60641334D01*
G36*
X93812373Y-59209494D02*
G01*
X93976911Y-59222510D01*
X94082398Y-59244363D01*
X94154448Y-59283601D01*
X94214270Y-59343616D01*
X94254390Y-59394858D01*
X94282163Y-59449775D01*
X94299849Y-59524247D01*
X94309709Y-59634153D01*
X94314004Y-59795370D01*
X94314995Y-60023778D01*
X94315000Y-60051027D01*
X94315000Y-60641334D01*
X94188000Y-60641334D01*
X94096088Y-60628889D01*
X94063037Y-60580152D01*
X94061000Y-60549288D01*
X94061000Y-60457242D01*
X93954587Y-60557212D01*
X93854634Y-60624759D01*
X93717995Y-60662410D01*
X93602387Y-60674960D01*
X93453514Y-60680516D01*
X93355555Y-60665186D01*
X93275775Y-60621169D01*
X93233844Y-60587148D01*
X93163227Y-60516994D01*
X93127018Y-60443107D01*
X93114769Y-60334737D01*
X93114660Y-60255359D01*
X93385266Y-60255359D01*
X93422801Y-60365658D01*
X93434467Y-60378867D01*
X93520361Y-60416844D01*
X93651232Y-60427984D01*
X93792122Y-60413364D01*
X93908074Y-60374061D01*
X93924580Y-60363766D01*
X94004442Y-60259290D01*
X94018667Y-60173266D01*
X94018667Y-60048667D01*
X93726862Y-60048667D01*
X93562133Y-60053269D01*
X93464584Y-60069481D01*
X93417108Y-60100911D01*
X93409362Y-60115629D01*
X93385266Y-60255359D01*
X93114660Y-60255359D01*
X93114633Y-60236286D01*
X93127006Y-60070811D01*
X93167163Y-59957666D01*
X93248107Y-59887391D01*
X93382839Y-59850528D01*
X93584364Y-59837618D01*
X93663523Y-59837000D01*
X94018667Y-59837000D01*
X94018667Y-59687786D01*
X93997777Y-59577608D01*
X93928729Y-59505960D01*
X93801955Y-59468777D01*
X93607886Y-59461993D01*
X93500083Y-59467498D01*
X93214333Y-59487029D01*
X93214333Y-59367599D01*
X93226489Y-59284165D01*
X93279505Y-59241173D01*
X93362770Y-59220323D01*
X93482283Y-59208441D01*
X93648606Y-59204762D01*
X93812373Y-59209494D01*
G37*
X93812373Y-59209494D02*
X93976911Y-59222510D01*
X94082398Y-59244363D01*
X94154448Y-59283601D01*
X94214270Y-59343616D01*
X94254390Y-59394858D01*
X94282163Y-59449775D01*
X94299849Y-59524247D01*
X94309709Y-59634153D01*
X94314004Y-59795370D01*
X94314995Y-60023778D01*
X94315000Y-60051027D01*
X94315000Y-60641334D01*
X94188000Y-60641334D01*
X94096088Y-60628889D01*
X94063037Y-60580152D01*
X94061000Y-60549288D01*
X94061000Y-60457242D01*
X93954587Y-60557212D01*
X93854634Y-60624759D01*
X93717995Y-60662410D01*
X93602387Y-60674960D01*
X93453514Y-60680516D01*
X93355555Y-60665186D01*
X93275775Y-60621169D01*
X93233844Y-60587148D01*
X93163227Y-60516994D01*
X93127018Y-60443107D01*
X93114769Y-60334737D01*
X93114660Y-60255359D01*
X93385266Y-60255359D01*
X93422801Y-60365658D01*
X93434467Y-60378867D01*
X93520361Y-60416844D01*
X93651232Y-60427984D01*
X93792122Y-60413364D01*
X93908074Y-60374061D01*
X93924580Y-60363766D01*
X94004442Y-60259290D01*
X94018667Y-60173266D01*
X94018667Y-60048667D01*
X93726862Y-60048667D01*
X93562133Y-60053269D01*
X93464584Y-60069481D01*
X93417108Y-60100911D01*
X93409362Y-60115629D01*
X93385266Y-60255359D01*
X93114660Y-60255359D01*
X93114633Y-60236286D01*
X93127006Y-60070811D01*
X93167163Y-59957666D01*
X93248107Y-59887391D01*
X93382839Y-59850528D01*
X93584364Y-59837618D01*
X93663523Y-59837000D01*
X94018667Y-59837000D01*
X94018667Y-59687786D01*
X93997777Y-59577608D01*
X93928729Y-59505960D01*
X93801955Y-59468777D01*
X93607886Y-59461993D01*
X93500083Y-59467498D01*
X93214333Y-59487029D01*
X93214333Y-59367599D01*
X93226489Y-59284165D01*
X93279505Y-59241173D01*
X93362770Y-59220323D01*
X93482283Y-59208441D01*
X93648606Y-59204762D01*
X93812373Y-59209494D01*
G36*
X92502824Y-59238766D02*
G01*
X92641274Y-59315019D01*
X92729168Y-59445237D01*
X92775905Y-59638431D01*
X92790886Y-59903611D01*
X92791000Y-59935157D01*
X92782684Y-60190637D01*
X92754735Y-60375908D01*
X92702647Y-60504065D01*
X92621917Y-60588202D01*
X92553797Y-60624721D01*
X92430280Y-60655132D01*
X92254392Y-60673016D01*
X92057668Y-60677174D01*
X91871643Y-60666405D01*
X91786427Y-60653901D01*
X91693652Y-60608395D01*
X91606510Y-60526957D01*
X91568486Y-60468361D01*
X91543567Y-60396047D01*
X91529109Y-60291865D01*
X91522471Y-60137665D01*
X91521028Y-59943150D01*
X91817333Y-59943150D01*
X91818649Y-60131597D01*
X91825085Y-60252746D01*
X91840375Y-60323951D01*
X91868251Y-60362571D01*
X91912447Y-60385960D01*
X91912583Y-60386014D01*
X92076684Y-60424618D01*
X92241527Y-60419226D01*
X92374853Y-60372497D01*
X92410000Y-60345000D01*
X92455543Y-60283896D01*
X92481585Y-60199190D01*
X92492917Y-60068119D01*
X92494667Y-59942834D01*
X92490517Y-59767896D01*
X92474873Y-59654597D01*
X92442943Y-59580171D01*
X92410000Y-59540667D01*
X92290753Y-59475238D01*
X92128520Y-59456784D01*
X91952431Y-59487913D01*
X91925922Y-59497286D01*
X91875673Y-59520049D01*
X91843947Y-59553658D01*
X91826489Y-59615586D01*
X91819044Y-59723309D01*
X91817355Y-59894300D01*
X91817333Y-59943150D01*
X91521028Y-59943150D01*
X91521000Y-59939485D01*
X91522376Y-59728268D01*
X91528532Y-59583311D01*
X91542512Y-59486225D01*
X91567359Y-59418622D01*
X91606115Y-59362113D01*
X91619107Y-59346665D01*
X91680446Y-59286400D01*
X91752613Y-59249198D01*
X91859813Y-59227259D01*
X92026252Y-59212783D01*
X92036646Y-59212110D01*
X92304415Y-59207466D01*
X92502824Y-59238766D01*
G37*
X92502824Y-59238766D02*
X92641274Y-59315019D01*
X92729168Y-59445237D01*
X92775905Y-59638431D01*
X92790886Y-59903611D01*
X92791000Y-59935157D01*
X92782684Y-60190637D01*
X92754735Y-60375908D01*
X92702647Y-60504065D01*
X92621917Y-60588202D01*
X92553797Y-60624721D01*
X92430280Y-60655132D01*
X92254392Y-60673016D01*
X92057668Y-60677174D01*
X91871643Y-60666405D01*
X91786427Y-60653901D01*
X91693652Y-60608395D01*
X91606510Y-60526957D01*
X91568486Y-60468361D01*
X91543567Y-60396047D01*
X91529109Y-60291865D01*
X91522471Y-60137665D01*
X91521028Y-59943150D01*
X91817333Y-59943150D01*
X91818649Y-60131597D01*
X91825085Y-60252746D01*
X91840375Y-60323951D01*
X91868251Y-60362571D01*
X91912447Y-60385960D01*
X91912583Y-60386014D01*
X92076684Y-60424618D01*
X92241527Y-60419226D01*
X92374853Y-60372497D01*
X92410000Y-60345000D01*
X92455543Y-60283896D01*
X92481585Y-60199190D01*
X92492917Y-60068119D01*
X92494667Y-59942834D01*
X92490517Y-59767896D01*
X92474873Y-59654597D01*
X92442943Y-59580171D01*
X92410000Y-59540667D01*
X92290753Y-59475238D01*
X92128520Y-59456784D01*
X91952431Y-59487913D01*
X91925922Y-59497286D01*
X91875673Y-59520049D01*
X91843947Y-59553658D01*
X91826489Y-59615586D01*
X91819044Y-59723309D01*
X91817355Y-59894300D01*
X91817333Y-59943150D01*
X91521028Y-59943150D01*
X91521000Y-59939485D01*
X91522376Y-59728268D01*
X91528532Y-59583311D01*
X91542512Y-59486225D01*
X91567359Y-59418622D01*
X91606115Y-59362113D01*
X91619107Y-59346665D01*
X91680446Y-59286400D01*
X91752613Y-59249198D01*
X91859813Y-59227259D01*
X92026252Y-59212783D01*
X92036646Y-59212110D01*
X92304415Y-59207466D01*
X92502824Y-59238766D01*
G36*
X90208667Y-58975728D02*
G01*
X90209279Y-59163186D01*
X90213271Y-59278744D01*
X90223879Y-59335167D01*
X90244336Y-59345223D01*
X90277877Y-59321676D01*
X90292904Y-59308222D01*
X90386699Y-59257551D01*
X90522848Y-59220822D01*
X90578654Y-59213278D01*
X90785398Y-59213277D01*
X90940318Y-59261492D01*
X91048944Y-59364929D01*
X91116805Y-59530594D01*
X91149429Y-59765493D01*
X91154391Y-59942834D01*
X91140930Y-60219856D01*
X91096835Y-60423992D01*
X91016531Y-60563227D01*
X90894449Y-60645548D01*
X90725017Y-60678939D01*
X90639827Y-60680325D01*
X90518206Y-60671994D01*
X90427267Y-60656049D01*
X90420333Y-60653770D01*
X90343665Y-60609245D01*
X90261583Y-60543899D01*
X90166333Y-60457242D01*
X90166333Y-60549288D01*
X90149163Y-60615903D01*
X90081918Y-60639857D01*
X90039333Y-60641334D01*
X89912333Y-60641334D01*
X89912333Y-59935478D01*
X90208667Y-59935478D01*
X90218377Y-60138621D01*
X90254186Y-60271945D01*
X90326105Y-60348756D01*
X90444148Y-60382358D01*
X90548711Y-60387334D01*
X90701949Y-60372458D01*
X90794650Y-60331011D01*
X90800853Y-60324412D01*
X90829288Y-60246299D01*
X90847566Y-60103869D01*
X90853074Y-59942834D01*
X90846547Y-59743022D01*
X90820591Y-59612992D01*
X90765645Y-59538434D01*
X90672150Y-59505041D01*
X90556066Y-59498334D01*
X90397818Y-59511449D01*
X90294772Y-59559739D01*
X90236267Y-59656624D01*
X90211637Y-59815521D01*
X90208667Y-59935478D01*
X89912333Y-59935478D01*
X89912333Y-58567000D01*
X90208667Y-58567000D01*
X90208667Y-58975728D01*
G37*
X90208667Y-58975728D02*
X90209279Y-59163186D01*
X90213271Y-59278744D01*
X90223879Y-59335167D01*
X90244336Y-59345223D01*
X90277877Y-59321676D01*
X90292904Y-59308222D01*
X90386699Y-59257551D01*
X90522848Y-59220822D01*
X90578654Y-59213278D01*
X90785398Y-59213277D01*
X90940318Y-59261492D01*
X91048944Y-59364929D01*
X91116805Y-59530594D01*
X91149429Y-59765493D01*
X91154391Y-59942834D01*
X91140930Y-60219856D01*
X91096835Y-60423992D01*
X91016531Y-60563227D01*
X90894449Y-60645548D01*
X90725017Y-60678939D01*
X90639827Y-60680325D01*
X90518206Y-60671994D01*
X90427267Y-60656049D01*
X90420333Y-60653770D01*
X90343665Y-60609245D01*
X90261583Y-60543899D01*
X90166333Y-60457242D01*
X90166333Y-60549288D01*
X90149163Y-60615903D01*
X90081918Y-60639857D01*
X90039333Y-60641334D01*
X89912333Y-60641334D01*
X89912333Y-59935478D01*
X90208667Y-59935478D01*
X90218377Y-60138621D01*
X90254186Y-60271945D01*
X90326105Y-60348756D01*
X90444148Y-60382358D01*
X90548711Y-60387334D01*
X90701949Y-60372458D01*
X90794650Y-60331011D01*
X90800853Y-60324412D01*
X90829288Y-60246299D01*
X90847566Y-60103869D01*
X90853074Y-59942834D01*
X90846547Y-59743022D01*
X90820591Y-59612992D01*
X90765645Y-59538434D01*
X90672150Y-59505041D01*
X90556066Y-59498334D01*
X90397818Y-59511449D01*
X90294772Y-59559739D01*
X90236267Y-59656624D01*
X90211637Y-59815521D01*
X90208667Y-59935478D01*
X89912333Y-59935478D01*
X89912333Y-58567000D01*
X90208667Y-58567000D01*
X90208667Y-58975728D01*
G36*
X87449416Y-59216578D02*
G01*
X87606727Y-59267993D01*
X87711689Y-59367773D01*
X87776328Y-59527443D01*
X87812675Y-59758528D01*
X87813097Y-59762917D01*
X87840358Y-60048667D01*
X86857606Y-60048667D01*
X86886596Y-60186250D01*
X86918206Y-60294210D01*
X86954517Y-60364949D01*
X86955631Y-60366167D01*
X87013568Y-60385043D01*
X87134444Y-60399547D01*
X87296563Y-60407494D01*
X87374504Y-60408351D01*
X87753333Y-60408202D01*
X87753333Y-60519830D01*
X87727893Y-60616139D01*
X87658083Y-60656985D01*
X87525023Y-60676408D01*
X87346785Y-60681885D01*
X87154372Y-60674737D01*
X86978785Y-60656285D01*
X86851025Y-60627850D01*
X86835916Y-60621955D01*
X86732642Y-60562737D01*
X86662388Y-60480574D01*
X86619369Y-60359867D01*
X86597802Y-60185018D01*
X86591937Y-59964000D01*
X86597018Y-59837000D01*
X86866450Y-59837000D01*
X87552250Y-59837000D01*
X87525221Y-59699417D01*
X87471974Y-59559040D01*
X87373850Y-59483179D01*
X87220177Y-59464963D01*
X87167568Y-59469059D01*
X87029559Y-59491262D01*
X86952013Y-59533523D01*
X86910727Y-59616087D01*
X86892156Y-59699417D01*
X86866450Y-59837000D01*
X86597018Y-59837000D01*
X86602958Y-59688532D01*
X86643312Y-59485350D01*
X86721061Y-59344789D01*
X86844273Y-59257183D01*
X87021010Y-59212866D01*
X87227728Y-59202000D01*
X87449416Y-59216578D01*
G37*
X87449416Y-59216578D02*
X87606727Y-59267993D01*
X87711689Y-59367773D01*
X87776328Y-59527443D01*
X87812675Y-59758528D01*
X87813097Y-59762917D01*
X87840358Y-60048667D01*
X86857606Y-60048667D01*
X86886596Y-60186250D01*
X86918206Y-60294210D01*
X86954517Y-60364949D01*
X86955631Y-60366167D01*
X87013568Y-60385043D01*
X87134444Y-60399547D01*
X87296563Y-60407494D01*
X87374504Y-60408351D01*
X87753333Y-60408202D01*
X87753333Y-60519830D01*
X87727893Y-60616139D01*
X87658083Y-60656985D01*
X87525023Y-60676408D01*
X87346785Y-60681885D01*
X87154372Y-60674737D01*
X86978785Y-60656285D01*
X86851025Y-60627850D01*
X86835916Y-60621955D01*
X86732642Y-60562737D01*
X86662388Y-60480574D01*
X86619369Y-60359867D01*
X86597802Y-60185018D01*
X86591937Y-59964000D01*
X86597018Y-59837000D01*
X86866450Y-59837000D01*
X87552250Y-59837000D01*
X87525221Y-59699417D01*
X87471974Y-59559040D01*
X87373850Y-59483179D01*
X87220177Y-59464963D01*
X87167568Y-59469059D01*
X87029559Y-59491262D01*
X86952013Y-59533523D01*
X86910727Y-59616087D01*
X86892156Y-59699417D01*
X86866450Y-59837000D01*
X86597018Y-59837000D01*
X86602958Y-59688532D01*
X86643312Y-59485350D01*
X86721061Y-59344789D01*
X86844273Y-59257183D01*
X87021010Y-59212866D01*
X87227728Y-59202000D01*
X87449416Y-59216578D01*
G36*
X83386028Y-59216770D02*
G01*
X83544131Y-59268741D01*
X83650137Y-59369407D01*
X83716146Y-59530262D01*
X83754260Y-59762801D01*
X83754272Y-59762917D01*
X83783863Y-60048667D01*
X82802450Y-60048667D01*
X82828156Y-60186250D01*
X82857210Y-60294373D01*
X82891795Y-60365073D01*
X82892769Y-60366167D01*
X82950166Y-60385037D01*
X83070585Y-60399539D01*
X83232407Y-60407490D01*
X83310504Y-60408351D01*
X83689333Y-60408202D01*
X83689333Y-60519830D01*
X83663893Y-60616139D01*
X83594083Y-60656985D01*
X83461023Y-60676408D01*
X83282785Y-60681885D01*
X83090372Y-60674737D01*
X82914785Y-60656285D01*
X82787025Y-60627850D01*
X82771916Y-60621955D01*
X82669448Y-60563025D01*
X82599736Y-60480922D01*
X82557063Y-60360105D01*
X82535715Y-60185029D01*
X82529999Y-59964000D01*
X82540975Y-59688589D01*
X82541132Y-59687786D01*
X82842667Y-59687786D01*
X82842667Y-59837000D01*
X83160167Y-59837000D01*
X83321660Y-59835681D01*
X83416324Y-59827761D01*
X83461992Y-59807295D01*
X83476499Y-59768339D01*
X83477667Y-59731167D01*
X83441499Y-59598308D01*
X83344008Y-59506094D01*
X83201707Y-59461865D01*
X83031112Y-59472956D01*
X82951256Y-59497286D01*
X82874832Y-59544026D01*
X82845447Y-59625042D01*
X82842667Y-59687786D01*
X82541132Y-59687786D01*
X82580874Y-59485516D01*
X82657783Y-59345058D01*
X82779790Y-59257491D01*
X82954981Y-59213090D01*
X83163728Y-59202000D01*
X83386028Y-59216770D01*
G37*
X83386028Y-59216770D02*
X83544131Y-59268741D01*
X83650137Y-59369407D01*
X83716146Y-59530262D01*
X83754260Y-59762801D01*
X83754272Y-59762917D01*
X83783863Y-60048667D01*
X82802450Y-60048667D01*
X82828156Y-60186250D01*
X82857210Y-60294373D01*
X82891795Y-60365073D01*
X82892769Y-60366167D01*
X82950166Y-60385037D01*
X83070585Y-60399539D01*
X83232407Y-60407490D01*
X83310504Y-60408351D01*
X83689333Y-60408202D01*
X83689333Y-60519830D01*
X83663893Y-60616139D01*
X83594083Y-60656985D01*
X83461023Y-60676408D01*
X83282785Y-60681885D01*
X83090372Y-60674737D01*
X82914785Y-60656285D01*
X82787025Y-60627850D01*
X82771916Y-60621955D01*
X82669448Y-60563025D01*
X82599736Y-60480922D01*
X82557063Y-60360105D01*
X82535715Y-60185029D01*
X82529999Y-59964000D01*
X82540975Y-59688589D01*
X82541132Y-59687786D01*
X82842667Y-59687786D01*
X82842667Y-59837000D01*
X83160167Y-59837000D01*
X83321660Y-59835681D01*
X83416324Y-59827761D01*
X83461992Y-59807295D01*
X83476499Y-59768339D01*
X83477667Y-59731167D01*
X83441499Y-59598308D01*
X83344008Y-59506094D01*
X83201707Y-59461865D01*
X83031112Y-59472956D01*
X82951256Y-59497286D01*
X82874832Y-59544026D01*
X82845447Y-59625042D01*
X82842667Y-59687786D01*
X82541132Y-59687786D01*
X82580874Y-59485516D01*
X82657783Y-59345058D01*
X82779790Y-59257491D01*
X82954981Y-59213090D01*
X83163728Y-59202000D01*
X83386028Y-59216770D01*
G36*
X79869485Y-59213735D02*
G01*
X80026737Y-59237546D01*
X80110603Y-59262118D01*
X80212872Y-59329358D01*
X80282988Y-59438969D01*
X80325036Y-59602840D01*
X80343101Y-59832858D01*
X80344528Y-59942834D01*
X80334693Y-60201813D01*
X80302466Y-60390017D01*
X80243761Y-60519335D01*
X80154492Y-60601654D01*
X80110603Y-60623549D01*
X79979545Y-60656337D01*
X79798675Y-60674739D01*
X79601782Y-60677749D01*
X79422657Y-60664363D01*
X79332816Y-60646689D01*
X79223418Y-60598114D01*
X79146602Y-60515331D01*
X79097645Y-60385957D01*
X79071825Y-60197607D01*
X79064427Y-59943150D01*
X79371333Y-59943150D01*
X79372649Y-60131597D01*
X79379085Y-60252746D01*
X79394375Y-60323951D01*
X79422251Y-60362571D01*
X79466447Y-60385960D01*
X79466583Y-60386014D01*
X79615079Y-60420776D01*
X79775467Y-60421575D01*
X79909554Y-60389722D01*
X79945325Y-60369579D01*
X79985997Y-60328301D01*
X80010766Y-60264577D01*
X80023328Y-60159206D01*
X80027382Y-59992989D01*
X80027500Y-59942834D01*
X80024914Y-59759468D01*
X80014691Y-59641476D01*
X79993134Y-59569660D01*
X79956547Y-59524818D01*
X79945325Y-59516088D01*
X79820864Y-59467769D01*
X79657454Y-59459603D01*
X79491461Y-59493058D01*
X79479922Y-59497286D01*
X79429673Y-59520049D01*
X79397947Y-59553658D01*
X79380489Y-59615586D01*
X79373044Y-59723309D01*
X79371355Y-59894300D01*
X79371333Y-59943150D01*
X79064427Y-59943150D01*
X79064417Y-59942834D01*
X79071569Y-59677527D01*
X79099644Y-59484683D01*
X79158563Y-59352815D01*
X79258251Y-59270436D01*
X79408630Y-59226060D01*
X79619624Y-59208199D01*
X79700776Y-59206220D01*
X79869485Y-59213735D01*
G37*
X79869485Y-59213735D02*
X80026737Y-59237546D01*
X80110603Y-59262118D01*
X80212872Y-59329358D01*
X80282988Y-59438969D01*
X80325036Y-59602840D01*
X80343101Y-59832858D01*
X80344528Y-59942834D01*
X80334693Y-60201813D01*
X80302466Y-60390017D01*
X80243761Y-60519335D01*
X80154492Y-60601654D01*
X80110603Y-60623549D01*
X79979545Y-60656337D01*
X79798675Y-60674739D01*
X79601782Y-60677749D01*
X79422657Y-60664363D01*
X79332816Y-60646689D01*
X79223418Y-60598114D01*
X79146602Y-60515331D01*
X79097645Y-60385957D01*
X79071825Y-60197607D01*
X79064427Y-59943150D01*
X79371333Y-59943150D01*
X79372649Y-60131597D01*
X79379085Y-60252746D01*
X79394375Y-60323951D01*
X79422251Y-60362571D01*
X79466447Y-60385960D01*
X79466583Y-60386014D01*
X79615079Y-60420776D01*
X79775467Y-60421575D01*
X79909554Y-60389722D01*
X79945325Y-60369579D01*
X79985997Y-60328301D01*
X80010766Y-60264577D01*
X80023328Y-60159206D01*
X80027382Y-59992989D01*
X80027500Y-59942834D01*
X80024914Y-59759468D01*
X80014691Y-59641476D01*
X79993134Y-59569660D01*
X79956547Y-59524818D01*
X79945325Y-59516088D01*
X79820864Y-59467769D01*
X79657454Y-59459603D01*
X79491461Y-59493058D01*
X79479922Y-59497286D01*
X79429673Y-59520049D01*
X79397947Y-59553658D01*
X79380489Y-59615586D01*
X79373044Y-59723309D01*
X79371355Y-59894300D01*
X79371333Y-59943150D01*
X79064427Y-59943150D01*
X79064417Y-59942834D01*
X79071569Y-59677527D01*
X79099644Y-59484683D01*
X79158563Y-59352815D01*
X79258251Y-59270436D01*
X79408630Y-59226060D01*
X79619624Y-59208199D01*
X79700776Y-59206220D01*
X79869485Y-59213735D01*
G36*
X78321975Y-58712310D02*
G01*
X78329455Y-58713100D01*
X78478501Y-58730575D01*
X78562213Y-58750106D01*
X78599443Y-58782751D01*
X78609045Y-58839568D01*
X78609374Y-58877286D01*
X78609416Y-59011500D01*
X78189888Y-58997070D01*
X77994926Y-58991913D01*
X77865208Y-58994509D01*
X77781448Y-59007812D01*
X77724359Y-59034776D01*
X77677437Y-59075563D01*
X77610678Y-59173120D01*
X77608748Y-59289270D01*
X77610531Y-59298573D01*
X77633385Y-59394251D01*
X77652402Y-59444494D01*
X77652723Y-59444835D01*
X77698969Y-59457452D01*
X77809832Y-59478013D01*
X77966025Y-59503109D01*
X78065032Y-59517718D01*
X78245788Y-59545430D01*
X78399470Y-59572351D01*
X78503342Y-59594344D01*
X78529516Y-59602209D01*
X78617070Y-59683250D01*
X78671960Y-59840945D01*
X78693644Y-60073611D01*
X78694000Y-60113491D01*
X78689335Y-60271413D01*
X78669018Y-60376448D01*
X78623565Y-60460150D01*
X78570553Y-60524249D01*
X78447106Y-60662500D01*
X78009636Y-60668520D01*
X77812531Y-60669226D01*
X77635926Y-60666256D01*
X77504269Y-60660200D01*
X77455750Y-60655125D01*
X77370693Y-60625129D01*
X77341136Y-60555249D01*
X77339333Y-60511522D01*
X77339333Y-60387334D01*
X77801976Y-60387334D01*
X78020816Y-60384634D01*
X78170334Y-60375262D01*
X78265739Y-60357304D01*
X78322242Y-60328848D01*
X78331143Y-60320810D01*
X78378272Y-60227432D01*
X78396507Y-60097412D01*
X78382070Y-59974959D01*
X78364144Y-59934473D01*
X78310775Y-59907053D01*
X78193109Y-59874169D01*
X78030873Y-59840769D01*
X77914492Y-59821664D01*
X77680156Y-59781264D01*
X77516820Y-59734573D01*
X77410933Y-59670880D01*
X77348945Y-59579473D01*
X77317306Y-59449640D01*
X77306710Y-59341228D01*
X77309255Y-59108920D01*
X77356654Y-58939229D01*
X77452591Y-58820790D01*
X77482331Y-58799327D01*
X77620092Y-58743719D01*
X77819709Y-58709280D01*
X78060548Y-58698110D01*
X78321975Y-58712310D01*
G37*
X78321975Y-58712310D02*
X78329455Y-58713100D01*
X78478501Y-58730575D01*
X78562213Y-58750106D01*
X78599443Y-58782751D01*
X78609045Y-58839568D01*
X78609374Y-58877286D01*
X78609416Y-59011500D01*
X78189888Y-58997070D01*
X77994926Y-58991913D01*
X77865208Y-58994509D01*
X77781448Y-59007812D01*
X77724359Y-59034776D01*
X77677437Y-59075563D01*
X77610678Y-59173120D01*
X77608748Y-59289270D01*
X77610531Y-59298573D01*
X77633385Y-59394251D01*
X77652402Y-59444494D01*
X77652723Y-59444835D01*
X77698969Y-59457452D01*
X77809832Y-59478013D01*
X77966025Y-59503109D01*
X78065032Y-59517718D01*
X78245788Y-59545430D01*
X78399470Y-59572351D01*
X78503342Y-59594344D01*
X78529516Y-59602209D01*
X78617070Y-59683250D01*
X78671960Y-59840945D01*
X78693644Y-60073611D01*
X78694000Y-60113491D01*
X78689335Y-60271413D01*
X78669018Y-60376448D01*
X78623565Y-60460150D01*
X78570553Y-60524249D01*
X78447106Y-60662500D01*
X78009636Y-60668520D01*
X77812531Y-60669226D01*
X77635926Y-60666256D01*
X77504269Y-60660200D01*
X77455750Y-60655125D01*
X77370693Y-60625129D01*
X77341136Y-60555249D01*
X77339333Y-60511522D01*
X77339333Y-60387334D01*
X77801976Y-60387334D01*
X78020816Y-60384634D01*
X78170334Y-60375262D01*
X78265739Y-60357304D01*
X78322242Y-60328848D01*
X78331143Y-60320810D01*
X78378272Y-60227432D01*
X78396507Y-60097412D01*
X78382070Y-59974959D01*
X78364144Y-59934473D01*
X78310775Y-59907053D01*
X78193109Y-59874169D01*
X78030873Y-59840769D01*
X77914492Y-59821664D01*
X77680156Y-59781264D01*
X77516820Y-59734573D01*
X77410933Y-59670880D01*
X77348945Y-59579473D01*
X77317306Y-59449640D01*
X77306710Y-59341228D01*
X77309255Y-59108920D01*
X77356654Y-58939229D01*
X77452591Y-58820790D01*
X77482331Y-58799327D01*
X77620092Y-58743719D01*
X77819709Y-58709280D01*
X78060548Y-58698110D01*
X78321975Y-58712310D01*
G36*
X88353488Y-59209670D02*
G01*
X88494167Y-59223167D01*
X88515333Y-59752334D01*
X88526057Y-59958917D01*
X88539878Y-60136692D01*
X88555061Y-60267431D01*
X88569872Y-60332903D01*
X88570748Y-60334417D01*
X88636901Y-60370810D01*
X88752321Y-60385401D01*
X88884596Y-60378671D01*
X89001313Y-60351102D01*
X89046992Y-60327334D01*
X89081796Y-60293046D01*
X89106131Y-60239708D01*
X89122467Y-60152102D01*
X89133274Y-60015010D01*
X89141023Y-59813214D01*
X89143202Y-59734668D01*
X89157238Y-59202000D01*
X89446667Y-59202000D01*
X89446601Y-60016917D01*
X89444008Y-60369531D01*
X89432556Y-60646613D01*
X89406643Y-60857235D01*
X89360666Y-61010469D01*
X89289019Y-61115387D01*
X89186102Y-61181061D01*
X89046309Y-61216562D01*
X88864038Y-61230963D01*
X88695250Y-61233376D01*
X88303667Y-61234000D01*
X88303667Y-60988688D01*
X88666913Y-60973761D01*
X88877623Y-60958175D01*
X89017587Y-60925410D01*
X89100410Y-60865558D01*
X89139699Y-60768708D01*
X89149062Y-60624953D01*
X89149046Y-60622659D01*
X89144245Y-60520859D01*
X89129230Y-60494175D01*
X89105311Y-60523663D01*
X89026247Y-60589836D01*
X88891757Y-60640247D01*
X88730660Y-60667613D01*
X88571770Y-60664651D01*
X88556669Y-60662332D01*
X88445553Y-60637650D01*
X88363701Y-60598553D01*
X88306304Y-60532917D01*
X88268553Y-60428618D01*
X88245641Y-60273532D01*
X88232759Y-60055534D01*
X88226488Y-59829776D01*
X88212810Y-59196174D01*
X88353488Y-59209670D01*
G37*
X88353488Y-59209670D02*
X88494167Y-59223167D01*
X88515333Y-59752334D01*
X88526057Y-59958917D01*
X88539878Y-60136692D01*
X88555061Y-60267431D01*
X88569872Y-60332903D01*
X88570748Y-60334417D01*
X88636901Y-60370810D01*
X88752321Y-60385401D01*
X88884596Y-60378671D01*
X89001313Y-60351102D01*
X89046992Y-60327334D01*
X89081796Y-60293046D01*
X89106131Y-60239708D01*
X89122467Y-60152102D01*
X89133274Y-60015010D01*
X89141023Y-59813214D01*
X89143202Y-59734668D01*
X89157238Y-59202000D01*
X89446667Y-59202000D01*
X89446601Y-60016917D01*
X89444008Y-60369531D01*
X89432556Y-60646613D01*
X89406643Y-60857235D01*
X89360666Y-61010469D01*
X89289019Y-61115387D01*
X89186102Y-61181061D01*
X89046309Y-61216562D01*
X88864038Y-61230963D01*
X88695250Y-61233376D01*
X88303667Y-61234000D01*
X88303667Y-60988688D01*
X88666913Y-60973761D01*
X88877623Y-60958175D01*
X89017587Y-60925410D01*
X89100410Y-60865558D01*
X89139699Y-60768708D01*
X89149062Y-60624953D01*
X89149046Y-60622659D01*
X89144245Y-60520859D01*
X89129230Y-60494175D01*
X89105311Y-60523663D01*
X89026247Y-60589836D01*
X88891757Y-60640247D01*
X88730660Y-60667613D01*
X88571770Y-60664651D01*
X88556669Y-60662332D01*
X88445553Y-60637650D01*
X88363701Y-60598553D01*
X88306304Y-60532917D01*
X88268553Y-60428618D01*
X88245641Y-60273532D01*
X88232759Y-60055534D01*
X88226488Y-59829776D01*
X88212810Y-59196174D01*
X88353488Y-59209670D01*
G36*
X80452823Y-61492652D02*
G01*
X80494411Y-61494141D01*
X80674505Y-61503565D01*
X80791755Y-61518024D01*
X80867975Y-61543754D01*
X80924980Y-61586991D01*
X80962499Y-61627945D01*
X81021857Y-61712767D01*
X81053036Y-61810521D01*
X81064074Y-61951646D01*
X81064667Y-62014838D01*
X81054685Y-62200228D01*
X81022049Y-62322543D01*
X80990583Y-62372966D01*
X80921891Y-62426562D01*
X80794565Y-62500573D01*
X80628612Y-62584046D01*
X80493167Y-62645268D01*
X80307336Y-62726245D01*
X80185315Y-62784884D01*
X80113042Y-62832074D01*
X80076452Y-62878706D01*
X80061482Y-62935672D01*
X80056694Y-62983279D01*
X80043556Y-63139000D01*
X81064667Y-63139000D01*
X81064667Y-63435334D01*
X79697451Y-63435334D01*
X79724108Y-63089646D01*
X79746417Y-62888683D01*
X79786661Y-62743096D01*
X79859102Y-62634833D01*
X79978005Y-62545842D01*
X80157631Y-62458072D01*
X80255774Y-62416752D01*
X80468306Y-62326528D01*
X80613418Y-62255848D01*
X80703425Y-62195791D01*
X80750644Y-62137434D01*
X80767391Y-62071856D01*
X80768333Y-62045449D01*
X80759365Y-61931897D01*
X80723932Y-61854113D01*
X80649242Y-61806003D01*
X80522500Y-61781472D01*
X80330915Y-61774426D01*
X80201916Y-61775642D01*
X79752333Y-61783547D01*
X79752333Y-61659534D01*
X79760051Y-61581601D01*
X79798386Y-61539670D01*
X79890112Y-61515309D01*
X79940412Y-61507317D01*
X80073259Y-61495772D01*
X80255695Y-61490607D01*
X80452823Y-61492652D01*
G37*
X80452823Y-61492652D02*
X80494411Y-61494141D01*
X80674505Y-61503565D01*
X80791755Y-61518024D01*
X80867975Y-61543754D01*
X80924980Y-61586991D01*
X80962499Y-61627945D01*
X81021857Y-61712767D01*
X81053036Y-61810521D01*
X81064074Y-61951646D01*
X81064667Y-62014838D01*
X81054685Y-62200228D01*
X81022049Y-62322543D01*
X80990583Y-62372966D01*
X80921891Y-62426562D01*
X80794565Y-62500573D01*
X80628612Y-62584046D01*
X80493167Y-62645268D01*
X80307336Y-62726245D01*
X80185315Y-62784884D01*
X80113042Y-62832074D01*
X80076452Y-62878706D01*
X80061482Y-62935672D01*
X80056694Y-62983279D01*
X80043556Y-63139000D01*
X81064667Y-63139000D01*
X81064667Y-63435334D01*
X79697451Y-63435334D01*
X79724108Y-63089646D01*
X79746417Y-62888683D01*
X79786661Y-62743096D01*
X79859102Y-62634833D01*
X79978005Y-62545842D01*
X80157631Y-62458072D01*
X80255774Y-62416752D01*
X80468306Y-62326528D01*
X80613418Y-62255848D01*
X80703425Y-62195791D01*
X80750644Y-62137434D01*
X80767391Y-62071856D01*
X80768333Y-62045449D01*
X80759365Y-61931897D01*
X80723932Y-61854113D01*
X80649242Y-61806003D01*
X80522500Y-61781472D01*
X80330915Y-61774426D01*
X80201916Y-61775642D01*
X79752333Y-61783547D01*
X79752333Y-61659534D01*
X79760051Y-61581601D01*
X79798386Y-61539670D01*
X79890112Y-61515309D01*
X79940412Y-61507317D01*
X80073259Y-61495772D01*
X80255695Y-61490607D01*
X80452823Y-61492652D01*
G36*
X78734077Y-62006265D02*
G01*
X78778205Y-62031292D01*
X78778667Y-62034432D01*
X78765316Y-62085315D01*
X78728333Y-62202094D01*
X78672323Y-62370846D01*
X78601888Y-62577648D01*
X78540705Y-62754099D01*
X78302744Y-63435334D01*
X78106788Y-63435164D01*
X77910833Y-63434995D01*
X77678000Y-62752826D01*
X77600322Y-62525464D01*
X77531830Y-62325408D01*
X77477343Y-62166701D01*
X77441679Y-62063382D01*
X77430115Y-62030507D01*
X77456975Y-62007970D01*
X77543126Y-62001868D01*
X77575009Y-62003762D01*
X77734955Y-62017167D01*
X77925474Y-62588667D01*
X78115992Y-63160167D01*
X78308613Y-62578084D01*
X78501233Y-61996000D01*
X78639950Y-61996000D01*
X78734077Y-62006265D01*
G37*
X78734077Y-62006265D02*
X78778205Y-62031292D01*
X78778667Y-62034432D01*
X78765316Y-62085315D01*
X78728333Y-62202094D01*
X78672323Y-62370846D01*
X78601888Y-62577648D01*
X78540705Y-62754099D01*
X78302744Y-63435334D01*
X78106788Y-63435164D01*
X77910833Y-63434995D01*
X77678000Y-62752826D01*
X77600322Y-62525464D01*
X77531830Y-62325408D01*
X77477343Y-62166701D01*
X77441679Y-62063382D01*
X77430115Y-62030507D01*
X77456975Y-62007970D01*
X77543126Y-62001868D01*
X77575009Y-62003762D01*
X77734955Y-62017167D01*
X77925474Y-62588667D01*
X78115992Y-63160167D01*
X78308613Y-62578084D01*
X78501233Y-61996000D01*
X78639950Y-61996000D01*
X78734077Y-62006265D01*
G36*
X68725076Y-53889783D02*
G01*
X68817448Y-54006948D01*
X68871753Y-54108346D01*
X68937128Y-54303807D01*
X68964176Y-54536638D01*
X68952229Y-54814630D01*
X68900618Y-55145573D01*
X68808674Y-55537259D01*
X68722913Y-55841805D01*
X68711594Y-55892239D01*
X68728908Y-55912460D01*
X68792582Y-55905311D01*
X68920341Y-55873640D01*
X68920668Y-55873555D01*
X69140047Y-55827574D01*
X69312629Y-55820574D01*
X69466837Y-55852673D01*
X69528686Y-55876044D01*
X69654372Y-55963705D01*
X69710363Y-56081793D01*
X69698076Y-56214782D01*
X69618927Y-56347148D01*
X69475138Y-56462896D01*
X69369224Y-56511957D01*
X69211041Y-56570389D01*
X69030538Y-56627356D01*
X68985357Y-56640120D01*
X68738844Y-56712958D01*
X68560918Y-56780079D01*
X68436743Y-56850247D01*
X68351488Y-56932227D01*
X68290319Y-57034783D01*
X68280512Y-57056589D01*
X68250789Y-57147878D01*
X68214174Y-57293907D01*
X68173910Y-57477185D01*
X68133241Y-57680223D01*
X68095410Y-57885531D01*
X68063660Y-58075619D01*
X68041235Y-58232997D01*
X68031376Y-58340176D01*
X68035334Y-58378778D01*
X68080321Y-58379246D01*
X68192219Y-58370264D01*
X68354055Y-58353882D01*
X68548859Y-58332150D01*
X68759657Y-58307116D01*
X68969479Y-58280830D01*
X69161353Y-58255342D01*
X69318306Y-58232699D01*
X69423367Y-58214951D01*
X69454750Y-58207395D01*
X69502672Y-58212715D01*
X69507667Y-58227279D01*
X69543614Y-58266649D01*
X69642086Y-58334468D01*
X69789025Y-58423077D01*
X69970374Y-58524818D01*
X70172075Y-58632032D01*
X70380072Y-58737061D01*
X70580307Y-58832246D01*
X70758723Y-58909928D01*
X70766352Y-58913027D01*
X70980690Y-58993642D01*
X71211065Y-59070593D01*
X71417560Y-59130810D01*
X71475436Y-59145196D01*
X71645470Y-59191642D01*
X71755587Y-59236525D01*
X71793667Y-59274116D01*
X71822441Y-59324641D01*
X71840799Y-59329000D01*
X71852106Y-59369510D01*
X71860191Y-59483879D01*
X71865175Y-59661365D01*
X71867181Y-59891227D01*
X71866329Y-60162723D01*
X71862743Y-60465111D01*
X71856544Y-60787650D01*
X71847853Y-61119598D01*
X71836794Y-61450213D01*
X71823487Y-61768754D01*
X71810173Y-62027750D01*
X71785519Y-62461667D01*
X71899680Y-62461667D01*
X72008406Y-62453084D01*
X72174633Y-62429838D01*
X72379129Y-62395682D01*
X72602662Y-62354368D01*
X72826000Y-62309650D01*
X73029912Y-62265281D01*
X73195167Y-62225013D01*
X73302532Y-62192600D01*
X73322480Y-62184011D01*
X73402470Y-62130607D01*
X73469505Y-62052918D01*
X73530735Y-61936888D01*
X73593310Y-61768458D01*
X73664382Y-61533573D01*
X73678179Y-61484756D01*
X73760521Y-61217821D01*
X73839742Y-61023037D01*
X73922537Y-60888458D01*
X74015603Y-60802140D01*
X74079791Y-60768282D01*
X74216137Y-60746725D01*
X74329015Y-60795826D01*
X74414494Y-60903861D01*
X74468641Y-61059106D01*
X74487524Y-61249836D01*
X74467212Y-61464328D01*
X74403772Y-61690856D01*
X74395969Y-61711040D01*
X74384425Y-61759457D01*
X74418940Y-61763374D01*
X74487584Y-61739689D01*
X74670328Y-61680580D01*
X74900932Y-61621115D01*
X75152405Y-61566749D01*
X75397757Y-61522936D01*
X75609997Y-61495128D01*
X75732938Y-61488055D01*
X75927602Y-61505765D01*
X76120875Y-61553319D01*
X76290998Y-61622241D01*
X76416211Y-61704055D01*
X76470287Y-61775271D01*
X76459980Y-61850397D01*
X76397782Y-61929638D01*
X76310288Y-61985354D01*
X76257899Y-61996000D01*
X76178977Y-62010319D01*
X76085916Y-62040076D01*
X75969986Y-62084153D01*
X76114456Y-62156493D01*
X76235040Y-62249661D01*
X76307331Y-62371471D01*
X76317265Y-62495756D01*
X76309925Y-62520213D01*
X76255558Y-62569583D01*
X76134718Y-62589237D01*
X76102412Y-62589954D01*
X75995851Y-62593569D01*
X75963451Y-62605790D01*
X75994776Y-62631817D01*
X76005833Y-62638069D01*
X76168605Y-62753646D01*
X76258421Y-62875842D01*
X76272111Y-62996703D01*
X76206503Y-63108277D01*
X76196901Y-63117319D01*
X76098766Y-63174588D01*
X75962400Y-63194290D01*
X75771058Y-63177966D01*
X75688333Y-63164087D01*
X75497833Y-63129284D01*
X75610344Y-63218809D01*
X75699547Y-63280057D01*
X75764579Y-63308142D01*
X75767765Y-63308334D01*
X75793697Y-63340772D01*
X75769313Y-63438916D01*
X75723505Y-63544592D01*
X75696461Y-63590305D01*
X75656911Y-63611569D01*
X75583645Y-63610648D01*
X75455454Y-63589806D01*
X75399063Y-63579243D01*
X75173491Y-63531287D01*
X75002921Y-63478962D01*
X74858014Y-63410477D01*
X74709432Y-63314041D01*
X74672333Y-63287167D01*
X74580092Y-63219984D01*
X74499826Y-63167695D01*
X74420666Y-63129888D01*
X74331743Y-63106154D01*
X74222187Y-63096080D01*
X74081130Y-63099259D01*
X73897703Y-63115277D01*
X73661036Y-63143727D01*
X73360261Y-63184196D01*
X73057318Y-63226179D01*
X72747514Y-63268994D01*
X72464742Y-63307743D01*
X72219942Y-63340953D01*
X72024052Y-63367152D01*
X71888009Y-63384867D01*
X71822752Y-63392627D01*
X71819211Y-63392854D01*
X71813818Y-63433925D01*
X71809477Y-63551963D01*
X71806138Y-63739277D01*
X71803752Y-63988175D01*
X71802270Y-64290965D01*
X71801645Y-64639956D01*
X71801826Y-65027455D01*
X71802765Y-65445770D01*
X71804412Y-65887210D01*
X71806720Y-66344083D01*
X71809639Y-66808697D01*
X71813120Y-67273360D01*
X71817114Y-67730380D01*
X71821573Y-68172066D01*
X71826447Y-68590725D01*
X71831688Y-68978666D01*
X71837246Y-69328197D01*
X71843073Y-69631626D01*
X71849120Y-69881261D01*
X71855338Y-70069411D01*
X71861677Y-70188383D01*
X71862483Y-70198084D01*
X71874196Y-70358625D01*
X71872502Y-70452072D01*
X71855295Y-70495239D01*
X71824049Y-70505000D01*
X71757024Y-70530452D01*
X71742921Y-70551404D01*
X71710131Y-70566496D01*
X71620079Y-70574535D01*
X71466625Y-70575502D01*
X71243628Y-70569380D01*
X70944951Y-70556149D01*
X70797476Y-70548574D01*
X70590488Y-70539591D01*
X70309014Y-70530385D01*
X69963236Y-70521154D01*
X69563332Y-70512093D01*
X69119484Y-70503399D01*
X68641872Y-70495269D01*
X68140675Y-70487897D01*
X67626075Y-70481481D01*
X67108251Y-70476217D01*
X66992760Y-70475215D01*
X64118021Y-70451090D01*
X64146662Y-71123628D01*
X64159287Y-71415115D01*
X64173486Y-71734962D01*
X64187663Y-72047648D01*
X64200222Y-72317657D01*
X64202189Y-72359011D01*
X64229073Y-72921856D01*
X64338953Y-72901661D01*
X64582776Y-72860124D01*
X64807692Y-72827841D01*
X64997474Y-72806640D01*
X65135898Y-72798348D01*
X65205160Y-72804132D01*
X65254266Y-72865541D01*
X65271890Y-72989100D01*
X65260650Y-73159463D01*
X65223166Y-73361285D01*
X65162057Y-73579218D01*
X65079942Y-73797919D01*
X65010444Y-73945018D01*
X64940317Y-74079911D01*
X64886494Y-74184072D01*
X64860161Y-74235851D01*
X64859788Y-74236632D01*
X64894693Y-74246119D01*
X64999442Y-74253269D01*
X65159234Y-74257534D01*
X65359264Y-74258365D01*
X65430984Y-74257799D01*
X65758010Y-74258078D01*
X66013127Y-74268088D01*
X66208727Y-74289715D01*
X66357205Y-74324845D01*
X66470952Y-74375362D01*
X66544132Y-74427160D01*
X66648292Y-74562417D01*
X66672710Y-74725139D01*
X66617387Y-74914337D01*
X66544008Y-75043044D01*
X66405309Y-75217673D01*
X66234950Y-75364368D01*
X66024997Y-75485816D01*
X65767517Y-75584705D01*
X65454576Y-75663723D01*
X65078239Y-75725557D01*
X64630573Y-75772896D01*
X64322556Y-75795579D01*
X63970313Y-75816687D01*
X63690941Y-75829564D01*
X63473030Y-75834107D01*
X63305175Y-75830211D01*
X63175970Y-75817769D01*
X63074006Y-75796678D01*
X63032095Y-75783694D01*
X62914089Y-75718065D01*
X62826212Y-75627090D01*
X62822172Y-75620249D01*
X62793780Y-75558608D01*
X62783427Y-75491859D01*
X62788987Y-75434673D01*
X63082288Y-75434673D01*
X63086114Y-75473449D01*
X63105552Y-75499496D01*
X63148843Y-75518110D01*
X63228166Y-75530447D01*
X63355696Y-75537661D01*
X63543611Y-75540908D01*
X63801921Y-75541346D01*
X64085233Y-75536864D01*
X64386201Y-75525478D01*
X64673869Y-75508763D01*
X64917285Y-75488293D01*
X64978000Y-75481542D01*
X65197290Y-75451003D01*
X65408675Y-75414270D01*
X65584421Y-75376540D01*
X65676500Y-75350601D01*
X65905096Y-75253430D01*
X66100538Y-75134229D01*
X66254255Y-75002616D01*
X66357678Y-74868210D01*
X66402235Y-74740632D01*
X66379357Y-74629499D01*
X66351076Y-74593457D01*
X66318454Y-74568920D01*
X66268967Y-74550864D01*
X66191075Y-74538516D01*
X66073236Y-74531104D01*
X65903912Y-74527854D01*
X65671560Y-74527993D01*
X65408078Y-74530281D01*
X65111834Y-74532747D01*
X64889146Y-74532536D01*
X64728928Y-74528912D01*
X64620092Y-74521143D01*
X64551552Y-74508494D01*
X64512220Y-74490231D01*
X64493456Y-74469723D01*
X64474465Y-74384831D01*
X64509283Y-74304563D01*
X64624757Y-74106781D01*
X64735092Y-73893289D01*
X64834392Y-73678649D01*
X64916760Y-73477420D01*
X64976297Y-73304164D01*
X65007107Y-73173440D01*
X65003292Y-73099811D01*
X64999348Y-73094571D01*
X64951082Y-73090902D01*
X64839693Y-73098516D01*
X64685732Y-73115783D01*
X64619159Y-73124702D01*
X64418105Y-73148772D01*
X64170580Y-73172491D01*
X63914726Y-73192413D01*
X63773674Y-73201079D01*
X63288154Y-73227098D01*
X63287795Y-73731562D01*
X63286628Y-73961638D01*
X63281689Y-74143522D01*
X63270255Y-74301681D01*
X63249606Y-74460581D01*
X63217021Y-74644688D01*
X63169778Y-74878468D01*
X63149387Y-74976032D01*
X63114159Y-75162129D01*
X63090901Y-75322018D01*
X63082288Y-75434673D01*
X62788987Y-75434673D01*
X62792449Y-75399070D01*
X62822181Y-75259307D01*
X62853230Y-75133415D01*
X62927912Y-74807787D01*
X62979544Y-74504374D01*
X63011453Y-74194094D01*
X63026963Y-73847870D01*
X63029828Y-73589279D01*
X63030699Y-73346792D01*
X63036731Y-73176295D01*
X63054278Y-73065121D01*
X63089697Y-73000603D01*
X63149344Y-72970072D01*
X63239576Y-72960862D01*
X63345415Y-72960334D01*
X63526238Y-72960334D01*
X63510998Y-72759250D01*
X63478305Y-72332079D01*
X63447124Y-71932718D01*
X63418229Y-71570625D01*
X63392394Y-71255259D01*
X63370396Y-70996076D01*
X63353008Y-70802534D01*
X63341113Y-70685031D01*
X63319328Y-70497047D01*
X63585396Y-70497047D01*
X63588255Y-70577137D01*
X63594971Y-70621417D01*
X63605475Y-70710644D01*
X63620643Y-70869151D01*
X63639167Y-71081765D01*
X63659737Y-71333308D01*
X63681047Y-71608607D01*
X63687149Y-71690334D01*
X63714144Y-72051500D01*
X63736400Y-72337040D01*
X63755092Y-72555787D01*
X63771398Y-72716576D01*
X63786493Y-72828240D01*
X63801554Y-72899612D01*
X63817756Y-72939525D01*
X63836277Y-72956815D01*
X63856262Y-72960334D01*
X63926564Y-72934475D01*
X63939899Y-72919512D01*
X63944635Y-72868186D01*
X63945543Y-72743365D01*
X63942862Y-72556123D01*
X63936828Y-72317534D01*
X63927681Y-72038670D01*
X63915656Y-71730607D01*
X63913108Y-71670679D01*
X63861088Y-70462667D01*
X63715633Y-70462667D01*
X63621586Y-70467138D01*
X63585396Y-70497047D01*
X63319328Y-70497047D01*
X63315370Y-70462895D01*
X62717935Y-70484248D01*
X62113367Y-70505061D01*
X61540536Y-70523216D01*
X61004691Y-70538625D01*
X60511081Y-70551200D01*
X60064954Y-70560855D01*
X59671561Y-70567500D01*
X59336151Y-70571049D01*
X59063973Y-70571414D01*
X58860277Y-70568507D01*
X58730311Y-70562240D01*
X58679325Y-70552526D01*
X58678852Y-70551724D01*
X58628904Y-70509343D01*
X58601540Y-70505000D01*
X58570039Y-70490493D01*
X58555267Y-70436248D01*
X58555252Y-70378000D01*
X58842077Y-70378000D01*
X58881423Y-70383197D01*
X58992521Y-70385163D01*
X59162521Y-70383996D01*
X59378575Y-70379794D01*
X59627833Y-70372657D01*
X59654532Y-70371771D01*
X59852887Y-70365645D01*
X60124775Y-70358062D01*
X60459081Y-70349295D01*
X60844689Y-70339615D01*
X61270481Y-70329294D01*
X61725344Y-70318603D01*
X62198160Y-70307813D01*
X62677815Y-70297197D01*
X62924833Y-70291865D01*
X64026165Y-70273003D01*
X65140579Y-70262939D01*
X66251864Y-70261567D01*
X67343807Y-70268778D01*
X68400194Y-70284465D01*
X69404813Y-70308521D01*
X70341450Y-70340838D01*
X70345812Y-70341016D01*
X70649987Y-70352546D01*
X70925841Y-70361406D01*
X71162255Y-70367370D01*
X71348113Y-70370208D01*
X71472297Y-70369691D01*
X71523691Y-70365592D01*
X71524220Y-70365224D01*
X71505805Y-70326718D01*
X71444129Y-70225336D01*
X71343774Y-70068059D01*
X71209320Y-69861864D01*
X71045349Y-69613731D01*
X70856443Y-69330639D01*
X70647183Y-69019566D01*
X70440945Y-68715134D01*
X69334907Y-67087806D01*
X68733370Y-67018122D01*
X68360918Y-66975900D01*
X68030525Y-66941022D01*
X67728208Y-66912800D01*
X67439986Y-66890545D01*
X67151877Y-66873571D01*
X66849899Y-66861190D01*
X66520070Y-66852713D01*
X66148408Y-66847454D01*
X65720932Y-66844723D01*
X65223659Y-66843835D01*
X65189667Y-66843825D01*
X64595995Y-66845398D01*
X64071361Y-66850938D01*
X63600192Y-66861239D01*
X63166918Y-66877094D01*
X62755970Y-66899296D01*
X62351775Y-66928638D01*
X61938764Y-66965914D01*
X61501366Y-67011916D01*
X61191124Y-67047519D01*
X60769748Y-67097167D01*
X59807170Y-68727000D01*
X59607971Y-69064649D01*
X59422586Y-69379591D01*
X59255350Y-69664407D01*
X59110601Y-69911680D01*
X58992675Y-70113991D01*
X58905908Y-70263922D01*
X58854636Y-70354055D01*
X58842077Y-70378000D01*
X58555252Y-70378000D01*
X58555238Y-70326179D01*
X58563637Y-70198084D01*
X58571599Y-70070037D01*
X58581452Y-69871763D01*
X58592678Y-69617668D01*
X58604759Y-69322157D01*
X58617176Y-68999637D01*
X58629413Y-68664512D01*
X58640950Y-68331188D01*
X58651269Y-68014071D01*
X58659853Y-67727567D01*
X58666184Y-67486080D01*
X58669743Y-67304017D01*
X58670333Y-67231171D01*
X58670333Y-66980426D01*
X58448083Y-67008683D01*
X58253341Y-67034853D01*
X58018781Y-67068602D01*
X57757366Y-67107831D01*
X57482059Y-67150439D01*
X57205822Y-67194327D01*
X56941618Y-67237395D01*
X56702408Y-67277542D01*
X56501156Y-67312669D01*
X56350824Y-67340675D01*
X56264374Y-67359460D01*
X56248870Y-67364978D01*
X56239453Y-67420025D01*
X56250334Y-67525495D01*
X56260726Y-67578130D01*
X56280932Y-67707036D01*
X56263813Y-67794069D01*
X56196718Y-67852348D01*
X56066995Y-67894994D01*
X55927821Y-67923365D01*
X55512278Y-68020940D01*
X55058627Y-68165748D01*
X54592348Y-68349124D01*
X54337938Y-68464136D01*
X54132447Y-68560682D01*
X53988042Y-68624413D01*
X53889707Y-68659620D01*
X53822425Y-68670595D01*
X53771180Y-68661628D01*
X53725017Y-68639303D01*
X53635918Y-68551651D01*
X53549738Y-68389286D01*
X53465925Y-68150298D01*
X53383928Y-67832775D01*
X53303194Y-67434808D01*
X53223173Y-66954486D01*
X53206435Y-66843167D01*
X53153893Y-66427553D01*
X53130271Y-66080115D01*
X53130398Y-66072875D01*
X53388011Y-66072875D01*
X53403765Y-66308242D01*
X53432879Y-66581658D01*
X53472740Y-66877613D01*
X53520732Y-67180599D01*
X53574240Y-67475109D01*
X53630649Y-67745635D01*
X53687344Y-67976668D01*
X53741709Y-68152700D01*
X53786145Y-68250750D01*
X53853448Y-68322479D01*
X53910310Y-68346000D01*
X53973879Y-68328539D01*
X54093821Y-68281483D01*
X54250644Y-68212827D01*
X54364418Y-68159785D01*
X54801187Y-67973288D01*
X55255522Y-67818875D01*
X55690094Y-67709063D01*
X55735202Y-67700222D01*
X56009809Y-67648130D01*
X55982950Y-67520815D01*
X55886129Y-67001370D01*
X55883196Y-66979294D01*
X56134223Y-66979294D01*
X56169776Y-67045043D01*
X56227275Y-67076000D01*
X56284474Y-67069586D01*
X56412219Y-67051644D01*
X56597467Y-67024125D01*
X56827177Y-66988978D01*
X57088307Y-66948155D01*
X57191687Y-66931778D01*
X57479608Y-66886727D01*
X57758263Y-66844446D01*
X58010051Y-66807507D01*
X58217369Y-66778481D01*
X58362616Y-66759939D01*
X58384583Y-66757513D01*
X58670333Y-66727470D01*
X58670333Y-66584235D01*
X58656204Y-66481111D01*
X58618467Y-66441846D01*
X58617417Y-66441842D01*
X58554785Y-66449944D01*
X58424519Y-66471831D01*
X58239261Y-66505053D01*
X58011656Y-66547160D01*
X57754347Y-66595702D01*
X57479978Y-66648226D01*
X57201193Y-66702283D01*
X56930636Y-66755422D01*
X56680950Y-66805193D01*
X56464779Y-66849144D01*
X56294768Y-66884825D01*
X56183560Y-66909786D01*
X56143975Y-66921247D01*
X56134223Y-66979294D01*
X55883196Y-66979294D01*
X55822615Y-66523402D01*
X55805527Y-66323774D01*
X55791904Y-66140613D01*
X55778305Y-66027175D01*
X55760060Y-65968648D01*
X55732496Y-65950218D01*
X55690942Y-65957074D01*
X55689978Y-65957355D01*
X55537701Y-66023319D01*
X55345310Y-66139377D01*
X55130373Y-66293649D01*
X54910461Y-66474252D01*
X54862380Y-66517042D01*
X54695646Y-66660085D01*
X54575752Y-66739247D01*
X54493098Y-66753761D01*
X54438086Y-66702862D01*
X54401119Y-66585781D01*
X54382924Y-66478735D01*
X54350459Y-66284977D01*
X54305355Y-66057678D01*
X54252374Y-65816867D01*
X54196277Y-65582570D01*
X54141827Y-65374816D01*
X54093785Y-65213631D01*
X54062059Y-65129285D01*
X53978252Y-65009617D01*
X53881159Y-64964729D01*
X53777424Y-64987113D01*
X53673687Y-65069260D01*
X53576589Y-65203661D01*
X53492773Y-65382808D01*
X53428880Y-65599193D01*
X53391552Y-65845307D01*
X53388234Y-65891063D01*
X53388011Y-66072875D01*
X53130398Y-66072875D01*
X53135406Y-65789516D01*
X53169131Y-65544419D01*
X53186520Y-65471538D01*
X53277692Y-65219487D01*
X53403298Y-65000021D01*
X53552367Y-64825753D01*
X53713931Y-64709296D01*
X53877021Y-64663263D01*
X53889679Y-64663000D01*
X54030564Y-64693247D01*
X54155096Y-64786866D01*
X54265622Y-64948179D01*
X54364494Y-65181503D01*
X54454059Y-65491161D01*
X54528423Y-65837476D01*
X54565950Y-66031782D01*
X54598328Y-66193309D01*
X54622110Y-66305260D01*
X54633845Y-66350840D01*
X54633863Y-66350866D01*
X54667992Y-66332335D01*
X54748730Y-66269129D01*
X54860284Y-66173791D01*
X54890143Y-66147295D01*
X55113857Y-65973689D01*
X55363059Y-65823433D01*
X55610154Y-65711411D01*
X55798605Y-65657245D01*
X55889044Y-65647783D01*
X55953294Y-65666183D01*
X55996983Y-65724250D01*
X56025737Y-65833791D01*
X56045182Y-66006610D01*
X56057994Y-66201479D01*
X56069337Y-66379202D01*
X56080776Y-66521720D01*
X56090676Y-66610308D01*
X56095423Y-66630030D01*
X56138848Y-66625529D01*
X56255279Y-66607109D01*
X56434525Y-66576552D01*
X56666395Y-66535642D01*
X56940695Y-66486164D01*
X57247236Y-66429902D01*
X57387403Y-66403885D01*
X57750755Y-66335746D01*
X58039362Y-66280229D01*
X58261848Y-66235196D01*
X58426839Y-66198507D01*
X58542960Y-66168024D01*
X58618835Y-66141607D01*
X58663090Y-66117118D01*
X58684348Y-66092416D01*
X58688575Y-66081167D01*
X58698130Y-66000028D01*
X58705101Y-65842526D01*
X58709622Y-65616917D01*
X58711825Y-65331460D01*
X58711843Y-64994414D01*
X58709809Y-64614038D01*
X58705855Y-64198589D01*
X58700116Y-63756326D01*
X58692722Y-63295509D01*
X58683808Y-62824395D01*
X58673506Y-62351242D01*
X58661949Y-61884310D01*
X58649270Y-61431856D01*
X58635601Y-61002140D01*
X58621076Y-60603419D01*
X58605826Y-60243953D01*
X58589986Y-59931999D01*
X58589550Y-59924281D01*
X58575401Y-59666876D01*
X58571642Y-59479403D01*
X58574501Y-59452558D01*
X58759640Y-59452558D01*
X58763884Y-59588924D01*
X58773203Y-59741750D01*
X58797183Y-60165444D01*
X58818141Y-60660102D01*
X58836072Y-61215823D01*
X58850975Y-61822705D01*
X58862847Y-62470845D01*
X58871687Y-63150342D01*
X58877491Y-63851294D01*
X58880258Y-64563798D01*
X58879985Y-65277953D01*
X58876670Y-65983855D01*
X58870311Y-66671605D01*
X58860905Y-67331298D01*
X58848451Y-67953034D01*
X58832945Y-68526910D01*
X58814385Y-69043024D01*
X58792770Y-69491474D01*
X58775528Y-69763901D01*
X58767589Y-69930169D01*
X58771349Y-70033103D01*
X58786343Y-70063218D01*
X58790142Y-70060235D01*
X58819372Y-70015644D01*
X58886606Y-69905901D01*
X58987111Y-69738946D01*
X59116156Y-69522716D01*
X59269011Y-69265151D01*
X59440943Y-68974189D01*
X59627220Y-68657768D01*
X59706393Y-68522943D01*
X59898063Y-68194576D01*
X60077064Y-67884577D01*
X60238604Y-67601494D01*
X60377893Y-67353871D01*
X60490137Y-67150256D01*
X60570545Y-66999194D01*
X60614324Y-66909231D01*
X60620288Y-66893110D01*
X60628432Y-66852068D01*
X60831087Y-66852068D01*
X60842263Y-66895864D01*
X60884847Y-66895252D01*
X60897236Y-66891645D01*
X60961663Y-66880709D01*
X61097005Y-66863910D01*
X61289826Y-66842701D01*
X61526692Y-66818534D01*
X61794166Y-66792861D01*
X61908833Y-66782304D01*
X62829502Y-66706607D01*
X63685377Y-66653562D01*
X64493115Y-66622720D01*
X65269378Y-66613633D01*
X66030824Y-66625852D01*
X66692500Y-66653373D01*
X67053319Y-66674888D01*
X67437152Y-66701992D01*
X67825621Y-66733061D01*
X68200351Y-66766469D01*
X68542965Y-66800589D01*
X68835084Y-66833797D01*
X69030857Y-66860228D01*
X69157402Y-66876472D01*
X69244207Y-66882259D01*
X69266893Y-66879329D01*
X69267865Y-66834023D01*
X69258993Y-66723402D01*
X69241978Y-66566030D01*
X69227055Y-66445108D01*
X69164373Y-65911495D01*
X69114471Y-65375166D01*
X69076519Y-64820635D01*
X69049684Y-64232413D01*
X69033134Y-63595013D01*
X69027043Y-62992219D01*
X69215822Y-62992219D01*
X69236675Y-63958534D01*
X69282204Y-64900116D01*
X69352268Y-65797486D01*
X69435618Y-66546858D01*
X69490398Y-66970167D01*
X70562979Y-68548525D01*
X70784021Y-68873049D01*
X70990316Y-69174474D01*
X71177062Y-69445887D01*
X71339453Y-69680373D01*
X71472685Y-69871017D01*
X71571955Y-70010904D01*
X71632459Y-70093120D01*
X71649729Y-70112715D01*
X71651921Y-70068634D01*
X71651883Y-69949485D01*
X71649776Y-69764832D01*
X71645758Y-69524240D01*
X71639988Y-69237273D01*
X71632625Y-68913498D01*
X71624200Y-68576690D01*
X71613548Y-68099965D01*
X71605031Y-67575461D01*
X71598588Y-67011564D01*
X71594157Y-66416663D01*
X71591679Y-65799143D01*
X71591091Y-65167392D01*
X71592333Y-64529798D01*
X71595345Y-63894748D01*
X71600065Y-63270628D01*
X71603391Y-62954598D01*
X71793667Y-62954598D01*
X71796607Y-63072770D01*
X71814439Y-63126315D01*
X71860681Y-63135263D01*
X71910083Y-63127094D01*
X71981766Y-63115657D01*
X72125239Y-63094741D01*
X72328368Y-63066042D01*
X72381878Y-63058616D01*
X74841196Y-63058616D01*
X74864950Y-63094022D01*
X74936299Y-63145502D01*
X75040937Y-63203452D01*
X75142773Y-63249481D01*
X75201500Y-63265522D01*
X75194749Y-63246366D01*
X75130602Y-63197450D01*
X75074500Y-63161271D01*
X74957375Y-63094956D01*
X74875324Y-63059363D01*
X74841196Y-63058616D01*
X72381878Y-63058616D01*
X72565261Y-63033167D01*
X74757000Y-63033167D01*
X74778167Y-63054334D01*
X74799333Y-63033167D01*
X74778167Y-63012000D01*
X74757000Y-63033167D01*
X72565261Y-63033167D01*
X72579018Y-63031258D01*
X72865053Y-62992085D01*
X73174339Y-62950220D01*
X73190667Y-62948024D01*
X73555446Y-62897922D01*
X73843890Y-62855744D01*
X74063808Y-62820042D01*
X74223010Y-62789364D01*
X74329307Y-62762262D01*
X74390509Y-62737286D01*
X74409575Y-62721804D01*
X74484460Y-62678055D01*
X74778167Y-62678055D01*
X74781418Y-62687089D01*
X74854495Y-62710704D01*
X74984557Y-62745186D01*
X75137242Y-62781871D01*
X75323091Y-62825571D01*
X75479272Y-62863633D01*
X75586675Y-62891320D01*
X75624076Y-62902572D01*
X75694229Y-62918906D01*
X75776041Y-62923403D01*
X75836326Y-62916336D01*
X75845198Y-62900754D01*
X75794504Y-62881632D01*
X75680367Y-62851715D01*
X75522683Y-62815157D01*
X75341345Y-62776110D01*
X75156249Y-62738725D01*
X74987289Y-62707156D01*
X74854359Y-62685553D01*
X74778167Y-62678055D01*
X74484460Y-62678055D01*
X74498053Y-62670114D01*
X74574258Y-62666557D01*
X74652160Y-62666619D01*
X74668468Y-62626766D01*
X74662635Y-62598487D01*
X74649918Y-62515141D01*
X74669916Y-62456376D01*
X74733672Y-62417777D01*
X74852227Y-62394933D01*
X75036626Y-62383430D01*
X75209894Y-62379774D01*
X75405200Y-62376176D01*
X75566779Y-62371119D01*
X75677452Y-62365284D01*
X75719892Y-62359552D01*
X75685305Y-62352536D01*
X75580813Y-62342751D01*
X75421089Y-62331323D01*
X75220806Y-62319379D01*
X75142626Y-62315222D01*
X74891631Y-62300139D01*
X74714929Y-62283921D01*
X74602146Y-62265045D01*
X74542910Y-62241987D01*
X74528572Y-62225049D01*
X74516933Y-62138379D01*
X74566167Y-62078599D01*
X74684878Y-62039538D01*
X74812458Y-62021369D01*
X74997261Y-61998272D01*
X75203052Y-61966396D01*
X75413991Y-61928991D01*
X75614237Y-61889302D01*
X75787948Y-61850579D01*
X75919284Y-61816068D01*
X75992403Y-61789016D01*
X76001656Y-61777575D01*
X75934837Y-61744978D01*
X75797878Y-61738248D01*
X75600858Y-61756172D01*
X75353858Y-61797539D01*
X75066956Y-61861133D01*
X74859298Y-61915061D01*
X74637489Y-61977574D01*
X74443051Y-62035614D01*
X74291451Y-62084313D01*
X74198152Y-62118804D01*
X74177749Y-62129560D01*
X74113257Y-62137741D01*
X74040166Y-62083499D01*
X73967432Y-61994489D01*
X73963288Y-61928230D01*
X74013846Y-61870926D01*
X74073304Y-61786348D01*
X74130434Y-61648800D01*
X74175563Y-61489661D01*
X74199015Y-61340308D01*
X74198897Y-61270781D01*
X74177682Y-61157810D01*
X74143495Y-61124048D01*
X74095555Y-61170399D01*
X74033080Y-61297767D01*
X73955289Y-61507055D01*
X73930437Y-61581125D01*
X73860526Y-61783918D01*
X73790976Y-61969603D01*
X73730430Y-62115977D01*
X73691799Y-62194080D01*
X73618677Y-62286222D01*
X73513116Y-62364369D01*
X73364321Y-62432692D01*
X73161497Y-62495358D01*
X72893851Y-62556538D01*
X72619167Y-62608392D01*
X72390158Y-62649135D01*
X72184683Y-62685983D01*
X72020047Y-62715812D01*
X71913555Y-62735495D01*
X71888917Y-62740271D01*
X71829667Y-62764109D01*
X71801555Y-62820014D01*
X71793754Y-62932345D01*
X71793667Y-62954598D01*
X71603391Y-62954598D01*
X71606432Y-62665827D01*
X71614385Y-62088730D01*
X71623864Y-61547727D01*
X71634808Y-61051203D01*
X71647156Y-60607546D01*
X71660846Y-60225143D01*
X71675818Y-59912382D01*
X71688520Y-59719954D01*
X71697709Y-59548594D01*
X71691331Y-59446716D01*
X71668069Y-59400346D01*
X71657906Y-59395263D01*
X71595325Y-59377316D01*
X71471751Y-59343059D01*
X71307939Y-59298218D01*
X71201000Y-59269167D01*
X70921023Y-59177253D01*
X70583587Y-59038628D01*
X70198860Y-58857524D01*
X70132083Y-58824126D01*
X69917194Y-58716419D01*
X69731103Y-58624317D01*
X69585833Y-58553673D01*
X69493407Y-58510343D01*
X69465333Y-58499468D01*
X69460941Y-58543121D01*
X69448739Y-58657393D01*
X69430194Y-58828744D01*
X69406769Y-59043637D01*
X69382054Y-59269200D01*
X69302763Y-60139661D01*
X69248723Y-61063303D01*
X69219791Y-62020649D01*
X69215822Y-62992219D01*
X69027043Y-62992219D01*
X69026039Y-62892948D01*
X69025638Y-62694500D01*
X69026914Y-62285166D01*
X69030944Y-61879246D01*
X69037402Y-61491071D01*
X69045964Y-61134974D01*
X69056302Y-60825288D01*
X69068093Y-60576343D01*
X69076628Y-60450834D01*
X69103637Y-60132863D01*
X69132847Y-59811435D01*
X69162944Y-59499043D01*
X69192613Y-59208176D01*
X69220540Y-58951327D01*
X69245409Y-58740986D01*
X69265906Y-58589646D01*
X69280716Y-58509796D01*
X69281073Y-58508587D01*
X69287699Y-58461288D01*
X69256220Y-58443648D01*
X69167823Y-58449970D01*
X69113300Y-58457784D01*
X68835503Y-58497159D01*
X68533962Y-58536074D01*
X68232747Y-58571738D01*
X67955929Y-58601360D01*
X67727578Y-58622151D01*
X67645000Y-58628008D01*
X67169171Y-58656652D01*
X66765418Y-58679904D01*
X66421357Y-58698279D01*
X66124603Y-58712289D01*
X65862771Y-58722449D01*
X65623476Y-58729271D01*
X65394336Y-58733271D01*
X65162963Y-58734960D01*
X65062667Y-58735104D01*
X64340671Y-58724989D01*
X63588888Y-58695803D01*
X62834786Y-58649282D01*
X62105834Y-58587164D01*
X61429502Y-58511186D01*
X61343006Y-58499866D01*
X61151569Y-58475731D01*
X60993524Y-58458435D01*
X60886127Y-58449689D01*
X60846873Y-58450683D01*
X60846631Y-58495625D01*
X60855755Y-58609860D01*
X60872807Y-58778706D01*
X60896355Y-58987480D01*
X60912239Y-59119578D01*
X60965510Y-59575661D01*
X61008531Y-59999743D01*
X61042218Y-60409033D01*
X61067491Y-60820741D01*
X61085267Y-61252075D01*
X61096464Y-61720246D01*
X61102001Y-62242464D01*
X61102984Y-62694500D01*
X61093815Y-63594685D01*
X61067107Y-64420428D01*
X61022319Y-65180234D01*
X60958908Y-65882605D01*
X60876330Y-66536044D01*
X60844418Y-66744661D01*
X60831087Y-66852068D01*
X60628432Y-66852068D01*
X60641613Y-66785649D01*
X60668024Y-66607324D01*
X60698080Y-66371682D01*
X60730340Y-66092274D01*
X60763364Y-65782649D01*
X60795708Y-65456356D01*
X60825933Y-65126944D01*
X60852596Y-64807964D01*
X60874256Y-64512964D01*
X60875541Y-64493667D01*
X60889731Y-64207909D01*
X60899602Y-63856923D01*
X60905350Y-63454886D01*
X60907167Y-63015973D01*
X60905248Y-62554363D01*
X60899788Y-62084232D01*
X60890979Y-61619757D01*
X60879018Y-61175115D01*
X60864097Y-60764482D01*
X60846411Y-60402035D01*
X60826154Y-60101951D01*
X60813506Y-59964000D01*
X60768593Y-59544040D01*
X60729846Y-59203637D01*
X60696575Y-58937959D01*
X60668091Y-58742173D01*
X60643705Y-58611448D01*
X60622728Y-58540952D01*
X60608202Y-58524667D01*
X60558385Y-58544246D01*
X60450644Y-58597607D01*
X60300660Y-58676684D01*
X60124110Y-58773411D01*
X60117572Y-58777057D01*
X59908245Y-58887976D01*
X59679125Y-58999668D01*
X59446477Y-59105237D01*
X59226568Y-59197789D01*
X59035663Y-59270429D01*
X58890029Y-59316259D01*
X58815529Y-59329000D01*
X58783915Y-59337696D01*
X58765801Y-59373849D01*
X58759640Y-59452558D01*
X58574501Y-59452558D01*
X58585725Y-59347180D01*
X58625102Y-59255523D01*
X58697222Y-59189749D01*
X58809538Y-59135176D01*
X58969502Y-59077120D01*
X59030167Y-59056037D01*
X59347811Y-58931295D01*
X59702207Y-58768513D01*
X60063678Y-58582145D01*
X60395129Y-58391198D01*
X60681167Y-58215957D01*
X61189167Y-58285414D01*
X61560217Y-58334925D01*
X61894942Y-58376337D01*
X62206088Y-58410362D01*
X62506403Y-58437710D01*
X62808631Y-58459092D01*
X63125519Y-58475219D01*
X63469814Y-58486802D01*
X63854262Y-58494551D01*
X64291610Y-58499178D01*
X64794603Y-58501392D01*
X65069722Y-58501813D01*
X65470961Y-58501496D01*
X65846207Y-58499926D01*
X66186984Y-58497231D01*
X66484818Y-58493537D01*
X66731234Y-58488970D01*
X66917757Y-58483657D01*
X67035912Y-58477726D01*
X67076968Y-58471810D01*
X67093674Y-58419302D01*
X67105059Y-58360198D01*
X67391000Y-58360198D01*
X67402466Y-58413316D01*
X67451783Y-58434331D01*
X67561330Y-58432317D01*
X67567748Y-58431851D01*
X67744495Y-58418834D01*
X67867124Y-57741500D01*
X67930410Y-57407247D01*
X67989657Y-57145468D01*
X68052249Y-56944743D01*
X68125564Y-56793653D01*
X68216984Y-56680779D01*
X68333890Y-56594701D01*
X68483664Y-56523999D01*
X68673685Y-56457255D01*
X68703333Y-56447763D01*
X68943347Y-56370723D01*
X69113156Y-56313259D01*
X69223469Y-56270015D01*
X69284993Y-56235634D01*
X69308436Y-56204759D01*
X69304506Y-56172033D01*
X69294847Y-56151846D01*
X69243054Y-56097382D01*
X69154513Y-56090805D01*
X69115249Y-56096944D01*
X68984978Y-56131009D01*
X68838578Y-56183884D01*
X68702737Y-56244133D01*
X68604147Y-56300319D01*
X68572516Y-56329510D01*
X68515301Y-56355121D01*
X68433165Y-56336043D01*
X68363971Y-56284392D01*
X68348598Y-56257854D01*
X68345325Y-56174844D01*
X68368964Y-56079549D01*
X68447543Y-55849016D01*
X68523816Y-55581832D01*
X68592651Y-55300855D01*
X68648916Y-55028942D01*
X68687481Y-54788950D01*
X68703213Y-54603737D01*
X68703333Y-54590197D01*
X68698980Y-54441184D01*
X68687276Y-54343371D01*
X68670253Y-54312136D01*
X68666919Y-54314617D01*
X68638653Y-54380025D01*
X68604101Y-54510779D01*
X68566700Y-54688121D01*
X68529888Y-54893289D01*
X68497101Y-55107524D01*
X68471777Y-55312066D01*
X68460013Y-55443963D01*
X68439043Y-55636184D01*
X68403903Y-55753830D01*
X68347904Y-55806660D01*
X68264357Y-55804434D01*
X68222464Y-55790598D01*
X68195699Y-55770280D01*
X68176362Y-55724818D01*
X68163088Y-55641836D01*
X68154515Y-55508960D01*
X68149277Y-55313815D01*
X68146545Y-55101721D01*
X68143490Y-54862633D01*
X68139473Y-54703194D01*
X68134009Y-54618388D01*
X68126613Y-54603196D01*
X68116802Y-54652603D01*
X68109159Y-54714667D01*
X68092396Y-54904852D01*
X68079333Y-55128113D01*
X68073281Y-55315064D01*
X68068398Y-55481738D01*
X68056643Y-55582782D01*
X68032966Y-55637213D01*
X67992316Y-55664050D01*
X67979405Y-55668519D01*
X67892847Y-55675930D01*
X67852838Y-55659105D01*
X67830870Y-55605468D01*
X67797449Y-55485399D01*
X67756803Y-55315670D01*
X67713161Y-55113051D01*
X67704999Y-55072817D01*
X67661188Y-54865612D01*
X67619490Y-54687874D01*
X67584163Y-54556476D01*
X67559463Y-54488289D01*
X67556399Y-54483950D01*
X67531550Y-54466459D01*
X67521576Y-54486812D01*
X67527833Y-54554222D01*
X67551673Y-54677903D01*
X67594453Y-54867069D01*
X67642168Y-55067367D01*
X67709000Y-55346163D01*
X67756948Y-55553792D01*
X67787202Y-55701341D01*
X67800952Y-55799896D01*
X67799385Y-55860543D01*
X67783692Y-55894368D01*
X67755061Y-55912459D01*
X67733608Y-55919916D01*
X67675115Y-55956061D01*
X67649385Y-56031649D01*
X67645000Y-56126259D01*
X67639631Y-56219092D01*
X67624585Y-56381285D01*
X67601449Y-56598283D01*
X67571812Y-56855530D01*
X67537261Y-57138473D01*
X67518000Y-57290003D01*
X67481902Y-57573632D01*
X67449792Y-57832633D01*
X67423210Y-58054044D01*
X67403694Y-58224903D01*
X67392781Y-58332246D01*
X67391000Y-58360198D01*
X67105059Y-58360198D01*
X67117448Y-58295886D01*
X67146624Y-58114868D01*
X67179536Y-57889554D01*
X67214519Y-57633250D01*
X67249908Y-57359263D01*
X67284036Y-57080900D01*
X67315238Y-56811466D01*
X67341848Y-56564269D01*
X67362202Y-56352613D01*
X67374633Y-56189807D01*
X67377476Y-56089157D01*
X67376701Y-56077189D01*
X67313600Y-55863386D01*
X67232383Y-55737668D01*
X67129813Y-55594524D01*
X67033032Y-55435615D01*
X67013945Y-55399733D01*
X66960459Y-55264064D01*
X66920627Y-55112687D01*
X67190535Y-55112687D01*
X67197032Y-55157248D01*
X67233427Y-55246000D01*
X67286140Y-55350483D01*
X67341594Y-55442239D01*
X67359141Y-55466084D01*
X67408039Y-55517986D01*
X67415571Y-55501715D01*
X67382876Y-55422320D01*
X67323299Y-55307121D01*
X67258505Y-55195900D01*
X67209502Y-55126124D01*
X67190535Y-55112687D01*
X66920627Y-55112687D01*
X66916360Y-55096472D01*
X66885270Y-54921049D01*
X66870811Y-54761889D01*
X66876604Y-54643085D01*
X66893466Y-54598250D01*
X66979213Y-54547753D01*
X67083757Y-54567056D01*
X67186723Y-54650897D01*
X67208654Y-54679633D01*
X67301474Y-54812469D01*
X67293320Y-54480424D01*
X67290770Y-54313110D01*
X67297050Y-54209319D01*
X67317875Y-54147961D01*
X67358961Y-54107951D01*
X67401218Y-54082273D01*
X67505523Y-54044365D01*
X67597992Y-54067024D01*
X67694339Y-54157508D01*
X67761417Y-54248649D01*
X67856667Y-54388521D01*
X67856667Y-54239277D01*
X67884042Y-54098782D01*
X67955430Y-54019527D01*
X68054723Y-54003136D01*
X68165814Y-54051234D01*
X68272596Y-54165445D01*
X68291467Y-54195429D01*
X68383133Y-54350790D01*
X68447983Y-54131874D01*
X68493299Y-53999406D01*
X68538753Y-53898479D01*
X68561205Y-53865390D01*
X68636651Y-53840242D01*
X68725076Y-53889783D01*
G37*
X68725076Y-53889783D02*
X68817448Y-54006948D01*
X68871753Y-54108346D01*
X68937128Y-54303807D01*
X68964176Y-54536638D01*
X68952229Y-54814630D01*
X68900618Y-55145573D01*
X68808674Y-55537259D01*
X68722913Y-55841805D01*
X68711594Y-55892239D01*
X68728908Y-55912460D01*
X68792582Y-55905311D01*
X68920341Y-55873640D01*
X68920668Y-55873555D01*
X69140047Y-55827574D01*
X69312629Y-55820574D01*
X69466837Y-55852673D01*
X69528686Y-55876044D01*
X69654372Y-55963705D01*
X69710363Y-56081793D01*
X69698076Y-56214782D01*
X69618927Y-56347148D01*
X69475138Y-56462896D01*
X69369224Y-56511957D01*
X69211041Y-56570389D01*
X69030538Y-56627356D01*
X68985357Y-56640120D01*
X68738844Y-56712958D01*
X68560918Y-56780079D01*
X68436743Y-56850247D01*
X68351488Y-56932227D01*
X68290319Y-57034783D01*
X68280512Y-57056589D01*
X68250789Y-57147878D01*
X68214174Y-57293907D01*
X68173910Y-57477185D01*
X68133241Y-57680223D01*
X68095410Y-57885531D01*
X68063660Y-58075619D01*
X68041235Y-58232997D01*
X68031376Y-58340176D01*
X68035334Y-58378778D01*
X68080321Y-58379246D01*
X68192219Y-58370264D01*
X68354055Y-58353882D01*
X68548859Y-58332150D01*
X68759657Y-58307116D01*
X68969479Y-58280830D01*
X69161353Y-58255342D01*
X69318306Y-58232699D01*
X69423367Y-58214951D01*
X69454750Y-58207395D01*
X69502672Y-58212715D01*
X69507667Y-58227279D01*
X69543614Y-58266649D01*
X69642086Y-58334468D01*
X69789025Y-58423077D01*
X69970374Y-58524818D01*
X70172075Y-58632032D01*
X70380072Y-58737061D01*
X70580307Y-58832246D01*
X70758723Y-58909928D01*
X70766352Y-58913027D01*
X70980690Y-58993642D01*
X71211065Y-59070593D01*
X71417560Y-59130810D01*
X71475436Y-59145196D01*
X71645470Y-59191642D01*
X71755587Y-59236525D01*
X71793667Y-59274116D01*
X71822441Y-59324641D01*
X71840799Y-59329000D01*
X71852106Y-59369510D01*
X71860191Y-59483879D01*
X71865175Y-59661365D01*
X71867181Y-59891227D01*
X71866329Y-60162723D01*
X71862743Y-60465111D01*
X71856544Y-60787650D01*
X71847853Y-61119598D01*
X71836794Y-61450213D01*
X71823487Y-61768754D01*
X71810173Y-62027750D01*
X71785519Y-62461667D01*
X71899680Y-62461667D01*
X72008406Y-62453084D01*
X72174633Y-62429838D01*
X72379129Y-62395682D01*
X72602662Y-62354368D01*
X72826000Y-62309650D01*
X73029912Y-62265281D01*
X73195167Y-62225013D01*
X73302532Y-62192600D01*
X73322480Y-62184011D01*
X73402470Y-62130607D01*
X73469505Y-62052918D01*
X73530735Y-61936888D01*
X73593310Y-61768458D01*
X73664382Y-61533573D01*
X73678179Y-61484756D01*
X73760521Y-61217821D01*
X73839742Y-61023037D01*
X73922537Y-60888458D01*
X74015603Y-60802140D01*
X74079791Y-60768282D01*
X74216137Y-60746725D01*
X74329015Y-60795826D01*
X74414494Y-60903861D01*
X74468641Y-61059106D01*
X74487524Y-61249836D01*
X74467212Y-61464328D01*
X74403772Y-61690856D01*
X74395969Y-61711040D01*
X74384425Y-61759457D01*
X74418940Y-61763374D01*
X74487584Y-61739689D01*
X74670328Y-61680580D01*
X74900932Y-61621115D01*
X75152405Y-61566749D01*
X75397757Y-61522936D01*
X75609997Y-61495128D01*
X75732938Y-61488055D01*
X75927602Y-61505765D01*
X76120875Y-61553319D01*
X76290998Y-61622241D01*
X76416211Y-61704055D01*
X76470287Y-61775271D01*
X76459980Y-61850397D01*
X76397782Y-61929638D01*
X76310288Y-61985354D01*
X76257899Y-61996000D01*
X76178977Y-62010319D01*
X76085916Y-62040076D01*
X75969986Y-62084153D01*
X76114456Y-62156493D01*
X76235040Y-62249661D01*
X76307331Y-62371471D01*
X76317265Y-62495756D01*
X76309925Y-62520213D01*
X76255558Y-62569583D01*
X76134718Y-62589237D01*
X76102412Y-62589954D01*
X75995851Y-62593569D01*
X75963451Y-62605790D01*
X75994776Y-62631817D01*
X76005833Y-62638069D01*
X76168605Y-62753646D01*
X76258421Y-62875842D01*
X76272111Y-62996703D01*
X76206503Y-63108277D01*
X76196901Y-63117319D01*
X76098766Y-63174588D01*
X75962400Y-63194290D01*
X75771058Y-63177966D01*
X75688333Y-63164087D01*
X75497833Y-63129284D01*
X75610344Y-63218809D01*
X75699547Y-63280057D01*
X75764579Y-63308142D01*
X75767765Y-63308334D01*
X75793697Y-63340772D01*
X75769313Y-63438916D01*
X75723505Y-63544592D01*
X75696461Y-63590305D01*
X75656911Y-63611569D01*
X75583645Y-63610648D01*
X75455454Y-63589806D01*
X75399063Y-63579243D01*
X75173491Y-63531287D01*
X75002921Y-63478962D01*
X74858014Y-63410477D01*
X74709432Y-63314041D01*
X74672333Y-63287167D01*
X74580092Y-63219984D01*
X74499826Y-63167695D01*
X74420666Y-63129888D01*
X74331743Y-63106154D01*
X74222187Y-63096080D01*
X74081130Y-63099259D01*
X73897703Y-63115277D01*
X73661036Y-63143727D01*
X73360261Y-63184196D01*
X73057318Y-63226179D01*
X72747514Y-63268994D01*
X72464742Y-63307743D01*
X72219942Y-63340953D01*
X72024052Y-63367152D01*
X71888009Y-63384867D01*
X71822752Y-63392627D01*
X71819211Y-63392854D01*
X71813818Y-63433925D01*
X71809477Y-63551963D01*
X71806138Y-63739277D01*
X71803752Y-63988175D01*
X71802270Y-64290965D01*
X71801645Y-64639956D01*
X71801826Y-65027455D01*
X71802765Y-65445770D01*
X71804412Y-65887210D01*
X71806720Y-66344083D01*
X71809639Y-66808697D01*
X71813120Y-67273360D01*
X71817114Y-67730380D01*
X71821573Y-68172066D01*
X71826447Y-68590725D01*
X71831688Y-68978666D01*
X71837246Y-69328197D01*
X71843073Y-69631626D01*
X71849120Y-69881261D01*
X71855338Y-70069411D01*
X71861677Y-70188383D01*
X71862483Y-70198084D01*
X71874196Y-70358625D01*
X71872502Y-70452072D01*
X71855295Y-70495239D01*
X71824049Y-70505000D01*
X71757024Y-70530452D01*
X71742921Y-70551404D01*
X71710131Y-70566496D01*
X71620079Y-70574535D01*
X71466625Y-70575502D01*
X71243628Y-70569380D01*
X70944951Y-70556149D01*
X70797476Y-70548574D01*
X70590488Y-70539591D01*
X70309014Y-70530385D01*
X69963236Y-70521154D01*
X69563332Y-70512093D01*
X69119484Y-70503399D01*
X68641872Y-70495269D01*
X68140675Y-70487897D01*
X67626075Y-70481481D01*
X67108251Y-70476217D01*
X66992760Y-70475215D01*
X64118021Y-70451090D01*
X64146662Y-71123628D01*
X64159287Y-71415115D01*
X64173486Y-71734962D01*
X64187663Y-72047648D01*
X64200222Y-72317657D01*
X64202189Y-72359011D01*
X64229073Y-72921856D01*
X64338953Y-72901661D01*
X64582776Y-72860124D01*
X64807692Y-72827841D01*
X64997474Y-72806640D01*
X65135898Y-72798348D01*
X65205160Y-72804132D01*
X65254266Y-72865541D01*
X65271890Y-72989100D01*
X65260650Y-73159463D01*
X65223166Y-73361285D01*
X65162057Y-73579218D01*
X65079942Y-73797919D01*
X65010444Y-73945018D01*
X64940317Y-74079911D01*
X64886494Y-74184072D01*
X64860161Y-74235851D01*
X64859788Y-74236632D01*
X64894693Y-74246119D01*
X64999442Y-74253269D01*
X65159234Y-74257534D01*
X65359264Y-74258365D01*
X65430984Y-74257799D01*
X65758010Y-74258078D01*
X66013127Y-74268088D01*
X66208727Y-74289715D01*
X66357205Y-74324845D01*
X66470952Y-74375362D01*
X66544132Y-74427160D01*
X66648292Y-74562417D01*
X66672710Y-74725139D01*
X66617387Y-74914337D01*
X66544008Y-75043044D01*
X66405309Y-75217673D01*
X66234950Y-75364368D01*
X66024997Y-75485816D01*
X65767517Y-75584705D01*
X65454576Y-75663723D01*
X65078239Y-75725557D01*
X64630573Y-75772896D01*
X64322556Y-75795579D01*
X63970313Y-75816687D01*
X63690941Y-75829564D01*
X63473030Y-75834107D01*
X63305175Y-75830211D01*
X63175970Y-75817769D01*
X63074006Y-75796678D01*
X63032095Y-75783694D01*
X62914089Y-75718065D01*
X62826212Y-75627090D01*
X62822172Y-75620249D01*
X62793780Y-75558608D01*
X62783427Y-75491859D01*
X62788987Y-75434673D01*
X63082288Y-75434673D01*
X63086114Y-75473449D01*
X63105552Y-75499496D01*
X63148843Y-75518110D01*
X63228166Y-75530447D01*
X63355696Y-75537661D01*
X63543611Y-75540908D01*
X63801921Y-75541346D01*
X64085233Y-75536864D01*
X64386201Y-75525478D01*
X64673869Y-75508763D01*
X64917285Y-75488293D01*
X64978000Y-75481542D01*
X65197290Y-75451003D01*
X65408675Y-75414270D01*
X65584421Y-75376540D01*
X65676500Y-75350601D01*
X65905096Y-75253430D01*
X66100538Y-75134229D01*
X66254255Y-75002616D01*
X66357678Y-74868210D01*
X66402235Y-74740632D01*
X66379357Y-74629499D01*
X66351076Y-74593457D01*
X66318454Y-74568920D01*
X66268967Y-74550864D01*
X66191075Y-74538516D01*
X66073236Y-74531104D01*
X65903912Y-74527854D01*
X65671560Y-74527993D01*
X65408078Y-74530281D01*
X65111834Y-74532747D01*
X64889146Y-74532536D01*
X64728928Y-74528912D01*
X64620092Y-74521143D01*
X64551552Y-74508494D01*
X64512220Y-74490231D01*
X64493456Y-74469723D01*
X64474465Y-74384831D01*
X64509283Y-74304563D01*
X64624757Y-74106781D01*
X64735092Y-73893289D01*
X64834392Y-73678649D01*
X64916760Y-73477420D01*
X64976297Y-73304164D01*
X65007107Y-73173440D01*
X65003292Y-73099811D01*
X64999348Y-73094571D01*
X64951082Y-73090902D01*
X64839693Y-73098516D01*
X64685732Y-73115783D01*
X64619159Y-73124702D01*
X64418105Y-73148772D01*
X64170580Y-73172491D01*
X63914726Y-73192413D01*
X63773674Y-73201079D01*
X63288154Y-73227098D01*
X63287795Y-73731562D01*
X63286628Y-73961638D01*
X63281689Y-74143522D01*
X63270255Y-74301681D01*
X63249606Y-74460581D01*
X63217021Y-74644688D01*
X63169778Y-74878468D01*
X63149387Y-74976032D01*
X63114159Y-75162129D01*
X63090901Y-75322018D01*
X63082288Y-75434673D01*
X62788987Y-75434673D01*
X62792449Y-75399070D01*
X62822181Y-75259307D01*
X62853230Y-75133415D01*
X62927912Y-74807787D01*
X62979544Y-74504374D01*
X63011453Y-74194094D01*
X63026963Y-73847870D01*
X63029828Y-73589279D01*
X63030699Y-73346792D01*
X63036731Y-73176295D01*
X63054278Y-73065121D01*
X63089697Y-73000603D01*
X63149344Y-72970072D01*
X63239576Y-72960862D01*
X63345415Y-72960334D01*
X63526238Y-72960334D01*
X63510998Y-72759250D01*
X63478305Y-72332079D01*
X63447124Y-71932718D01*
X63418229Y-71570625D01*
X63392394Y-71255259D01*
X63370396Y-70996076D01*
X63353008Y-70802534D01*
X63341113Y-70685031D01*
X63319328Y-70497047D01*
X63585396Y-70497047D01*
X63588255Y-70577137D01*
X63594971Y-70621417D01*
X63605475Y-70710644D01*
X63620643Y-70869151D01*
X63639167Y-71081765D01*
X63659737Y-71333308D01*
X63681047Y-71608607D01*
X63687149Y-71690334D01*
X63714144Y-72051500D01*
X63736400Y-72337040D01*
X63755092Y-72555787D01*
X63771398Y-72716576D01*
X63786493Y-72828240D01*
X63801554Y-72899612D01*
X63817756Y-72939525D01*
X63836277Y-72956815D01*
X63856262Y-72960334D01*
X63926564Y-72934475D01*
X63939899Y-72919512D01*
X63944635Y-72868186D01*
X63945543Y-72743365D01*
X63942862Y-72556123D01*
X63936828Y-72317534D01*
X63927681Y-72038670D01*
X63915656Y-71730607D01*
X63913108Y-71670679D01*
X63861088Y-70462667D01*
X63715633Y-70462667D01*
X63621586Y-70467138D01*
X63585396Y-70497047D01*
X63319328Y-70497047D01*
X63315370Y-70462895D01*
X62717935Y-70484248D01*
X62113367Y-70505061D01*
X61540536Y-70523216D01*
X61004691Y-70538625D01*
X60511081Y-70551200D01*
X60064954Y-70560855D01*
X59671561Y-70567500D01*
X59336151Y-70571049D01*
X59063973Y-70571414D01*
X58860277Y-70568507D01*
X58730311Y-70562240D01*
X58679325Y-70552526D01*
X58678852Y-70551724D01*
X58628904Y-70509343D01*
X58601540Y-70505000D01*
X58570039Y-70490493D01*
X58555267Y-70436248D01*
X58555252Y-70378000D01*
X58842077Y-70378000D01*
X58881423Y-70383197D01*
X58992521Y-70385163D01*
X59162521Y-70383996D01*
X59378575Y-70379794D01*
X59627833Y-70372657D01*
X59654532Y-70371771D01*
X59852887Y-70365645D01*
X60124775Y-70358062D01*
X60459081Y-70349295D01*
X60844689Y-70339615D01*
X61270481Y-70329294D01*
X61725344Y-70318603D01*
X62198160Y-70307813D01*
X62677815Y-70297197D01*
X62924833Y-70291865D01*
X64026165Y-70273003D01*
X65140579Y-70262939D01*
X66251864Y-70261567D01*
X67343807Y-70268778D01*
X68400194Y-70284465D01*
X69404813Y-70308521D01*
X70341450Y-70340838D01*
X70345812Y-70341016D01*
X70649987Y-70352546D01*
X70925841Y-70361406D01*
X71162255Y-70367370D01*
X71348113Y-70370208D01*
X71472297Y-70369691D01*
X71523691Y-70365592D01*
X71524220Y-70365224D01*
X71505805Y-70326718D01*
X71444129Y-70225336D01*
X71343774Y-70068059D01*
X71209320Y-69861864D01*
X71045349Y-69613731D01*
X70856443Y-69330639D01*
X70647183Y-69019566D01*
X70440945Y-68715134D01*
X69334907Y-67087806D01*
X68733370Y-67018122D01*
X68360918Y-66975900D01*
X68030525Y-66941022D01*
X67728208Y-66912800D01*
X67439986Y-66890545D01*
X67151877Y-66873571D01*
X66849899Y-66861190D01*
X66520070Y-66852713D01*
X66148408Y-66847454D01*
X65720932Y-66844723D01*
X65223659Y-66843835D01*
X65189667Y-66843825D01*
X64595995Y-66845398D01*
X64071361Y-66850938D01*
X63600192Y-66861239D01*
X63166918Y-66877094D01*
X62755970Y-66899296D01*
X62351775Y-66928638D01*
X61938764Y-66965914D01*
X61501366Y-67011916D01*
X61191124Y-67047519D01*
X60769748Y-67097167D01*
X59807170Y-68727000D01*
X59607971Y-69064649D01*
X59422586Y-69379591D01*
X59255350Y-69664407D01*
X59110601Y-69911680D01*
X58992675Y-70113991D01*
X58905908Y-70263922D01*
X58854636Y-70354055D01*
X58842077Y-70378000D01*
X58555252Y-70378000D01*
X58555238Y-70326179D01*
X58563637Y-70198084D01*
X58571599Y-70070037D01*
X58581452Y-69871763D01*
X58592678Y-69617668D01*
X58604759Y-69322157D01*
X58617176Y-68999637D01*
X58629413Y-68664512D01*
X58640950Y-68331188D01*
X58651269Y-68014071D01*
X58659853Y-67727567D01*
X58666184Y-67486080D01*
X58669743Y-67304017D01*
X58670333Y-67231171D01*
X58670333Y-66980426D01*
X58448083Y-67008683D01*
X58253341Y-67034853D01*
X58018781Y-67068602D01*
X57757366Y-67107831D01*
X57482059Y-67150439D01*
X57205822Y-67194327D01*
X56941618Y-67237395D01*
X56702408Y-67277542D01*
X56501156Y-67312669D01*
X56350824Y-67340675D01*
X56264374Y-67359460D01*
X56248870Y-67364978D01*
X56239453Y-67420025D01*
X56250334Y-67525495D01*
X56260726Y-67578130D01*
X56280932Y-67707036D01*
X56263813Y-67794069D01*
X56196718Y-67852348D01*
X56066995Y-67894994D01*
X55927821Y-67923365D01*
X55512278Y-68020940D01*
X55058627Y-68165748D01*
X54592348Y-68349124D01*
X54337938Y-68464136D01*
X54132447Y-68560682D01*
X53988042Y-68624413D01*
X53889707Y-68659620D01*
X53822425Y-68670595D01*
X53771180Y-68661628D01*
X53725017Y-68639303D01*
X53635918Y-68551651D01*
X53549738Y-68389286D01*
X53465925Y-68150298D01*
X53383928Y-67832775D01*
X53303194Y-67434808D01*
X53223173Y-66954486D01*
X53206435Y-66843167D01*
X53153893Y-66427553D01*
X53130271Y-66080115D01*
X53130398Y-66072875D01*
X53388011Y-66072875D01*
X53403765Y-66308242D01*
X53432879Y-66581658D01*
X53472740Y-66877613D01*
X53520732Y-67180599D01*
X53574240Y-67475109D01*
X53630649Y-67745635D01*
X53687344Y-67976668D01*
X53741709Y-68152700D01*
X53786145Y-68250750D01*
X53853448Y-68322479D01*
X53910310Y-68346000D01*
X53973879Y-68328539D01*
X54093821Y-68281483D01*
X54250644Y-68212827D01*
X54364418Y-68159785D01*
X54801187Y-67973288D01*
X55255522Y-67818875D01*
X55690094Y-67709063D01*
X55735202Y-67700222D01*
X56009809Y-67648130D01*
X55982950Y-67520815D01*
X55886129Y-67001370D01*
X55883196Y-66979294D01*
X56134223Y-66979294D01*
X56169776Y-67045043D01*
X56227275Y-67076000D01*
X56284474Y-67069586D01*
X56412219Y-67051644D01*
X56597467Y-67024125D01*
X56827177Y-66988978D01*
X57088307Y-66948155D01*
X57191687Y-66931778D01*
X57479608Y-66886727D01*
X57758263Y-66844446D01*
X58010051Y-66807507D01*
X58217369Y-66778481D01*
X58362616Y-66759939D01*
X58384583Y-66757513D01*
X58670333Y-66727470D01*
X58670333Y-66584235D01*
X58656204Y-66481111D01*
X58618467Y-66441846D01*
X58617417Y-66441842D01*
X58554785Y-66449944D01*
X58424519Y-66471831D01*
X58239261Y-66505053D01*
X58011656Y-66547160D01*
X57754347Y-66595702D01*
X57479978Y-66648226D01*
X57201193Y-66702283D01*
X56930636Y-66755422D01*
X56680950Y-66805193D01*
X56464779Y-66849144D01*
X56294768Y-66884825D01*
X56183560Y-66909786D01*
X56143975Y-66921247D01*
X56134223Y-66979294D01*
X55883196Y-66979294D01*
X55822615Y-66523402D01*
X55805527Y-66323774D01*
X55791904Y-66140613D01*
X55778305Y-66027175D01*
X55760060Y-65968648D01*
X55732496Y-65950218D01*
X55690942Y-65957074D01*
X55689978Y-65957355D01*
X55537701Y-66023319D01*
X55345310Y-66139377D01*
X55130373Y-66293649D01*
X54910461Y-66474252D01*
X54862380Y-66517042D01*
X54695646Y-66660085D01*
X54575752Y-66739247D01*
X54493098Y-66753761D01*
X54438086Y-66702862D01*
X54401119Y-66585781D01*
X54382924Y-66478735D01*
X54350459Y-66284977D01*
X54305355Y-66057678D01*
X54252374Y-65816867D01*
X54196277Y-65582570D01*
X54141827Y-65374816D01*
X54093785Y-65213631D01*
X54062059Y-65129285D01*
X53978252Y-65009617D01*
X53881159Y-64964729D01*
X53777424Y-64987113D01*
X53673687Y-65069260D01*
X53576589Y-65203661D01*
X53492773Y-65382808D01*
X53428880Y-65599193D01*
X53391552Y-65845307D01*
X53388234Y-65891063D01*
X53388011Y-66072875D01*
X53130398Y-66072875D01*
X53135406Y-65789516D01*
X53169131Y-65544419D01*
X53186520Y-65471538D01*
X53277692Y-65219487D01*
X53403298Y-65000021D01*
X53552367Y-64825753D01*
X53713931Y-64709296D01*
X53877021Y-64663263D01*
X53889679Y-64663000D01*
X54030564Y-64693247D01*
X54155096Y-64786866D01*
X54265622Y-64948179D01*
X54364494Y-65181503D01*
X54454059Y-65491161D01*
X54528423Y-65837476D01*
X54565950Y-66031782D01*
X54598328Y-66193309D01*
X54622110Y-66305260D01*
X54633845Y-66350840D01*
X54633863Y-66350866D01*
X54667992Y-66332335D01*
X54748730Y-66269129D01*
X54860284Y-66173791D01*
X54890143Y-66147295D01*
X55113857Y-65973689D01*
X55363059Y-65823433D01*
X55610154Y-65711411D01*
X55798605Y-65657245D01*
X55889044Y-65647783D01*
X55953294Y-65666183D01*
X55996983Y-65724250D01*
X56025737Y-65833791D01*
X56045182Y-66006610D01*
X56057994Y-66201479D01*
X56069337Y-66379202D01*
X56080776Y-66521720D01*
X56090676Y-66610308D01*
X56095423Y-66630030D01*
X56138848Y-66625529D01*
X56255279Y-66607109D01*
X56434525Y-66576552D01*
X56666395Y-66535642D01*
X56940695Y-66486164D01*
X57247236Y-66429902D01*
X57387403Y-66403885D01*
X57750755Y-66335746D01*
X58039362Y-66280229D01*
X58261848Y-66235196D01*
X58426839Y-66198507D01*
X58542960Y-66168024D01*
X58618835Y-66141607D01*
X58663090Y-66117118D01*
X58684348Y-66092416D01*
X58688575Y-66081167D01*
X58698130Y-66000028D01*
X58705101Y-65842526D01*
X58709622Y-65616917D01*
X58711825Y-65331460D01*
X58711843Y-64994414D01*
X58709809Y-64614038D01*
X58705855Y-64198589D01*
X58700116Y-63756326D01*
X58692722Y-63295509D01*
X58683808Y-62824395D01*
X58673506Y-62351242D01*
X58661949Y-61884310D01*
X58649270Y-61431856D01*
X58635601Y-61002140D01*
X58621076Y-60603419D01*
X58605826Y-60243953D01*
X58589986Y-59931999D01*
X58589550Y-59924281D01*
X58575401Y-59666876D01*
X58571642Y-59479403D01*
X58574501Y-59452558D01*
X58759640Y-59452558D01*
X58763884Y-59588924D01*
X58773203Y-59741750D01*
X58797183Y-60165444D01*
X58818141Y-60660102D01*
X58836072Y-61215823D01*
X58850975Y-61822705D01*
X58862847Y-62470845D01*
X58871687Y-63150342D01*
X58877491Y-63851294D01*
X58880258Y-64563798D01*
X58879985Y-65277953D01*
X58876670Y-65983855D01*
X58870311Y-66671605D01*
X58860905Y-67331298D01*
X58848451Y-67953034D01*
X58832945Y-68526910D01*
X58814385Y-69043024D01*
X58792770Y-69491474D01*
X58775528Y-69763901D01*
X58767589Y-69930169D01*
X58771349Y-70033103D01*
X58786343Y-70063218D01*
X58790142Y-70060235D01*
X58819372Y-70015644D01*
X58886606Y-69905901D01*
X58987111Y-69738946D01*
X59116156Y-69522716D01*
X59269011Y-69265151D01*
X59440943Y-68974189D01*
X59627220Y-68657768D01*
X59706393Y-68522943D01*
X59898063Y-68194576D01*
X60077064Y-67884577D01*
X60238604Y-67601494D01*
X60377893Y-67353871D01*
X60490137Y-67150256D01*
X60570545Y-66999194D01*
X60614324Y-66909231D01*
X60620288Y-66893110D01*
X60628432Y-66852068D01*
X60831087Y-66852068D01*
X60842263Y-66895864D01*
X60884847Y-66895252D01*
X60897236Y-66891645D01*
X60961663Y-66880709D01*
X61097005Y-66863910D01*
X61289826Y-66842701D01*
X61526692Y-66818534D01*
X61794166Y-66792861D01*
X61908833Y-66782304D01*
X62829502Y-66706607D01*
X63685377Y-66653562D01*
X64493115Y-66622720D01*
X65269378Y-66613633D01*
X66030824Y-66625852D01*
X66692500Y-66653373D01*
X67053319Y-66674888D01*
X67437152Y-66701992D01*
X67825621Y-66733061D01*
X68200351Y-66766469D01*
X68542965Y-66800589D01*
X68835084Y-66833797D01*
X69030857Y-66860228D01*
X69157402Y-66876472D01*
X69244207Y-66882259D01*
X69266893Y-66879329D01*
X69267865Y-66834023D01*
X69258993Y-66723402D01*
X69241978Y-66566030D01*
X69227055Y-66445108D01*
X69164373Y-65911495D01*
X69114471Y-65375166D01*
X69076519Y-64820635D01*
X69049684Y-64232413D01*
X69033134Y-63595013D01*
X69027043Y-62992219D01*
X69215822Y-62992219D01*
X69236675Y-63958534D01*
X69282204Y-64900116D01*
X69352268Y-65797486D01*
X69435618Y-66546858D01*
X69490398Y-66970167D01*
X70562979Y-68548525D01*
X70784021Y-68873049D01*
X70990316Y-69174474D01*
X71177062Y-69445887D01*
X71339453Y-69680373D01*
X71472685Y-69871017D01*
X71571955Y-70010904D01*
X71632459Y-70093120D01*
X71649729Y-70112715D01*
X71651921Y-70068634D01*
X71651883Y-69949485D01*
X71649776Y-69764832D01*
X71645758Y-69524240D01*
X71639988Y-69237273D01*
X71632625Y-68913498D01*
X71624200Y-68576690D01*
X71613548Y-68099965D01*
X71605031Y-67575461D01*
X71598588Y-67011564D01*
X71594157Y-66416663D01*
X71591679Y-65799143D01*
X71591091Y-65167392D01*
X71592333Y-64529798D01*
X71595345Y-63894748D01*
X71600065Y-63270628D01*
X71603391Y-62954598D01*
X71793667Y-62954598D01*
X71796607Y-63072770D01*
X71814439Y-63126315D01*
X71860681Y-63135263D01*
X71910083Y-63127094D01*
X71981766Y-63115657D01*
X72125239Y-63094741D01*
X72328368Y-63066042D01*
X72381878Y-63058616D01*
X74841196Y-63058616D01*
X74864950Y-63094022D01*
X74936299Y-63145502D01*
X75040937Y-63203452D01*
X75142773Y-63249481D01*
X75201500Y-63265522D01*
X75194749Y-63246366D01*
X75130602Y-63197450D01*
X75074500Y-63161271D01*
X74957375Y-63094956D01*
X74875324Y-63059363D01*
X74841196Y-63058616D01*
X72381878Y-63058616D01*
X72565261Y-63033167D01*
X74757000Y-63033167D01*
X74778167Y-63054334D01*
X74799333Y-63033167D01*
X74778167Y-63012000D01*
X74757000Y-63033167D01*
X72565261Y-63033167D01*
X72579018Y-63031258D01*
X72865053Y-62992085D01*
X73174339Y-62950220D01*
X73190667Y-62948024D01*
X73555446Y-62897922D01*
X73843890Y-62855744D01*
X74063808Y-62820042D01*
X74223010Y-62789364D01*
X74329307Y-62762262D01*
X74390509Y-62737286D01*
X74409575Y-62721804D01*
X74484460Y-62678055D01*
X74778167Y-62678055D01*
X74781418Y-62687089D01*
X74854495Y-62710704D01*
X74984557Y-62745186D01*
X75137242Y-62781871D01*
X75323091Y-62825571D01*
X75479272Y-62863633D01*
X75586675Y-62891320D01*
X75624076Y-62902572D01*
X75694229Y-62918906D01*
X75776041Y-62923403D01*
X75836326Y-62916336D01*
X75845198Y-62900754D01*
X75794504Y-62881632D01*
X75680367Y-62851715D01*
X75522683Y-62815157D01*
X75341345Y-62776110D01*
X75156249Y-62738725D01*
X74987289Y-62707156D01*
X74854359Y-62685553D01*
X74778167Y-62678055D01*
X74484460Y-62678055D01*
X74498053Y-62670114D01*
X74574258Y-62666557D01*
X74652160Y-62666619D01*
X74668468Y-62626766D01*
X74662635Y-62598487D01*
X74649918Y-62515141D01*
X74669916Y-62456376D01*
X74733672Y-62417777D01*
X74852227Y-62394933D01*
X75036626Y-62383430D01*
X75209894Y-62379774D01*
X75405200Y-62376176D01*
X75566779Y-62371119D01*
X75677452Y-62365284D01*
X75719892Y-62359552D01*
X75685305Y-62352536D01*
X75580813Y-62342751D01*
X75421089Y-62331323D01*
X75220806Y-62319379D01*
X75142626Y-62315222D01*
X74891631Y-62300139D01*
X74714929Y-62283921D01*
X74602146Y-62265045D01*
X74542910Y-62241987D01*
X74528572Y-62225049D01*
X74516933Y-62138379D01*
X74566167Y-62078599D01*
X74684878Y-62039538D01*
X74812458Y-62021369D01*
X74997261Y-61998272D01*
X75203052Y-61966396D01*
X75413991Y-61928991D01*
X75614237Y-61889302D01*
X75787948Y-61850579D01*
X75919284Y-61816068D01*
X75992403Y-61789016D01*
X76001656Y-61777575D01*
X75934837Y-61744978D01*
X75797878Y-61738248D01*
X75600858Y-61756172D01*
X75353858Y-61797539D01*
X75066956Y-61861133D01*
X74859298Y-61915061D01*
X74637489Y-61977574D01*
X74443051Y-62035614D01*
X74291451Y-62084313D01*
X74198152Y-62118804D01*
X74177749Y-62129560D01*
X74113257Y-62137741D01*
X74040166Y-62083499D01*
X73967432Y-61994489D01*
X73963288Y-61928230D01*
X74013846Y-61870926D01*
X74073304Y-61786348D01*
X74130434Y-61648800D01*
X74175563Y-61489661D01*
X74199015Y-61340308D01*
X74198897Y-61270781D01*
X74177682Y-61157810D01*
X74143495Y-61124048D01*
X74095555Y-61170399D01*
X74033080Y-61297767D01*
X73955289Y-61507055D01*
X73930437Y-61581125D01*
X73860526Y-61783918D01*
X73790976Y-61969603D01*
X73730430Y-62115977D01*
X73691799Y-62194080D01*
X73618677Y-62286222D01*
X73513116Y-62364369D01*
X73364321Y-62432692D01*
X73161497Y-62495358D01*
X72893851Y-62556538D01*
X72619167Y-62608392D01*
X72390158Y-62649135D01*
X72184683Y-62685983D01*
X72020047Y-62715812D01*
X71913555Y-62735495D01*
X71888917Y-62740271D01*
X71829667Y-62764109D01*
X71801555Y-62820014D01*
X71793754Y-62932345D01*
X71793667Y-62954598D01*
X71603391Y-62954598D01*
X71606432Y-62665827D01*
X71614385Y-62088730D01*
X71623864Y-61547727D01*
X71634808Y-61051203D01*
X71647156Y-60607546D01*
X71660846Y-60225143D01*
X71675818Y-59912382D01*
X71688520Y-59719954D01*
X71697709Y-59548594D01*
X71691331Y-59446716D01*
X71668069Y-59400346D01*
X71657906Y-59395263D01*
X71595325Y-59377316D01*
X71471751Y-59343059D01*
X71307939Y-59298218D01*
X71201000Y-59269167D01*
X70921023Y-59177253D01*
X70583587Y-59038628D01*
X70198860Y-58857524D01*
X70132083Y-58824126D01*
X69917194Y-58716419D01*
X69731103Y-58624317D01*
X69585833Y-58553673D01*
X69493407Y-58510343D01*
X69465333Y-58499468D01*
X69460941Y-58543121D01*
X69448739Y-58657393D01*
X69430194Y-58828744D01*
X69406769Y-59043637D01*
X69382054Y-59269200D01*
X69302763Y-60139661D01*
X69248723Y-61063303D01*
X69219791Y-62020649D01*
X69215822Y-62992219D01*
X69027043Y-62992219D01*
X69026039Y-62892948D01*
X69025638Y-62694500D01*
X69026914Y-62285166D01*
X69030944Y-61879246D01*
X69037402Y-61491071D01*
X69045964Y-61134974D01*
X69056302Y-60825288D01*
X69068093Y-60576343D01*
X69076628Y-60450834D01*
X69103637Y-60132863D01*
X69132847Y-59811435D01*
X69162944Y-59499043D01*
X69192613Y-59208176D01*
X69220540Y-58951327D01*
X69245409Y-58740986D01*
X69265906Y-58589646D01*
X69280716Y-58509796D01*
X69281073Y-58508587D01*
X69287699Y-58461288D01*
X69256220Y-58443648D01*
X69167823Y-58449970D01*
X69113300Y-58457784D01*
X68835503Y-58497159D01*
X68533962Y-58536074D01*
X68232747Y-58571738D01*
X67955929Y-58601360D01*
X67727578Y-58622151D01*
X67645000Y-58628008D01*
X67169171Y-58656652D01*
X66765418Y-58679904D01*
X66421357Y-58698279D01*
X66124603Y-58712289D01*
X65862771Y-58722449D01*
X65623476Y-58729271D01*
X65394336Y-58733271D01*
X65162963Y-58734960D01*
X65062667Y-58735104D01*
X64340671Y-58724989D01*
X63588888Y-58695803D01*
X62834786Y-58649282D01*
X62105834Y-58587164D01*
X61429502Y-58511186D01*
X61343006Y-58499866D01*
X61151569Y-58475731D01*
X60993524Y-58458435D01*
X60886127Y-58449689D01*
X60846873Y-58450683D01*
X60846631Y-58495625D01*
X60855755Y-58609860D01*
X60872807Y-58778706D01*
X60896355Y-58987480D01*
X60912239Y-59119578D01*
X60965510Y-59575661D01*
X61008531Y-59999743D01*
X61042218Y-60409033D01*
X61067491Y-60820741D01*
X61085267Y-61252075D01*
X61096464Y-61720246D01*
X61102001Y-62242464D01*
X61102984Y-62694500D01*
X61093815Y-63594685D01*
X61067107Y-64420428D01*
X61022319Y-65180234D01*
X60958908Y-65882605D01*
X60876330Y-66536044D01*
X60844418Y-66744661D01*
X60831087Y-66852068D01*
X60628432Y-66852068D01*
X60641613Y-66785649D01*
X60668024Y-66607324D01*
X60698080Y-66371682D01*
X60730340Y-66092274D01*
X60763364Y-65782649D01*
X60795708Y-65456356D01*
X60825933Y-65126944D01*
X60852596Y-64807964D01*
X60874256Y-64512964D01*
X60875541Y-64493667D01*
X60889731Y-64207909D01*
X60899602Y-63856923D01*
X60905350Y-63454886D01*
X60907167Y-63015973D01*
X60905248Y-62554363D01*
X60899788Y-62084232D01*
X60890979Y-61619757D01*
X60879018Y-61175115D01*
X60864097Y-60764482D01*
X60846411Y-60402035D01*
X60826154Y-60101951D01*
X60813506Y-59964000D01*
X60768593Y-59544040D01*
X60729846Y-59203637D01*
X60696575Y-58937959D01*
X60668091Y-58742173D01*
X60643705Y-58611448D01*
X60622728Y-58540952D01*
X60608202Y-58524667D01*
X60558385Y-58544246D01*
X60450644Y-58597607D01*
X60300660Y-58676684D01*
X60124110Y-58773411D01*
X60117572Y-58777057D01*
X59908245Y-58887976D01*
X59679125Y-58999668D01*
X59446477Y-59105237D01*
X59226568Y-59197789D01*
X59035663Y-59270429D01*
X58890029Y-59316259D01*
X58815529Y-59329000D01*
X58783915Y-59337696D01*
X58765801Y-59373849D01*
X58759640Y-59452558D01*
X58574501Y-59452558D01*
X58585725Y-59347180D01*
X58625102Y-59255523D01*
X58697222Y-59189749D01*
X58809538Y-59135176D01*
X58969502Y-59077120D01*
X59030167Y-59056037D01*
X59347811Y-58931295D01*
X59702207Y-58768513D01*
X60063678Y-58582145D01*
X60395129Y-58391198D01*
X60681167Y-58215957D01*
X61189167Y-58285414D01*
X61560217Y-58334925D01*
X61894942Y-58376337D01*
X62206088Y-58410362D01*
X62506403Y-58437710D01*
X62808631Y-58459092D01*
X63125519Y-58475219D01*
X63469814Y-58486802D01*
X63854262Y-58494551D01*
X64291610Y-58499178D01*
X64794603Y-58501392D01*
X65069722Y-58501813D01*
X65470961Y-58501496D01*
X65846207Y-58499926D01*
X66186984Y-58497231D01*
X66484818Y-58493537D01*
X66731234Y-58488970D01*
X66917757Y-58483657D01*
X67035912Y-58477726D01*
X67076968Y-58471810D01*
X67093674Y-58419302D01*
X67105059Y-58360198D01*
X67391000Y-58360198D01*
X67402466Y-58413316D01*
X67451783Y-58434331D01*
X67561330Y-58432317D01*
X67567748Y-58431851D01*
X67744495Y-58418834D01*
X67867124Y-57741500D01*
X67930410Y-57407247D01*
X67989657Y-57145468D01*
X68052249Y-56944743D01*
X68125564Y-56793653D01*
X68216984Y-56680779D01*
X68333890Y-56594701D01*
X68483664Y-56523999D01*
X68673685Y-56457255D01*
X68703333Y-56447763D01*
X68943347Y-56370723D01*
X69113156Y-56313259D01*
X69223469Y-56270015D01*
X69284993Y-56235634D01*
X69308436Y-56204759D01*
X69304506Y-56172033D01*
X69294847Y-56151846D01*
X69243054Y-56097382D01*
X69154513Y-56090805D01*
X69115249Y-56096944D01*
X68984978Y-56131009D01*
X68838578Y-56183884D01*
X68702737Y-56244133D01*
X68604147Y-56300319D01*
X68572516Y-56329510D01*
X68515301Y-56355121D01*
X68433165Y-56336043D01*
X68363971Y-56284392D01*
X68348598Y-56257854D01*
X68345325Y-56174844D01*
X68368964Y-56079549D01*
X68447543Y-55849016D01*
X68523816Y-55581832D01*
X68592651Y-55300855D01*
X68648916Y-55028942D01*
X68687481Y-54788950D01*
X68703213Y-54603737D01*
X68703333Y-54590197D01*
X68698980Y-54441184D01*
X68687276Y-54343371D01*
X68670253Y-54312136D01*
X68666919Y-54314617D01*
X68638653Y-54380025D01*
X68604101Y-54510779D01*
X68566700Y-54688121D01*
X68529888Y-54893289D01*
X68497101Y-55107524D01*
X68471777Y-55312066D01*
X68460013Y-55443963D01*
X68439043Y-55636184D01*
X68403903Y-55753830D01*
X68347904Y-55806660D01*
X68264357Y-55804434D01*
X68222464Y-55790598D01*
X68195699Y-55770280D01*
X68176362Y-55724818D01*
X68163088Y-55641836D01*
X68154515Y-55508960D01*
X68149277Y-55313815D01*
X68146545Y-55101721D01*
X68143490Y-54862633D01*
X68139473Y-54703194D01*
X68134009Y-54618388D01*
X68126613Y-54603196D01*
X68116802Y-54652603D01*
X68109159Y-54714667D01*
X68092396Y-54904852D01*
X68079333Y-55128113D01*
X68073281Y-55315064D01*
X68068398Y-55481738D01*
X68056643Y-55582782D01*
X68032966Y-55637213D01*
X67992316Y-55664050D01*
X67979405Y-55668519D01*
X67892847Y-55675930D01*
X67852838Y-55659105D01*
X67830870Y-55605468D01*
X67797449Y-55485399D01*
X67756803Y-55315670D01*
X67713161Y-55113051D01*
X67704999Y-55072817D01*
X67661188Y-54865612D01*
X67619490Y-54687874D01*
X67584163Y-54556476D01*
X67559463Y-54488289D01*
X67556399Y-54483950D01*
X67531550Y-54466459D01*
X67521576Y-54486812D01*
X67527833Y-54554222D01*
X67551673Y-54677903D01*
X67594453Y-54867069D01*
X67642168Y-55067367D01*
X67709000Y-55346163D01*
X67756948Y-55553792D01*
X67787202Y-55701341D01*
X67800952Y-55799896D01*
X67799385Y-55860543D01*
X67783692Y-55894368D01*
X67755061Y-55912459D01*
X67733608Y-55919916D01*
X67675115Y-55956061D01*
X67649385Y-56031649D01*
X67645000Y-56126259D01*
X67639631Y-56219092D01*
X67624585Y-56381285D01*
X67601449Y-56598283D01*
X67571812Y-56855530D01*
X67537261Y-57138473D01*
X67518000Y-57290003D01*
X67481902Y-57573632D01*
X67449792Y-57832633D01*
X67423210Y-58054044D01*
X67403694Y-58224903D01*
X67392781Y-58332246D01*
X67391000Y-58360198D01*
X67105059Y-58360198D01*
X67117448Y-58295886D01*
X67146624Y-58114868D01*
X67179536Y-57889554D01*
X67214519Y-57633250D01*
X67249908Y-57359263D01*
X67284036Y-57080900D01*
X67315238Y-56811466D01*
X67341848Y-56564269D01*
X67362202Y-56352613D01*
X67374633Y-56189807D01*
X67377476Y-56089157D01*
X67376701Y-56077189D01*
X67313600Y-55863386D01*
X67232383Y-55737668D01*
X67129813Y-55594524D01*
X67033032Y-55435615D01*
X67013945Y-55399733D01*
X66960459Y-55264064D01*
X66920627Y-55112687D01*
X67190535Y-55112687D01*
X67197032Y-55157248D01*
X67233427Y-55246000D01*
X67286140Y-55350483D01*
X67341594Y-55442239D01*
X67359141Y-55466084D01*
X67408039Y-55517986D01*
X67415571Y-55501715D01*
X67382876Y-55422320D01*
X67323299Y-55307121D01*
X67258505Y-55195900D01*
X67209502Y-55126124D01*
X67190535Y-55112687D01*
X66920627Y-55112687D01*
X66916360Y-55096472D01*
X66885270Y-54921049D01*
X66870811Y-54761889D01*
X66876604Y-54643085D01*
X66893466Y-54598250D01*
X66979213Y-54547753D01*
X67083757Y-54567056D01*
X67186723Y-54650897D01*
X67208654Y-54679633D01*
X67301474Y-54812469D01*
X67293320Y-54480424D01*
X67290770Y-54313110D01*
X67297050Y-54209319D01*
X67317875Y-54147961D01*
X67358961Y-54107951D01*
X67401218Y-54082273D01*
X67505523Y-54044365D01*
X67597992Y-54067024D01*
X67694339Y-54157508D01*
X67761417Y-54248649D01*
X67856667Y-54388521D01*
X67856667Y-54239277D01*
X67884042Y-54098782D01*
X67955430Y-54019527D01*
X68054723Y-54003136D01*
X68165814Y-54051234D01*
X68272596Y-54165445D01*
X68291467Y-54195429D01*
X68383133Y-54350790D01*
X68447983Y-54131874D01*
X68493299Y-53999406D01*
X68538753Y-53898479D01*
X68561205Y-53865390D01*
X68636651Y-53840242D01*
X68725076Y-53889783D01*
D11*
M02*
