%TF.GenerationSoftware,KiCad,Pcbnew,7.0.5-0*%
%TF.CreationDate,2024-02-11T16:38:14-08:00*%
%TF.ProjectId,Sofle_Pico_Top_Plate,536f666c-655f-4506-9963-6f5f546f705f,3.5.5*%
%TF.SameCoordinates,Original*%
%TF.FileFunction,Legend,Bot*%
%TF.FilePolarity,Positive*%
%FSLAX46Y46*%
G04 Gerber Fmt 4.6, Leading zero omitted, Abs format (unit mm)*
G04 Created by KiCad (PCBNEW 7.0.5-0) date 2024-02-11 16:38:14*
%MOMM*%
%LPD*%
G01*
G04 APERTURE LIST*
%ADD10C,0.200000*%
%ADD11C,0.150000*%
%ADD12C,0.120000*%
G04 APERTURE END LIST*
D10*
X161314048Y-61692219D02*
X161314048Y-62406504D01*
X161314048Y-62406504D02*
X161361667Y-62549361D01*
X161361667Y-62549361D02*
X161456905Y-62644600D01*
X161456905Y-62644600D02*
X161599762Y-62692219D01*
X161599762Y-62692219D02*
X161695000Y-62692219D01*
X160361667Y-62692219D02*
X160837857Y-62692219D01*
X160837857Y-62692219D02*
X160837857Y-61692219D01*
X159456905Y-62596980D02*
X159504524Y-62644600D01*
X159504524Y-62644600D02*
X159647381Y-62692219D01*
X159647381Y-62692219D02*
X159742619Y-62692219D01*
X159742619Y-62692219D02*
X159885476Y-62644600D01*
X159885476Y-62644600D02*
X159980714Y-62549361D01*
X159980714Y-62549361D02*
X160028333Y-62454123D01*
X160028333Y-62454123D02*
X160075952Y-62263647D01*
X160075952Y-62263647D02*
X160075952Y-62120790D01*
X160075952Y-62120790D02*
X160028333Y-61930314D01*
X160028333Y-61930314D02*
X159980714Y-61835076D01*
X159980714Y-61835076D02*
X159885476Y-61739838D01*
X159885476Y-61739838D02*
X159742619Y-61692219D01*
X159742619Y-61692219D02*
X159647381Y-61692219D01*
X159647381Y-61692219D02*
X159504524Y-61739838D01*
X159504524Y-61739838D02*
X159456905Y-61787457D01*
X158742619Y-61692219D02*
X158742619Y-62406504D01*
X158742619Y-62406504D02*
X158790238Y-62549361D01*
X158790238Y-62549361D02*
X158885476Y-62644600D01*
X158885476Y-62644600D02*
X159028333Y-62692219D01*
X159028333Y-62692219D02*
X159123571Y-62692219D01*
X157790238Y-62692219D02*
X158266428Y-62692219D01*
X158266428Y-62692219D02*
X158266428Y-61692219D01*
X156885476Y-62596980D02*
X156933095Y-62644600D01*
X156933095Y-62644600D02*
X157075952Y-62692219D01*
X157075952Y-62692219D02*
X157171190Y-62692219D01*
X157171190Y-62692219D02*
X157314047Y-62644600D01*
X157314047Y-62644600D02*
X157409285Y-62549361D01*
X157409285Y-62549361D02*
X157456904Y-62454123D01*
X157456904Y-62454123D02*
X157504523Y-62263647D01*
X157504523Y-62263647D02*
X157504523Y-62120790D01*
X157504523Y-62120790D02*
X157456904Y-61930314D01*
X157456904Y-61930314D02*
X157409285Y-61835076D01*
X157409285Y-61835076D02*
X157314047Y-61739838D01*
X157314047Y-61739838D02*
X157171190Y-61692219D01*
X157171190Y-61692219D02*
X157075952Y-61692219D01*
X157075952Y-61692219D02*
X156933095Y-61739838D01*
X156933095Y-61739838D02*
X156885476Y-61787457D01*
X156171190Y-61692219D02*
X156171190Y-62406504D01*
X156171190Y-62406504D02*
X156218809Y-62549361D01*
X156218809Y-62549361D02*
X156314047Y-62644600D01*
X156314047Y-62644600D02*
X156456904Y-62692219D01*
X156456904Y-62692219D02*
X156552142Y-62692219D01*
X155218809Y-62692219D02*
X155694999Y-62692219D01*
X155694999Y-62692219D02*
X155694999Y-61692219D01*
X154314047Y-62596980D02*
X154361666Y-62644600D01*
X154361666Y-62644600D02*
X154504523Y-62692219D01*
X154504523Y-62692219D02*
X154599761Y-62692219D01*
X154599761Y-62692219D02*
X154742618Y-62644600D01*
X154742618Y-62644600D02*
X154837856Y-62549361D01*
X154837856Y-62549361D02*
X154885475Y-62454123D01*
X154885475Y-62454123D02*
X154933094Y-62263647D01*
X154933094Y-62263647D02*
X154933094Y-62120790D01*
X154933094Y-62120790D02*
X154885475Y-61930314D01*
X154885475Y-61930314D02*
X154837856Y-61835076D01*
X154837856Y-61835076D02*
X154742618Y-61739838D01*
X154742618Y-61739838D02*
X154599761Y-61692219D01*
X154599761Y-61692219D02*
X154504523Y-61692219D01*
X154504523Y-61692219D02*
X154361666Y-61739838D01*
X154361666Y-61739838D02*
X154314047Y-61787457D01*
X153599761Y-61692219D02*
X153599761Y-62406504D01*
X153599761Y-62406504D02*
X153647380Y-62549361D01*
X153647380Y-62549361D02*
X153742618Y-62644600D01*
X153742618Y-62644600D02*
X153885475Y-62692219D01*
X153885475Y-62692219D02*
X153980713Y-62692219D01*
X152647380Y-62692219D02*
X153123570Y-62692219D01*
X153123570Y-62692219D02*
X153123570Y-61692219D01*
X151742618Y-62596980D02*
X151790237Y-62644600D01*
X151790237Y-62644600D02*
X151933094Y-62692219D01*
X151933094Y-62692219D02*
X152028332Y-62692219D01*
X152028332Y-62692219D02*
X152171189Y-62644600D01*
X152171189Y-62644600D02*
X152266427Y-62549361D01*
X152266427Y-62549361D02*
X152314046Y-62454123D01*
X152314046Y-62454123D02*
X152361665Y-62263647D01*
X152361665Y-62263647D02*
X152361665Y-62120790D01*
X152361665Y-62120790D02*
X152314046Y-61930314D01*
X152314046Y-61930314D02*
X152266427Y-61835076D01*
X152266427Y-61835076D02*
X152171189Y-61739838D01*
X152171189Y-61739838D02*
X152028332Y-61692219D01*
X152028332Y-61692219D02*
X151933094Y-61692219D01*
X151933094Y-61692219D02*
X151790237Y-61739838D01*
X151790237Y-61739838D02*
X151742618Y-61787457D01*
D11*
%TO.C,SW25*%
X99804523Y-115352200D02*
X99661666Y-115399819D01*
X99661666Y-115399819D02*
X99423571Y-115399819D01*
X99423571Y-115399819D02*
X99328333Y-115352200D01*
X99328333Y-115352200D02*
X99280714Y-115304580D01*
X99280714Y-115304580D02*
X99233095Y-115209342D01*
X99233095Y-115209342D02*
X99233095Y-115114104D01*
X99233095Y-115114104D02*
X99280714Y-115018866D01*
X99280714Y-115018866D02*
X99328333Y-114971247D01*
X99328333Y-114971247D02*
X99423571Y-114923628D01*
X99423571Y-114923628D02*
X99614047Y-114876009D01*
X99614047Y-114876009D02*
X99709285Y-114828390D01*
X99709285Y-114828390D02*
X99756904Y-114780771D01*
X99756904Y-114780771D02*
X99804523Y-114685533D01*
X99804523Y-114685533D02*
X99804523Y-114590295D01*
X99804523Y-114590295D02*
X99756904Y-114495057D01*
X99756904Y-114495057D02*
X99709285Y-114447438D01*
X99709285Y-114447438D02*
X99614047Y-114399819D01*
X99614047Y-114399819D02*
X99375952Y-114399819D01*
X99375952Y-114399819D02*
X99233095Y-114447438D01*
X98899761Y-114399819D02*
X98661666Y-115399819D01*
X98661666Y-115399819D02*
X98471190Y-114685533D01*
X98471190Y-114685533D02*
X98280714Y-115399819D01*
X98280714Y-115399819D02*
X98042619Y-114399819D01*
X97709285Y-114495057D02*
X97661666Y-114447438D01*
X97661666Y-114447438D02*
X97566428Y-114399819D01*
X97566428Y-114399819D02*
X97328333Y-114399819D01*
X97328333Y-114399819D02*
X97233095Y-114447438D01*
X97233095Y-114447438D02*
X97185476Y-114495057D01*
X97185476Y-114495057D02*
X97137857Y-114590295D01*
X97137857Y-114590295D02*
X97137857Y-114685533D01*
X97137857Y-114685533D02*
X97185476Y-114828390D01*
X97185476Y-114828390D02*
X97756904Y-115399819D01*
X97756904Y-115399819D02*
X97137857Y-115399819D01*
X96233095Y-114399819D02*
X96709285Y-114399819D01*
X96709285Y-114399819D02*
X96756904Y-114876009D01*
X96756904Y-114876009D02*
X96709285Y-114828390D01*
X96709285Y-114828390D02*
X96614047Y-114780771D01*
X96614047Y-114780771D02*
X96375952Y-114780771D01*
X96375952Y-114780771D02*
X96280714Y-114828390D01*
X96280714Y-114828390D02*
X96233095Y-114876009D01*
X96233095Y-114876009D02*
X96185476Y-114971247D01*
X96185476Y-114971247D02*
X96185476Y-115209342D01*
X96185476Y-115209342D02*
X96233095Y-115304580D01*
X96233095Y-115304580D02*
X96280714Y-115352200D01*
X96280714Y-115352200D02*
X96375952Y-115399819D01*
X96375952Y-115399819D02*
X96614047Y-115399819D01*
X96614047Y-115399819D02*
X96709285Y-115352200D01*
X96709285Y-115352200D02*
X96756904Y-115304580D01*
D12*
X104095000Y-116925000D02*
X104095000Y-105125000D01*
X99995000Y-116925000D02*
X104095000Y-116925000D01*
X99995000Y-105125000D02*
X104095000Y-105125000D01*
X98495000Y-111025000D02*
X97495000Y-111025000D01*
X97995000Y-111525000D02*
X97995000Y-110525000D01*
X95995000Y-116925000D02*
X91895000Y-116925000D01*
X91895000Y-116925000D02*
X91895000Y-114525000D01*
X91895000Y-112325000D02*
X91895000Y-109725000D01*
X91895000Y-107525000D02*
X91895000Y-105125000D01*
X91895000Y-105125000D02*
X95995000Y-105125000D01*
X100995000Y-111025000D02*
G75*
G03*
X100995000Y-111025000I-3000000J0D01*
G01*
%TD*%
M02*
