%TF.GenerationSoftware,KiCad,Pcbnew,7.0.5-0*%
%TF.CreationDate,2024-02-11T16:38:14-08:00*%
%TF.ProjectId,Sofle_Pico_Top_Plate,536f666c-655f-4506-9963-6f5f546f705f,3.5.5*%
%TF.SameCoordinates,Original*%
%TF.FileFunction,Soldermask,Top*%
%TF.FilePolarity,Negative*%
%FSLAX46Y46*%
G04 Gerber Fmt 4.6, Leading zero omitted, Abs format (unit mm)*
G04 Created by KiCad (PCBNEW 7.0.5-0) date 2024-02-11 16:38:14*
%MOMM*%
%LPD*%
G01*
G04 APERTURE LIST*
%ADD10C,0.022619*%
%ADD11C,4.700000*%
%ADD12C,3.400000*%
G04 APERTURE END LIST*
%TO.C,REF\u002A\u002A*%
D10*
X188157952Y-127363632D02*
X188197722Y-127365223D01*
X188237587Y-127367758D01*
X188277502Y-127371252D01*
X188317417Y-127375721D01*
X188357287Y-127381180D01*
X188397063Y-127387646D01*
X188436698Y-127395133D01*
X188476146Y-127403659D01*
X188515359Y-127413238D01*
X188554289Y-127423886D01*
X188592889Y-127435619D01*
X188631113Y-127448453D01*
X188668912Y-127462403D01*
X188706240Y-127477486D01*
X188787192Y-127474029D01*
X188868850Y-127476362D01*
X188950925Y-127484356D01*
X189033127Y-127497884D01*
X189115166Y-127516816D01*
X189196750Y-127541024D01*
X189277591Y-127570379D01*
X189357398Y-127604753D01*
X189435881Y-127644017D01*
X189512749Y-127688042D01*
X189587713Y-127736700D01*
X189660483Y-127789863D01*
X189730767Y-127847401D01*
X189798277Y-127909187D01*
X189862721Y-127975091D01*
X189923810Y-128044985D01*
X189981254Y-128118741D01*
X190034762Y-128196229D01*
X190084045Y-128277321D01*
X190128811Y-128361889D01*
X190168772Y-128449804D01*
X190203636Y-128540938D01*
X190233114Y-128635161D01*
X190256915Y-128732346D01*
X190274750Y-128832364D01*
X190286328Y-128935085D01*
X190291358Y-129040382D01*
X190289552Y-129148126D01*
X190280618Y-129258188D01*
X190264267Y-129370440D01*
X190240208Y-129484754D01*
X190208151Y-129601000D01*
X190190078Y-129646749D01*
X190169813Y-129691461D01*
X190147442Y-129735087D01*
X190123048Y-129777577D01*
X190096715Y-129818883D01*
X190068529Y-129858955D01*
X190038572Y-129897745D01*
X190006929Y-129935203D01*
X189973685Y-129971281D01*
X189938924Y-130005930D01*
X189902730Y-130039101D01*
X189865186Y-130070744D01*
X189826378Y-130100812D01*
X189786389Y-130129254D01*
X189745304Y-130156022D01*
X189703208Y-130181067D01*
X189654371Y-130255262D01*
X189604537Y-130326657D01*
X189553454Y-130395327D01*
X189500866Y-130461345D01*
X189446519Y-130524785D01*
X189390159Y-130585722D01*
X189331532Y-130644230D01*
X189270383Y-130700383D01*
X189206460Y-130754255D01*
X189139506Y-130805920D01*
X189069268Y-130855452D01*
X188995493Y-130902925D01*
X188917925Y-130948414D01*
X188836310Y-130991992D01*
X188750395Y-131033734D01*
X188659925Y-131073713D01*
X188582109Y-131094360D01*
X188492209Y-131110854D01*
X188392198Y-131122720D01*
X188284047Y-131129487D01*
X188169729Y-131130681D01*
X188051213Y-131125828D01*
X187930474Y-131114457D01*
X187809482Y-131096095D01*
X187690209Y-131070267D01*
X187574627Y-131036502D01*
X187518836Y-131016494D01*
X187464708Y-130994325D01*
X187412488Y-130969936D01*
X187362423Y-130943266D01*
X187314760Y-130914256D01*
X187269745Y-130882849D01*
X187227624Y-130848984D01*
X187188645Y-130812603D01*
X187153053Y-130773645D01*
X187121095Y-130732054D01*
X187093017Y-130687768D01*
X187069066Y-130640729D01*
X186993936Y-130612424D01*
X186947783Y-130593510D01*
X186897110Y-130570717D01*
X186842821Y-130543517D01*
X186785820Y-130511379D01*
X186727011Y-130473777D01*
X186667297Y-130430180D01*
X186607583Y-130380059D01*
X186548772Y-130322887D01*
X186519988Y-130291491D01*
X186491769Y-130258134D01*
X186464227Y-130222750D01*
X186437477Y-130185272D01*
X186411630Y-130145634D01*
X186386800Y-130103771D01*
X186363099Y-130059616D01*
X186340641Y-130013103D01*
X186319539Y-129964166D01*
X186299906Y-129912739D01*
X186281855Y-129858756D01*
X186265498Y-129802150D01*
X186228529Y-129766698D01*
X186193785Y-129728232D01*
X186161296Y-129687061D01*
X186131092Y-129643498D01*
X186103203Y-129597852D01*
X186077659Y-129550433D01*
X186054489Y-129501553D01*
X186033724Y-129451521D01*
X186015394Y-129400649D01*
X185999528Y-129349247D01*
X185986157Y-129297625D01*
X185975310Y-129246095D01*
X185967017Y-129194966D01*
X185961309Y-129144548D01*
X185958215Y-129095154D01*
X185957765Y-129047093D01*
X185937818Y-129019142D01*
X185918940Y-128989873D01*
X185901085Y-128959422D01*
X185884208Y-128927925D01*
X185868264Y-128895518D01*
X185853208Y-128862339D01*
X185838994Y-128828524D01*
X185825577Y-128794208D01*
X185800953Y-128724623D01*
X185778973Y-128654675D01*
X185759276Y-128585455D01*
X185741499Y-128518055D01*
X185733037Y-128479155D01*
X185725147Y-128440038D01*
X185718081Y-128400731D01*
X185712093Y-128361256D01*
X185707434Y-128321640D01*
X185705683Y-128301786D01*
X185704359Y-128281905D01*
X185703494Y-128262002D01*
X185703244Y-128248692D01*
X186167183Y-128248692D01*
X186172520Y-128310386D01*
X186182088Y-128369287D01*
X186195489Y-128425455D01*
X186212325Y-128478950D01*
X186232197Y-128529832D01*
X186254707Y-128578161D01*
X186279455Y-128623998D01*
X186306045Y-128667401D01*
X186334076Y-128708432D01*
X186363150Y-128747150D01*
X186422836Y-128817888D01*
X186481913Y-128880096D01*
X186537194Y-128934253D01*
X186585490Y-128980840D01*
X186623614Y-129020337D01*
X186637864Y-129037577D01*
X186648376Y-129053225D01*
X186654751Y-129067340D01*
X186656589Y-129079983D01*
X186653494Y-129091214D01*
X186645065Y-129101093D01*
X186630906Y-129109679D01*
X186610616Y-129117034D01*
X186583798Y-129123216D01*
X186550053Y-129128286D01*
X186460189Y-129135330D01*
X186468409Y-129189351D01*
X186481589Y-129240777D01*
X186499241Y-129289663D01*
X186520884Y-129336061D01*
X186546030Y-129380024D01*
X186574196Y-129421605D01*
X186604898Y-129460857D01*
X186637651Y-129497834D01*
X186671969Y-129532588D01*
X186707369Y-129565172D01*
X186779474Y-129624042D01*
X186850090Y-129674869D01*
X186915339Y-129718077D01*
X187014230Y-129783331D01*
X187029541Y-129795545D01*
X187040118Y-129806225D01*
X187045476Y-129815425D01*
X187045131Y-129823196D01*
X187038598Y-129829593D01*
X187025393Y-129834668D01*
X187005031Y-129838474D01*
X186977027Y-129841064D01*
X186896156Y-129842808D01*
X186778903Y-129840326D01*
X186798771Y-129878452D01*
X186823994Y-129914403D01*
X186854048Y-129948282D01*
X186888412Y-129980191D01*
X186926563Y-130010234D01*
X186967979Y-130038514D01*
X187012137Y-130065132D01*
X187058515Y-130090193D01*
X187155840Y-130136051D01*
X187255777Y-130176910D01*
X187446766Y-130246922D01*
X187529459Y-130277720D01*
X187598047Y-130306809D01*
X187625745Y-130320969D01*
X187648350Y-130335011D01*
X187665338Y-130349037D01*
X187676188Y-130363150D01*
X187680377Y-130377452D01*
X187677382Y-130392047D01*
X187666682Y-130407037D01*
X187647754Y-130422525D01*
X187620075Y-130438614D01*
X187583124Y-130455406D01*
X187536377Y-130473005D01*
X187479312Y-130491513D01*
X187566688Y-130537265D01*
X187660633Y-130579498D01*
X187760455Y-130616760D01*
X187865457Y-130647599D01*
X187974943Y-130670562D01*
X188088219Y-130684196D01*
X188146061Y-130687061D01*
X188204590Y-130687048D01*
X188263718Y-130683978D01*
X188323359Y-130677667D01*
X188383425Y-130667934D01*
X188443831Y-130654598D01*
X188504489Y-130637477D01*
X188565312Y-130616390D01*
X188626213Y-130591155D01*
X188687105Y-130561590D01*
X188747902Y-130527514D01*
X188808516Y-130488745D01*
X188868860Y-130445101D01*
X188928848Y-130396402D01*
X188988393Y-130342465D01*
X189047408Y-130283109D01*
X189105805Y-130218152D01*
X189163498Y-130147413D01*
X189220401Y-130070710D01*
X189276425Y-129987862D01*
X189208127Y-129915432D01*
X189132847Y-129841451D01*
X189050337Y-129765853D01*
X188960349Y-129688571D01*
X188862635Y-129609540D01*
X188756945Y-129528693D01*
X188520645Y-129361286D01*
X188249460Y-129185820D01*
X187941403Y-129001767D01*
X187594486Y-128808595D01*
X187206719Y-128605776D01*
X187364774Y-128659917D01*
X187520801Y-128716356D01*
X187674734Y-128775168D01*
X187826508Y-128836425D01*
X187976055Y-128900200D01*
X188123309Y-128966567D01*
X188268205Y-129035597D01*
X188410675Y-129107363D01*
X188550653Y-129181940D01*
X188688074Y-129259399D01*
X188822870Y-129339815D01*
X188954975Y-129423258D01*
X189084323Y-129509804D01*
X189210847Y-129599524D01*
X189334482Y-129692491D01*
X189455161Y-129788779D01*
X189519969Y-129750880D01*
X189578138Y-129708531D01*
X189629798Y-129662057D01*
X189675080Y-129611787D01*
X189714116Y-129558048D01*
X189747038Y-129501165D01*
X189773977Y-129441467D01*
X189795064Y-129379281D01*
X189810431Y-129314932D01*
X189820209Y-129248750D01*
X189824529Y-129181059D01*
X189823524Y-129112189D01*
X189817324Y-129042464D01*
X189806061Y-128972214D01*
X189789867Y-128901764D01*
X189768872Y-128831441D01*
X189743208Y-128761574D01*
X189713007Y-128692488D01*
X189678400Y-128624510D01*
X189639518Y-128557969D01*
X189596494Y-128493190D01*
X189549457Y-128430502D01*
X189498541Y-128370230D01*
X189443875Y-128312702D01*
X189385593Y-128258245D01*
X189323824Y-128207186D01*
X189258700Y-128159852D01*
X189190354Y-128116570D01*
X189118916Y-128077667D01*
X189044518Y-128043470D01*
X188967290Y-128014307D01*
X188887366Y-127990504D01*
X188891398Y-128034194D01*
X188892757Y-128071016D01*
X188891531Y-128101332D01*
X188887810Y-128125506D01*
X188881682Y-128143901D01*
X188873235Y-128156879D01*
X188862560Y-128164804D01*
X188849744Y-128168039D01*
X188834877Y-128166947D01*
X188818048Y-128161892D01*
X188799344Y-128153236D01*
X188778856Y-128141342D01*
X188732881Y-128109296D01*
X188680834Y-128068657D01*
X188561364Y-127973222D01*
X188495364Y-127924237D01*
X188426135Y-127878279D01*
X188390531Y-127857344D01*
X188354387Y-127838255D01*
X188317791Y-127821375D01*
X188280833Y-127807068D01*
X188243600Y-127795697D01*
X188206182Y-127787624D01*
X188168668Y-127783214D01*
X188131146Y-127782829D01*
X188121148Y-127783454D01*
X188111154Y-127784400D01*
X188101168Y-127785675D01*
X188091190Y-127787282D01*
X188081226Y-127789230D01*
X188071276Y-127791523D01*
X188061345Y-127794167D01*
X188051435Y-127797169D01*
X188086022Y-127881665D01*
X188096238Y-127914812D01*
X188101970Y-127942363D01*
X188103397Y-127964674D01*
X188100694Y-127982099D01*
X188094040Y-127994993D01*
X188083610Y-128003709D01*
X188069582Y-128008603D01*
X188052132Y-128010028D01*
X188031438Y-128008341D01*
X188007676Y-128003894D01*
X187951658Y-127988140D01*
X187885493Y-127965604D01*
X187728384Y-127911530D01*
X187640270Y-127885662D01*
X187547671Y-127864357D01*
X187500131Y-127856300D01*
X187452001Y-127850448D01*
X187403458Y-127847154D01*
X187354677Y-127846773D01*
X187305837Y-127849659D01*
X187257114Y-127856167D01*
X187208685Y-127866651D01*
X187160727Y-127881466D01*
X187223258Y-127953110D01*
X187260898Y-128004471D01*
X187270938Y-128023469D01*
X187275420Y-128038505D01*
X187274566Y-128049947D01*
X187268598Y-128058165D01*
X187257736Y-128063530D01*
X187242203Y-128066409D01*
X187198009Y-128066189D01*
X187063317Y-128052184D01*
X186976365Y-128044309D01*
X186878705Y-128039791D01*
X186772111Y-128041586D01*
X186658356Y-128052650D01*
X186599347Y-128062581D01*
X186539213Y-128075938D01*
X186478175Y-128093089D01*
X186416454Y-128114404D01*
X186354273Y-128140252D01*
X186291853Y-128171003D01*
X186229416Y-128207027D01*
X186167183Y-128248692D01*
X185703244Y-128248692D01*
X185703119Y-128242078D01*
X185703267Y-128222138D01*
X185703969Y-128202183D01*
X185705092Y-128181879D01*
X185707283Y-128161690D01*
X185710523Y-128141661D01*
X185714792Y-128121840D01*
X185720070Y-128102275D01*
X185726339Y-128083012D01*
X185733577Y-128064099D01*
X185741767Y-128045582D01*
X185750887Y-128027509D01*
X185760920Y-128009927D01*
X185771844Y-127992883D01*
X185783642Y-127976424D01*
X185796292Y-127960597D01*
X185809776Y-127945450D01*
X185824074Y-127931029D01*
X185839167Y-127917381D01*
X185882393Y-127883761D01*
X185926848Y-127851854D01*
X185972461Y-127821667D01*
X186019160Y-127793205D01*
X186066875Y-127766476D01*
X186115533Y-127741485D01*
X186165064Y-127718239D01*
X186215396Y-127696745D01*
X186266458Y-127677008D01*
X186318179Y-127659034D01*
X186370487Y-127642831D01*
X186423311Y-127628405D01*
X186476580Y-127615761D01*
X186530223Y-127604907D01*
X186584167Y-127595847D01*
X186638343Y-127588590D01*
X186659976Y-127574746D01*
X186682055Y-127562139D01*
X186704562Y-127550632D01*
X186727477Y-127540087D01*
X186750781Y-127530365D01*
X186774453Y-127521329D01*
X186822825Y-127504759D01*
X186923132Y-127473769D01*
X186974753Y-127457138D01*
X187000862Y-127448055D01*
X187027144Y-127438276D01*
X187065704Y-127426824D01*
X187106040Y-127416543D01*
X187147904Y-127407459D01*
X187191051Y-127399595D01*
X187235235Y-127392973D01*
X187280210Y-127387618D01*
X187325728Y-127383553D01*
X187371546Y-127380801D01*
X187417415Y-127379386D01*
X187463090Y-127379331D01*
X187508325Y-127380660D01*
X187552874Y-127383397D01*
X187596491Y-127387564D01*
X187638929Y-127393186D01*
X187679942Y-127400285D01*
X187719285Y-127408885D01*
X187761608Y-127399139D01*
X187804845Y-127390492D01*
X187848915Y-127382971D01*
X187893735Y-127376603D01*
X187939224Y-127371417D01*
X187985300Y-127367438D01*
X188031882Y-127364696D01*
X188078888Y-127363216D01*
X188118325Y-127362968D01*
X188157952Y-127363632D01*
G36*
X188157952Y-127363632D02*
G01*
X188197722Y-127365223D01*
X188237587Y-127367758D01*
X188277502Y-127371252D01*
X188317417Y-127375721D01*
X188357287Y-127381180D01*
X188397063Y-127387646D01*
X188436698Y-127395133D01*
X188476146Y-127403659D01*
X188515359Y-127413238D01*
X188554289Y-127423886D01*
X188592889Y-127435619D01*
X188631113Y-127448453D01*
X188668912Y-127462403D01*
X188706240Y-127477486D01*
X188787192Y-127474029D01*
X188868850Y-127476362D01*
X188950925Y-127484356D01*
X189033127Y-127497884D01*
X189115166Y-127516816D01*
X189196750Y-127541024D01*
X189277591Y-127570379D01*
X189357398Y-127604753D01*
X189435881Y-127644017D01*
X189512749Y-127688042D01*
X189587713Y-127736700D01*
X189660483Y-127789863D01*
X189730767Y-127847401D01*
X189798277Y-127909187D01*
X189862721Y-127975091D01*
X189923810Y-128044985D01*
X189981254Y-128118741D01*
X190034762Y-128196229D01*
X190084045Y-128277321D01*
X190128811Y-128361889D01*
X190168772Y-128449804D01*
X190203636Y-128540938D01*
X190233114Y-128635161D01*
X190256915Y-128732346D01*
X190274750Y-128832364D01*
X190286328Y-128935085D01*
X190291358Y-129040382D01*
X190289552Y-129148126D01*
X190280618Y-129258188D01*
X190264267Y-129370440D01*
X190240208Y-129484754D01*
X190208151Y-129601000D01*
X190190078Y-129646749D01*
X190169813Y-129691461D01*
X190147442Y-129735087D01*
X190123048Y-129777577D01*
X190096715Y-129818883D01*
X190068529Y-129858955D01*
X190038572Y-129897745D01*
X190006929Y-129935203D01*
X189973685Y-129971281D01*
X189938924Y-130005930D01*
X189902730Y-130039101D01*
X189865186Y-130070744D01*
X189826378Y-130100812D01*
X189786389Y-130129254D01*
X189745304Y-130156022D01*
X189703208Y-130181067D01*
X189654371Y-130255262D01*
X189604537Y-130326657D01*
X189553454Y-130395327D01*
X189500866Y-130461345D01*
X189446519Y-130524785D01*
X189390159Y-130585722D01*
X189331532Y-130644230D01*
X189270383Y-130700383D01*
X189206460Y-130754255D01*
X189139506Y-130805920D01*
X189069268Y-130855452D01*
X188995493Y-130902925D01*
X188917925Y-130948414D01*
X188836310Y-130991992D01*
X188750395Y-131033734D01*
X188659925Y-131073713D01*
X188582109Y-131094360D01*
X188492209Y-131110854D01*
X188392198Y-131122720D01*
X188284047Y-131129487D01*
X188169729Y-131130681D01*
X188051213Y-131125828D01*
X187930474Y-131114457D01*
X187809482Y-131096095D01*
X187690209Y-131070267D01*
X187574627Y-131036502D01*
X187518836Y-131016494D01*
X187464708Y-130994325D01*
X187412488Y-130969936D01*
X187362423Y-130943266D01*
X187314760Y-130914256D01*
X187269745Y-130882849D01*
X187227624Y-130848984D01*
X187188645Y-130812603D01*
X187153053Y-130773645D01*
X187121095Y-130732054D01*
X187093017Y-130687768D01*
X187069066Y-130640729D01*
X186993936Y-130612424D01*
X186947783Y-130593510D01*
X186897110Y-130570717D01*
X186842821Y-130543517D01*
X186785820Y-130511379D01*
X186727011Y-130473777D01*
X186667297Y-130430180D01*
X186607583Y-130380059D01*
X186548772Y-130322887D01*
X186519988Y-130291491D01*
X186491769Y-130258134D01*
X186464227Y-130222750D01*
X186437477Y-130185272D01*
X186411630Y-130145634D01*
X186386800Y-130103771D01*
X186363099Y-130059616D01*
X186340641Y-130013103D01*
X186319539Y-129964166D01*
X186299906Y-129912739D01*
X186281855Y-129858756D01*
X186265498Y-129802150D01*
X186228529Y-129766698D01*
X186193785Y-129728232D01*
X186161296Y-129687061D01*
X186131092Y-129643498D01*
X186103203Y-129597852D01*
X186077659Y-129550433D01*
X186054489Y-129501553D01*
X186033724Y-129451521D01*
X186015394Y-129400649D01*
X185999528Y-129349247D01*
X185986157Y-129297625D01*
X185975310Y-129246095D01*
X185967017Y-129194966D01*
X185961309Y-129144548D01*
X185958215Y-129095154D01*
X185957765Y-129047093D01*
X185937818Y-129019142D01*
X185918940Y-128989873D01*
X185901085Y-128959422D01*
X185884208Y-128927925D01*
X185868264Y-128895518D01*
X185853208Y-128862339D01*
X185838994Y-128828524D01*
X185825577Y-128794208D01*
X185800953Y-128724623D01*
X185778973Y-128654675D01*
X185759276Y-128585455D01*
X185741499Y-128518055D01*
X185733037Y-128479155D01*
X185725147Y-128440038D01*
X185718081Y-128400731D01*
X185712093Y-128361256D01*
X185707434Y-128321640D01*
X185705683Y-128301786D01*
X185704359Y-128281905D01*
X185703494Y-128262002D01*
X185703244Y-128248692D01*
X186167183Y-128248692D01*
X186172520Y-128310386D01*
X186182088Y-128369287D01*
X186195489Y-128425455D01*
X186212325Y-128478950D01*
X186232197Y-128529832D01*
X186254707Y-128578161D01*
X186279455Y-128623998D01*
X186306045Y-128667401D01*
X186334076Y-128708432D01*
X186363150Y-128747150D01*
X186422836Y-128817888D01*
X186481913Y-128880096D01*
X186537194Y-128934253D01*
X186585490Y-128980840D01*
X186623614Y-129020337D01*
X186637864Y-129037577D01*
X186648376Y-129053225D01*
X186654751Y-129067340D01*
X186656589Y-129079983D01*
X186653494Y-129091214D01*
X186645065Y-129101093D01*
X186630906Y-129109679D01*
X186610616Y-129117034D01*
X186583798Y-129123216D01*
X186550053Y-129128286D01*
X186460189Y-129135330D01*
X186468409Y-129189351D01*
X186481589Y-129240777D01*
X186499241Y-129289663D01*
X186520884Y-129336061D01*
X186546030Y-129380024D01*
X186574196Y-129421605D01*
X186604898Y-129460857D01*
X186637651Y-129497834D01*
X186671969Y-129532588D01*
X186707369Y-129565172D01*
X186779474Y-129624042D01*
X186850090Y-129674869D01*
X186915339Y-129718077D01*
X187014230Y-129783331D01*
X187029541Y-129795545D01*
X187040118Y-129806225D01*
X187045476Y-129815425D01*
X187045131Y-129823196D01*
X187038598Y-129829593D01*
X187025393Y-129834668D01*
X187005031Y-129838474D01*
X186977027Y-129841064D01*
X186896156Y-129842808D01*
X186778903Y-129840326D01*
X186798771Y-129878452D01*
X186823994Y-129914403D01*
X186854048Y-129948282D01*
X186888412Y-129980191D01*
X186926563Y-130010234D01*
X186967979Y-130038514D01*
X187012137Y-130065132D01*
X187058515Y-130090193D01*
X187155840Y-130136051D01*
X187255777Y-130176910D01*
X187446766Y-130246922D01*
X187529459Y-130277720D01*
X187598047Y-130306809D01*
X187625745Y-130320969D01*
X187648350Y-130335011D01*
X187665338Y-130349037D01*
X187676188Y-130363150D01*
X187680377Y-130377452D01*
X187677382Y-130392047D01*
X187666682Y-130407037D01*
X187647754Y-130422525D01*
X187620075Y-130438614D01*
X187583124Y-130455406D01*
X187536377Y-130473005D01*
X187479312Y-130491513D01*
X187566688Y-130537265D01*
X187660633Y-130579498D01*
X187760455Y-130616760D01*
X187865457Y-130647599D01*
X187974943Y-130670562D01*
X188088219Y-130684196D01*
X188146061Y-130687061D01*
X188204590Y-130687048D01*
X188263718Y-130683978D01*
X188323359Y-130677667D01*
X188383425Y-130667934D01*
X188443831Y-130654598D01*
X188504489Y-130637477D01*
X188565312Y-130616390D01*
X188626213Y-130591155D01*
X188687105Y-130561590D01*
X188747902Y-130527514D01*
X188808516Y-130488745D01*
X188868860Y-130445101D01*
X188928848Y-130396402D01*
X188988393Y-130342465D01*
X189047408Y-130283109D01*
X189105805Y-130218152D01*
X189163498Y-130147413D01*
X189220401Y-130070710D01*
X189276425Y-129987862D01*
X189208127Y-129915432D01*
X189132847Y-129841451D01*
X189050337Y-129765853D01*
X188960349Y-129688571D01*
X188862635Y-129609540D01*
X188756945Y-129528693D01*
X188520645Y-129361286D01*
X188249460Y-129185820D01*
X187941403Y-129001767D01*
X187594486Y-128808595D01*
X187206719Y-128605776D01*
X187364774Y-128659917D01*
X187520801Y-128716356D01*
X187674734Y-128775168D01*
X187826508Y-128836425D01*
X187976055Y-128900200D01*
X188123309Y-128966567D01*
X188268205Y-129035597D01*
X188410675Y-129107363D01*
X188550653Y-129181940D01*
X188688074Y-129259399D01*
X188822870Y-129339815D01*
X188954975Y-129423258D01*
X189084323Y-129509804D01*
X189210847Y-129599524D01*
X189334482Y-129692491D01*
X189455161Y-129788779D01*
X189519969Y-129750880D01*
X189578138Y-129708531D01*
X189629798Y-129662057D01*
X189675080Y-129611787D01*
X189714116Y-129558048D01*
X189747038Y-129501165D01*
X189773977Y-129441467D01*
X189795064Y-129379281D01*
X189810431Y-129314932D01*
X189820209Y-129248750D01*
X189824529Y-129181059D01*
X189823524Y-129112189D01*
X189817324Y-129042464D01*
X189806061Y-128972214D01*
X189789867Y-128901764D01*
X189768872Y-128831441D01*
X189743208Y-128761574D01*
X189713007Y-128692488D01*
X189678400Y-128624510D01*
X189639518Y-128557969D01*
X189596494Y-128493190D01*
X189549457Y-128430502D01*
X189498541Y-128370230D01*
X189443875Y-128312702D01*
X189385593Y-128258245D01*
X189323824Y-128207186D01*
X189258700Y-128159852D01*
X189190354Y-128116570D01*
X189118916Y-128077667D01*
X189044518Y-128043470D01*
X188967290Y-128014307D01*
X188887366Y-127990504D01*
X188891398Y-128034194D01*
X188892757Y-128071016D01*
X188891531Y-128101332D01*
X188887810Y-128125506D01*
X188881682Y-128143901D01*
X188873235Y-128156879D01*
X188862560Y-128164804D01*
X188849744Y-128168039D01*
X188834877Y-128166947D01*
X188818048Y-128161892D01*
X188799344Y-128153236D01*
X188778856Y-128141342D01*
X188732881Y-128109296D01*
X188680834Y-128068657D01*
X188561364Y-127973222D01*
X188495364Y-127924237D01*
X188426135Y-127878279D01*
X188390531Y-127857344D01*
X188354387Y-127838255D01*
X188317791Y-127821375D01*
X188280833Y-127807068D01*
X188243600Y-127795697D01*
X188206182Y-127787624D01*
X188168668Y-127783214D01*
X188131146Y-127782829D01*
X188121148Y-127783454D01*
X188111154Y-127784400D01*
X188101168Y-127785675D01*
X188091190Y-127787282D01*
X188081226Y-127789230D01*
X188071276Y-127791523D01*
X188061345Y-127794167D01*
X188051435Y-127797169D01*
X188086022Y-127881665D01*
X188096238Y-127914812D01*
X188101970Y-127942363D01*
X188103397Y-127964674D01*
X188100694Y-127982099D01*
X188094040Y-127994993D01*
X188083610Y-128003709D01*
X188069582Y-128008603D01*
X188052132Y-128010028D01*
X188031438Y-128008341D01*
X188007676Y-128003894D01*
X187951658Y-127988140D01*
X187885493Y-127965604D01*
X187728384Y-127911530D01*
X187640270Y-127885662D01*
X187547671Y-127864357D01*
X187500131Y-127856300D01*
X187452001Y-127850448D01*
X187403458Y-127847154D01*
X187354677Y-127846773D01*
X187305837Y-127849659D01*
X187257114Y-127856167D01*
X187208685Y-127866651D01*
X187160727Y-127881466D01*
X187223258Y-127953110D01*
X187260898Y-128004471D01*
X187270938Y-128023469D01*
X187275420Y-128038505D01*
X187274566Y-128049947D01*
X187268598Y-128058165D01*
X187257736Y-128063530D01*
X187242203Y-128066409D01*
X187198009Y-128066189D01*
X187063317Y-128052184D01*
X186976365Y-128044309D01*
X186878705Y-128039791D01*
X186772111Y-128041586D01*
X186658356Y-128052650D01*
X186599347Y-128062581D01*
X186539213Y-128075938D01*
X186478175Y-128093089D01*
X186416454Y-128114404D01*
X186354273Y-128140252D01*
X186291853Y-128171003D01*
X186229416Y-128207027D01*
X186167183Y-128248692D01*
X185703244Y-128248692D01*
X185703119Y-128242078D01*
X185703267Y-128222138D01*
X185703969Y-128202183D01*
X185705092Y-128181879D01*
X185707283Y-128161690D01*
X185710523Y-128141661D01*
X185714792Y-128121840D01*
X185720070Y-128102275D01*
X185726339Y-128083012D01*
X185733577Y-128064099D01*
X185741767Y-128045582D01*
X185750887Y-128027509D01*
X185760920Y-128009927D01*
X185771844Y-127992883D01*
X185783642Y-127976424D01*
X185796292Y-127960597D01*
X185809776Y-127945450D01*
X185824074Y-127931029D01*
X185839167Y-127917381D01*
X185882393Y-127883761D01*
X185926848Y-127851854D01*
X185972461Y-127821667D01*
X186019160Y-127793205D01*
X186066875Y-127766476D01*
X186115533Y-127741485D01*
X186165064Y-127718239D01*
X186215396Y-127696745D01*
X186266458Y-127677008D01*
X186318179Y-127659034D01*
X186370487Y-127642831D01*
X186423311Y-127628405D01*
X186476580Y-127615761D01*
X186530223Y-127604907D01*
X186584167Y-127595847D01*
X186638343Y-127588590D01*
X186659976Y-127574746D01*
X186682055Y-127562139D01*
X186704562Y-127550632D01*
X186727477Y-127540087D01*
X186750781Y-127530365D01*
X186774453Y-127521329D01*
X186822825Y-127504759D01*
X186923132Y-127473769D01*
X186974753Y-127457138D01*
X187000862Y-127448055D01*
X187027144Y-127438276D01*
X187065704Y-127426824D01*
X187106040Y-127416543D01*
X187147904Y-127407459D01*
X187191051Y-127399595D01*
X187235235Y-127392973D01*
X187280210Y-127387618D01*
X187325728Y-127383553D01*
X187371546Y-127380801D01*
X187417415Y-127379386D01*
X187463090Y-127379331D01*
X187508325Y-127380660D01*
X187552874Y-127383397D01*
X187596491Y-127387564D01*
X187638929Y-127393186D01*
X187679942Y-127400285D01*
X187719285Y-127408885D01*
X187761608Y-127399139D01*
X187804845Y-127390492D01*
X187848915Y-127382971D01*
X187893735Y-127376603D01*
X187939224Y-127371417D01*
X187985300Y-127367438D01*
X188031882Y-127364696D01*
X188078888Y-127363216D01*
X188118325Y-127362968D01*
X188157952Y-127363632D01*
G37*
X195011113Y-127363216D02*
X195058119Y-127364696D01*
X195104701Y-127367438D01*
X195150778Y-127371417D01*
X195196267Y-127376603D01*
X195241087Y-127382971D01*
X195285156Y-127390492D01*
X195328393Y-127399139D01*
X195370716Y-127408885D01*
X195410059Y-127400285D01*
X195451072Y-127393186D01*
X195493510Y-127387564D01*
X195537127Y-127383397D01*
X195581676Y-127380660D01*
X195626911Y-127379331D01*
X195672586Y-127379386D01*
X195718456Y-127380801D01*
X195764273Y-127383553D01*
X195809792Y-127387618D01*
X195854766Y-127392973D01*
X195898950Y-127399595D01*
X195942097Y-127407459D01*
X195983962Y-127416543D01*
X196024297Y-127426824D01*
X196062858Y-127438276D01*
X196089139Y-127448055D01*
X196115248Y-127457138D01*
X196166869Y-127473769D01*
X196267176Y-127504759D01*
X196315548Y-127521329D01*
X196339220Y-127530365D01*
X196362524Y-127540087D01*
X196385439Y-127550632D01*
X196407946Y-127562139D01*
X196430026Y-127574746D01*
X196451658Y-127588590D01*
X196505834Y-127595847D01*
X196559779Y-127604907D01*
X196613421Y-127615761D01*
X196666690Y-127628405D01*
X196719514Y-127642831D01*
X196771822Y-127659034D01*
X196823543Y-127677008D01*
X196874605Y-127696745D01*
X196924937Y-127718239D01*
X196974468Y-127741485D01*
X197023126Y-127766476D01*
X197070841Y-127793205D01*
X197117540Y-127821667D01*
X197163153Y-127851854D01*
X197207608Y-127883761D01*
X197250834Y-127917381D01*
X197265926Y-127931029D01*
X197280225Y-127945450D01*
X197293709Y-127960597D01*
X197306359Y-127976424D01*
X197318157Y-127992883D01*
X197329081Y-128009927D01*
X197339114Y-128027509D01*
X197348234Y-128045582D01*
X197356424Y-128064099D01*
X197363662Y-128083012D01*
X197369931Y-128102275D01*
X197375209Y-128121840D01*
X197379478Y-128141661D01*
X197382718Y-128161690D01*
X197384909Y-128181879D01*
X197386032Y-128202183D01*
X197386734Y-128222138D01*
X197386882Y-128242078D01*
X197386507Y-128262002D01*
X197385642Y-128281905D01*
X197384318Y-128301786D01*
X197382567Y-128321640D01*
X197377908Y-128361256D01*
X197371920Y-128400731D01*
X197364854Y-128440038D01*
X197356964Y-128479155D01*
X197348502Y-128518055D01*
X197330725Y-128585455D01*
X197311028Y-128654675D01*
X197289048Y-128724623D01*
X197264424Y-128794208D01*
X197251007Y-128828524D01*
X197236793Y-128862339D01*
X197221737Y-128895518D01*
X197205793Y-128927925D01*
X197188916Y-128959422D01*
X197171062Y-128989873D01*
X197152183Y-129019142D01*
X197132237Y-129047093D01*
X197131787Y-129095154D01*
X197128692Y-129144548D01*
X197122984Y-129194966D01*
X197114691Y-129246095D01*
X197103845Y-129297625D01*
X197090473Y-129349247D01*
X197074607Y-129400649D01*
X197056277Y-129451521D01*
X197035512Y-129501553D01*
X197012342Y-129550433D01*
X196986798Y-129597852D01*
X196958909Y-129643498D01*
X196928705Y-129687061D01*
X196896216Y-129728232D01*
X196861472Y-129766698D01*
X196824503Y-129802150D01*
X196808146Y-129858756D01*
X196790095Y-129912739D01*
X196770461Y-129964166D01*
X196749359Y-130013103D01*
X196726902Y-130059616D01*
X196703201Y-130103771D01*
X196678371Y-130145634D01*
X196652524Y-130185272D01*
X196625774Y-130222750D01*
X196598232Y-130258134D01*
X196570013Y-130291491D01*
X196541229Y-130322887D01*
X196482418Y-130380059D01*
X196422704Y-130430180D01*
X196362990Y-130473777D01*
X196304181Y-130511379D01*
X196247180Y-130543517D01*
X196192891Y-130570717D01*
X196142219Y-130593510D01*
X196096066Y-130612424D01*
X196020935Y-130640729D01*
X195996984Y-130687768D01*
X195968907Y-130732054D01*
X195936948Y-130773645D01*
X195901356Y-130812602D01*
X195862377Y-130848984D01*
X195820256Y-130882849D01*
X195775241Y-130914256D01*
X195727578Y-130943265D01*
X195677513Y-130969935D01*
X195625293Y-130994325D01*
X195571165Y-131016494D01*
X195515374Y-131036501D01*
X195399792Y-131070267D01*
X195280519Y-131096095D01*
X195159527Y-131114457D01*
X195038788Y-131125828D01*
X194920273Y-131130681D01*
X194805954Y-131129487D01*
X194697803Y-131122720D01*
X194597792Y-131110854D01*
X194507892Y-131094360D01*
X194430076Y-131073713D01*
X194339606Y-131033734D01*
X194253691Y-130991992D01*
X194172076Y-130948414D01*
X194094508Y-130902925D01*
X194020733Y-130855452D01*
X193950495Y-130805920D01*
X193883541Y-130754255D01*
X193819617Y-130700383D01*
X193758469Y-130644230D01*
X193699842Y-130585722D01*
X193643482Y-130524785D01*
X193589135Y-130461345D01*
X193536547Y-130395327D01*
X193485463Y-130326657D01*
X193435630Y-130255262D01*
X193386793Y-130181067D01*
X193344696Y-130156022D01*
X193303611Y-130129254D01*
X193263623Y-130100812D01*
X193224815Y-130070744D01*
X193187271Y-130039101D01*
X193151077Y-130005930D01*
X193116315Y-129971281D01*
X193083071Y-129935203D01*
X193051429Y-129897745D01*
X193021472Y-129858955D01*
X192993286Y-129818883D01*
X192966953Y-129777577D01*
X192942559Y-129735087D01*
X192920188Y-129691461D01*
X192899923Y-129646749D01*
X192881850Y-129601000D01*
X192849793Y-129484754D01*
X192825734Y-129370440D01*
X192809383Y-129258188D01*
X192803122Y-129181059D01*
X193265471Y-129181059D01*
X193269791Y-129248750D01*
X193279569Y-129314932D01*
X193294936Y-129379281D01*
X193316023Y-129441467D01*
X193342962Y-129501165D01*
X193375884Y-129558048D01*
X193414920Y-129611787D01*
X193460203Y-129662057D01*
X193511862Y-129708531D01*
X193570031Y-129750880D01*
X193634840Y-129788779D01*
X193755518Y-129692491D01*
X193879153Y-129599524D01*
X194005677Y-129509804D01*
X194135025Y-129423258D01*
X194267130Y-129339815D01*
X194401926Y-129259399D01*
X194539346Y-129181940D01*
X194679325Y-129107363D01*
X194821795Y-129035597D01*
X194966690Y-128966567D01*
X195113945Y-128900200D01*
X195263492Y-128836425D01*
X195415266Y-128775168D01*
X195569199Y-128716356D01*
X195725226Y-128659917D01*
X195883281Y-128605776D01*
X195495514Y-128808595D01*
X195148597Y-129001767D01*
X194840540Y-129185820D01*
X194569356Y-129361286D01*
X194333055Y-129528693D01*
X194227365Y-129609540D01*
X194129651Y-129688571D01*
X194039663Y-129765853D01*
X193957153Y-129841451D01*
X193881873Y-129915432D01*
X193813575Y-129987862D01*
X193869599Y-130070710D01*
X193926502Y-130147413D01*
X193984195Y-130218152D01*
X194042592Y-130283109D01*
X194101607Y-130342465D01*
X194161152Y-130396402D01*
X194221140Y-130445101D01*
X194281485Y-130488745D01*
X194342099Y-130527514D01*
X194402895Y-130561590D01*
X194463788Y-130591155D01*
X194524689Y-130616390D01*
X194585512Y-130637477D01*
X194646169Y-130654598D01*
X194706575Y-130667934D01*
X194766642Y-130677667D01*
X194826283Y-130683978D01*
X194885411Y-130687048D01*
X194943939Y-130687061D01*
X195001781Y-130684196D01*
X195115057Y-130670562D01*
X195224544Y-130647599D01*
X195329545Y-130616760D01*
X195429367Y-130579498D01*
X195523312Y-130537265D01*
X195610687Y-130491513D01*
X195553623Y-130473005D01*
X195506876Y-130455406D01*
X195469924Y-130438614D01*
X195442246Y-130422525D01*
X195423317Y-130407037D01*
X195412617Y-130392047D01*
X195409623Y-130377452D01*
X195413812Y-130363150D01*
X195424662Y-130349037D01*
X195441650Y-130335011D01*
X195464254Y-130320969D01*
X195491952Y-130306809D01*
X195560540Y-130277720D01*
X195643234Y-130246922D01*
X195834223Y-130176910D01*
X195934159Y-130136051D01*
X196031485Y-130090193D01*
X196077863Y-130065132D01*
X196122021Y-130038514D01*
X196163437Y-130010234D01*
X196201588Y-129980191D01*
X196235952Y-129948282D01*
X196266006Y-129914403D01*
X196291229Y-129878452D01*
X196311097Y-129840326D01*
X196193844Y-129842808D01*
X196112973Y-129841064D01*
X196084969Y-129838474D01*
X196064607Y-129834668D01*
X196051402Y-129829593D01*
X196044869Y-129823196D01*
X196044524Y-129815425D01*
X196049882Y-129806225D01*
X196060459Y-129795545D01*
X196075770Y-129783331D01*
X196174661Y-129718077D01*
X196239910Y-129674869D01*
X196310526Y-129624042D01*
X196382631Y-129565172D01*
X196418031Y-129532588D01*
X196452350Y-129497834D01*
X196485102Y-129460857D01*
X196515804Y-129421605D01*
X196543970Y-129380024D01*
X196569117Y-129336061D01*
X196590759Y-129289663D01*
X196608411Y-129240777D01*
X196621591Y-129189351D01*
X196629811Y-129135330D01*
X196539947Y-129128286D01*
X196506202Y-129123216D01*
X196479384Y-129117034D01*
X196459094Y-129109679D01*
X196444934Y-129101093D01*
X196436506Y-129091214D01*
X196433410Y-129079983D01*
X196435249Y-129067340D01*
X196441624Y-129053225D01*
X196452136Y-129037577D01*
X196466386Y-129020337D01*
X196504510Y-128980840D01*
X196552806Y-128934253D01*
X196608087Y-128880096D01*
X196667164Y-128817888D01*
X196726850Y-128747150D01*
X196755924Y-128708432D01*
X196783956Y-128667401D01*
X196810545Y-128623998D01*
X196835293Y-128578161D01*
X196857803Y-128529832D01*
X196877675Y-128478950D01*
X196894511Y-128425455D01*
X196907912Y-128369287D01*
X196917481Y-128310386D01*
X196922817Y-128248692D01*
X196860584Y-128207027D01*
X196798147Y-128171003D01*
X196735727Y-128140252D01*
X196673546Y-128114404D01*
X196611826Y-128093089D01*
X196550788Y-128075938D01*
X196490653Y-128062581D01*
X196431644Y-128052650D01*
X196317889Y-128041586D01*
X196211295Y-128039791D01*
X196113636Y-128044309D01*
X196026683Y-128052184D01*
X195891991Y-128066189D01*
X195847797Y-128066409D01*
X195832264Y-128063530D01*
X195821403Y-128058165D01*
X195815434Y-128049947D01*
X195814580Y-128038505D01*
X195819062Y-128023469D01*
X195829102Y-128004471D01*
X195866742Y-127953110D01*
X195929273Y-127881466D01*
X195881315Y-127866651D01*
X195832886Y-127856167D01*
X195784163Y-127849659D01*
X195735323Y-127846773D01*
X195686542Y-127847154D01*
X195637999Y-127850448D01*
X195589869Y-127856300D01*
X195542329Y-127864357D01*
X195449730Y-127885662D01*
X195361617Y-127911530D01*
X195204507Y-127965604D01*
X195138342Y-127988140D01*
X195082324Y-128003894D01*
X195058562Y-128008341D01*
X195037868Y-128010028D01*
X195020419Y-128008603D01*
X195006390Y-128003709D01*
X194995960Y-127994993D01*
X194989306Y-127982099D01*
X194986603Y-127964674D01*
X194988030Y-127942363D01*
X194993762Y-127914812D01*
X195003977Y-127881665D01*
X195038565Y-127797169D01*
X195028655Y-127794167D01*
X195018724Y-127791523D01*
X195008774Y-127789230D01*
X194998810Y-127787282D01*
X194988832Y-127785675D01*
X194978846Y-127784400D01*
X194968852Y-127783454D01*
X194958854Y-127782829D01*
X194921332Y-127783214D01*
X194883818Y-127787624D01*
X194846400Y-127795697D01*
X194809167Y-127807068D01*
X194772209Y-127821375D01*
X194735613Y-127838255D01*
X194699469Y-127857344D01*
X194663866Y-127878279D01*
X194594636Y-127924237D01*
X194528636Y-127973222D01*
X194409167Y-128068657D01*
X194357119Y-128109296D01*
X194311144Y-128141342D01*
X194290656Y-128153236D01*
X194271953Y-128161892D01*
X194255123Y-128166947D01*
X194240256Y-128168039D01*
X194227440Y-128164804D01*
X194216765Y-128156879D01*
X194208319Y-128143901D01*
X194202190Y-128125506D01*
X194198469Y-128101332D01*
X194197243Y-128071016D01*
X194198602Y-128034194D01*
X194202634Y-127990504D01*
X194122709Y-128014307D01*
X194045482Y-128043470D01*
X193971084Y-128077667D01*
X193899646Y-128116570D01*
X193831299Y-128159852D01*
X193766176Y-128207186D01*
X193704407Y-128258245D01*
X193646124Y-128312702D01*
X193591459Y-128370230D01*
X193540542Y-128430502D01*
X193493506Y-128493190D01*
X193450481Y-128557969D01*
X193411600Y-128624510D01*
X193376993Y-128692488D01*
X193346792Y-128761574D01*
X193321128Y-128831441D01*
X193300133Y-128901764D01*
X193283939Y-128972214D01*
X193272676Y-129042464D01*
X193266476Y-129112189D01*
X193265471Y-129181059D01*
X192803122Y-129181059D01*
X192800449Y-129148126D01*
X192798642Y-129040382D01*
X192803673Y-128935085D01*
X192815251Y-128832364D01*
X192833086Y-128732346D01*
X192856887Y-128635161D01*
X192886365Y-128540938D01*
X192921229Y-128449804D01*
X192961189Y-128361889D01*
X193005956Y-128277321D01*
X193055238Y-128196229D01*
X193108747Y-128118741D01*
X193166190Y-128044985D01*
X193227280Y-127975091D01*
X193291724Y-127909187D01*
X193359234Y-127847402D01*
X193429518Y-127789863D01*
X193502288Y-127736700D01*
X193577252Y-127688042D01*
X193654120Y-127644017D01*
X193732603Y-127604753D01*
X193812410Y-127570379D01*
X193893251Y-127541024D01*
X193974835Y-127516816D01*
X194056874Y-127497884D01*
X194139076Y-127484356D01*
X194221151Y-127476362D01*
X194302810Y-127474029D01*
X194383761Y-127477486D01*
X194421089Y-127462403D01*
X194458888Y-127448453D01*
X194497112Y-127435619D01*
X194535712Y-127423886D01*
X194574642Y-127413238D01*
X194613855Y-127403659D01*
X194653302Y-127395133D01*
X194692938Y-127387646D01*
X194732714Y-127381180D01*
X194772584Y-127375721D01*
X194812499Y-127371252D01*
X194852414Y-127367758D01*
X194892280Y-127365223D01*
X194932050Y-127363632D01*
X194971677Y-127362968D01*
X195011113Y-127363216D01*
G36*
X195011113Y-127363216D02*
G01*
X195058119Y-127364696D01*
X195104701Y-127367438D01*
X195150778Y-127371417D01*
X195196267Y-127376603D01*
X195241087Y-127382971D01*
X195285156Y-127390492D01*
X195328393Y-127399139D01*
X195370716Y-127408885D01*
X195410059Y-127400285D01*
X195451072Y-127393186D01*
X195493510Y-127387564D01*
X195537127Y-127383397D01*
X195581676Y-127380660D01*
X195626911Y-127379331D01*
X195672586Y-127379386D01*
X195718456Y-127380801D01*
X195764273Y-127383553D01*
X195809792Y-127387618D01*
X195854766Y-127392973D01*
X195898950Y-127399595D01*
X195942097Y-127407459D01*
X195983962Y-127416543D01*
X196024297Y-127426824D01*
X196062858Y-127438276D01*
X196089139Y-127448055D01*
X196115248Y-127457138D01*
X196166869Y-127473769D01*
X196267176Y-127504759D01*
X196315548Y-127521329D01*
X196339220Y-127530365D01*
X196362524Y-127540087D01*
X196385439Y-127550632D01*
X196407946Y-127562139D01*
X196430026Y-127574746D01*
X196451658Y-127588590D01*
X196505834Y-127595847D01*
X196559779Y-127604907D01*
X196613421Y-127615761D01*
X196666690Y-127628405D01*
X196719514Y-127642831D01*
X196771822Y-127659034D01*
X196823543Y-127677008D01*
X196874605Y-127696745D01*
X196924937Y-127718239D01*
X196974468Y-127741485D01*
X197023126Y-127766476D01*
X197070841Y-127793205D01*
X197117540Y-127821667D01*
X197163153Y-127851854D01*
X197207608Y-127883761D01*
X197250834Y-127917381D01*
X197265926Y-127931029D01*
X197280225Y-127945450D01*
X197293709Y-127960597D01*
X197306359Y-127976424D01*
X197318157Y-127992883D01*
X197329081Y-128009927D01*
X197339114Y-128027509D01*
X197348234Y-128045582D01*
X197356424Y-128064099D01*
X197363662Y-128083012D01*
X197369931Y-128102275D01*
X197375209Y-128121840D01*
X197379478Y-128141661D01*
X197382718Y-128161690D01*
X197384909Y-128181879D01*
X197386032Y-128202183D01*
X197386734Y-128222138D01*
X197386882Y-128242078D01*
X197386507Y-128262002D01*
X197385642Y-128281905D01*
X197384318Y-128301786D01*
X197382567Y-128321640D01*
X197377908Y-128361256D01*
X197371920Y-128400731D01*
X197364854Y-128440038D01*
X197356964Y-128479155D01*
X197348502Y-128518055D01*
X197330725Y-128585455D01*
X197311028Y-128654675D01*
X197289048Y-128724623D01*
X197264424Y-128794208D01*
X197251007Y-128828524D01*
X197236793Y-128862339D01*
X197221737Y-128895518D01*
X197205793Y-128927925D01*
X197188916Y-128959422D01*
X197171062Y-128989873D01*
X197152183Y-129019142D01*
X197132237Y-129047093D01*
X197131787Y-129095154D01*
X197128692Y-129144548D01*
X197122984Y-129194966D01*
X197114691Y-129246095D01*
X197103845Y-129297625D01*
X197090473Y-129349247D01*
X197074607Y-129400649D01*
X197056277Y-129451521D01*
X197035512Y-129501553D01*
X197012342Y-129550433D01*
X196986798Y-129597852D01*
X196958909Y-129643498D01*
X196928705Y-129687061D01*
X196896216Y-129728232D01*
X196861472Y-129766698D01*
X196824503Y-129802150D01*
X196808146Y-129858756D01*
X196790095Y-129912739D01*
X196770461Y-129964166D01*
X196749359Y-130013103D01*
X196726902Y-130059616D01*
X196703201Y-130103771D01*
X196678371Y-130145634D01*
X196652524Y-130185272D01*
X196625774Y-130222750D01*
X196598232Y-130258134D01*
X196570013Y-130291491D01*
X196541229Y-130322887D01*
X196482418Y-130380059D01*
X196422704Y-130430180D01*
X196362990Y-130473777D01*
X196304181Y-130511379D01*
X196247180Y-130543517D01*
X196192891Y-130570717D01*
X196142219Y-130593510D01*
X196096066Y-130612424D01*
X196020935Y-130640729D01*
X195996984Y-130687768D01*
X195968907Y-130732054D01*
X195936948Y-130773645D01*
X195901356Y-130812602D01*
X195862377Y-130848984D01*
X195820256Y-130882849D01*
X195775241Y-130914256D01*
X195727578Y-130943265D01*
X195677513Y-130969935D01*
X195625293Y-130994325D01*
X195571165Y-131016494D01*
X195515374Y-131036501D01*
X195399792Y-131070267D01*
X195280519Y-131096095D01*
X195159527Y-131114457D01*
X195038788Y-131125828D01*
X194920273Y-131130681D01*
X194805954Y-131129487D01*
X194697803Y-131122720D01*
X194597792Y-131110854D01*
X194507892Y-131094360D01*
X194430076Y-131073713D01*
X194339606Y-131033734D01*
X194253691Y-130991992D01*
X194172076Y-130948414D01*
X194094508Y-130902925D01*
X194020733Y-130855452D01*
X193950495Y-130805920D01*
X193883541Y-130754255D01*
X193819617Y-130700383D01*
X193758469Y-130644230D01*
X193699842Y-130585722D01*
X193643482Y-130524785D01*
X193589135Y-130461345D01*
X193536547Y-130395327D01*
X193485463Y-130326657D01*
X193435630Y-130255262D01*
X193386793Y-130181067D01*
X193344696Y-130156022D01*
X193303611Y-130129254D01*
X193263623Y-130100812D01*
X193224815Y-130070744D01*
X193187271Y-130039101D01*
X193151077Y-130005930D01*
X193116315Y-129971281D01*
X193083071Y-129935203D01*
X193051429Y-129897745D01*
X193021472Y-129858955D01*
X192993286Y-129818883D01*
X192966953Y-129777577D01*
X192942559Y-129735087D01*
X192920188Y-129691461D01*
X192899923Y-129646749D01*
X192881850Y-129601000D01*
X192849793Y-129484754D01*
X192825734Y-129370440D01*
X192809383Y-129258188D01*
X192803122Y-129181059D01*
X193265471Y-129181059D01*
X193269791Y-129248750D01*
X193279569Y-129314932D01*
X193294936Y-129379281D01*
X193316023Y-129441467D01*
X193342962Y-129501165D01*
X193375884Y-129558048D01*
X193414920Y-129611787D01*
X193460203Y-129662057D01*
X193511862Y-129708531D01*
X193570031Y-129750880D01*
X193634840Y-129788779D01*
X193755518Y-129692491D01*
X193879153Y-129599524D01*
X194005677Y-129509804D01*
X194135025Y-129423258D01*
X194267130Y-129339815D01*
X194401926Y-129259399D01*
X194539346Y-129181940D01*
X194679325Y-129107363D01*
X194821795Y-129035597D01*
X194966690Y-128966567D01*
X195113945Y-128900200D01*
X195263492Y-128836425D01*
X195415266Y-128775168D01*
X195569199Y-128716356D01*
X195725226Y-128659917D01*
X195883281Y-128605776D01*
X195495514Y-128808595D01*
X195148597Y-129001767D01*
X194840540Y-129185820D01*
X194569356Y-129361286D01*
X194333055Y-129528693D01*
X194227365Y-129609540D01*
X194129651Y-129688571D01*
X194039663Y-129765853D01*
X193957153Y-129841451D01*
X193881873Y-129915432D01*
X193813575Y-129987862D01*
X193869599Y-130070710D01*
X193926502Y-130147413D01*
X193984195Y-130218152D01*
X194042592Y-130283109D01*
X194101607Y-130342465D01*
X194161152Y-130396402D01*
X194221140Y-130445101D01*
X194281485Y-130488745D01*
X194342099Y-130527514D01*
X194402895Y-130561590D01*
X194463788Y-130591155D01*
X194524689Y-130616390D01*
X194585512Y-130637477D01*
X194646169Y-130654598D01*
X194706575Y-130667934D01*
X194766642Y-130677667D01*
X194826283Y-130683978D01*
X194885411Y-130687048D01*
X194943939Y-130687061D01*
X195001781Y-130684196D01*
X195115057Y-130670562D01*
X195224544Y-130647599D01*
X195329545Y-130616760D01*
X195429367Y-130579498D01*
X195523312Y-130537265D01*
X195610687Y-130491513D01*
X195553623Y-130473005D01*
X195506876Y-130455406D01*
X195469924Y-130438614D01*
X195442246Y-130422525D01*
X195423317Y-130407037D01*
X195412617Y-130392047D01*
X195409623Y-130377452D01*
X195413812Y-130363150D01*
X195424662Y-130349037D01*
X195441650Y-130335011D01*
X195464254Y-130320969D01*
X195491952Y-130306809D01*
X195560540Y-130277720D01*
X195643234Y-130246922D01*
X195834223Y-130176910D01*
X195934159Y-130136051D01*
X196031485Y-130090193D01*
X196077863Y-130065132D01*
X196122021Y-130038514D01*
X196163437Y-130010234D01*
X196201588Y-129980191D01*
X196235952Y-129948282D01*
X196266006Y-129914403D01*
X196291229Y-129878452D01*
X196311097Y-129840326D01*
X196193844Y-129842808D01*
X196112973Y-129841064D01*
X196084969Y-129838474D01*
X196064607Y-129834668D01*
X196051402Y-129829593D01*
X196044869Y-129823196D01*
X196044524Y-129815425D01*
X196049882Y-129806225D01*
X196060459Y-129795545D01*
X196075770Y-129783331D01*
X196174661Y-129718077D01*
X196239910Y-129674869D01*
X196310526Y-129624042D01*
X196382631Y-129565172D01*
X196418031Y-129532588D01*
X196452350Y-129497834D01*
X196485102Y-129460857D01*
X196515804Y-129421605D01*
X196543970Y-129380024D01*
X196569117Y-129336061D01*
X196590759Y-129289663D01*
X196608411Y-129240777D01*
X196621591Y-129189351D01*
X196629811Y-129135330D01*
X196539947Y-129128286D01*
X196506202Y-129123216D01*
X196479384Y-129117034D01*
X196459094Y-129109679D01*
X196444934Y-129101093D01*
X196436506Y-129091214D01*
X196433410Y-129079983D01*
X196435249Y-129067340D01*
X196441624Y-129053225D01*
X196452136Y-129037577D01*
X196466386Y-129020337D01*
X196504510Y-128980840D01*
X196552806Y-128934253D01*
X196608087Y-128880096D01*
X196667164Y-128817888D01*
X196726850Y-128747150D01*
X196755924Y-128708432D01*
X196783956Y-128667401D01*
X196810545Y-128623998D01*
X196835293Y-128578161D01*
X196857803Y-128529832D01*
X196877675Y-128478950D01*
X196894511Y-128425455D01*
X196907912Y-128369287D01*
X196917481Y-128310386D01*
X196922817Y-128248692D01*
X196860584Y-128207027D01*
X196798147Y-128171003D01*
X196735727Y-128140252D01*
X196673546Y-128114404D01*
X196611826Y-128093089D01*
X196550788Y-128075938D01*
X196490653Y-128062581D01*
X196431644Y-128052650D01*
X196317889Y-128041586D01*
X196211295Y-128039791D01*
X196113636Y-128044309D01*
X196026683Y-128052184D01*
X195891991Y-128066189D01*
X195847797Y-128066409D01*
X195832264Y-128063530D01*
X195821403Y-128058165D01*
X195815434Y-128049947D01*
X195814580Y-128038505D01*
X195819062Y-128023469D01*
X195829102Y-128004471D01*
X195866742Y-127953110D01*
X195929273Y-127881466D01*
X195881315Y-127866651D01*
X195832886Y-127856167D01*
X195784163Y-127849659D01*
X195735323Y-127846773D01*
X195686542Y-127847154D01*
X195637999Y-127850448D01*
X195589869Y-127856300D01*
X195542329Y-127864357D01*
X195449730Y-127885662D01*
X195361617Y-127911530D01*
X195204507Y-127965604D01*
X195138342Y-127988140D01*
X195082324Y-128003894D01*
X195058562Y-128008341D01*
X195037868Y-128010028D01*
X195020419Y-128008603D01*
X195006390Y-128003709D01*
X194995960Y-127994993D01*
X194989306Y-127982099D01*
X194986603Y-127964674D01*
X194988030Y-127942363D01*
X194993762Y-127914812D01*
X195003977Y-127881665D01*
X195038565Y-127797169D01*
X195028655Y-127794167D01*
X195018724Y-127791523D01*
X195008774Y-127789230D01*
X194998810Y-127787282D01*
X194988832Y-127785675D01*
X194978846Y-127784400D01*
X194968852Y-127783454D01*
X194958854Y-127782829D01*
X194921332Y-127783214D01*
X194883818Y-127787624D01*
X194846400Y-127795697D01*
X194809167Y-127807068D01*
X194772209Y-127821375D01*
X194735613Y-127838255D01*
X194699469Y-127857344D01*
X194663866Y-127878279D01*
X194594636Y-127924237D01*
X194528636Y-127973222D01*
X194409167Y-128068657D01*
X194357119Y-128109296D01*
X194311144Y-128141342D01*
X194290656Y-128153236D01*
X194271953Y-128161892D01*
X194255123Y-128166947D01*
X194240256Y-128168039D01*
X194227440Y-128164804D01*
X194216765Y-128156879D01*
X194208319Y-128143901D01*
X194202190Y-128125506D01*
X194198469Y-128101332D01*
X194197243Y-128071016D01*
X194198602Y-128034194D01*
X194202634Y-127990504D01*
X194122709Y-128014307D01*
X194045482Y-128043470D01*
X193971084Y-128077667D01*
X193899646Y-128116570D01*
X193831299Y-128159852D01*
X193766176Y-128207186D01*
X193704407Y-128258245D01*
X193646124Y-128312702D01*
X193591459Y-128370230D01*
X193540542Y-128430502D01*
X193493506Y-128493190D01*
X193450481Y-128557969D01*
X193411600Y-128624510D01*
X193376993Y-128692488D01*
X193346792Y-128761574D01*
X193321128Y-128831441D01*
X193300133Y-128901764D01*
X193283939Y-128972214D01*
X193272676Y-129042464D01*
X193266476Y-129112189D01*
X193265471Y-129181059D01*
X192803122Y-129181059D01*
X192800449Y-129148126D01*
X192798642Y-129040382D01*
X192803673Y-128935085D01*
X192815251Y-128832364D01*
X192833086Y-128732346D01*
X192856887Y-128635161D01*
X192886365Y-128540938D01*
X192921229Y-128449804D01*
X192961189Y-128361889D01*
X193005956Y-128277321D01*
X193055238Y-128196229D01*
X193108747Y-128118741D01*
X193166190Y-128044985D01*
X193227280Y-127975091D01*
X193291724Y-127909187D01*
X193359234Y-127847402D01*
X193429518Y-127789863D01*
X193502288Y-127736700D01*
X193577252Y-127688042D01*
X193654120Y-127644017D01*
X193732603Y-127604753D01*
X193812410Y-127570379D01*
X193893251Y-127541024D01*
X193974835Y-127516816D01*
X194056874Y-127497884D01*
X194139076Y-127484356D01*
X194221151Y-127476362D01*
X194302810Y-127474029D01*
X194383761Y-127477486D01*
X194421089Y-127462403D01*
X194458888Y-127448453D01*
X194497112Y-127435619D01*
X194535712Y-127423886D01*
X194574642Y-127413238D01*
X194613855Y-127403659D01*
X194653302Y-127395133D01*
X194692938Y-127387646D01*
X194732714Y-127381180D01*
X194772584Y-127375721D01*
X194812499Y-127371252D01*
X194852414Y-127367758D01*
X194892280Y-127365223D01*
X194932050Y-127363632D01*
X194971677Y-127362968D01*
X195011113Y-127363216D01*
G37*
G36*
X191497644Y-129813707D02*
G01*
X191725033Y-129829699D01*
X191941063Y-129855821D01*
X192146394Y-129892433D01*
X192245253Y-129914785D01*
X192341686Y-129939896D01*
X192435773Y-129967809D01*
X192527599Y-129998570D01*
X192617245Y-130032224D01*
X192704795Y-130068816D01*
X192790330Y-130108392D01*
X192873933Y-130150995D01*
X192955687Y-130196673D01*
X193035674Y-130245468D01*
X193113978Y-130297428D01*
X193190679Y-130352596D01*
X193265862Y-130411018D01*
X193339608Y-130472739D01*
X193412000Y-130537804D01*
X193483121Y-130606258D01*
X193621880Y-130753513D01*
X193756544Y-130914867D01*
X193887773Y-131090678D01*
X194016230Y-131281308D01*
X194142572Y-131487119D01*
X194257463Y-131603167D01*
X194366280Y-131724661D01*
X194468546Y-131851405D01*
X194563780Y-131983201D01*
X194651505Y-132119854D01*
X194731239Y-132261169D01*
X194802505Y-132406949D01*
X194864823Y-132556997D01*
X194917714Y-132711119D01*
X194960698Y-132869118D01*
X194993297Y-133030798D01*
X195015031Y-133195963D01*
X195025421Y-133364417D01*
X195023988Y-133535964D01*
X195010252Y-133710409D01*
X194983735Y-133887554D01*
X194965639Y-133975108D01*
X194944542Y-134059377D01*
X194920633Y-134140417D01*
X194894098Y-134218285D01*
X194865126Y-134293037D01*
X194833903Y-134364728D01*
X194800617Y-134433416D01*
X194765457Y-134499157D01*
X194728608Y-134562005D01*
X194690260Y-134622019D01*
X194650598Y-134679253D01*
X194609811Y-134733765D01*
X194568087Y-134785610D01*
X194525612Y-134834845D01*
X194482575Y-134881525D01*
X194439162Y-134925708D01*
X194351962Y-135006804D01*
X194265510Y-135078582D01*
X194181307Y-135141491D01*
X194100853Y-135195983D01*
X194025649Y-135242506D01*
X193957194Y-135281509D01*
X193846531Y-135338757D01*
X193793929Y-135411839D01*
X193739245Y-135482001D01*
X193624014Y-135613713D01*
X193501604Y-135734200D01*
X193372779Y-135843768D01*
X193238305Y-135942722D01*
X193098944Y-136031370D01*
X192955463Y-136110018D01*
X192808626Y-136178970D01*
X192659197Y-136238535D01*
X192507942Y-136289018D01*
X192355624Y-136330725D01*
X192203010Y-136363963D01*
X192050863Y-136389037D01*
X191899948Y-136406254D01*
X191751029Y-136415921D01*
X191604872Y-136418342D01*
X191450782Y-136415022D01*
X191293604Y-136404569D01*
X191134162Y-136386670D01*
X190973279Y-136361012D01*
X190811777Y-136327279D01*
X190650479Y-136285160D01*
X190490208Y-136234340D01*
X190331786Y-136174505D01*
X190176035Y-136105341D01*
X190023779Y-136026536D01*
X189875840Y-135937775D01*
X189733041Y-135838744D01*
X189596204Y-135729131D01*
X189530278Y-135670257D01*
X189466152Y-135608620D01*
X189403928Y-135544180D01*
X189343708Y-135476899D01*
X189285596Y-135406737D01*
X189229694Y-135333654D01*
X189112088Y-135276403D01*
X189039336Y-135237396D01*
X188959411Y-135190870D01*
X188873908Y-135136373D01*
X188784420Y-135073458D01*
X188692541Y-135001674D01*
X188608273Y-134927929D01*
X189819129Y-134927929D01*
X189821923Y-134979777D01*
X189830165Y-135031686D01*
X189843644Y-135083541D01*
X189862150Y-135135229D01*
X189885472Y-135186636D01*
X189913399Y-135237648D01*
X189945719Y-135288152D01*
X189982224Y-135338033D01*
X190066939Y-135435472D01*
X190165860Y-135529055D01*
X190277299Y-135617870D01*
X190399572Y-135701008D01*
X190530990Y-135777557D01*
X190669870Y-135846607D01*
X190814524Y-135907246D01*
X190963267Y-135958564D01*
X191114413Y-135999650D01*
X191266275Y-136029593D01*
X191417167Y-136047483D01*
X191565404Y-136052409D01*
X191647458Y-136052302D01*
X191729187Y-136048379D01*
X191810443Y-136040814D01*
X191891075Y-136029781D01*
X191970934Y-136015457D01*
X192049872Y-135998016D01*
X192127737Y-135977634D01*
X192204381Y-135954484D01*
X192279654Y-135928742D01*
X192353406Y-135900584D01*
X192425488Y-135870184D01*
X192495750Y-135837716D01*
X192564043Y-135803357D01*
X192630217Y-135767282D01*
X192694122Y-135729664D01*
X192755609Y-135690680D01*
X192814529Y-135650504D01*
X192870731Y-135609311D01*
X192924066Y-135567276D01*
X192974385Y-135524575D01*
X193021539Y-135481381D01*
X193065376Y-135437872D01*
X193105749Y-135394220D01*
X193142506Y-135350602D01*
X193175500Y-135307191D01*
X193204579Y-135264165D01*
X193229596Y-135221696D01*
X193250399Y-135179961D01*
X193266840Y-135139134D01*
X193278768Y-135099391D01*
X193286035Y-135060905D01*
X193288490Y-135023854D01*
X193286757Y-134979811D01*
X193280982Y-134935796D01*
X193271230Y-134891898D01*
X193257568Y-134848203D01*
X193240061Y-134804799D01*
X193218777Y-134761772D01*
X193165137Y-134677200D01*
X193097175Y-134595186D01*
X193015421Y-134516426D01*
X192920402Y-134441620D01*
X192812647Y-134371464D01*
X192692683Y-134306657D01*
X192561038Y-134247897D01*
X192418242Y-134195880D01*
X192264821Y-134151305D01*
X192101304Y-134114870D01*
X191928218Y-134087272D01*
X191746093Y-134069209D01*
X191555457Y-134061380D01*
X191457371Y-134061913D01*
X191361585Y-134064717D01*
X191268153Y-134069734D01*
X191177127Y-134076910D01*
X191088560Y-134086189D01*
X191002504Y-134097515D01*
X190919012Y-134110832D01*
X190838137Y-134126085D01*
X190759931Y-134143218D01*
X190684447Y-134162174D01*
X190611738Y-134182899D01*
X190541856Y-134205337D01*
X190474855Y-134229432D01*
X190410786Y-134255128D01*
X190349703Y-134282369D01*
X190291658Y-134311100D01*
X190236704Y-134341265D01*
X190184894Y-134372809D01*
X190136280Y-134405675D01*
X190090915Y-134439807D01*
X190048851Y-134475151D01*
X190010142Y-134511651D01*
X189974840Y-134549250D01*
X189942997Y-134587892D01*
X189914667Y-134627523D01*
X189889902Y-134668087D01*
X189868755Y-134709527D01*
X189851278Y-134751789D01*
X189837524Y-134794815D01*
X189827546Y-134838551D01*
X189821397Y-134882941D01*
X189819129Y-134927929D01*
X188608273Y-134927929D01*
X188599866Y-134920572D01*
X188507990Y-134829703D01*
X188418505Y-134728618D01*
X188333007Y-134616866D01*
X188292251Y-134556850D01*
X188253090Y-134493999D01*
X188215722Y-134428256D01*
X188180347Y-134359566D01*
X188147165Y-134287873D01*
X188116374Y-134213120D01*
X188088174Y-134135251D01*
X188062764Y-134054209D01*
X188040344Y-133969940D01*
X188021112Y-133882386D01*
X188004977Y-133794000D01*
X187991697Y-133707247D01*
X187981249Y-133622085D01*
X187978029Y-133586835D01*
X188346617Y-133586835D01*
X188350929Y-133683668D01*
X188356473Y-133733358D01*
X188364439Y-133783833D01*
X188374949Y-133835045D01*
X188388124Y-133886944D01*
X188404087Y-133939484D01*
X188422959Y-133992615D01*
X188444864Y-134046290D01*
X188469923Y-134100460D01*
X188499996Y-134146011D01*
X188530860Y-134189157D01*
X188562450Y-134229928D01*
X188594698Y-134268355D01*
X188627536Y-134304468D01*
X188660899Y-134338297D01*
X188694718Y-134369873D01*
X188728927Y-134399224D01*
X188763459Y-134426383D01*
X188798246Y-134451379D01*
X188833222Y-134474241D01*
X188868320Y-134495001D01*
X188903472Y-134513689D01*
X188938611Y-134530334D01*
X188973671Y-134544968D01*
X189008584Y-134557619D01*
X189043283Y-134568319D01*
X189077702Y-134577097D01*
X189111773Y-134583985D01*
X189145429Y-134589011D01*
X189178603Y-134592206D01*
X189211228Y-134593601D01*
X189243237Y-134593226D01*
X189274563Y-134591110D01*
X189305139Y-134587284D01*
X189334898Y-134581779D01*
X189363772Y-134574624D01*
X189391696Y-134565850D01*
X189418601Y-134555486D01*
X189444420Y-134543564D01*
X189469087Y-134530113D01*
X189492535Y-134515163D01*
X189516137Y-134492486D01*
X189538488Y-134466155D01*
X189559560Y-134436373D01*
X189579326Y-134403346D01*
X189614828Y-134328365D01*
X189644777Y-134242844D01*
X189668954Y-134148410D01*
X189687139Y-134046693D01*
X189699115Y-133939324D01*
X189704663Y-133827931D01*
X189703996Y-133759008D01*
X193284165Y-133759008D01*
X193289713Y-133870401D01*
X193301688Y-133977771D01*
X193319874Y-134079487D01*
X193344051Y-134173921D01*
X193374000Y-134259443D01*
X193391071Y-134298352D01*
X193409503Y-134334423D01*
X193429268Y-134367451D01*
X193450340Y-134397232D01*
X193472691Y-134423563D01*
X193496294Y-134446240D01*
X193519742Y-134461190D01*
X193544409Y-134474641D01*
X193570228Y-134486563D01*
X193597133Y-134496927D01*
X193625056Y-134505701D01*
X193653931Y-134512856D01*
X193683690Y-134518361D01*
X193714266Y-134522187D01*
X193745592Y-134524303D01*
X193777601Y-134524678D01*
X193810226Y-134523283D01*
X193843400Y-134520088D01*
X193877056Y-134515062D01*
X193911127Y-134508174D01*
X193945545Y-134499396D01*
X193980245Y-134488696D01*
X194015158Y-134476044D01*
X194050218Y-134461411D01*
X194085357Y-134444766D01*
X194120509Y-134426078D01*
X194155607Y-134405318D01*
X194190583Y-134382455D01*
X194225370Y-134357460D01*
X194259902Y-134330301D01*
X194294111Y-134300949D01*
X194327930Y-134269374D01*
X194361292Y-134235545D01*
X194394131Y-134199432D01*
X194426379Y-134161005D01*
X194457968Y-134120233D01*
X194488833Y-134077087D01*
X194518906Y-134031537D01*
X194544159Y-133977208D01*
X194566620Y-133923068D01*
X194586372Y-133869180D01*
X194603495Y-133815606D01*
X194618071Y-133762411D01*
X194630183Y-133709657D01*
X194639912Y-133657409D01*
X194647340Y-133605729D01*
X194652550Y-133554681D01*
X194655622Y-133504328D01*
X194656639Y-133454734D01*
X194655682Y-133405962D01*
X194652834Y-133358075D01*
X194648176Y-133311137D01*
X194641790Y-133265211D01*
X194633758Y-133220361D01*
X194624162Y-133176649D01*
X194613083Y-133134140D01*
X194600605Y-133092896D01*
X194586807Y-133052982D01*
X194571773Y-133014459D01*
X194555584Y-132977393D01*
X194538321Y-132941846D01*
X194520068Y-132907881D01*
X194500905Y-132875562D01*
X194480915Y-132844952D01*
X194460179Y-132816116D01*
X194438779Y-132789115D01*
X194416798Y-132764013D01*
X194394316Y-132740875D01*
X194371416Y-132719762D01*
X194348180Y-132700739D01*
X194327731Y-132685325D01*
X194307285Y-132670541D01*
X194286828Y-132656437D01*
X194266346Y-132643061D01*
X194245825Y-132630464D01*
X194225250Y-132618695D01*
X194204609Y-132607804D01*
X194183887Y-132597841D01*
X194163069Y-132588854D01*
X194142143Y-132580894D01*
X194121093Y-132574010D01*
X194099907Y-132568251D01*
X194078569Y-132563668D01*
X194057067Y-132560310D01*
X194035385Y-132558226D01*
X194013511Y-132557466D01*
X194013512Y-132557467D01*
X193985081Y-132558516D01*
X193956279Y-132561942D01*
X193927076Y-132567851D01*
X193897441Y-132576347D01*
X193867347Y-132587537D01*
X193836762Y-132601526D01*
X193805658Y-132618419D01*
X193774004Y-132638322D01*
X193741772Y-132661340D01*
X193708931Y-132687579D01*
X193675453Y-132717144D01*
X193641307Y-132750141D01*
X193606465Y-132786675D01*
X193570895Y-132826852D01*
X193534570Y-132870777D01*
X193497459Y-132918556D01*
X193469545Y-132959787D01*
X193443704Y-133003475D01*
X193419907Y-133049416D01*
X193398128Y-133097407D01*
X193378338Y-133147244D01*
X193360511Y-133198722D01*
X193330635Y-133305790D01*
X193308281Y-133416983D01*
X193293231Y-133530669D01*
X193285265Y-133645221D01*
X193284165Y-133759008D01*
X189703996Y-133759008D01*
X189703563Y-133714144D01*
X189695597Y-133599592D01*
X189680547Y-133485906D01*
X189658193Y-133374713D01*
X189628317Y-133267645D01*
X189590701Y-133166330D01*
X189568921Y-133118339D01*
X189545125Y-133072398D01*
X189519284Y-133028710D01*
X189491371Y-132987479D01*
X189458070Y-132945131D01*
X189424881Y-132906434D01*
X189391832Y-132871271D01*
X189358952Y-132839520D01*
X189326272Y-132811064D01*
X189293820Y-132785782D01*
X189261627Y-132763557D01*
X189229721Y-132744268D01*
X189198132Y-132727796D01*
X189166890Y-132714022D01*
X189136024Y-132702827D01*
X189105563Y-132694091D01*
X189075537Y-132687696D01*
X189045976Y-132683522D01*
X189016909Y-132681450D01*
X188988365Y-132681361D01*
X188988367Y-132681360D01*
X188974301Y-132682022D01*
X188960376Y-132683134D01*
X188946597Y-132684682D01*
X188932967Y-132686652D01*
X188906169Y-132691794D01*
X188880012Y-132698440D01*
X188854525Y-132706472D01*
X188829739Y-132715770D01*
X188805682Y-132726214D01*
X188782385Y-132737685D01*
X188759876Y-132750064D01*
X188738186Y-132763230D01*
X188717344Y-132777065D01*
X188697380Y-132791449D01*
X188678323Y-132806262D01*
X188660202Y-132821386D01*
X188643048Y-132836700D01*
X188626890Y-132852086D01*
X188594491Y-132886768D01*
X188560546Y-132929032D01*
X188526031Y-132978491D01*
X188491923Y-133034759D01*
X188459199Y-133097449D01*
X188428836Y-133166176D01*
X188401811Y-133240553D01*
X188379099Y-133320194D01*
X188361679Y-133404712D01*
X188350526Y-133493721D01*
X188346617Y-133586835D01*
X187978029Y-133586835D01*
X187973611Y-133538474D01*
X187968757Y-133456372D01*
X187966666Y-133375738D01*
X187967313Y-133296532D01*
X187970676Y-133218713D01*
X187976730Y-133142239D01*
X187985453Y-133067070D01*
X187996821Y-132993165D01*
X188010811Y-132920483D01*
X188027398Y-132848983D01*
X188046561Y-132778624D01*
X188068275Y-132709365D01*
X188092517Y-132641165D01*
X188119264Y-132573984D01*
X188148492Y-132507779D01*
X188180177Y-132442512D01*
X188214297Y-132378139D01*
X188289748Y-132251918D01*
X188374655Y-132128787D01*
X188419918Y-132070935D01*
X189651574Y-132070935D01*
X189655968Y-132161517D01*
X189665873Y-132250191D01*
X189681126Y-132336875D01*
X189701566Y-132421485D01*
X189727031Y-132503938D01*
X189757359Y-132584151D01*
X189792388Y-132662041D01*
X189831956Y-132737525D01*
X189875902Y-132810520D01*
X189924063Y-132880942D01*
X189976278Y-132948709D01*
X190032384Y-133013738D01*
X190092220Y-133075944D01*
X190155625Y-133135246D01*
X190222435Y-133191561D01*
X190292489Y-133244804D01*
X190365625Y-133294893D01*
X190441682Y-133341745D01*
X190520497Y-133385277D01*
X190601909Y-133425405D01*
X190685756Y-133462048D01*
X190771875Y-133495120D01*
X190860105Y-133524540D01*
X190950284Y-133550224D01*
X191042251Y-133572090D01*
X191135842Y-133590053D01*
X191230897Y-133604032D01*
X191327254Y-133613942D01*
X191424750Y-133619701D01*
X191523223Y-133621226D01*
X191621288Y-133618062D01*
X191717601Y-133609923D01*
X191812071Y-133596981D01*
X191904605Y-133579407D01*
X191995109Y-133557369D01*
X192083491Y-133531040D01*
X192169658Y-133500590D01*
X192253518Y-133466189D01*
X192334976Y-133428008D01*
X192413941Y-133386217D01*
X192490320Y-133340988D01*
X192564019Y-133292490D01*
X192634946Y-133240895D01*
X192703009Y-133186373D01*
X192768113Y-133129094D01*
X192830166Y-133069229D01*
X192889076Y-133006949D01*
X192944750Y-132942424D01*
X192997094Y-132875825D01*
X193046016Y-132807323D01*
X193091423Y-132737087D01*
X193133222Y-132665290D01*
X193171321Y-132592100D01*
X193205626Y-132517690D01*
X193236044Y-132442229D01*
X193262483Y-132365888D01*
X193284850Y-132288837D01*
X193303052Y-132211248D01*
X193316995Y-132133290D01*
X193326588Y-132055135D01*
X193331738Y-131976953D01*
X193332351Y-131898915D01*
X193328319Y-131821357D01*
X193319678Y-131744579D01*
X193306551Y-131668691D01*
X193289059Y-131593804D01*
X193267325Y-131520030D01*
X193241472Y-131447481D01*
X193211621Y-131376266D01*
X193177895Y-131306497D01*
X193140416Y-131238286D01*
X193099307Y-131171744D01*
X193054690Y-131106982D01*
X193006687Y-131044112D01*
X192955420Y-130983243D01*
X192901013Y-130924489D01*
X192843586Y-130867959D01*
X192783263Y-130813766D01*
X192720166Y-130762020D01*
X192654418Y-130712832D01*
X192586139Y-130666315D01*
X192515454Y-130622578D01*
X192442484Y-130581734D01*
X192367351Y-130543893D01*
X192290178Y-130509167D01*
X192211087Y-130477667D01*
X192130201Y-130449504D01*
X192047642Y-130424789D01*
X191963532Y-130403634D01*
X191877993Y-130386150D01*
X191791148Y-130372448D01*
X191703119Y-130362639D01*
X191614028Y-130356835D01*
X191523999Y-130355146D01*
X191345237Y-130361903D01*
X191257614Y-130369738D01*
X191171286Y-130380542D01*
X191086348Y-130394314D01*
X191002893Y-130411054D01*
X190921014Y-130430760D01*
X190840806Y-130453432D01*
X190762361Y-130479068D01*
X190685774Y-130507667D01*
X190611136Y-130539227D01*
X190538544Y-130573749D01*
X190468088Y-130611231D01*
X190399864Y-130651672D01*
X190333965Y-130695071D01*
X190270483Y-130741426D01*
X190209514Y-130790738D01*
X190151150Y-130843004D01*
X190095484Y-130898223D01*
X190042611Y-130956396D01*
X189992623Y-131017519D01*
X189945615Y-131081594D01*
X189901679Y-131148617D01*
X189860910Y-131218589D01*
X189823401Y-131291509D01*
X189789245Y-131367374D01*
X189758535Y-131446185D01*
X189731367Y-131527940D01*
X189707832Y-131612638D01*
X189688024Y-131700279D01*
X189672037Y-131790860D01*
X189659965Y-131884381D01*
X189652852Y-131978528D01*
X189651574Y-132070935D01*
X188419918Y-132070935D01*
X188468831Y-132008419D01*
X188572091Y-131890487D01*
X188684245Y-131774664D01*
X188805108Y-131660622D01*
X188939027Y-131453034D01*
X189074463Y-131257362D01*
X189212073Y-131073686D01*
X189352513Y-130902086D01*
X189496440Y-130742641D01*
X189644512Y-130595431D01*
X189797384Y-130460535D01*
X189955713Y-130338032D01*
X190120157Y-130228002D01*
X190291373Y-130130524D01*
X190470016Y-130045678D01*
X190656745Y-129973543D01*
X190852215Y-129914199D01*
X191057084Y-129867726D01*
X191272007Y-129834201D01*
X191497644Y-129813706D01*
X191497644Y-129813707D01*
G37*
%TD*%
D11*
%TO.C,TH2*%
X103135000Y-97115000D03*
%TD*%
%TO.C,TH1*%
X83644033Y-107525000D03*
%TD*%
D12*
%TO.C,TH8*%
X101560000Y-126980000D03*
%TD*%
%TO.C,TH3*%
X127410000Y-65960000D03*
%TD*%
%TO.C,TH6*%
X204245000Y-106475000D03*
%TD*%
%TO.C,TH5*%
X127500000Y-103910000D03*
%TD*%
%TO.C,TH4*%
X204260000Y-68360000D03*
%TD*%
%TO.C,REF\u002A\u002A*%
X128070000Y-87895000D03*
X147120000Y-68845000D03*
X147120000Y-106945000D03*
X166170000Y-87895000D03*
%TD*%
D11*
%TO.C,TH7*%
X110005000Y-43642432D03*
%TD*%
M02*
