%TF.GenerationSoftware,KiCad,Pcbnew,7.0.5-0*%
%TF.CreationDate,2024-02-11T16:38:14-08:00*%
%TF.ProjectId,Sofle_Pico_Top_Plate,536f666c-655f-4506-9963-6f5f546f705f,3.5.5*%
%TF.SameCoordinates,Original*%
%TF.FileFunction,Profile,NP*%
%FSLAX46Y46*%
G04 Gerber Fmt 4.6, Leading zero omitted, Abs format (unit mm)*
G04 Created by KiCad (PCBNEW 7.0.5-0) date 2024-02-11 16:38:14*
%MOMM*%
%LPD*%
G01*
G04 APERTURE LIST*
%TA.AperFunction,Profile*%
%ADD10C,0.150000*%
%TD*%
%TA.AperFunction,Profile*%
%ADD11C,0.100000*%
%TD*%
%TA.AperFunction,Profile*%
%ADD12C,0.120000*%
%TD*%
G04 APERTURE END LIST*
D10*
X185219843Y-141249865D02*
X223914106Y-126977127D01*
D11*
X105655766Y-94588184D02*
G75*
G03*
X104795000Y-93955001I-2508766J-2508816D01*
G01*
X93095000Y-93955000D02*
G75*
G03*
X92095000Y-94955000I0J-1000000D01*
G01*
X92095000Y-102972106D02*
X92095000Y-94955000D01*
X79561732Y-134762683D02*
X90372724Y-155979601D01*
D10*
X224819843Y-49399865D02*
X224819843Y-125599865D01*
X166169843Y-40499865D02*
X223483686Y-47898864D01*
D11*
X90372729Y-155979599D02*
G75*
G03*
X92105118Y-156745430I1336471J680899D01*
G01*
D10*
X147119843Y-141249865D02*
X185219843Y-141249865D01*
D11*
X108007894Y-40499794D02*
G75*
G03*
X107007894Y-41499865I106J-1000106D01*
G01*
X108795000Y-94588181D02*
X105655769Y-94588181D01*
X92105118Y-156745430D02*
X147119843Y-141249865D01*
X108007894Y-54445000D02*
X108795000Y-54445000D01*
X107007894Y-41499865D02*
X107007894Y-53445000D01*
X79398244Y-103972106D02*
X79398244Y-134055000D01*
X166169843Y-40499865D02*
X108007894Y-40499865D01*
D10*
X223914094Y-126977099D02*
G75*
G03*
X224819843Y-125599865I-593994J1377099D01*
G01*
D11*
X108795000Y-94588181D02*
X108795000Y-54445000D01*
X80398244Y-102972144D02*
G75*
G03*
X79398244Y-103972106I-44J-999956D01*
G01*
X107007900Y-53445000D02*
G75*
G03*
X108007894Y-54445000I1000000J0D01*
G01*
X104795000Y-93955000D02*
X93095000Y-93955000D01*
D10*
X224819791Y-49399865D02*
G75*
G03*
X223483686Y-47898864I-1510991J165D01*
G01*
D11*
X80398244Y-102972106D02*
X92095000Y-102972106D01*
X79398259Y-134055000D02*
G75*
G03*
X79561732Y-134762683I1501841J-25800D01*
G01*
D12*
%TO.C,SW25*%
X105995000Y-117525000D02*
X90395000Y-117525000D01*
X90395000Y-117525000D02*
X90395000Y-104525000D01*
X90395000Y-104525000D02*
X105995000Y-104525000D01*
X105995000Y-104525000D02*
X105995000Y-117525000D01*
%TO.C,SW6*%
X220795000Y-65925000D02*
X206795000Y-65925000D01*
X206795000Y-65925000D02*
X206795000Y-51925000D01*
X206795000Y-51925000D02*
X220795000Y-51925000D01*
X220795000Y-51925000D02*
X220795000Y-65925000D01*
%TO.C,SW27*%
X124168214Y-139874747D02*
X110645253Y-143498214D01*
X110645253Y-143498214D02*
X107021786Y-129975253D01*
X107021786Y-129975253D02*
X120544747Y-126351786D01*
X120544747Y-126351786D02*
X124168214Y-139874747D01*
%TO.C,SW21*%
X163645000Y-115675000D02*
X149645000Y-115675000D01*
X149645000Y-115675000D02*
X149645000Y-101675000D01*
X149645000Y-101675000D02*
X163645000Y-101675000D01*
X163645000Y-101675000D02*
X163645000Y-115675000D01*
%TO.C,SW26*%
X91731634Y-149780788D02*
X85375767Y-137306697D01*
X85375767Y-137306697D02*
X97849858Y-130950830D01*
X97849858Y-130950830D02*
X104205725Y-143424921D01*
X104205725Y-143424921D02*
X91731634Y-149780788D01*
%TO.C,SW9*%
X163645000Y-77575000D02*
X149645000Y-77575000D01*
X149645000Y-77575000D02*
X149645000Y-63575000D01*
X149645000Y-63575000D02*
X163645000Y-63575000D01*
X163645000Y-63575000D02*
X163645000Y-77575000D01*
%TO.C,SW22*%
X182695000Y-118175000D02*
X168695000Y-118175000D01*
X168695000Y-118175000D02*
X168695000Y-104175000D01*
X168695000Y-104175000D02*
X182695000Y-104175000D01*
X182695000Y-104175000D02*
X182695000Y-118175000D01*
%TO.C,SW12*%
X220795000Y-84975000D02*
X206795000Y-84975000D01*
X206795000Y-84975000D02*
X206795000Y-70975000D01*
X206795000Y-70975000D02*
X220795000Y-70975000D01*
X220795000Y-70975000D02*
X220795000Y-84975000D01*
%TO.C,SW2*%
X144595000Y-61025000D02*
X130595000Y-61025000D01*
X130595000Y-61025000D02*
X130595000Y-47025000D01*
X130595000Y-47025000D02*
X144595000Y-47025000D01*
X144595000Y-47025000D02*
X144595000Y-61025000D01*
%TO.C,SW11*%
X201745000Y-84975000D02*
X187745000Y-84975000D01*
X187745000Y-84975000D02*
X187745000Y-70975000D01*
X187745000Y-70975000D02*
X201745000Y-70975000D01*
X201745000Y-70975000D02*
X201745000Y-84975000D01*
%TO.C,SW1*%
X125545000Y-63525000D02*
X111545000Y-63525000D01*
X111545000Y-63525000D02*
X111545000Y-49525000D01*
X111545000Y-49525000D02*
X125545000Y-49525000D01*
X125545000Y-49525000D02*
X125545000Y-63525000D01*
%TO.C,SW23*%
X201745000Y-123075000D02*
X187745000Y-123075000D01*
X187745000Y-123075000D02*
X187745000Y-109075000D01*
X187745000Y-109075000D02*
X201745000Y-109075000D01*
X201745000Y-109075000D02*
X201745000Y-123075000D01*
%TO.C,SW20*%
X144595000Y-118175000D02*
X130595000Y-118175000D01*
X130595000Y-118175000D02*
X130595000Y-104175000D01*
X130595000Y-104175000D02*
X144595000Y-104175000D01*
X144595000Y-104175000D02*
X144595000Y-118175000D01*
%TO.C,SW17*%
X201745000Y-104025000D02*
X187745000Y-104025000D01*
X187745000Y-104025000D02*
X187745000Y-90025000D01*
X187745000Y-90025000D02*
X201745000Y-90025000D01*
X201745000Y-90025000D02*
X201745000Y-104025000D01*
%TO.C,SW18*%
X220795000Y-104025000D02*
X206795000Y-104025000D01*
X206795000Y-104025000D02*
X206795000Y-90025000D01*
X206795000Y-90025000D02*
X220795000Y-90025000D01*
X220795000Y-90025000D02*
X220795000Y-104025000D01*
%TO.C,SW28*%
X144595000Y-137225000D02*
X130595000Y-137225000D01*
X130595000Y-137225000D02*
X130595000Y-123225000D01*
X130595000Y-123225000D02*
X144595000Y-123225000D01*
X144595000Y-123225000D02*
X144595000Y-137225000D01*
%TO.C,SW19*%
X125545000Y-120675000D02*
X111545000Y-120675000D01*
X111545000Y-120675000D02*
X111545000Y-106675000D01*
X111545000Y-106675000D02*
X125545000Y-106675000D01*
X125545000Y-106675000D02*
X125545000Y-120675000D01*
%TO.C,SW29*%
X163645000Y-134725000D02*
X149645000Y-134725000D01*
X149645000Y-134725000D02*
X149645000Y-120725000D01*
X149645000Y-120725000D02*
X163645000Y-120725000D01*
X163645000Y-120725000D02*
X163645000Y-134725000D01*
%TO.C,SW4*%
X182695000Y-61025000D02*
X168695000Y-61025000D01*
X168695000Y-61025000D02*
X168695000Y-47025000D01*
X168695000Y-47025000D02*
X182695000Y-47025000D01*
X182695000Y-47025000D02*
X182695000Y-61025000D01*
%TO.C,SW16*%
X182695000Y-99125000D02*
X168695000Y-99125000D01*
X168695000Y-99125000D02*
X168695000Y-85125000D01*
X168695000Y-85125000D02*
X182695000Y-85125000D01*
X182695000Y-85125000D02*
X182695000Y-99125000D01*
%TO.C,SW3*%
X163645000Y-58525000D02*
X149645000Y-58525000D01*
X149645000Y-58525000D02*
X149645000Y-44525000D01*
X149645000Y-44525000D02*
X163645000Y-44525000D01*
X163645000Y-44525000D02*
X163645000Y-58525000D01*
%TO.C,SW5*%
X201745000Y-65925000D02*
X187745000Y-65925000D01*
X187745000Y-65925000D02*
X187745000Y-51925000D01*
X187745000Y-51925000D02*
X201745000Y-51925000D01*
X201745000Y-51925000D02*
X201745000Y-65925000D01*
%TO.C,SW24*%
X220795000Y-123075000D02*
X206795000Y-123075000D01*
X206795000Y-123075000D02*
X206795000Y-109075000D01*
X206795000Y-109075000D02*
X220795000Y-109075000D01*
X220795000Y-109075000D02*
X220795000Y-123075000D01*
%TO.C,SW15*%
X163645000Y-96625000D02*
X149645000Y-96625000D01*
X149645000Y-96625000D02*
X149645000Y-82625000D01*
X149645000Y-82625000D02*
X163645000Y-82625000D01*
X163645000Y-82625000D02*
X163645000Y-96625000D01*
%TO.C,SW7*%
X125545000Y-82575000D02*
X111545000Y-82575000D01*
X111545000Y-82575000D02*
X111545000Y-68575000D01*
X111545000Y-68575000D02*
X125545000Y-68575000D01*
X125545000Y-68575000D02*
X125545000Y-82575000D01*
%TO.C,SW14*%
X144595000Y-99125000D02*
X130595000Y-99125000D01*
X130595000Y-99125000D02*
X130595000Y-85125000D01*
X130595000Y-85125000D02*
X144595000Y-85125000D01*
X144595000Y-85125000D02*
X144595000Y-99125000D01*
%TO.C,SW30*%
X182695000Y-137225000D02*
X168695000Y-137225000D01*
X168695000Y-137225000D02*
X168695000Y-123225000D01*
X168695000Y-123225000D02*
X182695000Y-123225000D01*
X182695000Y-123225000D02*
X182695000Y-137225000D01*
%TO.C,SW8*%
X144595000Y-80075000D02*
X130595000Y-80075000D01*
X130595000Y-80075000D02*
X130595000Y-66075000D01*
X130595000Y-66075000D02*
X144595000Y-66075000D01*
X144595000Y-66075000D02*
X144595000Y-80075000D01*
%TO.C,SW13*%
X125545000Y-101625000D02*
X111545000Y-101625000D01*
X111545000Y-101625000D02*
X111545000Y-87625000D01*
X111545000Y-87625000D02*
X125545000Y-87625000D01*
X125545000Y-87625000D02*
X125545000Y-101625000D01*
%TO.C,SW10*%
X182695000Y-80075000D02*
X168695000Y-80075000D01*
X168695000Y-80075000D02*
X168695000Y-66075000D01*
X168695000Y-66075000D02*
X182695000Y-66075000D01*
X182695000Y-66075000D02*
X182695000Y-80075000D01*
%TD*%
M02*
