G04 #@! TF.GenerationSoftware,KiCad,Pcbnew,(6.0.1)*
G04 #@! TF.CreationDate,2022-07-29T00:13:48+02:00*
G04 #@! TF.ProjectId,SofleKeyboard,536f666c-654b-4657-9962-6f6172642e6b,rev?*
G04 #@! TF.SameCoordinates,Original*
G04 #@! TF.FileFunction,Legend,Top*
G04 #@! TF.FilePolarity,Positive*
%FSLAX46Y46*%
G04 Gerber Fmt 4.6, Leading zero omitted, Abs format (unit mm)*
G04 Created by KiCad (PCBNEW (6.0.1)) date 2022-07-29 00:13:48*
%MOMM*%
%LPD*%
G01*
G04 APERTURE LIST*
G04 Aperture macros list*
%AMRoundRect*
0 Rectangle with rounded corners*
0 $1 Rounding radius*
0 $2 $3 $4 $5 $6 $7 $8 $9 X,Y pos of 4 corners*
0 Add a 4 corners polygon primitive as box body*
4,1,4,$2,$3,$4,$5,$6,$7,$8,$9,$2,$3,0*
0 Add four circle primitives for the rounded corners*
1,1,$1+$1,$2,$3*
1,1,$1+$1,$4,$5*
1,1,$1+$1,$6,$7*
1,1,$1+$1,$8,$9*
0 Add four rect primitives between the rounded corners*
20,1,$1+$1,$2,$3,$4,$5,0*
20,1,$1+$1,$4,$5,$6,$7,0*
20,1,$1+$1,$6,$7,$8,$9,0*
20,1,$1+$1,$8,$9,$2,$3,0*%
%AMRotRect*
0 Rectangle, with rotation*
0 The origin of the aperture is its center*
0 $1 length*
0 $2 width*
0 $3 Rotation angle, in degrees counterclockwise*
0 Add horizontal line*
21,1,$1,$2,0,0,$3*%
%AMFreePoly0*
4,1,6,1.000000,0.000000,0.500000,-0.750000,-0.500000,-0.750000,-0.500000,0.750000,0.500000,0.750000,1.000000,0.000000,1.000000,0.000000,$1*%
%AMFreePoly1*
4,1,6,0.500000,-0.750000,-0.650000,-0.750000,-0.150000,0.000000,-0.650000,0.750000,0.500000,0.750000,0.500000,-0.750000,0.500000,-0.750000,$1*%
G04 Aperture macros list end*
%ADD10C,0.150000*%
%ADD11C,0.381000*%
%ADD12C,0.120000*%
%ADD13R,1.752600X1.752600*%
%ADD14C,1.752600*%
%ADD15C,1.397000*%
%ADD16C,1.200000*%
%ADD17O,2.500000X1.700000*%
%ADD18R,1.143000X0.635000*%
%ADD19R,1.800000X1.500000*%
%ADD20RotRect,1.800000X1.500000X300.000000*%
%ADD21C,1.750000*%
%ADD22C,3.987800*%
%ADD23C,4.000000*%
%ADD24R,1.524000X1.524000*%
%ADD25C,2.000000*%
%ADD26R,3.200000X2.000000*%
%ADD27FreePoly0,180.000000*%
%ADD28FreePoly1,180.000000*%
%ADD29FreePoly0,0.000000*%
%ADD30FreePoly1,0.000000*%
%ADD31C,4.700000*%
%ADD32RoundRect,0.250000X-0.625000X0.375000X-0.625000X-0.375000X0.625000X-0.375000X0.625000X0.375000X0*%
%ADD33C,2.250000*%
G04 APERTURE END LIST*
D10*
X187025411Y-131866897D02*
X186766592Y-130900971D01*
X186865189Y-131268943D02*
X186944858Y-131198297D01*
X187128843Y-131148998D01*
X187233161Y-131170345D01*
X187291482Y-131204017D01*
X187362128Y-131283685D01*
X187436076Y-131559664D01*
X187414729Y-131663982D01*
X187381058Y-131722303D01*
X187301389Y-131792949D01*
X187117404Y-131842248D01*
X187013086Y-131820900D01*
X188313312Y-131521805D02*
X188177740Y-131015844D01*
X188107094Y-130936176D01*
X188002776Y-130914829D01*
X187818790Y-130964127D01*
X187739122Y-131034773D01*
X188300987Y-131475808D02*
X188221319Y-131546454D01*
X187991336Y-131608078D01*
X187887019Y-131586731D01*
X187816373Y-131507063D01*
X187791723Y-131415070D01*
X187813070Y-131310752D01*
X187892739Y-131240106D01*
X188122721Y-131178483D01*
X188202389Y-131107837D01*
X188714955Y-131364886D02*
X188819273Y-131386233D01*
X189003259Y-131336934D01*
X189082927Y-131266288D01*
X189104274Y-131161971D01*
X189091949Y-131115974D01*
X189021303Y-131036306D01*
X188916986Y-131014959D01*
X188778996Y-131051933D01*
X188674679Y-131030586D01*
X188604033Y-130950918D01*
X188591708Y-130904921D01*
X188613055Y-130800604D01*
X188692723Y-130729958D01*
X188830713Y-130692984D01*
X188935030Y-130714331D01*
X189910863Y-131044443D02*
X189831195Y-131115089D01*
X189647209Y-131164388D01*
X189542892Y-131143041D01*
X189472246Y-131063373D01*
X189373648Y-130695401D01*
X189394995Y-130591083D01*
X189474663Y-130520438D01*
X189658649Y-130471139D01*
X189762967Y-130492486D01*
X189833613Y-130572154D01*
X189858262Y-130664147D01*
X189422947Y-130879387D01*
X190797121Y-130856270D02*
X190538302Y-129890344D01*
X190784796Y-130810274D02*
X190705128Y-130880920D01*
X190521142Y-130930219D01*
X190416825Y-130908871D01*
X190358503Y-130875200D01*
X190287857Y-130795532D01*
X190213909Y-130519553D01*
X190235256Y-130415235D01*
X190268928Y-130356914D01*
X190348596Y-130286268D01*
X190532582Y-130236969D01*
X190636900Y-130258316D01*
X192131019Y-130498853D02*
X192026701Y-130477506D01*
X191968380Y-130443835D01*
X191897734Y-130364166D01*
X191823786Y-130088188D01*
X191845133Y-129983870D01*
X191878804Y-129925549D01*
X191958473Y-129854903D01*
X192096462Y-129817929D01*
X192200780Y-129839276D01*
X192259101Y-129872948D01*
X192329747Y-129952616D01*
X192403695Y-130228595D01*
X192382348Y-130332912D01*
X192348676Y-130391233D01*
X192269008Y-130461879D01*
X192131019Y-130498853D01*
X192694416Y-129657707D02*
X192866962Y-130301658D01*
X192719065Y-129749700D02*
X192752737Y-129691379D01*
X192832405Y-129620733D01*
X192970395Y-129583759D01*
X193074712Y-129605106D01*
X193145358Y-129684774D01*
X193280930Y-130190736D01*
X194166303Y-129263317D02*
X194534275Y-129164719D01*
X194218019Y-128904367D02*
X194439864Y-129732304D01*
X194510510Y-129811972D01*
X194614828Y-129833319D01*
X194706821Y-129808669D01*
X195028796Y-129722396D02*
X194769977Y-128756470D01*
X195442764Y-129611474D02*
X195307192Y-129105513D01*
X195236546Y-129025844D01*
X195132229Y-129004497D01*
X194994239Y-129041472D01*
X194914571Y-129112118D01*
X194880899Y-129170439D01*
X196258376Y-129343632D02*
X196178708Y-129414278D01*
X195994722Y-129463577D01*
X195890404Y-129442230D01*
X195819758Y-129362562D01*
X195721161Y-128994590D01*
X195742508Y-128890273D01*
X195822176Y-128819627D01*
X196006162Y-128770328D01*
X196110479Y-128791675D01*
X196181125Y-128871343D01*
X196205775Y-128963336D01*
X195770459Y-129178576D01*
X197408288Y-129035515D02*
X197558602Y-129044537D01*
X197788584Y-128982913D01*
X197868252Y-128912267D01*
X197901924Y-128853946D01*
X197923271Y-128749629D01*
X197898622Y-128657636D01*
X197827976Y-128577967D01*
X197769655Y-128544296D01*
X197665337Y-128522949D01*
X197469026Y-128526251D01*
X197364709Y-128504904D01*
X197306388Y-128471232D01*
X197235742Y-128391564D01*
X197211092Y-128299571D01*
X197232439Y-128195253D01*
X197266111Y-128136932D01*
X197345779Y-128066286D01*
X197575762Y-128004663D01*
X197726076Y-128013685D01*
X198524528Y-128785718D02*
X198420210Y-128764371D01*
X198361889Y-128730699D01*
X198291243Y-128651031D01*
X198217295Y-128375052D01*
X198238642Y-128270734D01*
X198272313Y-128212413D01*
X198351982Y-128141767D01*
X198489971Y-128104793D01*
X198594289Y-128126140D01*
X198652610Y-128159812D01*
X198723256Y-128239480D01*
X198797204Y-128515459D01*
X198775857Y-128619777D01*
X198742185Y-128678098D01*
X198662517Y-128748744D01*
X198524528Y-128785718D01*
X198949936Y-127981546D02*
X199317907Y-127882948D01*
X199260471Y-128588522D02*
X199038626Y-127760586D01*
X199059973Y-127656268D01*
X199139641Y-127585622D01*
X199231634Y-127560973D01*
X199950418Y-128403652D02*
X199846100Y-128382305D01*
X199775455Y-128302636D01*
X199553610Y-127474700D01*
X200674037Y-128160460D02*
X200594369Y-128231106D01*
X200410383Y-128280404D01*
X200306065Y-128259057D01*
X200235419Y-128179389D01*
X200136821Y-127811417D01*
X200158169Y-127707100D01*
X200237837Y-127636454D01*
X200421823Y-127587155D01*
X200526140Y-127608502D01*
X200596786Y-127688170D01*
X200621436Y-127780163D01*
X200186120Y-127995403D01*
X201882270Y-127886014D02*
X201623451Y-126920088D01*
X202434227Y-127738117D02*
X201872363Y-127297082D01*
X202175408Y-126772191D02*
X201771347Y-127472045D01*
X203203843Y-127482600D02*
X203124174Y-127553246D01*
X202940189Y-127602545D01*
X202835871Y-127581198D01*
X202765225Y-127501530D01*
X202666627Y-127133558D01*
X202687974Y-127029240D01*
X202767642Y-126958595D01*
X202951628Y-126909296D01*
X203055946Y-126930643D01*
X203126592Y-127010311D01*
X203151241Y-127102304D01*
X202715926Y-127317544D01*
X203411593Y-126786048D02*
X203814121Y-127368375D01*
X203871558Y-126662801D02*
X203814121Y-127368375D01*
X203783752Y-127623007D01*
X203750080Y-127681328D01*
X203670412Y-127751974D01*
X204412075Y-127208154D02*
X204153256Y-126242228D01*
X204251854Y-126610200D02*
X204331522Y-126539554D01*
X204515508Y-126490255D01*
X204619826Y-126511602D01*
X204678147Y-126545274D01*
X204748793Y-126624942D01*
X204822741Y-126900921D01*
X204801394Y-127005239D01*
X204767723Y-127063560D01*
X204688054Y-127134206D01*
X204504068Y-127183505D01*
X204399751Y-127162158D01*
X205423998Y-126937010D02*
X205319680Y-126915663D01*
X205261359Y-126881992D01*
X205190713Y-126802323D01*
X205116765Y-126526345D01*
X205138112Y-126422027D01*
X205171784Y-126363706D01*
X205251452Y-126293060D01*
X205389441Y-126256086D01*
X205493759Y-126277433D01*
X205552080Y-126311104D01*
X205622726Y-126390773D01*
X205696674Y-126666752D01*
X205675327Y-126771069D01*
X205641655Y-126829390D01*
X205561987Y-126900036D01*
X205423998Y-126937010D01*
X206573909Y-126628892D02*
X206438338Y-126122931D01*
X206367692Y-126043263D01*
X206263374Y-126021916D01*
X206079388Y-126071215D01*
X205999720Y-126141861D01*
X206561585Y-126582896D02*
X206481917Y-126653542D01*
X206251934Y-126715165D01*
X206147617Y-126693818D01*
X206076971Y-126614150D01*
X206052321Y-126522157D01*
X206073668Y-126417840D01*
X206153336Y-126347194D01*
X206383319Y-126285570D01*
X206462987Y-126214924D01*
X207033874Y-126505645D02*
X206861328Y-125861695D01*
X206910627Y-126045681D02*
X206931974Y-125941363D01*
X206965646Y-125883042D01*
X207045314Y-125812396D01*
X207137307Y-125787746D01*
X208045796Y-126234502D02*
X207786977Y-125268576D01*
X208033472Y-126188505D02*
X207953804Y-126259151D01*
X207769818Y-126308450D01*
X207665500Y-126287103D01*
X207607179Y-126253431D01*
X207536533Y-126173763D01*
X207462585Y-125897784D01*
X207483932Y-125793466D01*
X207517603Y-125735145D01*
X207597272Y-125664499D01*
X207781257Y-125615200D01*
X207885575Y-125636547D01*
X209241705Y-125914059D02*
X208982886Y-124948133D01*
X209081483Y-125316105D02*
X209161152Y-125245459D01*
X209345137Y-125196160D01*
X209449455Y-125217507D01*
X209507776Y-125251179D01*
X209578422Y-125330847D01*
X209652370Y-125606826D01*
X209631023Y-125711144D01*
X209597352Y-125769465D01*
X209517683Y-125840111D01*
X209333698Y-125889409D01*
X209229380Y-125868062D01*
X209851099Y-125060588D02*
X210253627Y-125642915D01*
X210311063Y-124937341D02*
X210253627Y-125642915D01*
X210223258Y-125897547D01*
X210189586Y-125955868D01*
X210109918Y-126026514D01*
X211604684Y-124245624D02*
X211789555Y-124935571D01*
X211780533Y-125085885D01*
X211713189Y-125202528D01*
X211587524Y-125285498D01*
X211495532Y-125310148D01*
X212461457Y-125051329D02*
X212357140Y-125029982D01*
X212298819Y-124996310D01*
X212228173Y-124916642D01*
X212154224Y-124640663D01*
X212175571Y-124536345D01*
X212209243Y-124478024D01*
X212288911Y-124407378D01*
X212426901Y-124370404D01*
X212531218Y-124391751D01*
X212589540Y-124425423D01*
X212660185Y-124505091D01*
X212734134Y-124781070D01*
X212712787Y-124885388D01*
X212679115Y-124943709D01*
X212599447Y-125014355D01*
X212461457Y-125051329D01*
X213139080Y-124820462D02*
X213243397Y-124841809D01*
X213427383Y-124792510D01*
X213507051Y-124721864D01*
X213528398Y-124617546D01*
X213516074Y-124571550D01*
X213445428Y-124491881D01*
X213341110Y-124470534D01*
X213203121Y-124507509D01*
X213098803Y-124486162D01*
X213028157Y-124406493D01*
X213015832Y-124360497D01*
X213037180Y-124256179D01*
X213116848Y-124185533D01*
X213254837Y-124148559D01*
X213359155Y-124169906D01*
X214334988Y-124500019D02*
X214255320Y-124570665D01*
X214071334Y-124619964D01*
X213967016Y-124598617D01*
X213896370Y-124518948D01*
X213797772Y-124150977D01*
X213819119Y-124046659D01*
X213898788Y-123976013D01*
X214082774Y-123926714D01*
X214187091Y-123948061D01*
X214257737Y-124027730D01*
X214282387Y-124119722D01*
X213847071Y-124334963D01*
X214496742Y-123815792D02*
X214864714Y-123717194D01*
X214807277Y-124422768D02*
X214585432Y-123594832D01*
X214606779Y-123490514D01*
X214686448Y-123419868D01*
X214778441Y-123395219D01*
X215975234Y-123814022D02*
X216435198Y-123690775D01*
X215957189Y-124114650D02*
X216020345Y-123062451D01*
X216601139Y-123942104D01*
X217337083Y-123744909D02*
X217078264Y-122778983D01*
X217324758Y-123698912D02*
X217245090Y-123769558D01*
X217061104Y-123818857D01*
X216956787Y-123797510D01*
X216898465Y-123763838D01*
X216827819Y-123684170D01*
X216753871Y-123408191D01*
X216775218Y-123303874D01*
X216808890Y-123245552D01*
X216888558Y-123174907D01*
X217072544Y-123125608D01*
X217176862Y-123146955D01*
X218211016Y-123510739D02*
X218075444Y-123004778D01*
X218004798Y-122925110D01*
X217900480Y-122903763D01*
X217716495Y-122953062D01*
X217636826Y-123023708D01*
X218198691Y-123464743D02*
X218119023Y-123535389D01*
X217889041Y-123597012D01*
X217784723Y-123575665D01*
X217714077Y-123495997D01*
X217689428Y-123404004D01*
X217710775Y-123299686D01*
X217790443Y-123229040D01*
X218020425Y-123167417D01*
X218100093Y-123096771D01*
X218670981Y-123387492D02*
X218498435Y-122743542D01*
X218523084Y-122835534D02*
X218556756Y-122777213D01*
X218636424Y-122706567D01*
X218774413Y-122669593D01*
X218878731Y-122690940D01*
X218949377Y-122770608D01*
X219084949Y-123276570D01*
X218949377Y-122770608D02*
X218970724Y-122666291D01*
X219050392Y-122595645D01*
X219188382Y-122558671D01*
X219292699Y-122580018D01*
X219363345Y-122659686D01*
X219498917Y-123165647D01*
X220360525Y-122885481D02*
X220280857Y-122956127D01*
X220096871Y-123005426D01*
X219992553Y-122984079D01*
X219934232Y-122950407D01*
X219863586Y-122870739D01*
X219789638Y-122594760D01*
X219810985Y-122490442D01*
X219844657Y-122432121D01*
X219924325Y-122361475D01*
X220108311Y-122312176D01*
X220212629Y-122333523D01*
X220786818Y-122820555D02*
X220614272Y-122176605D01*
X220527999Y-121854629D02*
X220494327Y-121912950D01*
X220552648Y-121946622D01*
X220586320Y-121888301D01*
X220527999Y-121854629D01*
X220552648Y-121946622D01*
X221246783Y-122697308D02*
X220987964Y-121731382D01*
X221240178Y-122304687D02*
X221614754Y-122598710D01*
X221442208Y-121954760D02*
X221172834Y-122421329D01*
X144601428Y-132006761D02*
X144744285Y-132054380D01*
X144982380Y-132054380D01*
X145077619Y-132006761D01*
X145125238Y-131959142D01*
X145172857Y-131863904D01*
X145172857Y-131768666D01*
X145125238Y-131673428D01*
X145077619Y-131625809D01*
X144982380Y-131578190D01*
X144791904Y-131530571D01*
X144696666Y-131482952D01*
X144649047Y-131435333D01*
X144601428Y-131340095D01*
X144601428Y-131244857D01*
X144649047Y-131149619D01*
X144696666Y-131102000D01*
X144791904Y-131054380D01*
X145030000Y-131054380D01*
X145172857Y-131102000D01*
X145744285Y-132054380D02*
X145649047Y-132006761D01*
X145601428Y-131959142D01*
X145553809Y-131863904D01*
X145553809Y-131578190D01*
X145601428Y-131482952D01*
X145649047Y-131435333D01*
X145744285Y-131387714D01*
X145887142Y-131387714D01*
X145982380Y-131435333D01*
X146030000Y-131482952D01*
X146077619Y-131578190D01*
X146077619Y-131863904D01*
X146030000Y-131959142D01*
X145982380Y-132006761D01*
X145887142Y-132054380D01*
X145744285Y-132054380D01*
X146363333Y-131387714D02*
X146744285Y-131387714D01*
X146506190Y-132054380D02*
X146506190Y-131197238D01*
X146553809Y-131102000D01*
X146649047Y-131054380D01*
X146744285Y-131054380D01*
X147220476Y-132054380D02*
X147125238Y-132006761D01*
X147077619Y-131911523D01*
X147077619Y-131054380D01*
X147982380Y-132006761D02*
X147887142Y-132054380D01*
X147696666Y-132054380D01*
X147601428Y-132006761D01*
X147553809Y-131911523D01*
X147553809Y-131530571D01*
X147601428Y-131435333D01*
X147696666Y-131387714D01*
X147887142Y-131387714D01*
X147982380Y-131435333D01*
X148030000Y-131530571D01*
X148030000Y-131625809D01*
X147553809Y-131721047D01*
X149125238Y-131387714D02*
X149363333Y-132054380D01*
X149601428Y-131387714D01*
X149934761Y-131149619D02*
X149982380Y-131102000D01*
X150077619Y-131054380D01*
X150315714Y-131054380D01*
X150410952Y-131102000D01*
X150458571Y-131149619D01*
X150506190Y-131244857D01*
X150506190Y-131340095D01*
X150458571Y-131482952D01*
X149887142Y-132054380D01*
X150506190Y-132054380D01*
X150934761Y-131959142D02*
X150982380Y-132006761D01*
X150934761Y-132054380D01*
X150887142Y-132006761D01*
X150934761Y-131959142D01*
X150934761Y-132054380D01*
X151934761Y-132054380D02*
X151363333Y-132054380D01*
X151649047Y-132054380D02*
X151649047Y-131054380D01*
X151553809Y-131197238D01*
X151458571Y-131292476D01*
X151363333Y-131340095D01*
X153077619Y-132006761D02*
X153172857Y-132054380D01*
X153363333Y-132054380D01*
X153458571Y-132006761D01*
X153506190Y-131911523D01*
X153506190Y-131863904D01*
X153458571Y-131768666D01*
X153363333Y-131721047D01*
X153220476Y-131721047D01*
X153125238Y-131673428D01*
X153077619Y-131578190D01*
X153077619Y-131530571D01*
X153125238Y-131435333D01*
X153220476Y-131387714D01*
X153363333Y-131387714D01*
X153458571Y-131435333D01*
X154077619Y-132054380D02*
X153982380Y-132006761D01*
X153934761Y-131959142D01*
X153887142Y-131863904D01*
X153887142Y-131578190D01*
X153934761Y-131482952D01*
X153982380Y-131435333D01*
X154077619Y-131387714D01*
X154220476Y-131387714D01*
X154315714Y-131435333D01*
X154363333Y-131482952D01*
X154410952Y-131578190D01*
X154410952Y-131863904D01*
X154363333Y-131959142D01*
X154315714Y-132006761D01*
X154220476Y-132054380D01*
X154077619Y-132054380D01*
X154982380Y-132054380D02*
X154887142Y-132006761D01*
X154839523Y-131911523D01*
X154839523Y-131054380D01*
X155791904Y-132054380D02*
X155791904Y-131054380D01*
X155791904Y-132006761D02*
X155696666Y-132054380D01*
X155506190Y-132054380D01*
X155410952Y-132006761D01*
X155363333Y-131959142D01*
X155315714Y-131863904D01*
X155315714Y-131578190D01*
X155363333Y-131482952D01*
X155410952Y-131435333D01*
X155506190Y-131387714D01*
X155696666Y-131387714D01*
X155791904Y-131435333D01*
X156649047Y-132006761D02*
X156553809Y-132054380D01*
X156363333Y-132054380D01*
X156268095Y-132006761D01*
X156220476Y-131911523D01*
X156220476Y-131530571D01*
X156268095Y-131435333D01*
X156363333Y-131387714D01*
X156553809Y-131387714D01*
X156649047Y-131435333D01*
X156696666Y-131530571D01*
X156696666Y-131625809D01*
X156220476Y-131721047D01*
X157125238Y-132054380D02*
X157125238Y-131387714D01*
X157125238Y-131578190D02*
X157172857Y-131482952D01*
X157220476Y-131435333D01*
X157315714Y-131387714D01*
X157410952Y-131387714D01*
X158887142Y-132006761D02*
X158791904Y-132054380D01*
X158601428Y-132054380D01*
X158506190Y-132006761D01*
X158458571Y-131911523D01*
X158458571Y-131530571D01*
X158506190Y-131435333D01*
X158601428Y-131387714D01*
X158791904Y-131387714D01*
X158887142Y-131435333D01*
X158934761Y-131530571D01*
X158934761Y-131625809D01*
X158458571Y-131721047D01*
X159791904Y-132054380D02*
X159791904Y-131054380D01*
X159791904Y-132006761D02*
X159696666Y-132054380D01*
X159506190Y-132054380D01*
X159410952Y-132006761D01*
X159363333Y-131959142D01*
X159315714Y-131863904D01*
X159315714Y-131578190D01*
X159363333Y-131482952D01*
X159410952Y-131435333D01*
X159506190Y-131387714D01*
X159696666Y-131387714D01*
X159791904Y-131435333D01*
X160268095Y-132054380D02*
X160268095Y-131387714D01*
X160268095Y-131054380D02*
X160220476Y-131102000D01*
X160268095Y-131149619D01*
X160315714Y-131102000D01*
X160268095Y-131054380D01*
X160268095Y-131149619D01*
X160601428Y-131387714D02*
X160982380Y-131387714D01*
X160744285Y-131054380D02*
X160744285Y-131911523D01*
X160791904Y-132006761D01*
X160887142Y-132054380D01*
X160982380Y-132054380D01*
X161315714Y-132054380D02*
X161315714Y-131387714D01*
X161315714Y-131054380D02*
X161268095Y-131102000D01*
X161315714Y-131149619D01*
X161363333Y-131102000D01*
X161315714Y-131054380D01*
X161315714Y-131149619D01*
X161934761Y-132054380D02*
X161839523Y-132006761D01*
X161791904Y-131959142D01*
X161744285Y-131863904D01*
X161744285Y-131578190D01*
X161791904Y-131482952D01*
X161839523Y-131435333D01*
X161934761Y-131387714D01*
X162077619Y-131387714D01*
X162172857Y-131435333D01*
X162220476Y-131482952D01*
X162268095Y-131578190D01*
X162268095Y-131863904D01*
X162220476Y-131959142D01*
X162172857Y-132006761D01*
X162077619Y-132054380D01*
X161934761Y-132054380D01*
X162696666Y-131387714D02*
X162696666Y-132054380D01*
X162696666Y-131482952D02*
X162744285Y-131435333D01*
X162839523Y-131387714D01*
X162982380Y-131387714D01*
X163077619Y-131435333D01*
X163125238Y-131530571D01*
X163125238Y-132054380D01*
X164363333Y-132054380D02*
X164363333Y-131054380D01*
X164363333Y-131435333D02*
X164458571Y-131387714D01*
X164649047Y-131387714D01*
X164744285Y-131435333D01*
X164791904Y-131482952D01*
X164839523Y-131578190D01*
X164839523Y-131863904D01*
X164791904Y-131959142D01*
X164744285Y-132006761D01*
X164649047Y-132054380D01*
X164458571Y-132054380D01*
X164363333Y-132006761D01*
X165172857Y-131387714D02*
X165410952Y-132054380D01*
X165649047Y-131387714D02*
X165410952Y-132054380D01*
X165315714Y-132292476D01*
X165268095Y-132340095D01*
X165172857Y-132387714D01*
X166791904Y-132054380D02*
X166791904Y-131054380D01*
X166887142Y-131673428D02*
X167172857Y-132054380D01*
X167172857Y-131387714D02*
X166791904Y-131768666D01*
X167601428Y-132054380D02*
X167601428Y-131054380D01*
X167601428Y-131435333D02*
X167696666Y-131387714D01*
X167887142Y-131387714D01*
X167982380Y-131435333D01*
X168030000Y-131482952D01*
X168077619Y-131578190D01*
X168077619Y-131863904D01*
X168030000Y-131959142D01*
X167982380Y-132006761D01*
X167887142Y-132054380D01*
X167696666Y-132054380D01*
X167601428Y-132006761D01*
X168268095Y-132149619D02*
X169030000Y-132149619D01*
X169649047Y-132006761D02*
X169553809Y-132054380D01*
X169363333Y-132054380D01*
X169268095Y-132006761D01*
X169220476Y-131911523D01*
X169220476Y-131530571D01*
X169268095Y-131435333D01*
X169363333Y-131387714D01*
X169553809Y-131387714D01*
X169649047Y-131435333D01*
X169696666Y-131530571D01*
X169696666Y-131625809D01*
X169220476Y-131721047D01*
X170268095Y-132054380D02*
X170172857Y-132006761D01*
X170125238Y-131911523D01*
X170125238Y-131054380D01*
X170649047Y-132054380D02*
X170649047Y-131387714D01*
X170649047Y-131482952D02*
X170696666Y-131435333D01*
X170791904Y-131387714D01*
X170934761Y-131387714D01*
X171030000Y-131435333D01*
X171077619Y-131530571D01*
X171077619Y-132054380D01*
X171077619Y-131530571D02*
X171125238Y-131435333D01*
X171220476Y-131387714D01*
X171363333Y-131387714D01*
X171458571Y-131435333D01*
X171506190Y-131530571D01*
X171506190Y-132054380D01*
X172125238Y-132054380D02*
X172030000Y-132006761D01*
X171982380Y-131959142D01*
X171934761Y-131863904D01*
X171934761Y-131578190D01*
X171982380Y-131482952D01*
X172030000Y-131435333D01*
X172125238Y-131387714D01*
X172268095Y-131387714D01*
X172363333Y-131435333D01*
X172410952Y-131482952D01*
X172458571Y-131578190D01*
X172458571Y-131863904D01*
X172410952Y-131959142D01*
X172363333Y-132006761D01*
X172268095Y-132054380D01*
X172125238Y-132054380D01*
X93948523Y-63421904D02*
X93948523Y-62621904D01*
X94139000Y-62621904D01*
X94253285Y-62660000D01*
X94329476Y-62736190D01*
X94367571Y-62812380D01*
X94405666Y-62964761D01*
X94405666Y-63079047D01*
X94367571Y-63231428D01*
X94329476Y-63307619D01*
X94253285Y-63383809D01*
X94139000Y-63421904D01*
X93948523Y-63421904D01*
X94672333Y-62621904D02*
X95205666Y-62621904D01*
X94862809Y-63421904D01*
X93948523Y-58341904D02*
X93948523Y-57541904D01*
X94139000Y-57541904D01*
X94253285Y-57580000D01*
X94329476Y-57656190D01*
X94367571Y-57732380D01*
X94405666Y-57884761D01*
X94405666Y-57999047D01*
X94367571Y-58151428D01*
X94329476Y-58227619D01*
X94253285Y-58303809D01*
X94139000Y-58341904D01*
X93948523Y-58341904D01*
X95091380Y-57808571D02*
X95091380Y-58341904D01*
X94900904Y-57503809D02*
X94710428Y-58075238D01*
X95205666Y-58075238D01*
X104908619Y-43101904D02*
X104641952Y-42720952D01*
X104451476Y-43101904D02*
X104451476Y-42301904D01*
X104756238Y-42301904D01*
X104832428Y-42340000D01*
X104870523Y-42378095D01*
X104908619Y-42454285D01*
X104908619Y-42568571D01*
X104870523Y-42644761D01*
X104832428Y-42682857D01*
X104756238Y-42720952D01*
X104451476Y-42720952D01*
X105213380Y-42873333D02*
X105594333Y-42873333D01*
X105137190Y-43101904D02*
X105403857Y-42301904D01*
X105670523Y-43101904D01*
X105861000Y-42301904D02*
X106051476Y-43101904D01*
X106203857Y-42530476D01*
X106356238Y-43101904D01*
X106546714Y-42301904D01*
X105194333Y-52842857D02*
X104927666Y-52842857D01*
X104927666Y-53261904D02*
X104927666Y-52461904D01*
X105308619Y-52461904D01*
X105956238Y-52728571D02*
X105956238Y-53261904D01*
X105765761Y-52423809D02*
X105575285Y-52995238D01*
X106070523Y-52995238D01*
X94237651Y-42301904D02*
X94694794Y-42301904D01*
X94466223Y-43101904D02*
X94466223Y-42301904D01*
X94885270Y-42301904D02*
X95418604Y-43101904D01*
X95418604Y-42301904D02*
X94885270Y-43101904D01*
X95875747Y-42301904D02*
X95951937Y-42301904D01*
X96028128Y-42340000D01*
X96066223Y-42378095D01*
X96104318Y-42454285D01*
X96142413Y-42606666D01*
X96142413Y-42797142D01*
X96104318Y-42949523D01*
X96066223Y-43025714D01*
X96028128Y-43063809D01*
X95951937Y-43101904D01*
X95875747Y-43101904D01*
X95799556Y-43063809D01*
X95761461Y-43025714D01*
X95723366Y-42949523D01*
X95685270Y-42797142D01*
X95685270Y-42606666D01*
X95723366Y-42454285D01*
X95761461Y-42378095D01*
X95799556Y-42340000D01*
X95875747Y-42301904D01*
X97056699Y-42263809D02*
X96370985Y-43292380D01*
X97323366Y-43101904D02*
X97323366Y-42301904D01*
X97513842Y-42301904D01*
X97628128Y-42340000D01*
X97704318Y-42416190D01*
X97742413Y-42492380D01*
X97780508Y-42644761D01*
X97780508Y-42759047D01*
X97742413Y-42911428D01*
X97704318Y-42987619D01*
X97628128Y-43063809D01*
X97513842Y-43101904D01*
X97323366Y-43101904D01*
X98047175Y-42301904D02*
X98542413Y-42301904D01*
X98275747Y-42606666D01*
X98390032Y-42606666D01*
X98466223Y-42644761D01*
X98504318Y-42682857D01*
X98542413Y-42759047D01*
X98542413Y-42949523D01*
X98504318Y-43025714D01*
X98466223Y-43063809D01*
X98390032Y-43101904D01*
X98161461Y-43101904D01*
X98085270Y-43063809D01*
X98047175Y-43025714D01*
X105263990Y-70622857D02*
X105378276Y-70660952D01*
X105416371Y-70699047D01*
X105454466Y-70775238D01*
X105454466Y-70889523D01*
X105416371Y-70965714D01*
X105378276Y-71003809D01*
X105302085Y-71041904D01*
X104997323Y-71041904D01*
X104997323Y-70241904D01*
X105263990Y-70241904D01*
X105340180Y-70280000D01*
X105378276Y-70318095D01*
X105416371Y-70394285D01*
X105416371Y-70470476D01*
X105378276Y-70546666D01*
X105340180Y-70584761D01*
X105263990Y-70622857D01*
X104997323Y-70622857D01*
X106140180Y-70241904D02*
X105987800Y-70241904D01*
X105911609Y-70280000D01*
X105873514Y-70318095D01*
X105797323Y-70432380D01*
X105759228Y-70584761D01*
X105759228Y-70889523D01*
X105797323Y-70965714D01*
X105835419Y-71003809D01*
X105911609Y-71041904D01*
X106063990Y-71041904D01*
X106140180Y-71003809D01*
X106178276Y-70965714D01*
X106216371Y-70889523D01*
X106216371Y-70699047D01*
X106178276Y-70622857D01*
X106140180Y-70584761D01*
X106063990Y-70546666D01*
X105911609Y-70546666D01*
X105835419Y-70584761D01*
X105797323Y-70622857D01*
X105759228Y-70699047D01*
X105137190Y-63002857D02*
X105251476Y-63040952D01*
X105289571Y-63079047D01*
X105327666Y-63155238D01*
X105327666Y-63269523D01*
X105289571Y-63345714D01*
X105251476Y-63383809D01*
X105175285Y-63421904D01*
X104870523Y-63421904D01*
X104870523Y-62621904D01*
X105137190Y-62621904D01*
X105213380Y-62660000D01*
X105251476Y-62698095D01*
X105289571Y-62774285D01*
X105289571Y-62850476D01*
X105251476Y-62926666D01*
X105213380Y-62964761D01*
X105137190Y-63002857D01*
X104870523Y-63002857D01*
X106089571Y-63421904D02*
X105632428Y-63421904D01*
X105861000Y-63421904D02*
X105861000Y-62621904D01*
X105784809Y-62736190D01*
X105708619Y-62812380D01*
X105632428Y-62850476D01*
X93986619Y-65542857D02*
X94253285Y-65542857D01*
X94367571Y-65961904D02*
X93986619Y-65961904D01*
X93986619Y-65161904D01*
X94367571Y-65161904D01*
X95053285Y-65161904D02*
X94900904Y-65161904D01*
X94824714Y-65200000D01*
X94786619Y-65238095D01*
X94710428Y-65352380D01*
X94672333Y-65504761D01*
X94672333Y-65809523D01*
X94710428Y-65885714D01*
X94748523Y-65923809D01*
X94824714Y-65961904D01*
X94977095Y-65961904D01*
X95053285Y-65923809D01*
X95091380Y-65885714D01*
X95129476Y-65809523D01*
X95129476Y-65619047D01*
X95091380Y-65542857D01*
X95053285Y-65504761D01*
X94977095Y-65466666D01*
X94824714Y-65466666D01*
X94748523Y-65504761D01*
X94710428Y-65542857D01*
X94672333Y-65619047D01*
X94215190Y-70622857D02*
X94329476Y-70660952D01*
X94367571Y-70699047D01*
X94405666Y-70775238D01*
X94405666Y-70889523D01*
X94367571Y-70965714D01*
X94329476Y-71003809D01*
X94253285Y-71041904D01*
X93948523Y-71041904D01*
X93948523Y-70241904D01*
X94215190Y-70241904D01*
X94291380Y-70280000D01*
X94329476Y-70318095D01*
X94367571Y-70394285D01*
X94367571Y-70470476D01*
X94329476Y-70546666D01*
X94291380Y-70584761D01*
X94215190Y-70622857D01*
X93948523Y-70622857D01*
X95129476Y-70241904D02*
X94748523Y-70241904D01*
X94710428Y-70622857D01*
X94748523Y-70584761D01*
X94824714Y-70546666D01*
X95015190Y-70546666D01*
X95091380Y-70584761D01*
X95129476Y-70622857D01*
X95167571Y-70699047D01*
X95167571Y-70889523D01*
X95129476Y-70965714D01*
X95091380Y-71003809D01*
X95015190Y-71041904D01*
X94824714Y-71041904D01*
X94748523Y-71003809D01*
X94710428Y-70965714D01*
X93948523Y-53261904D02*
X93948523Y-52461904D01*
X94139000Y-52461904D01*
X94253285Y-52500000D01*
X94329476Y-52576190D01*
X94367571Y-52652380D01*
X94405666Y-52804761D01*
X94405666Y-52919047D01*
X94367571Y-53071428D01*
X94329476Y-53147619D01*
X94253285Y-53223809D01*
X94139000Y-53261904D01*
X93948523Y-53261904D01*
X95167571Y-53261904D02*
X94710428Y-53261904D01*
X94939000Y-53261904D02*
X94939000Y-52461904D01*
X94862809Y-52576190D01*
X94786619Y-52652380D01*
X94710428Y-52690476D01*
X94215190Y-68082857D02*
X94329476Y-68120952D01*
X94367571Y-68159047D01*
X94405666Y-68235238D01*
X94405666Y-68349523D01*
X94367571Y-68425714D01*
X94329476Y-68463809D01*
X94253285Y-68501904D01*
X93948523Y-68501904D01*
X93948523Y-67701904D01*
X94215190Y-67701904D01*
X94291380Y-67740000D01*
X94329476Y-67778095D01*
X94367571Y-67854285D01*
X94367571Y-67930476D01*
X94329476Y-68006666D01*
X94291380Y-68044761D01*
X94215190Y-68082857D01*
X93948523Y-68082857D01*
X95091380Y-67968571D02*
X95091380Y-68501904D01*
X94900904Y-67663809D02*
X94710428Y-68235238D01*
X95205666Y-68235238D01*
X93948523Y-45641904D02*
X93948523Y-44841904D01*
X94139000Y-44841904D01*
X94253285Y-44880000D01*
X94329476Y-44956190D01*
X94367571Y-45032380D01*
X94405666Y-45184761D01*
X94405666Y-45299047D01*
X94367571Y-45451428D01*
X94329476Y-45527619D01*
X94253285Y-45603809D01*
X94139000Y-45641904D01*
X93948523Y-45641904D01*
X94710428Y-44918095D02*
X94748523Y-44880000D01*
X94824714Y-44841904D01*
X95015190Y-44841904D01*
X95091380Y-44880000D01*
X95129476Y-44918095D01*
X95167571Y-44994285D01*
X95167571Y-45070476D01*
X95129476Y-45184761D01*
X94672333Y-45641904D01*
X95167571Y-45641904D01*
X94405666Y-60805714D02*
X94367571Y-60843809D01*
X94253285Y-60881904D01*
X94177095Y-60881904D01*
X94062809Y-60843809D01*
X93986619Y-60767619D01*
X93948523Y-60691428D01*
X93910428Y-60539047D01*
X93910428Y-60424761D01*
X93948523Y-60272380D01*
X93986619Y-60196190D01*
X94062809Y-60120000D01*
X94177095Y-60081904D01*
X94253285Y-60081904D01*
X94367571Y-60120000D01*
X94405666Y-60158095D01*
X95091380Y-60081904D02*
X94939000Y-60081904D01*
X94862809Y-60120000D01*
X94824714Y-60158095D01*
X94748523Y-60272380D01*
X94710428Y-60424761D01*
X94710428Y-60729523D01*
X94748523Y-60805714D01*
X94786619Y-60843809D01*
X94862809Y-60881904D01*
X95015190Y-60881904D01*
X95091380Y-60843809D01*
X95129476Y-60805714D01*
X95167571Y-60729523D01*
X95167571Y-60539047D01*
X95129476Y-60462857D01*
X95091380Y-60424761D01*
X95015190Y-60386666D01*
X94862809Y-60386666D01*
X94786619Y-60424761D01*
X94748523Y-60462857D01*
X94710428Y-60539047D01*
X104190933Y-49930104D02*
X104457600Y-50730104D01*
X104724266Y-49930104D01*
X105448076Y-50653914D02*
X105409980Y-50692009D01*
X105295695Y-50730104D01*
X105219504Y-50730104D01*
X105105219Y-50692009D01*
X105029028Y-50615819D01*
X104990933Y-50539628D01*
X104952838Y-50387247D01*
X104952838Y-50272961D01*
X104990933Y-50120580D01*
X105029028Y-50044390D01*
X105105219Y-49968200D01*
X105219504Y-49930104D01*
X105295695Y-49930104D01*
X105409980Y-49968200D01*
X105448076Y-50006295D01*
X106248076Y-50653914D02*
X106209980Y-50692009D01*
X106095695Y-50730104D01*
X106019504Y-50730104D01*
X105905219Y-50692009D01*
X105829028Y-50615819D01*
X105790933Y-50539628D01*
X105752838Y-50387247D01*
X105752838Y-50272961D01*
X105790933Y-50120580D01*
X105829028Y-50044390D01*
X105905219Y-49968200D01*
X106019504Y-49930104D01*
X106095695Y-49930104D01*
X106209980Y-49968200D01*
X106248076Y-50006295D01*
X93948523Y-55801904D02*
X93948523Y-55001904D01*
X94139000Y-55001904D01*
X94253285Y-55040000D01*
X94329476Y-55116190D01*
X94367571Y-55192380D01*
X94405666Y-55344761D01*
X94405666Y-55459047D01*
X94367571Y-55611428D01*
X94329476Y-55687619D01*
X94253285Y-55763809D01*
X94139000Y-55801904D01*
X93948523Y-55801904D01*
X94900904Y-55001904D02*
X94977095Y-55001904D01*
X95053285Y-55040000D01*
X95091380Y-55078095D01*
X95129476Y-55154285D01*
X95167571Y-55306666D01*
X95167571Y-55497142D01*
X95129476Y-55649523D01*
X95091380Y-55725714D01*
X95053285Y-55763809D01*
X94977095Y-55801904D01*
X94900904Y-55801904D01*
X94824714Y-55763809D01*
X94786619Y-55725714D01*
X94748523Y-55649523D01*
X94710428Y-55497142D01*
X94710428Y-55306666D01*
X94748523Y-55154285D01*
X94786619Y-55078095D01*
X94824714Y-55040000D01*
X94900904Y-55001904D01*
X105199786Y-48113809D02*
X105314072Y-48151904D01*
X105504548Y-48151904D01*
X105580739Y-48113809D01*
X105618834Y-48075714D01*
X105656929Y-47999523D01*
X105656929Y-47923333D01*
X105618834Y-47847142D01*
X105580739Y-47809047D01*
X105504548Y-47770952D01*
X105352167Y-47732857D01*
X105275977Y-47694761D01*
X105237881Y-47656666D01*
X105199786Y-47580476D01*
X105199786Y-47504285D01*
X105237881Y-47428095D01*
X105275977Y-47390000D01*
X105352167Y-47351904D01*
X105542643Y-47351904D01*
X105656929Y-47390000D01*
X105885500Y-47351904D02*
X106342643Y-47351904D01*
X106114072Y-48151904D02*
X106114072Y-47351904D01*
X105137190Y-65542857D02*
X105251476Y-65580952D01*
X105289571Y-65619047D01*
X105327666Y-65695238D01*
X105327666Y-65809523D01*
X105289571Y-65885714D01*
X105251476Y-65923809D01*
X105175285Y-65961904D01*
X104870523Y-65961904D01*
X104870523Y-65161904D01*
X105137190Y-65161904D01*
X105213380Y-65200000D01*
X105251476Y-65238095D01*
X105289571Y-65314285D01*
X105289571Y-65390476D01*
X105251476Y-65466666D01*
X105213380Y-65504761D01*
X105137190Y-65542857D01*
X104870523Y-65542857D01*
X105594333Y-65161904D02*
X106089571Y-65161904D01*
X105822904Y-65466666D01*
X105937190Y-65466666D01*
X106013380Y-65504761D01*
X106051476Y-65542857D01*
X106089571Y-65619047D01*
X106089571Y-65809523D01*
X106051476Y-65885714D01*
X106013380Y-65923809D01*
X105937190Y-65961904D01*
X105708619Y-65961904D01*
X105632428Y-65923809D01*
X105594333Y-65885714D01*
X105194333Y-57922857D02*
X104927666Y-57922857D01*
X104927666Y-58341904D02*
X104927666Y-57541904D01*
X105308619Y-57541904D01*
X105956238Y-57541904D02*
X105803857Y-57541904D01*
X105727666Y-57580000D01*
X105689571Y-57618095D01*
X105613380Y-57732380D01*
X105575285Y-57884761D01*
X105575285Y-58189523D01*
X105613380Y-58265714D01*
X105651476Y-58303809D01*
X105727666Y-58341904D01*
X105880047Y-58341904D01*
X105956238Y-58303809D01*
X105994333Y-58265714D01*
X106032428Y-58189523D01*
X106032428Y-57999047D01*
X105994333Y-57922857D01*
X105956238Y-57884761D01*
X105880047Y-57846666D01*
X105727666Y-57846666D01*
X105651476Y-57884761D01*
X105613380Y-57922857D01*
X105575285Y-57999047D01*
X105314790Y-68082857D02*
X105429076Y-68120952D01*
X105467171Y-68159047D01*
X105505266Y-68235238D01*
X105505266Y-68349523D01*
X105467171Y-68425714D01*
X105429076Y-68463809D01*
X105352885Y-68501904D01*
X105048123Y-68501904D01*
X105048123Y-67701904D01*
X105314790Y-67701904D01*
X105390980Y-67740000D01*
X105429076Y-67778095D01*
X105467171Y-67854285D01*
X105467171Y-67930476D01*
X105429076Y-68006666D01*
X105390980Y-68044761D01*
X105314790Y-68082857D01*
X105048123Y-68082857D01*
X105810028Y-67778095D02*
X105848123Y-67740000D01*
X105924314Y-67701904D01*
X106114790Y-67701904D01*
X106190980Y-67740000D01*
X106229076Y-67778095D01*
X106267171Y-67854285D01*
X106267171Y-67930476D01*
X106229076Y-68044761D01*
X105771933Y-68501904D01*
X106267171Y-68501904D01*
X104571876Y-44888200D02*
X104495685Y-44850104D01*
X104381400Y-44850104D01*
X104267114Y-44888200D01*
X104190923Y-44964390D01*
X104152828Y-45040580D01*
X104114733Y-45192961D01*
X104114733Y-45307247D01*
X104152828Y-45459628D01*
X104190923Y-45535819D01*
X104267114Y-45612009D01*
X104381400Y-45650104D01*
X104457590Y-45650104D01*
X104571876Y-45612009D01*
X104609971Y-45573914D01*
X104609971Y-45307247D01*
X104457590Y-45307247D01*
X104952828Y-45650104D02*
X104952828Y-44850104D01*
X105409971Y-45650104D01*
X105409971Y-44850104D01*
X105790923Y-45650104D02*
X105790923Y-44850104D01*
X105981400Y-44850104D01*
X106095685Y-44888200D01*
X106171876Y-44964390D01*
X106209971Y-45040580D01*
X106248066Y-45192961D01*
X106248066Y-45307247D01*
X106209971Y-45459628D01*
X106171876Y-45535819D01*
X106095685Y-45612009D01*
X105981400Y-45650104D01*
X105790923Y-45650104D01*
X93929476Y-47420000D02*
X93853285Y-47381904D01*
X93739000Y-47381904D01*
X93624714Y-47420000D01*
X93548523Y-47496190D01*
X93510428Y-47572380D01*
X93472333Y-47724761D01*
X93472333Y-47839047D01*
X93510428Y-47991428D01*
X93548523Y-48067619D01*
X93624714Y-48143809D01*
X93739000Y-48181904D01*
X93815190Y-48181904D01*
X93929476Y-48143809D01*
X93967571Y-48105714D01*
X93967571Y-47839047D01*
X93815190Y-47839047D01*
X94310428Y-48181904D02*
X94310428Y-47381904D01*
X94767571Y-48181904D01*
X94767571Y-47381904D01*
X95148523Y-48181904D02*
X95148523Y-47381904D01*
X95339000Y-47381904D01*
X95453285Y-47420000D01*
X95529476Y-47496190D01*
X95567571Y-47572380D01*
X95605666Y-47724761D01*
X95605666Y-47839047D01*
X95567571Y-47991428D01*
X95529476Y-48067619D01*
X95453285Y-48143809D01*
X95339000Y-48181904D01*
X95148523Y-48181904D01*
X94183276Y-49968200D02*
X94107085Y-49930104D01*
X93992800Y-49930104D01*
X93878514Y-49968200D01*
X93802323Y-50044390D01*
X93764228Y-50120580D01*
X93726133Y-50272961D01*
X93726133Y-50387247D01*
X93764228Y-50539628D01*
X93802323Y-50615819D01*
X93878514Y-50692009D01*
X93992800Y-50730104D01*
X94068990Y-50730104D01*
X94183276Y-50692009D01*
X94221371Y-50653914D01*
X94221371Y-50387247D01*
X94068990Y-50387247D01*
X94564228Y-50730104D02*
X94564228Y-49930104D01*
X95021371Y-50730104D01*
X95021371Y-49930104D01*
X95402323Y-50730104D02*
X95402323Y-49930104D01*
X95592800Y-49930104D01*
X95707085Y-49968200D01*
X95783276Y-50044390D01*
X95821371Y-50120580D01*
X95859466Y-50272961D01*
X95859466Y-50387247D01*
X95821371Y-50539628D01*
X95783276Y-50615819D01*
X95707085Y-50692009D01*
X95592800Y-50730104D01*
X95402323Y-50730104D01*
X105194333Y-55382857D02*
X104927666Y-55382857D01*
X104927666Y-55801904D02*
X104927666Y-55001904D01*
X105308619Y-55001904D01*
X105994333Y-55001904D02*
X105613380Y-55001904D01*
X105575285Y-55382857D01*
X105613380Y-55344761D01*
X105689571Y-55306666D01*
X105880047Y-55306666D01*
X105956238Y-55344761D01*
X105994333Y-55382857D01*
X106032428Y-55459047D01*
X106032428Y-55649523D01*
X105994333Y-55725714D01*
X105956238Y-55763809D01*
X105880047Y-55801904D01*
X105689571Y-55801904D01*
X105613380Y-55763809D01*
X105575285Y-55725714D01*
X105194333Y-60462857D02*
X104927666Y-60462857D01*
X104927666Y-60881904D02*
X104927666Y-60081904D01*
X105308619Y-60081904D01*
X105537190Y-60081904D02*
X106070523Y-60081904D01*
X105727666Y-60881904D01*
X118000000Y-77127923D02*
X117961904Y-77204114D01*
X117961904Y-77318400D01*
X118000000Y-77432685D01*
X118076190Y-77508876D01*
X118152380Y-77546971D01*
X118304761Y-77585066D01*
X118419047Y-77585066D01*
X118571428Y-77546971D01*
X118647619Y-77508876D01*
X118723809Y-77432685D01*
X118761904Y-77318400D01*
X118761904Y-77242209D01*
X118723809Y-77127923D01*
X118685714Y-77089828D01*
X118419047Y-77089828D01*
X118419047Y-77242209D01*
X118761904Y-76746971D02*
X117961904Y-76746971D01*
X118761904Y-76289828D01*
X117961904Y-76289828D01*
X118761904Y-75908876D02*
X117961904Y-75908876D01*
X117961904Y-75718400D01*
X118000000Y-75604114D01*
X118076190Y-75527923D01*
X118152380Y-75489828D01*
X118304761Y-75451733D01*
X118419047Y-75451733D01*
X118571428Y-75489828D01*
X118647619Y-75527923D01*
X118723809Y-75604114D01*
X118761904Y-75718400D01*
X118761904Y-75908876D01*
X122961904Y-77576666D02*
X123761904Y-77310000D01*
X122961904Y-77043333D01*
X123685714Y-76319523D02*
X123723809Y-76357619D01*
X123761904Y-76471904D01*
X123761904Y-76548095D01*
X123723809Y-76662380D01*
X123647619Y-76738571D01*
X123571428Y-76776666D01*
X123419047Y-76814761D01*
X123304761Y-76814761D01*
X123152380Y-76776666D01*
X123076190Y-76738571D01*
X123000000Y-76662380D01*
X122961904Y-76548095D01*
X122961904Y-76471904D01*
X123000000Y-76357619D01*
X123038095Y-76319523D01*
X123685714Y-75519523D02*
X123723809Y-75557619D01*
X123761904Y-75671904D01*
X123761904Y-75748095D01*
X123723809Y-75862380D01*
X123647619Y-75938571D01*
X123571428Y-75976666D01*
X123419047Y-76014761D01*
X123304761Y-76014761D01*
X123152380Y-75976666D01*
X123076190Y-75938571D01*
X123000000Y-75862380D01*
X122961904Y-75748095D01*
X122961904Y-75671904D01*
X123000000Y-75557619D01*
X123038095Y-75519523D01*
X121361904Y-77024285D02*
X121361904Y-77405238D01*
X120561904Y-77405238D01*
X120942857Y-76757619D02*
X120942857Y-76490952D01*
X121361904Y-76376666D02*
X121361904Y-76757619D01*
X120561904Y-76757619D01*
X120561904Y-76376666D01*
X121361904Y-76033809D02*
X120561904Y-76033809D01*
X120561904Y-75843333D01*
X120600000Y-75729047D01*
X120676190Y-75652857D01*
X120752380Y-75614761D01*
X120904761Y-75576666D01*
X121019047Y-75576666D01*
X121171428Y-75614761D01*
X121247619Y-75652857D01*
X121323809Y-75729047D01*
X121361904Y-75843333D01*
X121361904Y-76033809D01*
X93945295Y-85812380D02*
X94516723Y-85812380D01*
X94231009Y-86812380D02*
X94231009Y-85812380D01*
X95421485Y-86812380D02*
X95088152Y-86336190D01*
X94850057Y-86812380D02*
X94850057Y-85812380D01*
X95231009Y-85812380D01*
X95326247Y-85860000D01*
X95373866Y-85907619D01*
X95421485Y-86002857D01*
X95421485Y-86145714D01*
X95373866Y-86240952D01*
X95326247Y-86288571D01*
X95231009Y-86336190D01*
X94850057Y-86336190D01*
X96421485Y-86812380D02*
X96088152Y-86336190D01*
X95850057Y-86812380D02*
X95850057Y-85812380D01*
X96231009Y-85812380D01*
X96326247Y-85860000D01*
X96373866Y-85907619D01*
X96421485Y-86002857D01*
X96421485Y-86145714D01*
X96373866Y-86240952D01*
X96326247Y-86288571D01*
X96231009Y-86336190D01*
X95850057Y-86336190D01*
X96802438Y-86764761D02*
X96945295Y-86812380D01*
X97183390Y-86812380D01*
X97278628Y-86764761D01*
X97326247Y-86717142D01*
X97373866Y-86621904D01*
X97373866Y-86526666D01*
X97326247Y-86431428D01*
X97278628Y-86383809D01*
X97183390Y-86336190D01*
X96992914Y-86288571D01*
X96897676Y-86240952D01*
X96850057Y-86193333D01*
X96802438Y-86098095D01*
X96802438Y-86002857D01*
X96850057Y-85907619D01*
X96897676Y-85860000D01*
X96992914Y-85812380D01*
X97231009Y-85812380D01*
X97373866Y-85860000D01*
X102461904Y-63476666D02*
X103033333Y-63476666D01*
X103147619Y-63514761D01*
X103223809Y-63590952D01*
X103261904Y-63705238D01*
X103261904Y-63781428D01*
X103261904Y-63095714D02*
X102461904Y-63095714D01*
X102461904Y-62790952D01*
X102500000Y-62714761D01*
X102538095Y-62676666D01*
X102614285Y-62638571D01*
X102728571Y-62638571D01*
X102804761Y-62676666D01*
X102842857Y-62714761D01*
X102880952Y-62790952D01*
X102880952Y-63095714D01*
X103261904Y-62257619D02*
X103261904Y-62105238D01*
X103223809Y-62029047D01*
X103185714Y-61990952D01*
X103071428Y-61914761D01*
X102919047Y-61876666D01*
X102614285Y-61876666D01*
X102538095Y-61914761D01*
X102500000Y-61952857D01*
X102461904Y-62029047D01*
X102461904Y-62181428D01*
X102500000Y-62257619D01*
X102538095Y-62295714D01*
X102614285Y-62333809D01*
X102804761Y-62333809D01*
X102880952Y-62295714D01*
X102919047Y-62257619D01*
X102957142Y-62181428D01*
X102957142Y-62029047D01*
X102919047Y-61952857D01*
X102880952Y-61914761D01*
X102804761Y-61876666D01*
X102436904Y-61157619D02*
X103008333Y-61157619D01*
X103122619Y-61195714D01*
X103198809Y-61271904D01*
X103236904Y-61386190D01*
X103236904Y-61462380D01*
X103236904Y-60776666D02*
X102436904Y-60776666D01*
X102436904Y-60471904D01*
X102475000Y-60395714D01*
X102513095Y-60357619D01*
X102589285Y-60319523D01*
X102703571Y-60319523D01*
X102779761Y-60357619D01*
X102817857Y-60395714D01*
X102855952Y-60471904D01*
X102855952Y-60776666D01*
X103236904Y-59557619D02*
X103236904Y-60014761D01*
X103236904Y-59786190D02*
X102436904Y-59786190D01*
X102551190Y-59862380D01*
X102627380Y-59938571D01*
X102665476Y-60014761D01*
X102436904Y-59062380D02*
X102436904Y-58986190D01*
X102475000Y-58910000D01*
X102513095Y-58871904D01*
X102589285Y-58833809D01*
X102741666Y-58795714D01*
X102932142Y-58795714D01*
X103084523Y-58833809D01*
X103160714Y-58871904D01*
X103198809Y-58910000D01*
X103236904Y-58986190D01*
X103236904Y-59062380D01*
X103198809Y-59138571D01*
X103160714Y-59176666D01*
X103084523Y-59214761D01*
X102932142Y-59252857D01*
X102741666Y-59252857D01*
X102589285Y-59214761D01*
X102513095Y-59176666D01*
X102475000Y-59138571D01*
X102436904Y-59062380D01*
X92641904Y-78963904D02*
X92260952Y-79230571D01*
X92641904Y-79421047D02*
X91841904Y-79421047D01*
X91841904Y-79116285D01*
X91880000Y-79040095D01*
X91918095Y-79002000D01*
X91994285Y-78963904D01*
X92108571Y-78963904D01*
X92184761Y-79002000D01*
X92222857Y-79040095D01*
X92260952Y-79116285D01*
X92260952Y-79421047D01*
X92222857Y-78621047D02*
X92222857Y-78354380D01*
X92641904Y-78240095D02*
X92641904Y-78621047D01*
X91841904Y-78621047D01*
X91841904Y-78240095D01*
X92603809Y-77935333D02*
X92641904Y-77821047D01*
X92641904Y-77630571D01*
X92603809Y-77554380D01*
X92565714Y-77516285D01*
X92489523Y-77478190D01*
X92413333Y-77478190D01*
X92337142Y-77516285D01*
X92299047Y-77554380D01*
X92260952Y-77630571D01*
X92222857Y-77782952D01*
X92184761Y-77859142D01*
X92146666Y-77897238D01*
X92070476Y-77935333D01*
X91994285Y-77935333D01*
X91918095Y-77897238D01*
X91880000Y-77859142D01*
X91841904Y-77782952D01*
X91841904Y-77592476D01*
X91880000Y-77478190D01*
X92222857Y-77135333D02*
X92222857Y-76868666D01*
X92641904Y-76754380D02*
X92641904Y-77135333D01*
X91841904Y-77135333D01*
X91841904Y-76754380D01*
X91841904Y-76525809D02*
X91841904Y-76068666D01*
X92641904Y-76297238D02*
X91841904Y-76297238D01*
X102050866Y-52381104D02*
X101784200Y-52000152D01*
X101593723Y-52381104D02*
X101593723Y-51581104D01*
X101898485Y-51581104D01*
X101974676Y-51619200D01*
X102012771Y-51657295D01*
X102050866Y-51733485D01*
X102050866Y-51847771D01*
X102012771Y-51923961D01*
X101974676Y-51962057D01*
X101898485Y-52000152D01*
X101593723Y-52000152D01*
X102812771Y-52381104D02*
X102355628Y-52381104D01*
X102584200Y-52381104D02*
X102584200Y-51581104D01*
X102508009Y-51695390D01*
X102431819Y-51771580D01*
X102355628Y-51809676D01*
X98901266Y-52406504D02*
X98634600Y-52025552D01*
X98444123Y-52406504D02*
X98444123Y-51606504D01*
X98748885Y-51606504D01*
X98825076Y-51644600D01*
X98863171Y-51682695D01*
X98901266Y-51758885D01*
X98901266Y-51873171D01*
X98863171Y-51949361D01*
X98825076Y-51987457D01*
X98748885Y-52025552D01*
X98444123Y-52025552D01*
X99206028Y-51682695D02*
X99244123Y-51644600D01*
X99320314Y-51606504D01*
X99510790Y-51606504D01*
X99586980Y-51644600D01*
X99625076Y-51682695D01*
X99663171Y-51758885D01*
X99663171Y-51835076D01*
X99625076Y-51949361D01*
X99167933Y-52406504D01*
X99663171Y-52406504D01*
D11*
X93650000Y-41470000D02*
X91110000Y-41470000D01*
X108890000Y-71950000D02*
X108890000Y-41470000D01*
X91110000Y-38930000D02*
X91110000Y-41470000D01*
X91110000Y-41470000D02*
X91110000Y-71950000D01*
X108890000Y-38930000D02*
X91110000Y-38930000D01*
X93650000Y-44010000D02*
X91110000Y-44010000D01*
X91110000Y-71950000D02*
X108890000Y-71950000D01*
X93650000Y-41470000D02*
X93650000Y-44010000D01*
X108890000Y-41470000D02*
X108890000Y-38930000D01*
D10*
X104531568Y-47349360D02*
X104531568Y-48149360D01*
X104531568Y-48149360D02*
X104431568Y-48149360D01*
X104431568Y-48149360D02*
X104431568Y-47349360D01*
X104431568Y-47349360D02*
X104531568Y-47349360D01*
G36*
X104531568Y-48149360D02*
G01*
X104431568Y-48149360D01*
X104431568Y-47349360D01*
X104531568Y-47349360D01*
X104531568Y-48149360D01*
G37*
X104531568Y-48149360D02*
X104431568Y-48149360D01*
X104431568Y-47349360D01*
X104531568Y-47349360D01*
X104531568Y-48149360D01*
X104731568Y-47749360D02*
X104731568Y-47849360D01*
X104731568Y-47849360D02*
X104631568Y-47849360D01*
X104631568Y-47849360D02*
X104631568Y-47749360D01*
X104631568Y-47749360D02*
X104731568Y-47749360D01*
G36*
X104731568Y-47849360D02*
G01*
X104631568Y-47849360D01*
X104631568Y-47749360D01*
X104731568Y-47749360D01*
X104731568Y-47849360D01*
G37*
X104731568Y-47849360D02*
X104631568Y-47849360D01*
X104631568Y-47749360D01*
X104731568Y-47749360D01*
X104731568Y-47849360D01*
X104931568Y-47349360D02*
X104931568Y-47449360D01*
X104931568Y-47449360D02*
X104431568Y-47449360D01*
X104431568Y-47449360D02*
X104431568Y-47349360D01*
X104431568Y-47349360D02*
X104931568Y-47349360D01*
G36*
X104931568Y-47449360D02*
G01*
X104431568Y-47449360D01*
X104431568Y-47349360D01*
X104931568Y-47349360D01*
X104931568Y-47449360D01*
G37*
X104931568Y-47449360D02*
X104431568Y-47449360D01*
X104431568Y-47349360D01*
X104931568Y-47349360D01*
X104931568Y-47449360D01*
X104931568Y-47949360D02*
X104931568Y-48149360D01*
X104931568Y-48149360D02*
X104831568Y-48149360D01*
X104831568Y-48149360D02*
X104831568Y-47949360D01*
X104831568Y-47949360D02*
X104931568Y-47949360D01*
G36*
X104931568Y-48149360D02*
G01*
X104831568Y-48149360D01*
X104831568Y-47949360D01*
X104931568Y-47949360D01*
X104931568Y-48149360D01*
G37*
X104931568Y-48149360D02*
X104831568Y-48149360D01*
X104831568Y-47949360D01*
X104931568Y-47949360D01*
X104931568Y-48149360D01*
X104931568Y-47349360D02*
X104931568Y-47649360D01*
X104931568Y-47649360D02*
X104831568Y-47649360D01*
X104831568Y-47649360D02*
X104831568Y-47349360D01*
X104831568Y-47349360D02*
X104931568Y-47349360D01*
G36*
X104931568Y-47649360D02*
G01*
X104831568Y-47649360D01*
X104831568Y-47349360D01*
X104931568Y-47349360D01*
X104931568Y-47649360D01*
G37*
X104931568Y-47649360D02*
X104831568Y-47649360D01*
X104831568Y-47349360D01*
X104931568Y-47349360D01*
X104931568Y-47649360D01*
X104789000Y-68557000D02*
X104789000Y-70843000D01*
X103011000Y-70843000D02*
X103011000Y-68557000D01*
X103011000Y-68557000D02*
X104789000Y-68557000D01*
X104789000Y-70843000D02*
X103011000Y-70843000D01*
X100474200Y-68557000D02*
X102252200Y-68557000D01*
X100474200Y-70843000D02*
X100474200Y-68557000D01*
X102252200Y-68557000D02*
X102252200Y-70843000D01*
X102252200Y-70843000D02*
X100474200Y-70843000D01*
X97911000Y-70843000D02*
X97911000Y-68557000D01*
X99689000Y-68557000D02*
X99689000Y-70843000D01*
X97911000Y-68557000D02*
X99689000Y-68557000D01*
X99689000Y-70843000D02*
X97911000Y-70843000D01*
X115730400Y-57313600D02*
X115730400Y-58713600D01*
X116630400Y-57313600D02*
X116630400Y-58713600D01*
X115730400Y-58013600D02*
X116630400Y-57313600D01*
X116630400Y-58713600D02*
X115730400Y-58013600D01*
X135656800Y-54875200D02*
X135656800Y-56275200D01*
X134756800Y-54875200D02*
X134756800Y-56275200D01*
X135656800Y-56275200D02*
X134756800Y-55575200D01*
X134756800Y-55575200D02*
X135656800Y-54875200D01*
X154527200Y-53633600D02*
X153627200Y-52933600D01*
X153627200Y-52933600D02*
X154527200Y-52233600D01*
X154527200Y-52233600D02*
X154527200Y-53633600D01*
X153627200Y-52233600D02*
X153627200Y-53633600D01*
X172728000Y-54772400D02*
X172728000Y-56172400D01*
X172728000Y-55472400D02*
X173628000Y-54772400D01*
X173628000Y-54772400D02*
X173628000Y-56172400D01*
X173628000Y-56172400D02*
X172728000Y-55472400D01*
X192627200Y-63765200D02*
X192627200Y-65165200D01*
X191727200Y-63765200D02*
X191727200Y-65165200D01*
X192627200Y-65165200D02*
X191727200Y-64465200D01*
X191727200Y-64465200D02*
X192627200Y-63765200D01*
X219360800Y-63662400D02*
X220260800Y-64362400D01*
X220260800Y-64362400D02*
X219360800Y-65062400D01*
X219360800Y-65062400D02*
X219360800Y-63662400D01*
X220260800Y-65062400D02*
X220260800Y-63662400D01*
X115730400Y-60413600D02*
X115730400Y-61813600D01*
X115730400Y-61113600D02*
X116630400Y-60413600D01*
X116630400Y-61813600D02*
X115730400Y-61113600D01*
X116630400Y-60413600D02*
X116630400Y-61813600D01*
X134756800Y-58572400D02*
X135656800Y-57872400D01*
X135656800Y-57872400D02*
X135656800Y-59272400D01*
X135656800Y-59272400D02*
X134756800Y-58572400D01*
X134756800Y-57872400D02*
X134756800Y-59272400D01*
X153727200Y-55433600D02*
X153727200Y-56833600D01*
X154627200Y-55433600D02*
X154627200Y-56833600D01*
X154627200Y-56833600D02*
X153727200Y-56133600D01*
X153727200Y-56133600D02*
X154627200Y-55433600D01*
X173628000Y-59272400D02*
X172728000Y-58572400D01*
X173628000Y-57872400D02*
X173628000Y-59272400D01*
X172728000Y-58572400D02*
X173628000Y-57872400D01*
X172728000Y-57872400D02*
X172728000Y-59272400D01*
X191735200Y-66732400D02*
X191735200Y-68132400D01*
X191735200Y-67432400D02*
X192635200Y-66732400D01*
X192635200Y-68132400D02*
X191735200Y-67432400D01*
X192635200Y-66732400D02*
X192635200Y-68132400D01*
X220260800Y-67462400D02*
X219360800Y-68162400D01*
X219360800Y-66762400D02*
X220260800Y-67462400D01*
X219360800Y-68162400D02*
X219360800Y-66762400D01*
X220260800Y-68162400D02*
X220260800Y-66762400D01*
X115730400Y-95361600D02*
X115730400Y-96761600D01*
X116630400Y-96761600D02*
X115730400Y-96061600D01*
X115730400Y-96061600D02*
X116630400Y-95361600D01*
X116630400Y-95361600D02*
X116630400Y-96761600D01*
X135680400Y-92924400D02*
X135680400Y-94324400D01*
X135680400Y-94324400D02*
X134780400Y-93624400D01*
X134780400Y-93624400D02*
X135680400Y-92924400D01*
X134780400Y-92924400D02*
X134780400Y-94324400D01*
X153728800Y-91186000D02*
X154628800Y-90486000D01*
X154628800Y-90486000D02*
X154628800Y-91886000D01*
X153728800Y-90486000D02*
X153728800Y-91886000D01*
X154628800Y-91886000D02*
X153728800Y-91186000D01*
X173678800Y-94223200D02*
X172778800Y-93523200D01*
X172778800Y-92823200D02*
X172778800Y-94223200D01*
X173678800Y-92823200D02*
X173678800Y-94223200D01*
X172778800Y-93523200D02*
X173678800Y-92823200D01*
X191778000Y-101828000D02*
X191778000Y-103228000D01*
X191778000Y-102528000D02*
X192678000Y-101828000D01*
X192678000Y-103228000D02*
X191778000Y-102528000D01*
X192678000Y-101828000D02*
X192678000Y-103228000D01*
X220311600Y-103181600D02*
X220311600Y-101781600D01*
X219411600Y-103181600D02*
X219411600Y-101781600D01*
X220311600Y-102481600D02*
X219411600Y-103181600D01*
X219411600Y-101781600D02*
X220311600Y-102481600D01*
X116630400Y-98461600D02*
X116630400Y-99861600D01*
X115730400Y-98461600D02*
X115730400Y-99861600D01*
X115730400Y-99161600D02*
X116630400Y-98461600D01*
X116630400Y-99861600D02*
X115730400Y-99161600D01*
X134762000Y-96612000D02*
X135662000Y-95912000D01*
X135662000Y-95912000D02*
X135662000Y-97312000D01*
X134762000Y-95912000D02*
X134762000Y-97312000D01*
X135662000Y-97312000D02*
X134762000Y-96612000D01*
X153728800Y-94286000D02*
X154628800Y-93586000D01*
X154628800Y-94986000D02*
X153728800Y-94286000D01*
X154628800Y-93586000D02*
X154628800Y-94986000D01*
X153728800Y-93586000D02*
X153728800Y-94986000D01*
X173678800Y-96023200D02*
X173678800Y-97423200D01*
X172778800Y-96723200D02*
X173678800Y-96023200D01*
X172778800Y-96023200D02*
X172778800Y-97423200D01*
X173678800Y-97423200D02*
X172778800Y-96723200D01*
X192678000Y-105028000D02*
X192678000Y-106428000D01*
X191778000Y-105028000D02*
X191778000Y-106428000D01*
X192678000Y-106428000D02*
X191778000Y-105728000D01*
X191778000Y-105728000D02*
X192678000Y-105028000D01*
X220338800Y-105664000D02*
X219438800Y-106364000D01*
X219438800Y-104964000D02*
X220338800Y-105664000D01*
X219438800Y-106364000D02*
X219438800Y-104964000D01*
X220338800Y-106364000D02*
X220338800Y-104964000D01*
X107100000Y-99710000D02*
X106200000Y-99010000D01*
X106200000Y-99010000D02*
X107100000Y-98310000D01*
X107100000Y-98310000D02*
X107100000Y-99710000D01*
X106200000Y-98310000D02*
X106200000Y-99710000D01*
X108014582Y-119112167D02*
X108170800Y-117982744D01*
X108170800Y-117982744D02*
X109227018Y-118412167D01*
X109227018Y-118412167D02*
X108014582Y-119112167D01*
X108777018Y-117632744D02*
X107564582Y-118332744D01*
X116630400Y-116930400D02*
X115730400Y-116230400D01*
X115730400Y-115530400D02*
X115730400Y-116930400D01*
X116630400Y-115530400D02*
X116630400Y-116930400D01*
X115730400Y-116230400D02*
X116630400Y-115530400D01*
X134678800Y-115417600D02*
X135578800Y-114717600D01*
X134678800Y-114717600D02*
X134678800Y-116117600D01*
X135578800Y-116117600D02*
X134678800Y-115417600D01*
X135578800Y-114717600D02*
X135578800Y-116117600D01*
X154628800Y-113526800D02*
X153728800Y-112826800D01*
X153728800Y-112826800D02*
X154628800Y-112126800D01*
X154628800Y-112126800D02*
X154628800Y-113526800D01*
X153728800Y-112126800D02*
X153728800Y-113526800D01*
X97189000Y-70843000D02*
X95411000Y-70843000D01*
X95411000Y-68557000D02*
X97189000Y-68557000D01*
X95411000Y-70843000D02*
X95411000Y-68557000D01*
X97189000Y-68557000D02*
X97189000Y-70843000D01*
X121900000Y-77810000D02*
X121900000Y-79610000D01*
X124400000Y-77810000D02*
X124400000Y-79610000D01*
X120100000Y-79610000D02*
X120100000Y-77810000D01*
X124400000Y-79610000D02*
X122600000Y-79610000D01*
X119300000Y-77810000D02*
X117500000Y-77810000D01*
X122600000Y-77810000D02*
X124400000Y-77810000D01*
X122600000Y-79610000D02*
X122600000Y-77810000D01*
X119300000Y-77810000D02*
X119300000Y-79610000D01*
X121900000Y-79610000D02*
X120100000Y-79610000D01*
X119300000Y-79610000D02*
X117500000Y-79610000D01*
X117500000Y-79610000D02*
X117500000Y-77810000D01*
X121900000Y-77810000D02*
X120100000Y-77810000D01*
X95030000Y-75680000D02*
X105190000Y-75680000D01*
X105190000Y-73140000D02*
X105190000Y-75680000D01*
X95030000Y-75680000D02*
X95030000Y-73140000D01*
X95030000Y-73140000D02*
X105190000Y-73140000D01*
X172778800Y-115316000D02*
X173678800Y-114616000D01*
X173678800Y-114616000D02*
X173678800Y-116016000D01*
X173678800Y-116016000D02*
X172778800Y-115316000D01*
X172778800Y-114616000D02*
X172778800Y-116016000D01*
D12*
X105300000Y-105200000D02*
X105300000Y-107800000D01*
X98700000Y-106500000D02*
X99700000Y-106500000D01*
X97200000Y-100600000D02*
X93100000Y-100600000D01*
X101200000Y-100600000D02*
X105300000Y-100600000D01*
X99200000Y-106000000D02*
X99200000Y-107000000D01*
X105300000Y-112400000D02*
X101200000Y-112400000D01*
X97200000Y-112400000D02*
X93100000Y-112400000D01*
X105300000Y-110000000D02*
X105300000Y-112400000D01*
X105300000Y-100600000D02*
X105300000Y-103000000D01*
X93100000Y-100600000D02*
X93100000Y-112400000D01*
X102200000Y-106500000D02*
G75*
G03*
X102200000Y-106500000I-3000000J0D01*
G01*
D10*
X89980000Y-82502000D02*
X101980000Y-82502000D01*
X89980000Y-88502000D02*
X89980000Y-82502000D01*
X101980000Y-88502000D02*
X89980000Y-88502000D01*
X101980000Y-82502000D02*
X101980000Y-88502000D01*
D12*
X102100000Y-61810000D02*
X102100000Y-63810000D01*
X99300000Y-61810000D02*
X102100000Y-61810000D01*
X102100000Y-63810000D02*
X99300000Y-63810000D01*
X99300000Y-63810000D02*
X99300000Y-61810000D01*
X102075000Y-61110000D02*
X99275000Y-61110000D01*
X99275000Y-61110000D02*
X99275000Y-59110000D01*
X99275000Y-59110000D02*
X102075000Y-59110000D01*
X102075000Y-59110000D02*
X102075000Y-61110000D01*
D10*
X93980000Y-74802000D02*
X93380000Y-74802000D01*
X93980000Y-80802000D02*
X93380000Y-80802000D01*
X93980000Y-80802000D02*
X93980000Y-74802000D01*
X90480000Y-74802000D02*
X90480000Y-80802000D01*
X90480000Y-74802000D02*
X91180000Y-74802000D01*
X90480000Y-80802000D02*
X91180000Y-80802000D01*
D13*
X92151400Y-42740000D03*
D14*
X92608600Y-45280000D03*
X92151400Y-47820000D03*
X92608600Y-50360000D03*
X92151400Y-52900000D03*
X92608600Y-55440000D03*
X92151400Y-57980000D03*
X92608600Y-60520000D03*
X92151400Y-63060000D03*
X92608600Y-65600000D03*
X92151400Y-68140000D03*
X92608600Y-70680000D03*
X107391400Y-70680000D03*
X107848600Y-68140000D03*
X107391400Y-65600000D03*
X107848600Y-63060000D03*
X107391400Y-60520000D03*
X107848600Y-57980000D03*
X107391400Y-55440000D03*
X107848600Y-52900000D03*
X107391400Y-50360000D03*
X107848600Y-47820000D03*
X107391400Y-45280000D03*
X107848600Y-42740000D03*
D15*
X96300000Y-74410000D03*
X98840000Y-74410000D03*
X101380000Y-74410000D03*
X103920000Y-74410000D03*
D16*
X91480000Y-87252000D03*
X91480000Y-85502000D03*
X98480000Y-87252000D03*
X98480000Y-85502000D03*
D17*
X100280000Y-89352000D03*
X100280000Y-83402000D03*
X96280000Y-89352000D03*
X96280000Y-83402000D03*
X93280000Y-89352000D03*
X93280000Y-83402000D03*
X101780000Y-87602000D03*
X101780000Y-85152000D03*
%LPC*%
D13*
X92151400Y-42740000D03*
D14*
X92608600Y-45280000D03*
X92151400Y-47820000D03*
X92608600Y-50360000D03*
X92151400Y-52900000D03*
X92608600Y-55440000D03*
X92151400Y-57980000D03*
X92608600Y-60520000D03*
X92151400Y-63060000D03*
X92608600Y-65600000D03*
X92151400Y-68140000D03*
X92608600Y-70680000D03*
X107391400Y-70680000D03*
X107848600Y-68140000D03*
X107391400Y-65600000D03*
X107848600Y-63060000D03*
X107391400Y-60520000D03*
X107848600Y-57980000D03*
X107391400Y-55440000D03*
X107848600Y-52900000D03*
X107391400Y-50360000D03*
X107848600Y-47820000D03*
X107391400Y-45280000D03*
X107848600Y-42740000D03*
D18*
X103900000Y-70200380D03*
X103900000Y-69199620D03*
X101363200Y-70200380D03*
X101363200Y-69199620D03*
X98800000Y-70200380D03*
X98800000Y-69199620D03*
D19*
X114530400Y-58013600D03*
X117930400Y-58013600D03*
X133556800Y-55575200D03*
X136956800Y-55575200D03*
X152427200Y-52933600D03*
X155827200Y-52933600D03*
X171528000Y-55472400D03*
X174928000Y-55472400D03*
X190527200Y-64465200D03*
X193927200Y-64465200D03*
X221460800Y-64362400D03*
X218060800Y-64362400D03*
X114530400Y-61113600D03*
X117930400Y-61113600D03*
X133556800Y-58572400D03*
X136956800Y-58572400D03*
X152527200Y-56133600D03*
X155927200Y-56133600D03*
X171528000Y-58572400D03*
X174928000Y-58572400D03*
X190535200Y-67432400D03*
X193935200Y-67432400D03*
X221460800Y-67462400D03*
X218060800Y-67462400D03*
X114530400Y-96061600D03*
X117930400Y-96061600D03*
X133580400Y-93624400D03*
X136980400Y-93624400D03*
X152528800Y-91186000D03*
X155928800Y-91186000D03*
X171578800Y-93523200D03*
X174978800Y-93523200D03*
X190578000Y-102528000D03*
X193978000Y-102528000D03*
X221511600Y-102481600D03*
X218111600Y-102481600D03*
X114530400Y-99161600D03*
X117930400Y-99161600D03*
X133562000Y-96612000D03*
X136962000Y-96612000D03*
X152528800Y-94286000D03*
X155928800Y-94286000D03*
X171578800Y-96723200D03*
X174978800Y-96723200D03*
X190578000Y-105728000D03*
X193978000Y-105728000D03*
X221538800Y-105664000D03*
X218138800Y-105664000D03*
X105000000Y-99010000D03*
X108400000Y-99010000D03*
D20*
X107570800Y-116943514D03*
X109270800Y-119888000D03*
D19*
X114530400Y-116230400D03*
X117930400Y-116230400D03*
X133478800Y-115417600D03*
X136878800Y-115417600D03*
X152528800Y-112826800D03*
X155928800Y-112826800D03*
D21*
X115420000Y-50000000D03*
X125580000Y-50000000D03*
D22*
X120500000Y-50000000D03*
X120500000Y-69100000D03*
D21*
X115420000Y-69100000D03*
X125580000Y-69100000D03*
X115420000Y-88100000D03*
X125580000Y-88100000D03*
D22*
X120500000Y-88100000D03*
D21*
X115420000Y-107100000D03*
X125580000Y-107100000D03*
D22*
X120500000Y-107100000D03*
X96700000Y-133410000D03*
D21*
X99240000Y-137809409D03*
X94160000Y-129010591D03*
X122276165Y-126415086D03*
D22*
X117600000Y-128400000D03*
D21*
X112923835Y-130384914D03*
X134420000Y-123800000D03*
X144580000Y-123800000D03*
D22*
X139500000Y-123800000D03*
D21*
X163580000Y-121200000D03*
D22*
X158500000Y-121200000D03*
D21*
X153420000Y-121200000D03*
D23*
X95130000Y-93352000D03*
D18*
X96300000Y-70200380D03*
X96300000Y-69199620D03*
D24*
X123500000Y-78710000D03*
X121000000Y-78710000D03*
X118400000Y-78710000D03*
D15*
X96300000Y-74410000D03*
X98840000Y-74410000D03*
X101380000Y-74410000D03*
X103920000Y-74410000D03*
D19*
X171578800Y-115316000D03*
X174978800Y-115316000D03*
D23*
X105130000Y-93336000D03*
D21*
X144580000Y-85600000D03*
X134420000Y-85600000D03*
D22*
X139500000Y-85600000D03*
X139500000Y-104700000D03*
D21*
X134420000Y-104700000D03*
X144580000Y-104700000D03*
D22*
X139500000Y-66600000D03*
D21*
X144580000Y-66600000D03*
X134420000Y-66600000D03*
D22*
X139500000Y-47500000D03*
D21*
X144580000Y-47500000D03*
X134420000Y-47500000D03*
D22*
X158500000Y-83200000D03*
D21*
X163580000Y-83200000D03*
X153420000Y-83200000D03*
X163580000Y-45010000D03*
X153420000Y-45010000D03*
D22*
X158500000Y-45010000D03*
X158500000Y-64100000D03*
D21*
X163580000Y-64100000D03*
X153420000Y-64100000D03*
X163580000Y-102200000D03*
X153420000Y-102200000D03*
D22*
X158500000Y-102200000D03*
D21*
X172420000Y-104700000D03*
D22*
X177500000Y-104700000D03*
D21*
X182580000Y-104700000D03*
X172420000Y-66500000D03*
D22*
X177500000Y-66500000D03*
D21*
X182580000Y-66500000D03*
X182580000Y-123700000D03*
X172420000Y-123700000D03*
D22*
X177500000Y-123700000D03*
D21*
X182580000Y-85600000D03*
D22*
X177500000Y-85600000D03*
D21*
X172420000Y-85600000D03*
X182580000Y-47500000D03*
X172420000Y-47500000D03*
D22*
X177500000Y-47500000D03*
X196500000Y-56500000D03*
D21*
X201580000Y-56500000D03*
X191420000Y-56500000D03*
X191420000Y-113600000D03*
X201580000Y-113600000D03*
D22*
X196500000Y-113600000D03*
D21*
X210420000Y-94600000D03*
X220580000Y-94600000D03*
D22*
X215500000Y-94600000D03*
D21*
X220630000Y-113600000D03*
D22*
X215550000Y-113600000D03*
D21*
X210470000Y-113600000D03*
D22*
X215500000Y-56500000D03*
D21*
X220580000Y-56500000D03*
X210420000Y-56500000D03*
X210420000Y-75400000D03*
X220580000Y-75400000D03*
D22*
X215500000Y-75400000D03*
D21*
X191420000Y-94600000D03*
X201580000Y-94600000D03*
D22*
X196500000Y-94600000D03*
X196500000Y-75400000D03*
D21*
X201580000Y-75400000D03*
X191420000Y-75400000D03*
D25*
X91700000Y-104000000D03*
X91700000Y-109000000D03*
X91700000Y-106500000D03*
D26*
X99200000Y-112100000D03*
X99200000Y-100900000D03*
D25*
X106200000Y-109000000D03*
X106200000Y-104000000D03*
D16*
X91480000Y-87252000D03*
X91480000Y-85502000D03*
X98480000Y-87252000D03*
X98480000Y-85502000D03*
D17*
X100280000Y-89352000D03*
X100280000Y-83402000D03*
X96280000Y-89352000D03*
X96280000Y-83402000D03*
X93280000Y-89352000D03*
X93280000Y-83402000D03*
X101780000Y-87602000D03*
X101780000Y-85152000D03*
D27*
X101425000Y-62810000D03*
D28*
X99975000Y-62810000D03*
D29*
X99950000Y-60110000D03*
D30*
X101400000Y-60110000D03*
D25*
X92280000Y-81052000D03*
X92280000Y-74552000D03*
D31*
X205800000Y-66210000D03*
X103800000Y-120810000D03*
X205800000Y-104510000D03*
X129300000Y-59600000D03*
X129300000Y-97510000D03*
D32*
X102200000Y-50610000D03*
X102200000Y-50610000D03*
X102200000Y-53410000D03*
X102200000Y-53410000D03*
X99000000Y-50610000D03*
X99000000Y-50610000D03*
X99000000Y-53410000D03*
X99000000Y-53410000D03*
D22*
X215500000Y-56500000D03*
D21*
X210420000Y-56500000D03*
X220580000Y-56500000D03*
D33*
X219310000Y-53960000D03*
X212960000Y-51420000D03*
D22*
X158500000Y-121200000D03*
D21*
X153420000Y-121200000D03*
X163580000Y-121200000D03*
D33*
X162310000Y-118660000D03*
X155960000Y-116120000D03*
D21*
X153420000Y-102200000D03*
X163580000Y-102200000D03*
D22*
X158500000Y-102200000D03*
D33*
X162310000Y-99660000D03*
X155960000Y-97120000D03*
D21*
X172420000Y-66500000D03*
D22*
X177500000Y-66500000D03*
D21*
X182580000Y-66500000D03*
D33*
X181310000Y-63960000D03*
X174960000Y-61420000D03*
D21*
X172420000Y-47500000D03*
D22*
X177500000Y-47500000D03*
D21*
X182580000Y-47500000D03*
D33*
X181310000Y-44960000D03*
X174960000Y-42420000D03*
D22*
X139500000Y-123800000D03*
D21*
X144580000Y-123800000D03*
X134420000Y-123800000D03*
D33*
X143310000Y-121260000D03*
X136960000Y-118720000D03*
D21*
X134420000Y-104700000D03*
D22*
X139500000Y-104700000D03*
D21*
X144580000Y-104700000D03*
D33*
X143310000Y-102160000D03*
X136960000Y-99620000D03*
D21*
X201580000Y-113600000D03*
D22*
X196500000Y-113600000D03*
D21*
X191420000Y-113600000D03*
D33*
X200310000Y-111060000D03*
X193960000Y-108520000D03*
D21*
X153420000Y-45010000D03*
D22*
X158500000Y-45010000D03*
D21*
X163580000Y-45010000D03*
D33*
X162310000Y-42470000D03*
X155960000Y-39930000D03*
D21*
X191420000Y-75400000D03*
D22*
X196500000Y-75400000D03*
D21*
X201580000Y-75400000D03*
D33*
X200310000Y-72860000D03*
X193960000Y-70320000D03*
D21*
X191420000Y-56500000D03*
X201580000Y-56500000D03*
D22*
X196500000Y-56500000D03*
D33*
X200310000Y-53960000D03*
X193960000Y-51420000D03*
D22*
X177500000Y-104700000D03*
D21*
X172420000Y-104700000D03*
X182580000Y-104700000D03*
D33*
X181310000Y-102160000D03*
X174960000Y-99620000D03*
D21*
X210470000Y-113600000D03*
X220630000Y-113600000D03*
D22*
X215550000Y-113600000D03*
D33*
X219360000Y-111060000D03*
X213010000Y-108520000D03*
D21*
X112923835Y-130384914D03*
X122276165Y-126415086D03*
D22*
X117600000Y-128400000D03*
D33*
X120114666Y-124573232D03*
X113277004Y-124716292D03*
D22*
X139500000Y-66600000D03*
D21*
X134420000Y-66600000D03*
X144580000Y-66600000D03*
D33*
X143310000Y-64060000D03*
X136960000Y-61520000D03*
D21*
X144580000Y-47500000D03*
X134420000Y-47500000D03*
D22*
X139500000Y-47500000D03*
D33*
X143310000Y-44960000D03*
X136960000Y-42420000D03*
D21*
X220580000Y-75400000D03*
X210420000Y-75400000D03*
D22*
X215500000Y-75400000D03*
D33*
X219310000Y-72860000D03*
X212960000Y-70320000D03*
D21*
X94160000Y-129010591D03*
X99240000Y-137809409D03*
D22*
X96700000Y-133410000D03*
D33*
X100804705Y-135439557D03*
X99829409Y-128670295D03*
D22*
X158500000Y-64100000D03*
D21*
X153420000Y-64100000D03*
X163580000Y-64100000D03*
D33*
X162310000Y-61560000D03*
X155960000Y-59020000D03*
D21*
X182580000Y-123700000D03*
X172420000Y-123700000D03*
D22*
X177500000Y-123700000D03*
D33*
X181310000Y-121160000D03*
X174960000Y-118620000D03*
D21*
X220580000Y-94600000D03*
D22*
X215500000Y-94600000D03*
D21*
X210420000Y-94600000D03*
D33*
X219310000Y-92060000D03*
X212960000Y-89520000D03*
D22*
X120500000Y-50000000D03*
D21*
X125580000Y-50000000D03*
X115420000Y-50000000D03*
D33*
X124310000Y-47460000D03*
X117960000Y-44920000D03*
D22*
X120500000Y-88100000D03*
D21*
X115420000Y-88100000D03*
X125580000Y-88100000D03*
D33*
X124310000Y-85560000D03*
X117960000Y-83020000D03*
D21*
X134420000Y-85600000D03*
D22*
X139500000Y-85600000D03*
D21*
X144580000Y-85600000D03*
D33*
X143310000Y-83060000D03*
X136960000Y-80520000D03*
D21*
X182580000Y-85600000D03*
D22*
X177500000Y-85600000D03*
D21*
X172420000Y-85600000D03*
D33*
X181310000Y-83060000D03*
X174960000Y-80520000D03*
D21*
X115420000Y-69100000D03*
X125580000Y-69100000D03*
D22*
X120500000Y-69100000D03*
D33*
X124310000Y-66560000D03*
X117960000Y-64020000D03*
D21*
X153420000Y-83200000D03*
X163580000Y-83200000D03*
D22*
X158500000Y-83200000D03*
D33*
X162310000Y-80660000D03*
X155960000Y-78120000D03*
D21*
X115420000Y-107100000D03*
D22*
X120500000Y-107100000D03*
D21*
X125580000Y-107100000D03*
D33*
X124310000Y-104560000D03*
X117960000Y-102020000D03*
D22*
X196500000Y-94600000D03*
D21*
X191420000Y-94600000D03*
X201580000Y-94600000D03*
D33*
X200310000Y-92060000D03*
X193960000Y-89520000D03*
M02*
