G04 #@! TF.GenerationSoftware,KiCad,Pcbnew,(6.0.1)*
G04 #@! TF.CreationDate,2022-07-29T00:13:48+02:00*
G04 #@! TF.ProjectId,SofleKeyboard,536f666c-654b-4657-9962-6f6172642e6b,rev?*
G04 #@! TF.SameCoordinates,Original*
G04 #@! TF.FileFunction,Profile,NP*
%FSLAX46Y46*%
G04 Gerber Fmt 4.6, Leading zero omitted, Abs format (unit mm)*
G04 Created by KiCad (PCBNEW (6.0.1)) date 2022-07-29 00:13:48*
%MOMM*%
%LPD*%
G01*
G04 APERTURE LIST*
G04 #@! TA.AperFunction,Profile*
%ADD10C,0.150000*%
G04 #@! TD*
G04 APERTURE END LIST*
D10*
X129506400Y-40556400D02*
G75*
G03*
X130730000Y-39332800I0J1223600D01*
G01*
X186711600Y-45835200D02*
X186711600Y-39282000D01*
X224710000Y-48273600D02*
G75*
G03*
X223486400Y-47050000I-1223600J0D01*
G01*
X150945616Y-35570816D02*
G75*
G03*
X149722016Y-36794416I0J-1223600D01*
G01*
X224711071Y-122094574D02*
X224710000Y-48273600D01*
X131182800Y-133058800D02*
G75*
G03*
X129354000Y-133465200I-3J-4317987D01*
G01*
X95013200Y-149772000D02*
G75*
G03*
X96994400Y-150330800I1270000J711200D01*
G01*
X112730000Y-141052000D02*
X129354000Y-133465200D01*
X88445928Y-121800883D02*
X82516400Y-125286400D01*
X89730000Y-100552000D02*
X89730000Y-119663225D01*
X90950816Y-40549216D02*
G75*
G03*
X89727216Y-41772816I0J-1223600D01*
G01*
X82516400Y-125286400D02*
G75*
G03*
X81957600Y-127267600I711200J-1270000D01*
G01*
X130730000Y-39282000D02*
X130730000Y-39332800D01*
X131953600Y-38058400D02*
G75*
G03*
X130730000Y-39282000I0J-1223600D01*
G01*
X89727216Y-41772816D02*
X89730000Y-99940000D01*
X88445928Y-121800883D02*
G75*
G03*
X89730000Y-119663225I-1052727J2086858D01*
G01*
X148506400Y-38065584D02*
X131953600Y-38058400D01*
X223783233Y-123281891D02*
G75*
G03*
X224711071Y-122094574I-295764J1187319D01*
G01*
X129506400Y-40556400D02*
X111230000Y-40552000D01*
X167712400Y-36843600D02*
G75*
G03*
X168936000Y-38067200I1223600J0D01*
G01*
X96994400Y-150330800D02*
X112730000Y-141052000D01*
X187213774Y-132934442D02*
X223783233Y-123281891D01*
X166488800Y-35573600D02*
X150945616Y-35570816D01*
X167712400Y-36797200D02*
G75*
G03*
X166488800Y-35573600I-1223600J0D01*
G01*
X111230000Y-40552000D02*
X90950816Y-40549216D01*
X131182800Y-133058800D02*
X186199200Y-133058800D01*
X223486400Y-47050000D02*
X187935200Y-47058800D01*
X167712400Y-36843600D02*
X167712400Y-36797200D01*
X148506400Y-38065584D02*
G75*
G03*
X149730000Y-36841984I0J1223600D01*
G01*
X81957600Y-127267600D02*
X95013200Y-149772000D01*
X186711600Y-39282000D02*
G75*
G03*
X185488000Y-38058400I-1223600J0D01*
G01*
X186711600Y-45835200D02*
G75*
G03*
X187935200Y-47058800I1223600J0D01*
G01*
X186199200Y-133058800D02*
G75*
G03*
X187213774Y-132934442I150978J2969123D01*
G01*
X149722016Y-36794416D02*
X149730000Y-36841984D01*
X185488000Y-38058400D02*
X168936000Y-38067200D01*
X89730000Y-99940000D02*
X89730000Y-100552000D01*
M02*
