G04 #@! TF.GenerationSoftware,KiCad,Pcbnew,(6.0.1)*
G04 #@! TF.CreationDate,2022-07-29T00:13:48+02:00*
G04 #@! TF.ProjectId,SofleKeyboard,536f666c-654b-4657-9962-6f6172642e6b,rev?*
G04 #@! TF.SameCoordinates,Original*
G04 #@! TF.FileFunction,Legend,Bot*
G04 #@! TF.FilePolarity,Positive*
%FSLAX46Y46*%
G04 Gerber Fmt 4.6, Leading zero omitted, Abs format (unit mm)*
G04 Created by KiCad (PCBNEW (6.0.1)) date 2022-07-29 00:13:48*
%MOMM*%
%LPD*%
G01*
G04 APERTURE LIST*
G04 Aperture macros list*
%AMRoundRect*
0 Rectangle with rounded corners*
0 $1 Rounding radius*
0 $2 $3 $4 $5 $6 $7 $8 $9 X,Y pos of 4 corners*
0 Add a 4 corners polygon primitive as box body*
4,1,4,$2,$3,$4,$5,$6,$7,$8,$9,$2,$3,0*
0 Add four circle primitives for the rounded corners*
1,1,$1+$1,$2,$3*
1,1,$1+$1,$4,$5*
1,1,$1+$1,$6,$7*
1,1,$1+$1,$8,$9*
0 Add four rect primitives between the rounded corners*
20,1,$1+$1,$2,$3,$4,$5,0*
20,1,$1+$1,$4,$5,$6,$7,0*
20,1,$1+$1,$6,$7,$8,$9,0*
20,1,$1+$1,$8,$9,$2,$3,0*%
%AMRotRect*
0 Rectangle, with rotation*
0 The origin of the aperture is its center*
0 $1 length*
0 $2 width*
0 $3 Rotation angle, in degrees counterclockwise*
0 Add horizontal line*
21,1,$1,$2,0,0,$3*%
G04 Aperture macros list end*
%ADD10C,0.150000*%
%ADD11C,0.381000*%
%ADD12C,0.120000*%
%ADD13R,1.752600X1.752600*%
%ADD14C,1.752600*%
%ADD15R,1.800000X1.500000*%
%ADD16RotRect,1.800000X1.500000X300.000000*%
%ADD17C,1.750000*%
%ADD18C,3.987800*%
%ADD19C,2.250000*%
%ADD20C,4.000000*%
%ADD21R,1.524000X1.524000*%
%ADD22C,1.397000*%
%ADD23C,2.000000*%
%ADD24R,3.200000X2.000000*%
%ADD25C,1.200000*%
%ADD26O,2.500000X1.700000*%
%ADD27C,4.700000*%
%ADD28RoundRect,0.250000X-0.625000X0.375000X-0.625000X-0.375000X0.625000X-0.375000X0.625000X0.375000X0*%
%ADD29R,1.143000X0.635000*%
%ADD30R,1.500000X1.000000*%
G04 APERTURE END LIST*
D10*
X221318758Y-122661035D02*
X221059939Y-121695109D01*
X221158537Y-122063081D02*
X221054219Y-122041734D01*
X220870233Y-122091033D01*
X220790565Y-122161679D01*
X220756893Y-122220000D01*
X220735546Y-122324317D01*
X220809494Y-122600296D01*
X220880140Y-122679964D01*
X220938462Y-122713636D01*
X221042779Y-122734983D01*
X221226765Y-122685684D01*
X221306433Y-122615038D01*
X220030857Y-123006127D02*
X219895285Y-122500166D01*
X219916632Y-122395848D01*
X219996300Y-122325202D01*
X220180286Y-122275903D01*
X220284604Y-122297250D01*
X220018532Y-122960131D02*
X220122850Y-122981478D01*
X220352832Y-122919854D01*
X220432500Y-122849208D01*
X220453847Y-122744890D01*
X220429198Y-122652897D01*
X220358552Y-122573229D01*
X220254234Y-122551882D01*
X220024252Y-122613506D01*
X219919934Y-122592159D01*
X219604564Y-123071053D02*
X219524896Y-123141699D01*
X219340910Y-123190998D01*
X219236592Y-123169651D01*
X219165946Y-123089982D01*
X219153622Y-123043986D01*
X219174969Y-122939668D01*
X219254637Y-122869022D01*
X219392626Y-122832048D01*
X219472294Y-122761402D01*
X219493642Y-122657085D01*
X219481317Y-122611088D01*
X219410671Y-122531420D01*
X219306353Y-122510073D01*
X219168364Y-122547047D01*
X219088696Y-122617693D01*
X218408656Y-123391496D02*
X218512973Y-123412843D01*
X218696959Y-123363544D01*
X218776628Y-123292898D01*
X218797975Y-123188580D01*
X218699377Y-122820608D01*
X218628731Y-122740940D01*
X218524413Y-122719593D01*
X218340427Y-122768892D01*
X218260759Y-122839538D01*
X218239412Y-122943856D01*
X218264062Y-123035849D01*
X218748676Y-123004594D01*
X217547048Y-123671662D02*
X217288229Y-122705736D01*
X217534723Y-123625665D02*
X217639041Y-123647012D01*
X217823026Y-123597713D01*
X217902695Y-123527067D01*
X217936366Y-123468746D01*
X217957713Y-123364429D01*
X217883765Y-123088450D01*
X217813119Y-123008782D01*
X217754798Y-122975110D01*
X217650480Y-122953763D01*
X217466495Y-123003062D01*
X217386826Y-123073708D01*
X216213150Y-124029078D02*
X216292818Y-123958433D01*
X216326490Y-123900111D01*
X216347837Y-123795794D01*
X216273889Y-123519815D01*
X216203243Y-123440147D01*
X216144922Y-123406475D01*
X216040604Y-123385128D01*
X215902615Y-123422102D01*
X215822946Y-123492748D01*
X215789275Y-123551069D01*
X215767928Y-123655387D01*
X215841876Y-123931366D01*
X215912522Y-124011034D01*
X215970843Y-124044706D01*
X216075161Y-124066053D01*
X216213150Y-124029078D01*
X215304661Y-123582323D02*
X215477207Y-124226274D01*
X215329310Y-123674316D02*
X215270989Y-123640645D01*
X215166671Y-123619298D01*
X215028682Y-123656272D01*
X214949014Y-123726918D01*
X214927666Y-123831235D01*
X215063238Y-124337196D01*
X213832774Y-123976714D02*
X213464802Y-124075312D01*
X213608511Y-123691713D02*
X213830356Y-124519650D01*
X213809009Y-124623967D01*
X213729341Y-124694613D01*
X213637348Y-124719263D01*
X213315373Y-124805536D02*
X213056554Y-123839610D01*
X212901404Y-124916458D02*
X212765832Y-124410497D01*
X212787180Y-124306179D01*
X212866848Y-124235533D01*
X213004837Y-124198559D01*
X213109155Y-124219906D01*
X213167476Y-124253578D01*
X212061143Y-125092306D02*
X212165461Y-125113653D01*
X212349447Y-125064355D01*
X212429115Y-124993709D01*
X212450462Y-124889391D01*
X212351864Y-124521419D01*
X212281218Y-124441751D01*
X212176901Y-124420404D01*
X211992915Y-124469703D01*
X211913247Y-124540349D01*
X211891900Y-124644666D01*
X211916549Y-124736659D01*
X212401163Y-124705405D01*
X210911232Y-125400424D02*
X210785567Y-125483395D01*
X210555585Y-125545019D01*
X210451267Y-125523672D01*
X210392946Y-125490000D01*
X210322300Y-125410332D01*
X210297650Y-125318339D01*
X210318997Y-125214021D01*
X210352669Y-125155700D01*
X210432337Y-125085054D01*
X210603999Y-124989759D01*
X210683667Y-124919113D01*
X210717338Y-124860791D01*
X210738686Y-124756474D01*
X210714036Y-124664481D01*
X210643390Y-124584813D01*
X210585069Y-124551141D01*
X210480751Y-124529794D01*
X210250769Y-124591417D01*
X210125104Y-124674388D01*
X209819641Y-125742214D02*
X209899309Y-125671568D01*
X209932981Y-125613247D01*
X209954328Y-125508929D01*
X209880380Y-125232950D01*
X209809734Y-125153282D01*
X209751413Y-125119611D01*
X209647095Y-125098263D01*
X209509106Y-125135238D01*
X209429437Y-125205884D01*
X209395766Y-125264205D01*
X209374419Y-125368522D01*
X209448367Y-125644501D01*
X209519013Y-125724169D01*
X209577334Y-125757841D01*
X209681652Y-125779188D01*
X209819641Y-125742214D01*
X209049141Y-125258485D02*
X208681169Y-125357083D01*
X209083698Y-125939409D02*
X208861853Y-125111473D01*
X208791207Y-125031805D01*
X208686889Y-125010458D01*
X208594896Y-125035107D01*
X208393751Y-126124280D02*
X208473419Y-126053634D01*
X208494766Y-125949317D01*
X208272921Y-125121380D01*
X207645482Y-126275479D02*
X207749800Y-126296826D01*
X207933786Y-126247527D01*
X208013454Y-126176882D01*
X208034801Y-126072564D01*
X207936203Y-125704592D01*
X207865557Y-125624924D01*
X207761240Y-125603577D01*
X207577254Y-125652876D01*
X207497586Y-125723522D01*
X207476239Y-125827839D01*
X207500888Y-125919832D01*
X207985502Y-125888578D01*
X206461899Y-126641918D02*
X206203080Y-125675993D01*
X205909941Y-126789815D02*
X206176013Y-126126935D01*
X205651122Y-125823889D02*
X206350976Y-126227950D01*
X205115677Y-126953339D02*
X205219994Y-126974686D01*
X205403980Y-126925387D01*
X205483648Y-126854741D01*
X205504995Y-126750423D01*
X205406398Y-126382452D01*
X205335752Y-126302783D01*
X205231434Y-126281436D01*
X205047448Y-126330735D01*
X204967780Y-126401381D01*
X204946433Y-126505699D01*
X204971082Y-126597692D01*
X205455696Y-126566437D01*
X204587484Y-126453982D02*
X204530047Y-127159556D01*
X204127519Y-126577229D02*
X204530047Y-127159556D01*
X204683664Y-127364889D01*
X204741985Y-127398561D01*
X204846303Y-127419908D01*
X203932093Y-127319778D02*
X203673274Y-126353852D01*
X203771872Y-126721824D02*
X203667554Y-126700477D01*
X203483568Y-126749775D01*
X203403900Y-126820421D01*
X203370228Y-126878743D01*
X203348881Y-126983060D01*
X203422830Y-127259039D01*
X203493475Y-127338707D01*
X203551797Y-127372379D01*
X203656114Y-127393726D01*
X203840100Y-127344427D01*
X203919768Y-127273781D01*
X202920171Y-127590921D02*
X202999839Y-127520276D01*
X203033511Y-127461954D01*
X203054858Y-127357637D01*
X202980910Y-127081658D01*
X202910264Y-127001990D01*
X202851942Y-126968318D01*
X202747625Y-126946971D01*
X202609635Y-126983945D01*
X202529967Y-127054591D01*
X202496295Y-127112912D01*
X202474948Y-127217230D01*
X202548897Y-127493209D01*
X202619543Y-127572877D01*
X202677864Y-127606549D01*
X202782181Y-127627896D01*
X202920171Y-127590921D01*
X201770259Y-127899039D02*
X201634687Y-127393078D01*
X201656034Y-127288761D01*
X201735703Y-127218115D01*
X201919688Y-127168816D01*
X202024006Y-127190163D01*
X201757934Y-127853043D02*
X201862252Y-127874390D01*
X202092234Y-127812766D01*
X202171903Y-127742120D01*
X202193250Y-127637803D01*
X202168600Y-127545810D01*
X202097954Y-127466142D01*
X201993637Y-127444795D01*
X201763654Y-127506418D01*
X201659337Y-127485071D01*
X201310294Y-128022287D02*
X201137748Y-127378336D01*
X201187047Y-127562322D02*
X201116401Y-127482654D01*
X201058080Y-127448982D01*
X200953763Y-127427635D01*
X200861770Y-127452284D01*
X200298372Y-128293430D02*
X200039553Y-127327505D01*
X200286047Y-128247434D02*
X200390365Y-128268781D01*
X200574351Y-128219482D01*
X200654019Y-128148836D01*
X200687691Y-128090515D01*
X200709038Y-127986197D01*
X200635090Y-127710218D01*
X200564444Y-127630550D01*
X200506123Y-127596879D01*
X200401805Y-127575531D01*
X200217819Y-127624830D01*
X200138151Y-127695476D01*
X199102464Y-128613873D02*
X198843645Y-127647947D01*
X198942243Y-128015919D02*
X198837925Y-127994572D01*
X198653939Y-128043871D01*
X198574271Y-128114517D01*
X198540599Y-128172838D01*
X198519252Y-128277155D01*
X198593200Y-128553134D01*
X198663846Y-128632802D01*
X198722168Y-128666474D01*
X198826485Y-128687821D01*
X199010471Y-128638522D01*
X199090139Y-128567876D01*
X198147978Y-128179443D02*
X198090542Y-128885017D01*
X197688013Y-128302690D02*
X198090542Y-128885017D01*
X198244158Y-129090350D01*
X198302479Y-129124021D01*
X198406797Y-129145368D01*
X196221846Y-128350456D02*
X196406717Y-129040403D01*
X196489688Y-129166068D01*
X196606330Y-129233411D01*
X196756644Y-129242433D01*
X196848637Y-129217784D01*
X195882711Y-129476603D02*
X195962379Y-129405957D01*
X195996051Y-129347636D01*
X196017398Y-129243318D01*
X195943450Y-128967340D01*
X195872804Y-128887671D01*
X195814483Y-128854000D01*
X195710165Y-128832653D01*
X195572176Y-128869627D01*
X195492508Y-128940273D01*
X195458836Y-128998594D01*
X195437489Y-129102911D01*
X195511437Y-129378890D01*
X195582083Y-129458558D01*
X195640404Y-129492230D01*
X195744722Y-129513577D01*
X195882711Y-129476603D01*
X195180440Y-129615477D02*
X195100771Y-129686123D01*
X194916785Y-129735422D01*
X194812468Y-129714075D01*
X194741822Y-129634407D01*
X194729497Y-129588410D01*
X194750844Y-129484093D01*
X194830512Y-129413447D01*
X194968502Y-129376473D01*
X195048170Y-129305827D01*
X195069517Y-129201509D01*
X195057192Y-129155513D01*
X194986546Y-129075844D01*
X194882229Y-129054497D01*
X194744239Y-129091472D01*
X194664571Y-129162118D01*
X193984531Y-129935920D02*
X194088849Y-129957267D01*
X194272835Y-129907968D01*
X194352503Y-129837322D01*
X194373850Y-129733005D01*
X194275252Y-129365033D01*
X194204606Y-129285365D01*
X194100289Y-129264018D01*
X193916303Y-129313317D01*
X193836635Y-129383962D01*
X193815288Y-129488280D01*
X193839937Y-129580273D01*
X194324551Y-129549019D01*
X193502335Y-129424239D02*
X193134363Y-129522837D01*
X193536891Y-130105164D02*
X193315046Y-129277227D01*
X193244401Y-129197559D01*
X193140083Y-129176212D01*
X193048090Y-129200861D01*
X192221038Y-130161952D02*
X191761074Y-130285199D01*
X192386980Y-130413282D02*
X191806185Y-129533629D01*
X191743029Y-130585828D01*
X191007086Y-130783023D02*
X190748267Y-129817097D01*
X190994761Y-130737027D02*
X191099079Y-130758374D01*
X191283064Y-130709075D01*
X191362733Y-130638429D01*
X191396404Y-130580108D01*
X191417751Y-130475790D01*
X191343803Y-130199811D01*
X191273157Y-130120143D01*
X191214836Y-130086471D01*
X191110518Y-130065124D01*
X190926533Y-130114423D01*
X190846864Y-130185069D01*
X190133153Y-131017193D02*
X189997581Y-130511232D01*
X190018928Y-130406914D01*
X190098596Y-130336268D01*
X190282582Y-130286969D01*
X190386900Y-130308316D01*
X190120828Y-130971196D02*
X190225146Y-130992543D01*
X190455128Y-130930920D01*
X190534796Y-130860274D01*
X190556143Y-130755956D01*
X190531494Y-130663963D01*
X190460848Y-130584295D01*
X190356530Y-130562948D01*
X190126548Y-130624571D01*
X190022230Y-130603224D01*
X189673188Y-131140440D02*
X189500642Y-130496489D01*
X189525291Y-130588482D02*
X189466970Y-130554810D01*
X189362653Y-130533463D01*
X189224663Y-130570438D01*
X189144995Y-130641083D01*
X189123648Y-130745401D01*
X189259220Y-131251362D01*
X189123648Y-130745401D02*
X189053002Y-130665733D01*
X188948684Y-130644386D01*
X188810695Y-130681360D01*
X188731027Y-130752006D01*
X188709680Y-130856324D01*
X188845252Y-131362285D01*
X187958994Y-131550458D02*
X188063312Y-131571805D01*
X188247298Y-131522506D01*
X188326966Y-131451860D01*
X188360638Y-131393539D01*
X188381985Y-131289221D01*
X188308036Y-131013242D01*
X188237390Y-130933574D01*
X188179069Y-130899903D01*
X188074752Y-130878555D01*
X187890766Y-130927854D01*
X187811097Y-130998500D01*
X187557351Y-131707377D02*
X187384805Y-131063426D01*
X187298532Y-130741451D02*
X187356853Y-130775123D01*
X187323181Y-130833444D01*
X187264860Y-130799772D01*
X187298532Y-130741451D01*
X187323181Y-130833444D01*
X187097386Y-131830624D02*
X186838567Y-130864698D01*
X186906795Y-131487302D02*
X186729414Y-131929222D01*
X186556868Y-131285271D02*
X187023438Y-131554645D01*
X172408571Y-132006761D02*
X172265714Y-132054380D01*
X172027619Y-132054380D01*
X171932380Y-132006761D01*
X171884761Y-131959142D01*
X171837142Y-131863904D01*
X171837142Y-131768666D01*
X171884761Y-131673428D01*
X171932380Y-131625809D01*
X172027619Y-131578190D01*
X172218095Y-131530571D01*
X172313333Y-131482952D01*
X172360952Y-131435333D01*
X172408571Y-131340095D01*
X172408571Y-131244857D01*
X172360952Y-131149619D01*
X172313333Y-131102000D01*
X172218095Y-131054380D01*
X171980000Y-131054380D01*
X171837142Y-131102000D01*
X171265714Y-132054380D02*
X171360952Y-132006761D01*
X171408571Y-131959142D01*
X171456190Y-131863904D01*
X171456190Y-131578190D01*
X171408571Y-131482952D01*
X171360952Y-131435333D01*
X171265714Y-131387714D01*
X171122857Y-131387714D01*
X171027619Y-131435333D01*
X170980000Y-131482952D01*
X170932380Y-131578190D01*
X170932380Y-131863904D01*
X170980000Y-131959142D01*
X171027619Y-132006761D01*
X171122857Y-132054380D01*
X171265714Y-132054380D01*
X170646666Y-131387714D02*
X170265714Y-131387714D01*
X170503809Y-132054380D02*
X170503809Y-131197238D01*
X170456190Y-131102000D01*
X170360952Y-131054380D01*
X170265714Y-131054380D01*
X169789523Y-132054380D02*
X169884761Y-132006761D01*
X169932380Y-131911523D01*
X169932380Y-131054380D01*
X169027619Y-132006761D02*
X169122857Y-132054380D01*
X169313333Y-132054380D01*
X169408571Y-132006761D01*
X169456190Y-131911523D01*
X169456190Y-131530571D01*
X169408571Y-131435333D01*
X169313333Y-131387714D01*
X169122857Y-131387714D01*
X169027619Y-131435333D01*
X168980000Y-131530571D01*
X168980000Y-131625809D01*
X169456190Y-131721047D01*
X167884761Y-131387714D02*
X167646666Y-132054380D01*
X167408571Y-131387714D01*
X167075238Y-131149619D02*
X167027619Y-131102000D01*
X166932380Y-131054380D01*
X166694285Y-131054380D01*
X166599047Y-131102000D01*
X166551428Y-131149619D01*
X166503809Y-131244857D01*
X166503809Y-131340095D01*
X166551428Y-131482952D01*
X167122857Y-132054380D01*
X166503809Y-132054380D01*
X166075238Y-131959142D02*
X166027619Y-132006761D01*
X166075238Y-132054380D01*
X166122857Y-132006761D01*
X166075238Y-131959142D01*
X166075238Y-132054380D01*
X165075238Y-132054380D02*
X165646666Y-132054380D01*
X165360952Y-132054380D02*
X165360952Y-131054380D01*
X165456190Y-131197238D01*
X165551428Y-131292476D01*
X165646666Y-131340095D01*
X163932380Y-132006761D02*
X163837142Y-132054380D01*
X163646666Y-132054380D01*
X163551428Y-132006761D01*
X163503809Y-131911523D01*
X163503809Y-131863904D01*
X163551428Y-131768666D01*
X163646666Y-131721047D01*
X163789523Y-131721047D01*
X163884761Y-131673428D01*
X163932380Y-131578190D01*
X163932380Y-131530571D01*
X163884761Y-131435333D01*
X163789523Y-131387714D01*
X163646666Y-131387714D01*
X163551428Y-131435333D01*
X162932380Y-132054380D02*
X163027619Y-132006761D01*
X163075238Y-131959142D01*
X163122857Y-131863904D01*
X163122857Y-131578190D01*
X163075238Y-131482952D01*
X163027619Y-131435333D01*
X162932380Y-131387714D01*
X162789523Y-131387714D01*
X162694285Y-131435333D01*
X162646666Y-131482952D01*
X162599047Y-131578190D01*
X162599047Y-131863904D01*
X162646666Y-131959142D01*
X162694285Y-132006761D01*
X162789523Y-132054380D01*
X162932380Y-132054380D01*
X162027619Y-132054380D02*
X162122857Y-132006761D01*
X162170476Y-131911523D01*
X162170476Y-131054380D01*
X161218095Y-132054380D02*
X161218095Y-131054380D01*
X161218095Y-132006761D02*
X161313333Y-132054380D01*
X161503809Y-132054380D01*
X161599047Y-132006761D01*
X161646666Y-131959142D01*
X161694285Y-131863904D01*
X161694285Y-131578190D01*
X161646666Y-131482952D01*
X161599047Y-131435333D01*
X161503809Y-131387714D01*
X161313333Y-131387714D01*
X161218095Y-131435333D01*
X160360952Y-132006761D02*
X160456190Y-132054380D01*
X160646666Y-132054380D01*
X160741904Y-132006761D01*
X160789523Y-131911523D01*
X160789523Y-131530571D01*
X160741904Y-131435333D01*
X160646666Y-131387714D01*
X160456190Y-131387714D01*
X160360952Y-131435333D01*
X160313333Y-131530571D01*
X160313333Y-131625809D01*
X160789523Y-131721047D01*
X159884761Y-132054380D02*
X159884761Y-131387714D01*
X159884761Y-131578190D02*
X159837142Y-131482952D01*
X159789523Y-131435333D01*
X159694285Y-131387714D01*
X159599047Y-131387714D01*
X158122857Y-132006761D02*
X158218095Y-132054380D01*
X158408571Y-132054380D01*
X158503809Y-132006761D01*
X158551428Y-131911523D01*
X158551428Y-131530571D01*
X158503809Y-131435333D01*
X158408571Y-131387714D01*
X158218095Y-131387714D01*
X158122857Y-131435333D01*
X158075238Y-131530571D01*
X158075238Y-131625809D01*
X158551428Y-131721047D01*
X157218095Y-132054380D02*
X157218095Y-131054380D01*
X157218095Y-132006761D02*
X157313333Y-132054380D01*
X157503809Y-132054380D01*
X157599047Y-132006761D01*
X157646666Y-131959142D01*
X157694285Y-131863904D01*
X157694285Y-131578190D01*
X157646666Y-131482952D01*
X157599047Y-131435333D01*
X157503809Y-131387714D01*
X157313333Y-131387714D01*
X157218095Y-131435333D01*
X156741904Y-132054380D02*
X156741904Y-131387714D01*
X156741904Y-131054380D02*
X156789523Y-131102000D01*
X156741904Y-131149619D01*
X156694285Y-131102000D01*
X156741904Y-131054380D01*
X156741904Y-131149619D01*
X156408571Y-131387714D02*
X156027619Y-131387714D01*
X156265714Y-131054380D02*
X156265714Y-131911523D01*
X156218095Y-132006761D01*
X156122857Y-132054380D01*
X156027619Y-132054380D01*
X155694285Y-132054380D02*
X155694285Y-131387714D01*
X155694285Y-131054380D02*
X155741904Y-131102000D01*
X155694285Y-131149619D01*
X155646666Y-131102000D01*
X155694285Y-131054380D01*
X155694285Y-131149619D01*
X155075238Y-132054380D02*
X155170476Y-132006761D01*
X155218095Y-131959142D01*
X155265714Y-131863904D01*
X155265714Y-131578190D01*
X155218095Y-131482952D01*
X155170476Y-131435333D01*
X155075238Y-131387714D01*
X154932380Y-131387714D01*
X154837142Y-131435333D01*
X154789523Y-131482952D01*
X154741904Y-131578190D01*
X154741904Y-131863904D01*
X154789523Y-131959142D01*
X154837142Y-132006761D01*
X154932380Y-132054380D01*
X155075238Y-132054380D01*
X154313333Y-131387714D02*
X154313333Y-132054380D01*
X154313333Y-131482952D02*
X154265714Y-131435333D01*
X154170476Y-131387714D01*
X154027619Y-131387714D01*
X153932380Y-131435333D01*
X153884761Y-131530571D01*
X153884761Y-132054380D01*
X152646666Y-132054380D02*
X152646666Y-131054380D01*
X152646666Y-131435333D02*
X152551428Y-131387714D01*
X152360952Y-131387714D01*
X152265714Y-131435333D01*
X152218095Y-131482952D01*
X152170476Y-131578190D01*
X152170476Y-131863904D01*
X152218095Y-131959142D01*
X152265714Y-132006761D01*
X152360952Y-132054380D01*
X152551428Y-132054380D01*
X152646666Y-132006761D01*
X151837142Y-131387714D02*
X151599047Y-132054380D01*
X151360952Y-131387714D02*
X151599047Y-132054380D01*
X151694285Y-132292476D01*
X151741904Y-132340095D01*
X151837142Y-132387714D01*
X150218095Y-132054380D02*
X150218095Y-131054380D01*
X150122857Y-131673428D02*
X149837142Y-132054380D01*
X149837142Y-131387714D02*
X150218095Y-131768666D01*
X149408571Y-132054380D02*
X149408571Y-131054380D01*
X149408571Y-131435333D02*
X149313333Y-131387714D01*
X149122857Y-131387714D01*
X149027619Y-131435333D01*
X148980000Y-131482952D01*
X148932380Y-131578190D01*
X148932380Y-131863904D01*
X148980000Y-131959142D01*
X149027619Y-132006761D01*
X149122857Y-132054380D01*
X149313333Y-132054380D01*
X149408571Y-132006761D01*
X148741904Y-132149619D02*
X147980000Y-132149619D01*
X147360952Y-132006761D02*
X147456190Y-132054380D01*
X147646666Y-132054380D01*
X147741904Y-132006761D01*
X147789523Y-131911523D01*
X147789523Y-131530571D01*
X147741904Y-131435333D01*
X147646666Y-131387714D01*
X147456190Y-131387714D01*
X147360952Y-131435333D01*
X147313333Y-131530571D01*
X147313333Y-131625809D01*
X147789523Y-131721047D01*
X146741904Y-132054380D02*
X146837142Y-132006761D01*
X146884761Y-131911523D01*
X146884761Y-131054380D01*
X146360952Y-132054380D02*
X146360952Y-131387714D01*
X146360952Y-131482952D02*
X146313333Y-131435333D01*
X146218095Y-131387714D01*
X146075238Y-131387714D01*
X145980000Y-131435333D01*
X145932380Y-131530571D01*
X145932380Y-132054380D01*
X145932380Y-131530571D02*
X145884761Y-131435333D01*
X145789523Y-131387714D01*
X145646666Y-131387714D01*
X145551428Y-131435333D01*
X145503809Y-131530571D01*
X145503809Y-132054380D01*
X144884761Y-132054380D02*
X144980000Y-132006761D01*
X145027619Y-131959142D01*
X145075238Y-131863904D01*
X145075238Y-131578190D01*
X145027619Y-131482952D01*
X144980000Y-131435333D01*
X144884761Y-131387714D01*
X144741904Y-131387714D01*
X144646666Y-131435333D01*
X144599047Y-131482952D01*
X144551428Y-131578190D01*
X144551428Y-131863904D01*
X144599047Y-131959142D01*
X144646666Y-132006761D01*
X144741904Y-132054380D01*
X144884761Y-132054380D01*
X105790923Y-44888200D02*
X105867114Y-44850104D01*
X105981400Y-44850104D01*
X106095685Y-44888200D01*
X106171876Y-44964390D01*
X106209971Y-45040580D01*
X106248066Y-45192961D01*
X106248066Y-45307247D01*
X106209971Y-45459628D01*
X106171876Y-45535819D01*
X106095685Y-45612009D01*
X105981400Y-45650104D01*
X105905209Y-45650104D01*
X105790923Y-45612009D01*
X105752828Y-45573914D01*
X105752828Y-45307247D01*
X105905209Y-45307247D01*
X105409971Y-45650104D02*
X105409971Y-44850104D01*
X104952828Y-45650104D01*
X104952828Y-44850104D01*
X104571876Y-45650104D02*
X104571876Y-44850104D01*
X104381400Y-44850104D01*
X104267114Y-44888200D01*
X104190923Y-44964390D01*
X104152828Y-45040580D01*
X104114733Y-45192961D01*
X104114733Y-45307247D01*
X104152828Y-45459628D01*
X104190923Y-45535819D01*
X104267114Y-45612009D01*
X104381400Y-45650104D01*
X104571876Y-45650104D01*
X105587733Y-48126609D02*
X105473447Y-48164704D01*
X105282971Y-48164704D01*
X105206780Y-48126609D01*
X105168685Y-48088514D01*
X105130590Y-48012323D01*
X105130590Y-47936133D01*
X105168685Y-47859942D01*
X105206780Y-47821847D01*
X105282971Y-47783752D01*
X105435352Y-47745657D01*
X105511542Y-47707561D01*
X105549638Y-47669466D01*
X105587733Y-47593276D01*
X105587733Y-47517085D01*
X105549638Y-47440895D01*
X105511542Y-47402800D01*
X105435352Y-47364704D01*
X105244876Y-47364704D01*
X105130590Y-47402800D01*
X104902019Y-47364704D02*
X104444876Y-47364704D01*
X104673447Y-48164704D02*
X104673447Y-47364704D01*
X105727666Y-57922857D02*
X105994333Y-57922857D01*
X105994333Y-58341904D02*
X105994333Y-57541904D01*
X105613380Y-57541904D01*
X104965761Y-57541904D02*
X105118142Y-57541904D01*
X105194333Y-57580000D01*
X105232428Y-57618095D01*
X105308619Y-57732380D01*
X105346714Y-57884761D01*
X105346714Y-58189523D01*
X105308619Y-58265714D01*
X105270523Y-58303809D01*
X105194333Y-58341904D01*
X105041952Y-58341904D01*
X104965761Y-58303809D01*
X104927666Y-58265714D01*
X104889571Y-58189523D01*
X104889571Y-57999047D01*
X104927666Y-57922857D01*
X104965761Y-57884761D01*
X105041952Y-57846666D01*
X105194333Y-57846666D01*
X105270523Y-57884761D01*
X105308619Y-57922857D01*
X105346714Y-57999047D01*
X95148523Y-47420000D02*
X95224714Y-47381904D01*
X95339000Y-47381904D01*
X95453285Y-47420000D01*
X95529476Y-47496190D01*
X95567571Y-47572380D01*
X95605666Y-47724761D01*
X95605666Y-47839047D01*
X95567571Y-47991428D01*
X95529476Y-48067619D01*
X95453285Y-48143809D01*
X95339000Y-48181904D01*
X95262809Y-48181904D01*
X95148523Y-48143809D01*
X95110428Y-48105714D01*
X95110428Y-47839047D01*
X95262809Y-47839047D01*
X94767571Y-48181904D02*
X94767571Y-47381904D01*
X94310428Y-48181904D01*
X94310428Y-47381904D01*
X93929476Y-48181904D02*
X93929476Y-47381904D01*
X93739000Y-47381904D01*
X93624714Y-47420000D01*
X93548523Y-47496190D01*
X93510428Y-47572380D01*
X93472333Y-47724761D01*
X93472333Y-47839047D01*
X93510428Y-47991428D01*
X93548523Y-48067619D01*
X93624714Y-48143809D01*
X93739000Y-48181904D01*
X93929476Y-48181904D01*
X105727666Y-55382857D02*
X105994333Y-55382857D01*
X105994333Y-55801904D02*
X105994333Y-55001904D01*
X105613380Y-55001904D01*
X104927666Y-55001904D02*
X105308619Y-55001904D01*
X105346714Y-55382857D01*
X105308619Y-55344761D01*
X105232428Y-55306666D01*
X105041952Y-55306666D01*
X104965761Y-55344761D01*
X104927666Y-55382857D01*
X104889571Y-55459047D01*
X104889571Y-55649523D01*
X104927666Y-55725714D01*
X104965761Y-55763809D01*
X105041952Y-55801904D01*
X105232428Y-55801904D01*
X105308619Y-55763809D01*
X105346714Y-55725714D01*
X105727666Y-60462857D02*
X105994333Y-60462857D01*
X105994333Y-60881904D02*
X105994333Y-60081904D01*
X105613380Y-60081904D01*
X105384809Y-60081904D02*
X104851476Y-60081904D01*
X105194333Y-60881904D01*
X98618604Y-42301904D02*
X98161461Y-42301904D01*
X98390032Y-43101904D02*
X98390032Y-42301904D01*
X97970985Y-42301904D02*
X97437651Y-43101904D01*
X97437651Y-42301904D02*
X97970985Y-43101904D01*
X96980508Y-42301904D02*
X96904318Y-42301904D01*
X96828128Y-42340000D01*
X96790032Y-42378095D01*
X96751937Y-42454285D01*
X96713842Y-42606666D01*
X96713842Y-42797142D01*
X96751937Y-42949523D01*
X96790032Y-43025714D01*
X96828128Y-43063809D01*
X96904318Y-43101904D01*
X96980508Y-43101904D01*
X97056699Y-43063809D01*
X97094794Y-43025714D01*
X97132889Y-42949523D01*
X97170985Y-42797142D01*
X97170985Y-42606666D01*
X97132889Y-42454285D01*
X97094794Y-42378095D01*
X97056699Y-42340000D01*
X96980508Y-42301904D01*
X95799556Y-42263809D02*
X96485270Y-43292380D01*
X95532889Y-43101904D02*
X95532889Y-42301904D01*
X95342413Y-42301904D01*
X95228128Y-42340000D01*
X95151937Y-42416190D01*
X95113842Y-42492380D01*
X95075747Y-42644761D01*
X95075747Y-42759047D01*
X95113842Y-42911428D01*
X95151937Y-42987619D01*
X95228128Y-43063809D01*
X95342413Y-43101904D01*
X95532889Y-43101904D01*
X94809080Y-42301904D02*
X94313842Y-42301904D01*
X94580508Y-42606666D01*
X94466223Y-42606666D01*
X94390032Y-42644761D01*
X94351937Y-42682857D01*
X94313842Y-42759047D01*
X94313842Y-42949523D01*
X94351937Y-43025714D01*
X94390032Y-43063809D01*
X94466223Y-43101904D01*
X94694794Y-43101904D01*
X94770985Y-43063809D01*
X94809080Y-43025714D01*
X105727666Y-52842857D02*
X105994333Y-52842857D01*
X105994333Y-53261904D02*
X105994333Y-52461904D01*
X105613380Y-52461904D01*
X104965761Y-52728571D02*
X104965761Y-53261904D01*
X105156238Y-52423809D02*
X105346714Y-52995238D01*
X104851476Y-52995238D01*
X95091380Y-65542857D02*
X94824714Y-65542857D01*
X94710428Y-65961904D02*
X95091380Y-65961904D01*
X95091380Y-65161904D01*
X94710428Y-65161904D01*
X94024714Y-65161904D02*
X94177095Y-65161904D01*
X94253285Y-65200000D01*
X94291380Y-65238095D01*
X94367571Y-65352380D01*
X94405666Y-65504761D01*
X94405666Y-65809523D01*
X94367571Y-65885714D01*
X94329476Y-65923809D01*
X94253285Y-65961904D01*
X94100904Y-65961904D01*
X94024714Y-65923809D01*
X93986619Y-65885714D01*
X93948523Y-65809523D01*
X93948523Y-65619047D01*
X93986619Y-65542857D01*
X94024714Y-65504761D01*
X94100904Y-65466666D01*
X94253285Y-65466666D01*
X94329476Y-65504761D01*
X94367571Y-65542857D01*
X94405666Y-65619047D01*
X94672333Y-60805714D02*
X94710428Y-60843809D01*
X94824714Y-60881904D01*
X94900904Y-60881904D01*
X95015190Y-60843809D01*
X95091380Y-60767619D01*
X95129476Y-60691428D01*
X95167571Y-60539047D01*
X95167571Y-60424761D01*
X95129476Y-60272380D01*
X95091380Y-60196190D01*
X95015190Y-60120000D01*
X94900904Y-60081904D01*
X94824714Y-60081904D01*
X94710428Y-60120000D01*
X94672333Y-60158095D01*
X93986619Y-60081904D02*
X94139000Y-60081904D01*
X94215190Y-60120000D01*
X94253285Y-60158095D01*
X94329476Y-60272380D01*
X94367571Y-60424761D01*
X94367571Y-60729523D01*
X94329476Y-60805714D01*
X94291380Y-60843809D01*
X94215190Y-60881904D01*
X94062809Y-60881904D01*
X93986619Y-60843809D01*
X93948523Y-60805714D01*
X93910428Y-60729523D01*
X93910428Y-60539047D01*
X93948523Y-60462857D01*
X93986619Y-60424761D01*
X94062809Y-60386666D01*
X94215190Y-60386666D01*
X94291380Y-60424761D01*
X94329476Y-60462857D01*
X94367571Y-60539047D01*
X95129476Y-58341904D02*
X95129476Y-57541904D01*
X94939000Y-57541904D01*
X94824714Y-57580000D01*
X94748523Y-57656190D01*
X94710428Y-57732380D01*
X94672333Y-57884761D01*
X94672333Y-57999047D01*
X94710428Y-58151428D01*
X94748523Y-58227619D01*
X94824714Y-58303809D01*
X94939000Y-58341904D01*
X95129476Y-58341904D01*
X93986619Y-57808571D02*
X93986619Y-58341904D01*
X94177095Y-57503809D02*
X94367571Y-58075238D01*
X93872333Y-58075238D01*
X105962409Y-68082857D02*
X105848123Y-68120952D01*
X105810028Y-68159047D01*
X105771933Y-68235238D01*
X105771933Y-68349523D01*
X105810028Y-68425714D01*
X105848123Y-68463809D01*
X105924314Y-68501904D01*
X106229076Y-68501904D01*
X106229076Y-67701904D01*
X105962409Y-67701904D01*
X105886219Y-67740000D01*
X105848123Y-67778095D01*
X105810028Y-67854285D01*
X105810028Y-67930476D01*
X105848123Y-68006666D01*
X105886219Y-68044761D01*
X105962409Y-68082857D01*
X106229076Y-68082857D01*
X105467171Y-67778095D02*
X105429076Y-67740000D01*
X105352885Y-67701904D01*
X105162409Y-67701904D01*
X105086219Y-67740000D01*
X105048123Y-67778095D01*
X105010028Y-67854285D01*
X105010028Y-67930476D01*
X105048123Y-68044761D01*
X105505266Y-68501904D01*
X105010028Y-68501904D01*
X106324266Y-49930104D02*
X106057600Y-50730104D01*
X105790933Y-49930104D01*
X105067123Y-50653914D02*
X105105219Y-50692009D01*
X105219504Y-50730104D01*
X105295695Y-50730104D01*
X105409980Y-50692009D01*
X105486171Y-50615819D01*
X105524266Y-50539628D01*
X105562361Y-50387247D01*
X105562361Y-50272961D01*
X105524266Y-50120580D01*
X105486171Y-50044390D01*
X105409980Y-49968200D01*
X105295695Y-49930104D01*
X105219504Y-49930104D01*
X105105219Y-49968200D01*
X105067123Y-50006295D01*
X104267123Y-50653914D02*
X104305219Y-50692009D01*
X104419504Y-50730104D01*
X104495695Y-50730104D01*
X104609980Y-50692009D01*
X104686171Y-50615819D01*
X104724266Y-50539628D01*
X104762361Y-50387247D01*
X104762361Y-50272961D01*
X104724266Y-50120580D01*
X104686171Y-50044390D01*
X104609980Y-49968200D01*
X104495695Y-49930104D01*
X104419504Y-49930104D01*
X104305219Y-49968200D01*
X104267123Y-50006295D01*
X105784809Y-63002857D02*
X105670523Y-63040952D01*
X105632428Y-63079047D01*
X105594333Y-63155238D01*
X105594333Y-63269523D01*
X105632428Y-63345714D01*
X105670523Y-63383809D01*
X105746714Y-63421904D01*
X106051476Y-63421904D01*
X106051476Y-62621904D01*
X105784809Y-62621904D01*
X105708619Y-62660000D01*
X105670523Y-62698095D01*
X105632428Y-62774285D01*
X105632428Y-62850476D01*
X105670523Y-62926666D01*
X105708619Y-62964761D01*
X105784809Y-63002857D01*
X106051476Y-63002857D01*
X104832428Y-63421904D02*
X105289571Y-63421904D01*
X105061000Y-63421904D02*
X105061000Y-62621904D01*
X105137190Y-62736190D01*
X105213380Y-62812380D01*
X105289571Y-62850476D01*
X95129476Y-63421904D02*
X95129476Y-62621904D01*
X94939000Y-62621904D01*
X94824714Y-62660000D01*
X94748523Y-62736190D01*
X94710428Y-62812380D01*
X94672333Y-62964761D01*
X94672333Y-63079047D01*
X94710428Y-63231428D01*
X94748523Y-63307619D01*
X94824714Y-63383809D01*
X94939000Y-63421904D01*
X95129476Y-63421904D01*
X94405666Y-62621904D02*
X93872333Y-62621904D01*
X94215190Y-63421904D01*
X95129476Y-45641904D02*
X95129476Y-44841904D01*
X94939000Y-44841904D01*
X94824714Y-44880000D01*
X94748523Y-44956190D01*
X94710428Y-45032380D01*
X94672333Y-45184761D01*
X94672333Y-45299047D01*
X94710428Y-45451428D01*
X94748523Y-45527619D01*
X94824714Y-45603809D01*
X94939000Y-45641904D01*
X95129476Y-45641904D01*
X94367571Y-44918095D02*
X94329476Y-44880000D01*
X94253285Y-44841904D01*
X94062809Y-44841904D01*
X93986619Y-44880000D01*
X93948523Y-44918095D01*
X93910428Y-44994285D01*
X93910428Y-45070476D01*
X93948523Y-45184761D01*
X94405666Y-45641904D01*
X93910428Y-45641904D01*
X94862809Y-70622857D02*
X94748523Y-70660952D01*
X94710428Y-70699047D01*
X94672333Y-70775238D01*
X94672333Y-70889523D01*
X94710428Y-70965714D01*
X94748523Y-71003809D01*
X94824714Y-71041904D01*
X95129476Y-71041904D01*
X95129476Y-70241904D01*
X94862809Y-70241904D01*
X94786619Y-70280000D01*
X94748523Y-70318095D01*
X94710428Y-70394285D01*
X94710428Y-70470476D01*
X94748523Y-70546666D01*
X94786619Y-70584761D01*
X94862809Y-70622857D01*
X95129476Y-70622857D01*
X93948523Y-70241904D02*
X94329476Y-70241904D01*
X94367571Y-70622857D01*
X94329476Y-70584761D01*
X94253285Y-70546666D01*
X94062809Y-70546666D01*
X93986619Y-70584761D01*
X93948523Y-70622857D01*
X93910428Y-70699047D01*
X93910428Y-70889523D01*
X93948523Y-70965714D01*
X93986619Y-71003809D01*
X94062809Y-71041904D01*
X94253285Y-71041904D01*
X94329476Y-71003809D01*
X94367571Y-70965714D01*
X106013380Y-43101904D02*
X106280047Y-42720952D01*
X106470523Y-43101904D02*
X106470523Y-42301904D01*
X106165761Y-42301904D01*
X106089571Y-42340000D01*
X106051476Y-42378095D01*
X106013380Y-42454285D01*
X106013380Y-42568571D01*
X106051476Y-42644761D01*
X106089571Y-42682857D01*
X106165761Y-42720952D01*
X106470523Y-42720952D01*
X105708619Y-42873333D02*
X105327666Y-42873333D01*
X105784809Y-43101904D02*
X105518142Y-42301904D01*
X105251476Y-43101904D01*
X105061000Y-42301904D02*
X104870523Y-43101904D01*
X104718142Y-42530476D01*
X104565761Y-43101904D01*
X104375285Y-42301904D01*
X105784809Y-65542857D02*
X105670523Y-65580952D01*
X105632428Y-65619047D01*
X105594333Y-65695238D01*
X105594333Y-65809523D01*
X105632428Y-65885714D01*
X105670523Y-65923809D01*
X105746714Y-65961904D01*
X106051476Y-65961904D01*
X106051476Y-65161904D01*
X105784809Y-65161904D01*
X105708619Y-65200000D01*
X105670523Y-65238095D01*
X105632428Y-65314285D01*
X105632428Y-65390476D01*
X105670523Y-65466666D01*
X105708619Y-65504761D01*
X105784809Y-65542857D01*
X106051476Y-65542857D01*
X105327666Y-65161904D02*
X104832428Y-65161904D01*
X105099095Y-65466666D01*
X104984809Y-65466666D01*
X104908619Y-65504761D01*
X104870523Y-65542857D01*
X104832428Y-65619047D01*
X104832428Y-65809523D01*
X104870523Y-65885714D01*
X104908619Y-65923809D01*
X104984809Y-65961904D01*
X105213380Y-65961904D01*
X105289571Y-65923809D01*
X105327666Y-65885714D01*
X105911609Y-70622857D02*
X105797323Y-70660952D01*
X105759228Y-70699047D01*
X105721133Y-70775238D01*
X105721133Y-70889523D01*
X105759228Y-70965714D01*
X105797323Y-71003809D01*
X105873514Y-71041904D01*
X106178276Y-71041904D01*
X106178276Y-70241904D01*
X105911609Y-70241904D01*
X105835419Y-70280000D01*
X105797323Y-70318095D01*
X105759228Y-70394285D01*
X105759228Y-70470476D01*
X105797323Y-70546666D01*
X105835419Y-70584761D01*
X105911609Y-70622857D01*
X106178276Y-70622857D01*
X105035419Y-70241904D02*
X105187800Y-70241904D01*
X105263990Y-70280000D01*
X105302085Y-70318095D01*
X105378276Y-70432380D01*
X105416371Y-70584761D01*
X105416371Y-70889523D01*
X105378276Y-70965714D01*
X105340180Y-71003809D01*
X105263990Y-71041904D01*
X105111609Y-71041904D01*
X105035419Y-71003809D01*
X104997323Y-70965714D01*
X104959228Y-70889523D01*
X104959228Y-70699047D01*
X104997323Y-70622857D01*
X105035419Y-70584761D01*
X105111609Y-70546666D01*
X105263990Y-70546666D01*
X105340180Y-70584761D01*
X105378276Y-70622857D01*
X105416371Y-70699047D01*
X95129476Y-55801904D02*
X95129476Y-55001904D01*
X94939000Y-55001904D01*
X94824714Y-55040000D01*
X94748523Y-55116190D01*
X94710428Y-55192380D01*
X94672333Y-55344761D01*
X94672333Y-55459047D01*
X94710428Y-55611428D01*
X94748523Y-55687619D01*
X94824714Y-55763809D01*
X94939000Y-55801904D01*
X95129476Y-55801904D01*
X94177095Y-55001904D02*
X94100904Y-55001904D01*
X94024714Y-55040000D01*
X93986619Y-55078095D01*
X93948523Y-55154285D01*
X93910428Y-55306666D01*
X93910428Y-55497142D01*
X93948523Y-55649523D01*
X93986619Y-55725714D01*
X94024714Y-55763809D01*
X94100904Y-55801904D01*
X94177095Y-55801904D01*
X94253285Y-55763809D01*
X94291380Y-55725714D01*
X94329476Y-55649523D01*
X94367571Y-55497142D01*
X94367571Y-55306666D01*
X94329476Y-55154285D01*
X94291380Y-55078095D01*
X94253285Y-55040000D01*
X94177095Y-55001904D01*
X94862809Y-68082857D02*
X94748523Y-68120952D01*
X94710428Y-68159047D01*
X94672333Y-68235238D01*
X94672333Y-68349523D01*
X94710428Y-68425714D01*
X94748523Y-68463809D01*
X94824714Y-68501904D01*
X95129476Y-68501904D01*
X95129476Y-67701904D01*
X94862809Y-67701904D01*
X94786619Y-67740000D01*
X94748523Y-67778095D01*
X94710428Y-67854285D01*
X94710428Y-67930476D01*
X94748523Y-68006666D01*
X94786619Y-68044761D01*
X94862809Y-68082857D01*
X95129476Y-68082857D01*
X93986619Y-67968571D02*
X93986619Y-68501904D01*
X94177095Y-67663809D02*
X94367571Y-68235238D01*
X93872333Y-68235238D01*
X95402323Y-49968200D02*
X95478514Y-49930104D01*
X95592800Y-49930104D01*
X95707085Y-49968200D01*
X95783276Y-50044390D01*
X95821371Y-50120580D01*
X95859466Y-50272961D01*
X95859466Y-50387247D01*
X95821371Y-50539628D01*
X95783276Y-50615819D01*
X95707085Y-50692009D01*
X95592800Y-50730104D01*
X95516609Y-50730104D01*
X95402323Y-50692009D01*
X95364228Y-50653914D01*
X95364228Y-50387247D01*
X95516609Y-50387247D01*
X95021371Y-50730104D02*
X95021371Y-49930104D01*
X94564228Y-50730104D01*
X94564228Y-49930104D01*
X94183276Y-50730104D02*
X94183276Y-49930104D01*
X93992800Y-49930104D01*
X93878514Y-49968200D01*
X93802323Y-50044390D01*
X93764228Y-50120580D01*
X93726133Y-50272961D01*
X93726133Y-50387247D01*
X93764228Y-50539628D01*
X93802323Y-50615819D01*
X93878514Y-50692009D01*
X93992800Y-50730104D01*
X94183276Y-50730104D01*
X95129476Y-53261904D02*
X95129476Y-52461904D01*
X94939000Y-52461904D01*
X94824714Y-52500000D01*
X94748523Y-52576190D01*
X94710428Y-52652380D01*
X94672333Y-52804761D01*
X94672333Y-52919047D01*
X94710428Y-53071428D01*
X94748523Y-53147619D01*
X94824714Y-53223809D01*
X94939000Y-53261904D01*
X95129476Y-53261904D01*
X93910428Y-53261904D02*
X94367571Y-53261904D01*
X94139000Y-53261904D02*
X94139000Y-52461904D01*
X94215190Y-52576190D01*
X94291380Y-52652380D01*
X94367571Y-52690476D01*
X121361904Y-75995714D02*
X121361904Y-75614761D01*
X120561904Y-75614761D01*
X120942857Y-76262380D02*
X120942857Y-76529047D01*
X121361904Y-76643333D02*
X121361904Y-76262380D01*
X120561904Y-76262380D01*
X120561904Y-76643333D01*
X121361904Y-76986190D02*
X120561904Y-76986190D01*
X120561904Y-77176666D01*
X120600000Y-77290952D01*
X120676190Y-77367142D01*
X120752380Y-77405238D01*
X120904761Y-77443333D01*
X121019047Y-77443333D01*
X121171428Y-77405238D01*
X121247619Y-77367142D01*
X121323809Y-77290952D01*
X121361904Y-77176666D01*
X121361904Y-76986190D01*
X122961904Y-75443333D02*
X123761904Y-75710000D01*
X122961904Y-75976666D01*
X123685714Y-76700476D02*
X123723809Y-76662380D01*
X123761904Y-76548095D01*
X123761904Y-76471904D01*
X123723809Y-76357619D01*
X123647619Y-76281428D01*
X123571428Y-76243333D01*
X123419047Y-76205238D01*
X123304761Y-76205238D01*
X123152380Y-76243333D01*
X123076190Y-76281428D01*
X123000000Y-76357619D01*
X122961904Y-76471904D01*
X122961904Y-76548095D01*
X123000000Y-76662380D01*
X123038095Y-76700476D01*
X123685714Y-77500476D02*
X123723809Y-77462380D01*
X123761904Y-77348095D01*
X123761904Y-77271904D01*
X123723809Y-77157619D01*
X123647619Y-77081428D01*
X123571428Y-77043333D01*
X123419047Y-77005238D01*
X123304761Y-77005238D01*
X123152380Y-77043333D01*
X123076190Y-77081428D01*
X123000000Y-77157619D01*
X122961904Y-77271904D01*
X122961904Y-77348095D01*
X123000000Y-77462380D01*
X123038095Y-77500476D01*
X118000000Y-75908876D02*
X117961904Y-75832685D01*
X117961904Y-75718400D01*
X118000000Y-75604114D01*
X118076190Y-75527923D01*
X118152380Y-75489828D01*
X118304761Y-75451733D01*
X118419047Y-75451733D01*
X118571428Y-75489828D01*
X118647619Y-75527923D01*
X118723809Y-75604114D01*
X118761904Y-75718400D01*
X118761904Y-75794590D01*
X118723809Y-75908876D01*
X118685714Y-75946971D01*
X118419047Y-75946971D01*
X118419047Y-75794590D01*
X118761904Y-76289828D02*
X117961904Y-76289828D01*
X118761904Y-76746971D01*
X117961904Y-76746971D01*
X118761904Y-77127923D02*
X117961904Y-77127923D01*
X117961904Y-77318400D01*
X118000000Y-77432685D01*
X118076190Y-77508876D01*
X118152380Y-77546971D01*
X118304761Y-77585066D01*
X118419047Y-77585066D01*
X118571428Y-77546971D01*
X118647619Y-77508876D01*
X118723809Y-77432685D01*
X118761904Y-77318400D01*
X118761904Y-77127923D01*
X97392904Y-85812380D02*
X96821476Y-85812380D01*
X97107190Y-86812380D02*
X97107190Y-85812380D01*
X95916714Y-86812380D02*
X96250047Y-86336190D01*
X96488142Y-86812380D02*
X96488142Y-85812380D01*
X96107190Y-85812380D01*
X96011952Y-85860000D01*
X95964333Y-85907619D01*
X95916714Y-86002857D01*
X95916714Y-86145714D01*
X95964333Y-86240952D01*
X96011952Y-86288571D01*
X96107190Y-86336190D01*
X96488142Y-86336190D01*
X94916714Y-86812380D02*
X95250047Y-86336190D01*
X95488142Y-86812380D02*
X95488142Y-85812380D01*
X95107190Y-85812380D01*
X95011952Y-85860000D01*
X94964333Y-85907619D01*
X94916714Y-86002857D01*
X94916714Y-86145714D01*
X94964333Y-86240952D01*
X95011952Y-86288571D01*
X95107190Y-86336190D01*
X95488142Y-86336190D01*
X94535761Y-86764761D02*
X94392904Y-86812380D01*
X94154809Y-86812380D01*
X94059571Y-86764761D01*
X94011952Y-86717142D01*
X93964333Y-86621904D01*
X93964333Y-86526666D01*
X94011952Y-86431428D01*
X94059571Y-86383809D01*
X94154809Y-86336190D01*
X94345285Y-86288571D01*
X94440523Y-86240952D01*
X94488142Y-86193333D01*
X94535761Y-86098095D01*
X94535761Y-86002857D01*
X94488142Y-85907619D01*
X94440523Y-85860000D01*
X94345285Y-85812380D01*
X94107190Y-85812380D01*
X93964333Y-85860000D01*
X92641904Y-76640095D02*
X92260952Y-76373428D01*
X92641904Y-76182952D02*
X91841904Y-76182952D01*
X91841904Y-76487714D01*
X91880000Y-76563904D01*
X91918095Y-76602000D01*
X91994285Y-76640095D01*
X92108571Y-76640095D01*
X92184761Y-76602000D01*
X92222857Y-76563904D01*
X92260952Y-76487714D01*
X92260952Y-76182952D01*
X92222857Y-76982952D02*
X92222857Y-77249619D01*
X92641904Y-77363904D02*
X92641904Y-76982952D01*
X91841904Y-76982952D01*
X91841904Y-77363904D01*
X92603809Y-77668666D02*
X92641904Y-77782952D01*
X92641904Y-77973428D01*
X92603809Y-78049619D01*
X92565714Y-78087714D01*
X92489523Y-78125809D01*
X92413333Y-78125809D01*
X92337142Y-78087714D01*
X92299047Y-78049619D01*
X92260952Y-77973428D01*
X92222857Y-77821047D01*
X92184761Y-77744857D01*
X92146666Y-77706761D01*
X92070476Y-77668666D01*
X91994285Y-77668666D01*
X91918095Y-77706761D01*
X91880000Y-77744857D01*
X91841904Y-77821047D01*
X91841904Y-78011523D01*
X91880000Y-78125809D01*
X92222857Y-78468666D02*
X92222857Y-78735333D01*
X92641904Y-78849619D02*
X92641904Y-78468666D01*
X91841904Y-78468666D01*
X91841904Y-78849619D01*
X91841904Y-79078190D02*
X91841904Y-79535333D01*
X92641904Y-79306761D02*
X91841904Y-79306761D01*
X102317533Y-52381104D02*
X102584200Y-52000152D01*
X102774676Y-52381104D02*
X102774676Y-51581104D01*
X102469914Y-51581104D01*
X102393723Y-51619200D01*
X102355628Y-51657295D01*
X102317533Y-51733485D01*
X102317533Y-51847771D01*
X102355628Y-51923961D01*
X102393723Y-51962057D01*
X102469914Y-52000152D01*
X102774676Y-52000152D01*
X101555628Y-52381104D02*
X102012771Y-52381104D01*
X101784200Y-52381104D02*
X101784200Y-51581104D01*
X101860390Y-51695390D01*
X101936580Y-51771580D01*
X102012771Y-51809676D01*
X99167933Y-52406504D02*
X99434600Y-52025552D01*
X99625076Y-52406504D02*
X99625076Y-51606504D01*
X99320314Y-51606504D01*
X99244123Y-51644600D01*
X99206028Y-51682695D01*
X99167933Y-51758885D01*
X99167933Y-51873171D01*
X99206028Y-51949361D01*
X99244123Y-51987457D01*
X99320314Y-52025552D01*
X99625076Y-52025552D01*
X98863171Y-51682695D02*
X98825076Y-51644600D01*
X98748885Y-51606504D01*
X98558409Y-51606504D01*
X98482219Y-51644600D01*
X98444123Y-51682695D01*
X98406028Y-51758885D01*
X98406028Y-51835076D01*
X98444123Y-51949361D01*
X98901266Y-52406504D01*
X98406028Y-52406504D01*
X98834380Y-57632076D02*
X99548666Y-57632076D01*
X99691523Y-57584457D01*
X99786761Y-57489219D01*
X99834380Y-57346361D01*
X99834380Y-57251123D01*
X99834380Y-58108266D02*
X98834380Y-58108266D01*
X98834380Y-58489219D01*
X98882000Y-58584457D01*
X98929619Y-58632076D01*
X99024857Y-58679695D01*
X99167714Y-58679695D01*
X99262952Y-58632076D01*
X99310571Y-58584457D01*
X99358190Y-58489219D01*
X99358190Y-58108266D01*
X99834380Y-59632076D02*
X99834380Y-59060647D01*
X99834380Y-59346361D02*
X98834380Y-59346361D01*
X98977238Y-59251123D01*
X99072476Y-59155885D01*
X99120095Y-59060647D01*
X99834380Y-60584457D02*
X99834380Y-60013028D01*
X99834380Y-60298742D02*
X98834380Y-60298742D01*
X98977238Y-60203504D01*
X99072476Y-60108266D01*
X99120095Y-60013028D01*
D11*
X93650000Y-41470000D02*
X93650000Y-44010000D01*
X93650000Y-44010000D02*
X91110000Y-44010000D01*
X108890000Y-38930000D02*
X91110000Y-38930000D01*
X108890000Y-71950000D02*
X108890000Y-38930000D01*
X91110000Y-38930000D02*
X91110000Y-71950000D01*
X91110000Y-71950000D02*
X108890000Y-71950000D01*
X93650000Y-41470000D02*
X91110000Y-41470000D01*
D10*
X105844635Y-47359030D02*
X105844635Y-47659030D01*
X105844635Y-47659030D02*
X105944635Y-47659030D01*
X105944635Y-47659030D02*
X105944635Y-47359030D01*
X105944635Y-47359030D02*
X105844635Y-47359030D01*
G36*
X105944635Y-47659030D02*
G01*
X105844635Y-47659030D01*
X105844635Y-47359030D01*
X105944635Y-47359030D01*
X105944635Y-47659030D01*
G37*
X105944635Y-47659030D02*
X105844635Y-47659030D01*
X105844635Y-47359030D01*
X105944635Y-47359030D01*
X105944635Y-47659030D01*
X106044635Y-47759030D02*
X106044635Y-47859030D01*
X106044635Y-47859030D02*
X106144635Y-47859030D01*
X106144635Y-47859030D02*
X106144635Y-47759030D01*
X106144635Y-47759030D02*
X106044635Y-47759030D01*
G36*
X106144635Y-47859030D02*
G01*
X106044635Y-47859030D01*
X106044635Y-47759030D01*
X106144635Y-47759030D01*
X106144635Y-47859030D01*
G37*
X106144635Y-47859030D02*
X106044635Y-47859030D01*
X106044635Y-47759030D01*
X106144635Y-47759030D01*
X106144635Y-47859030D01*
X105844635Y-47359030D02*
X105844635Y-47459030D01*
X105844635Y-47459030D02*
X106344635Y-47459030D01*
X106344635Y-47459030D02*
X106344635Y-47359030D01*
X106344635Y-47359030D02*
X105844635Y-47359030D01*
G36*
X106344635Y-47459030D02*
G01*
X105844635Y-47459030D01*
X105844635Y-47359030D01*
X106344635Y-47359030D01*
X106344635Y-47459030D01*
G37*
X106344635Y-47459030D02*
X105844635Y-47459030D01*
X105844635Y-47359030D01*
X106344635Y-47359030D01*
X106344635Y-47459030D01*
X105844635Y-47959030D02*
X105844635Y-48159030D01*
X105844635Y-48159030D02*
X105944635Y-48159030D01*
X105944635Y-48159030D02*
X105944635Y-47959030D01*
X105944635Y-47959030D02*
X105844635Y-47959030D01*
G36*
X105944635Y-48159030D02*
G01*
X105844635Y-48159030D01*
X105844635Y-47959030D01*
X105944635Y-47959030D01*
X105944635Y-48159030D01*
G37*
X105944635Y-48159030D02*
X105844635Y-48159030D01*
X105844635Y-47959030D01*
X105944635Y-47959030D01*
X105944635Y-48159030D01*
X106244635Y-47359030D02*
X106244635Y-48159030D01*
X106244635Y-48159030D02*
X106344635Y-48159030D01*
X106344635Y-48159030D02*
X106344635Y-47359030D01*
X106344635Y-47359030D02*
X106244635Y-47359030D01*
G36*
X106344635Y-48159030D02*
G01*
X106244635Y-48159030D01*
X106244635Y-47359030D01*
X106344635Y-47359030D01*
X106344635Y-48159030D01*
G37*
X106344635Y-48159030D02*
X106244635Y-48159030D01*
X106244635Y-47359030D01*
X106344635Y-47359030D01*
X106344635Y-48159030D01*
X115730400Y-57313600D02*
X115730400Y-58713600D01*
X115730400Y-58013600D02*
X116630400Y-57313600D01*
X116630400Y-57313600D02*
X116630400Y-58713600D01*
X116630400Y-58713600D02*
X115730400Y-58013600D01*
X135656800Y-54875200D02*
X135656800Y-56275200D01*
X134756800Y-55575200D02*
X135656800Y-54875200D01*
X135656800Y-56275200D02*
X134756800Y-55575200D01*
X134756800Y-54875200D02*
X134756800Y-56275200D01*
X153627200Y-52933600D02*
X154527200Y-52233600D01*
X154527200Y-53633600D02*
X153627200Y-52933600D01*
X153627200Y-52233600D02*
X153627200Y-53633600D01*
X154527200Y-52233600D02*
X154527200Y-53633600D01*
X173628000Y-54772400D02*
X173628000Y-56172400D01*
X172728000Y-54772400D02*
X172728000Y-56172400D01*
X173628000Y-56172400D02*
X172728000Y-55472400D01*
X172728000Y-55472400D02*
X173628000Y-54772400D01*
X191727200Y-63765200D02*
X191727200Y-65165200D01*
X192627200Y-65165200D02*
X191727200Y-64465200D01*
X192627200Y-63765200D02*
X192627200Y-65165200D01*
X191727200Y-64465200D02*
X192627200Y-63765200D01*
X219360800Y-65062400D02*
X219360800Y-63662400D01*
X219360800Y-63662400D02*
X220260800Y-64362400D01*
X220260800Y-64362400D02*
X219360800Y-65062400D01*
X220260800Y-65062400D02*
X220260800Y-63662400D01*
X116630400Y-60413600D02*
X116630400Y-61813600D01*
X115730400Y-61113600D02*
X116630400Y-60413600D01*
X116630400Y-61813600D02*
X115730400Y-61113600D01*
X115730400Y-60413600D02*
X115730400Y-61813600D01*
X135656800Y-57872400D02*
X135656800Y-59272400D01*
X134756800Y-57872400D02*
X134756800Y-59272400D01*
X134756800Y-58572400D02*
X135656800Y-57872400D01*
X135656800Y-59272400D02*
X134756800Y-58572400D01*
X153727200Y-56133600D02*
X154627200Y-55433600D01*
X153727200Y-55433600D02*
X153727200Y-56833600D01*
X154627200Y-55433600D02*
X154627200Y-56833600D01*
X154627200Y-56833600D02*
X153727200Y-56133600D01*
X173628000Y-59272400D02*
X172728000Y-58572400D01*
X172728000Y-58572400D02*
X173628000Y-57872400D01*
X172728000Y-57872400D02*
X172728000Y-59272400D01*
X173628000Y-57872400D02*
X173628000Y-59272400D01*
X191735200Y-67432400D02*
X192635200Y-66732400D01*
X192635200Y-66732400D02*
X192635200Y-68132400D01*
X192635200Y-68132400D02*
X191735200Y-67432400D01*
X191735200Y-66732400D02*
X191735200Y-68132400D01*
X220260800Y-67462400D02*
X219360800Y-68162400D01*
X219360800Y-68162400D02*
X219360800Y-66762400D01*
X220260800Y-68162400D02*
X220260800Y-66762400D01*
X219360800Y-66762400D02*
X220260800Y-67462400D01*
X115730400Y-95361600D02*
X115730400Y-96761600D01*
X115730400Y-96061600D02*
X116630400Y-95361600D01*
X116630400Y-96761600D02*
X115730400Y-96061600D01*
X116630400Y-95361600D02*
X116630400Y-96761600D01*
X135680400Y-94324400D02*
X134780400Y-93624400D01*
X134780400Y-92924400D02*
X134780400Y-94324400D01*
X134780400Y-93624400D02*
X135680400Y-92924400D01*
X135680400Y-92924400D02*
X135680400Y-94324400D01*
X154628800Y-90486000D02*
X154628800Y-91886000D01*
X154628800Y-91886000D02*
X153728800Y-91186000D01*
X153728800Y-91186000D02*
X154628800Y-90486000D01*
X153728800Y-90486000D02*
X153728800Y-91886000D01*
X173678800Y-92823200D02*
X173678800Y-94223200D01*
X173678800Y-94223200D02*
X172778800Y-93523200D01*
X172778800Y-92823200D02*
X172778800Y-94223200D01*
X172778800Y-93523200D02*
X173678800Y-92823200D01*
X192678000Y-101828000D02*
X192678000Y-103228000D01*
X191778000Y-101828000D02*
X191778000Y-103228000D01*
X191778000Y-102528000D02*
X192678000Y-101828000D01*
X192678000Y-103228000D02*
X191778000Y-102528000D01*
X219411600Y-103181600D02*
X219411600Y-101781600D01*
X219411600Y-101781600D02*
X220311600Y-102481600D01*
X220311600Y-103181600D02*
X220311600Y-101781600D01*
X220311600Y-102481600D02*
X219411600Y-103181600D01*
X115730400Y-98461600D02*
X115730400Y-99861600D01*
X116630400Y-99861600D02*
X115730400Y-99161600D01*
X115730400Y-99161600D02*
X116630400Y-98461600D01*
X116630400Y-98461600D02*
X116630400Y-99861600D01*
X135662000Y-95912000D02*
X135662000Y-97312000D01*
X134762000Y-96612000D02*
X135662000Y-95912000D01*
X135662000Y-97312000D02*
X134762000Y-96612000D01*
X134762000Y-95912000D02*
X134762000Y-97312000D01*
X154628800Y-94986000D02*
X153728800Y-94286000D01*
X153728800Y-93586000D02*
X153728800Y-94986000D01*
X154628800Y-93586000D02*
X154628800Y-94986000D01*
X153728800Y-94286000D02*
X154628800Y-93586000D01*
X173678800Y-97423200D02*
X172778800Y-96723200D01*
X173678800Y-96023200D02*
X173678800Y-97423200D01*
X172778800Y-96723200D02*
X173678800Y-96023200D01*
X172778800Y-96023200D02*
X172778800Y-97423200D01*
X191778000Y-105728000D02*
X192678000Y-105028000D01*
X192678000Y-106428000D02*
X191778000Y-105728000D01*
X191778000Y-105028000D02*
X191778000Y-106428000D01*
X192678000Y-105028000D02*
X192678000Y-106428000D01*
X220338800Y-105664000D02*
X219438800Y-106364000D01*
X219438800Y-106364000D02*
X219438800Y-104964000D01*
X220338800Y-106364000D02*
X220338800Y-104964000D01*
X219438800Y-104964000D02*
X220338800Y-105664000D01*
X107100000Y-98310000D02*
X107100000Y-99710000D01*
X106200000Y-98310000D02*
X106200000Y-99710000D01*
X106200000Y-99010000D02*
X107100000Y-98310000D01*
X107100000Y-99710000D02*
X106200000Y-99010000D01*
X109227018Y-118412167D02*
X108014582Y-119112167D01*
X108170800Y-117982744D02*
X109227018Y-118412167D01*
X108777018Y-117632744D02*
X107564582Y-118332744D01*
X108014582Y-119112167D02*
X108170800Y-117982744D01*
X116630400Y-116930400D02*
X115730400Y-116230400D01*
X115730400Y-115530400D02*
X115730400Y-116930400D01*
X115730400Y-116230400D02*
X116630400Y-115530400D01*
X116630400Y-115530400D02*
X116630400Y-116930400D01*
X135578800Y-114717600D02*
X135578800Y-116117600D01*
X134678800Y-115417600D02*
X135578800Y-114717600D01*
X135578800Y-116117600D02*
X134678800Y-115417600D01*
X134678800Y-114717600D02*
X134678800Y-116117600D01*
X154628800Y-112126800D02*
X154628800Y-113526800D01*
X153728800Y-112826800D02*
X154628800Y-112126800D01*
X154628800Y-113526800D02*
X153728800Y-112826800D01*
X153728800Y-112126800D02*
X153728800Y-113526800D01*
X124400000Y-79610000D02*
X122600000Y-79610000D01*
X124400000Y-77810000D02*
X124400000Y-79610000D01*
X120100000Y-79610000D02*
X120100000Y-77810000D01*
X121900000Y-79610000D02*
X120100000Y-79610000D01*
X119300000Y-77810000D02*
X119300000Y-79610000D01*
X122600000Y-77810000D02*
X124400000Y-77810000D01*
X119300000Y-79610000D02*
X117500000Y-79610000D01*
X117500000Y-77810000D02*
X119300000Y-77810000D01*
X117500000Y-79610000D02*
X117500000Y-77810000D01*
X121900000Y-77810000D02*
X121900000Y-79610000D01*
X122600000Y-79610000D02*
X122600000Y-77810000D01*
X120100000Y-77810000D02*
X121900000Y-77810000D01*
X95030000Y-75680000D02*
X95030000Y-73140000D01*
X95030000Y-73140000D02*
X105190000Y-73140000D01*
X105190000Y-73140000D02*
X105190000Y-75680000D01*
X105190000Y-75680000D02*
X95030000Y-75680000D01*
X172778800Y-115316000D02*
X173678800Y-114616000D01*
X172778800Y-114616000D02*
X172778800Y-116016000D01*
X173678800Y-114616000D02*
X173678800Y-116016000D01*
X173678800Y-116016000D02*
X172778800Y-115316000D01*
D12*
X105300000Y-105200000D02*
X105300000Y-107800000D01*
X93100000Y-100600000D02*
X93100000Y-112400000D01*
X99200000Y-106000000D02*
X99200000Y-107000000D01*
X98700000Y-106500000D02*
X99700000Y-106500000D01*
X105300000Y-100600000D02*
X105300000Y-103000000D01*
X97200000Y-112400000D02*
X93100000Y-112400000D01*
X105300000Y-112400000D02*
X101200000Y-112400000D01*
X97200000Y-100600000D02*
X93100000Y-100600000D01*
X101200000Y-100600000D02*
X105300000Y-100600000D01*
X105300000Y-110000000D02*
X105300000Y-112400000D01*
X102200000Y-106500000D02*
G75*
G03*
X102200000Y-106500000I-3000000J0D01*
G01*
D10*
X89980000Y-90252000D02*
X89980000Y-84252000D01*
X89980000Y-84252000D02*
X101980000Y-84252000D01*
X101980000Y-84252000D02*
X101980000Y-90252000D01*
X101980000Y-90252000D02*
X89980000Y-90252000D01*
X90480000Y-74802000D02*
X91180000Y-74802000D01*
X93980000Y-74802000D02*
X93980000Y-80802000D01*
X93980000Y-74802000D02*
X93380000Y-74802000D01*
X93980000Y-80802000D02*
X93380000Y-80802000D01*
X90480000Y-80802000D02*
X91180000Y-80802000D01*
X90480000Y-80802000D02*
X90480000Y-74802000D01*
X90480000Y-80802000D02*
X90480000Y-74902000D01*
D12*
X101290000Y-51407936D02*
X101290000Y-52612064D01*
X103110000Y-51407936D02*
X103110000Y-52612064D01*
X99910000Y-51407936D02*
X99910000Y-52612064D01*
X98090000Y-51407936D02*
X98090000Y-52612064D01*
D10*
X102252200Y-70843000D02*
X102252200Y-68557000D01*
X102252200Y-68557000D02*
X100474200Y-68557000D01*
X100474200Y-70843000D02*
X102252200Y-70843000D01*
X100474200Y-68557000D02*
X100474200Y-70843000D01*
X97911000Y-68557000D02*
X97911000Y-70843000D01*
X99689000Y-68557000D02*
X97911000Y-68557000D01*
X97911000Y-70843000D02*
X99689000Y-70843000D01*
X99689000Y-70843000D02*
X99689000Y-68557000D01*
X97189000Y-68557000D02*
X95411000Y-68557000D01*
X95411000Y-68557000D02*
X95411000Y-70843000D01*
X97189000Y-70843000D02*
X97189000Y-68557000D01*
X95411000Y-70843000D02*
X97189000Y-70843000D01*
X103011000Y-68557000D02*
X103011000Y-70843000D01*
X103011000Y-70843000D02*
X104789000Y-70843000D01*
X104789000Y-70843000D02*
X104789000Y-68557000D01*
X104789000Y-68557000D02*
X103011000Y-68557000D01*
D12*
X98248400Y-60382000D02*
X98248400Y-57582000D01*
X96248400Y-60382000D02*
X98248400Y-60382000D01*
X96248400Y-57582000D02*
X96248400Y-60382000D01*
X98248400Y-57582000D02*
X96248400Y-57582000D01*
D13*
X92151400Y-42740000D03*
D14*
X92608600Y-45280000D03*
X92151400Y-47820000D03*
X92608600Y-50360000D03*
X92151400Y-52900000D03*
X92608600Y-55440000D03*
X92151400Y-57980000D03*
X92608600Y-60520000D03*
X92151400Y-63060000D03*
X92608600Y-65600000D03*
X92151400Y-68140000D03*
X92608600Y-70680000D03*
X107391400Y-70680000D03*
X107848600Y-68140000D03*
X107391400Y-65600000D03*
X107848600Y-63060000D03*
X107391400Y-60520000D03*
X107848600Y-57980000D03*
X107391400Y-55440000D03*
X107848600Y-52900000D03*
X107391400Y-50360000D03*
X107848600Y-47820000D03*
X107391400Y-45280000D03*
X107848600Y-42740000D03*
%LPC*%
D13*
X92151400Y-42740000D03*
D14*
X92608600Y-45280000D03*
X92151400Y-47820000D03*
X92608600Y-50360000D03*
X92151400Y-52900000D03*
X92608600Y-55440000D03*
X92151400Y-57980000D03*
X92608600Y-60520000D03*
X92151400Y-63060000D03*
X92608600Y-65600000D03*
X92151400Y-68140000D03*
X92608600Y-70680000D03*
X107391400Y-70680000D03*
X107848600Y-68140000D03*
X107391400Y-65600000D03*
X107848600Y-63060000D03*
X107391400Y-60520000D03*
X107848600Y-57980000D03*
X107391400Y-55440000D03*
X107848600Y-52900000D03*
X107391400Y-50360000D03*
X107848600Y-47820000D03*
X107391400Y-45280000D03*
X107848600Y-42740000D03*
D15*
X114530400Y-58013600D03*
X117930400Y-58013600D03*
X133556800Y-55575200D03*
X136956800Y-55575200D03*
X152427200Y-52933600D03*
X155827200Y-52933600D03*
X171528000Y-55472400D03*
X174928000Y-55472400D03*
X190527200Y-64465200D03*
X193927200Y-64465200D03*
X221460800Y-64362400D03*
X218060800Y-64362400D03*
X114530400Y-61113600D03*
X117930400Y-61113600D03*
X133556800Y-58572400D03*
X136956800Y-58572400D03*
X152527200Y-56133600D03*
X155927200Y-56133600D03*
X171528000Y-58572400D03*
X174928000Y-58572400D03*
X190535200Y-67432400D03*
X193935200Y-67432400D03*
X221460800Y-67462400D03*
X218060800Y-67462400D03*
X114530400Y-96061600D03*
X117930400Y-96061600D03*
X133580400Y-93624400D03*
X136980400Y-93624400D03*
X152528800Y-91186000D03*
X155928800Y-91186000D03*
X171578800Y-93523200D03*
X174978800Y-93523200D03*
X190578000Y-102528000D03*
X193978000Y-102528000D03*
X221511600Y-102481600D03*
X218111600Y-102481600D03*
X114530400Y-99161600D03*
X117930400Y-99161600D03*
X133562000Y-96612000D03*
X136962000Y-96612000D03*
X152528800Y-94286000D03*
X155928800Y-94286000D03*
X171578800Y-96723200D03*
X174978800Y-96723200D03*
X190578000Y-105728000D03*
X193978000Y-105728000D03*
X221538800Y-105664000D03*
X218138800Y-105664000D03*
X105000000Y-99010000D03*
X108400000Y-99010000D03*
D16*
X107570800Y-116943514D03*
X109270800Y-119888000D03*
D15*
X114530400Y-116230400D03*
X117930400Y-116230400D03*
X133478800Y-115417600D03*
X136878800Y-115417600D03*
X152528800Y-112826800D03*
X155928800Y-112826800D03*
D17*
X115420000Y-50000000D03*
X125580000Y-50000000D03*
D18*
X120500000Y-50000000D03*
D19*
X116690000Y-47460000D03*
X123040000Y-44920000D03*
D18*
X120500000Y-69100000D03*
D17*
X115420000Y-69100000D03*
X125580000Y-69100000D03*
D19*
X116690000Y-66560000D03*
X123040000Y-64020000D03*
D17*
X115420000Y-88100000D03*
X125580000Y-88100000D03*
D18*
X120500000Y-88100000D03*
D19*
X116690000Y-85560000D03*
X123040000Y-83020000D03*
D17*
X115420000Y-107100000D03*
X125580000Y-107100000D03*
D18*
X120500000Y-107100000D03*
D19*
X116690000Y-104560000D03*
X123040000Y-102020000D03*
D18*
X96700000Y-133410000D03*
D17*
X99240000Y-137809409D03*
X94160000Y-129010591D03*
D19*
X96994705Y-128840443D03*
X102369409Y-133069705D03*
D17*
X122276165Y-126415086D03*
D18*
X117600000Y-128400000D03*
D17*
X112923835Y-130384914D03*
D19*
X113100419Y-127550603D03*
X117953168Y-122731378D03*
D17*
X134420000Y-123800000D03*
X144580000Y-123800000D03*
D18*
X139500000Y-123800000D03*
D19*
X135690000Y-121260000D03*
X142040000Y-118720000D03*
D17*
X163580000Y-121200000D03*
D18*
X158500000Y-121200000D03*
D17*
X153420000Y-121200000D03*
D19*
X154690000Y-118660000D03*
X161040000Y-116120000D03*
D20*
X95130000Y-93352000D03*
D21*
X123500000Y-78710000D03*
X121000000Y-78710000D03*
X118400000Y-78710000D03*
D22*
X96300000Y-74410000D03*
X98840000Y-74410000D03*
X101380000Y-74410000D03*
X103920000Y-74410000D03*
D15*
X171578800Y-115316000D03*
X174978800Y-115316000D03*
D20*
X105130000Y-93336000D03*
D17*
X144580000Y-85600000D03*
X134420000Y-85600000D03*
D18*
X139500000Y-85600000D03*
D19*
X135690000Y-83060000D03*
X142040000Y-80520000D03*
D18*
X139500000Y-104700000D03*
D17*
X134420000Y-104700000D03*
X144580000Y-104700000D03*
D19*
X135690000Y-102160000D03*
X142040000Y-99620000D03*
D18*
X139500000Y-66600000D03*
D17*
X144580000Y-66600000D03*
X134420000Y-66600000D03*
D19*
X135690000Y-64060000D03*
X142040000Y-61520000D03*
D18*
X139500000Y-47500000D03*
D17*
X144580000Y-47500000D03*
X134420000Y-47500000D03*
D19*
X135690000Y-44960000D03*
X142040000Y-42420000D03*
D18*
X158500000Y-83200000D03*
D17*
X163580000Y-83200000D03*
X153420000Y-83200000D03*
D19*
X154690000Y-80660000D03*
X161040000Y-78120000D03*
D17*
X163580000Y-45010000D03*
X153420000Y-45010000D03*
D18*
X158500000Y-45010000D03*
D19*
X154690000Y-42470000D03*
X161040000Y-39930000D03*
D18*
X158500000Y-64100000D03*
D17*
X163580000Y-64100000D03*
X153420000Y-64100000D03*
D19*
X154690000Y-61560000D03*
X161040000Y-59020000D03*
D17*
X163580000Y-102200000D03*
X153420000Y-102200000D03*
D18*
X158500000Y-102200000D03*
D19*
X154690000Y-99660000D03*
X161040000Y-97120000D03*
D17*
X172420000Y-104700000D03*
D18*
X177500000Y-104700000D03*
D17*
X182580000Y-104700000D03*
D19*
X173690000Y-102160000D03*
X180040000Y-99620000D03*
D17*
X172420000Y-66500000D03*
D18*
X177500000Y-66500000D03*
D17*
X182580000Y-66500000D03*
D19*
X173690000Y-63960000D03*
X180040000Y-61420000D03*
D17*
X182580000Y-123700000D03*
X172420000Y-123700000D03*
D18*
X177500000Y-123700000D03*
D19*
X173690000Y-121160000D03*
X180040000Y-118620000D03*
D17*
X182580000Y-85600000D03*
D18*
X177500000Y-85600000D03*
D17*
X172420000Y-85600000D03*
D19*
X173690000Y-83060000D03*
X180040000Y-80520000D03*
D17*
X182580000Y-47500000D03*
X172420000Y-47500000D03*
D18*
X177500000Y-47500000D03*
D19*
X173690000Y-44960000D03*
X180040000Y-42420000D03*
D18*
X196500000Y-56500000D03*
D17*
X201580000Y-56500000D03*
X191420000Y-56500000D03*
D19*
X192690000Y-53960000D03*
X199040000Y-51420000D03*
D17*
X191420000Y-113600000D03*
X201580000Y-113600000D03*
D18*
X196500000Y-113600000D03*
D19*
X192690000Y-111060000D03*
X199040000Y-108520000D03*
D17*
X210420000Y-94600000D03*
X220580000Y-94600000D03*
D18*
X215500000Y-94600000D03*
D19*
X211690000Y-92060000D03*
X218040000Y-89520000D03*
D17*
X220630000Y-113600000D03*
D18*
X215550000Y-113600000D03*
D17*
X210470000Y-113600000D03*
D19*
X211740000Y-111060000D03*
X218090000Y-108520000D03*
D18*
X215500000Y-56500000D03*
D17*
X220580000Y-56500000D03*
X210420000Y-56500000D03*
D19*
X211690000Y-53960000D03*
X218040000Y-51420000D03*
D17*
X210420000Y-75400000D03*
X220580000Y-75400000D03*
D18*
X215500000Y-75400000D03*
D19*
X211690000Y-72860000D03*
X218040000Y-70320000D03*
D17*
X191420000Y-94600000D03*
X201580000Y-94600000D03*
D18*
X196500000Y-94600000D03*
D19*
X192690000Y-92060000D03*
X199040000Y-89520000D03*
D18*
X196500000Y-75400000D03*
D17*
X201580000Y-75400000D03*
X191420000Y-75400000D03*
D19*
X192690000Y-72860000D03*
X199040000Y-70320000D03*
D23*
X91700000Y-104000000D03*
X91700000Y-109000000D03*
X91700000Y-106500000D03*
D24*
X99200000Y-112100000D03*
X99200000Y-100900000D03*
D23*
X106200000Y-109000000D03*
X106200000Y-104000000D03*
D25*
X91480000Y-87252000D03*
X91480000Y-85502000D03*
X98480000Y-87252000D03*
X98480000Y-85502000D03*
D26*
X100280000Y-89352000D03*
X100280000Y-83402000D03*
X96280000Y-89352000D03*
X96280000Y-83402000D03*
X93280000Y-89352000D03*
X93280000Y-83402000D03*
X101780000Y-87602000D03*
X101780000Y-85152000D03*
D23*
X92280000Y-81052000D03*
X92280000Y-74552000D03*
D27*
X205800000Y-66210000D03*
X103800000Y-120810000D03*
X205800000Y-104510000D03*
X129300000Y-59600000D03*
X129300000Y-97510000D03*
D28*
X102200000Y-50610000D03*
X102200000Y-53410000D03*
X99000000Y-50610000D03*
X99000000Y-53410000D03*
D29*
X101363200Y-70200380D03*
X101363200Y-69199620D03*
X98800000Y-70200380D03*
X98800000Y-69199620D03*
X96300000Y-70200380D03*
X96300000Y-69199620D03*
X103900000Y-70200380D03*
X103900000Y-69199620D03*
D30*
X97248400Y-58332000D03*
X97248400Y-59632000D03*
D18*
X215500000Y-56500000D03*
D17*
X210420000Y-56500000D03*
X220580000Y-56500000D03*
D18*
X158500000Y-121200000D03*
D17*
X153420000Y-121200000D03*
X163580000Y-121200000D03*
X153420000Y-102200000D03*
X163580000Y-102200000D03*
D18*
X158500000Y-102200000D03*
D17*
X172420000Y-66500000D03*
D18*
X177500000Y-66500000D03*
D17*
X182580000Y-66500000D03*
X172420000Y-47500000D03*
D18*
X177500000Y-47500000D03*
D17*
X182580000Y-47500000D03*
D18*
X139500000Y-123800000D03*
D17*
X144580000Y-123800000D03*
X134420000Y-123800000D03*
X134420000Y-104700000D03*
D18*
X139500000Y-104700000D03*
D17*
X144580000Y-104700000D03*
X201580000Y-113600000D03*
D18*
X196500000Y-113600000D03*
D17*
X191420000Y-113600000D03*
X153420000Y-45010000D03*
D18*
X158500000Y-45010000D03*
D17*
X163580000Y-45010000D03*
X191420000Y-75400000D03*
D18*
X196500000Y-75400000D03*
D17*
X201580000Y-75400000D03*
X191420000Y-56500000D03*
X201580000Y-56500000D03*
D18*
X196500000Y-56500000D03*
X177500000Y-104700000D03*
D17*
X172420000Y-104700000D03*
X182580000Y-104700000D03*
X210470000Y-113600000D03*
X220630000Y-113600000D03*
D18*
X215550000Y-113600000D03*
D17*
X112923835Y-130384914D03*
X122276165Y-126415086D03*
D18*
X117600000Y-128400000D03*
X139500000Y-66600000D03*
D17*
X134420000Y-66600000D03*
X144580000Y-66600000D03*
X144580000Y-47500000D03*
X134420000Y-47500000D03*
D18*
X139500000Y-47500000D03*
D17*
X220580000Y-75400000D03*
X210420000Y-75400000D03*
D18*
X215500000Y-75400000D03*
D17*
X94160000Y-129010591D03*
X99240000Y-137809409D03*
D18*
X96700000Y-133410000D03*
X158500000Y-64100000D03*
D17*
X153420000Y-64100000D03*
X163580000Y-64100000D03*
X182580000Y-123700000D03*
X172420000Y-123700000D03*
D18*
X177500000Y-123700000D03*
D17*
X220580000Y-94600000D03*
D18*
X215500000Y-94600000D03*
D17*
X210420000Y-94600000D03*
D18*
X120500000Y-50000000D03*
D17*
X125580000Y-50000000D03*
X115420000Y-50000000D03*
D18*
X120500000Y-88100000D03*
D17*
X115420000Y-88100000D03*
X125580000Y-88100000D03*
X134420000Y-85600000D03*
D18*
X139500000Y-85600000D03*
D17*
X144580000Y-85600000D03*
X182580000Y-85600000D03*
D18*
X177500000Y-85600000D03*
D17*
X172420000Y-85600000D03*
X115420000Y-69100000D03*
X125580000Y-69100000D03*
D18*
X120500000Y-69100000D03*
D17*
X153420000Y-83200000D03*
X163580000Y-83200000D03*
D18*
X158500000Y-83200000D03*
D17*
X115420000Y-107100000D03*
D18*
X120500000Y-107100000D03*
D17*
X125580000Y-107100000D03*
D18*
X196500000Y-94600000D03*
D17*
X191420000Y-94600000D03*
X201580000Y-94600000D03*
M02*
