M48
; DRILL file {KiCad (6.0.1)} date Fri Jul 29 00:13:51 2022
; FORMAT={-:-/ absolute / metric / decimal}
; #@! TF.CreationDate,2022-07-29T00:13:51+02:00
; #@! TF.GenerationSoftware,Kicad,Pcbnew,(6.0.1)
; #@! TF.FileFunction,Plated,1,2,PTH
FMAT,2
METRIC
; #@! TA.AperFunction,Plated,PTH,ViaDrill
T1C0.400
; #@! TA.AperFunction,Plated,PTH,ComponentDrill
T2C0.400
; #@! TA.AperFunction,Plated,PTH,ComponentDrill
T3C0.813
; #@! TA.AperFunction,Plated,PTH,ComponentDrill
T4C1.000
; #@! TA.AperFunction,Plated,PTH,ComponentDrill
T5C1.092
; #@! TA.AperFunction,Plated,PTH,ComponentDrill
T6C1.300
; #@! TA.AperFunction,Plated,PTH,ComponentDrill
T7C1.470
; #@! TA.AperFunction,Plated,PTH,ComponentDrill
T8C1.500
; #@! TA.AperFunction,Plated,PTH,ComponentDrill
T9C2.200
; #@! TA.AperFunction,Plated,PTH,ComponentDrill
T10C4.100
%
G90
G05
T1
X95.25Y-48.997
X95.961Y-62.84
X96.317Y-67.843
X97.324Y-61.406
X98.12Y-63.195
X99.162Y-55.778
X99.655Y-77.427
X100.071Y-69.22
X100.66Y-61.468
X102.464Y-67.843
X102.616Y-69.19
X102.794Y-60.122
X103.279Y-77.341
X103.403Y-55.778
X108.306Y-80.391
X113.513Y-66.446
X114.317Y-75.954
X118.923Y-72.517
X134.18Y-75.248
X152.468Y-74.893
X171.366Y-74.537
X190.466Y-83.086
X209.415Y-82.466
T2
X99.0Y-50.61
X99.0Y-53.41
X102.2Y-50.61
X102.2Y-53.41
X105.0Y-99.01
X107.571Y-116.944
X108.4Y-99.01
X109.271Y-119.888
X114.53Y-58.014
X114.53Y-61.114
X114.53Y-96.062
X114.53Y-99.162
X114.53Y-116.23
X117.93Y-58.014
X117.93Y-61.114
X117.93Y-96.062
X117.93Y-99.162
X117.93Y-116.23
X133.479Y-115.418
X133.557Y-55.575
X133.557Y-58.572
X133.562Y-96.612
X133.58Y-93.624
X136.879Y-115.418
X136.957Y-55.575
X136.957Y-58.572
X136.962Y-96.612
X136.98Y-93.624
X152.427Y-52.934
X152.527Y-56.134
X152.529Y-91.186
X152.529Y-94.286
X152.529Y-112.827
X155.827Y-52.934
X155.927Y-56.134
X155.929Y-91.186
X155.929Y-94.286
X155.929Y-112.827
X171.528Y-55.472
X171.528Y-58.572
X171.579Y-93.523
X171.579Y-96.723
X171.579Y-115.316
X174.928Y-55.472
X174.928Y-58.572
X174.979Y-93.523
X174.979Y-96.723
X174.979Y-115.316
X190.527Y-64.465
X190.535Y-67.432
X190.578Y-102.528
X190.578Y-105.728
X193.927Y-64.465
X193.935Y-67.432
X193.978Y-102.528
X193.978Y-105.728
X218.061Y-64.362
X218.061Y-67.462
X218.112Y-102.482
X218.139Y-105.664
X221.461Y-64.362
X221.461Y-67.462
X221.512Y-102.482
X221.539Y-105.664
T3
X96.3Y-74.41
X98.84Y-74.41
X101.38Y-74.41
X103.92Y-74.41
T4
X91.7Y-104.0
X91.7Y-106.5
X91.7Y-109.0
X106.2Y-104.0
X106.2Y-109.0
X118.4Y-78.71
X121.0Y-78.71
X123.5Y-78.71
T5
X92.151Y-42.74
X92.151Y-47.82
X92.151Y-52.9
X92.151Y-57.98
X92.151Y-63.06
X92.151Y-68.14
X92.609Y-45.28
X92.609Y-50.36
X92.609Y-55.44
X92.609Y-60.52
X92.609Y-65.6
X92.609Y-70.68
X107.391Y-45.28
X107.391Y-50.36
X107.391Y-55.44
X107.391Y-60.52
X107.391Y-65.6
X107.391Y-70.68
X107.849Y-42.74
X107.849Y-47.82
X107.849Y-52.9
X107.849Y-57.98
X107.849Y-63.06
X107.849Y-68.14
T6
X92.28Y-74.552
X92.28Y-81.052
T7
X96.995Y-128.84
X99.829Y-128.67
X100.805Y-135.44
X102.369Y-133.07
X113.1Y-127.551
X113.277Y-124.716
X116.69Y-47.46
X116.69Y-66.56
X116.69Y-85.56
X116.69Y-104.56
X117.953Y-122.731
X117.96Y-44.92
X117.96Y-64.02
X117.96Y-83.02
X117.96Y-102.02
X120.115Y-124.573
X123.04Y-44.92
X123.04Y-64.02
X123.04Y-83.02
X123.04Y-102.02
X124.31Y-47.46
X124.31Y-66.56
X124.31Y-85.56
X124.31Y-104.56
X135.69Y-44.96
X135.69Y-64.06
X135.69Y-83.06
X135.69Y-102.16
X135.69Y-121.26
X136.96Y-42.42
X136.96Y-61.52
X136.96Y-80.52
X136.96Y-99.62
X136.96Y-118.72
X142.04Y-42.42
X142.04Y-61.52
X142.04Y-80.52
X142.04Y-99.62
X142.04Y-118.72
X143.31Y-44.96
X143.31Y-64.06
X143.31Y-83.06
X143.31Y-102.16
X143.31Y-121.26
X154.69Y-42.47
X154.69Y-61.56
X154.69Y-80.66
X154.69Y-99.66
X154.69Y-118.66
X155.96Y-39.93
X155.96Y-59.02
X155.96Y-78.12
X155.96Y-97.12
X155.96Y-116.12
X161.04Y-39.93
X161.04Y-59.02
X161.04Y-78.12
X161.04Y-97.12
X161.04Y-116.12
X162.31Y-42.47
X162.31Y-61.56
X162.31Y-80.66
X162.31Y-99.66
X162.31Y-118.66
X173.69Y-44.96
X173.69Y-63.96
X173.69Y-83.06
X173.69Y-102.16
X173.69Y-121.16
X174.96Y-42.42
X174.96Y-61.42
X174.96Y-80.52
X174.96Y-99.62
X174.96Y-118.62
X180.04Y-42.42
X180.04Y-61.42
X180.04Y-80.52
X180.04Y-99.62
X180.04Y-118.62
X181.31Y-44.96
X181.31Y-63.96
X181.31Y-83.06
X181.31Y-102.16
X181.31Y-121.16
X192.69Y-53.96
X192.69Y-72.86
X192.69Y-92.06
X192.69Y-111.06
X193.96Y-51.42
X193.96Y-70.32
X193.96Y-89.52
X193.96Y-108.52
X199.04Y-51.42
X199.04Y-70.32
X199.04Y-89.52
X199.04Y-108.52
X200.31Y-53.96
X200.31Y-72.86
X200.31Y-92.06
X200.31Y-111.06
X211.69Y-53.96
X211.69Y-72.86
X211.69Y-92.06
X211.74Y-111.06
X212.96Y-51.42
X212.96Y-70.32
X212.96Y-89.52
X213.01Y-108.52
X218.04Y-51.42
X218.04Y-70.32
X218.04Y-89.52
X218.09Y-108.52
X219.31Y-53.96
X219.31Y-72.86
X219.31Y-92.06
X219.36Y-111.06
T9
X95.13Y-93.352
X105.13Y-93.336
T10
X103.8Y-120.81
X129.3Y-59.6
X129.3Y-97.51
X205.8Y-66.21
X205.8Y-104.51
T4
X93.03Y-83.402G85X93.53Y-83.402
G05
X93.03Y-89.352G85X93.53Y-89.352
G05
X96.03Y-83.402G85X96.53Y-83.402
G05
X96.03Y-89.352G85X96.53Y-89.352
G05
X100.03Y-83.402G85X100.53Y-83.402
G05
X100.03Y-89.352G85X100.53Y-89.352
G05
X101.53Y-85.152G85X102.03Y-85.152
G05
X101.53Y-87.602G85X102.03Y-87.602
G05
T8
X98.55Y-100.9G85X99.85Y-100.9
G05
X98.55Y-112.1G85X99.85Y-112.1
G05
T0
M30
