0
SECTION
2
HEADER
9
$INSUNITS
70
4
9
$ACADVER
1
AC1014
9
$HANDSEED
5
FFFF
0
ENDSEC
0
SECTION
2
TABLES
0
TABLE
2
VPORT
5
8
100
AcDbSymbolTable
0
ENDTAB
0
TABLE
2
LTYPE
5
5
100
AcDbSymbolTable
0
LTYPE
5
14
100
AcDbSymbolTableRecord
100
AcDbLinetypeTableRecord
2
BYBLOCK
70
0
0
LTYPE
5
15
100
AcDbSymbolTableRecord
100
AcDbLinetypeTableRecord
2
BYLAYER
70
0
0
ENDTAB
0
TABLE
2
LAYER
5
2
100
AcDbSymbolTable
70
2
0
LAYER
5
50
100
AcDbSymbolTableRecord
100
AcDbLayerTableRecord
2
0
70
0
6
CONTINUOUS
0
ENDTAB
0
TABLE
2
STYLE
5
3
100
AcDbSymbolTable
70
1
0
STYLE
5
11
100
AcDbSymbolTableRecord
100
AcDbTextStyleTableRecord
2
STANDARD
70
0
0
ENDTAB
0
TABLE
2
VIEW
5
6
100
AcDbSymbolTable
70
0
0
ENDTAB
0
TABLE
2
UCS
5
7
100
AcDbSymbolTable
70
0
0
ENDTAB
0
TABLE
2
APPID
5
9
100
AcDbSymbolTable
70
2
0
APPID
5
12
100
AcDbSymbolTableRecord
100
AcDbRegAppTableRecord
2
ACAD
70
0
0
ENDTAB
0
TABLE
2
DIMSTYLE
5
A
100
AcDbSymbolTable
70
1
0
ENDTAB
0
TABLE
2
BLOCK_RECORD
5
1
100
AcDbSymbolTable
70
1
0
BLOCK_RECORD
5
1F
100
AcDbSymbolTableRecord
100
AcDbBlockTableRecord
2
*MODEL_SPACE
0
BLOCK_RECORD
5
1B
100
AcDbSymbolTableRecord
100
AcDbBlockTableRecord
2
*PAPER_SPACE
0
ENDTAB
0
ENDSEC
0
SECTION
2
BLOCKS
0
BLOCK
5
20
100
AcDbEntity
100
AcDbBlockBegin
2
*MODEL_SPACE
0
ENDBLK
5
21
100
AcDbEntity
100
AcDbBlockEnd
0
BLOCK
5
1C
100
AcDbEntity
100
AcDbBlockBegin
2
*PAPER_SPACE
0
ENDBLK
5
1D
100
AcDbEntity
100
AcDbBlockEnd
0
ENDSEC
0
SECTION
2
ENTITIES
0
LWPOLYLINE
5
100
100
AcDbEntity
8
0
100
AcDbPolyline
90
4
70
1
43
0.0
10
-42.196763826409978
20
9.1000332087059839
10
-56.196661743076646
20
9.1000332087059839
10
-56.196661743076646
20
23.099931125372652
10
-42.196763826409978
20
23.099931125372652
0
LWPOLYLINE
5
101
100
AcDbEntity
8
0
100
AcDbPolyline
90
4
70
1
43
0.0
10
-80.296484488042211
20
80.299516712307934
10
-94.296382404708865
20
80.299516712307934
10
-94.296382404708879
20
94.299414628974603
10
-80.296484488042211
20
94.299414628974603
0
LWPOLYLINE
5
102
100
AcDbEntity
8
0
100
AcDbPolyline
90
4
70
1
43
0.0
10
-137.44606929515999
20
11.500016280906403
10
-151.44597484116557
20
11.500016280906401
10
-151.44597484116557
20
25.499913243905709
10
-137.44606929515999
20
25.499913243905709
0
LWPOLYLINE
5
103
100
AcDbEntity
8
0
100
AcDbPolyline
90
4
70
1
43
0.0
10
-61.246627971895542
20
82.799498483141292
10
-75.246525888562218
20
82.799498483141264
10
-75.246525888562218
20
96.799396399807947
10
-61.246627971895542
20
96.799396399807947
0
LWPOLYLINE
5
104
100
AcDbEntity
8
0
100
AcDbPolyline
90
4
70
1
43
0.0
10
-118.39621277901333
20
11.500016280906403
10
-132.39611069567999
20
11.500016280906401
10
-132.39611069567999
20
25.499913243905709
10
-118.39621277901333
20
25.499913243905709
0
LWPOLYLINE
5
105
100
AcDbEntity
8
0
100
AcDbPolyline
90
4
70
1
43
0.0
10
-99.346348633527768
20
63.749634337655714
10
-113.34624655019442
20
63.749634337655714
10
-113.34624655019442
20
77.749532254322389
10
-99.346348633527768
20
77.749532254322389
0
LWPOLYLINE
5
106
100
AcDbEntity
8
0
100
AcDbPolyline
90
4
70
1
43
0.0
10
-61.246627971895542
20
63.749634337655714
10
-75.246525888562218
20
63.749634337655714
10
-75.246525888562218
20
77.749532254322389
10
-61.246627971895542
20
77.749532254322389
0
LWPOLYLINE
5
107
100
AcDbEntity
8
0
100
AcDbPolyline
90
4
70
1
43
0.0
10
-99.346348633527768
20
6.6000519147063308
10
-113.34624655019442
20
6.6000519147063308
10
-113.34624655019442
20
20.599949354539319
10
-99.346348633527768
20
20.599949354539319
0
CIRCLE
5
108
100
AcDbEntity
8
0
100
AcDbCircle
10
-96.821366922916667
20
47.46975386385418
30
0
40
1.7499872395833371
210
0
220
-0
230
1
0
LWPOLYLINE
5
109
100
AcDbEntity
8
0
100
AcDbPolyline
90
4
70
1
43
0.0
10
-99.346348633527768
20
25.649913676023488
10
-113.34624655019442
20
25.649913676023488
10
-113.34624655019442
20
39.649811592690156
10
-99.346348633527768
20
39.649811592690156
0
CIRCLE
5
110
100
AcDbEntity
8
0
100
AcDbCircle
10
-58.721644735416675
20
47.46975386385418
30
0
40
1.7499872395833371
210
0
220
-0
230
1
0
LWPOLYLINE
5
111
100
AcDbEntity
8
0
100
AcDbPolyline
90
4
70
1
43
0.0
10
-80.296484488042211
20
4.1000701438729976
10
-94.296382404708865
20
4.1000701438729967
10
-94.296382404708879
20
18.099967583705983
10
-80.296484488042211
20
18.099967583705986
0
CIRCLE
5
112
100
AcDbEntity
8
0
100
AcDbCircle
10
-40.656776459374996
20
3.2175765383333337
30
0
40
2.0499850520833318
210
0
220
-0
230
1
0
LWPOLYLINE
5
113
100
AcDbEntity
8
0
100
AcDbPolyline
90
4
70
1
43
0.0
10
-80.296484488042211
20
23.149931905190151
10
-94.296382404708865
20
23.149931905190154
10
-94.296382404708879
20
37.149829821856819
10
-80.296484488042211
20
37.149829821856819
0
LWPOLYLINE
5
114
100
AcDbEntity
8
0
100
AcDbPolyline
90
4
70
1
43
0.0
10
-28.50166562814713
20
90.52534089113874
10
-34.857519093835357
20
102.99934813973906
10
-22.383509937900303
20
109.35510623869104
10
-16.027655995378396
20
96.88109136075181
0
LWPOLYLINE
5
115
100
AcDbEntity
8
0
100
AcDbPolyline
90
4
70
1
43
0.0
10
-118.39621277901333
20
68.649600134356817
10
-132.39611069567999
20
68.649600134356831
10
-132.39611069567999
20
82.649498051023485
10
-118.39621277901333
20
82.649498051023485
0
LWPOLYLINE
5
116
100
AcDbEntity
8
0
100
AcDbPolyline
90
4
70
1
43
0.0
10
-37.673498545243348
20
89.549746808608376
10
-51.196400657192875
20
85.926276220663397
10
-54.819875059807302
20
99.449172610608741
10
-41.296971040523054
20
103.07255164648693
0
LWPOLYLINE
5
117
100
AcDbEntity
8
0
100
AcDbPolyline
90
4
70
1
43
0.0
10
-137.44606929515999
20
30.549877565389878
10
-151.44597484116557
20
30.549877565389878
10
-151.44597484116557
20
44.549773574721819
10
-137.44606929515999
20
44.549773574721819
0
LWPOLYLINE
5
118
100
AcDbEntity
8
0
100
AcDbPolyline
90
4
70
1
43
0.0
10
-61.246627971895542
20
25.649913676023488
10
-75.246525888562218
20
25.649913676023488
10
-75.246525888562218
20
39.649811592690156
10
-61.246627971895542
20
39.649811592690156
0
LWPOLYLINE
5
119
100
AcDbEntity
8
0
100
AcDbPolyline
90
4
70
1
43
0.0
10
-99.346348633527768
20
44.699774006839597
10
-113.34624655019442
20
44.699774006839597
10
-113.34624655019442
20
58.699671923506273
10
-99.346348633527768
20
58.699671923506273
0
CIRCLE
5
120
100
AcDbEntity
8
0
100
AcDbCircle
10
-77.771505829166685
20
66.519614957604176
30
0
40
1.7499872395833371
210
0
220
-0
230
1
0
CIRCLE
5
121
100
AcDbEntity
8
0
100
AcDbCircle
10
-77.771505829166685
20
28.41989277010417
30
0
40
1.7499872395833371
210
0
220
-0
230
1
0
LWPOLYLINE
5
122
100
AcDbEntity
8
0
100
AcDbPolyline
90
4
70
1
43
0.0
10
-137.44606929515999
20
68.649600134356817
10
-151.44597484116557
20
68.649600134356831
10
-151.44597484116557
20
82.649498051023485
10
-137.44606929515999
20
82.649498051023485
0
LWPOLYLINE
5
123
100
AcDbEntity
8
0
100
AcDbPolyline
90
4
70
1
43
0.0
10
-80.296484488042211
20
61.249652566822377
10
-94.296382404708865
20
61.249652566822377
10
-94.296382404708879
20
75.249550483489045
10
-80.296484488042211
20
75.249550483489045
0
LWPOLYLINE
5
124
100
AcDbEntity
8
0
100
AcDbPolyline
90
4
70
1
43
0.0
10
-42.196763826409978
20
47.199755777672934
10
-56.196661743076646
20
47.199755777672934
10
-56.196661743076646
20
61.199653694339602
10
-42.196763826409978
20
61.199653694339602
0
LWPOLYLINE
5
125
100
AcDbEntity
8
0
100
AcDbPolyline
90
4
70
1
43
0.0
10
-61.246627971895542
20
44.699774006839597
10
-75.246525888562218
20
44.699774006839597
10
-75.246525888562218
20
58.699671923506273
10
-61.246627971895542
20
58.699671923506273
0
CIRCLE
5
126
100
AcDbEntity
8
0
100
AcDbCircle
10
-14.295968675000001
20
67.099610728437511
30
0
40
2.0499850520833336
210
0
220
-0
230
1
0
CIRCLE
5
127
100
AcDbEntity
8
0
100
AcDbCircle
10
-33.786826553125003
20
56.689686634687504
30
0
40
2.0499850520833318
210
0
220
-0
230
1
0
CIRCLE
5
128
100
AcDbEntity
8
0
100
AcDbCircle
10
-32.236837855208336
20
86.629468322187506
30
0
40
1.0999919791666679
210
0
220
-0
230
1
0
CIRCLE
5
129
100
AcDbEntity
8
0
100
AcDbCircle
10
-58.176648709375002
20
63.559636540937504
30
0
40
1.0999919791666635
210
0
220
-0
230
1
0
CIRCLE
5
130
100
AcDbEntity
8
0
100
AcDbCircle
10
-58.086649365625007
20
25.609913259687502
30
0
40
1.0999919791666635
210
0
220
-0
230
1
0
CIRCLE
5
131
100
AcDbEntity
8
0
100
AcDbCircle
10
-134.92108911041669
20
66.124617837812508
30
0
40
1.0999919791666635
210
0
220
-0
230
1
0
CIRCLE
5
132
100
AcDbEntity
8
0
100
AcDbCircle
10
-134.93608900104169
20
28.009895759687502
30
0
40
1.0999919791666635
210
0
220
-0
230
1
0
LWPOLYLINE
5
133
100
AcDbEntity
8
0
100
AcDbPolyline
90
4
70
1
43
0.0
10
-21.046919380294288
20
64.099630259704611
10
-36.646805058093868
20
64.099630259704597
10
-36.646805058093868
20
77.099535468037942
10
-21.046919380294288
20
77.099535468037942
0
LWPOLYLINE
5
134
100
AcDbEntity
8
0
100
AcDbPolyline
90
4
70
1
43
0.0
10
-118.39621277901333
20
30.549877565389878
10
-132.39611069567999
20
30.549877565389878
10
-132.39611069567999
20
44.549773574721819
10
-118.39621277901333
20
44.549773574721819
0
LWPOLYLINE
5
135
100
AcDbEntity
8
0
100
AcDbPolyline
90
4
70
1
43
0.0
10
-118.39621277901333
20
49.599739803540714
10
-132.39611069567999
20
49.599739803540714
10
-132.39611069567999
20
63.599637720207383
10
-118.39621277901333
20
63.599637720207383
0
LWPOLYLINE
5
136
100
AcDbEntity
8
0
100
AcDbPolyline
90
4
70
1
43
0.0
10
-42.196763826409978
20
66.249616108489036
10
-56.196661743076646
20
66.24961610848905
10
-56.196661743076646
20
80.249514025155705
10
-42.196763826409978
20
80.249514025155705
0
LWPOLYLINE
5
137
100
AcDbEntity
8
0
100
AcDbPolyline
90
4
70
1
43
0.0
10
-137.44606929515999
20
49.599739803540714
10
-151.44597484116557
20
49.599739803540714
10
-151.44597484116557
20
63.599637720207383
10
-137.44606929515999
20
63.599637720207383
0
LWPOLYLINE
5
138
100
AcDbEntity
8
0
100
AcDbPolyline
90
4
70
1
43
0.0
10
-61.246627971895542
20
6.6000519147063308
10
-75.246525888562218
20
6.6000519147063308
10
-75.246525888562218
20
20.599949354539319
10
-61.246627971895542
20
20.599949354539319
0
LWPOLYLINE
5
139
100
AcDbEntity
8
0
100
AcDbPolyline
90
4
70
1
43
0.0
10
-99.346348633527768
20
82.799498483141292
10
-113.34624655019442
20
82.799498483141264
10
-113.34624655019442
20
96.799396399807947
10
-99.346348633527768
20
96.799396399807947
0
LWPOLYLINE
5
140
100
AcDbEntity
8
0
100
AcDbPolyline
90
4
70
1
43
0.0
10
-42.196763826409978
20
28.149895446856821
10
-56.196661743076646
20
28.149895446856821
10
-56.196661743076646
20
42.149793363523493
10
-42.196763826409978
20
42.149793363523493
0
LWPOLYLINE
5
141
100
AcDbEntity
8
0
100
AcDbPolyline
90
4
70
1
43
0.0
10
-80.296484488042211
20
42.19979223600626
10
-94.296382404708865
20
42.19979223600626
10
-94.296382404708879
20
56.199690152672936
10
-80.296484488042211
20
56.199690152672936
0
LWPOLYLINE
5
142
100
AcDbEntity
8
0
100
AcDbPolyline
90
25
70
1
43
0.0
10
-37.659698978507528
20
1.0749922091417019
10
-37.659698978507521
20
13.020004701666039
42
0.41421356237309637
10
-38.659691686840858
20
14.01999740999937
10
-39.446785785828041
20
14.01999740999937
10
-39.446785785828041
20
54.162904619820921
10
-36.307507376517847
20
54.162904619820921
42
0.075722228113529785
10
-35.446814952494705
20
53.529711452464277
10
-23.746899502060813
20
53.529711452464277
42
0.41421356237310153
10
-22.746906793727479
20
54.529704160797607
10
-22.746906793727479
20
62.546743175939731
10
-11.050192327795925
20
62.546743175939731
42
0.41418451285580071
10
-10.050100452957459
20
63.546735884273048
10
-10.050199634363643
20
63.546735884273062
10
-10.050199634363643
20
93.629413716093723
42
0.12270830331283954
10
-10.213698438242263
20
94.337111192480734
10
-21.024619776356225
20
115.5538601724148
42
0.35564564797173576
10
-22.757007084764052
20
116.31975424593293
10
-77.771303010821356
20
100.82426176597279
10
-115.87103130179247
20
100.82426176597279
10
-154.56504694639844
20
86.551668388994543
42
0.2994494201463902
10
-155.4707410259247
20
85.174381984027235
10
-155.4707410259247
20
8.9749349387586097
42
0.38067478120920478
10
-154.13455386961303
20
7.4739454791953186
10
-96.821167156306913
20
0.074999456105210305
10
-38.659691686840858
20
0.074899455141617111
42
0.41418428161633092
0
ENDSEC
0
SECTION
2
OBJECTS
0
DICTIONARY
5
C
100
AcDbDictionary
3
ACAD_GROUP
350
D
3
ACAD_MLINESTYLE
350
17
0
DICTIONARY
5
D
100
AcDbDictionary
0
DICTIONARY
5
1A
330
C
100
AcDbDictionary
0
DICTIONARY
5
17
100
AcDbDictionary
0
ENDSEC
0
EOF
