<?xml version="1.0" standalone="no"?>
 <!DOCTYPE svg PUBLIC "-//W3C//DTD SVG 1.1//EN" 
 "http://www.w3.org/Graphics/SVG/1.1/DTD/svg11.dtd"> 
<svg
  xmlns:svg="http://www.w3.org/2000/svg"
  xmlns="http://www.w3.org/2000/svg"
  xmlns:xlink="http://www.w3.org/1999/xlink"
  version="1.1"
  width="148.5138mm" height="118.3132mm" viewBox="0.0000 0.0000 148.5138 118.3132">
<title>SVG Image created as Sofle_Pico-brd.svg date 2023/11/06 14:37:59 </title>
  <desc>Image generated by PCBNEW </desc>
<g style="fill:#000000; fill-opacity:1.0000;stroke:#000000; stroke-opacity:1.0000;
stroke-linecap:round; stroke-linejoin:round;"
 transform="translate(0 0) scale(1 1)">
</g>
<g style="fill:#000000; fill-opacity:0.0; 
stroke:#000000; stroke-width:0.0000; stroke-opacity:1; 
stroke-linecap:round; stroke-linejoin:round;">
</g>
<g style="fill:#000000; fill-opacity:0.0; 
stroke:#000000; stroke-width:0.1000; stroke-opacity:1; 
stroke-linecap:round; stroke-linejoin:round;">
<path d="M2.1895 94.4775 A1.5020 1.5020 0.0 0 0 2.3530 95.1852" />
<path d="M2.3530 95.1852
L13.1640 116.4021
" />
<path d="M30.7991 0.9224 A1.0000 1.0000 0.0 0 0 29.7991 1.9224" />
</g>
<g style="fill:#000000; fill-opacity:0.0; 
stroke:#000000; stroke-width:0.1500; stroke-opacity:1; 
stroke-linecap:round; stroke-linejoin:round;">
<path d="M88.9611 0.9224
L146.2749 8.3214
" />
</g>
<g style="fill:#000000; fill-opacity:0.0; 
stroke:#000000; stroke-width:0.1000; stroke-opacity:1; 
stroke-linecap:round; stroke-linejoin:round;">
<path d="M29.7991 13.8675 A1.0000 1.0000 0.0 0 0 30.7991 14.8675" />
<path d="M29.7991 38.8175
L29.7991 54.3775
" />
<path d="M30.7991 14.8675
L31.5862 14.8675
" />
<path d="M2.1895 64.3946
L2.1895 94.4775
" />
<path d="M88.9611 0.9224
L30.7991 0.9224
" />
<path d="M14.8862 63.3946
L14.8862 54.3775
" />
</g>
<g style="fill:#000000; fill-opacity:0.0; 
stroke:#000000; stroke-width:0.1500; stroke-opacity:1; 
stroke-linecap:round; stroke-linejoin:round;">
<path d="M147.6111 9.8224 A1.5111 1.5111 0.0 0 0 146.2749 8.3214" />
</g>
<g style="fill:#000000; fill-opacity:0.0; 
stroke:#000000; stroke-width:0.1000; stroke-opacity:1; 
stroke-linecap:round; stroke-linejoin:round;">
<path d="M30.7991 37.8175
L31.5862 37.8175
" />
<path d="M31.5862 37.8175
L31.5862 14.8675
" />
<path d="M29.7991 54.3775
L14.8862 54.3775
" />
</g>
<g style="fill:#000000; fill-opacity:0.0; 
stroke:#000000; stroke-width:0.1500; stroke-opacity:1; 
stroke-linecap:round; stroke-linejoin:round;">
<path d="M108.0111 101.6724
L146.7054 87.3996
" />
<path d="M147.6111 9.8224
L147.6111 86.0224
" />
<path d="M69.9111 101.6724
L108.0111 101.6724
" />
</g>
<g style="fill:#000000; fill-opacity:0.0; 
stroke:#000000; stroke-width:0.1000; stroke-opacity:1; 
stroke-linecap:round; stroke-linejoin:round;">
<path d="M29.7991 1.9224
L29.7991 13.8675
" />
<path d="M3.1895 63.3946
L14.8862 63.3946
" />
<path d="M13.1640 116.4021 A1.4999 1.4999 0.0 0 0 14.8964 117.1679" />
</g>
<g style="fill:#000000; fill-opacity:0.0; 
stroke:#000000; stroke-width:0.1500; stroke-opacity:1; 
stroke-linecap:round; stroke-linejoin:round;">
<path d="M146.7054 87.3997 A1.4998 1.4998 0.0 0 0 147.6111 86.0224" />
</g>
<g style="fill:#000000; fill-opacity:0.0; 
stroke:#000000; stroke-width:0.1000; stroke-opacity:1; 
stroke-linecap:round; stroke-linejoin:round;">
<path d="M14.8964 117.1679
L69.9111 101.6724
" />
<path d="M30.7991 37.8175 A1.0000 1.0000 0.0 0 0 29.7991 38.8175" />
<path d="M3.1895 63.3946 A1.0000 1.0000 0.0 0 0 2.1895 64.3946" />
</g>
<g style="fill:#000000; fill-opacity:0.0; 
stroke:#000000; stroke-width:0.1200; stroke-opacity:1; 
stroke-linecap:round; stroke-linejoin:round;">
<path d="M28.7862 77.9475
L13.1862 77.9475
" />
<path d="M13.1862 77.9475
L13.1862 64.9475
" />
<path d="M13.1862 64.9475
L28.7862 64.9475
" />
<path d="M28.7862 64.9475
L28.7862 77.9475
" />
</g>
<g style="fill:#000000; fill-opacity:0.0; 
stroke:#000000; stroke-width:0.1000; stroke-opacity:1; 
stroke-linecap:round; stroke-linejoin:round;">
<circle cx="127.0762" cy="28.8575" r="1.1000" /> 
<circle cx="127.0613" cy="66.9725" r="1.1000" /> 
<circle cx="50.2263" cy="26.4575" r="1.1000" /> 
<circle cx="50.3162" cy="64.4075" r="1.1000" /> 
</g>
<g style="fill:#000000; fill-opacity:0.0; 
stroke:#000000; stroke-width:0.1200; stroke-opacity:1; 
stroke-linecap:round; stroke-linejoin:round;">
<circle cx="50.8612" cy="48.3175" r="1.7500" /> 
<circle cx="69.9112" cy="29.2675" r="1.7500" /> 
<circle cx="69.9112" cy="67.3675" r="1.7500" /> 
<circle cx="88.9612" cy="48.3175" r="1.7500" /> 
</g>
<g style="fill:#000000; fill-opacity:0.0; 
stroke:#000000; stroke-width:0.1000; stroke-opacity:1; 
stroke-linecap:round; stroke-linejoin:round;">
<circle cx="24.3762" cy="87.4775" r="1.1000" /> 
<circle cx="32.7963" cy="4.0649" r="2.0500" /> 
<circle cx="25.9262" cy="57.5375" r="2.0500" /> 
<circle cx="6.4353" cy="67.9475" r="2.0500" /> 
</g>
<g style="fill:#000000; fill-opacity:0.0; 
stroke:#000000; stroke-width:0.1200; stroke-opacity:1; 
stroke-linecap:round; stroke-linejoin:round;">
<path d="M48.3362 23.9475
L34.3362 23.9475
" />
<path d="M34.3362 23.9475
L34.3362 9.9475
" />
<path d="M34.3362 9.9475
L48.3362 9.9475
" />
<path d="M48.3362 9.9475
L48.3362 23.9475
" />
<path d="M86.4363 18.9475
L72.4363 18.9475
" />
<path d="M72.4363 18.9475
L72.4363 4.9475
" />
<path d="M72.4363 4.9475
L86.4363 4.9475
" />
<path d="M86.4363 4.9475
L86.4363 18.9475
" />
<path d="M48.3362 62.0475
L34.3362 62.0475
" />
<path d="M34.3362 62.0475
L34.3362 48.0475
" />
<path d="M34.3362 48.0475
L48.3362 48.0475
" />
<path d="M48.3362 48.0475
L48.3362 62.0475
" />
<path d="M67.3863 59.5475
L53.3862 59.5475
" />
<path d="M53.3862 59.5475
L53.3862 45.5475
" />
<path d="M53.3862 45.5475
L67.3863 45.5475
" />
<path d="M67.3863 45.5475
L67.3863 59.5475
" />
<path d="M86.4363 76.0975
L72.4363 76.0975
" />
<path d="M72.4363 76.0975
L72.4363 62.0975
" />
<path d="M72.4363 62.0975
L86.4363 62.0975
" />
<path d="M86.4363 62.0975
L86.4363 76.0975
" />
<path d="M124.5362 83.4975
L110.5362 83.4975
" />
<path d="M110.5362 83.4975
L110.5362 69.4975
" />
<path d="M110.5362 69.4975
L124.5362 69.4975
" />
<path d="M124.5362 69.4975
L124.5362 83.4975
" />
<path d="M14.5229 110.2033
L8.1670 97.7292
" />
<path d="M8.1670 97.7292
L20.6411 91.3733
" />
<path d="M20.6411 91.3733
L26.9970 103.8474
" />
<path d="M26.9970 103.8474
L14.5229 110.2033
" />
<path d="M46.9595 100.2972
L33.4365 103.9207
" />
<path d="M33.4365 103.9207
L29.8130 90.3978
" />
<path d="M29.8130 90.3978
L43.3360 86.7743
" />
<path d="M43.3360 86.7743
L46.9595 100.2972
" />
<path d="M143.5863 45.3975
L129.5863 45.3975
" />
<path d="M129.5863 45.3975
L129.5863 31.3975
" />
<path d="M129.5863 31.3975
L143.5863 31.3975
" />
<path d="M143.5863 31.3975
L143.5863 45.3975
" />
<path d="M143.5863 64.4475
L129.5863 64.4475
" />
<path d="M129.5863 64.4475
L129.5863 50.4475
" />
<path d="M129.5863 50.4475
L143.5863 50.4475
" />
<path d="M143.5863 50.4475
L143.5863 64.4475
" />
<path d="M143.5863 83.4975
L129.5863 83.4975
" />
<path d="M129.5863 83.4975
L129.5863 69.4975
" />
<path d="M129.5863 69.4975
L143.5863 69.4975
" />
<path d="M143.5863 69.4975
L143.5863 83.4975
" />
<path d="M105.4862 21.4475
L91.4862 21.4475
" />
<path d="M91.4862 21.4475
L91.4862 7.4475
" />
<path d="M91.4862 7.4475
L105.4862 7.4475
" />
<path d="M105.4862 7.4475
L105.4862 21.4475
" />
<path d="M124.5362 26.3475
L110.5362 26.3475
" />
<path d="M110.5362 26.3475
L110.5362 12.3475
" />
<path d="M110.5362 12.3475
L124.5362 12.3475
" />
<path d="M124.5362 12.3475
L124.5362 26.3475
" />
<path d="M67.3863 40.4975
L53.3862 40.4975
" />
<path d="M53.3862 40.4975
L53.3862 26.4975
" />
<path d="M53.3862 26.4975
L67.3863 26.4975
" />
<path d="M67.3863 26.4975
L67.3863 40.4975
" />
<path d="M105.4862 40.4975
L91.4862 40.4975
" />
<path d="M91.4862 40.4975
L91.4862 26.4975
" />
<path d="M91.4862 26.4975
L105.4862 26.4975
" />
<path d="M105.4862 26.4975
L105.4862 40.4975
" />
<path d="M86.4363 37.9975
L72.4363 37.9975
" />
<path d="M72.4363 37.9975
L72.4363 23.9975
" />
<path d="M72.4363 23.9975
L86.4363 23.9975
" />
<path d="M86.4363 23.9975
L86.4363 37.9975
" />
<path d="M105.4862 59.5475
L91.4862 59.5475
" />
<path d="M91.4862 59.5475
L91.4862 45.5475
" />
<path d="M91.4862 45.5475
L105.4862 45.5475
" />
<path d="M105.4862 45.5475
L105.4862 59.5475
" />
<path d="M143.5863 26.3475
L129.5863 26.3475
" />
<path d="M129.5863 26.3475
L129.5863 12.3475
" />
<path d="M129.5863 12.3475
L143.5863 12.3475
" />
<path d="M143.5863 12.3475
L143.5863 26.3475
" />
<path d="M48.3362 42.9975
L34.3362 42.9975
" />
<path d="M34.3362 42.9975
L34.3362 28.9975
" />
<path d="M34.3362 28.9975
L48.3362 28.9975
" />
<path d="M48.3362 28.9975
L48.3362 42.9975
" />
<path d="M105.4862 97.6475
L91.4862 97.6475
" />
<path d="M91.4862 97.6475
L91.4862 83.6475
" />
<path d="M91.4862 83.6475
L105.4862 83.6475
" />
<path d="M105.4862 83.6475
L105.4862 97.6475
" />
<path d="M124.5362 45.3975
L110.5362 45.3975
" />
<path d="M110.5362 45.3975
L110.5362 31.3975
" />
<path d="M110.5362 31.3975
L124.5362 31.3975
" />
<path d="M124.5362 31.3975
L124.5362 45.3975
" />
<path d="M105.4862 78.5975
L91.4862 78.5975
" />
<path d="M91.4862 78.5975
L91.4862 64.5975
" />
<path d="M91.4862 64.5975
L105.4862 64.5975
" />
<path d="M105.4862 64.5975
L105.4862 78.5975
" />
<path d="M124.5362 64.4475
L110.5362 64.4475
" />
<path d="M110.5362 64.4475
L110.5362 50.4475
" />
<path d="M110.5362 50.4475
L124.5362 50.4475
" />
<path d="M124.5362 50.4475
L124.5362 64.4475
" />
<path d="M86.4363 95.1475
L72.4363 95.1475
" />
<path d="M72.4363 95.1475
L72.4363 81.1475
" />
<path d="M72.4363 81.1475
L86.4363 81.1475
" />
<path d="M86.4363 81.1475
L86.4363 95.1475
" />
<path d="M86.4363 57.0475
L72.4363 57.0475
" />
<path d="M72.4363 57.0475
L72.4363 43.0475
" />
<path d="M72.4363 43.0475
L86.4363 43.0475
" />
<path d="M86.4363 43.0475
L86.4363 57.0475
" />
<path d="M67.3863 21.4475
L53.3862 21.4475
" />
<path d="M53.3862 21.4475
L53.3862 7.4475
" />
<path d="M53.3862 7.4475
L67.3863 7.4475
" />
<path d="M67.3863 7.4475
L67.3863 21.4475
" />
<path d="M67.3863 78.5975
L53.3862 78.5975
" />
<path d="M53.3862 78.5975
L53.3862 64.5975
" />
<path d="M53.3862 64.5975
L67.3863 64.5975
" />
<path d="M67.3863 64.5975
L67.3863 78.5975
" />
<path d="M67.3863 97.6475
L53.3862 97.6475
" />
<path d="M53.3862 97.6475
L53.3862 83.6475
" />
<path d="M53.3862 83.6475
L67.3863 83.6475
" />
<path d="M67.3863 83.6475
L67.3863 97.6475
" />
<path d="M48.3362 81.0975
L34.3362 81.0975
" />
<path d="M34.3362 81.0975
L34.3362 67.0975
" />
<path d="M34.3362 67.0975
L48.3362 67.0975
" />
<path d="M48.3362 67.0975
L48.3362 81.0975
" />
<g >
</g>
<g >
</g>
<g >
</g>
<g >
</g>
<g >
</g>
<g >
</g>
<g >
</g>
<g >
</g>
<g >
</g>
<g >
</g>
<g >
</g>
<g >
</g>
<g >
</g>
<g >
</g>
<g >
</g>
<g >
</g>
<g >
</g>
<g >
</g>
<g >
</g>
<g >
</g>
<g >
</g>
<g >
</g>
<g >
</g>
<g >
</g>
<g >
</g>
<g >
</g>
<g >
</g>
<g >
</g>
<g >
</g>
<g >
</g>
<g >
</g>
<g >
</g>
<g >
</g>
<g >
</g>
<g >
</g>
<g >
</g>
<g >
</g>
<g >
</g>
<g >
</g>
<g >
</g>
<g >
</g>
<g >
</g>
<g >
</g>
<g >
</g>
<g >
</g>
<g >
</g>
<g >
</g>
<g >
</g>
<g >
</g>
<g >
</g>
<g >
</g>
<g >
</g>
<g >
</g>
<g >
</g>
<g >
</g>
<g >
</g>
<g >
</g>
<g >
</g>
<g >
</g>
<g >
</g>
<g >
</g>
<g >
</g>
<g >
</g>
<g >
</g>
<g >
</g>
<g >
</g>
<g >
</g>
<g >
</g>
<g >
</g>
<g >
</g>
<g >
</g>
<g >
</g>
<g >
</g>
<g >
</g>
<g >
</g>
<g >
</g>
<g >
</g>
<g >
</g>
<g >
</g>
<g >
</g>
<g >
</g>
<g >
</g>
<g >
</g>
<g >
</g>
<g >
</g>
<g >
</g>
<g >
</g>
<g >
</g>
<g >
</g>
<g >
</g>
<g >
</g>
<g >
</g>
<g >
</g>
<g >
</g>
<g >
</g>
<g >
</g>
<g >
</g>
<g >
</g>
<g >
</g>
<g >
</g>
<g >
</g>
<g >
</g>
<g >
</g>
<g >
</g>
<g >
</g>
<g >
</g>
<g >
</g>
<g >
</g>
<g >
</g>
<g >
</g>
<g >
</g>
<g >
</g>
<g >
</g>
<g >
</g>
<g >
</g>
</g> 
</svg>
