G04 #@! TF.GenerationSoftware,KiCad,Pcbnew,5.1.5-52549c5~86~ubuntu19.10.1*
G04 #@! TF.CreationDate,2020-05-05T19:47:45+02:00*
G04 #@! TF.ProjectId,top_plate,746f705f-706c-4617-9465-2e6b69636164,rev?*
G04 #@! TF.SameCoordinates,Original*
G04 #@! TF.FileFunction,Legend,Top*
G04 #@! TF.FilePolarity,Positive*
%FSLAX46Y46*%
G04 Gerber Fmt 4.6, Leading zero omitted, Abs format (unit mm)*
G04 Created by KiCad (PCBNEW 5.1.5-52549c5~86~ubuntu19.10.1) date 2020-05-05 19:47:45*
%MOMM*%
%LPD*%
G04 APERTURE LIST*
%ADD10C,0.150000*%
G04 APERTURE END LIST*
D10*
X130404761Y-84126190D02*
X130452380Y-83983333D01*
X130452380Y-83745238D01*
X130404761Y-83650000D01*
X130357142Y-83602380D01*
X130261904Y-83554761D01*
X130166666Y-83554761D01*
X130071428Y-83602380D01*
X130023809Y-83650000D01*
X129976190Y-83745238D01*
X129928571Y-83935714D01*
X129880952Y-84030952D01*
X129833333Y-84078571D01*
X129738095Y-84126190D01*
X129642857Y-84126190D01*
X129547619Y-84078571D01*
X129500000Y-84030952D01*
X129452380Y-83935714D01*
X129452380Y-83697619D01*
X129500000Y-83554761D01*
X130452380Y-82983333D02*
X130404761Y-83078571D01*
X130357142Y-83126190D01*
X130261904Y-83173809D01*
X129976190Y-83173809D01*
X129880952Y-83126190D01*
X129833333Y-83078571D01*
X129785714Y-82983333D01*
X129785714Y-82840476D01*
X129833333Y-82745238D01*
X129880952Y-82697619D01*
X129976190Y-82650000D01*
X130261904Y-82650000D01*
X130357142Y-82697619D01*
X130404761Y-82745238D01*
X130452380Y-82840476D01*
X130452380Y-82983333D01*
X129785714Y-82364285D02*
X129785714Y-81983333D01*
X130452380Y-82221428D02*
X129595238Y-82221428D01*
X129500000Y-82173809D01*
X129452380Y-82078571D01*
X129452380Y-81983333D01*
X130452380Y-81507142D02*
X130404761Y-81602380D01*
X130309523Y-81650000D01*
X129452380Y-81650000D01*
X130404761Y-80745238D02*
X130452380Y-80840476D01*
X130452380Y-81030952D01*
X130404761Y-81126190D01*
X130309523Y-81173809D01*
X129928571Y-81173809D01*
X129833333Y-81126190D01*
X129785714Y-81030952D01*
X129785714Y-80840476D01*
X129833333Y-80745238D01*
X129928571Y-80697619D01*
X130023809Y-80697619D01*
X130119047Y-81173809D01*
X130452380Y-79507142D02*
X129452380Y-79507142D01*
X130452380Y-78935714D02*
X129880952Y-79364285D01*
X129452380Y-78935714D02*
X130023809Y-79507142D01*
X130404761Y-78126190D02*
X130452380Y-78221428D01*
X130452380Y-78411904D01*
X130404761Y-78507142D01*
X130309523Y-78554761D01*
X129928571Y-78554761D01*
X129833333Y-78507142D01*
X129785714Y-78411904D01*
X129785714Y-78221428D01*
X129833333Y-78126190D01*
X129928571Y-78078571D01*
X130023809Y-78078571D01*
X130119047Y-78554761D01*
X129785714Y-77745238D02*
X130452380Y-77507142D01*
X129785714Y-77269047D02*
X130452380Y-77507142D01*
X130690476Y-77602380D01*
X130738095Y-77650000D01*
X130785714Y-77745238D01*
X130452380Y-76888095D02*
X129452380Y-76888095D01*
X129833333Y-76888095D02*
X129785714Y-76792857D01*
X129785714Y-76602380D01*
X129833333Y-76507142D01*
X129880952Y-76459523D01*
X129976190Y-76411904D01*
X130261904Y-76411904D01*
X130357142Y-76459523D01*
X130404761Y-76507142D01*
X130452380Y-76602380D01*
X130452380Y-76792857D01*
X130404761Y-76888095D01*
X130452380Y-75840476D02*
X130404761Y-75935714D01*
X130357142Y-75983333D01*
X130261904Y-76030952D01*
X129976190Y-76030952D01*
X129880952Y-75983333D01*
X129833333Y-75935714D01*
X129785714Y-75840476D01*
X129785714Y-75697619D01*
X129833333Y-75602380D01*
X129880952Y-75554761D01*
X129976190Y-75507142D01*
X130261904Y-75507142D01*
X130357142Y-75554761D01*
X130404761Y-75602380D01*
X130452380Y-75697619D01*
X130452380Y-75840476D01*
X130452380Y-74650000D02*
X129928571Y-74650000D01*
X129833333Y-74697619D01*
X129785714Y-74792857D01*
X129785714Y-74983333D01*
X129833333Y-75078571D01*
X130404761Y-74650000D02*
X130452380Y-74745238D01*
X130452380Y-74983333D01*
X130404761Y-75078571D01*
X130309523Y-75126190D01*
X130214285Y-75126190D01*
X130119047Y-75078571D01*
X130071428Y-74983333D01*
X130071428Y-74745238D01*
X130023809Y-74650000D01*
X130452380Y-74173809D02*
X129785714Y-74173809D01*
X129976190Y-74173809D02*
X129880952Y-74126190D01*
X129833333Y-74078571D01*
X129785714Y-73983333D01*
X129785714Y-73888095D01*
X130452380Y-73126190D02*
X129452380Y-73126190D01*
X130404761Y-73126190D02*
X130452380Y-73221428D01*
X130452380Y-73411904D01*
X130404761Y-73507142D01*
X130357142Y-73554761D01*
X130261904Y-73602380D01*
X129976190Y-73602380D01*
X129880952Y-73554761D01*
X129833333Y-73507142D01*
X129785714Y-73411904D01*
X129785714Y-73221428D01*
X129833333Y-73126190D01*
X129785714Y-71983333D02*
X130452380Y-71745238D01*
X129785714Y-71507142D01*
X129547619Y-71173809D02*
X129500000Y-71126190D01*
X129452380Y-71030952D01*
X129452380Y-70792857D01*
X129500000Y-70697619D01*
X129547619Y-70650000D01*
X129642857Y-70602380D01*
X129738095Y-70602380D01*
X129880952Y-70650000D01*
X130452380Y-71221428D01*
X130452380Y-70602380D01*
X130357142Y-70173809D02*
X130404761Y-70126190D01*
X130452380Y-70173809D01*
X130404761Y-70221428D01*
X130357142Y-70173809D01*
X130452380Y-70173809D01*
X129452380Y-69507142D02*
X129452380Y-69411904D01*
X129500000Y-69316666D01*
X129547619Y-69269047D01*
X129642857Y-69221428D01*
X129833333Y-69173809D01*
X130071428Y-69173809D01*
X130261904Y-69221428D01*
X130357142Y-69269047D01*
X130404761Y-69316666D01*
X130452380Y-69411904D01*
X130452380Y-69507142D01*
X130404761Y-69602380D01*
X130357142Y-69650000D01*
X130261904Y-69697619D01*
X130071428Y-69745238D01*
X129833333Y-69745238D01*
X129642857Y-69697619D01*
X129547619Y-69650000D01*
X129500000Y-69602380D01*
X129452380Y-69507142D01*
X130452380Y-67983333D02*
X129452380Y-67983333D01*
X129833333Y-67983333D02*
X129785714Y-67888095D01*
X129785714Y-67697619D01*
X129833333Y-67602380D01*
X129880952Y-67554761D01*
X129976190Y-67507142D01*
X130261904Y-67507142D01*
X130357142Y-67554761D01*
X130404761Y-67602380D01*
X130452380Y-67697619D01*
X130452380Y-67888095D01*
X130404761Y-67983333D01*
X129785714Y-67173809D02*
X130452380Y-66935714D01*
X129785714Y-66697619D02*
X130452380Y-66935714D01*
X130690476Y-67030952D01*
X130738095Y-67078571D01*
X130785714Y-67173809D01*
X129452380Y-65269047D02*
X130166666Y-65269047D01*
X130309523Y-65316666D01*
X130404761Y-65411904D01*
X130452380Y-65554761D01*
X130452380Y-65650000D01*
X130452380Y-64650000D02*
X130404761Y-64745238D01*
X130357142Y-64792857D01*
X130261904Y-64840476D01*
X129976190Y-64840476D01*
X129880952Y-64792857D01*
X129833333Y-64745238D01*
X129785714Y-64650000D01*
X129785714Y-64507142D01*
X129833333Y-64411904D01*
X129880952Y-64364285D01*
X129976190Y-64316666D01*
X130261904Y-64316666D01*
X130357142Y-64364285D01*
X130404761Y-64411904D01*
X130452380Y-64507142D01*
X130452380Y-64650000D01*
X130404761Y-63935714D02*
X130452380Y-63840476D01*
X130452380Y-63650000D01*
X130404761Y-63554761D01*
X130309523Y-63507142D01*
X130261904Y-63507142D01*
X130166666Y-63554761D01*
X130119047Y-63650000D01*
X130119047Y-63792857D01*
X130071428Y-63888095D01*
X129976190Y-63935714D01*
X129928571Y-63935714D01*
X129833333Y-63888095D01*
X129785714Y-63792857D01*
X129785714Y-63650000D01*
X129833333Y-63554761D01*
X130404761Y-62697619D02*
X130452380Y-62792857D01*
X130452380Y-62983333D01*
X130404761Y-63078571D01*
X130309523Y-63126190D01*
X129928571Y-63126190D01*
X129833333Y-63078571D01*
X129785714Y-62983333D01*
X129785714Y-62792857D01*
X129833333Y-62697619D01*
X129928571Y-62650000D01*
X130023809Y-62650000D01*
X130119047Y-63126190D01*
X129785714Y-62364285D02*
X129785714Y-61983333D01*
X130452380Y-62221428D02*
X129595238Y-62221428D01*
X129500000Y-62173809D01*
X129452380Y-62078571D01*
X129452380Y-61983333D01*
X130166666Y-60935714D02*
X130166666Y-60459523D01*
X130452380Y-61030952D02*
X129452380Y-60697619D01*
X130452380Y-60364285D01*
X130452380Y-59602380D02*
X129452380Y-59602380D01*
X130404761Y-59602380D02*
X130452380Y-59697619D01*
X130452380Y-59888095D01*
X130404761Y-59983333D01*
X130357142Y-60030952D01*
X130261904Y-60078571D01*
X129976190Y-60078571D01*
X129880952Y-60030952D01*
X129833333Y-59983333D01*
X129785714Y-59888095D01*
X129785714Y-59697619D01*
X129833333Y-59602380D01*
X130452380Y-58697619D02*
X129928571Y-58697619D01*
X129833333Y-58745238D01*
X129785714Y-58840476D01*
X129785714Y-59030952D01*
X129833333Y-59126190D01*
X130404761Y-58697619D02*
X130452380Y-58792857D01*
X130452380Y-59030952D01*
X130404761Y-59126190D01*
X130309523Y-59173809D01*
X130214285Y-59173809D01*
X130119047Y-59126190D01*
X130071428Y-59030952D01*
X130071428Y-58792857D01*
X130023809Y-58697619D01*
X130452380Y-58221428D02*
X129785714Y-58221428D01*
X129880952Y-58221428D02*
X129833333Y-58173809D01*
X129785714Y-58078571D01*
X129785714Y-57935714D01*
X129833333Y-57840476D01*
X129928571Y-57792857D01*
X130452380Y-57792857D01*
X129928571Y-57792857D02*
X129833333Y-57745238D01*
X129785714Y-57650000D01*
X129785714Y-57507142D01*
X129833333Y-57411904D01*
X129928571Y-57364285D01*
X130452380Y-57364285D01*
X130404761Y-56459523D02*
X130452380Y-56554761D01*
X130452380Y-56745238D01*
X130404761Y-56840476D01*
X130357142Y-56888095D01*
X130261904Y-56935714D01*
X129976190Y-56935714D01*
X129880952Y-56888095D01*
X129833333Y-56840476D01*
X129785714Y-56745238D01*
X129785714Y-56554761D01*
X129833333Y-56459523D01*
X130452380Y-56030952D02*
X129785714Y-56030952D01*
X129452380Y-56030952D02*
X129500000Y-56078571D01*
X129547619Y-56030952D01*
X129500000Y-55983333D01*
X129452380Y-56030952D01*
X129547619Y-56030952D01*
X130452380Y-55554761D02*
X129452380Y-55554761D01*
X130071428Y-55459523D02*
X130452380Y-55173809D01*
X129785714Y-55173809D02*
X130166666Y-55554761D01*
M02*
