G04 #@! TF.GenerationSoftware,KiCad,Pcbnew,5.1.5-52549c5~86~ubuntu19.10.1*
G04 #@! TF.CreationDate,2020-05-05T19:47:45+02:00*
G04 #@! TF.ProjectId,top_plate,746f705f-706c-4617-9465-2e6b69636164,rev?*
G04 #@! TF.SameCoordinates,Original*
G04 #@! TF.FileFunction,Copper,L2,Bot*
G04 #@! TF.FilePolarity,Positive*
%FSLAX46Y46*%
G04 Gerber Fmt 4.6, Leading zero omitted, Abs format (unit mm)*
G04 Created by KiCad (PCBNEW 5.1.5-52549c5~86~ubuntu19.10.1) date 2020-05-05 19:47:45*
%MOMM*%
%LPD*%
G04 APERTURE LIST*
%ADD10C,4.000000*%
%ADD11C,0.254000*%
G04 APERTURE END LIST*
D10*
X72250562Y-50180774D03*
X148750280Y-56791123D03*
X148750280Y-95090512D03*
X46751882Y-111392232D03*
X72251833Y-88092305D03*
D11*
G36*
X109995899Y-28600295D02*
G01*
X109992584Y-28633953D01*
X110005810Y-28768236D01*
X110044979Y-28897359D01*
X110108586Y-29016360D01*
X110194187Y-29120664D01*
X110298491Y-29206265D01*
X110417492Y-29269872D01*
X110546615Y-29309041D01*
X110647251Y-29318953D01*
X110680898Y-29322267D01*
X110714545Y-29318953D01*
X128995112Y-29318953D01*
X128995250Y-37599827D01*
X128991936Y-37633474D01*
X129005162Y-37767757D01*
X129044331Y-37896880D01*
X129107938Y-38015881D01*
X129193539Y-38120185D01*
X129193546Y-38120191D01*
X129193548Y-38120193D01*
X129216246Y-38138820D01*
X129297843Y-38205786D01*
X129297851Y-38205790D01*
X129297853Y-38205792D01*
X129328603Y-38222228D01*
X129416844Y-38269393D01*
X129416852Y-38269395D01*
X129416855Y-38269397D01*
X129454033Y-38280674D01*
X129545967Y-38308562D01*
X129545975Y-38308563D01*
X129545979Y-38308564D01*
X129583664Y-38312275D01*
X129646603Y-38318474D01*
X129646617Y-38318474D01*
X129680261Y-38321787D01*
X129713893Y-38318474D01*
X166995900Y-38318474D01*
X166995901Y-113104450D01*
X129591342Y-122947490D01*
X73201442Y-122947490D01*
X73155349Y-122944626D01*
X73100770Y-122951999D01*
X73045918Y-122957402D01*
X73033985Y-122961022D01*
X73021630Y-122962691D01*
X72969517Y-122980578D01*
X72916795Y-122996571D01*
X72876056Y-123018346D01*
X55454684Y-130983125D01*
X55453131Y-130983500D01*
X55393436Y-131011126D01*
X55364184Y-131024500D01*
X55362806Y-131025302D01*
X55361360Y-131025971D01*
X55333621Y-131042284D01*
X55276781Y-131075358D01*
X55275584Y-131076415D01*
X38926696Y-140691003D01*
X27728617Y-121382756D01*
X29402801Y-121382756D01*
X29407223Y-121517616D01*
X29437869Y-121649023D01*
X29479608Y-121741130D01*
X29493563Y-121771925D01*
X29513256Y-121799404D01*
X36479826Y-133864512D01*
X36493775Y-133895295D01*
X36513462Y-133922766D01*
X36513468Y-133922776D01*
X36572374Y-134004971D01*
X36670862Y-134097205D01*
X36785451Y-134168454D01*
X36832975Y-134186338D01*
X36911739Y-134215978D01*
X37018079Y-134233530D01*
X37044869Y-134237952D01*
X37044870Y-134237952D01*
X37179731Y-134233530D01*
X37311137Y-134202884D01*
X37403245Y-134161145D01*
X37403248Y-134161143D01*
X37434040Y-134147190D01*
X37461519Y-134127497D01*
X49526623Y-127160933D01*
X49557413Y-127146981D01*
X49584889Y-127127290D01*
X49584894Y-127127287D01*
X49667089Y-127068381D01*
X49759323Y-126969893D01*
X49759324Y-126969892D01*
X49830573Y-126855303D01*
X49878096Y-126729016D01*
X49900070Y-126595885D01*
X49895648Y-126461024D01*
X49865002Y-126329617D01*
X49823263Y-126237509D01*
X49823260Y-126237504D01*
X49809308Y-126206715D01*
X49789617Y-126179238D01*
X43494343Y-115276721D01*
X50683931Y-115276721D01*
X50683937Y-115276778D01*
X50683932Y-115276836D01*
X50691240Y-115344909D01*
X50698311Y-115410886D01*
X50698328Y-115410939D01*
X50698334Y-115410998D01*
X50719014Y-115477081D01*
X50738588Y-115539667D01*
X50754808Y-115569395D01*
X56199686Y-128395453D01*
X56209790Y-128427733D01*
X56234724Y-128473406D01*
X56274417Y-128546126D01*
X56274438Y-128546151D01*
X56274446Y-128546166D01*
X56308644Y-128587094D01*
X56360928Y-128649676D01*
X56360949Y-128649693D01*
X56360964Y-128649711D01*
X56409901Y-128689155D01*
X56465979Y-128734360D01*
X56466003Y-128734373D01*
X56466021Y-128734387D01*
X56522574Y-128763976D01*
X56585532Y-128796921D01*
X56585556Y-128796928D01*
X56585579Y-128796940D01*
X56655673Y-128817529D01*
X56714993Y-128834958D01*
X56715015Y-128834960D01*
X56715042Y-128834968D01*
X56783546Y-128841104D01*
X56849388Y-128847007D01*
X56849415Y-128847004D01*
X56849437Y-128847006D01*
X56912192Y-128840265D01*
X56983550Y-128832605D01*
X56983574Y-128832598D01*
X56983598Y-128832595D01*
X57049989Y-128811814D01*
X57112325Y-128792306D01*
X57142021Y-128776097D01*
X69965434Y-123331265D01*
X69997634Y-123321192D01*
X70027351Y-123304975D01*
X70027415Y-123304948D01*
X70062736Y-123285665D01*
X70116078Y-123256556D01*
X70116120Y-123256521D01*
X70116173Y-123256492D01*
X70171572Y-123210203D01*
X70219637Y-123170055D01*
X70219670Y-123170014D01*
X70219718Y-123169974D01*
X70265084Y-123113688D01*
X70304331Y-123065012D01*
X70304356Y-123064964D01*
X70304394Y-123064917D01*
X70336633Y-123003297D01*
X70366904Y-122945465D01*
X70366920Y-122945411D01*
X70366947Y-122945359D01*
X70385902Y-122880826D01*
X70404953Y-122816008D01*
X70404958Y-122815950D01*
X70404974Y-122815896D01*
X70410917Y-122749553D01*
X70417014Y-122681614D01*
X70417008Y-122681557D01*
X70417013Y-122681500D01*
X70410075Y-122616919D01*
X70402625Y-122547450D01*
X70402607Y-122547391D01*
X70402601Y-122547339D01*
X70383145Y-122485181D01*
X70372433Y-122450940D01*
X70372410Y-122450887D01*
X70362294Y-122418567D01*
X70346121Y-122388942D01*
X64903845Y-109565592D01*
X64893759Y-109533344D01*
X64877552Y-109503639D01*
X64877544Y-109503621D01*
X64864922Y-109480490D01*
X64829132Y-109414895D01*
X64829114Y-109414874D01*
X64829104Y-109414855D01*
X64790166Y-109368239D01*
X64742638Y-109311330D01*
X64742618Y-109311314D01*
X64742603Y-109311296D01*
X64695345Y-109273193D01*
X64637601Y-109226628D01*
X64637576Y-109226615D01*
X64637560Y-109226602D01*
X64583834Y-109198481D01*
X64518058Y-109164047D01*
X64518034Y-109164040D01*
X64518013Y-109164029D01*
X64455518Y-109145661D01*
X64388604Y-109125989D01*
X64388579Y-109125987D01*
X64388556Y-109125980D01*
X64325543Y-109120325D01*
X64254211Y-109113918D01*
X64254184Y-109113921D01*
X64254163Y-109113919D01*
X64193104Y-109120467D01*
X64120046Y-109128298D01*
X64120022Y-109128306D01*
X64119999Y-109128308D01*
X64056406Y-109148202D01*
X64023534Y-109158483D01*
X64023512Y-109158492D01*
X63991221Y-109168594D01*
X63961564Y-109184778D01*
X51135566Y-114627106D01*
X51103251Y-114637219D01*
X51047070Y-114667884D01*
X50984908Y-114701801D01*
X50984863Y-114701839D01*
X50984813Y-114701866D01*
X50931185Y-114746669D01*
X50881343Y-114788296D01*
X50881310Y-114788337D01*
X50881262Y-114788377D01*
X50837139Y-114843111D01*
X50796641Y-114893332D01*
X50796614Y-114893383D01*
X50796578Y-114893428D01*
X50765626Y-114952576D01*
X50734060Y-115012875D01*
X50734043Y-115012932D01*
X50734017Y-115012982D01*
X50715541Y-115075867D01*
X50696002Y-115142329D01*
X50695997Y-115142389D01*
X50695981Y-115142442D01*
X50690087Y-115208188D01*
X50683931Y-115276721D01*
X43494343Y-115276721D01*
X42823049Y-114114137D01*
X42809095Y-114083343D01*
X42755484Y-114008536D01*
X42730494Y-113973667D01*
X42632007Y-113881432D01*
X42517418Y-113810184D01*
X42391131Y-113762660D01*
X42257999Y-113740686D01*
X42123138Y-113745108D01*
X41991731Y-113775754D01*
X41899624Y-113817493D01*
X41899619Y-113817496D01*
X41868830Y-113831448D01*
X41841355Y-113851138D01*
X29776258Y-120817703D01*
X29745458Y-120831660D01*
X29652872Y-120898013D01*
X29635782Y-120910261D01*
X29543547Y-121008748D01*
X29472299Y-121123337D01*
X29424775Y-121249624D01*
X29414139Y-121314066D01*
X29402801Y-121382756D01*
X27728617Y-121382756D01*
X25115671Y-116877394D01*
X33015769Y-112228472D01*
X33062853Y-112203304D01*
X33099853Y-112172937D01*
X33138546Y-112144721D01*
X33151913Y-112130209D01*
X33167155Y-112117700D01*
X33197520Y-112080698D01*
X33229965Y-112045476D01*
X33240243Y-112028639D01*
X33252753Y-112013394D01*
X33275318Y-111971176D01*
X33300267Y-111930303D01*
X33307062Y-111911785D01*
X33316358Y-111894392D01*
X33330256Y-111848573D01*
X33346747Y-111803629D01*
X33349798Y-111784146D01*
X33355524Y-111765268D01*
X33360216Y-111717616D01*
X33367622Y-111670321D01*
X33365432Y-111616956D01*
X33365421Y-111132707D01*
X44116882Y-111132707D01*
X44116882Y-111651757D01*
X44218143Y-112160833D01*
X44416775Y-112640373D01*
X44705144Y-113071947D01*
X45072167Y-113438970D01*
X45503741Y-113727339D01*
X45983281Y-113925971D01*
X46492357Y-114027232D01*
X47011407Y-114027232D01*
X47520483Y-113925971D01*
X48000023Y-113727339D01*
X48431597Y-113438970D01*
X48798620Y-113071947D01*
X49086989Y-112640373D01*
X49285621Y-112160833D01*
X49386882Y-111651757D01*
X49386882Y-111132707D01*
X49285621Y-110623631D01*
X49086989Y-110144091D01*
X48798620Y-109712517D01*
X48431597Y-109345494D01*
X48000023Y-109057125D01*
X47520483Y-108858493D01*
X47011407Y-108757232D01*
X46492357Y-108757232D01*
X45983281Y-108858493D01*
X45503741Y-109057125D01*
X45072167Y-109345494D01*
X44705144Y-109712517D01*
X44416775Y-110144091D01*
X44218143Y-110623631D01*
X44116882Y-111132707D01*
X33365421Y-111132707D01*
X33365335Y-107379058D01*
X74763010Y-107379058D01*
X74766325Y-107412715D01*
X74766324Y-121345833D01*
X74763010Y-121379480D01*
X74776236Y-121513763D01*
X74815405Y-121642886D01*
X74879012Y-121761887D01*
X74964613Y-121866191D01*
X75025718Y-121916339D01*
X75068917Y-121951792D01*
X75187918Y-122015399D01*
X75317041Y-122054568D01*
X75451324Y-122067794D01*
X75484971Y-122064480D01*
X89415557Y-122064480D01*
X89449204Y-122067794D01*
X89583487Y-122054568D01*
X89712610Y-122015399D01*
X89831611Y-121951792D01*
X89935915Y-121866191D01*
X90021516Y-121761887D01*
X90085123Y-121642886D01*
X90124292Y-121513763D01*
X90134204Y-121413127D01*
X90134204Y-121413126D01*
X90137518Y-121379480D01*
X90134204Y-121345833D01*
X90134204Y-107412705D01*
X90137518Y-107379058D01*
X90124292Y-107244775D01*
X90085123Y-107115652D01*
X90021516Y-106996651D01*
X89935915Y-106892347D01*
X89831611Y-106806746D01*
X89712610Y-106743139D01*
X89583487Y-106703970D01*
X89482851Y-106694058D01*
X89449204Y-106690744D01*
X89415557Y-106694058D01*
X75484971Y-106694058D01*
X75451324Y-106690744D01*
X75417677Y-106694058D01*
X75317041Y-106703970D01*
X75187918Y-106743139D01*
X75068917Y-106806746D01*
X74964613Y-106892347D01*
X74879012Y-106996651D01*
X74815405Y-107115652D01*
X74776236Y-107244775D01*
X74763010Y-107379058D01*
X33365335Y-107379058D01*
X33364963Y-91257418D01*
X35479182Y-91257418D01*
X35482503Y-91291133D01*
X35484685Y-102823964D01*
X35481377Y-102857553D01*
X35484698Y-102891271D01*
X35484698Y-102891329D01*
X35487653Y-102921276D01*
X35494603Y-102991836D01*
X35494623Y-102991902D01*
X35494629Y-102991963D01*
X35513420Y-103053868D01*
X35533772Y-103120959D01*
X35533803Y-103121018D01*
X35533822Y-103121079D01*
X35564412Y-103178284D01*
X35597379Y-103239960D01*
X35597423Y-103240013D01*
X35597452Y-103240068D01*
X35636879Y-103288091D01*
X35682980Y-103344264D01*
X35683036Y-103344310D01*
X35683073Y-103344355D01*
X35730722Y-103383445D01*
X35787284Y-103429865D01*
X35787345Y-103429898D01*
X35787393Y-103429937D01*
X35842981Y-103459636D01*
X35906285Y-103493472D01*
X35906353Y-103493493D01*
X35906406Y-103493521D01*
X35967181Y-103511945D01*
X36035408Y-103532641D01*
X36035475Y-103532648D01*
X36035536Y-103532666D01*
X36099028Y-103538907D01*
X36136044Y-103542553D01*
X36136117Y-103542553D01*
X36169821Y-103545866D01*
X36203394Y-103542553D01*
X48137496Y-103542553D01*
X48171143Y-103545867D01*
X48305426Y-103532641D01*
X48434549Y-103493472D01*
X48553550Y-103429865D01*
X48657854Y-103344264D01*
X48743455Y-103239960D01*
X48807062Y-103120959D01*
X48846231Y-102991836D01*
X48856143Y-102891200D01*
X48859457Y-102857553D01*
X48856143Y-102823906D01*
X48856143Y-91291065D01*
X48859457Y-91257418D01*
X48846231Y-91123135D01*
X48807062Y-90994012D01*
X48743455Y-90875011D01*
X48657854Y-90770707D01*
X48553550Y-90685106D01*
X48434549Y-90621499D01*
X48305426Y-90582330D01*
X48204790Y-90572418D01*
X48171143Y-90569104D01*
X48137496Y-90572418D01*
X36201070Y-90572418D01*
X36167366Y-90569105D01*
X36104742Y-90575285D01*
X36033213Y-90582330D01*
X36033147Y-90582350D01*
X36033086Y-90582356D01*
X35971181Y-90601147D01*
X35904090Y-90621499D01*
X35904031Y-90621530D01*
X35903970Y-90621549D01*
X35846765Y-90652139D01*
X35785089Y-90685106D01*
X35785036Y-90685150D01*
X35784981Y-90685179D01*
X35735768Y-90725583D01*
X35680785Y-90770707D01*
X35680741Y-90770761D01*
X35680693Y-90770800D01*
X35640200Y-90820159D01*
X35595184Y-90875011D01*
X35595151Y-90875072D01*
X35595112Y-90875120D01*
X35565413Y-90930708D01*
X35531577Y-90994012D01*
X35531556Y-90994080D01*
X35531528Y-90994133D01*
X35513104Y-91054908D01*
X35492408Y-91123135D01*
X35492401Y-91123202D01*
X35492383Y-91123263D01*
X35485993Y-91188265D01*
X35479182Y-91257418D01*
X33364963Y-91257418D01*
X33364917Y-89270695D01*
X53545604Y-89270695D01*
X53579269Y-89274008D01*
X53632614Y-89268749D01*
X53713497Y-89260783D01*
X53713530Y-89260773D01*
X53713551Y-89260771D01*
X53765397Y-89245039D01*
X53842620Y-89221614D01*
X53842648Y-89221599D01*
X53842671Y-89221592D01*
X53892062Y-89195187D01*
X53961621Y-89158007D01*
X53961647Y-89157986D01*
X53961667Y-89157975D01*
X54005311Y-89122151D01*
X54065925Y-89072406D01*
X54065945Y-89072382D01*
X54065964Y-89072366D01*
X54104402Y-89025522D01*
X54151526Y-88968102D01*
X54151540Y-88968076D01*
X54151557Y-88968055D01*
X54181056Y-88912854D01*
X54215133Y-88849101D01*
X54215142Y-88849072D01*
X54215154Y-88849049D01*
X54231909Y-88793797D01*
X54254302Y-88719978D01*
X54254305Y-88719944D01*
X54254312Y-88719922D01*
X54259886Y-88663280D01*
X54267528Y-88585695D01*
X54264211Y-88552013D01*
X54262842Y-71679499D01*
X55763885Y-71679499D01*
X55767200Y-71713156D01*
X55767199Y-85646278D01*
X55763885Y-85679925D01*
X55777111Y-85814208D01*
X55816280Y-85943331D01*
X55879887Y-86062332D01*
X55965488Y-86166636D01*
X56069792Y-86252237D01*
X56188793Y-86315844D01*
X56317916Y-86355013D01*
X56452199Y-86368239D01*
X56485846Y-86364925D01*
X70252760Y-86364925D01*
X70205095Y-86412590D01*
X69916726Y-86844164D01*
X69718094Y-87323704D01*
X69616833Y-87832780D01*
X69616833Y-88351830D01*
X69718094Y-88860906D01*
X69916726Y-89340446D01*
X70205095Y-89772020D01*
X70428091Y-89995016D01*
X70416432Y-89996164D01*
X56485846Y-89996164D01*
X56452199Y-89992850D01*
X56418552Y-89996164D01*
X56317916Y-90006076D01*
X56188793Y-90045245D01*
X56069792Y-90108852D01*
X55965488Y-90194453D01*
X55879887Y-90298757D01*
X55816280Y-90417758D01*
X55777111Y-90546881D01*
X55763885Y-90681164D01*
X55767200Y-90714821D01*
X55767199Y-104647943D01*
X55763885Y-104681590D01*
X55777111Y-104815873D01*
X55816280Y-104944996D01*
X55879887Y-105063997D01*
X55965488Y-105168301D01*
X56069792Y-105253902D01*
X56188793Y-105317509D01*
X56317916Y-105356678D01*
X56452199Y-105369904D01*
X56485846Y-105366590D01*
X70416432Y-105366590D01*
X70450079Y-105369904D01*
X70584362Y-105356678D01*
X70713485Y-105317509D01*
X70832486Y-105253902D01*
X70936790Y-105168301D01*
X71022391Y-105063997D01*
X71085998Y-104944996D01*
X71125167Y-104815873D01*
X71128636Y-104780648D01*
X93762135Y-104780648D01*
X93765450Y-104814305D01*
X93765449Y-118747426D01*
X93762135Y-118781073D01*
X93775361Y-118915356D01*
X93814530Y-119044479D01*
X93878137Y-119163480D01*
X93963738Y-119267784D01*
X94068042Y-119353385D01*
X94187043Y-119416992D01*
X94316166Y-119456161D01*
X94450449Y-119469387D01*
X94484096Y-119466073D01*
X108414682Y-119466073D01*
X108448329Y-119469387D01*
X108582612Y-119456161D01*
X108711735Y-119416992D01*
X108830736Y-119353385D01*
X108935040Y-119267784D01*
X109020641Y-119163480D01*
X109084248Y-119044479D01*
X109123417Y-118915356D01*
X109133329Y-118814720D01*
X109133329Y-118814719D01*
X109136643Y-118781073D01*
X109133329Y-118747426D01*
X109133329Y-107279998D01*
X112761261Y-107279998D01*
X112764576Y-107313655D01*
X112764575Y-121246773D01*
X112761261Y-121280420D01*
X112774487Y-121414703D01*
X112813656Y-121543826D01*
X112877263Y-121662827D01*
X112962864Y-121767131D01*
X113067168Y-121852732D01*
X113186169Y-121916339D01*
X113315292Y-121955508D01*
X113449575Y-121968734D01*
X113483222Y-121965420D01*
X127413813Y-121965420D01*
X127447460Y-121968734D01*
X127581743Y-121955508D01*
X127710866Y-121916339D01*
X127829867Y-121852732D01*
X127934171Y-121767131D01*
X128019772Y-121662827D01*
X128083379Y-121543826D01*
X128122548Y-121414703D01*
X128132460Y-121314067D01*
X128132460Y-121314066D01*
X128135774Y-121280420D01*
X128132460Y-121246773D01*
X128132460Y-107313645D01*
X128135774Y-107279998D01*
X128122548Y-107145715D01*
X128083379Y-107016592D01*
X128019772Y-106897591D01*
X127934171Y-106793287D01*
X127829867Y-106707686D01*
X127710866Y-106644079D01*
X127581743Y-106604910D01*
X127481107Y-106594998D01*
X127447460Y-106591684D01*
X127413813Y-106594998D01*
X113483222Y-106594998D01*
X113449575Y-106591684D01*
X113415928Y-106594998D01*
X113315292Y-106604910D01*
X113186169Y-106644079D01*
X113067168Y-106707686D01*
X112962864Y-106793287D01*
X112877263Y-106897591D01*
X112813656Y-107016592D01*
X112774487Y-107145715D01*
X112761261Y-107279998D01*
X109133329Y-107279998D01*
X109133329Y-104814295D01*
X109136643Y-104780648D01*
X109123417Y-104646365D01*
X109084248Y-104517242D01*
X109020641Y-104398241D01*
X108935040Y-104293937D01*
X108830736Y-104208336D01*
X108711735Y-104144729D01*
X108582612Y-104105560D01*
X108481976Y-104095648D01*
X108448329Y-104092334D01*
X108414682Y-104095648D01*
X94484096Y-104095648D01*
X94450449Y-104092334D01*
X94416802Y-104095648D01*
X94316166Y-104105560D01*
X94187043Y-104144729D01*
X94068042Y-104208336D01*
X93963738Y-104293937D01*
X93878137Y-104398241D01*
X93814530Y-104517242D01*
X93775361Y-104646365D01*
X93762135Y-104780648D01*
X71128636Y-104780648D01*
X71135079Y-104715237D01*
X71135079Y-104715236D01*
X71138393Y-104681590D01*
X71135079Y-104647943D01*
X71135079Y-90714811D01*
X71138393Y-90681164D01*
X71125167Y-90546881D01*
X71101175Y-90467791D01*
X71483232Y-90626044D01*
X71992308Y-90727305D01*
X72511358Y-90727305D01*
X73020434Y-90626044D01*
X73499974Y-90427412D01*
X73931548Y-90139043D01*
X74298571Y-89772020D01*
X74586940Y-89340446D01*
X74766325Y-88907372D01*
X74766324Y-102247651D01*
X74763010Y-102281298D01*
X74776236Y-102415581D01*
X74815405Y-102544704D01*
X74879012Y-102663705D01*
X74964613Y-102768009D01*
X75068916Y-102853609D01*
X75068917Y-102853610D01*
X75187918Y-102917217D01*
X75317041Y-102956386D01*
X75451324Y-102969612D01*
X75484971Y-102966298D01*
X89415557Y-102966298D01*
X89449204Y-102969612D01*
X89583487Y-102956386D01*
X89712610Y-102917217D01*
X89831611Y-102853610D01*
X89935915Y-102768009D01*
X90021516Y-102663705D01*
X90085123Y-102544704D01*
X90124292Y-102415581D01*
X90134204Y-102314945D01*
X90134204Y-102314943D01*
X90137518Y-102281298D01*
X90134204Y-102247651D01*
X90134204Y-88314520D01*
X90137518Y-88280873D01*
X90124292Y-88146590D01*
X90085123Y-88017467D01*
X90021516Y-87898466D01*
X89935915Y-87794162D01*
X89831611Y-87708561D01*
X89712610Y-87644954D01*
X89583487Y-87605785D01*
X89482851Y-87595873D01*
X89449204Y-87592559D01*
X89415557Y-87595873D01*
X75484971Y-87595873D01*
X75451324Y-87592559D01*
X75417677Y-87595873D01*
X75317041Y-87605785D01*
X75187918Y-87644954D01*
X75068917Y-87708561D01*
X74964613Y-87794162D01*
X74886833Y-87888936D01*
X74886833Y-87832780D01*
X74785572Y-87323704D01*
X74586940Y-86844164D01*
X74298571Y-86412590D01*
X73931548Y-86045567D01*
X73532578Y-85778983D01*
X93762135Y-85778983D01*
X93765450Y-85812640D01*
X93765449Y-99745761D01*
X93762135Y-99779408D01*
X93775361Y-99913691D01*
X93814530Y-100042814D01*
X93878137Y-100161815D01*
X93963738Y-100266119D01*
X94068042Y-100351720D01*
X94187043Y-100415327D01*
X94316166Y-100454496D01*
X94450449Y-100467722D01*
X94484096Y-100464408D01*
X108414682Y-100464408D01*
X108448329Y-100467722D01*
X108582612Y-100454496D01*
X108711735Y-100415327D01*
X108830736Y-100351720D01*
X108935040Y-100266119D01*
X109020641Y-100161815D01*
X109084248Y-100042814D01*
X109123417Y-99913691D01*
X109133329Y-99813055D01*
X109133329Y-99813054D01*
X109136643Y-99779408D01*
X109133329Y-99745761D01*
X109133329Y-88280873D01*
X112761261Y-88280873D01*
X112764576Y-88314530D01*
X112764575Y-102247650D01*
X112761261Y-102281297D01*
X112774487Y-102415580D01*
X112813656Y-102544703D01*
X112877263Y-102663704D01*
X112962864Y-102768008D01*
X113067168Y-102853609D01*
X113186169Y-102917216D01*
X113315292Y-102956385D01*
X113449575Y-102969611D01*
X113483222Y-102966297D01*
X127413803Y-102966297D01*
X127447450Y-102969611D01*
X127581733Y-102956385D01*
X127710856Y-102917216D01*
X127829857Y-102853609D01*
X127934161Y-102768008D01*
X128019762Y-102663704D01*
X128083369Y-102544703D01*
X128122538Y-102415580D01*
X128132450Y-102314944D01*
X128132450Y-102314943D01*
X128135764Y-102281297D01*
X128132450Y-102247650D01*
X128132450Y-97180998D01*
X131762926Y-97180998D01*
X131766241Y-97214655D01*
X131766240Y-111147775D01*
X131762926Y-111181422D01*
X131776152Y-111315705D01*
X131815321Y-111444828D01*
X131878928Y-111563829D01*
X131964529Y-111668133D01*
X132068833Y-111753734D01*
X132187834Y-111817341D01*
X132316957Y-111856510D01*
X132451240Y-111869736D01*
X132484887Y-111866422D01*
X146415473Y-111866422D01*
X146449120Y-111869736D01*
X146583403Y-111856510D01*
X146712526Y-111817341D01*
X146831527Y-111753734D01*
X146935831Y-111668133D01*
X147021432Y-111563829D01*
X147085039Y-111444828D01*
X147124208Y-111315705D01*
X147134120Y-111215069D01*
X147134120Y-111215068D01*
X147137434Y-111181422D01*
X147134120Y-111147775D01*
X147134120Y-97214645D01*
X147137348Y-97181873D01*
X147502139Y-97425619D01*
X147981679Y-97624251D01*
X148490755Y-97725512D01*
X149009805Y-97725512D01*
X149518881Y-97624251D01*
X149998421Y-97425619D01*
X150364521Y-97180998D01*
X150812846Y-97180998D01*
X150816161Y-97214655D01*
X150816160Y-111147775D01*
X150812846Y-111181422D01*
X150826072Y-111315705D01*
X150865241Y-111444828D01*
X150928848Y-111563829D01*
X151014449Y-111668133D01*
X151118753Y-111753734D01*
X151237754Y-111817341D01*
X151366877Y-111856510D01*
X151501160Y-111869736D01*
X151534807Y-111866422D01*
X165465393Y-111866422D01*
X165499040Y-111869736D01*
X165633323Y-111856510D01*
X165762446Y-111817341D01*
X165881447Y-111753734D01*
X165985751Y-111668133D01*
X166071352Y-111563829D01*
X166134959Y-111444828D01*
X166174128Y-111315705D01*
X166184040Y-111215069D01*
X166184040Y-111215068D01*
X166187354Y-111181422D01*
X166184040Y-111147775D01*
X166184040Y-97214645D01*
X166187354Y-97180998D01*
X166174128Y-97046715D01*
X166134959Y-96917592D01*
X166071352Y-96798591D01*
X165985751Y-96694287D01*
X165881447Y-96608686D01*
X165762446Y-96545079D01*
X165633323Y-96505910D01*
X165532687Y-96495998D01*
X165499040Y-96492684D01*
X165465393Y-96495998D01*
X151534807Y-96495998D01*
X151501160Y-96492684D01*
X151467513Y-96495998D01*
X151366877Y-96505910D01*
X151237754Y-96545079D01*
X151118753Y-96608686D01*
X151014449Y-96694287D01*
X150928848Y-96798591D01*
X150865241Y-96917592D01*
X150826072Y-97046715D01*
X150812846Y-97180998D01*
X150364521Y-97180998D01*
X150429995Y-97137250D01*
X150797018Y-96770227D01*
X151085387Y-96338653D01*
X151284019Y-95859113D01*
X151385280Y-95350037D01*
X151385280Y-94830987D01*
X151284019Y-94321911D01*
X151085387Y-93842371D01*
X150797018Y-93410797D01*
X150429995Y-93043774D01*
X149998421Y-92755405D01*
X149518881Y-92556773D01*
X149009805Y-92455512D01*
X148490755Y-92455512D01*
X147981679Y-92556773D01*
X147502139Y-92755405D01*
X147070565Y-93043774D01*
X146703542Y-93410797D01*
X146415173Y-93842371D01*
X146216541Y-94321911D01*
X146115280Y-94830987D01*
X146115280Y-95350037D01*
X146216541Y-95859113D01*
X146415173Y-96338653D01*
X146522952Y-96499956D01*
X146482767Y-96495998D01*
X146449120Y-96492684D01*
X146415473Y-96495998D01*
X132484887Y-96495998D01*
X132451240Y-96492684D01*
X132417593Y-96495998D01*
X132316957Y-96505910D01*
X132187834Y-96545079D01*
X132068833Y-96608686D01*
X131964529Y-96694287D01*
X131878928Y-96798591D01*
X131815321Y-96917592D01*
X131776152Y-97046715D01*
X131762926Y-97180998D01*
X128132450Y-97180998D01*
X128132450Y-88314520D01*
X128135764Y-88280873D01*
X128122538Y-88146590D01*
X128083369Y-88017467D01*
X128019762Y-87898466D01*
X127934161Y-87794162D01*
X127829857Y-87708561D01*
X127710856Y-87644954D01*
X127581733Y-87605785D01*
X127481097Y-87595873D01*
X127447450Y-87592559D01*
X127413803Y-87595873D01*
X113483222Y-87595873D01*
X113449575Y-87592559D01*
X113415928Y-87595873D01*
X113315292Y-87605785D01*
X113186169Y-87644954D01*
X113067168Y-87708561D01*
X112962864Y-87794162D01*
X112877263Y-87898466D01*
X112813656Y-88017467D01*
X112774487Y-88146590D01*
X112761261Y-88280873D01*
X109133329Y-88280873D01*
X109133329Y-85812630D01*
X109136643Y-85778983D01*
X109123417Y-85644700D01*
X109084248Y-85515577D01*
X109020641Y-85396576D01*
X108935040Y-85292272D01*
X108830736Y-85206671D01*
X108711735Y-85143064D01*
X108582612Y-85103895D01*
X108481976Y-85093983D01*
X108448329Y-85090669D01*
X108414682Y-85093983D01*
X94484096Y-85093983D01*
X94450449Y-85090669D01*
X94416802Y-85093983D01*
X94316166Y-85103895D01*
X94187043Y-85143064D01*
X94068042Y-85206671D01*
X93963738Y-85292272D01*
X93878137Y-85396576D01*
X93814530Y-85515577D01*
X93775361Y-85644700D01*
X93762135Y-85778983D01*
X73532578Y-85778983D01*
X73499974Y-85757198D01*
X73020434Y-85558566D01*
X72511358Y-85457305D01*
X71992308Y-85457305D01*
X71483232Y-85558566D01*
X71136189Y-85702316D01*
X71138394Y-85679925D01*
X71135080Y-85646278D01*
X71135080Y-71713146D01*
X71138394Y-71679499D01*
X71125168Y-71545216D01*
X71085999Y-71416093D01*
X71022392Y-71297092D01*
X70936791Y-71192788D01*
X70832487Y-71107187D01*
X70713486Y-71043580D01*
X70584363Y-71004411D01*
X70483727Y-70994499D01*
X70450080Y-70991185D01*
X70416433Y-70994499D01*
X56485846Y-70994499D01*
X56452199Y-70991185D01*
X56418552Y-70994499D01*
X56317916Y-71004411D01*
X56188793Y-71043580D01*
X56069792Y-71107187D01*
X55965488Y-71192788D01*
X55879887Y-71297092D01*
X55816280Y-71416093D01*
X55777111Y-71545216D01*
X55763885Y-71679499D01*
X54262842Y-71679499D01*
X54262640Y-69180148D01*
X74763010Y-69180148D01*
X74766325Y-69213805D01*
X74766324Y-83146927D01*
X74763010Y-83180574D01*
X74776236Y-83314857D01*
X74815405Y-83443980D01*
X74879012Y-83562981D01*
X74964613Y-83667285D01*
X75068916Y-83752885D01*
X75068917Y-83752886D01*
X75187918Y-83816493D01*
X75317041Y-83855662D01*
X75451324Y-83868888D01*
X75484971Y-83865574D01*
X89415558Y-83865574D01*
X89449205Y-83868888D01*
X89583488Y-83855662D01*
X89712611Y-83816493D01*
X89831612Y-83752886D01*
X89935916Y-83667285D01*
X90021517Y-83562981D01*
X90085124Y-83443980D01*
X90124293Y-83314857D01*
X90134205Y-83214221D01*
X90134205Y-83214219D01*
X90137519Y-83180574D01*
X90134205Y-83146927D01*
X90134205Y-69213795D01*
X90137519Y-69180148D01*
X90124293Y-69045865D01*
X90085124Y-68916742D01*
X90021517Y-68797741D01*
X89935916Y-68693437D01*
X89831612Y-68607836D01*
X89712611Y-68544229D01*
X89583488Y-68505060D01*
X89482852Y-68495148D01*
X89449205Y-68491834D01*
X89415558Y-68495148D01*
X75484971Y-68495148D01*
X75451324Y-68491834D01*
X75417677Y-68495148D01*
X75317041Y-68505060D01*
X75187918Y-68544229D01*
X75068917Y-68607836D01*
X74964613Y-68693437D01*
X74879012Y-68797741D01*
X74815405Y-68916742D01*
X74776236Y-69045865D01*
X74763010Y-69180148D01*
X54262640Y-69180148D01*
X54259748Y-33579649D01*
X55763883Y-33579649D01*
X55767198Y-33613306D01*
X55767197Y-47546426D01*
X55763883Y-47580073D01*
X55777109Y-47714356D01*
X55816278Y-47843479D01*
X55879885Y-47962480D01*
X55965486Y-48066784D01*
X56047432Y-48134036D01*
X56069790Y-48152385D01*
X56188791Y-48215992D01*
X56317914Y-48255161D01*
X56452197Y-48268387D01*
X56485844Y-48265073D01*
X70416437Y-48265073D01*
X70437714Y-48267169D01*
X70203824Y-48501059D01*
X69915455Y-48932633D01*
X69716823Y-49412173D01*
X69615562Y-49921249D01*
X69615562Y-50440299D01*
X69716823Y-50949375D01*
X69915455Y-51428915D01*
X70203824Y-51860489D01*
X70338708Y-51995373D01*
X56485846Y-51995373D01*
X56452199Y-51992059D01*
X56418552Y-51995373D01*
X56317916Y-52005285D01*
X56188793Y-52044454D01*
X56069792Y-52108061D01*
X55965488Y-52193662D01*
X55879887Y-52297966D01*
X55816280Y-52416967D01*
X55777111Y-52546090D01*
X55763885Y-52680373D01*
X55767200Y-52714030D01*
X55767199Y-66647151D01*
X55763885Y-66680798D01*
X55777111Y-66815081D01*
X55816280Y-66944204D01*
X55879887Y-67063205D01*
X55965488Y-67167509D01*
X56069792Y-67253110D01*
X56188793Y-67316717D01*
X56317916Y-67355886D01*
X56452199Y-67369112D01*
X56485846Y-67365798D01*
X70416432Y-67365798D01*
X70450079Y-67369112D01*
X70584362Y-67355886D01*
X70713485Y-67316717D01*
X70832486Y-67253110D01*
X70936790Y-67167509D01*
X71022391Y-67063205D01*
X71085998Y-66944204D01*
X71125167Y-66815081D01*
X71128636Y-66779858D01*
X93762135Y-66779858D01*
X93765450Y-66813515D01*
X93765449Y-80746636D01*
X93762135Y-80780283D01*
X93775361Y-80914566D01*
X93814530Y-81043689D01*
X93878137Y-81162690D01*
X93963738Y-81266994D01*
X94068042Y-81352595D01*
X94187043Y-81416202D01*
X94316166Y-81455371D01*
X94450449Y-81468597D01*
X94484096Y-81465283D01*
X108414682Y-81465283D01*
X108448329Y-81468597D01*
X108582612Y-81455371D01*
X108711735Y-81416202D01*
X108830736Y-81352595D01*
X108935040Y-81266994D01*
X109020641Y-81162690D01*
X109084248Y-81043689D01*
X109123417Y-80914566D01*
X109133329Y-80813930D01*
X109133329Y-80813929D01*
X109136643Y-80780283D01*
X109133329Y-80746636D01*
X109133329Y-69180148D01*
X112761261Y-69180148D01*
X112764576Y-69213805D01*
X112764575Y-83146926D01*
X112761261Y-83180573D01*
X112774487Y-83314856D01*
X112813656Y-83443979D01*
X112877263Y-83562980D01*
X112962864Y-83667284D01*
X113067168Y-83752885D01*
X113186169Y-83816492D01*
X113315292Y-83855661D01*
X113449575Y-83868887D01*
X113483222Y-83865573D01*
X127413803Y-83865573D01*
X127447450Y-83868887D01*
X127581733Y-83855661D01*
X127710856Y-83816492D01*
X127829857Y-83752885D01*
X127934161Y-83667284D01*
X128019762Y-83562980D01*
X128083369Y-83443979D01*
X128122538Y-83314856D01*
X128132450Y-83214220D01*
X128132450Y-83214219D01*
X128135764Y-83180573D01*
X128132450Y-83146926D01*
X128132450Y-78179333D01*
X131762926Y-78179333D01*
X131766241Y-78212990D01*
X131766240Y-92146110D01*
X131762926Y-92179757D01*
X131776152Y-92314040D01*
X131815321Y-92443163D01*
X131878928Y-92562164D01*
X131964529Y-92666468D01*
X132068833Y-92752069D01*
X132187834Y-92815676D01*
X132316957Y-92854845D01*
X132451240Y-92868071D01*
X132484887Y-92864757D01*
X146415473Y-92864757D01*
X146449120Y-92868071D01*
X146583403Y-92854845D01*
X146712526Y-92815676D01*
X146831527Y-92752069D01*
X146935831Y-92666468D01*
X147021432Y-92562164D01*
X147085039Y-92443163D01*
X147124208Y-92314040D01*
X147134120Y-92213404D01*
X147134120Y-92213403D01*
X147137434Y-92179757D01*
X147134120Y-92146110D01*
X147134120Y-78212980D01*
X147137434Y-78179333D01*
X150762056Y-78179333D01*
X150765371Y-78212990D01*
X150765370Y-92146110D01*
X150762056Y-92179757D01*
X150775282Y-92314040D01*
X150814451Y-92443163D01*
X150878058Y-92562164D01*
X150963659Y-92666468D01*
X151067963Y-92752069D01*
X151186964Y-92815676D01*
X151316087Y-92854845D01*
X151450370Y-92868071D01*
X151484017Y-92864757D01*
X165414603Y-92864757D01*
X165448250Y-92868071D01*
X165582533Y-92854845D01*
X165711656Y-92815676D01*
X165830657Y-92752069D01*
X165934961Y-92666468D01*
X166020562Y-92562164D01*
X166084169Y-92443163D01*
X166123338Y-92314040D01*
X166133250Y-92213404D01*
X166133250Y-92213403D01*
X166136564Y-92179757D01*
X166133250Y-92146110D01*
X166133250Y-78212980D01*
X166136564Y-78179333D01*
X166123338Y-78045050D01*
X166084169Y-77915927D01*
X166020562Y-77796926D01*
X165934961Y-77692622D01*
X165830657Y-77607021D01*
X165711656Y-77543414D01*
X165582533Y-77504245D01*
X165481897Y-77494333D01*
X165448250Y-77491019D01*
X165414603Y-77494333D01*
X151484017Y-77494333D01*
X151450370Y-77491019D01*
X151416723Y-77494333D01*
X151316087Y-77504245D01*
X151186964Y-77543414D01*
X151067963Y-77607021D01*
X150963659Y-77692622D01*
X150878058Y-77796926D01*
X150814451Y-77915927D01*
X150775282Y-78045050D01*
X150762056Y-78179333D01*
X147137434Y-78179333D01*
X147124208Y-78045050D01*
X147085039Y-77915927D01*
X147021432Y-77796926D01*
X146935831Y-77692622D01*
X146831527Y-77607021D01*
X146712526Y-77543414D01*
X146583403Y-77504245D01*
X146482767Y-77494333D01*
X146449120Y-77491019D01*
X146415473Y-77494333D01*
X132484887Y-77494333D01*
X132451240Y-77491019D01*
X132417593Y-77494333D01*
X132316957Y-77504245D01*
X132187834Y-77543414D01*
X132068833Y-77607021D01*
X131964529Y-77692622D01*
X131878928Y-77796926D01*
X131815321Y-77915927D01*
X131776152Y-78045050D01*
X131762926Y-78179333D01*
X128132450Y-78179333D01*
X128132450Y-69213795D01*
X128135764Y-69180148D01*
X128122538Y-69045865D01*
X128083369Y-68916742D01*
X128019762Y-68797741D01*
X127934161Y-68693437D01*
X127829857Y-68607836D01*
X127710856Y-68544229D01*
X127581733Y-68505060D01*
X127481097Y-68495148D01*
X127447450Y-68491834D01*
X127413803Y-68495148D01*
X113483222Y-68495148D01*
X113449575Y-68491834D01*
X113415928Y-68495148D01*
X113315292Y-68505060D01*
X113186169Y-68544229D01*
X113067168Y-68607836D01*
X112962864Y-68693437D01*
X112877263Y-68797741D01*
X112813656Y-68916742D01*
X112774487Y-69045865D01*
X112761261Y-69180148D01*
X109133329Y-69180148D01*
X109133329Y-66813505D01*
X109136643Y-66779858D01*
X109123417Y-66645575D01*
X109084248Y-66516452D01*
X109020641Y-66397451D01*
X108935040Y-66293147D01*
X108830736Y-66207546D01*
X108711735Y-66143939D01*
X108582612Y-66104770D01*
X108481976Y-66094858D01*
X108448329Y-66091544D01*
X108414682Y-66094858D01*
X94484096Y-66094858D01*
X94450449Y-66091544D01*
X94416802Y-66094858D01*
X94316166Y-66104770D01*
X94187043Y-66143939D01*
X94068042Y-66207546D01*
X93963738Y-66293147D01*
X93878137Y-66397451D01*
X93814530Y-66516452D01*
X93775361Y-66645575D01*
X93762135Y-66779858D01*
X71128636Y-66779858D01*
X71135079Y-66714445D01*
X71135079Y-66714444D01*
X71138393Y-66680798D01*
X71135079Y-66647151D01*
X71135079Y-52714020D01*
X71138393Y-52680373D01*
X71127286Y-52567602D01*
X71481961Y-52714513D01*
X71991037Y-52815774D01*
X72510087Y-52815774D01*
X73019163Y-52714513D01*
X73498703Y-52515881D01*
X73930277Y-52227512D01*
X74297300Y-51860489D01*
X74585669Y-51428915D01*
X74768870Y-50986629D01*
X74768869Y-64147801D01*
X74765555Y-64181448D01*
X74778781Y-64315731D01*
X74817950Y-64444854D01*
X74881557Y-64563855D01*
X74967158Y-64668159D01*
X75071462Y-64753760D01*
X75190463Y-64817367D01*
X75319586Y-64856536D01*
X75453869Y-64869762D01*
X75487516Y-64866448D01*
X89418102Y-64866448D01*
X89451749Y-64869762D01*
X89586032Y-64856536D01*
X89715155Y-64817367D01*
X89834156Y-64753760D01*
X89938460Y-64668159D01*
X90024061Y-64563855D01*
X90087668Y-64444854D01*
X90126837Y-64315731D01*
X90136749Y-64215095D01*
X90136749Y-64215094D01*
X90140063Y-64181448D01*
X90136749Y-64147801D01*
X90136749Y-50214670D01*
X90140063Y-50181023D01*
X90126837Y-50046740D01*
X90087668Y-49917617D01*
X90024061Y-49798616D01*
X89938460Y-49694312D01*
X89834156Y-49608711D01*
X89715155Y-49545104D01*
X89586032Y-49505935D01*
X89485396Y-49496023D01*
X89451749Y-49492709D01*
X89418102Y-49496023D01*
X75487516Y-49496023D01*
X75453869Y-49492709D01*
X75420222Y-49496023D01*
X75319586Y-49505935D01*
X75190463Y-49545104D01*
X75071462Y-49608711D01*
X74967158Y-49694312D01*
X74881557Y-49798616D01*
X74866698Y-49826415D01*
X74784301Y-49412173D01*
X74585669Y-48932633D01*
X74297300Y-48501059D01*
X73930277Y-48134036D01*
X73498703Y-47845667D01*
X73096655Y-47679133D01*
X93762135Y-47679133D01*
X93765450Y-47712790D01*
X93765449Y-61645911D01*
X93762135Y-61679558D01*
X93775361Y-61813841D01*
X93814530Y-61942964D01*
X93878137Y-62061965D01*
X93963738Y-62166269D01*
X94068042Y-62251870D01*
X94187043Y-62315477D01*
X94316166Y-62354646D01*
X94450449Y-62367872D01*
X94484096Y-62364558D01*
X108414682Y-62364558D01*
X108448329Y-62367872D01*
X108582612Y-62354646D01*
X108711735Y-62315477D01*
X108830736Y-62251870D01*
X108935040Y-62166269D01*
X109020641Y-62061965D01*
X109084248Y-61942964D01*
X109123417Y-61813841D01*
X109133329Y-61713205D01*
X109133329Y-61713204D01*
X109136643Y-61679558D01*
X109133329Y-61645911D01*
X109133329Y-50079424D01*
X112761261Y-50079424D01*
X112764576Y-50113081D01*
X112764575Y-64046202D01*
X112761261Y-64079849D01*
X112774487Y-64214132D01*
X112813656Y-64343255D01*
X112877263Y-64462256D01*
X112962864Y-64566560D01*
X113067168Y-64652161D01*
X113186169Y-64715768D01*
X113315292Y-64754937D01*
X113449575Y-64768163D01*
X113483222Y-64764849D01*
X127413803Y-64764849D01*
X127447450Y-64768163D01*
X127581733Y-64754937D01*
X127710856Y-64715768D01*
X127829857Y-64652161D01*
X127934161Y-64566560D01*
X128019762Y-64462256D01*
X128083369Y-64343255D01*
X128122538Y-64214132D01*
X128132450Y-64113496D01*
X128132450Y-64113495D01*
X128135764Y-64079849D01*
X128132450Y-64046202D01*
X128132450Y-58979549D01*
X131762926Y-58979549D01*
X131766241Y-59013206D01*
X131766240Y-72946326D01*
X131762926Y-72979973D01*
X131776152Y-73114256D01*
X131815321Y-73243379D01*
X131878928Y-73362380D01*
X131964529Y-73466684D01*
X132068833Y-73552285D01*
X132187834Y-73615892D01*
X132316957Y-73655061D01*
X132451240Y-73668287D01*
X132484887Y-73664973D01*
X146415473Y-73664973D01*
X146449120Y-73668287D01*
X146583403Y-73655061D01*
X146712526Y-73615892D01*
X146831527Y-73552285D01*
X146935831Y-73466684D01*
X147021432Y-73362380D01*
X147085039Y-73243379D01*
X147124208Y-73114256D01*
X147134120Y-73013620D01*
X147134120Y-73013619D01*
X147137434Y-72979973D01*
X147134120Y-72946326D01*
X147134120Y-59013196D01*
X147137434Y-58979549D01*
X147127206Y-58875708D01*
X147502139Y-59126230D01*
X147981679Y-59324862D01*
X148490755Y-59426123D01*
X149009805Y-59426123D01*
X149518881Y-59324862D01*
X149998421Y-59126230D01*
X150217944Y-58979549D01*
X150762056Y-58979549D01*
X150765371Y-59013206D01*
X150765370Y-72946326D01*
X150762056Y-72979973D01*
X150775282Y-73114256D01*
X150814451Y-73243379D01*
X150878058Y-73362380D01*
X150963659Y-73466684D01*
X151067963Y-73552285D01*
X151186964Y-73615892D01*
X151316087Y-73655061D01*
X151450370Y-73668287D01*
X151484017Y-73664973D01*
X165414603Y-73664973D01*
X165448250Y-73668287D01*
X165582533Y-73655061D01*
X165711656Y-73615892D01*
X165830657Y-73552285D01*
X165934961Y-73466684D01*
X166020562Y-73362380D01*
X166084169Y-73243379D01*
X166123338Y-73114256D01*
X166133250Y-73013620D01*
X166133250Y-73013619D01*
X166136564Y-72979973D01*
X166133250Y-72946326D01*
X166133250Y-59013196D01*
X166136564Y-58979549D01*
X166123338Y-58845266D01*
X166084169Y-58716143D01*
X166020562Y-58597142D01*
X165934961Y-58492838D01*
X165830657Y-58407237D01*
X165711656Y-58343630D01*
X165582533Y-58304461D01*
X165481897Y-58294549D01*
X165448250Y-58291235D01*
X165414603Y-58294549D01*
X151484017Y-58294549D01*
X151450370Y-58291235D01*
X151416723Y-58294549D01*
X151316087Y-58304461D01*
X151186964Y-58343630D01*
X151067963Y-58407237D01*
X150963659Y-58492838D01*
X150878058Y-58597142D01*
X150814451Y-58716143D01*
X150775282Y-58845266D01*
X150762056Y-58979549D01*
X150217944Y-58979549D01*
X150429995Y-58837861D01*
X150797018Y-58470838D01*
X151085387Y-58039264D01*
X151284019Y-57559724D01*
X151385280Y-57050648D01*
X151385280Y-56531598D01*
X151284019Y-56022522D01*
X151085387Y-55542982D01*
X150797018Y-55111408D01*
X150429995Y-54744385D01*
X149998421Y-54456016D01*
X149518881Y-54257384D01*
X149009805Y-54156123D01*
X148490755Y-54156123D01*
X147981679Y-54257384D01*
X147502139Y-54456016D01*
X147070565Y-54744385D01*
X146703542Y-55111408D01*
X146415173Y-55542982D01*
X146216541Y-56022522D01*
X146115280Y-56531598D01*
X146115280Y-57050648D01*
X146216541Y-57559724D01*
X146415173Y-58039264D01*
X146594652Y-58307873D01*
X146583403Y-58304461D01*
X146482767Y-58294549D01*
X146449120Y-58291235D01*
X146415473Y-58294549D01*
X132484887Y-58294549D01*
X132451240Y-58291235D01*
X132417593Y-58294549D01*
X132316957Y-58304461D01*
X132187834Y-58343630D01*
X132068833Y-58407237D01*
X131964529Y-58492838D01*
X131878928Y-58597142D01*
X131815321Y-58716143D01*
X131776152Y-58845266D01*
X131762926Y-58979549D01*
X128132450Y-58979549D01*
X128132450Y-50113071D01*
X128135764Y-50079424D01*
X128122538Y-49945141D01*
X128083369Y-49816018D01*
X128019762Y-49697017D01*
X127934161Y-49592713D01*
X127829857Y-49507112D01*
X127710856Y-49443505D01*
X127581733Y-49404336D01*
X127481097Y-49394424D01*
X127447450Y-49391110D01*
X127413803Y-49394424D01*
X113483222Y-49394424D01*
X113449575Y-49391110D01*
X113415928Y-49394424D01*
X113315292Y-49404336D01*
X113186169Y-49443505D01*
X113067168Y-49507112D01*
X112962864Y-49592713D01*
X112877263Y-49697017D01*
X112813656Y-49816018D01*
X112774487Y-49945141D01*
X112761261Y-50079424D01*
X109133329Y-50079424D01*
X109133329Y-47712780D01*
X109136643Y-47679133D01*
X109123417Y-47544850D01*
X109084248Y-47415727D01*
X109020641Y-47296726D01*
X108935040Y-47192422D01*
X108830736Y-47106821D01*
X108711735Y-47043214D01*
X108582612Y-47004045D01*
X108481976Y-46994133D01*
X108448329Y-46990819D01*
X108414682Y-46994133D01*
X94484096Y-46994133D01*
X94450449Y-46990819D01*
X94416802Y-46994133D01*
X94316166Y-47004045D01*
X94187043Y-47043214D01*
X94068042Y-47106821D01*
X93963738Y-47192422D01*
X93878137Y-47296726D01*
X93814530Y-47415727D01*
X93775361Y-47544850D01*
X93762135Y-47679133D01*
X73096655Y-47679133D01*
X73019163Y-47647035D01*
X72510087Y-47545774D01*
X71991037Y-47545774D01*
X71481961Y-47647035D01*
X71097255Y-47806385D01*
X71125172Y-47714356D01*
X71135084Y-47613720D01*
X71135084Y-47613719D01*
X71138398Y-47580073D01*
X71135084Y-47546426D01*
X71135084Y-33613296D01*
X71138398Y-33579649D01*
X71125172Y-33445366D01*
X71086003Y-33316243D01*
X71022396Y-33197242D01*
X70936795Y-33092938D01*
X70832491Y-33007337D01*
X70713490Y-32943730D01*
X70584367Y-32904561D01*
X70483731Y-32894649D01*
X70450084Y-32891335D01*
X70416437Y-32894649D01*
X56485844Y-32894649D01*
X56452197Y-32891335D01*
X56418550Y-32894649D01*
X56317914Y-32904561D01*
X56188791Y-32943730D01*
X56069790Y-33007337D01*
X55965486Y-33092938D01*
X55879885Y-33197242D01*
X55816278Y-33316243D01*
X55777109Y-33445366D01*
X55763883Y-33579649D01*
X54259748Y-33579649D01*
X54259604Y-31818238D01*
X73647383Y-31816117D01*
X73681024Y-31819427D01*
X73714665Y-31816110D01*
X73714672Y-31816110D01*
X73815307Y-31806187D01*
X73893671Y-31782406D01*
X73944424Y-31767005D01*
X74059150Y-31705667D01*
X74063420Y-31703384D01*
X74164905Y-31620078D01*
X74167713Y-31617773D01*
X74253303Y-31513460D01*
X74316897Y-31394452D01*
X74356053Y-31265325D01*
X74365954Y-31164688D01*
X74365954Y-31164684D01*
X74369264Y-31131039D01*
X74365947Y-31097396D01*
X74365946Y-31080298D01*
X74765548Y-31080298D01*
X74768863Y-31113955D01*
X74768862Y-45047075D01*
X74765548Y-45080722D01*
X74778774Y-45215005D01*
X74817943Y-45344128D01*
X74881550Y-45463129D01*
X74967151Y-45567433D01*
X75071455Y-45653034D01*
X75190456Y-45716641D01*
X75319579Y-45755810D01*
X75453862Y-45769036D01*
X75487509Y-45765722D01*
X89418102Y-45765722D01*
X89451749Y-45769036D01*
X89586032Y-45755810D01*
X89715155Y-45716641D01*
X89834156Y-45653034D01*
X89938460Y-45567433D01*
X90024061Y-45463129D01*
X90087668Y-45344128D01*
X90126837Y-45215005D01*
X90136749Y-45114369D01*
X90136749Y-45114368D01*
X90140063Y-45080722D01*
X90136749Y-45047075D01*
X90136749Y-31113945D01*
X90140063Y-31080298D01*
X90126837Y-30946015D01*
X90087668Y-30816892D01*
X90024061Y-30697891D01*
X89938460Y-30593587D01*
X89834156Y-30507986D01*
X89715155Y-30444379D01*
X89586032Y-30405210D01*
X89485396Y-30395298D01*
X89451749Y-30391984D01*
X89418102Y-30395298D01*
X75487509Y-30395298D01*
X75453862Y-30391984D01*
X75420215Y-30395298D01*
X75319579Y-30405210D01*
X75190456Y-30444379D01*
X75071455Y-30507986D01*
X74967151Y-30593587D01*
X74881550Y-30697891D01*
X74817943Y-30816892D01*
X74778774Y-30946015D01*
X74765548Y-31080298D01*
X74365946Y-31080298D01*
X74365758Y-29318888D01*
X92646619Y-29316772D01*
X92680255Y-29320081D01*
X92713896Y-29316764D01*
X92713909Y-29316764D01*
X92794335Y-29308833D01*
X92814537Y-29306841D01*
X92814539Y-29306841D01*
X92814544Y-29306840D01*
X92877560Y-29287716D01*
X92943656Y-29267659D01*
X92946393Y-29266196D01*
X92968400Y-29254430D01*
X93062650Y-29204039D01*
X93062656Y-29204035D01*
X93115648Y-29160535D01*
X93166945Y-29118427D01*
X93166947Y-29118424D01*
X93166950Y-29118422D01*
X93209142Y-29066999D01*
X93252535Y-29014114D01*
X93252539Y-29014108D01*
X93316132Y-28895100D01*
X93336201Y-28828912D01*
X93355285Y-28765979D01*
X93365186Y-28665342D01*
X93365186Y-28665336D01*
X93368496Y-28631689D01*
X93365179Y-28598049D01*
X93365179Y-28591108D01*
X93762135Y-28591108D01*
X93765450Y-28624765D01*
X93765449Y-42557886D01*
X93762135Y-42591533D01*
X93775361Y-42725816D01*
X93814530Y-42854939D01*
X93878137Y-42973940D01*
X93963738Y-43078244D01*
X94068042Y-43163845D01*
X94187043Y-43227452D01*
X94316166Y-43266621D01*
X94450449Y-43279847D01*
X94484096Y-43276533D01*
X108414689Y-43276533D01*
X108448336Y-43279847D01*
X108582619Y-43266621D01*
X108711742Y-43227452D01*
X108830743Y-43163845D01*
X108935047Y-43078244D01*
X109020648Y-42973940D01*
X109084255Y-42854939D01*
X109123424Y-42725816D01*
X109133336Y-42625180D01*
X109133336Y-42625179D01*
X109136650Y-42591533D01*
X109133336Y-42557886D01*
X109133336Y-31080298D01*
X112761261Y-31080298D01*
X112764576Y-31113955D01*
X112764575Y-45047075D01*
X112761261Y-45080722D01*
X112774487Y-45215005D01*
X112813656Y-45344128D01*
X112877263Y-45463129D01*
X112962864Y-45567433D01*
X113067168Y-45653034D01*
X113186169Y-45716641D01*
X113315292Y-45755810D01*
X113449575Y-45769036D01*
X113483222Y-45765722D01*
X127413813Y-45765722D01*
X127447460Y-45769036D01*
X127581743Y-45755810D01*
X127710866Y-45716641D01*
X127829867Y-45653034D01*
X127934171Y-45567433D01*
X128019772Y-45463129D01*
X128083379Y-45344128D01*
X128122548Y-45215005D01*
X128132460Y-45114369D01*
X128132460Y-45114368D01*
X128135774Y-45080722D01*
X128132460Y-45047075D01*
X128132460Y-40079483D01*
X131765466Y-40079483D01*
X131768781Y-40113140D01*
X131768780Y-54046260D01*
X131765466Y-54079907D01*
X131778692Y-54214190D01*
X131817861Y-54343313D01*
X131881468Y-54462314D01*
X131967069Y-54566618D01*
X132071373Y-54652219D01*
X132190374Y-54715826D01*
X132319497Y-54754995D01*
X132453780Y-54768221D01*
X132487427Y-54764907D01*
X146418013Y-54764907D01*
X146451660Y-54768221D01*
X146585943Y-54754995D01*
X146715066Y-54715826D01*
X146834067Y-54652219D01*
X146938371Y-54566618D01*
X147023972Y-54462314D01*
X147087579Y-54343313D01*
X147126748Y-54214190D01*
X147136660Y-54113554D01*
X147136660Y-54113553D01*
X147139974Y-54079907D01*
X147136660Y-54046260D01*
X147136660Y-40113130D01*
X147139974Y-40079483D01*
X150762056Y-40079483D01*
X150765371Y-40113140D01*
X150765370Y-54046260D01*
X150762056Y-54079907D01*
X150775282Y-54214190D01*
X150814451Y-54343313D01*
X150878058Y-54462314D01*
X150963659Y-54566618D01*
X151067963Y-54652219D01*
X151186964Y-54715826D01*
X151316087Y-54754995D01*
X151450370Y-54768221D01*
X151484017Y-54764907D01*
X165414603Y-54764907D01*
X165448250Y-54768221D01*
X165582533Y-54754995D01*
X165711656Y-54715826D01*
X165830657Y-54652219D01*
X165934961Y-54566618D01*
X166020562Y-54462314D01*
X166084169Y-54343313D01*
X166123338Y-54214190D01*
X166133250Y-54113554D01*
X166133250Y-54113553D01*
X166136564Y-54079907D01*
X166133250Y-54046260D01*
X166133250Y-40113130D01*
X166136564Y-40079483D01*
X166123338Y-39945200D01*
X166084169Y-39816077D01*
X166020562Y-39697076D01*
X165934961Y-39592772D01*
X165830657Y-39507171D01*
X165711656Y-39443564D01*
X165582533Y-39404395D01*
X165481897Y-39394483D01*
X165448250Y-39391169D01*
X165414603Y-39394483D01*
X151484017Y-39394483D01*
X151450370Y-39391169D01*
X151416723Y-39394483D01*
X151316087Y-39404395D01*
X151186964Y-39443564D01*
X151067963Y-39507171D01*
X150963659Y-39592772D01*
X150878058Y-39697076D01*
X150814451Y-39816077D01*
X150775282Y-39945200D01*
X150762056Y-40079483D01*
X147139974Y-40079483D01*
X147126748Y-39945200D01*
X147087579Y-39816077D01*
X147023972Y-39697076D01*
X146938371Y-39592772D01*
X146834067Y-39507171D01*
X146715066Y-39443564D01*
X146585943Y-39404395D01*
X146485307Y-39394483D01*
X146451660Y-39391169D01*
X146418013Y-39394483D01*
X132487427Y-39394483D01*
X132453780Y-39391169D01*
X132420133Y-39394483D01*
X132319497Y-39404395D01*
X132190374Y-39443564D01*
X132071373Y-39507171D01*
X131967069Y-39592772D01*
X131881468Y-39697076D01*
X131817861Y-39816077D01*
X131778692Y-39945200D01*
X131765466Y-40079483D01*
X128132460Y-40079483D01*
X128132460Y-31113945D01*
X128135774Y-31080298D01*
X128122548Y-30946015D01*
X128083379Y-30816892D01*
X128019772Y-30697891D01*
X127934171Y-30593587D01*
X127829867Y-30507986D01*
X127710866Y-30444379D01*
X127581743Y-30405210D01*
X127481107Y-30395298D01*
X127447460Y-30391984D01*
X127413813Y-30395298D01*
X113483222Y-30395298D01*
X113449575Y-30391984D01*
X113415928Y-30395298D01*
X113315292Y-30405210D01*
X113186169Y-30444379D01*
X113067168Y-30507986D01*
X112962864Y-30593587D01*
X112877263Y-30697891D01*
X112813656Y-30816892D01*
X112774487Y-30946015D01*
X112761261Y-31080298D01*
X109133336Y-31080298D01*
X109133336Y-28624755D01*
X109136650Y-28591108D01*
X109123424Y-28456825D01*
X109084255Y-28327702D01*
X109020648Y-28208701D01*
X108935047Y-28104397D01*
X108830743Y-28018796D01*
X108711742Y-27955189D01*
X108582619Y-27916020D01*
X108481983Y-27906108D01*
X108448336Y-27902794D01*
X108414689Y-27906108D01*
X94484096Y-27906108D01*
X94450449Y-27902794D01*
X94416802Y-27906108D01*
X94316166Y-27916020D01*
X94187043Y-27955189D01*
X94068042Y-28018796D01*
X93963738Y-28104397D01*
X93878137Y-28208701D01*
X93814530Y-28327702D01*
X93775361Y-28456825D01*
X93762135Y-28591108D01*
X93365179Y-28591108D01*
X93364990Y-26817072D01*
X109995898Y-26817072D01*
X109995899Y-28600295D01*
G37*
X109995899Y-28600295D02*
X109992584Y-28633953D01*
X110005810Y-28768236D01*
X110044979Y-28897359D01*
X110108586Y-29016360D01*
X110194187Y-29120664D01*
X110298491Y-29206265D01*
X110417492Y-29269872D01*
X110546615Y-29309041D01*
X110647251Y-29318953D01*
X110680898Y-29322267D01*
X110714545Y-29318953D01*
X128995112Y-29318953D01*
X128995250Y-37599827D01*
X128991936Y-37633474D01*
X129005162Y-37767757D01*
X129044331Y-37896880D01*
X129107938Y-38015881D01*
X129193539Y-38120185D01*
X129193546Y-38120191D01*
X129193548Y-38120193D01*
X129216246Y-38138820D01*
X129297843Y-38205786D01*
X129297851Y-38205790D01*
X129297853Y-38205792D01*
X129328603Y-38222228D01*
X129416844Y-38269393D01*
X129416852Y-38269395D01*
X129416855Y-38269397D01*
X129454033Y-38280674D01*
X129545967Y-38308562D01*
X129545975Y-38308563D01*
X129545979Y-38308564D01*
X129583664Y-38312275D01*
X129646603Y-38318474D01*
X129646617Y-38318474D01*
X129680261Y-38321787D01*
X129713893Y-38318474D01*
X166995900Y-38318474D01*
X166995901Y-113104450D01*
X129591342Y-122947490D01*
X73201442Y-122947490D01*
X73155349Y-122944626D01*
X73100770Y-122951999D01*
X73045918Y-122957402D01*
X73033985Y-122961022D01*
X73021630Y-122962691D01*
X72969517Y-122980578D01*
X72916795Y-122996571D01*
X72876056Y-123018346D01*
X55454684Y-130983125D01*
X55453131Y-130983500D01*
X55393436Y-131011126D01*
X55364184Y-131024500D01*
X55362806Y-131025302D01*
X55361360Y-131025971D01*
X55333621Y-131042284D01*
X55276781Y-131075358D01*
X55275584Y-131076415D01*
X38926696Y-140691003D01*
X27728617Y-121382756D01*
X29402801Y-121382756D01*
X29407223Y-121517616D01*
X29437869Y-121649023D01*
X29479608Y-121741130D01*
X29493563Y-121771925D01*
X29513256Y-121799404D01*
X36479826Y-133864512D01*
X36493775Y-133895295D01*
X36513462Y-133922766D01*
X36513468Y-133922776D01*
X36572374Y-134004971D01*
X36670862Y-134097205D01*
X36785451Y-134168454D01*
X36832975Y-134186338D01*
X36911739Y-134215978D01*
X37018079Y-134233530D01*
X37044869Y-134237952D01*
X37044870Y-134237952D01*
X37179731Y-134233530D01*
X37311137Y-134202884D01*
X37403245Y-134161145D01*
X37403248Y-134161143D01*
X37434040Y-134147190D01*
X37461519Y-134127497D01*
X49526623Y-127160933D01*
X49557413Y-127146981D01*
X49584889Y-127127290D01*
X49584894Y-127127287D01*
X49667089Y-127068381D01*
X49759323Y-126969893D01*
X49759324Y-126969892D01*
X49830573Y-126855303D01*
X49878096Y-126729016D01*
X49900070Y-126595885D01*
X49895648Y-126461024D01*
X49865002Y-126329617D01*
X49823263Y-126237509D01*
X49823260Y-126237504D01*
X49809308Y-126206715D01*
X49789617Y-126179238D01*
X43494343Y-115276721D01*
X50683931Y-115276721D01*
X50683937Y-115276778D01*
X50683932Y-115276836D01*
X50691240Y-115344909D01*
X50698311Y-115410886D01*
X50698328Y-115410939D01*
X50698334Y-115410998D01*
X50719014Y-115477081D01*
X50738588Y-115539667D01*
X50754808Y-115569395D01*
X56199686Y-128395453D01*
X56209790Y-128427733D01*
X56234724Y-128473406D01*
X56274417Y-128546126D01*
X56274438Y-128546151D01*
X56274446Y-128546166D01*
X56308644Y-128587094D01*
X56360928Y-128649676D01*
X56360949Y-128649693D01*
X56360964Y-128649711D01*
X56409901Y-128689155D01*
X56465979Y-128734360D01*
X56466003Y-128734373D01*
X56466021Y-128734387D01*
X56522574Y-128763976D01*
X56585532Y-128796921D01*
X56585556Y-128796928D01*
X56585579Y-128796940D01*
X56655673Y-128817529D01*
X56714993Y-128834958D01*
X56715015Y-128834960D01*
X56715042Y-128834968D01*
X56783546Y-128841104D01*
X56849388Y-128847007D01*
X56849415Y-128847004D01*
X56849437Y-128847006D01*
X56912192Y-128840265D01*
X56983550Y-128832605D01*
X56983574Y-128832598D01*
X56983598Y-128832595D01*
X57049989Y-128811814D01*
X57112325Y-128792306D01*
X57142021Y-128776097D01*
X69965434Y-123331265D01*
X69997634Y-123321192D01*
X70027351Y-123304975D01*
X70027415Y-123304948D01*
X70062736Y-123285665D01*
X70116078Y-123256556D01*
X70116120Y-123256521D01*
X70116173Y-123256492D01*
X70171572Y-123210203D01*
X70219637Y-123170055D01*
X70219670Y-123170014D01*
X70219718Y-123169974D01*
X70265084Y-123113688D01*
X70304331Y-123065012D01*
X70304356Y-123064964D01*
X70304394Y-123064917D01*
X70336633Y-123003297D01*
X70366904Y-122945465D01*
X70366920Y-122945411D01*
X70366947Y-122945359D01*
X70385902Y-122880826D01*
X70404953Y-122816008D01*
X70404958Y-122815950D01*
X70404974Y-122815896D01*
X70410917Y-122749553D01*
X70417014Y-122681614D01*
X70417008Y-122681557D01*
X70417013Y-122681500D01*
X70410075Y-122616919D01*
X70402625Y-122547450D01*
X70402607Y-122547391D01*
X70402601Y-122547339D01*
X70383145Y-122485181D01*
X70372433Y-122450940D01*
X70372410Y-122450887D01*
X70362294Y-122418567D01*
X70346121Y-122388942D01*
X64903845Y-109565592D01*
X64893759Y-109533344D01*
X64877552Y-109503639D01*
X64877544Y-109503621D01*
X64864922Y-109480490D01*
X64829132Y-109414895D01*
X64829114Y-109414874D01*
X64829104Y-109414855D01*
X64790166Y-109368239D01*
X64742638Y-109311330D01*
X64742618Y-109311314D01*
X64742603Y-109311296D01*
X64695345Y-109273193D01*
X64637601Y-109226628D01*
X64637576Y-109226615D01*
X64637560Y-109226602D01*
X64583834Y-109198481D01*
X64518058Y-109164047D01*
X64518034Y-109164040D01*
X64518013Y-109164029D01*
X64455518Y-109145661D01*
X64388604Y-109125989D01*
X64388579Y-109125987D01*
X64388556Y-109125980D01*
X64325543Y-109120325D01*
X64254211Y-109113918D01*
X64254184Y-109113921D01*
X64254163Y-109113919D01*
X64193104Y-109120467D01*
X64120046Y-109128298D01*
X64120022Y-109128306D01*
X64119999Y-109128308D01*
X64056406Y-109148202D01*
X64023534Y-109158483D01*
X64023512Y-109158492D01*
X63991221Y-109168594D01*
X63961564Y-109184778D01*
X51135566Y-114627106D01*
X51103251Y-114637219D01*
X51047070Y-114667884D01*
X50984908Y-114701801D01*
X50984863Y-114701839D01*
X50984813Y-114701866D01*
X50931185Y-114746669D01*
X50881343Y-114788296D01*
X50881310Y-114788337D01*
X50881262Y-114788377D01*
X50837139Y-114843111D01*
X50796641Y-114893332D01*
X50796614Y-114893383D01*
X50796578Y-114893428D01*
X50765626Y-114952576D01*
X50734060Y-115012875D01*
X50734043Y-115012932D01*
X50734017Y-115012982D01*
X50715541Y-115075867D01*
X50696002Y-115142329D01*
X50695997Y-115142389D01*
X50695981Y-115142442D01*
X50690087Y-115208188D01*
X50683931Y-115276721D01*
X43494343Y-115276721D01*
X42823049Y-114114137D01*
X42809095Y-114083343D01*
X42755484Y-114008536D01*
X42730494Y-113973667D01*
X42632007Y-113881432D01*
X42517418Y-113810184D01*
X42391131Y-113762660D01*
X42257999Y-113740686D01*
X42123138Y-113745108D01*
X41991731Y-113775754D01*
X41899624Y-113817493D01*
X41899619Y-113817496D01*
X41868830Y-113831448D01*
X41841355Y-113851138D01*
X29776258Y-120817703D01*
X29745458Y-120831660D01*
X29652872Y-120898013D01*
X29635782Y-120910261D01*
X29543547Y-121008748D01*
X29472299Y-121123337D01*
X29424775Y-121249624D01*
X29414139Y-121314066D01*
X29402801Y-121382756D01*
X27728617Y-121382756D01*
X25115671Y-116877394D01*
X33015769Y-112228472D01*
X33062853Y-112203304D01*
X33099853Y-112172937D01*
X33138546Y-112144721D01*
X33151913Y-112130209D01*
X33167155Y-112117700D01*
X33197520Y-112080698D01*
X33229965Y-112045476D01*
X33240243Y-112028639D01*
X33252753Y-112013394D01*
X33275318Y-111971176D01*
X33300267Y-111930303D01*
X33307062Y-111911785D01*
X33316358Y-111894392D01*
X33330256Y-111848573D01*
X33346747Y-111803629D01*
X33349798Y-111784146D01*
X33355524Y-111765268D01*
X33360216Y-111717616D01*
X33367622Y-111670321D01*
X33365432Y-111616956D01*
X33365421Y-111132707D01*
X44116882Y-111132707D01*
X44116882Y-111651757D01*
X44218143Y-112160833D01*
X44416775Y-112640373D01*
X44705144Y-113071947D01*
X45072167Y-113438970D01*
X45503741Y-113727339D01*
X45983281Y-113925971D01*
X46492357Y-114027232D01*
X47011407Y-114027232D01*
X47520483Y-113925971D01*
X48000023Y-113727339D01*
X48431597Y-113438970D01*
X48798620Y-113071947D01*
X49086989Y-112640373D01*
X49285621Y-112160833D01*
X49386882Y-111651757D01*
X49386882Y-111132707D01*
X49285621Y-110623631D01*
X49086989Y-110144091D01*
X48798620Y-109712517D01*
X48431597Y-109345494D01*
X48000023Y-109057125D01*
X47520483Y-108858493D01*
X47011407Y-108757232D01*
X46492357Y-108757232D01*
X45983281Y-108858493D01*
X45503741Y-109057125D01*
X45072167Y-109345494D01*
X44705144Y-109712517D01*
X44416775Y-110144091D01*
X44218143Y-110623631D01*
X44116882Y-111132707D01*
X33365421Y-111132707D01*
X33365335Y-107379058D01*
X74763010Y-107379058D01*
X74766325Y-107412715D01*
X74766324Y-121345833D01*
X74763010Y-121379480D01*
X74776236Y-121513763D01*
X74815405Y-121642886D01*
X74879012Y-121761887D01*
X74964613Y-121866191D01*
X75025718Y-121916339D01*
X75068917Y-121951792D01*
X75187918Y-122015399D01*
X75317041Y-122054568D01*
X75451324Y-122067794D01*
X75484971Y-122064480D01*
X89415557Y-122064480D01*
X89449204Y-122067794D01*
X89583487Y-122054568D01*
X89712610Y-122015399D01*
X89831611Y-121951792D01*
X89935915Y-121866191D01*
X90021516Y-121761887D01*
X90085123Y-121642886D01*
X90124292Y-121513763D01*
X90134204Y-121413127D01*
X90134204Y-121413126D01*
X90137518Y-121379480D01*
X90134204Y-121345833D01*
X90134204Y-107412705D01*
X90137518Y-107379058D01*
X90124292Y-107244775D01*
X90085123Y-107115652D01*
X90021516Y-106996651D01*
X89935915Y-106892347D01*
X89831611Y-106806746D01*
X89712610Y-106743139D01*
X89583487Y-106703970D01*
X89482851Y-106694058D01*
X89449204Y-106690744D01*
X89415557Y-106694058D01*
X75484971Y-106694058D01*
X75451324Y-106690744D01*
X75417677Y-106694058D01*
X75317041Y-106703970D01*
X75187918Y-106743139D01*
X75068917Y-106806746D01*
X74964613Y-106892347D01*
X74879012Y-106996651D01*
X74815405Y-107115652D01*
X74776236Y-107244775D01*
X74763010Y-107379058D01*
X33365335Y-107379058D01*
X33364963Y-91257418D01*
X35479182Y-91257418D01*
X35482503Y-91291133D01*
X35484685Y-102823964D01*
X35481377Y-102857553D01*
X35484698Y-102891271D01*
X35484698Y-102891329D01*
X35487653Y-102921276D01*
X35494603Y-102991836D01*
X35494623Y-102991902D01*
X35494629Y-102991963D01*
X35513420Y-103053868D01*
X35533772Y-103120959D01*
X35533803Y-103121018D01*
X35533822Y-103121079D01*
X35564412Y-103178284D01*
X35597379Y-103239960D01*
X35597423Y-103240013D01*
X35597452Y-103240068D01*
X35636879Y-103288091D01*
X35682980Y-103344264D01*
X35683036Y-103344310D01*
X35683073Y-103344355D01*
X35730722Y-103383445D01*
X35787284Y-103429865D01*
X35787345Y-103429898D01*
X35787393Y-103429937D01*
X35842981Y-103459636D01*
X35906285Y-103493472D01*
X35906353Y-103493493D01*
X35906406Y-103493521D01*
X35967181Y-103511945D01*
X36035408Y-103532641D01*
X36035475Y-103532648D01*
X36035536Y-103532666D01*
X36099028Y-103538907D01*
X36136044Y-103542553D01*
X36136117Y-103542553D01*
X36169821Y-103545866D01*
X36203394Y-103542553D01*
X48137496Y-103542553D01*
X48171143Y-103545867D01*
X48305426Y-103532641D01*
X48434549Y-103493472D01*
X48553550Y-103429865D01*
X48657854Y-103344264D01*
X48743455Y-103239960D01*
X48807062Y-103120959D01*
X48846231Y-102991836D01*
X48856143Y-102891200D01*
X48859457Y-102857553D01*
X48856143Y-102823906D01*
X48856143Y-91291065D01*
X48859457Y-91257418D01*
X48846231Y-91123135D01*
X48807062Y-90994012D01*
X48743455Y-90875011D01*
X48657854Y-90770707D01*
X48553550Y-90685106D01*
X48434549Y-90621499D01*
X48305426Y-90582330D01*
X48204790Y-90572418D01*
X48171143Y-90569104D01*
X48137496Y-90572418D01*
X36201070Y-90572418D01*
X36167366Y-90569105D01*
X36104742Y-90575285D01*
X36033213Y-90582330D01*
X36033147Y-90582350D01*
X36033086Y-90582356D01*
X35971181Y-90601147D01*
X35904090Y-90621499D01*
X35904031Y-90621530D01*
X35903970Y-90621549D01*
X35846765Y-90652139D01*
X35785089Y-90685106D01*
X35785036Y-90685150D01*
X35784981Y-90685179D01*
X35735768Y-90725583D01*
X35680785Y-90770707D01*
X35680741Y-90770761D01*
X35680693Y-90770800D01*
X35640200Y-90820159D01*
X35595184Y-90875011D01*
X35595151Y-90875072D01*
X35595112Y-90875120D01*
X35565413Y-90930708D01*
X35531577Y-90994012D01*
X35531556Y-90994080D01*
X35531528Y-90994133D01*
X35513104Y-91054908D01*
X35492408Y-91123135D01*
X35492401Y-91123202D01*
X35492383Y-91123263D01*
X35485993Y-91188265D01*
X35479182Y-91257418D01*
X33364963Y-91257418D01*
X33364917Y-89270695D01*
X53545604Y-89270695D01*
X53579269Y-89274008D01*
X53632614Y-89268749D01*
X53713497Y-89260783D01*
X53713530Y-89260773D01*
X53713551Y-89260771D01*
X53765397Y-89245039D01*
X53842620Y-89221614D01*
X53842648Y-89221599D01*
X53842671Y-89221592D01*
X53892062Y-89195187D01*
X53961621Y-89158007D01*
X53961647Y-89157986D01*
X53961667Y-89157975D01*
X54005311Y-89122151D01*
X54065925Y-89072406D01*
X54065945Y-89072382D01*
X54065964Y-89072366D01*
X54104402Y-89025522D01*
X54151526Y-88968102D01*
X54151540Y-88968076D01*
X54151557Y-88968055D01*
X54181056Y-88912854D01*
X54215133Y-88849101D01*
X54215142Y-88849072D01*
X54215154Y-88849049D01*
X54231909Y-88793797D01*
X54254302Y-88719978D01*
X54254305Y-88719944D01*
X54254312Y-88719922D01*
X54259886Y-88663280D01*
X54267528Y-88585695D01*
X54264211Y-88552013D01*
X54262842Y-71679499D01*
X55763885Y-71679499D01*
X55767200Y-71713156D01*
X55767199Y-85646278D01*
X55763885Y-85679925D01*
X55777111Y-85814208D01*
X55816280Y-85943331D01*
X55879887Y-86062332D01*
X55965488Y-86166636D01*
X56069792Y-86252237D01*
X56188793Y-86315844D01*
X56317916Y-86355013D01*
X56452199Y-86368239D01*
X56485846Y-86364925D01*
X70252760Y-86364925D01*
X70205095Y-86412590D01*
X69916726Y-86844164D01*
X69718094Y-87323704D01*
X69616833Y-87832780D01*
X69616833Y-88351830D01*
X69718094Y-88860906D01*
X69916726Y-89340446D01*
X70205095Y-89772020D01*
X70428091Y-89995016D01*
X70416432Y-89996164D01*
X56485846Y-89996164D01*
X56452199Y-89992850D01*
X56418552Y-89996164D01*
X56317916Y-90006076D01*
X56188793Y-90045245D01*
X56069792Y-90108852D01*
X55965488Y-90194453D01*
X55879887Y-90298757D01*
X55816280Y-90417758D01*
X55777111Y-90546881D01*
X55763885Y-90681164D01*
X55767200Y-90714821D01*
X55767199Y-104647943D01*
X55763885Y-104681590D01*
X55777111Y-104815873D01*
X55816280Y-104944996D01*
X55879887Y-105063997D01*
X55965488Y-105168301D01*
X56069792Y-105253902D01*
X56188793Y-105317509D01*
X56317916Y-105356678D01*
X56452199Y-105369904D01*
X56485846Y-105366590D01*
X70416432Y-105366590D01*
X70450079Y-105369904D01*
X70584362Y-105356678D01*
X70713485Y-105317509D01*
X70832486Y-105253902D01*
X70936790Y-105168301D01*
X71022391Y-105063997D01*
X71085998Y-104944996D01*
X71125167Y-104815873D01*
X71128636Y-104780648D01*
X93762135Y-104780648D01*
X93765450Y-104814305D01*
X93765449Y-118747426D01*
X93762135Y-118781073D01*
X93775361Y-118915356D01*
X93814530Y-119044479D01*
X93878137Y-119163480D01*
X93963738Y-119267784D01*
X94068042Y-119353385D01*
X94187043Y-119416992D01*
X94316166Y-119456161D01*
X94450449Y-119469387D01*
X94484096Y-119466073D01*
X108414682Y-119466073D01*
X108448329Y-119469387D01*
X108582612Y-119456161D01*
X108711735Y-119416992D01*
X108830736Y-119353385D01*
X108935040Y-119267784D01*
X109020641Y-119163480D01*
X109084248Y-119044479D01*
X109123417Y-118915356D01*
X109133329Y-118814720D01*
X109133329Y-118814719D01*
X109136643Y-118781073D01*
X109133329Y-118747426D01*
X109133329Y-107279998D01*
X112761261Y-107279998D01*
X112764576Y-107313655D01*
X112764575Y-121246773D01*
X112761261Y-121280420D01*
X112774487Y-121414703D01*
X112813656Y-121543826D01*
X112877263Y-121662827D01*
X112962864Y-121767131D01*
X113067168Y-121852732D01*
X113186169Y-121916339D01*
X113315292Y-121955508D01*
X113449575Y-121968734D01*
X113483222Y-121965420D01*
X127413813Y-121965420D01*
X127447460Y-121968734D01*
X127581743Y-121955508D01*
X127710866Y-121916339D01*
X127829867Y-121852732D01*
X127934171Y-121767131D01*
X128019772Y-121662827D01*
X128083379Y-121543826D01*
X128122548Y-121414703D01*
X128132460Y-121314067D01*
X128132460Y-121314066D01*
X128135774Y-121280420D01*
X128132460Y-121246773D01*
X128132460Y-107313645D01*
X128135774Y-107279998D01*
X128122548Y-107145715D01*
X128083379Y-107016592D01*
X128019772Y-106897591D01*
X127934171Y-106793287D01*
X127829867Y-106707686D01*
X127710866Y-106644079D01*
X127581743Y-106604910D01*
X127481107Y-106594998D01*
X127447460Y-106591684D01*
X127413813Y-106594998D01*
X113483222Y-106594998D01*
X113449575Y-106591684D01*
X113415928Y-106594998D01*
X113315292Y-106604910D01*
X113186169Y-106644079D01*
X113067168Y-106707686D01*
X112962864Y-106793287D01*
X112877263Y-106897591D01*
X112813656Y-107016592D01*
X112774487Y-107145715D01*
X112761261Y-107279998D01*
X109133329Y-107279998D01*
X109133329Y-104814295D01*
X109136643Y-104780648D01*
X109123417Y-104646365D01*
X109084248Y-104517242D01*
X109020641Y-104398241D01*
X108935040Y-104293937D01*
X108830736Y-104208336D01*
X108711735Y-104144729D01*
X108582612Y-104105560D01*
X108481976Y-104095648D01*
X108448329Y-104092334D01*
X108414682Y-104095648D01*
X94484096Y-104095648D01*
X94450449Y-104092334D01*
X94416802Y-104095648D01*
X94316166Y-104105560D01*
X94187043Y-104144729D01*
X94068042Y-104208336D01*
X93963738Y-104293937D01*
X93878137Y-104398241D01*
X93814530Y-104517242D01*
X93775361Y-104646365D01*
X93762135Y-104780648D01*
X71128636Y-104780648D01*
X71135079Y-104715237D01*
X71135079Y-104715236D01*
X71138393Y-104681590D01*
X71135079Y-104647943D01*
X71135079Y-90714811D01*
X71138393Y-90681164D01*
X71125167Y-90546881D01*
X71101175Y-90467791D01*
X71483232Y-90626044D01*
X71992308Y-90727305D01*
X72511358Y-90727305D01*
X73020434Y-90626044D01*
X73499974Y-90427412D01*
X73931548Y-90139043D01*
X74298571Y-89772020D01*
X74586940Y-89340446D01*
X74766325Y-88907372D01*
X74766324Y-102247651D01*
X74763010Y-102281298D01*
X74776236Y-102415581D01*
X74815405Y-102544704D01*
X74879012Y-102663705D01*
X74964613Y-102768009D01*
X75068916Y-102853609D01*
X75068917Y-102853610D01*
X75187918Y-102917217D01*
X75317041Y-102956386D01*
X75451324Y-102969612D01*
X75484971Y-102966298D01*
X89415557Y-102966298D01*
X89449204Y-102969612D01*
X89583487Y-102956386D01*
X89712610Y-102917217D01*
X89831611Y-102853610D01*
X89935915Y-102768009D01*
X90021516Y-102663705D01*
X90085123Y-102544704D01*
X90124292Y-102415581D01*
X90134204Y-102314945D01*
X90134204Y-102314943D01*
X90137518Y-102281298D01*
X90134204Y-102247651D01*
X90134204Y-88314520D01*
X90137518Y-88280873D01*
X90124292Y-88146590D01*
X90085123Y-88017467D01*
X90021516Y-87898466D01*
X89935915Y-87794162D01*
X89831611Y-87708561D01*
X89712610Y-87644954D01*
X89583487Y-87605785D01*
X89482851Y-87595873D01*
X89449204Y-87592559D01*
X89415557Y-87595873D01*
X75484971Y-87595873D01*
X75451324Y-87592559D01*
X75417677Y-87595873D01*
X75317041Y-87605785D01*
X75187918Y-87644954D01*
X75068917Y-87708561D01*
X74964613Y-87794162D01*
X74886833Y-87888936D01*
X74886833Y-87832780D01*
X74785572Y-87323704D01*
X74586940Y-86844164D01*
X74298571Y-86412590D01*
X73931548Y-86045567D01*
X73532578Y-85778983D01*
X93762135Y-85778983D01*
X93765450Y-85812640D01*
X93765449Y-99745761D01*
X93762135Y-99779408D01*
X93775361Y-99913691D01*
X93814530Y-100042814D01*
X93878137Y-100161815D01*
X93963738Y-100266119D01*
X94068042Y-100351720D01*
X94187043Y-100415327D01*
X94316166Y-100454496D01*
X94450449Y-100467722D01*
X94484096Y-100464408D01*
X108414682Y-100464408D01*
X108448329Y-100467722D01*
X108582612Y-100454496D01*
X108711735Y-100415327D01*
X108830736Y-100351720D01*
X108935040Y-100266119D01*
X109020641Y-100161815D01*
X109084248Y-100042814D01*
X109123417Y-99913691D01*
X109133329Y-99813055D01*
X109133329Y-99813054D01*
X109136643Y-99779408D01*
X109133329Y-99745761D01*
X109133329Y-88280873D01*
X112761261Y-88280873D01*
X112764576Y-88314530D01*
X112764575Y-102247650D01*
X112761261Y-102281297D01*
X112774487Y-102415580D01*
X112813656Y-102544703D01*
X112877263Y-102663704D01*
X112962864Y-102768008D01*
X113067168Y-102853609D01*
X113186169Y-102917216D01*
X113315292Y-102956385D01*
X113449575Y-102969611D01*
X113483222Y-102966297D01*
X127413803Y-102966297D01*
X127447450Y-102969611D01*
X127581733Y-102956385D01*
X127710856Y-102917216D01*
X127829857Y-102853609D01*
X127934161Y-102768008D01*
X128019762Y-102663704D01*
X128083369Y-102544703D01*
X128122538Y-102415580D01*
X128132450Y-102314944D01*
X128132450Y-102314943D01*
X128135764Y-102281297D01*
X128132450Y-102247650D01*
X128132450Y-97180998D01*
X131762926Y-97180998D01*
X131766241Y-97214655D01*
X131766240Y-111147775D01*
X131762926Y-111181422D01*
X131776152Y-111315705D01*
X131815321Y-111444828D01*
X131878928Y-111563829D01*
X131964529Y-111668133D01*
X132068833Y-111753734D01*
X132187834Y-111817341D01*
X132316957Y-111856510D01*
X132451240Y-111869736D01*
X132484887Y-111866422D01*
X146415473Y-111866422D01*
X146449120Y-111869736D01*
X146583403Y-111856510D01*
X146712526Y-111817341D01*
X146831527Y-111753734D01*
X146935831Y-111668133D01*
X147021432Y-111563829D01*
X147085039Y-111444828D01*
X147124208Y-111315705D01*
X147134120Y-111215069D01*
X147134120Y-111215068D01*
X147137434Y-111181422D01*
X147134120Y-111147775D01*
X147134120Y-97214645D01*
X147137348Y-97181873D01*
X147502139Y-97425619D01*
X147981679Y-97624251D01*
X148490755Y-97725512D01*
X149009805Y-97725512D01*
X149518881Y-97624251D01*
X149998421Y-97425619D01*
X150364521Y-97180998D01*
X150812846Y-97180998D01*
X150816161Y-97214655D01*
X150816160Y-111147775D01*
X150812846Y-111181422D01*
X150826072Y-111315705D01*
X150865241Y-111444828D01*
X150928848Y-111563829D01*
X151014449Y-111668133D01*
X151118753Y-111753734D01*
X151237754Y-111817341D01*
X151366877Y-111856510D01*
X151501160Y-111869736D01*
X151534807Y-111866422D01*
X165465393Y-111866422D01*
X165499040Y-111869736D01*
X165633323Y-111856510D01*
X165762446Y-111817341D01*
X165881447Y-111753734D01*
X165985751Y-111668133D01*
X166071352Y-111563829D01*
X166134959Y-111444828D01*
X166174128Y-111315705D01*
X166184040Y-111215069D01*
X166184040Y-111215068D01*
X166187354Y-111181422D01*
X166184040Y-111147775D01*
X166184040Y-97214645D01*
X166187354Y-97180998D01*
X166174128Y-97046715D01*
X166134959Y-96917592D01*
X166071352Y-96798591D01*
X165985751Y-96694287D01*
X165881447Y-96608686D01*
X165762446Y-96545079D01*
X165633323Y-96505910D01*
X165532687Y-96495998D01*
X165499040Y-96492684D01*
X165465393Y-96495998D01*
X151534807Y-96495998D01*
X151501160Y-96492684D01*
X151467513Y-96495998D01*
X151366877Y-96505910D01*
X151237754Y-96545079D01*
X151118753Y-96608686D01*
X151014449Y-96694287D01*
X150928848Y-96798591D01*
X150865241Y-96917592D01*
X150826072Y-97046715D01*
X150812846Y-97180998D01*
X150364521Y-97180998D01*
X150429995Y-97137250D01*
X150797018Y-96770227D01*
X151085387Y-96338653D01*
X151284019Y-95859113D01*
X151385280Y-95350037D01*
X151385280Y-94830987D01*
X151284019Y-94321911D01*
X151085387Y-93842371D01*
X150797018Y-93410797D01*
X150429995Y-93043774D01*
X149998421Y-92755405D01*
X149518881Y-92556773D01*
X149009805Y-92455512D01*
X148490755Y-92455512D01*
X147981679Y-92556773D01*
X147502139Y-92755405D01*
X147070565Y-93043774D01*
X146703542Y-93410797D01*
X146415173Y-93842371D01*
X146216541Y-94321911D01*
X146115280Y-94830987D01*
X146115280Y-95350037D01*
X146216541Y-95859113D01*
X146415173Y-96338653D01*
X146522952Y-96499956D01*
X146482767Y-96495998D01*
X146449120Y-96492684D01*
X146415473Y-96495998D01*
X132484887Y-96495998D01*
X132451240Y-96492684D01*
X132417593Y-96495998D01*
X132316957Y-96505910D01*
X132187834Y-96545079D01*
X132068833Y-96608686D01*
X131964529Y-96694287D01*
X131878928Y-96798591D01*
X131815321Y-96917592D01*
X131776152Y-97046715D01*
X131762926Y-97180998D01*
X128132450Y-97180998D01*
X128132450Y-88314520D01*
X128135764Y-88280873D01*
X128122538Y-88146590D01*
X128083369Y-88017467D01*
X128019762Y-87898466D01*
X127934161Y-87794162D01*
X127829857Y-87708561D01*
X127710856Y-87644954D01*
X127581733Y-87605785D01*
X127481097Y-87595873D01*
X127447450Y-87592559D01*
X127413803Y-87595873D01*
X113483222Y-87595873D01*
X113449575Y-87592559D01*
X113415928Y-87595873D01*
X113315292Y-87605785D01*
X113186169Y-87644954D01*
X113067168Y-87708561D01*
X112962864Y-87794162D01*
X112877263Y-87898466D01*
X112813656Y-88017467D01*
X112774487Y-88146590D01*
X112761261Y-88280873D01*
X109133329Y-88280873D01*
X109133329Y-85812630D01*
X109136643Y-85778983D01*
X109123417Y-85644700D01*
X109084248Y-85515577D01*
X109020641Y-85396576D01*
X108935040Y-85292272D01*
X108830736Y-85206671D01*
X108711735Y-85143064D01*
X108582612Y-85103895D01*
X108481976Y-85093983D01*
X108448329Y-85090669D01*
X108414682Y-85093983D01*
X94484096Y-85093983D01*
X94450449Y-85090669D01*
X94416802Y-85093983D01*
X94316166Y-85103895D01*
X94187043Y-85143064D01*
X94068042Y-85206671D01*
X93963738Y-85292272D01*
X93878137Y-85396576D01*
X93814530Y-85515577D01*
X93775361Y-85644700D01*
X93762135Y-85778983D01*
X73532578Y-85778983D01*
X73499974Y-85757198D01*
X73020434Y-85558566D01*
X72511358Y-85457305D01*
X71992308Y-85457305D01*
X71483232Y-85558566D01*
X71136189Y-85702316D01*
X71138394Y-85679925D01*
X71135080Y-85646278D01*
X71135080Y-71713146D01*
X71138394Y-71679499D01*
X71125168Y-71545216D01*
X71085999Y-71416093D01*
X71022392Y-71297092D01*
X70936791Y-71192788D01*
X70832487Y-71107187D01*
X70713486Y-71043580D01*
X70584363Y-71004411D01*
X70483727Y-70994499D01*
X70450080Y-70991185D01*
X70416433Y-70994499D01*
X56485846Y-70994499D01*
X56452199Y-70991185D01*
X56418552Y-70994499D01*
X56317916Y-71004411D01*
X56188793Y-71043580D01*
X56069792Y-71107187D01*
X55965488Y-71192788D01*
X55879887Y-71297092D01*
X55816280Y-71416093D01*
X55777111Y-71545216D01*
X55763885Y-71679499D01*
X54262842Y-71679499D01*
X54262640Y-69180148D01*
X74763010Y-69180148D01*
X74766325Y-69213805D01*
X74766324Y-83146927D01*
X74763010Y-83180574D01*
X74776236Y-83314857D01*
X74815405Y-83443980D01*
X74879012Y-83562981D01*
X74964613Y-83667285D01*
X75068916Y-83752885D01*
X75068917Y-83752886D01*
X75187918Y-83816493D01*
X75317041Y-83855662D01*
X75451324Y-83868888D01*
X75484971Y-83865574D01*
X89415558Y-83865574D01*
X89449205Y-83868888D01*
X89583488Y-83855662D01*
X89712611Y-83816493D01*
X89831612Y-83752886D01*
X89935916Y-83667285D01*
X90021517Y-83562981D01*
X90085124Y-83443980D01*
X90124293Y-83314857D01*
X90134205Y-83214221D01*
X90134205Y-83214219D01*
X90137519Y-83180574D01*
X90134205Y-83146927D01*
X90134205Y-69213795D01*
X90137519Y-69180148D01*
X90124293Y-69045865D01*
X90085124Y-68916742D01*
X90021517Y-68797741D01*
X89935916Y-68693437D01*
X89831612Y-68607836D01*
X89712611Y-68544229D01*
X89583488Y-68505060D01*
X89482852Y-68495148D01*
X89449205Y-68491834D01*
X89415558Y-68495148D01*
X75484971Y-68495148D01*
X75451324Y-68491834D01*
X75417677Y-68495148D01*
X75317041Y-68505060D01*
X75187918Y-68544229D01*
X75068917Y-68607836D01*
X74964613Y-68693437D01*
X74879012Y-68797741D01*
X74815405Y-68916742D01*
X74776236Y-69045865D01*
X74763010Y-69180148D01*
X54262640Y-69180148D01*
X54259748Y-33579649D01*
X55763883Y-33579649D01*
X55767198Y-33613306D01*
X55767197Y-47546426D01*
X55763883Y-47580073D01*
X55777109Y-47714356D01*
X55816278Y-47843479D01*
X55879885Y-47962480D01*
X55965486Y-48066784D01*
X56047432Y-48134036D01*
X56069790Y-48152385D01*
X56188791Y-48215992D01*
X56317914Y-48255161D01*
X56452197Y-48268387D01*
X56485844Y-48265073D01*
X70416437Y-48265073D01*
X70437714Y-48267169D01*
X70203824Y-48501059D01*
X69915455Y-48932633D01*
X69716823Y-49412173D01*
X69615562Y-49921249D01*
X69615562Y-50440299D01*
X69716823Y-50949375D01*
X69915455Y-51428915D01*
X70203824Y-51860489D01*
X70338708Y-51995373D01*
X56485846Y-51995373D01*
X56452199Y-51992059D01*
X56418552Y-51995373D01*
X56317916Y-52005285D01*
X56188793Y-52044454D01*
X56069792Y-52108061D01*
X55965488Y-52193662D01*
X55879887Y-52297966D01*
X55816280Y-52416967D01*
X55777111Y-52546090D01*
X55763885Y-52680373D01*
X55767200Y-52714030D01*
X55767199Y-66647151D01*
X55763885Y-66680798D01*
X55777111Y-66815081D01*
X55816280Y-66944204D01*
X55879887Y-67063205D01*
X55965488Y-67167509D01*
X56069792Y-67253110D01*
X56188793Y-67316717D01*
X56317916Y-67355886D01*
X56452199Y-67369112D01*
X56485846Y-67365798D01*
X70416432Y-67365798D01*
X70450079Y-67369112D01*
X70584362Y-67355886D01*
X70713485Y-67316717D01*
X70832486Y-67253110D01*
X70936790Y-67167509D01*
X71022391Y-67063205D01*
X71085998Y-66944204D01*
X71125167Y-66815081D01*
X71128636Y-66779858D01*
X93762135Y-66779858D01*
X93765450Y-66813515D01*
X93765449Y-80746636D01*
X93762135Y-80780283D01*
X93775361Y-80914566D01*
X93814530Y-81043689D01*
X93878137Y-81162690D01*
X93963738Y-81266994D01*
X94068042Y-81352595D01*
X94187043Y-81416202D01*
X94316166Y-81455371D01*
X94450449Y-81468597D01*
X94484096Y-81465283D01*
X108414682Y-81465283D01*
X108448329Y-81468597D01*
X108582612Y-81455371D01*
X108711735Y-81416202D01*
X108830736Y-81352595D01*
X108935040Y-81266994D01*
X109020641Y-81162690D01*
X109084248Y-81043689D01*
X109123417Y-80914566D01*
X109133329Y-80813930D01*
X109133329Y-80813929D01*
X109136643Y-80780283D01*
X109133329Y-80746636D01*
X109133329Y-69180148D01*
X112761261Y-69180148D01*
X112764576Y-69213805D01*
X112764575Y-83146926D01*
X112761261Y-83180573D01*
X112774487Y-83314856D01*
X112813656Y-83443979D01*
X112877263Y-83562980D01*
X112962864Y-83667284D01*
X113067168Y-83752885D01*
X113186169Y-83816492D01*
X113315292Y-83855661D01*
X113449575Y-83868887D01*
X113483222Y-83865573D01*
X127413803Y-83865573D01*
X127447450Y-83868887D01*
X127581733Y-83855661D01*
X127710856Y-83816492D01*
X127829857Y-83752885D01*
X127934161Y-83667284D01*
X128019762Y-83562980D01*
X128083369Y-83443979D01*
X128122538Y-83314856D01*
X128132450Y-83214220D01*
X128132450Y-83214219D01*
X128135764Y-83180573D01*
X128132450Y-83146926D01*
X128132450Y-78179333D01*
X131762926Y-78179333D01*
X131766241Y-78212990D01*
X131766240Y-92146110D01*
X131762926Y-92179757D01*
X131776152Y-92314040D01*
X131815321Y-92443163D01*
X131878928Y-92562164D01*
X131964529Y-92666468D01*
X132068833Y-92752069D01*
X132187834Y-92815676D01*
X132316957Y-92854845D01*
X132451240Y-92868071D01*
X132484887Y-92864757D01*
X146415473Y-92864757D01*
X146449120Y-92868071D01*
X146583403Y-92854845D01*
X146712526Y-92815676D01*
X146831527Y-92752069D01*
X146935831Y-92666468D01*
X147021432Y-92562164D01*
X147085039Y-92443163D01*
X147124208Y-92314040D01*
X147134120Y-92213404D01*
X147134120Y-92213403D01*
X147137434Y-92179757D01*
X147134120Y-92146110D01*
X147134120Y-78212980D01*
X147137434Y-78179333D01*
X150762056Y-78179333D01*
X150765371Y-78212990D01*
X150765370Y-92146110D01*
X150762056Y-92179757D01*
X150775282Y-92314040D01*
X150814451Y-92443163D01*
X150878058Y-92562164D01*
X150963659Y-92666468D01*
X151067963Y-92752069D01*
X151186964Y-92815676D01*
X151316087Y-92854845D01*
X151450370Y-92868071D01*
X151484017Y-92864757D01*
X165414603Y-92864757D01*
X165448250Y-92868071D01*
X165582533Y-92854845D01*
X165711656Y-92815676D01*
X165830657Y-92752069D01*
X165934961Y-92666468D01*
X166020562Y-92562164D01*
X166084169Y-92443163D01*
X166123338Y-92314040D01*
X166133250Y-92213404D01*
X166133250Y-92213403D01*
X166136564Y-92179757D01*
X166133250Y-92146110D01*
X166133250Y-78212980D01*
X166136564Y-78179333D01*
X166123338Y-78045050D01*
X166084169Y-77915927D01*
X166020562Y-77796926D01*
X165934961Y-77692622D01*
X165830657Y-77607021D01*
X165711656Y-77543414D01*
X165582533Y-77504245D01*
X165481897Y-77494333D01*
X165448250Y-77491019D01*
X165414603Y-77494333D01*
X151484017Y-77494333D01*
X151450370Y-77491019D01*
X151416723Y-77494333D01*
X151316087Y-77504245D01*
X151186964Y-77543414D01*
X151067963Y-77607021D01*
X150963659Y-77692622D01*
X150878058Y-77796926D01*
X150814451Y-77915927D01*
X150775282Y-78045050D01*
X150762056Y-78179333D01*
X147137434Y-78179333D01*
X147124208Y-78045050D01*
X147085039Y-77915927D01*
X147021432Y-77796926D01*
X146935831Y-77692622D01*
X146831527Y-77607021D01*
X146712526Y-77543414D01*
X146583403Y-77504245D01*
X146482767Y-77494333D01*
X146449120Y-77491019D01*
X146415473Y-77494333D01*
X132484887Y-77494333D01*
X132451240Y-77491019D01*
X132417593Y-77494333D01*
X132316957Y-77504245D01*
X132187834Y-77543414D01*
X132068833Y-77607021D01*
X131964529Y-77692622D01*
X131878928Y-77796926D01*
X131815321Y-77915927D01*
X131776152Y-78045050D01*
X131762926Y-78179333D01*
X128132450Y-78179333D01*
X128132450Y-69213795D01*
X128135764Y-69180148D01*
X128122538Y-69045865D01*
X128083369Y-68916742D01*
X128019762Y-68797741D01*
X127934161Y-68693437D01*
X127829857Y-68607836D01*
X127710856Y-68544229D01*
X127581733Y-68505060D01*
X127481097Y-68495148D01*
X127447450Y-68491834D01*
X127413803Y-68495148D01*
X113483222Y-68495148D01*
X113449575Y-68491834D01*
X113415928Y-68495148D01*
X113315292Y-68505060D01*
X113186169Y-68544229D01*
X113067168Y-68607836D01*
X112962864Y-68693437D01*
X112877263Y-68797741D01*
X112813656Y-68916742D01*
X112774487Y-69045865D01*
X112761261Y-69180148D01*
X109133329Y-69180148D01*
X109133329Y-66813505D01*
X109136643Y-66779858D01*
X109123417Y-66645575D01*
X109084248Y-66516452D01*
X109020641Y-66397451D01*
X108935040Y-66293147D01*
X108830736Y-66207546D01*
X108711735Y-66143939D01*
X108582612Y-66104770D01*
X108481976Y-66094858D01*
X108448329Y-66091544D01*
X108414682Y-66094858D01*
X94484096Y-66094858D01*
X94450449Y-66091544D01*
X94416802Y-66094858D01*
X94316166Y-66104770D01*
X94187043Y-66143939D01*
X94068042Y-66207546D01*
X93963738Y-66293147D01*
X93878137Y-66397451D01*
X93814530Y-66516452D01*
X93775361Y-66645575D01*
X93762135Y-66779858D01*
X71128636Y-66779858D01*
X71135079Y-66714445D01*
X71135079Y-66714444D01*
X71138393Y-66680798D01*
X71135079Y-66647151D01*
X71135079Y-52714020D01*
X71138393Y-52680373D01*
X71127286Y-52567602D01*
X71481961Y-52714513D01*
X71991037Y-52815774D01*
X72510087Y-52815774D01*
X73019163Y-52714513D01*
X73498703Y-52515881D01*
X73930277Y-52227512D01*
X74297300Y-51860489D01*
X74585669Y-51428915D01*
X74768870Y-50986629D01*
X74768869Y-64147801D01*
X74765555Y-64181448D01*
X74778781Y-64315731D01*
X74817950Y-64444854D01*
X74881557Y-64563855D01*
X74967158Y-64668159D01*
X75071462Y-64753760D01*
X75190463Y-64817367D01*
X75319586Y-64856536D01*
X75453869Y-64869762D01*
X75487516Y-64866448D01*
X89418102Y-64866448D01*
X89451749Y-64869762D01*
X89586032Y-64856536D01*
X89715155Y-64817367D01*
X89834156Y-64753760D01*
X89938460Y-64668159D01*
X90024061Y-64563855D01*
X90087668Y-64444854D01*
X90126837Y-64315731D01*
X90136749Y-64215095D01*
X90136749Y-64215094D01*
X90140063Y-64181448D01*
X90136749Y-64147801D01*
X90136749Y-50214670D01*
X90140063Y-50181023D01*
X90126837Y-50046740D01*
X90087668Y-49917617D01*
X90024061Y-49798616D01*
X89938460Y-49694312D01*
X89834156Y-49608711D01*
X89715155Y-49545104D01*
X89586032Y-49505935D01*
X89485396Y-49496023D01*
X89451749Y-49492709D01*
X89418102Y-49496023D01*
X75487516Y-49496023D01*
X75453869Y-49492709D01*
X75420222Y-49496023D01*
X75319586Y-49505935D01*
X75190463Y-49545104D01*
X75071462Y-49608711D01*
X74967158Y-49694312D01*
X74881557Y-49798616D01*
X74866698Y-49826415D01*
X74784301Y-49412173D01*
X74585669Y-48932633D01*
X74297300Y-48501059D01*
X73930277Y-48134036D01*
X73498703Y-47845667D01*
X73096655Y-47679133D01*
X93762135Y-47679133D01*
X93765450Y-47712790D01*
X93765449Y-61645911D01*
X93762135Y-61679558D01*
X93775361Y-61813841D01*
X93814530Y-61942964D01*
X93878137Y-62061965D01*
X93963738Y-62166269D01*
X94068042Y-62251870D01*
X94187043Y-62315477D01*
X94316166Y-62354646D01*
X94450449Y-62367872D01*
X94484096Y-62364558D01*
X108414682Y-62364558D01*
X108448329Y-62367872D01*
X108582612Y-62354646D01*
X108711735Y-62315477D01*
X108830736Y-62251870D01*
X108935040Y-62166269D01*
X109020641Y-62061965D01*
X109084248Y-61942964D01*
X109123417Y-61813841D01*
X109133329Y-61713205D01*
X109133329Y-61713204D01*
X109136643Y-61679558D01*
X109133329Y-61645911D01*
X109133329Y-50079424D01*
X112761261Y-50079424D01*
X112764576Y-50113081D01*
X112764575Y-64046202D01*
X112761261Y-64079849D01*
X112774487Y-64214132D01*
X112813656Y-64343255D01*
X112877263Y-64462256D01*
X112962864Y-64566560D01*
X113067168Y-64652161D01*
X113186169Y-64715768D01*
X113315292Y-64754937D01*
X113449575Y-64768163D01*
X113483222Y-64764849D01*
X127413803Y-64764849D01*
X127447450Y-64768163D01*
X127581733Y-64754937D01*
X127710856Y-64715768D01*
X127829857Y-64652161D01*
X127934161Y-64566560D01*
X128019762Y-64462256D01*
X128083369Y-64343255D01*
X128122538Y-64214132D01*
X128132450Y-64113496D01*
X128132450Y-64113495D01*
X128135764Y-64079849D01*
X128132450Y-64046202D01*
X128132450Y-58979549D01*
X131762926Y-58979549D01*
X131766241Y-59013206D01*
X131766240Y-72946326D01*
X131762926Y-72979973D01*
X131776152Y-73114256D01*
X131815321Y-73243379D01*
X131878928Y-73362380D01*
X131964529Y-73466684D01*
X132068833Y-73552285D01*
X132187834Y-73615892D01*
X132316957Y-73655061D01*
X132451240Y-73668287D01*
X132484887Y-73664973D01*
X146415473Y-73664973D01*
X146449120Y-73668287D01*
X146583403Y-73655061D01*
X146712526Y-73615892D01*
X146831527Y-73552285D01*
X146935831Y-73466684D01*
X147021432Y-73362380D01*
X147085039Y-73243379D01*
X147124208Y-73114256D01*
X147134120Y-73013620D01*
X147134120Y-73013619D01*
X147137434Y-72979973D01*
X147134120Y-72946326D01*
X147134120Y-59013196D01*
X147137434Y-58979549D01*
X147127206Y-58875708D01*
X147502139Y-59126230D01*
X147981679Y-59324862D01*
X148490755Y-59426123D01*
X149009805Y-59426123D01*
X149518881Y-59324862D01*
X149998421Y-59126230D01*
X150217944Y-58979549D01*
X150762056Y-58979549D01*
X150765371Y-59013206D01*
X150765370Y-72946326D01*
X150762056Y-72979973D01*
X150775282Y-73114256D01*
X150814451Y-73243379D01*
X150878058Y-73362380D01*
X150963659Y-73466684D01*
X151067963Y-73552285D01*
X151186964Y-73615892D01*
X151316087Y-73655061D01*
X151450370Y-73668287D01*
X151484017Y-73664973D01*
X165414603Y-73664973D01*
X165448250Y-73668287D01*
X165582533Y-73655061D01*
X165711656Y-73615892D01*
X165830657Y-73552285D01*
X165934961Y-73466684D01*
X166020562Y-73362380D01*
X166084169Y-73243379D01*
X166123338Y-73114256D01*
X166133250Y-73013620D01*
X166133250Y-73013619D01*
X166136564Y-72979973D01*
X166133250Y-72946326D01*
X166133250Y-59013196D01*
X166136564Y-58979549D01*
X166123338Y-58845266D01*
X166084169Y-58716143D01*
X166020562Y-58597142D01*
X165934961Y-58492838D01*
X165830657Y-58407237D01*
X165711656Y-58343630D01*
X165582533Y-58304461D01*
X165481897Y-58294549D01*
X165448250Y-58291235D01*
X165414603Y-58294549D01*
X151484017Y-58294549D01*
X151450370Y-58291235D01*
X151416723Y-58294549D01*
X151316087Y-58304461D01*
X151186964Y-58343630D01*
X151067963Y-58407237D01*
X150963659Y-58492838D01*
X150878058Y-58597142D01*
X150814451Y-58716143D01*
X150775282Y-58845266D01*
X150762056Y-58979549D01*
X150217944Y-58979549D01*
X150429995Y-58837861D01*
X150797018Y-58470838D01*
X151085387Y-58039264D01*
X151284019Y-57559724D01*
X151385280Y-57050648D01*
X151385280Y-56531598D01*
X151284019Y-56022522D01*
X151085387Y-55542982D01*
X150797018Y-55111408D01*
X150429995Y-54744385D01*
X149998421Y-54456016D01*
X149518881Y-54257384D01*
X149009805Y-54156123D01*
X148490755Y-54156123D01*
X147981679Y-54257384D01*
X147502139Y-54456016D01*
X147070565Y-54744385D01*
X146703542Y-55111408D01*
X146415173Y-55542982D01*
X146216541Y-56022522D01*
X146115280Y-56531598D01*
X146115280Y-57050648D01*
X146216541Y-57559724D01*
X146415173Y-58039264D01*
X146594652Y-58307873D01*
X146583403Y-58304461D01*
X146482767Y-58294549D01*
X146449120Y-58291235D01*
X146415473Y-58294549D01*
X132484887Y-58294549D01*
X132451240Y-58291235D01*
X132417593Y-58294549D01*
X132316957Y-58304461D01*
X132187834Y-58343630D01*
X132068833Y-58407237D01*
X131964529Y-58492838D01*
X131878928Y-58597142D01*
X131815321Y-58716143D01*
X131776152Y-58845266D01*
X131762926Y-58979549D01*
X128132450Y-58979549D01*
X128132450Y-50113071D01*
X128135764Y-50079424D01*
X128122538Y-49945141D01*
X128083369Y-49816018D01*
X128019762Y-49697017D01*
X127934161Y-49592713D01*
X127829857Y-49507112D01*
X127710856Y-49443505D01*
X127581733Y-49404336D01*
X127481097Y-49394424D01*
X127447450Y-49391110D01*
X127413803Y-49394424D01*
X113483222Y-49394424D01*
X113449575Y-49391110D01*
X113415928Y-49394424D01*
X113315292Y-49404336D01*
X113186169Y-49443505D01*
X113067168Y-49507112D01*
X112962864Y-49592713D01*
X112877263Y-49697017D01*
X112813656Y-49816018D01*
X112774487Y-49945141D01*
X112761261Y-50079424D01*
X109133329Y-50079424D01*
X109133329Y-47712780D01*
X109136643Y-47679133D01*
X109123417Y-47544850D01*
X109084248Y-47415727D01*
X109020641Y-47296726D01*
X108935040Y-47192422D01*
X108830736Y-47106821D01*
X108711735Y-47043214D01*
X108582612Y-47004045D01*
X108481976Y-46994133D01*
X108448329Y-46990819D01*
X108414682Y-46994133D01*
X94484096Y-46994133D01*
X94450449Y-46990819D01*
X94416802Y-46994133D01*
X94316166Y-47004045D01*
X94187043Y-47043214D01*
X94068042Y-47106821D01*
X93963738Y-47192422D01*
X93878137Y-47296726D01*
X93814530Y-47415727D01*
X93775361Y-47544850D01*
X93762135Y-47679133D01*
X73096655Y-47679133D01*
X73019163Y-47647035D01*
X72510087Y-47545774D01*
X71991037Y-47545774D01*
X71481961Y-47647035D01*
X71097255Y-47806385D01*
X71125172Y-47714356D01*
X71135084Y-47613720D01*
X71135084Y-47613719D01*
X71138398Y-47580073D01*
X71135084Y-47546426D01*
X71135084Y-33613296D01*
X71138398Y-33579649D01*
X71125172Y-33445366D01*
X71086003Y-33316243D01*
X71022396Y-33197242D01*
X70936795Y-33092938D01*
X70832491Y-33007337D01*
X70713490Y-32943730D01*
X70584367Y-32904561D01*
X70483731Y-32894649D01*
X70450084Y-32891335D01*
X70416437Y-32894649D01*
X56485844Y-32894649D01*
X56452197Y-32891335D01*
X56418550Y-32894649D01*
X56317914Y-32904561D01*
X56188791Y-32943730D01*
X56069790Y-33007337D01*
X55965486Y-33092938D01*
X55879885Y-33197242D01*
X55816278Y-33316243D01*
X55777109Y-33445366D01*
X55763883Y-33579649D01*
X54259748Y-33579649D01*
X54259604Y-31818238D01*
X73647383Y-31816117D01*
X73681024Y-31819427D01*
X73714665Y-31816110D01*
X73714672Y-31816110D01*
X73815307Y-31806187D01*
X73893671Y-31782406D01*
X73944424Y-31767005D01*
X74059150Y-31705667D01*
X74063420Y-31703384D01*
X74164905Y-31620078D01*
X74167713Y-31617773D01*
X74253303Y-31513460D01*
X74316897Y-31394452D01*
X74356053Y-31265325D01*
X74365954Y-31164688D01*
X74365954Y-31164684D01*
X74369264Y-31131039D01*
X74365947Y-31097396D01*
X74365946Y-31080298D01*
X74765548Y-31080298D01*
X74768863Y-31113955D01*
X74768862Y-45047075D01*
X74765548Y-45080722D01*
X74778774Y-45215005D01*
X74817943Y-45344128D01*
X74881550Y-45463129D01*
X74967151Y-45567433D01*
X75071455Y-45653034D01*
X75190456Y-45716641D01*
X75319579Y-45755810D01*
X75453862Y-45769036D01*
X75487509Y-45765722D01*
X89418102Y-45765722D01*
X89451749Y-45769036D01*
X89586032Y-45755810D01*
X89715155Y-45716641D01*
X89834156Y-45653034D01*
X89938460Y-45567433D01*
X90024061Y-45463129D01*
X90087668Y-45344128D01*
X90126837Y-45215005D01*
X90136749Y-45114369D01*
X90136749Y-45114368D01*
X90140063Y-45080722D01*
X90136749Y-45047075D01*
X90136749Y-31113945D01*
X90140063Y-31080298D01*
X90126837Y-30946015D01*
X90087668Y-30816892D01*
X90024061Y-30697891D01*
X89938460Y-30593587D01*
X89834156Y-30507986D01*
X89715155Y-30444379D01*
X89586032Y-30405210D01*
X89485396Y-30395298D01*
X89451749Y-30391984D01*
X89418102Y-30395298D01*
X75487509Y-30395298D01*
X75453862Y-30391984D01*
X75420215Y-30395298D01*
X75319579Y-30405210D01*
X75190456Y-30444379D01*
X75071455Y-30507986D01*
X74967151Y-30593587D01*
X74881550Y-30697891D01*
X74817943Y-30816892D01*
X74778774Y-30946015D01*
X74765548Y-31080298D01*
X74365946Y-31080298D01*
X74365758Y-29318888D01*
X92646619Y-29316772D01*
X92680255Y-29320081D01*
X92713896Y-29316764D01*
X92713909Y-29316764D01*
X92794335Y-29308833D01*
X92814537Y-29306841D01*
X92814539Y-29306841D01*
X92814544Y-29306840D01*
X92877560Y-29287716D01*
X92943656Y-29267659D01*
X92946393Y-29266196D01*
X92968400Y-29254430D01*
X93062650Y-29204039D01*
X93062656Y-29204035D01*
X93115648Y-29160535D01*
X93166945Y-29118427D01*
X93166947Y-29118424D01*
X93166950Y-29118422D01*
X93209142Y-29066999D01*
X93252535Y-29014114D01*
X93252539Y-29014108D01*
X93316132Y-28895100D01*
X93336201Y-28828912D01*
X93355285Y-28765979D01*
X93365186Y-28665342D01*
X93365186Y-28665336D01*
X93368496Y-28631689D01*
X93365179Y-28598049D01*
X93365179Y-28591108D01*
X93762135Y-28591108D01*
X93765450Y-28624765D01*
X93765449Y-42557886D01*
X93762135Y-42591533D01*
X93775361Y-42725816D01*
X93814530Y-42854939D01*
X93878137Y-42973940D01*
X93963738Y-43078244D01*
X94068042Y-43163845D01*
X94187043Y-43227452D01*
X94316166Y-43266621D01*
X94450449Y-43279847D01*
X94484096Y-43276533D01*
X108414689Y-43276533D01*
X108448336Y-43279847D01*
X108582619Y-43266621D01*
X108711742Y-43227452D01*
X108830743Y-43163845D01*
X108935047Y-43078244D01*
X109020648Y-42973940D01*
X109084255Y-42854939D01*
X109123424Y-42725816D01*
X109133336Y-42625180D01*
X109133336Y-42625179D01*
X109136650Y-42591533D01*
X109133336Y-42557886D01*
X109133336Y-31080298D01*
X112761261Y-31080298D01*
X112764576Y-31113955D01*
X112764575Y-45047075D01*
X112761261Y-45080722D01*
X112774487Y-45215005D01*
X112813656Y-45344128D01*
X112877263Y-45463129D01*
X112962864Y-45567433D01*
X113067168Y-45653034D01*
X113186169Y-45716641D01*
X113315292Y-45755810D01*
X113449575Y-45769036D01*
X113483222Y-45765722D01*
X127413813Y-45765722D01*
X127447460Y-45769036D01*
X127581743Y-45755810D01*
X127710866Y-45716641D01*
X127829867Y-45653034D01*
X127934171Y-45567433D01*
X128019772Y-45463129D01*
X128083379Y-45344128D01*
X128122548Y-45215005D01*
X128132460Y-45114369D01*
X128132460Y-45114368D01*
X128135774Y-45080722D01*
X128132460Y-45047075D01*
X128132460Y-40079483D01*
X131765466Y-40079483D01*
X131768781Y-40113140D01*
X131768780Y-54046260D01*
X131765466Y-54079907D01*
X131778692Y-54214190D01*
X131817861Y-54343313D01*
X131881468Y-54462314D01*
X131967069Y-54566618D01*
X132071373Y-54652219D01*
X132190374Y-54715826D01*
X132319497Y-54754995D01*
X132453780Y-54768221D01*
X132487427Y-54764907D01*
X146418013Y-54764907D01*
X146451660Y-54768221D01*
X146585943Y-54754995D01*
X146715066Y-54715826D01*
X146834067Y-54652219D01*
X146938371Y-54566618D01*
X147023972Y-54462314D01*
X147087579Y-54343313D01*
X147126748Y-54214190D01*
X147136660Y-54113554D01*
X147136660Y-54113553D01*
X147139974Y-54079907D01*
X147136660Y-54046260D01*
X147136660Y-40113130D01*
X147139974Y-40079483D01*
X150762056Y-40079483D01*
X150765371Y-40113140D01*
X150765370Y-54046260D01*
X150762056Y-54079907D01*
X150775282Y-54214190D01*
X150814451Y-54343313D01*
X150878058Y-54462314D01*
X150963659Y-54566618D01*
X151067963Y-54652219D01*
X151186964Y-54715826D01*
X151316087Y-54754995D01*
X151450370Y-54768221D01*
X151484017Y-54764907D01*
X165414603Y-54764907D01*
X165448250Y-54768221D01*
X165582533Y-54754995D01*
X165711656Y-54715826D01*
X165830657Y-54652219D01*
X165934961Y-54566618D01*
X166020562Y-54462314D01*
X166084169Y-54343313D01*
X166123338Y-54214190D01*
X166133250Y-54113554D01*
X166133250Y-54113553D01*
X166136564Y-54079907D01*
X166133250Y-54046260D01*
X166133250Y-40113130D01*
X166136564Y-40079483D01*
X166123338Y-39945200D01*
X166084169Y-39816077D01*
X166020562Y-39697076D01*
X165934961Y-39592772D01*
X165830657Y-39507171D01*
X165711656Y-39443564D01*
X165582533Y-39404395D01*
X165481897Y-39394483D01*
X165448250Y-39391169D01*
X165414603Y-39394483D01*
X151484017Y-39394483D01*
X151450370Y-39391169D01*
X151416723Y-39394483D01*
X151316087Y-39404395D01*
X151186964Y-39443564D01*
X151067963Y-39507171D01*
X150963659Y-39592772D01*
X150878058Y-39697076D01*
X150814451Y-39816077D01*
X150775282Y-39945200D01*
X150762056Y-40079483D01*
X147139974Y-40079483D01*
X147126748Y-39945200D01*
X147087579Y-39816077D01*
X147023972Y-39697076D01*
X146938371Y-39592772D01*
X146834067Y-39507171D01*
X146715066Y-39443564D01*
X146585943Y-39404395D01*
X146485307Y-39394483D01*
X146451660Y-39391169D01*
X146418013Y-39394483D01*
X132487427Y-39394483D01*
X132453780Y-39391169D01*
X132420133Y-39394483D01*
X132319497Y-39404395D01*
X132190374Y-39443564D01*
X132071373Y-39507171D01*
X131967069Y-39592772D01*
X131881468Y-39697076D01*
X131817861Y-39816077D01*
X131778692Y-39945200D01*
X131765466Y-40079483D01*
X128132460Y-40079483D01*
X128132460Y-31113945D01*
X128135774Y-31080298D01*
X128122548Y-30946015D01*
X128083379Y-30816892D01*
X128019772Y-30697891D01*
X127934171Y-30593587D01*
X127829867Y-30507986D01*
X127710866Y-30444379D01*
X127581743Y-30405210D01*
X127481107Y-30395298D01*
X127447460Y-30391984D01*
X127413813Y-30395298D01*
X113483222Y-30395298D01*
X113449575Y-30391984D01*
X113415928Y-30395298D01*
X113315292Y-30405210D01*
X113186169Y-30444379D01*
X113067168Y-30507986D01*
X112962864Y-30593587D01*
X112877263Y-30697891D01*
X112813656Y-30816892D01*
X112774487Y-30946015D01*
X112761261Y-31080298D01*
X109133336Y-31080298D01*
X109133336Y-28624755D01*
X109136650Y-28591108D01*
X109123424Y-28456825D01*
X109084255Y-28327702D01*
X109020648Y-28208701D01*
X108935047Y-28104397D01*
X108830743Y-28018796D01*
X108711742Y-27955189D01*
X108582619Y-27916020D01*
X108481983Y-27906108D01*
X108448336Y-27902794D01*
X108414689Y-27906108D01*
X94484096Y-27906108D01*
X94450449Y-27902794D01*
X94416802Y-27906108D01*
X94316166Y-27916020D01*
X94187043Y-27955189D01*
X94068042Y-28018796D01*
X93963738Y-28104397D01*
X93878137Y-28208701D01*
X93814530Y-28327702D01*
X93775361Y-28456825D01*
X93762135Y-28591108D01*
X93365179Y-28591108D01*
X93364990Y-26817072D01*
X109995898Y-26817072D01*
X109995899Y-28600295D01*
M02*
