G04 #@! TF.GenerationSoftware,KiCad,Pcbnew,5.1.5-52549c5~86~ubuntu19.10.1*
G04 #@! TF.CreationDate,2020-05-06T07:31:02+02:00*
G04 #@! TF.ProjectId,SofleKeyboard,536f666c-654b-4657-9962-6f6172642e6b,rev?*
G04 #@! TF.SameCoordinates,Original*
G04 #@! TF.FileFunction,Soldermask,Bot*
G04 #@! TF.FilePolarity,Negative*
%FSLAX46Y46*%
G04 Gerber Fmt 4.6, Leading zero omitted, Abs format (unit mm)*
G04 Created by KiCad (PCBNEW 5.1.5-52549c5~86~ubuntu19.10.1) date 2020-05-06 07:31:02*
%MOMM*%
%LPD*%
G04 APERTURE LIST*
%ADD10C,2.400000*%
%ADD11C,1.600000*%
%ADD12O,2.900000X2.100000*%
%ADD13C,2.152600*%
%ADD14R,2.152600X2.152600*%
%ADD15C,0.100000*%
%ADD16C,3.400000*%
%ADD17C,2.100000*%
%ADD18C,4.400000*%
%ADD19R,2.200000X1.900000*%
%ADD20R,1.900000X1.400000*%
%ADD21C,1.797000*%
%ADD22R,1.543000X1.035000*%
%ADD23C,5.100000*%
%ADD24R,3.600000X2.400000*%
%ADD25R,1.924000X1.924000*%
G04 APERTURE END LIST*
D10*
X92280000Y-74552000D03*
X92280000Y-81052000D03*
D11*
X98480000Y-87252000D03*
X91480000Y-87252000D03*
D12*
X100280000Y-89352000D03*
X101780000Y-85152000D03*
X93280000Y-89352000D03*
X96280000Y-89352000D03*
D11*
X91480000Y-85502000D03*
X98480000Y-85502000D03*
D12*
X93280000Y-83402000D03*
X96280000Y-83402000D03*
X100280000Y-83402000D03*
X101780000Y-87602000D03*
D13*
X107848600Y-42740000D03*
X92608600Y-70680000D03*
X107391400Y-45280000D03*
X107848600Y-47820000D03*
X107391400Y-50360000D03*
X107848600Y-52900000D03*
X107391400Y-55440000D03*
X107848600Y-57980000D03*
X107391400Y-60520000D03*
X107848600Y-63060000D03*
X107391400Y-65600000D03*
X107848600Y-68140000D03*
X107391400Y-70680000D03*
X92151400Y-68140000D03*
X92608600Y-65600000D03*
X92151400Y-63060000D03*
X92608600Y-60520000D03*
X92151400Y-57980000D03*
X92608600Y-55440000D03*
X92151400Y-52900000D03*
X92608600Y-50360000D03*
X92151400Y-47820000D03*
X92608600Y-45280000D03*
D14*
X92151400Y-42740000D03*
D15*
G36*
X105781437Y-136041435D02*
G01*
X105785482Y-136050364D01*
X105798082Y-136087484D01*
X105800308Y-136097029D01*
X105805426Y-136135905D01*
X105805746Y-136145703D01*
X105803181Y-136184831D01*
X105801584Y-136194501D01*
X105791440Y-136232356D01*
X105787988Y-136241529D01*
X105770646Y-136276698D01*
X105765470Y-136285022D01*
X105741600Y-136316131D01*
X105734900Y-136323285D01*
X105705428Y-136349131D01*
X105697460Y-136354841D01*
X105680960Y-136365479D01*
X105464454Y-136490479D01*
X105714454Y-136923492D01*
X105730635Y-136959204D01*
X105739538Y-136997387D01*
X105740821Y-137036572D01*
X105734434Y-137075256D01*
X105720624Y-137111950D01*
X105699920Y-137145244D01*
X105673118Y-137173860D01*
X105641249Y-137196697D01*
X104342211Y-137946697D01*
X104306499Y-137962878D01*
X104268316Y-137971781D01*
X104229130Y-137973064D01*
X104190447Y-137966677D01*
X104153753Y-137952866D01*
X104120459Y-137932163D01*
X104091843Y-137905361D01*
X104069006Y-137873492D01*
X103819006Y-137440479D01*
X103602500Y-137565479D01*
X103585037Y-137574449D01*
X103576108Y-137578494D01*
X103538988Y-137591095D01*
X103529443Y-137593320D01*
X103490567Y-137598438D01*
X103480770Y-137598759D01*
X103441642Y-137596193D01*
X103431972Y-137594596D01*
X103394116Y-137584453D01*
X103384943Y-137581001D01*
X103349775Y-137563659D01*
X103341450Y-137558482D01*
X103310341Y-137534612D01*
X103303188Y-137527912D01*
X103277341Y-137498440D01*
X103271631Y-137490472D01*
X103260993Y-137473973D01*
X102310993Y-135828525D01*
X102302023Y-135811062D01*
X102297978Y-135802133D01*
X102285378Y-135765013D01*
X102283152Y-135755468D01*
X102277937Y-135708024D01*
X102278080Y-135693969D01*
X102280350Y-135665882D01*
X102376760Y-135032870D01*
X102380661Y-135013648D01*
X102383078Y-135004150D01*
X102396443Y-134967252D01*
X102400669Y-134958408D01*
X102420942Y-134924883D01*
X102426811Y-134917033D01*
X102453256Y-134888082D01*
X102460544Y-134881528D01*
X102484850Y-134862830D01*
X102489479Y-134859804D01*
X102498910Y-134854006D01*
X104230960Y-133854006D01*
X104248423Y-133845036D01*
X104257352Y-133840990D01*
X104294472Y-133828390D01*
X104304017Y-133826164D01*
X104342893Y-133821047D01*
X104352690Y-133820726D01*
X104391818Y-133823292D01*
X104401488Y-133824889D01*
X104439344Y-133835032D01*
X104448517Y-133838484D01*
X104483685Y-133855826D01*
X104492010Y-133861002D01*
X104523119Y-133884873D01*
X104530272Y-133891573D01*
X104556119Y-133921045D01*
X104561829Y-133929012D01*
X104572467Y-133945512D01*
X105772467Y-136023973D01*
X105781437Y-136041435D01*
G37*
G36*
X97229771Y-126429515D02*
G01*
X97233816Y-126438444D01*
X97246416Y-126475564D01*
X97248642Y-126485109D01*
X97253760Y-126523985D01*
X97254080Y-126533783D01*
X97251515Y-126572911D01*
X97249918Y-126582581D01*
X97239774Y-126620436D01*
X97236322Y-126629609D01*
X97218980Y-126664778D01*
X97213804Y-126673102D01*
X97189934Y-126704211D01*
X97183234Y-126711364D01*
X97153762Y-126737211D01*
X97145794Y-126742921D01*
X97129294Y-126753559D01*
X95050834Y-127953559D01*
X95033371Y-127962529D01*
X95024442Y-127966574D01*
X94987322Y-127979174D01*
X94977777Y-127981400D01*
X94938901Y-127986518D01*
X94929104Y-127986839D01*
X94889976Y-127984273D01*
X94880306Y-127982676D01*
X94842450Y-127972533D01*
X94833277Y-127969081D01*
X94798109Y-127951739D01*
X94789784Y-127946562D01*
X94758675Y-127922692D01*
X94751522Y-127915992D01*
X94725675Y-127886520D01*
X94719965Y-127878552D01*
X94709327Y-127862053D01*
X93509327Y-125783592D01*
X93500357Y-125766129D01*
X93496312Y-125757201D01*
X93483712Y-125720080D01*
X93481486Y-125710535D01*
X93476368Y-125671659D01*
X93476048Y-125661862D01*
X93478613Y-125622734D01*
X93480210Y-125613064D01*
X93490354Y-125575208D01*
X93493806Y-125566035D01*
X93511148Y-125530867D01*
X93516324Y-125522542D01*
X93540194Y-125491433D01*
X93546894Y-125484280D01*
X93576366Y-125458433D01*
X93584334Y-125452723D01*
X93600834Y-125442085D01*
X93817340Y-125317085D01*
X93617340Y-124970675D01*
X93601159Y-124934963D01*
X93592256Y-124896780D01*
X93590973Y-124857595D01*
X93597360Y-124818911D01*
X93611170Y-124782217D01*
X93631874Y-124748923D01*
X93658676Y-124720307D01*
X93690545Y-124697470D01*
X94989583Y-123947470D01*
X95025295Y-123931289D01*
X95063478Y-123922386D01*
X95102664Y-123921103D01*
X95141347Y-123927490D01*
X95178041Y-123941301D01*
X95211335Y-123962004D01*
X95239951Y-123988806D01*
X95262788Y-124020675D01*
X95462788Y-124367085D01*
X95679294Y-124242085D01*
X95696757Y-124233115D01*
X95705686Y-124229070D01*
X95742806Y-124216470D01*
X95752351Y-124214244D01*
X95791227Y-124209126D01*
X95801024Y-124208806D01*
X95840152Y-124211371D01*
X95849822Y-124212968D01*
X95887678Y-124223112D01*
X95896851Y-124226564D01*
X95932019Y-124243906D01*
X95940344Y-124249082D01*
X95971453Y-124272952D01*
X95978606Y-124279652D01*
X96004453Y-124309125D01*
X96010163Y-124317092D01*
X96020801Y-124333592D01*
X97220801Y-126412053D01*
X97229771Y-126429515D01*
G37*
D16*
X96994705Y-128840443D03*
D17*
X94160000Y-129010591D03*
X99240000Y-137809409D03*
D18*
X96700000Y-133410000D03*
D16*
X102369409Y-133069705D03*
X99829409Y-128670295D03*
X100804705Y-135439557D03*
D15*
G36*
X184319608Y-117150963D02*
G01*
X184329363Y-117151924D01*
X184367810Y-117159572D01*
X184377189Y-117162417D01*
X184413416Y-117177423D01*
X184422061Y-117182044D01*
X184454664Y-117203830D01*
X184462240Y-117210048D01*
X184489952Y-117237760D01*
X184496170Y-117245336D01*
X184517956Y-117277939D01*
X184522577Y-117286584D01*
X184537583Y-117322811D01*
X184540428Y-117332190D01*
X184548076Y-117370637D01*
X184549037Y-117380392D01*
X184550000Y-117400000D01*
X184550000Y-117650000D01*
X185050000Y-117650000D01*
X185089018Y-117653843D01*
X185126537Y-117665224D01*
X185161114Y-117683706D01*
X185191421Y-117708579D01*
X185216294Y-117738886D01*
X185234776Y-117773463D01*
X185246157Y-117810982D01*
X185250000Y-117850000D01*
X185250000Y-119350000D01*
X185246157Y-119389018D01*
X185234776Y-119426537D01*
X185216294Y-119461114D01*
X185191421Y-119491421D01*
X185161114Y-119516294D01*
X185126537Y-119534776D01*
X185089018Y-119546157D01*
X185050000Y-119550000D01*
X184550000Y-119550000D01*
X184550000Y-119800000D01*
X184549037Y-119819608D01*
X184548076Y-119829363D01*
X184540428Y-119867810D01*
X184537583Y-119877189D01*
X184522577Y-119913416D01*
X184517956Y-119922061D01*
X184496170Y-119954664D01*
X184489952Y-119962240D01*
X184462240Y-119989952D01*
X184454664Y-119996170D01*
X184422061Y-120017956D01*
X184413416Y-120022577D01*
X184377189Y-120037583D01*
X184367810Y-120040428D01*
X184329363Y-120048076D01*
X184319608Y-120049037D01*
X184300000Y-120050000D01*
X182400000Y-120050000D01*
X182380392Y-120049037D01*
X182370637Y-120048076D01*
X182332190Y-120040428D01*
X182322811Y-120037583D01*
X182279116Y-120018377D01*
X182267015Y-120011226D01*
X182243826Y-119995217D01*
X181743826Y-119595217D01*
X181729130Y-119582228D01*
X181722113Y-119575385D01*
X181696841Y-119545362D01*
X181691295Y-119537280D01*
X181672398Y-119502961D01*
X181668534Y-119493953D01*
X181656684Y-119456575D01*
X181654652Y-119446987D01*
X181650612Y-119416588D01*
X181650306Y-119411066D01*
X181650000Y-119400000D01*
X181650000Y-117400000D01*
X181650963Y-117380392D01*
X181651924Y-117370637D01*
X181659572Y-117332190D01*
X181662417Y-117322811D01*
X181677423Y-117286584D01*
X181682044Y-117277939D01*
X181703830Y-117245336D01*
X181710048Y-117237760D01*
X181737760Y-117210048D01*
X181745336Y-117203830D01*
X181777939Y-117182044D01*
X181786584Y-117177423D01*
X181822811Y-117162417D01*
X181832190Y-117159572D01*
X181870637Y-117151924D01*
X181880392Y-117150963D01*
X181900000Y-117150000D01*
X184300000Y-117150000D01*
X184319608Y-117150963D01*
G37*
G36*
X171719608Y-119750963D02*
G01*
X171729363Y-119751924D01*
X171767810Y-119759572D01*
X171777189Y-119762417D01*
X171813416Y-119777423D01*
X171822061Y-119782044D01*
X171854664Y-119803830D01*
X171862240Y-119810048D01*
X171889952Y-119837760D01*
X171896170Y-119845336D01*
X171917956Y-119877939D01*
X171922577Y-119886584D01*
X171937583Y-119922811D01*
X171940428Y-119932190D01*
X171948076Y-119970637D01*
X171949037Y-119980392D01*
X171950000Y-120000000D01*
X171950000Y-122400000D01*
X171949037Y-122419608D01*
X171948076Y-122429363D01*
X171940428Y-122467810D01*
X171937583Y-122477189D01*
X171922577Y-122513416D01*
X171917956Y-122522061D01*
X171896170Y-122554664D01*
X171889952Y-122562240D01*
X171862240Y-122589952D01*
X171854664Y-122596170D01*
X171822061Y-122617956D01*
X171813416Y-122622577D01*
X171777189Y-122637583D01*
X171767810Y-122640428D01*
X171729363Y-122648076D01*
X171719608Y-122649037D01*
X171700000Y-122650000D01*
X169300000Y-122650000D01*
X169280392Y-122649037D01*
X169270637Y-122648076D01*
X169232190Y-122640428D01*
X169222811Y-122637583D01*
X169186584Y-122622577D01*
X169177939Y-122617956D01*
X169145336Y-122596170D01*
X169137760Y-122589952D01*
X169110048Y-122562240D01*
X169103830Y-122554664D01*
X169082044Y-122522061D01*
X169077423Y-122513416D01*
X169062417Y-122477189D01*
X169059572Y-122467810D01*
X169051924Y-122429363D01*
X169050963Y-122419608D01*
X169050000Y-122400000D01*
X169050000Y-122150000D01*
X168650000Y-122150000D01*
X168610982Y-122146157D01*
X168573463Y-122134776D01*
X168538886Y-122116294D01*
X168508579Y-122091421D01*
X168483706Y-122061114D01*
X168465224Y-122026537D01*
X168453843Y-121989018D01*
X168450000Y-121950000D01*
X168450000Y-120450000D01*
X168453843Y-120410982D01*
X168465224Y-120373463D01*
X168483706Y-120338886D01*
X168508579Y-120308579D01*
X168538886Y-120283706D01*
X168573463Y-120265224D01*
X168610982Y-120253843D01*
X168650000Y-120250000D01*
X169050000Y-120250000D01*
X169050000Y-120000000D01*
X169050963Y-119980392D01*
X169051924Y-119970637D01*
X169059572Y-119932190D01*
X169062417Y-119922811D01*
X169077423Y-119886584D01*
X169082044Y-119877939D01*
X169103830Y-119845336D01*
X169110048Y-119837760D01*
X169137760Y-119810048D01*
X169145336Y-119803830D01*
X169177939Y-119782044D01*
X169186584Y-119777423D01*
X169222811Y-119762417D01*
X169232190Y-119759572D01*
X169270637Y-119751924D01*
X169280392Y-119750963D01*
X169300000Y-119750000D01*
X171700000Y-119750000D01*
X171719608Y-119750963D01*
G37*
D16*
X173690000Y-121159999D03*
D17*
X172420000Y-123700000D03*
X182580000Y-123700000D03*
D18*
X177500000Y-123700000D03*
D16*
X180040000Y-118620000D03*
X174960000Y-118620000D03*
X181310000Y-121160000D03*
D15*
G36*
X165319608Y-114650963D02*
G01*
X165329363Y-114651924D01*
X165367810Y-114659572D01*
X165377189Y-114662417D01*
X165413416Y-114677423D01*
X165422061Y-114682044D01*
X165454664Y-114703830D01*
X165462240Y-114710048D01*
X165489952Y-114737760D01*
X165496170Y-114745336D01*
X165517956Y-114777939D01*
X165522577Y-114786584D01*
X165537583Y-114822811D01*
X165540428Y-114832190D01*
X165548076Y-114870637D01*
X165549037Y-114880392D01*
X165550000Y-114900000D01*
X165550000Y-115150000D01*
X166050000Y-115150000D01*
X166089018Y-115153843D01*
X166126537Y-115165224D01*
X166161114Y-115183706D01*
X166191421Y-115208579D01*
X166216294Y-115238886D01*
X166234776Y-115273463D01*
X166246157Y-115310982D01*
X166250000Y-115350000D01*
X166250000Y-116850000D01*
X166246157Y-116889018D01*
X166234776Y-116926537D01*
X166216294Y-116961114D01*
X166191421Y-116991421D01*
X166161114Y-117016294D01*
X166126537Y-117034776D01*
X166089018Y-117046157D01*
X166050000Y-117050000D01*
X165550000Y-117050000D01*
X165550000Y-117300000D01*
X165549037Y-117319608D01*
X165548076Y-117329363D01*
X165540428Y-117367810D01*
X165537583Y-117377189D01*
X165522577Y-117413416D01*
X165517956Y-117422061D01*
X165496170Y-117454664D01*
X165489952Y-117462240D01*
X165462240Y-117489952D01*
X165454664Y-117496170D01*
X165422061Y-117517956D01*
X165413416Y-117522577D01*
X165377189Y-117537583D01*
X165367810Y-117540428D01*
X165329363Y-117548076D01*
X165319608Y-117549037D01*
X165300000Y-117550000D01*
X163400000Y-117550000D01*
X163380392Y-117549037D01*
X163370637Y-117548076D01*
X163332190Y-117540428D01*
X163322811Y-117537583D01*
X163279116Y-117518377D01*
X163267015Y-117511226D01*
X163243826Y-117495217D01*
X162743826Y-117095217D01*
X162729130Y-117082228D01*
X162722113Y-117075385D01*
X162696841Y-117045362D01*
X162691295Y-117037280D01*
X162672398Y-117002961D01*
X162668534Y-116993953D01*
X162656684Y-116956575D01*
X162654652Y-116946987D01*
X162650612Y-116916588D01*
X162650306Y-116911066D01*
X162650000Y-116900000D01*
X162650000Y-114900000D01*
X162650963Y-114880392D01*
X162651924Y-114870637D01*
X162659572Y-114832190D01*
X162662417Y-114822811D01*
X162677423Y-114786584D01*
X162682044Y-114777939D01*
X162703830Y-114745336D01*
X162710048Y-114737760D01*
X162737760Y-114710048D01*
X162745336Y-114703830D01*
X162777939Y-114682044D01*
X162786584Y-114677423D01*
X162822811Y-114662417D01*
X162832190Y-114659572D01*
X162870637Y-114651924D01*
X162880392Y-114650963D01*
X162900000Y-114650000D01*
X165300000Y-114650000D01*
X165319608Y-114650963D01*
G37*
G36*
X152719608Y-117250963D02*
G01*
X152729363Y-117251924D01*
X152767810Y-117259572D01*
X152777189Y-117262417D01*
X152813416Y-117277423D01*
X152822061Y-117282044D01*
X152854664Y-117303830D01*
X152862240Y-117310048D01*
X152889952Y-117337760D01*
X152896170Y-117345336D01*
X152917956Y-117377939D01*
X152922577Y-117386584D01*
X152937583Y-117422811D01*
X152940428Y-117432190D01*
X152948076Y-117470637D01*
X152949037Y-117480392D01*
X152950000Y-117500000D01*
X152950000Y-119900000D01*
X152949037Y-119919608D01*
X152948076Y-119929363D01*
X152940428Y-119967810D01*
X152937583Y-119977189D01*
X152922577Y-120013416D01*
X152917956Y-120022061D01*
X152896170Y-120054664D01*
X152889952Y-120062240D01*
X152862240Y-120089952D01*
X152854664Y-120096170D01*
X152822061Y-120117956D01*
X152813416Y-120122577D01*
X152777189Y-120137583D01*
X152767810Y-120140428D01*
X152729363Y-120148076D01*
X152719608Y-120149037D01*
X152700000Y-120150000D01*
X150300000Y-120150000D01*
X150280392Y-120149037D01*
X150270637Y-120148076D01*
X150232190Y-120140428D01*
X150222811Y-120137583D01*
X150186584Y-120122577D01*
X150177939Y-120117956D01*
X150145336Y-120096170D01*
X150137760Y-120089952D01*
X150110048Y-120062240D01*
X150103830Y-120054664D01*
X150082044Y-120022061D01*
X150077423Y-120013416D01*
X150062417Y-119977189D01*
X150059572Y-119967810D01*
X150051924Y-119929363D01*
X150050963Y-119919608D01*
X150050000Y-119900000D01*
X150050000Y-119650000D01*
X149650000Y-119650000D01*
X149610982Y-119646157D01*
X149573463Y-119634776D01*
X149538886Y-119616294D01*
X149508579Y-119591421D01*
X149483706Y-119561114D01*
X149465224Y-119526537D01*
X149453843Y-119489018D01*
X149450000Y-119450000D01*
X149450000Y-117950000D01*
X149453843Y-117910982D01*
X149465224Y-117873463D01*
X149483706Y-117838886D01*
X149508579Y-117808579D01*
X149538886Y-117783706D01*
X149573463Y-117765224D01*
X149610982Y-117753843D01*
X149650000Y-117750000D01*
X150050000Y-117750000D01*
X150050000Y-117500000D01*
X150050963Y-117480392D01*
X150051924Y-117470637D01*
X150059572Y-117432190D01*
X150062417Y-117422811D01*
X150077423Y-117386584D01*
X150082044Y-117377939D01*
X150103830Y-117345336D01*
X150110048Y-117337760D01*
X150137760Y-117310048D01*
X150145336Y-117303830D01*
X150177939Y-117282044D01*
X150186584Y-117277423D01*
X150222811Y-117262417D01*
X150232190Y-117259572D01*
X150270637Y-117251924D01*
X150280392Y-117250963D01*
X150300000Y-117250000D01*
X152700000Y-117250000D01*
X152719608Y-117250963D01*
G37*
D16*
X154690000Y-118659999D03*
D17*
X153420000Y-121200000D03*
X163580000Y-121200000D03*
D18*
X158500000Y-121200000D03*
D16*
X161040000Y-116120000D03*
X155960000Y-116120000D03*
X162310000Y-118660000D03*
D15*
G36*
X146319608Y-117250963D02*
G01*
X146329363Y-117251924D01*
X146367810Y-117259572D01*
X146377189Y-117262417D01*
X146413416Y-117277423D01*
X146422061Y-117282044D01*
X146454664Y-117303830D01*
X146462240Y-117310048D01*
X146489952Y-117337760D01*
X146496170Y-117345336D01*
X146517956Y-117377939D01*
X146522577Y-117386584D01*
X146537583Y-117422811D01*
X146540428Y-117432190D01*
X146548076Y-117470637D01*
X146549037Y-117480392D01*
X146550000Y-117500000D01*
X146550000Y-117750000D01*
X147050000Y-117750000D01*
X147089018Y-117753843D01*
X147126537Y-117765224D01*
X147161114Y-117783706D01*
X147191421Y-117808579D01*
X147216294Y-117838886D01*
X147234776Y-117873463D01*
X147246157Y-117910982D01*
X147250000Y-117950000D01*
X147250000Y-119450000D01*
X147246157Y-119489018D01*
X147234776Y-119526537D01*
X147216294Y-119561114D01*
X147191421Y-119591421D01*
X147161114Y-119616294D01*
X147126537Y-119634776D01*
X147089018Y-119646157D01*
X147050000Y-119650000D01*
X146550000Y-119650000D01*
X146550000Y-119900000D01*
X146549037Y-119919608D01*
X146548076Y-119929363D01*
X146540428Y-119967810D01*
X146537583Y-119977189D01*
X146522577Y-120013416D01*
X146517956Y-120022061D01*
X146496170Y-120054664D01*
X146489952Y-120062240D01*
X146462240Y-120089952D01*
X146454664Y-120096170D01*
X146422061Y-120117956D01*
X146413416Y-120122577D01*
X146377189Y-120137583D01*
X146367810Y-120140428D01*
X146329363Y-120148076D01*
X146319608Y-120149037D01*
X146300000Y-120150000D01*
X144400000Y-120150000D01*
X144380392Y-120149037D01*
X144370637Y-120148076D01*
X144332190Y-120140428D01*
X144322811Y-120137583D01*
X144279116Y-120118377D01*
X144267015Y-120111226D01*
X144243826Y-120095217D01*
X143743826Y-119695217D01*
X143729130Y-119682228D01*
X143722113Y-119675385D01*
X143696841Y-119645362D01*
X143691295Y-119637280D01*
X143672398Y-119602961D01*
X143668534Y-119593953D01*
X143656684Y-119556575D01*
X143654652Y-119546987D01*
X143650612Y-119516588D01*
X143650306Y-119511066D01*
X143650000Y-119500000D01*
X143650000Y-117500000D01*
X143650963Y-117480392D01*
X143651924Y-117470637D01*
X143659572Y-117432190D01*
X143662417Y-117422811D01*
X143677423Y-117386584D01*
X143682044Y-117377939D01*
X143703830Y-117345336D01*
X143710048Y-117337760D01*
X143737760Y-117310048D01*
X143745336Y-117303830D01*
X143777939Y-117282044D01*
X143786584Y-117277423D01*
X143822811Y-117262417D01*
X143832190Y-117259572D01*
X143870637Y-117251924D01*
X143880392Y-117250963D01*
X143900000Y-117250000D01*
X146300000Y-117250000D01*
X146319608Y-117250963D01*
G37*
G36*
X133719608Y-119850963D02*
G01*
X133729363Y-119851924D01*
X133767810Y-119859572D01*
X133777189Y-119862417D01*
X133813416Y-119877423D01*
X133822061Y-119882044D01*
X133854664Y-119903830D01*
X133862240Y-119910048D01*
X133889952Y-119937760D01*
X133896170Y-119945336D01*
X133917956Y-119977939D01*
X133922577Y-119986584D01*
X133937583Y-120022811D01*
X133940428Y-120032190D01*
X133948076Y-120070637D01*
X133949037Y-120080392D01*
X133950000Y-120100000D01*
X133950000Y-122500000D01*
X133949037Y-122519608D01*
X133948076Y-122529363D01*
X133940428Y-122567810D01*
X133937583Y-122577189D01*
X133922577Y-122613416D01*
X133917956Y-122622061D01*
X133896170Y-122654664D01*
X133889952Y-122662240D01*
X133862240Y-122689952D01*
X133854664Y-122696170D01*
X133822061Y-122717956D01*
X133813416Y-122722577D01*
X133777189Y-122737583D01*
X133767810Y-122740428D01*
X133729363Y-122748076D01*
X133719608Y-122749037D01*
X133700000Y-122750000D01*
X131300000Y-122750000D01*
X131280392Y-122749037D01*
X131270637Y-122748076D01*
X131232190Y-122740428D01*
X131222811Y-122737583D01*
X131186584Y-122722577D01*
X131177939Y-122717956D01*
X131145336Y-122696170D01*
X131137760Y-122689952D01*
X131110048Y-122662240D01*
X131103830Y-122654664D01*
X131082044Y-122622061D01*
X131077423Y-122613416D01*
X131062417Y-122577189D01*
X131059572Y-122567810D01*
X131051924Y-122529363D01*
X131050963Y-122519608D01*
X131050000Y-122500000D01*
X131050000Y-122250000D01*
X130650000Y-122250000D01*
X130610982Y-122246157D01*
X130573463Y-122234776D01*
X130538886Y-122216294D01*
X130508579Y-122191421D01*
X130483706Y-122161114D01*
X130465224Y-122126537D01*
X130453843Y-122089018D01*
X130450000Y-122050000D01*
X130450000Y-120550000D01*
X130453843Y-120510982D01*
X130465224Y-120473463D01*
X130483706Y-120438886D01*
X130508579Y-120408579D01*
X130538886Y-120383706D01*
X130573463Y-120365224D01*
X130610982Y-120353843D01*
X130650000Y-120350000D01*
X131050000Y-120350000D01*
X131050000Y-120100000D01*
X131050963Y-120080392D01*
X131051924Y-120070637D01*
X131059572Y-120032190D01*
X131062417Y-120022811D01*
X131077423Y-119986584D01*
X131082044Y-119977939D01*
X131103830Y-119945336D01*
X131110048Y-119937760D01*
X131137760Y-119910048D01*
X131145336Y-119903830D01*
X131177939Y-119882044D01*
X131186584Y-119877423D01*
X131222811Y-119862417D01*
X131232190Y-119859572D01*
X131270637Y-119851924D01*
X131280392Y-119850963D01*
X131300000Y-119850000D01*
X133700000Y-119850000D01*
X133719608Y-119850963D01*
G37*
D16*
X135690000Y-121259999D03*
D17*
X134420000Y-123800000D03*
X144580000Y-123800000D03*
D18*
X139500000Y-123800000D03*
D16*
X142040000Y-118720000D03*
X136960000Y-118720000D03*
X143310000Y-121260000D03*
D15*
G36*
X121318569Y-119706946D02*
G01*
X121327924Y-119704019D01*
X121366303Y-119696037D01*
X121376048Y-119694991D01*
X121415259Y-119694649D01*
X121425022Y-119695525D01*
X121463546Y-119702840D01*
X121472949Y-119705604D01*
X121509286Y-119720285D01*
X121517970Y-119724829D01*
X121550763Y-119746328D01*
X121558395Y-119752480D01*
X121586363Y-119779964D01*
X121592646Y-119787485D01*
X121614709Y-119819888D01*
X121619405Y-119828492D01*
X121627953Y-119846165D01*
X121725636Y-120076291D01*
X122185888Y-119880925D01*
X122223306Y-119869217D01*
X122262289Y-119865034D01*
X122301339Y-119868536D01*
X122338955Y-119879590D01*
X122373693Y-119897769D01*
X122404216Y-119922376D01*
X122429352Y-119952466D01*
X122448135Y-119986880D01*
X123034232Y-121367638D01*
X123045940Y-121405055D01*
X123050124Y-121444039D01*
X123046621Y-121483088D01*
X123035567Y-121520705D01*
X123017388Y-121555442D01*
X122992781Y-121585966D01*
X122962692Y-121611102D01*
X122928277Y-121629885D01*
X122468025Y-121825250D01*
X122565708Y-122055376D01*
X122572483Y-122073802D01*
X122575410Y-122083157D01*
X122583392Y-122121536D01*
X122584438Y-122131281D01*
X122584780Y-122170491D01*
X122583904Y-122180255D01*
X122576589Y-122218779D01*
X122573825Y-122228182D01*
X122559144Y-122264519D01*
X122554600Y-122273203D01*
X122533101Y-122305996D01*
X122526949Y-122313627D01*
X122499465Y-122341595D01*
X122491944Y-122347879D01*
X122459541Y-122369941D01*
X122450937Y-122374638D01*
X122433264Y-122383185D01*
X120684305Y-123125575D01*
X120665879Y-123132350D01*
X120656524Y-123135277D01*
X120618145Y-123143259D01*
X120608400Y-123144305D01*
X120560675Y-123143699D01*
X120546741Y-123141844D01*
X120519141Y-123136169D01*
X119902596Y-122963332D01*
X119883993Y-122957118D01*
X119874860Y-122953561D01*
X119839866Y-122935799D01*
X119831603Y-122930526D01*
X119800799Y-122906319D01*
X119793722Y-122899537D01*
X119768209Y-122869761D01*
X119762593Y-122861729D01*
X119746996Y-122835325D01*
X119744557Y-122830362D01*
X119739951Y-122820295D01*
X118958489Y-120979285D01*
X118951714Y-120960860D01*
X118948787Y-120951505D01*
X118940804Y-120913126D01*
X118939759Y-120903381D01*
X118939417Y-120864170D01*
X118940292Y-120854407D01*
X118947608Y-120815883D01*
X118950371Y-120806480D01*
X118965052Y-120770143D01*
X118969596Y-120761459D01*
X118991095Y-120728666D01*
X118997247Y-120721034D01*
X119024731Y-120693066D01*
X119032253Y-120686783D01*
X119064655Y-120664720D01*
X119073259Y-120660024D01*
X119090932Y-120651476D01*
X121300144Y-119713721D01*
X121318569Y-119706946D01*
G37*
G36*
X110736110Y-127023471D02*
G01*
X110745465Y-127020544D01*
X110783843Y-127012562D01*
X110793589Y-127011516D01*
X110832799Y-127011174D01*
X110842562Y-127012050D01*
X110881086Y-127019365D01*
X110890489Y-127022128D01*
X110926826Y-127036809D01*
X110935510Y-127041353D01*
X110968303Y-127062852D01*
X110975935Y-127069004D01*
X111003903Y-127096488D01*
X111010186Y-127104010D01*
X111032249Y-127136412D01*
X111036945Y-127145016D01*
X111045493Y-127162689D01*
X111983248Y-129371901D01*
X111990023Y-129390327D01*
X111992950Y-129399682D01*
X112000932Y-129438061D01*
X112001978Y-129447806D01*
X112002320Y-129487016D01*
X112001444Y-129496779D01*
X111994129Y-129535303D01*
X111991365Y-129544706D01*
X111976684Y-129581043D01*
X111972140Y-129589727D01*
X111950641Y-129622520D01*
X111944489Y-129630152D01*
X111917005Y-129658120D01*
X111909484Y-129664403D01*
X111877081Y-129686466D01*
X111868477Y-129691162D01*
X111850804Y-129699710D01*
X109641593Y-130637465D01*
X109623167Y-130644240D01*
X109613812Y-130647167D01*
X109575433Y-130655149D01*
X109565688Y-130656195D01*
X109526478Y-130656537D01*
X109516714Y-130655661D01*
X109478191Y-130648346D01*
X109468787Y-130645582D01*
X109432450Y-130630901D01*
X109423766Y-130626357D01*
X109390973Y-130604858D01*
X109383342Y-130598706D01*
X109355374Y-130571222D01*
X109349090Y-130563701D01*
X109327028Y-130531298D01*
X109322331Y-130522694D01*
X109313784Y-130505021D01*
X109216101Y-130274895D01*
X108847899Y-130431188D01*
X108810481Y-130442896D01*
X108771498Y-130447079D01*
X108732448Y-130443577D01*
X108694832Y-130432523D01*
X108660094Y-130414344D01*
X108629571Y-130389737D01*
X108604435Y-130359647D01*
X108585652Y-130325233D01*
X107999555Y-128944475D01*
X107987847Y-128907058D01*
X107983663Y-128868074D01*
X107987166Y-128829025D01*
X107998220Y-128791408D01*
X108016399Y-128756671D01*
X108041006Y-128726147D01*
X108071095Y-128701011D01*
X108105510Y-128682228D01*
X108473712Y-128525936D01*
X108376029Y-128295810D01*
X108369254Y-128277384D01*
X108366327Y-128268029D01*
X108358344Y-128229650D01*
X108357299Y-128219905D01*
X108356957Y-128180695D01*
X108357833Y-128170931D01*
X108365148Y-128132408D01*
X108367911Y-128123004D01*
X108382592Y-128086667D01*
X108387136Y-128077983D01*
X108408635Y-128045190D01*
X108414787Y-128037559D01*
X108442271Y-128009591D01*
X108449793Y-128003307D01*
X108482195Y-127981245D01*
X108490799Y-127976549D01*
X108508472Y-127968001D01*
X110717684Y-127030246D01*
X110736110Y-127023471D01*
G37*
D16*
X113100419Y-127550602D03*
D17*
X112923835Y-130384914D03*
X122276165Y-126415086D03*
D18*
X117600000Y-128400000D03*
D16*
X117953168Y-122731378D03*
X113277004Y-124716292D03*
X120114666Y-124573232D03*
D15*
G36*
X222369608Y-107050963D02*
G01*
X222379363Y-107051924D01*
X222417810Y-107059572D01*
X222427189Y-107062417D01*
X222463416Y-107077423D01*
X222472061Y-107082044D01*
X222504664Y-107103830D01*
X222512240Y-107110048D01*
X222539952Y-107137760D01*
X222546170Y-107145336D01*
X222567956Y-107177939D01*
X222572577Y-107186584D01*
X222587583Y-107222811D01*
X222590428Y-107232190D01*
X222598076Y-107270637D01*
X222599037Y-107280392D01*
X222600000Y-107300000D01*
X222600000Y-107550000D01*
X223100000Y-107550000D01*
X223139018Y-107553843D01*
X223176537Y-107565224D01*
X223211114Y-107583706D01*
X223241421Y-107608579D01*
X223266294Y-107638886D01*
X223284776Y-107673463D01*
X223296157Y-107710982D01*
X223300000Y-107750000D01*
X223300000Y-109250000D01*
X223296157Y-109289018D01*
X223284776Y-109326537D01*
X223266294Y-109361114D01*
X223241421Y-109391421D01*
X223211114Y-109416294D01*
X223176537Y-109434776D01*
X223139018Y-109446157D01*
X223100000Y-109450000D01*
X222600000Y-109450000D01*
X222600000Y-109700000D01*
X222599037Y-109719608D01*
X222598076Y-109729363D01*
X222590428Y-109767810D01*
X222587583Y-109777189D01*
X222572577Y-109813416D01*
X222567956Y-109822061D01*
X222546170Y-109854664D01*
X222539952Y-109862240D01*
X222512240Y-109889952D01*
X222504664Y-109896170D01*
X222472061Y-109917956D01*
X222463416Y-109922577D01*
X222427189Y-109937583D01*
X222417810Y-109940428D01*
X222379363Y-109948076D01*
X222369608Y-109949037D01*
X222350000Y-109950000D01*
X220450000Y-109950000D01*
X220430392Y-109949037D01*
X220420637Y-109948076D01*
X220382190Y-109940428D01*
X220372811Y-109937583D01*
X220329116Y-109918377D01*
X220317015Y-109911226D01*
X220293826Y-109895217D01*
X219793826Y-109495217D01*
X219779130Y-109482228D01*
X219772113Y-109475385D01*
X219746841Y-109445362D01*
X219741295Y-109437280D01*
X219722398Y-109402961D01*
X219718534Y-109393953D01*
X219706684Y-109356575D01*
X219704652Y-109346987D01*
X219700612Y-109316588D01*
X219700306Y-109311066D01*
X219700000Y-109300000D01*
X219700000Y-107300000D01*
X219700963Y-107280392D01*
X219701924Y-107270637D01*
X219709572Y-107232190D01*
X219712417Y-107222811D01*
X219727423Y-107186584D01*
X219732044Y-107177939D01*
X219753830Y-107145336D01*
X219760048Y-107137760D01*
X219787760Y-107110048D01*
X219795336Y-107103830D01*
X219827939Y-107082044D01*
X219836584Y-107077423D01*
X219872811Y-107062417D01*
X219882190Y-107059572D01*
X219920637Y-107051924D01*
X219930392Y-107050963D01*
X219950000Y-107050000D01*
X222350000Y-107050000D01*
X222369608Y-107050963D01*
G37*
G36*
X209769608Y-109650963D02*
G01*
X209779363Y-109651924D01*
X209817810Y-109659572D01*
X209827189Y-109662417D01*
X209863416Y-109677423D01*
X209872061Y-109682044D01*
X209904664Y-109703830D01*
X209912240Y-109710048D01*
X209939952Y-109737760D01*
X209946170Y-109745336D01*
X209967956Y-109777939D01*
X209972577Y-109786584D01*
X209987583Y-109822811D01*
X209990428Y-109832190D01*
X209998076Y-109870637D01*
X209999037Y-109880392D01*
X210000000Y-109900000D01*
X210000000Y-112300000D01*
X209999037Y-112319608D01*
X209998076Y-112329363D01*
X209990428Y-112367810D01*
X209987583Y-112377189D01*
X209972577Y-112413416D01*
X209967956Y-112422061D01*
X209946170Y-112454664D01*
X209939952Y-112462240D01*
X209912240Y-112489952D01*
X209904664Y-112496170D01*
X209872061Y-112517956D01*
X209863416Y-112522577D01*
X209827189Y-112537583D01*
X209817810Y-112540428D01*
X209779363Y-112548076D01*
X209769608Y-112549037D01*
X209750000Y-112550000D01*
X207350000Y-112550000D01*
X207330392Y-112549037D01*
X207320637Y-112548076D01*
X207282190Y-112540428D01*
X207272811Y-112537583D01*
X207236584Y-112522577D01*
X207227939Y-112517956D01*
X207195336Y-112496170D01*
X207187760Y-112489952D01*
X207160048Y-112462240D01*
X207153830Y-112454664D01*
X207132044Y-112422061D01*
X207127423Y-112413416D01*
X207112417Y-112377189D01*
X207109572Y-112367810D01*
X207101924Y-112329363D01*
X207100963Y-112319608D01*
X207100000Y-112300000D01*
X207100000Y-112050000D01*
X206700000Y-112050000D01*
X206660982Y-112046157D01*
X206623463Y-112034776D01*
X206588886Y-112016294D01*
X206558579Y-111991421D01*
X206533706Y-111961114D01*
X206515224Y-111926537D01*
X206503843Y-111889018D01*
X206500000Y-111850000D01*
X206500000Y-110350000D01*
X206503843Y-110310982D01*
X206515224Y-110273463D01*
X206533706Y-110238886D01*
X206558579Y-110208579D01*
X206588886Y-110183706D01*
X206623463Y-110165224D01*
X206660982Y-110153843D01*
X206700000Y-110150000D01*
X207100000Y-110150000D01*
X207100000Y-109900000D01*
X207100963Y-109880392D01*
X207101924Y-109870637D01*
X207109572Y-109832190D01*
X207112417Y-109822811D01*
X207127423Y-109786584D01*
X207132044Y-109777939D01*
X207153830Y-109745336D01*
X207160048Y-109737760D01*
X207187760Y-109710048D01*
X207195336Y-109703830D01*
X207227939Y-109682044D01*
X207236584Y-109677423D01*
X207272811Y-109662417D01*
X207282190Y-109659572D01*
X207320637Y-109651924D01*
X207330392Y-109650963D01*
X207350000Y-109650000D01*
X209750000Y-109650000D01*
X209769608Y-109650963D01*
G37*
D16*
X211740000Y-111059999D03*
D17*
X210470000Y-113600000D03*
X220630000Y-113600000D03*
D18*
X215550000Y-113600000D03*
D16*
X218090000Y-108520000D03*
X213010000Y-108520000D03*
X219360000Y-111060000D03*
D15*
G36*
X203319608Y-107050963D02*
G01*
X203329363Y-107051924D01*
X203367810Y-107059572D01*
X203377189Y-107062417D01*
X203413416Y-107077423D01*
X203422061Y-107082044D01*
X203454664Y-107103830D01*
X203462240Y-107110048D01*
X203489952Y-107137760D01*
X203496170Y-107145336D01*
X203517956Y-107177939D01*
X203522577Y-107186584D01*
X203537583Y-107222811D01*
X203540428Y-107232190D01*
X203548076Y-107270637D01*
X203549037Y-107280392D01*
X203550000Y-107300000D01*
X203550000Y-107550000D01*
X204050000Y-107550000D01*
X204089018Y-107553843D01*
X204126537Y-107565224D01*
X204161114Y-107583706D01*
X204191421Y-107608579D01*
X204216294Y-107638886D01*
X204234776Y-107673463D01*
X204246157Y-107710982D01*
X204250000Y-107750000D01*
X204250000Y-109250000D01*
X204246157Y-109289018D01*
X204234776Y-109326537D01*
X204216294Y-109361114D01*
X204191421Y-109391421D01*
X204161114Y-109416294D01*
X204126537Y-109434776D01*
X204089018Y-109446157D01*
X204050000Y-109450000D01*
X203550000Y-109450000D01*
X203550000Y-109700000D01*
X203549037Y-109719608D01*
X203548076Y-109729363D01*
X203540428Y-109767810D01*
X203537583Y-109777189D01*
X203522577Y-109813416D01*
X203517956Y-109822061D01*
X203496170Y-109854664D01*
X203489952Y-109862240D01*
X203462240Y-109889952D01*
X203454664Y-109896170D01*
X203422061Y-109917956D01*
X203413416Y-109922577D01*
X203377189Y-109937583D01*
X203367810Y-109940428D01*
X203329363Y-109948076D01*
X203319608Y-109949037D01*
X203300000Y-109950000D01*
X201400000Y-109950000D01*
X201380392Y-109949037D01*
X201370637Y-109948076D01*
X201332190Y-109940428D01*
X201322811Y-109937583D01*
X201279116Y-109918377D01*
X201267015Y-109911226D01*
X201243826Y-109895217D01*
X200743826Y-109495217D01*
X200729130Y-109482228D01*
X200722113Y-109475385D01*
X200696841Y-109445362D01*
X200691295Y-109437280D01*
X200672398Y-109402961D01*
X200668534Y-109393953D01*
X200656684Y-109356575D01*
X200654652Y-109346987D01*
X200650612Y-109316588D01*
X200650306Y-109311066D01*
X200650000Y-109300000D01*
X200650000Y-107300000D01*
X200650963Y-107280392D01*
X200651924Y-107270637D01*
X200659572Y-107232190D01*
X200662417Y-107222811D01*
X200677423Y-107186584D01*
X200682044Y-107177939D01*
X200703830Y-107145336D01*
X200710048Y-107137760D01*
X200737760Y-107110048D01*
X200745336Y-107103830D01*
X200777939Y-107082044D01*
X200786584Y-107077423D01*
X200822811Y-107062417D01*
X200832190Y-107059572D01*
X200870637Y-107051924D01*
X200880392Y-107050963D01*
X200900000Y-107050000D01*
X203300000Y-107050000D01*
X203319608Y-107050963D01*
G37*
G36*
X190719608Y-109650963D02*
G01*
X190729363Y-109651924D01*
X190767810Y-109659572D01*
X190777189Y-109662417D01*
X190813416Y-109677423D01*
X190822061Y-109682044D01*
X190854664Y-109703830D01*
X190862240Y-109710048D01*
X190889952Y-109737760D01*
X190896170Y-109745336D01*
X190917956Y-109777939D01*
X190922577Y-109786584D01*
X190937583Y-109822811D01*
X190940428Y-109832190D01*
X190948076Y-109870637D01*
X190949037Y-109880392D01*
X190950000Y-109900000D01*
X190950000Y-112300000D01*
X190949037Y-112319608D01*
X190948076Y-112329363D01*
X190940428Y-112367810D01*
X190937583Y-112377189D01*
X190922577Y-112413416D01*
X190917956Y-112422061D01*
X190896170Y-112454664D01*
X190889952Y-112462240D01*
X190862240Y-112489952D01*
X190854664Y-112496170D01*
X190822061Y-112517956D01*
X190813416Y-112522577D01*
X190777189Y-112537583D01*
X190767810Y-112540428D01*
X190729363Y-112548076D01*
X190719608Y-112549037D01*
X190700000Y-112550000D01*
X188300000Y-112550000D01*
X188280392Y-112549037D01*
X188270637Y-112548076D01*
X188232190Y-112540428D01*
X188222811Y-112537583D01*
X188186584Y-112522577D01*
X188177939Y-112517956D01*
X188145336Y-112496170D01*
X188137760Y-112489952D01*
X188110048Y-112462240D01*
X188103830Y-112454664D01*
X188082044Y-112422061D01*
X188077423Y-112413416D01*
X188062417Y-112377189D01*
X188059572Y-112367810D01*
X188051924Y-112329363D01*
X188050963Y-112319608D01*
X188050000Y-112300000D01*
X188050000Y-112050000D01*
X187650000Y-112050000D01*
X187610982Y-112046157D01*
X187573463Y-112034776D01*
X187538886Y-112016294D01*
X187508579Y-111991421D01*
X187483706Y-111961114D01*
X187465224Y-111926537D01*
X187453843Y-111889018D01*
X187450000Y-111850000D01*
X187450000Y-110350000D01*
X187453843Y-110310982D01*
X187465224Y-110273463D01*
X187483706Y-110238886D01*
X187508579Y-110208579D01*
X187538886Y-110183706D01*
X187573463Y-110165224D01*
X187610982Y-110153843D01*
X187650000Y-110150000D01*
X188050000Y-110150000D01*
X188050000Y-109900000D01*
X188050963Y-109880392D01*
X188051924Y-109870637D01*
X188059572Y-109832190D01*
X188062417Y-109822811D01*
X188077423Y-109786584D01*
X188082044Y-109777939D01*
X188103830Y-109745336D01*
X188110048Y-109737760D01*
X188137760Y-109710048D01*
X188145336Y-109703830D01*
X188177939Y-109682044D01*
X188186584Y-109677423D01*
X188222811Y-109662417D01*
X188232190Y-109659572D01*
X188270637Y-109651924D01*
X188280392Y-109650963D01*
X188300000Y-109650000D01*
X190700000Y-109650000D01*
X190719608Y-109650963D01*
G37*
D16*
X192690000Y-111059999D03*
D17*
X191420000Y-113600000D03*
X201580000Y-113600000D03*
D18*
X196500000Y-113600000D03*
D16*
X199040000Y-108520000D03*
X193960000Y-108520000D03*
X200310000Y-111060000D03*
D15*
G36*
X184319608Y-98150963D02*
G01*
X184329363Y-98151924D01*
X184367810Y-98159572D01*
X184377189Y-98162417D01*
X184413416Y-98177423D01*
X184422061Y-98182044D01*
X184454664Y-98203830D01*
X184462240Y-98210048D01*
X184489952Y-98237760D01*
X184496170Y-98245336D01*
X184517956Y-98277939D01*
X184522577Y-98286584D01*
X184537583Y-98322811D01*
X184540428Y-98332190D01*
X184548076Y-98370637D01*
X184549037Y-98380392D01*
X184550000Y-98400000D01*
X184550000Y-98650000D01*
X185050000Y-98650000D01*
X185089018Y-98653843D01*
X185126537Y-98665224D01*
X185161114Y-98683706D01*
X185191421Y-98708579D01*
X185216294Y-98738886D01*
X185234776Y-98773463D01*
X185246157Y-98810982D01*
X185250000Y-98850000D01*
X185250000Y-100350000D01*
X185246157Y-100389018D01*
X185234776Y-100426537D01*
X185216294Y-100461114D01*
X185191421Y-100491421D01*
X185161114Y-100516294D01*
X185126537Y-100534776D01*
X185089018Y-100546157D01*
X185050000Y-100550000D01*
X184550000Y-100550000D01*
X184550000Y-100800000D01*
X184549037Y-100819608D01*
X184548076Y-100829363D01*
X184540428Y-100867810D01*
X184537583Y-100877189D01*
X184522577Y-100913416D01*
X184517956Y-100922061D01*
X184496170Y-100954664D01*
X184489952Y-100962240D01*
X184462240Y-100989952D01*
X184454664Y-100996170D01*
X184422061Y-101017956D01*
X184413416Y-101022577D01*
X184377189Y-101037583D01*
X184367810Y-101040428D01*
X184329363Y-101048076D01*
X184319608Y-101049037D01*
X184300000Y-101050000D01*
X182400000Y-101050000D01*
X182380392Y-101049037D01*
X182370637Y-101048076D01*
X182332190Y-101040428D01*
X182322811Y-101037583D01*
X182279116Y-101018377D01*
X182267015Y-101011226D01*
X182243826Y-100995217D01*
X181743826Y-100595217D01*
X181729130Y-100582228D01*
X181722113Y-100575385D01*
X181696841Y-100545362D01*
X181691295Y-100537280D01*
X181672398Y-100502961D01*
X181668534Y-100493953D01*
X181656684Y-100456575D01*
X181654652Y-100446987D01*
X181650612Y-100416588D01*
X181650306Y-100411066D01*
X181650000Y-100400000D01*
X181650000Y-98400000D01*
X181650963Y-98380392D01*
X181651924Y-98370637D01*
X181659572Y-98332190D01*
X181662417Y-98322811D01*
X181677423Y-98286584D01*
X181682044Y-98277939D01*
X181703830Y-98245336D01*
X181710048Y-98237760D01*
X181737760Y-98210048D01*
X181745336Y-98203830D01*
X181777939Y-98182044D01*
X181786584Y-98177423D01*
X181822811Y-98162417D01*
X181832190Y-98159572D01*
X181870637Y-98151924D01*
X181880392Y-98150963D01*
X181900000Y-98150000D01*
X184300000Y-98150000D01*
X184319608Y-98150963D01*
G37*
G36*
X171719608Y-100750963D02*
G01*
X171729363Y-100751924D01*
X171767810Y-100759572D01*
X171777189Y-100762417D01*
X171813416Y-100777423D01*
X171822061Y-100782044D01*
X171854664Y-100803830D01*
X171862240Y-100810048D01*
X171889952Y-100837760D01*
X171896170Y-100845336D01*
X171917956Y-100877939D01*
X171922577Y-100886584D01*
X171937583Y-100922811D01*
X171940428Y-100932190D01*
X171948076Y-100970637D01*
X171949037Y-100980392D01*
X171950000Y-101000000D01*
X171950000Y-103400000D01*
X171949037Y-103419608D01*
X171948076Y-103429363D01*
X171940428Y-103467810D01*
X171937583Y-103477189D01*
X171922577Y-103513416D01*
X171917956Y-103522061D01*
X171896170Y-103554664D01*
X171889952Y-103562240D01*
X171862240Y-103589952D01*
X171854664Y-103596170D01*
X171822061Y-103617956D01*
X171813416Y-103622577D01*
X171777189Y-103637583D01*
X171767810Y-103640428D01*
X171729363Y-103648076D01*
X171719608Y-103649037D01*
X171700000Y-103650000D01*
X169300000Y-103650000D01*
X169280392Y-103649037D01*
X169270637Y-103648076D01*
X169232190Y-103640428D01*
X169222811Y-103637583D01*
X169186584Y-103622577D01*
X169177939Y-103617956D01*
X169145336Y-103596170D01*
X169137760Y-103589952D01*
X169110048Y-103562240D01*
X169103830Y-103554664D01*
X169082044Y-103522061D01*
X169077423Y-103513416D01*
X169062417Y-103477189D01*
X169059572Y-103467810D01*
X169051924Y-103429363D01*
X169050963Y-103419608D01*
X169050000Y-103400000D01*
X169050000Y-103150000D01*
X168650000Y-103150000D01*
X168610982Y-103146157D01*
X168573463Y-103134776D01*
X168538886Y-103116294D01*
X168508579Y-103091421D01*
X168483706Y-103061114D01*
X168465224Y-103026537D01*
X168453843Y-102989018D01*
X168450000Y-102950000D01*
X168450000Y-101450000D01*
X168453843Y-101410982D01*
X168465224Y-101373463D01*
X168483706Y-101338886D01*
X168508579Y-101308579D01*
X168538886Y-101283706D01*
X168573463Y-101265224D01*
X168610982Y-101253843D01*
X168650000Y-101250000D01*
X169050000Y-101250000D01*
X169050000Y-101000000D01*
X169050963Y-100980392D01*
X169051924Y-100970637D01*
X169059572Y-100932190D01*
X169062417Y-100922811D01*
X169077423Y-100886584D01*
X169082044Y-100877939D01*
X169103830Y-100845336D01*
X169110048Y-100837760D01*
X169137760Y-100810048D01*
X169145336Y-100803830D01*
X169177939Y-100782044D01*
X169186584Y-100777423D01*
X169222811Y-100762417D01*
X169232190Y-100759572D01*
X169270637Y-100751924D01*
X169280392Y-100750963D01*
X169300000Y-100750000D01*
X171700000Y-100750000D01*
X171719608Y-100750963D01*
G37*
D16*
X173690000Y-102159999D03*
D17*
X172420000Y-104700000D03*
X182580000Y-104700000D03*
D18*
X177500000Y-104700000D03*
D16*
X180040000Y-99620000D03*
X174960000Y-99620000D03*
X181310000Y-102160000D03*
D15*
G36*
X165319608Y-95650963D02*
G01*
X165329363Y-95651924D01*
X165367810Y-95659572D01*
X165377189Y-95662417D01*
X165413416Y-95677423D01*
X165422061Y-95682044D01*
X165454664Y-95703830D01*
X165462240Y-95710048D01*
X165489952Y-95737760D01*
X165496170Y-95745336D01*
X165517956Y-95777939D01*
X165522577Y-95786584D01*
X165537583Y-95822811D01*
X165540428Y-95832190D01*
X165548076Y-95870637D01*
X165549037Y-95880392D01*
X165550000Y-95900000D01*
X165550000Y-96150000D01*
X166050000Y-96150000D01*
X166089018Y-96153843D01*
X166126537Y-96165224D01*
X166161114Y-96183706D01*
X166191421Y-96208579D01*
X166216294Y-96238886D01*
X166234776Y-96273463D01*
X166246157Y-96310982D01*
X166250000Y-96350000D01*
X166250000Y-97850000D01*
X166246157Y-97889018D01*
X166234776Y-97926537D01*
X166216294Y-97961114D01*
X166191421Y-97991421D01*
X166161114Y-98016294D01*
X166126537Y-98034776D01*
X166089018Y-98046157D01*
X166050000Y-98050000D01*
X165550000Y-98050000D01*
X165550000Y-98300000D01*
X165549037Y-98319608D01*
X165548076Y-98329363D01*
X165540428Y-98367810D01*
X165537583Y-98377189D01*
X165522577Y-98413416D01*
X165517956Y-98422061D01*
X165496170Y-98454664D01*
X165489952Y-98462240D01*
X165462240Y-98489952D01*
X165454664Y-98496170D01*
X165422061Y-98517956D01*
X165413416Y-98522577D01*
X165377189Y-98537583D01*
X165367810Y-98540428D01*
X165329363Y-98548076D01*
X165319608Y-98549037D01*
X165300000Y-98550000D01*
X163400000Y-98550000D01*
X163380392Y-98549037D01*
X163370637Y-98548076D01*
X163332190Y-98540428D01*
X163322811Y-98537583D01*
X163279116Y-98518377D01*
X163267015Y-98511226D01*
X163243826Y-98495217D01*
X162743826Y-98095217D01*
X162729130Y-98082228D01*
X162722113Y-98075385D01*
X162696841Y-98045362D01*
X162691295Y-98037280D01*
X162672398Y-98002961D01*
X162668534Y-97993953D01*
X162656684Y-97956575D01*
X162654652Y-97946987D01*
X162650612Y-97916588D01*
X162650306Y-97911066D01*
X162650000Y-97900000D01*
X162650000Y-95900000D01*
X162650963Y-95880392D01*
X162651924Y-95870637D01*
X162659572Y-95832190D01*
X162662417Y-95822811D01*
X162677423Y-95786584D01*
X162682044Y-95777939D01*
X162703830Y-95745336D01*
X162710048Y-95737760D01*
X162737760Y-95710048D01*
X162745336Y-95703830D01*
X162777939Y-95682044D01*
X162786584Y-95677423D01*
X162822811Y-95662417D01*
X162832190Y-95659572D01*
X162870637Y-95651924D01*
X162880392Y-95650963D01*
X162900000Y-95650000D01*
X165300000Y-95650000D01*
X165319608Y-95650963D01*
G37*
G36*
X152719608Y-98250963D02*
G01*
X152729363Y-98251924D01*
X152767810Y-98259572D01*
X152777189Y-98262417D01*
X152813416Y-98277423D01*
X152822061Y-98282044D01*
X152854664Y-98303830D01*
X152862240Y-98310048D01*
X152889952Y-98337760D01*
X152896170Y-98345336D01*
X152917956Y-98377939D01*
X152922577Y-98386584D01*
X152937583Y-98422811D01*
X152940428Y-98432190D01*
X152948076Y-98470637D01*
X152949037Y-98480392D01*
X152950000Y-98500000D01*
X152950000Y-100900000D01*
X152949037Y-100919608D01*
X152948076Y-100929363D01*
X152940428Y-100967810D01*
X152937583Y-100977189D01*
X152922577Y-101013416D01*
X152917956Y-101022061D01*
X152896170Y-101054664D01*
X152889952Y-101062240D01*
X152862240Y-101089952D01*
X152854664Y-101096170D01*
X152822061Y-101117956D01*
X152813416Y-101122577D01*
X152777189Y-101137583D01*
X152767810Y-101140428D01*
X152729363Y-101148076D01*
X152719608Y-101149037D01*
X152700000Y-101150000D01*
X150300000Y-101150000D01*
X150280392Y-101149037D01*
X150270637Y-101148076D01*
X150232190Y-101140428D01*
X150222811Y-101137583D01*
X150186584Y-101122577D01*
X150177939Y-101117956D01*
X150145336Y-101096170D01*
X150137760Y-101089952D01*
X150110048Y-101062240D01*
X150103830Y-101054664D01*
X150082044Y-101022061D01*
X150077423Y-101013416D01*
X150062417Y-100977189D01*
X150059572Y-100967810D01*
X150051924Y-100929363D01*
X150050963Y-100919608D01*
X150050000Y-100900000D01*
X150050000Y-100650000D01*
X149650000Y-100650000D01*
X149610982Y-100646157D01*
X149573463Y-100634776D01*
X149538886Y-100616294D01*
X149508579Y-100591421D01*
X149483706Y-100561114D01*
X149465224Y-100526537D01*
X149453843Y-100489018D01*
X149450000Y-100450000D01*
X149450000Y-98950000D01*
X149453843Y-98910982D01*
X149465224Y-98873463D01*
X149483706Y-98838886D01*
X149508579Y-98808579D01*
X149538886Y-98783706D01*
X149573463Y-98765224D01*
X149610982Y-98753843D01*
X149650000Y-98750000D01*
X150050000Y-98750000D01*
X150050000Y-98500000D01*
X150050963Y-98480392D01*
X150051924Y-98470637D01*
X150059572Y-98432190D01*
X150062417Y-98422811D01*
X150077423Y-98386584D01*
X150082044Y-98377939D01*
X150103830Y-98345336D01*
X150110048Y-98337760D01*
X150137760Y-98310048D01*
X150145336Y-98303830D01*
X150177939Y-98282044D01*
X150186584Y-98277423D01*
X150222811Y-98262417D01*
X150232190Y-98259572D01*
X150270637Y-98251924D01*
X150280392Y-98250963D01*
X150300000Y-98250000D01*
X152700000Y-98250000D01*
X152719608Y-98250963D01*
G37*
D16*
X154690000Y-99659999D03*
D17*
X153420000Y-102200000D03*
X163580000Y-102200000D03*
D18*
X158500000Y-102200000D03*
D16*
X161040000Y-97120000D03*
X155960000Y-97120000D03*
X162310000Y-99660000D03*
D15*
G36*
X146319608Y-98150963D02*
G01*
X146329363Y-98151924D01*
X146367810Y-98159572D01*
X146377189Y-98162417D01*
X146413416Y-98177423D01*
X146422061Y-98182044D01*
X146454664Y-98203830D01*
X146462240Y-98210048D01*
X146489952Y-98237760D01*
X146496170Y-98245336D01*
X146517956Y-98277939D01*
X146522577Y-98286584D01*
X146537583Y-98322811D01*
X146540428Y-98332190D01*
X146548076Y-98370637D01*
X146549037Y-98380392D01*
X146550000Y-98400000D01*
X146550000Y-98650000D01*
X147050000Y-98650000D01*
X147089018Y-98653843D01*
X147126537Y-98665224D01*
X147161114Y-98683706D01*
X147191421Y-98708579D01*
X147216294Y-98738886D01*
X147234776Y-98773463D01*
X147246157Y-98810982D01*
X147250000Y-98850000D01*
X147250000Y-100350000D01*
X147246157Y-100389018D01*
X147234776Y-100426537D01*
X147216294Y-100461114D01*
X147191421Y-100491421D01*
X147161114Y-100516294D01*
X147126537Y-100534776D01*
X147089018Y-100546157D01*
X147050000Y-100550000D01*
X146550000Y-100550000D01*
X146550000Y-100800000D01*
X146549037Y-100819608D01*
X146548076Y-100829363D01*
X146540428Y-100867810D01*
X146537583Y-100877189D01*
X146522577Y-100913416D01*
X146517956Y-100922061D01*
X146496170Y-100954664D01*
X146489952Y-100962240D01*
X146462240Y-100989952D01*
X146454664Y-100996170D01*
X146422061Y-101017956D01*
X146413416Y-101022577D01*
X146377189Y-101037583D01*
X146367810Y-101040428D01*
X146329363Y-101048076D01*
X146319608Y-101049037D01*
X146300000Y-101050000D01*
X144400000Y-101050000D01*
X144380392Y-101049037D01*
X144370637Y-101048076D01*
X144332190Y-101040428D01*
X144322811Y-101037583D01*
X144279116Y-101018377D01*
X144267015Y-101011226D01*
X144243826Y-100995217D01*
X143743826Y-100595217D01*
X143729130Y-100582228D01*
X143722113Y-100575385D01*
X143696841Y-100545362D01*
X143691295Y-100537280D01*
X143672398Y-100502961D01*
X143668534Y-100493953D01*
X143656684Y-100456575D01*
X143654652Y-100446987D01*
X143650612Y-100416588D01*
X143650306Y-100411066D01*
X143650000Y-100400000D01*
X143650000Y-98400000D01*
X143650963Y-98380392D01*
X143651924Y-98370637D01*
X143659572Y-98332190D01*
X143662417Y-98322811D01*
X143677423Y-98286584D01*
X143682044Y-98277939D01*
X143703830Y-98245336D01*
X143710048Y-98237760D01*
X143737760Y-98210048D01*
X143745336Y-98203830D01*
X143777939Y-98182044D01*
X143786584Y-98177423D01*
X143822811Y-98162417D01*
X143832190Y-98159572D01*
X143870637Y-98151924D01*
X143880392Y-98150963D01*
X143900000Y-98150000D01*
X146300000Y-98150000D01*
X146319608Y-98150963D01*
G37*
G36*
X133719608Y-100750963D02*
G01*
X133729363Y-100751924D01*
X133767810Y-100759572D01*
X133777189Y-100762417D01*
X133813416Y-100777423D01*
X133822061Y-100782044D01*
X133854664Y-100803830D01*
X133862240Y-100810048D01*
X133889952Y-100837760D01*
X133896170Y-100845336D01*
X133917956Y-100877939D01*
X133922577Y-100886584D01*
X133937583Y-100922811D01*
X133940428Y-100932190D01*
X133948076Y-100970637D01*
X133949037Y-100980392D01*
X133950000Y-101000000D01*
X133950000Y-103400000D01*
X133949037Y-103419608D01*
X133948076Y-103429363D01*
X133940428Y-103467810D01*
X133937583Y-103477189D01*
X133922577Y-103513416D01*
X133917956Y-103522061D01*
X133896170Y-103554664D01*
X133889952Y-103562240D01*
X133862240Y-103589952D01*
X133854664Y-103596170D01*
X133822061Y-103617956D01*
X133813416Y-103622577D01*
X133777189Y-103637583D01*
X133767810Y-103640428D01*
X133729363Y-103648076D01*
X133719608Y-103649037D01*
X133700000Y-103650000D01*
X131300000Y-103650000D01*
X131280392Y-103649037D01*
X131270637Y-103648076D01*
X131232190Y-103640428D01*
X131222811Y-103637583D01*
X131186584Y-103622577D01*
X131177939Y-103617956D01*
X131145336Y-103596170D01*
X131137760Y-103589952D01*
X131110048Y-103562240D01*
X131103830Y-103554664D01*
X131082044Y-103522061D01*
X131077423Y-103513416D01*
X131062417Y-103477189D01*
X131059572Y-103467810D01*
X131051924Y-103429363D01*
X131050963Y-103419608D01*
X131050000Y-103400000D01*
X131050000Y-103150000D01*
X130650000Y-103150000D01*
X130610982Y-103146157D01*
X130573463Y-103134776D01*
X130538886Y-103116294D01*
X130508579Y-103091421D01*
X130483706Y-103061114D01*
X130465224Y-103026537D01*
X130453843Y-102989018D01*
X130450000Y-102950000D01*
X130450000Y-101450000D01*
X130453843Y-101410982D01*
X130465224Y-101373463D01*
X130483706Y-101338886D01*
X130508579Y-101308579D01*
X130538886Y-101283706D01*
X130573463Y-101265224D01*
X130610982Y-101253843D01*
X130650000Y-101250000D01*
X131050000Y-101250000D01*
X131050000Y-101000000D01*
X131050963Y-100980392D01*
X131051924Y-100970637D01*
X131059572Y-100932190D01*
X131062417Y-100922811D01*
X131077423Y-100886584D01*
X131082044Y-100877939D01*
X131103830Y-100845336D01*
X131110048Y-100837760D01*
X131137760Y-100810048D01*
X131145336Y-100803830D01*
X131177939Y-100782044D01*
X131186584Y-100777423D01*
X131222811Y-100762417D01*
X131232190Y-100759572D01*
X131270637Y-100751924D01*
X131280392Y-100750963D01*
X131300000Y-100750000D01*
X133700000Y-100750000D01*
X133719608Y-100750963D01*
G37*
D16*
X135690000Y-102159999D03*
D17*
X134420000Y-104700000D03*
X144580000Y-104700000D03*
D18*
X139500000Y-104700000D03*
D16*
X142040000Y-99620000D03*
X136960000Y-99620000D03*
X143310000Y-102160000D03*
D15*
G36*
X127319608Y-100550963D02*
G01*
X127329363Y-100551924D01*
X127367810Y-100559572D01*
X127377189Y-100562417D01*
X127413416Y-100577423D01*
X127422061Y-100582044D01*
X127454664Y-100603830D01*
X127462240Y-100610048D01*
X127489952Y-100637760D01*
X127496170Y-100645336D01*
X127517956Y-100677939D01*
X127522577Y-100686584D01*
X127537583Y-100722811D01*
X127540428Y-100732190D01*
X127548076Y-100770637D01*
X127549037Y-100780392D01*
X127550000Y-100800000D01*
X127550000Y-101050000D01*
X128050000Y-101050000D01*
X128089018Y-101053843D01*
X128126537Y-101065224D01*
X128161114Y-101083706D01*
X128191421Y-101108579D01*
X128216294Y-101138886D01*
X128234776Y-101173463D01*
X128246157Y-101210982D01*
X128250000Y-101250000D01*
X128250000Y-102750000D01*
X128246157Y-102789018D01*
X128234776Y-102826537D01*
X128216294Y-102861114D01*
X128191421Y-102891421D01*
X128161114Y-102916294D01*
X128126537Y-102934776D01*
X128089018Y-102946157D01*
X128050000Y-102950000D01*
X127550000Y-102950000D01*
X127550000Y-103200000D01*
X127549037Y-103219608D01*
X127548076Y-103229363D01*
X127540428Y-103267810D01*
X127537583Y-103277189D01*
X127522577Y-103313416D01*
X127517956Y-103322061D01*
X127496170Y-103354664D01*
X127489952Y-103362240D01*
X127462240Y-103389952D01*
X127454664Y-103396170D01*
X127422061Y-103417956D01*
X127413416Y-103422577D01*
X127377189Y-103437583D01*
X127367810Y-103440428D01*
X127329363Y-103448076D01*
X127319608Y-103449037D01*
X127300000Y-103450000D01*
X125400000Y-103450000D01*
X125380392Y-103449037D01*
X125370637Y-103448076D01*
X125332190Y-103440428D01*
X125322811Y-103437583D01*
X125279116Y-103418377D01*
X125267015Y-103411226D01*
X125243826Y-103395217D01*
X124743826Y-102995217D01*
X124729130Y-102982228D01*
X124722113Y-102975385D01*
X124696841Y-102945362D01*
X124691295Y-102937280D01*
X124672398Y-102902961D01*
X124668534Y-102893953D01*
X124656684Y-102856575D01*
X124654652Y-102846987D01*
X124650612Y-102816588D01*
X124650306Y-102811066D01*
X124650000Y-102800000D01*
X124650000Y-100800000D01*
X124650963Y-100780392D01*
X124651924Y-100770637D01*
X124659572Y-100732190D01*
X124662417Y-100722811D01*
X124677423Y-100686584D01*
X124682044Y-100677939D01*
X124703830Y-100645336D01*
X124710048Y-100637760D01*
X124737760Y-100610048D01*
X124745336Y-100603830D01*
X124777939Y-100582044D01*
X124786584Y-100577423D01*
X124822811Y-100562417D01*
X124832190Y-100559572D01*
X124870637Y-100551924D01*
X124880392Y-100550963D01*
X124900000Y-100550000D01*
X127300000Y-100550000D01*
X127319608Y-100550963D01*
G37*
G36*
X114719608Y-103150963D02*
G01*
X114729363Y-103151924D01*
X114767810Y-103159572D01*
X114777189Y-103162417D01*
X114813416Y-103177423D01*
X114822061Y-103182044D01*
X114854664Y-103203830D01*
X114862240Y-103210048D01*
X114889952Y-103237760D01*
X114896170Y-103245336D01*
X114917956Y-103277939D01*
X114922577Y-103286584D01*
X114937583Y-103322811D01*
X114940428Y-103332190D01*
X114948076Y-103370637D01*
X114949037Y-103380392D01*
X114950000Y-103400000D01*
X114950000Y-105800000D01*
X114949037Y-105819608D01*
X114948076Y-105829363D01*
X114940428Y-105867810D01*
X114937583Y-105877189D01*
X114922577Y-105913416D01*
X114917956Y-105922061D01*
X114896170Y-105954664D01*
X114889952Y-105962240D01*
X114862240Y-105989952D01*
X114854664Y-105996170D01*
X114822061Y-106017956D01*
X114813416Y-106022577D01*
X114777189Y-106037583D01*
X114767810Y-106040428D01*
X114729363Y-106048076D01*
X114719608Y-106049037D01*
X114700000Y-106050000D01*
X112300000Y-106050000D01*
X112280392Y-106049037D01*
X112270637Y-106048076D01*
X112232190Y-106040428D01*
X112222811Y-106037583D01*
X112186584Y-106022577D01*
X112177939Y-106017956D01*
X112145336Y-105996170D01*
X112137760Y-105989952D01*
X112110048Y-105962240D01*
X112103830Y-105954664D01*
X112082044Y-105922061D01*
X112077423Y-105913416D01*
X112062417Y-105877189D01*
X112059572Y-105867810D01*
X112051924Y-105829363D01*
X112050963Y-105819608D01*
X112050000Y-105800000D01*
X112050000Y-105550000D01*
X111650000Y-105550000D01*
X111610982Y-105546157D01*
X111573463Y-105534776D01*
X111538886Y-105516294D01*
X111508579Y-105491421D01*
X111483706Y-105461114D01*
X111465224Y-105426537D01*
X111453843Y-105389018D01*
X111450000Y-105350000D01*
X111450000Y-103850000D01*
X111453843Y-103810982D01*
X111465224Y-103773463D01*
X111483706Y-103738886D01*
X111508579Y-103708579D01*
X111538886Y-103683706D01*
X111573463Y-103665224D01*
X111610982Y-103653843D01*
X111650000Y-103650000D01*
X112050000Y-103650000D01*
X112050000Y-103400000D01*
X112050963Y-103380392D01*
X112051924Y-103370637D01*
X112059572Y-103332190D01*
X112062417Y-103322811D01*
X112077423Y-103286584D01*
X112082044Y-103277939D01*
X112103830Y-103245336D01*
X112110048Y-103237760D01*
X112137760Y-103210048D01*
X112145336Y-103203830D01*
X112177939Y-103182044D01*
X112186584Y-103177423D01*
X112222811Y-103162417D01*
X112232190Y-103159572D01*
X112270637Y-103151924D01*
X112280392Y-103150963D01*
X112300000Y-103150000D01*
X114700000Y-103150000D01*
X114719608Y-103150963D01*
G37*
D16*
X116690000Y-104559999D03*
D17*
X115420000Y-107100000D03*
X125580000Y-107100000D03*
D18*
X120500000Y-107100000D03*
D16*
X123040000Y-102020000D03*
X117960000Y-102020000D03*
X124310000Y-104560000D03*
D15*
G36*
X222319608Y-88050963D02*
G01*
X222329363Y-88051924D01*
X222367810Y-88059572D01*
X222377189Y-88062417D01*
X222413416Y-88077423D01*
X222422061Y-88082044D01*
X222454664Y-88103830D01*
X222462240Y-88110048D01*
X222489952Y-88137760D01*
X222496170Y-88145336D01*
X222517956Y-88177939D01*
X222522577Y-88186584D01*
X222537583Y-88222811D01*
X222540428Y-88232190D01*
X222548076Y-88270637D01*
X222549037Y-88280392D01*
X222550000Y-88300000D01*
X222550000Y-88550000D01*
X223050000Y-88550000D01*
X223089018Y-88553843D01*
X223126537Y-88565224D01*
X223161114Y-88583706D01*
X223191421Y-88608579D01*
X223216294Y-88638886D01*
X223234776Y-88673463D01*
X223246157Y-88710982D01*
X223250000Y-88750000D01*
X223250000Y-90250000D01*
X223246157Y-90289018D01*
X223234776Y-90326537D01*
X223216294Y-90361114D01*
X223191421Y-90391421D01*
X223161114Y-90416294D01*
X223126537Y-90434776D01*
X223089018Y-90446157D01*
X223050000Y-90450000D01*
X222550000Y-90450000D01*
X222550000Y-90700000D01*
X222549037Y-90719608D01*
X222548076Y-90729363D01*
X222540428Y-90767810D01*
X222537583Y-90777189D01*
X222522577Y-90813416D01*
X222517956Y-90822061D01*
X222496170Y-90854664D01*
X222489952Y-90862240D01*
X222462240Y-90889952D01*
X222454664Y-90896170D01*
X222422061Y-90917956D01*
X222413416Y-90922577D01*
X222377189Y-90937583D01*
X222367810Y-90940428D01*
X222329363Y-90948076D01*
X222319608Y-90949037D01*
X222300000Y-90950000D01*
X220400000Y-90950000D01*
X220380392Y-90949037D01*
X220370637Y-90948076D01*
X220332190Y-90940428D01*
X220322811Y-90937583D01*
X220279116Y-90918377D01*
X220267015Y-90911226D01*
X220243826Y-90895217D01*
X219743826Y-90495217D01*
X219729130Y-90482228D01*
X219722113Y-90475385D01*
X219696841Y-90445362D01*
X219691295Y-90437280D01*
X219672398Y-90402961D01*
X219668534Y-90393953D01*
X219656684Y-90356575D01*
X219654652Y-90346987D01*
X219650612Y-90316588D01*
X219650306Y-90311066D01*
X219650000Y-90300000D01*
X219650000Y-88300000D01*
X219650963Y-88280392D01*
X219651924Y-88270637D01*
X219659572Y-88232190D01*
X219662417Y-88222811D01*
X219677423Y-88186584D01*
X219682044Y-88177939D01*
X219703830Y-88145336D01*
X219710048Y-88137760D01*
X219737760Y-88110048D01*
X219745336Y-88103830D01*
X219777939Y-88082044D01*
X219786584Y-88077423D01*
X219822811Y-88062417D01*
X219832190Y-88059572D01*
X219870637Y-88051924D01*
X219880392Y-88050963D01*
X219900000Y-88050000D01*
X222300000Y-88050000D01*
X222319608Y-88050963D01*
G37*
G36*
X209719608Y-90650963D02*
G01*
X209729363Y-90651924D01*
X209767810Y-90659572D01*
X209777189Y-90662417D01*
X209813416Y-90677423D01*
X209822061Y-90682044D01*
X209854664Y-90703830D01*
X209862240Y-90710048D01*
X209889952Y-90737760D01*
X209896170Y-90745336D01*
X209917956Y-90777939D01*
X209922577Y-90786584D01*
X209937583Y-90822811D01*
X209940428Y-90832190D01*
X209948076Y-90870637D01*
X209949037Y-90880392D01*
X209950000Y-90900000D01*
X209950000Y-93300000D01*
X209949037Y-93319608D01*
X209948076Y-93329363D01*
X209940428Y-93367810D01*
X209937583Y-93377189D01*
X209922577Y-93413416D01*
X209917956Y-93422061D01*
X209896170Y-93454664D01*
X209889952Y-93462240D01*
X209862240Y-93489952D01*
X209854664Y-93496170D01*
X209822061Y-93517956D01*
X209813416Y-93522577D01*
X209777189Y-93537583D01*
X209767810Y-93540428D01*
X209729363Y-93548076D01*
X209719608Y-93549037D01*
X209700000Y-93550000D01*
X207300000Y-93550000D01*
X207280392Y-93549037D01*
X207270637Y-93548076D01*
X207232190Y-93540428D01*
X207222811Y-93537583D01*
X207186584Y-93522577D01*
X207177939Y-93517956D01*
X207145336Y-93496170D01*
X207137760Y-93489952D01*
X207110048Y-93462240D01*
X207103830Y-93454664D01*
X207082044Y-93422061D01*
X207077423Y-93413416D01*
X207062417Y-93377189D01*
X207059572Y-93367810D01*
X207051924Y-93329363D01*
X207050963Y-93319608D01*
X207050000Y-93300000D01*
X207050000Y-93050000D01*
X206650000Y-93050000D01*
X206610982Y-93046157D01*
X206573463Y-93034776D01*
X206538886Y-93016294D01*
X206508579Y-92991421D01*
X206483706Y-92961114D01*
X206465224Y-92926537D01*
X206453843Y-92889018D01*
X206450000Y-92850000D01*
X206450000Y-91350000D01*
X206453843Y-91310982D01*
X206465224Y-91273463D01*
X206483706Y-91238886D01*
X206508579Y-91208579D01*
X206538886Y-91183706D01*
X206573463Y-91165224D01*
X206610982Y-91153843D01*
X206650000Y-91150000D01*
X207050000Y-91150000D01*
X207050000Y-90900000D01*
X207050963Y-90880392D01*
X207051924Y-90870637D01*
X207059572Y-90832190D01*
X207062417Y-90822811D01*
X207077423Y-90786584D01*
X207082044Y-90777939D01*
X207103830Y-90745336D01*
X207110048Y-90737760D01*
X207137760Y-90710048D01*
X207145336Y-90703830D01*
X207177939Y-90682044D01*
X207186584Y-90677423D01*
X207222811Y-90662417D01*
X207232190Y-90659572D01*
X207270637Y-90651924D01*
X207280392Y-90650963D01*
X207300000Y-90650000D01*
X209700000Y-90650000D01*
X209719608Y-90650963D01*
G37*
D16*
X211690000Y-92059999D03*
D17*
X210420000Y-94600000D03*
X220580000Y-94600000D03*
D18*
X215500000Y-94600000D03*
D16*
X218040000Y-89520000D03*
X212960000Y-89520000D03*
X219310000Y-92060000D03*
D15*
G36*
X203319608Y-88050963D02*
G01*
X203329363Y-88051924D01*
X203367810Y-88059572D01*
X203377189Y-88062417D01*
X203413416Y-88077423D01*
X203422061Y-88082044D01*
X203454664Y-88103830D01*
X203462240Y-88110048D01*
X203489952Y-88137760D01*
X203496170Y-88145336D01*
X203517956Y-88177939D01*
X203522577Y-88186584D01*
X203537583Y-88222811D01*
X203540428Y-88232190D01*
X203548076Y-88270637D01*
X203549037Y-88280392D01*
X203550000Y-88300000D01*
X203550000Y-88550000D01*
X204050000Y-88550000D01*
X204089018Y-88553843D01*
X204126537Y-88565224D01*
X204161114Y-88583706D01*
X204191421Y-88608579D01*
X204216294Y-88638886D01*
X204234776Y-88673463D01*
X204246157Y-88710982D01*
X204250000Y-88750000D01*
X204250000Y-90250000D01*
X204246157Y-90289018D01*
X204234776Y-90326537D01*
X204216294Y-90361114D01*
X204191421Y-90391421D01*
X204161114Y-90416294D01*
X204126537Y-90434776D01*
X204089018Y-90446157D01*
X204050000Y-90450000D01*
X203550000Y-90450000D01*
X203550000Y-90700000D01*
X203549037Y-90719608D01*
X203548076Y-90729363D01*
X203540428Y-90767810D01*
X203537583Y-90777189D01*
X203522577Y-90813416D01*
X203517956Y-90822061D01*
X203496170Y-90854664D01*
X203489952Y-90862240D01*
X203462240Y-90889952D01*
X203454664Y-90896170D01*
X203422061Y-90917956D01*
X203413416Y-90922577D01*
X203377189Y-90937583D01*
X203367810Y-90940428D01*
X203329363Y-90948076D01*
X203319608Y-90949037D01*
X203300000Y-90950000D01*
X201400000Y-90950000D01*
X201380392Y-90949037D01*
X201370637Y-90948076D01*
X201332190Y-90940428D01*
X201322811Y-90937583D01*
X201279116Y-90918377D01*
X201267015Y-90911226D01*
X201243826Y-90895217D01*
X200743826Y-90495217D01*
X200729130Y-90482228D01*
X200722113Y-90475385D01*
X200696841Y-90445362D01*
X200691295Y-90437280D01*
X200672398Y-90402961D01*
X200668534Y-90393953D01*
X200656684Y-90356575D01*
X200654652Y-90346987D01*
X200650612Y-90316588D01*
X200650306Y-90311066D01*
X200650000Y-90300000D01*
X200650000Y-88300000D01*
X200650963Y-88280392D01*
X200651924Y-88270637D01*
X200659572Y-88232190D01*
X200662417Y-88222811D01*
X200677423Y-88186584D01*
X200682044Y-88177939D01*
X200703830Y-88145336D01*
X200710048Y-88137760D01*
X200737760Y-88110048D01*
X200745336Y-88103830D01*
X200777939Y-88082044D01*
X200786584Y-88077423D01*
X200822811Y-88062417D01*
X200832190Y-88059572D01*
X200870637Y-88051924D01*
X200880392Y-88050963D01*
X200900000Y-88050000D01*
X203300000Y-88050000D01*
X203319608Y-88050963D01*
G37*
G36*
X190719608Y-90650963D02*
G01*
X190729363Y-90651924D01*
X190767810Y-90659572D01*
X190777189Y-90662417D01*
X190813416Y-90677423D01*
X190822061Y-90682044D01*
X190854664Y-90703830D01*
X190862240Y-90710048D01*
X190889952Y-90737760D01*
X190896170Y-90745336D01*
X190917956Y-90777939D01*
X190922577Y-90786584D01*
X190937583Y-90822811D01*
X190940428Y-90832190D01*
X190948076Y-90870637D01*
X190949037Y-90880392D01*
X190950000Y-90900000D01*
X190950000Y-93300000D01*
X190949037Y-93319608D01*
X190948076Y-93329363D01*
X190940428Y-93367810D01*
X190937583Y-93377189D01*
X190922577Y-93413416D01*
X190917956Y-93422061D01*
X190896170Y-93454664D01*
X190889952Y-93462240D01*
X190862240Y-93489952D01*
X190854664Y-93496170D01*
X190822061Y-93517956D01*
X190813416Y-93522577D01*
X190777189Y-93537583D01*
X190767810Y-93540428D01*
X190729363Y-93548076D01*
X190719608Y-93549037D01*
X190700000Y-93550000D01*
X188300000Y-93550000D01*
X188280392Y-93549037D01*
X188270637Y-93548076D01*
X188232190Y-93540428D01*
X188222811Y-93537583D01*
X188186584Y-93522577D01*
X188177939Y-93517956D01*
X188145336Y-93496170D01*
X188137760Y-93489952D01*
X188110048Y-93462240D01*
X188103830Y-93454664D01*
X188082044Y-93422061D01*
X188077423Y-93413416D01*
X188062417Y-93377189D01*
X188059572Y-93367810D01*
X188051924Y-93329363D01*
X188050963Y-93319608D01*
X188050000Y-93300000D01*
X188050000Y-93050000D01*
X187650000Y-93050000D01*
X187610982Y-93046157D01*
X187573463Y-93034776D01*
X187538886Y-93016294D01*
X187508579Y-92991421D01*
X187483706Y-92961114D01*
X187465224Y-92926537D01*
X187453843Y-92889018D01*
X187450000Y-92850000D01*
X187450000Y-91350000D01*
X187453843Y-91310982D01*
X187465224Y-91273463D01*
X187483706Y-91238886D01*
X187508579Y-91208579D01*
X187538886Y-91183706D01*
X187573463Y-91165224D01*
X187610982Y-91153843D01*
X187650000Y-91150000D01*
X188050000Y-91150000D01*
X188050000Y-90900000D01*
X188050963Y-90880392D01*
X188051924Y-90870637D01*
X188059572Y-90832190D01*
X188062417Y-90822811D01*
X188077423Y-90786584D01*
X188082044Y-90777939D01*
X188103830Y-90745336D01*
X188110048Y-90737760D01*
X188137760Y-90710048D01*
X188145336Y-90703830D01*
X188177939Y-90682044D01*
X188186584Y-90677423D01*
X188222811Y-90662417D01*
X188232190Y-90659572D01*
X188270637Y-90651924D01*
X188280392Y-90650963D01*
X188300000Y-90650000D01*
X190700000Y-90650000D01*
X190719608Y-90650963D01*
G37*
D16*
X192690000Y-92059999D03*
D17*
X191420000Y-94600000D03*
X201580000Y-94600000D03*
D18*
X196500000Y-94600000D03*
D16*
X199040000Y-89520000D03*
X193960000Y-89520000D03*
X200310000Y-92060000D03*
D15*
G36*
X184319608Y-79050963D02*
G01*
X184329363Y-79051924D01*
X184367810Y-79059572D01*
X184377189Y-79062417D01*
X184413416Y-79077423D01*
X184422061Y-79082044D01*
X184454664Y-79103830D01*
X184462240Y-79110048D01*
X184489952Y-79137760D01*
X184496170Y-79145336D01*
X184517956Y-79177939D01*
X184522577Y-79186584D01*
X184537583Y-79222811D01*
X184540428Y-79232190D01*
X184548076Y-79270637D01*
X184549037Y-79280392D01*
X184550000Y-79300000D01*
X184550000Y-79550000D01*
X185050000Y-79550000D01*
X185089018Y-79553843D01*
X185126537Y-79565224D01*
X185161114Y-79583706D01*
X185191421Y-79608579D01*
X185216294Y-79638886D01*
X185234776Y-79673463D01*
X185246157Y-79710982D01*
X185250000Y-79750000D01*
X185250000Y-81250000D01*
X185246157Y-81289018D01*
X185234776Y-81326537D01*
X185216294Y-81361114D01*
X185191421Y-81391421D01*
X185161114Y-81416294D01*
X185126537Y-81434776D01*
X185089018Y-81446157D01*
X185050000Y-81450000D01*
X184550000Y-81450000D01*
X184550000Y-81700000D01*
X184549037Y-81719608D01*
X184548076Y-81729363D01*
X184540428Y-81767810D01*
X184537583Y-81777189D01*
X184522577Y-81813416D01*
X184517956Y-81822061D01*
X184496170Y-81854664D01*
X184489952Y-81862240D01*
X184462240Y-81889952D01*
X184454664Y-81896170D01*
X184422061Y-81917956D01*
X184413416Y-81922577D01*
X184377189Y-81937583D01*
X184367810Y-81940428D01*
X184329363Y-81948076D01*
X184319608Y-81949037D01*
X184300000Y-81950000D01*
X182400000Y-81950000D01*
X182380392Y-81949037D01*
X182370637Y-81948076D01*
X182332190Y-81940428D01*
X182322811Y-81937583D01*
X182279116Y-81918377D01*
X182267015Y-81911226D01*
X182243826Y-81895217D01*
X181743826Y-81495217D01*
X181729130Y-81482228D01*
X181722113Y-81475385D01*
X181696841Y-81445362D01*
X181691295Y-81437280D01*
X181672398Y-81402961D01*
X181668534Y-81393953D01*
X181656684Y-81356575D01*
X181654652Y-81346987D01*
X181650612Y-81316588D01*
X181650306Y-81311066D01*
X181650000Y-81300000D01*
X181650000Y-79300000D01*
X181650963Y-79280392D01*
X181651924Y-79270637D01*
X181659572Y-79232190D01*
X181662417Y-79222811D01*
X181677423Y-79186584D01*
X181682044Y-79177939D01*
X181703830Y-79145336D01*
X181710048Y-79137760D01*
X181737760Y-79110048D01*
X181745336Y-79103830D01*
X181777939Y-79082044D01*
X181786584Y-79077423D01*
X181822811Y-79062417D01*
X181832190Y-79059572D01*
X181870637Y-79051924D01*
X181880392Y-79050963D01*
X181900000Y-79050000D01*
X184300000Y-79050000D01*
X184319608Y-79050963D01*
G37*
G36*
X171719608Y-81650963D02*
G01*
X171729363Y-81651924D01*
X171767810Y-81659572D01*
X171777189Y-81662417D01*
X171813416Y-81677423D01*
X171822061Y-81682044D01*
X171854664Y-81703830D01*
X171862240Y-81710048D01*
X171889952Y-81737760D01*
X171896170Y-81745336D01*
X171917956Y-81777939D01*
X171922577Y-81786584D01*
X171937583Y-81822811D01*
X171940428Y-81832190D01*
X171948076Y-81870637D01*
X171949037Y-81880392D01*
X171950000Y-81900000D01*
X171950000Y-84300000D01*
X171949037Y-84319608D01*
X171948076Y-84329363D01*
X171940428Y-84367810D01*
X171937583Y-84377189D01*
X171922577Y-84413416D01*
X171917956Y-84422061D01*
X171896170Y-84454664D01*
X171889952Y-84462240D01*
X171862240Y-84489952D01*
X171854664Y-84496170D01*
X171822061Y-84517956D01*
X171813416Y-84522577D01*
X171777189Y-84537583D01*
X171767810Y-84540428D01*
X171729363Y-84548076D01*
X171719608Y-84549037D01*
X171700000Y-84550000D01*
X169300000Y-84550000D01*
X169280392Y-84549037D01*
X169270637Y-84548076D01*
X169232190Y-84540428D01*
X169222811Y-84537583D01*
X169186584Y-84522577D01*
X169177939Y-84517956D01*
X169145336Y-84496170D01*
X169137760Y-84489952D01*
X169110048Y-84462240D01*
X169103830Y-84454664D01*
X169082044Y-84422061D01*
X169077423Y-84413416D01*
X169062417Y-84377189D01*
X169059572Y-84367810D01*
X169051924Y-84329363D01*
X169050963Y-84319608D01*
X169050000Y-84300000D01*
X169050000Y-84050000D01*
X168650000Y-84050000D01*
X168610982Y-84046157D01*
X168573463Y-84034776D01*
X168538886Y-84016294D01*
X168508579Y-83991421D01*
X168483706Y-83961114D01*
X168465224Y-83926537D01*
X168453843Y-83889018D01*
X168450000Y-83850000D01*
X168450000Y-82350000D01*
X168453843Y-82310982D01*
X168465224Y-82273463D01*
X168483706Y-82238886D01*
X168508579Y-82208579D01*
X168538886Y-82183706D01*
X168573463Y-82165224D01*
X168610982Y-82153843D01*
X168650000Y-82150000D01*
X169050000Y-82150000D01*
X169050000Y-81900000D01*
X169050963Y-81880392D01*
X169051924Y-81870637D01*
X169059572Y-81832190D01*
X169062417Y-81822811D01*
X169077423Y-81786584D01*
X169082044Y-81777939D01*
X169103830Y-81745336D01*
X169110048Y-81737760D01*
X169137760Y-81710048D01*
X169145336Y-81703830D01*
X169177939Y-81682044D01*
X169186584Y-81677423D01*
X169222811Y-81662417D01*
X169232190Y-81659572D01*
X169270637Y-81651924D01*
X169280392Y-81650963D01*
X169300000Y-81650000D01*
X171700000Y-81650000D01*
X171719608Y-81650963D01*
G37*
D16*
X173690000Y-83059999D03*
D17*
X172420000Y-85600000D03*
X182580000Y-85600000D03*
D18*
X177500000Y-85600000D03*
D16*
X180040000Y-80520000D03*
X174960000Y-80520000D03*
X181310000Y-83060000D03*
D15*
G36*
X165319608Y-76650963D02*
G01*
X165329363Y-76651924D01*
X165367810Y-76659572D01*
X165377189Y-76662417D01*
X165413416Y-76677423D01*
X165422061Y-76682044D01*
X165454664Y-76703830D01*
X165462240Y-76710048D01*
X165489952Y-76737760D01*
X165496170Y-76745336D01*
X165517956Y-76777939D01*
X165522577Y-76786584D01*
X165537583Y-76822811D01*
X165540428Y-76832190D01*
X165548076Y-76870637D01*
X165549037Y-76880392D01*
X165550000Y-76900000D01*
X165550000Y-77150000D01*
X166050000Y-77150000D01*
X166089018Y-77153843D01*
X166126537Y-77165224D01*
X166161114Y-77183706D01*
X166191421Y-77208579D01*
X166216294Y-77238886D01*
X166234776Y-77273463D01*
X166246157Y-77310982D01*
X166250000Y-77350000D01*
X166250000Y-78850000D01*
X166246157Y-78889018D01*
X166234776Y-78926537D01*
X166216294Y-78961114D01*
X166191421Y-78991421D01*
X166161114Y-79016294D01*
X166126537Y-79034776D01*
X166089018Y-79046157D01*
X166050000Y-79050000D01*
X165550000Y-79050000D01*
X165550000Y-79300000D01*
X165549037Y-79319608D01*
X165548076Y-79329363D01*
X165540428Y-79367810D01*
X165537583Y-79377189D01*
X165522577Y-79413416D01*
X165517956Y-79422061D01*
X165496170Y-79454664D01*
X165489952Y-79462240D01*
X165462240Y-79489952D01*
X165454664Y-79496170D01*
X165422061Y-79517956D01*
X165413416Y-79522577D01*
X165377189Y-79537583D01*
X165367810Y-79540428D01*
X165329363Y-79548076D01*
X165319608Y-79549037D01*
X165300000Y-79550000D01*
X163400000Y-79550000D01*
X163380392Y-79549037D01*
X163370637Y-79548076D01*
X163332190Y-79540428D01*
X163322811Y-79537583D01*
X163279116Y-79518377D01*
X163267015Y-79511226D01*
X163243826Y-79495217D01*
X162743826Y-79095217D01*
X162729130Y-79082228D01*
X162722113Y-79075385D01*
X162696841Y-79045362D01*
X162691295Y-79037280D01*
X162672398Y-79002961D01*
X162668534Y-78993953D01*
X162656684Y-78956575D01*
X162654652Y-78946987D01*
X162650612Y-78916588D01*
X162650306Y-78911066D01*
X162650000Y-78900000D01*
X162650000Y-76900000D01*
X162650963Y-76880392D01*
X162651924Y-76870637D01*
X162659572Y-76832190D01*
X162662417Y-76822811D01*
X162677423Y-76786584D01*
X162682044Y-76777939D01*
X162703830Y-76745336D01*
X162710048Y-76737760D01*
X162737760Y-76710048D01*
X162745336Y-76703830D01*
X162777939Y-76682044D01*
X162786584Y-76677423D01*
X162822811Y-76662417D01*
X162832190Y-76659572D01*
X162870637Y-76651924D01*
X162880392Y-76650963D01*
X162900000Y-76650000D01*
X165300000Y-76650000D01*
X165319608Y-76650963D01*
G37*
G36*
X152719608Y-79250963D02*
G01*
X152729363Y-79251924D01*
X152767810Y-79259572D01*
X152777189Y-79262417D01*
X152813416Y-79277423D01*
X152822061Y-79282044D01*
X152854664Y-79303830D01*
X152862240Y-79310048D01*
X152889952Y-79337760D01*
X152896170Y-79345336D01*
X152917956Y-79377939D01*
X152922577Y-79386584D01*
X152937583Y-79422811D01*
X152940428Y-79432190D01*
X152948076Y-79470637D01*
X152949037Y-79480392D01*
X152950000Y-79500000D01*
X152950000Y-81900000D01*
X152949037Y-81919608D01*
X152948076Y-81929363D01*
X152940428Y-81967810D01*
X152937583Y-81977189D01*
X152922577Y-82013416D01*
X152917956Y-82022061D01*
X152896170Y-82054664D01*
X152889952Y-82062240D01*
X152862240Y-82089952D01*
X152854664Y-82096170D01*
X152822061Y-82117956D01*
X152813416Y-82122577D01*
X152777189Y-82137583D01*
X152767810Y-82140428D01*
X152729363Y-82148076D01*
X152719608Y-82149037D01*
X152700000Y-82150000D01*
X150300000Y-82150000D01*
X150280392Y-82149037D01*
X150270637Y-82148076D01*
X150232190Y-82140428D01*
X150222811Y-82137583D01*
X150186584Y-82122577D01*
X150177939Y-82117956D01*
X150145336Y-82096170D01*
X150137760Y-82089952D01*
X150110048Y-82062240D01*
X150103830Y-82054664D01*
X150082044Y-82022061D01*
X150077423Y-82013416D01*
X150062417Y-81977189D01*
X150059572Y-81967810D01*
X150051924Y-81929363D01*
X150050963Y-81919608D01*
X150050000Y-81900000D01*
X150050000Y-81650000D01*
X149650000Y-81650000D01*
X149610982Y-81646157D01*
X149573463Y-81634776D01*
X149538886Y-81616294D01*
X149508579Y-81591421D01*
X149483706Y-81561114D01*
X149465224Y-81526537D01*
X149453843Y-81489018D01*
X149450000Y-81450000D01*
X149450000Y-79950000D01*
X149453843Y-79910982D01*
X149465224Y-79873463D01*
X149483706Y-79838886D01*
X149508579Y-79808579D01*
X149538886Y-79783706D01*
X149573463Y-79765224D01*
X149610982Y-79753843D01*
X149650000Y-79750000D01*
X150050000Y-79750000D01*
X150050000Y-79500000D01*
X150050963Y-79480392D01*
X150051924Y-79470637D01*
X150059572Y-79432190D01*
X150062417Y-79422811D01*
X150077423Y-79386584D01*
X150082044Y-79377939D01*
X150103830Y-79345336D01*
X150110048Y-79337760D01*
X150137760Y-79310048D01*
X150145336Y-79303830D01*
X150177939Y-79282044D01*
X150186584Y-79277423D01*
X150222811Y-79262417D01*
X150232190Y-79259572D01*
X150270637Y-79251924D01*
X150280392Y-79250963D01*
X150300000Y-79250000D01*
X152700000Y-79250000D01*
X152719608Y-79250963D01*
G37*
D16*
X154690000Y-80659999D03*
D17*
X153420000Y-83200000D03*
X163580000Y-83200000D03*
D18*
X158500000Y-83200000D03*
D16*
X161040000Y-78120000D03*
X155960000Y-78120000D03*
X162310000Y-80660000D03*
D15*
G36*
X146319608Y-79050963D02*
G01*
X146329363Y-79051924D01*
X146367810Y-79059572D01*
X146377189Y-79062417D01*
X146413416Y-79077423D01*
X146422061Y-79082044D01*
X146454664Y-79103830D01*
X146462240Y-79110048D01*
X146489952Y-79137760D01*
X146496170Y-79145336D01*
X146517956Y-79177939D01*
X146522577Y-79186584D01*
X146537583Y-79222811D01*
X146540428Y-79232190D01*
X146548076Y-79270637D01*
X146549037Y-79280392D01*
X146550000Y-79300000D01*
X146550000Y-79550000D01*
X147050000Y-79550000D01*
X147089018Y-79553843D01*
X147126537Y-79565224D01*
X147161114Y-79583706D01*
X147191421Y-79608579D01*
X147216294Y-79638886D01*
X147234776Y-79673463D01*
X147246157Y-79710982D01*
X147250000Y-79750000D01*
X147250000Y-81250000D01*
X147246157Y-81289018D01*
X147234776Y-81326537D01*
X147216294Y-81361114D01*
X147191421Y-81391421D01*
X147161114Y-81416294D01*
X147126537Y-81434776D01*
X147089018Y-81446157D01*
X147050000Y-81450000D01*
X146550000Y-81450000D01*
X146550000Y-81700000D01*
X146549037Y-81719608D01*
X146548076Y-81729363D01*
X146540428Y-81767810D01*
X146537583Y-81777189D01*
X146522577Y-81813416D01*
X146517956Y-81822061D01*
X146496170Y-81854664D01*
X146489952Y-81862240D01*
X146462240Y-81889952D01*
X146454664Y-81896170D01*
X146422061Y-81917956D01*
X146413416Y-81922577D01*
X146377189Y-81937583D01*
X146367810Y-81940428D01*
X146329363Y-81948076D01*
X146319608Y-81949037D01*
X146300000Y-81950000D01*
X144400000Y-81950000D01*
X144380392Y-81949037D01*
X144370637Y-81948076D01*
X144332190Y-81940428D01*
X144322811Y-81937583D01*
X144279116Y-81918377D01*
X144267015Y-81911226D01*
X144243826Y-81895217D01*
X143743826Y-81495217D01*
X143729130Y-81482228D01*
X143722113Y-81475385D01*
X143696841Y-81445362D01*
X143691295Y-81437280D01*
X143672398Y-81402961D01*
X143668534Y-81393953D01*
X143656684Y-81356575D01*
X143654652Y-81346987D01*
X143650612Y-81316588D01*
X143650306Y-81311066D01*
X143650000Y-81300000D01*
X143650000Y-79300000D01*
X143650963Y-79280392D01*
X143651924Y-79270637D01*
X143659572Y-79232190D01*
X143662417Y-79222811D01*
X143677423Y-79186584D01*
X143682044Y-79177939D01*
X143703830Y-79145336D01*
X143710048Y-79137760D01*
X143737760Y-79110048D01*
X143745336Y-79103830D01*
X143777939Y-79082044D01*
X143786584Y-79077423D01*
X143822811Y-79062417D01*
X143832190Y-79059572D01*
X143870637Y-79051924D01*
X143880392Y-79050963D01*
X143900000Y-79050000D01*
X146300000Y-79050000D01*
X146319608Y-79050963D01*
G37*
G36*
X133719608Y-81650963D02*
G01*
X133729363Y-81651924D01*
X133767810Y-81659572D01*
X133777189Y-81662417D01*
X133813416Y-81677423D01*
X133822061Y-81682044D01*
X133854664Y-81703830D01*
X133862240Y-81710048D01*
X133889952Y-81737760D01*
X133896170Y-81745336D01*
X133917956Y-81777939D01*
X133922577Y-81786584D01*
X133937583Y-81822811D01*
X133940428Y-81832190D01*
X133948076Y-81870637D01*
X133949037Y-81880392D01*
X133950000Y-81900000D01*
X133950000Y-84300000D01*
X133949037Y-84319608D01*
X133948076Y-84329363D01*
X133940428Y-84367810D01*
X133937583Y-84377189D01*
X133922577Y-84413416D01*
X133917956Y-84422061D01*
X133896170Y-84454664D01*
X133889952Y-84462240D01*
X133862240Y-84489952D01*
X133854664Y-84496170D01*
X133822061Y-84517956D01*
X133813416Y-84522577D01*
X133777189Y-84537583D01*
X133767810Y-84540428D01*
X133729363Y-84548076D01*
X133719608Y-84549037D01*
X133700000Y-84550000D01*
X131300000Y-84550000D01*
X131280392Y-84549037D01*
X131270637Y-84548076D01*
X131232190Y-84540428D01*
X131222811Y-84537583D01*
X131186584Y-84522577D01*
X131177939Y-84517956D01*
X131145336Y-84496170D01*
X131137760Y-84489952D01*
X131110048Y-84462240D01*
X131103830Y-84454664D01*
X131082044Y-84422061D01*
X131077423Y-84413416D01*
X131062417Y-84377189D01*
X131059572Y-84367810D01*
X131051924Y-84329363D01*
X131050963Y-84319608D01*
X131050000Y-84300000D01*
X131050000Y-84050000D01*
X130650000Y-84050000D01*
X130610982Y-84046157D01*
X130573463Y-84034776D01*
X130538886Y-84016294D01*
X130508579Y-83991421D01*
X130483706Y-83961114D01*
X130465224Y-83926537D01*
X130453843Y-83889018D01*
X130450000Y-83850000D01*
X130450000Y-82350000D01*
X130453843Y-82310982D01*
X130465224Y-82273463D01*
X130483706Y-82238886D01*
X130508579Y-82208579D01*
X130538886Y-82183706D01*
X130573463Y-82165224D01*
X130610982Y-82153843D01*
X130650000Y-82150000D01*
X131050000Y-82150000D01*
X131050000Y-81900000D01*
X131050963Y-81880392D01*
X131051924Y-81870637D01*
X131059572Y-81832190D01*
X131062417Y-81822811D01*
X131077423Y-81786584D01*
X131082044Y-81777939D01*
X131103830Y-81745336D01*
X131110048Y-81737760D01*
X131137760Y-81710048D01*
X131145336Y-81703830D01*
X131177939Y-81682044D01*
X131186584Y-81677423D01*
X131222811Y-81662417D01*
X131232190Y-81659572D01*
X131270637Y-81651924D01*
X131280392Y-81650963D01*
X131300000Y-81650000D01*
X133700000Y-81650000D01*
X133719608Y-81650963D01*
G37*
D16*
X135690000Y-83059999D03*
D17*
X134420000Y-85600000D03*
X144580000Y-85600000D03*
D18*
X139500000Y-85600000D03*
D16*
X142040000Y-80520000D03*
X136960000Y-80520000D03*
X143310000Y-83060000D03*
D15*
G36*
X127319608Y-81550963D02*
G01*
X127329363Y-81551924D01*
X127367810Y-81559572D01*
X127377189Y-81562417D01*
X127413416Y-81577423D01*
X127422061Y-81582044D01*
X127454664Y-81603830D01*
X127462240Y-81610048D01*
X127489952Y-81637760D01*
X127496170Y-81645336D01*
X127517956Y-81677939D01*
X127522577Y-81686584D01*
X127537583Y-81722811D01*
X127540428Y-81732190D01*
X127548076Y-81770637D01*
X127549037Y-81780392D01*
X127550000Y-81800000D01*
X127550000Y-82050000D01*
X128050000Y-82050000D01*
X128089018Y-82053843D01*
X128126537Y-82065224D01*
X128161114Y-82083706D01*
X128191421Y-82108579D01*
X128216294Y-82138886D01*
X128234776Y-82173463D01*
X128246157Y-82210982D01*
X128250000Y-82250000D01*
X128250000Y-83750000D01*
X128246157Y-83789018D01*
X128234776Y-83826537D01*
X128216294Y-83861114D01*
X128191421Y-83891421D01*
X128161114Y-83916294D01*
X128126537Y-83934776D01*
X128089018Y-83946157D01*
X128050000Y-83950000D01*
X127550000Y-83950000D01*
X127550000Y-84200000D01*
X127549037Y-84219608D01*
X127548076Y-84229363D01*
X127540428Y-84267810D01*
X127537583Y-84277189D01*
X127522577Y-84313416D01*
X127517956Y-84322061D01*
X127496170Y-84354664D01*
X127489952Y-84362240D01*
X127462240Y-84389952D01*
X127454664Y-84396170D01*
X127422061Y-84417956D01*
X127413416Y-84422577D01*
X127377189Y-84437583D01*
X127367810Y-84440428D01*
X127329363Y-84448076D01*
X127319608Y-84449037D01*
X127300000Y-84450000D01*
X125400000Y-84450000D01*
X125380392Y-84449037D01*
X125370637Y-84448076D01*
X125332190Y-84440428D01*
X125322811Y-84437583D01*
X125279116Y-84418377D01*
X125267015Y-84411226D01*
X125243826Y-84395217D01*
X124743826Y-83995217D01*
X124729130Y-83982228D01*
X124722113Y-83975385D01*
X124696841Y-83945362D01*
X124691295Y-83937280D01*
X124672398Y-83902961D01*
X124668534Y-83893953D01*
X124656684Y-83856575D01*
X124654652Y-83846987D01*
X124650612Y-83816588D01*
X124650306Y-83811066D01*
X124650000Y-83800000D01*
X124650000Y-81800000D01*
X124650963Y-81780392D01*
X124651924Y-81770637D01*
X124659572Y-81732190D01*
X124662417Y-81722811D01*
X124677423Y-81686584D01*
X124682044Y-81677939D01*
X124703830Y-81645336D01*
X124710048Y-81637760D01*
X124737760Y-81610048D01*
X124745336Y-81603830D01*
X124777939Y-81582044D01*
X124786584Y-81577423D01*
X124822811Y-81562417D01*
X124832190Y-81559572D01*
X124870637Y-81551924D01*
X124880392Y-81550963D01*
X124900000Y-81550000D01*
X127300000Y-81550000D01*
X127319608Y-81550963D01*
G37*
G36*
X114719608Y-84150963D02*
G01*
X114729363Y-84151924D01*
X114767810Y-84159572D01*
X114777189Y-84162417D01*
X114813416Y-84177423D01*
X114822061Y-84182044D01*
X114854664Y-84203830D01*
X114862240Y-84210048D01*
X114889952Y-84237760D01*
X114896170Y-84245336D01*
X114917956Y-84277939D01*
X114922577Y-84286584D01*
X114937583Y-84322811D01*
X114940428Y-84332190D01*
X114948076Y-84370637D01*
X114949037Y-84380392D01*
X114950000Y-84400000D01*
X114950000Y-86800000D01*
X114949037Y-86819608D01*
X114948076Y-86829363D01*
X114940428Y-86867810D01*
X114937583Y-86877189D01*
X114922577Y-86913416D01*
X114917956Y-86922061D01*
X114896170Y-86954664D01*
X114889952Y-86962240D01*
X114862240Y-86989952D01*
X114854664Y-86996170D01*
X114822061Y-87017956D01*
X114813416Y-87022577D01*
X114777189Y-87037583D01*
X114767810Y-87040428D01*
X114729363Y-87048076D01*
X114719608Y-87049037D01*
X114700000Y-87050000D01*
X112300000Y-87050000D01*
X112280392Y-87049037D01*
X112270637Y-87048076D01*
X112232190Y-87040428D01*
X112222811Y-87037583D01*
X112186584Y-87022577D01*
X112177939Y-87017956D01*
X112145336Y-86996170D01*
X112137760Y-86989952D01*
X112110048Y-86962240D01*
X112103830Y-86954664D01*
X112082044Y-86922061D01*
X112077423Y-86913416D01*
X112062417Y-86877189D01*
X112059572Y-86867810D01*
X112051924Y-86829363D01*
X112050963Y-86819608D01*
X112050000Y-86800000D01*
X112050000Y-86550000D01*
X111650000Y-86550000D01*
X111610982Y-86546157D01*
X111573463Y-86534776D01*
X111538886Y-86516294D01*
X111508579Y-86491421D01*
X111483706Y-86461114D01*
X111465224Y-86426537D01*
X111453843Y-86389018D01*
X111450000Y-86350000D01*
X111450000Y-84850000D01*
X111453843Y-84810982D01*
X111465224Y-84773463D01*
X111483706Y-84738886D01*
X111508579Y-84708579D01*
X111538886Y-84683706D01*
X111573463Y-84665224D01*
X111610982Y-84653843D01*
X111650000Y-84650000D01*
X112050000Y-84650000D01*
X112050000Y-84400000D01*
X112050963Y-84380392D01*
X112051924Y-84370637D01*
X112059572Y-84332190D01*
X112062417Y-84322811D01*
X112077423Y-84286584D01*
X112082044Y-84277939D01*
X112103830Y-84245336D01*
X112110048Y-84237760D01*
X112137760Y-84210048D01*
X112145336Y-84203830D01*
X112177939Y-84182044D01*
X112186584Y-84177423D01*
X112222811Y-84162417D01*
X112232190Y-84159572D01*
X112270637Y-84151924D01*
X112280392Y-84150963D01*
X112300000Y-84150000D01*
X114700000Y-84150000D01*
X114719608Y-84150963D01*
G37*
D16*
X116690000Y-85559999D03*
D17*
X115420000Y-88100000D03*
X125580000Y-88100000D03*
D18*
X120500000Y-88100000D03*
D16*
X123040000Y-83020000D03*
X117960000Y-83020000D03*
X124310000Y-85560000D03*
D15*
G36*
X222319608Y-68850963D02*
G01*
X222329363Y-68851924D01*
X222367810Y-68859572D01*
X222377189Y-68862417D01*
X222413416Y-68877423D01*
X222422061Y-68882044D01*
X222454664Y-68903830D01*
X222462240Y-68910048D01*
X222489952Y-68937760D01*
X222496170Y-68945336D01*
X222517956Y-68977939D01*
X222522577Y-68986584D01*
X222537583Y-69022811D01*
X222540428Y-69032190D01*
X222548076Y-69070637D01*
X222549037Y-69080392D01*
X222550000Y-69100000D01*
X222550000Y-69350000D01*
X223050000Y-69350000D01*
X223089018Y-69353843D01*
X223126537Y-69365224D01*
X223161114Y-69383706D01*
X223191421Y-69408579D01*
X223216294Y-69438886D01*
X223234776Y-69473463D01*
X223246157Y-69510982D01*
X223250000Y-69550000D01*
X223250000Y-71050000D01*
X223246157Y-71089018D01*
X223234776Y-71126537D01*
X223216294Y-71161114D01*
X223191421Y-71191421D01*
X223161114Y-71216294D01*
X223126537Y-71234776D01*
X223089018Y-71246157D01*
X223050000Y-71250000D01*
X222550000Y-71250000D01*
X222550000Y-71500000D01*
X222549037Y-71519608D01*
X222548076Y-71529363D01*
X222540428Y-71567810D01*
X222537583Y-71577189D01*
X222522577Y-71613416D01*
X222517956Y-71622061D01*
X222496170Y-71654664D01*
X222489952Y-71662240D01*
X222462240Y-71689952D01*
X222454664Y-71696170D01*
X222422061Y-71717956D01*
X222413416Y-71722577D01*
X222377189Y-71737583D01*
X222367810Y-71740428D01*
X222329363Y-71748076D01*
X222319608Y-71749037D01*
X222300000Y-71750000D01*
X220400000Y-71750000D01*
X220380392Y-71749037D01*
X220370637Y-71748076D01*
X220332190Y-71740428D01*
X220322811Y-71737583D01*
X220279116Y-71718377D01*
X220267015Y-71711226D01*
X220243826Y-71695217D01*
X219743826Y-71295217D01*
X219729130Y-71282228D01*
X219722113Y-71275385D01*
X219696841Y-71245362D01*
X219691295Y-71237280D01*
X219672398Y-71202961D01*
X219668534Y-71193953D01*
X219656684Y-71156575D01*
X219654652Y-71146987D01*
X219650612Y-71116588D01*
X219650306Y-71111066D01*
X219650000Y-71100000D01*
X219650000Y-69100000D01*
X219650963Y-69080392D01*
X219651924Y-69070637D01*
X219659572Y-69032190D01*
X219662417Y-69022811D01*
X219677423Y-68986584D01*
X219682044Y-68977939D01*
X219703830Y-68945336D01*
X219710048Y-68937760D01*
X219737760Y-68910048D01*
X219745336Y-68903830D01*
X219777939Y-68882044D01*
X219786584Y-68877423D01*
X219822811Y-68862417D01*
X219832190Y-68859572D01*
X219870637Y-68851924D01*
X219880392Y-68850963D01*
X219900000Y-68850000D01*
X222300000Y-68850000D01*
X222319608Y-68850963D01*
G37*
G36*
X209719608Y-71450963D02*
G01*
X209729363Y-71451924D01*
X209767810Y-71459572D01*
X209777189Y-71462417D01*
X209813416Y-71477423D01*
X209822061Y-71482044D01*
X209854664Y-71503830D01*
X209862240Y-71510048D01*
X209889952Y-71537760D01*
X209896170Y-71545336D01*
X209917956Y-71577939D01*
X209922577Y-71586584D01*
X209937583Y-71622811D01*
X209940428Y-71632190D01*
X209948076Y-71670637D01*
X209949037Y-71680392D01*
X209950000Y-71700000D01*
X209950000Y-74100000D01*
X209949037Y-74119608D01*
X209948076Y-74129363D01*
X209940428Y-74167810D01*
X209937583Y-74177189D01*
X209922577Y-74213416D01*
X209917956Y-74222061D01*
X209896170Y-74254664D01*
X209889952Y-74262240D01*
X209862240Y-74289952D01*
X209854664Y-74296170D01*
X209822061Y-74317956D01*
X209813416Y-74322577D01*
X209777189Y-74337583D01*
X209767810Y-74340428D01*
X209729363Y-74348076D01*
X209719608Y-74349037D01*
X209700000Y-74350000D01*
X207300000Y-74350000D01*
X207280392Y-74349037D01*
X207270637Y-74348076D01*
X207232190Y-74340428D01*
X207222811Y-74337583D01*
X207186584Y-74322577D01*
X207177939Y-74317956D01*
X207145336Y-74296170D01*
X207137760Y-74289952D01*
X207110048Y-74262240D01*
X207103830Y-74254664D01*
X207082044Y-74222061D01*
X207077423Y-74213416D01*
X207062417Y-74177189D01*
X207059572Y-74167810D01*
X207051924Y-74129363D01*
X207050963Y-74119608D01*
X207050000Y-74100000D01*
X207050000Y-73850000D01*
X206650000Y-73850000D01*
X206610982Y-73846157D01*
X206573463Y-73834776D01*
X206538886Y-73816294D01*
X206508579Y-73791421D01*
X206483706Y-73761114D01*
X206465224Y-73726537D01*
X206453843Y-73689018D01*
X206450000Y-73650000D01*
X206450000Y-72150000D01*
X206453843Y-72110982D01*
X206465224Y-72073463D01*
X206483706Y-72038886D01*
X206508579Y-72008579D01*
X206538886Y-71983706D01*
X206573463Y-71965224D01*
X206610982Y-71953843D01*
X206650000Y-71950000D01*
X207050000Y-71950000D01*
X207050000Y-71700000D01*
X207050963Y-71680392D01*
X207051924Y-71670637D01*
X207059572Y-71632190D01*
X207062417Y-71622811D01*
X207077423Y-71586584D01*
X207082044Y-71577939D01*
X207103830Y-71545336D01*
X207110048Y-71537760D01*
X207137760Y-71510048D01*
X207145336Y-71503830D01*
X207177939Y-71482044D01*
X207186584Y-71477423D01*
X207222811Y-71462417D01*
X207232190Y-71459572D01*
X207270637Y-71451924D01*
X207280392Y-71450963D01*
X207300000Y-71450000D01*
X209700000Y-71450000D01*
X209719608Y-71450963D01*
G37*
D16*
X211690000Y-72859999D03*
D17*
X210420000Y-75400000D03*
X220580000Y-75400000D03*
D18*
X215500000Y-75400000D03*
D16*
X218040000Y-70320000D03*
X212960000Y-70320000D03*
X219310000Y-72860000D03*
D15*
G36*
X203319608Y-68850963D02*
G01*
X203329363Y-68851924D01*
X203367810Y-68859572D01*
X203377189Y-68862417D01*
X203413416Y-68877423D01*
X203422061Y-68882044D01*
X203454664Y-68903830D01*
X203462240Y-68910048D01*
X203489952Y-68937760D01*
X203496170Y-68945336D01*
X203517956Y-68977939D01*
X203522577Y-68986584D01*
X203537583Y-69022811D01*
X203540428Y-69032190D01*
X203548076Y-69070637D01*
X203549037Y-69080392D01*
X203550000Y-69100000D01*
X203550000Y-69350000D01*
X204050000Y-69350000D01*
X204089018Y-69353843D01*
X204126537Y-69365224D01*
X204161114Y-69383706D01*
X204191421Y-69408579D01*
X204216294Y-69438886D01*
X204234776Y-69473463D01*
X204246157Y-69510982D01*
X204250000Y-69550000D01*
X204250000Y-71050000D01*
X204246157Y-71089018D01*
X204234776Y-71126537D01*
X204216294Y-71161114D01*
X204191421Y-71191421D01*
X204161114Y-71216294D01*
X204126537Y-71234776D01*
X204089018Y-71246157D01*
X204050000Y-71250000D01*
X203550000Y-71250000D01*
X203550000Y-71500000D01*
X203549037Y-71519608D01*
X203548076Y-71529363D01*
X203540428Y-71567810D01*
X203537583Y-71577189D01*
X203522577Y-71613416D01*
X203517956Y-71622061D01*
X203496170Y-71654664D01*
X203489952Y-71662240D01*
X203462240Y-71689952D01*
X203454664Y-71696170D01*
X203422061Y-71717956D01*
X203413416Y-71722577D01*
X203377189Y-71737583D01*
X203367810Y-71740428D01*
X203329363Y-71748076D01*
X203319608Y-71749037D01*
X203300000Y-71750000D01*
X201400000Y-71750000D01*
X201380392Y-71749037D01*
X201370637Y-71748076D01*
X201332190Y-71740428D01*
X201322811Y-71737583D01*
X201279116Y-71718377D01*
X201267015Y-71711226D01*
X201243826Y-71695217D01*
X200743826Y-71295217D01*
X200729130Y-71282228D01*
X200722113Y-71275385D01*
X200696841Y-71245362D01*
X200691295Y-71237280D01*
X200672398Y-71202961D01*
X200668534Y-71193953D01*
X200656684Y-71156575D01*
X200654652Y-71146987D01*
X200650612Y-71116588D01*
X200650306Y-71111066D01*
X200650000Y-71100000D01*
X200650000Y-69100000D01*
X200650963Y-69080392D01*
X200651924Y-69070637D01*
X200659572Y-69032190D01*
X200662417Y-69022811D01*
X200677423Y-68986584D01*
X200682044Y-68977939D01*
X200703830Y-68945336D01*
X200710048Y-68937760D01*
X200737760Y-68910048D01*
X200745336Y-68903830D01*
X200777939Y-68882044D01*
X200786584Y-68877423D01*
X200822811Y-68862417D01*
X200832190Y-68859572D01*
X200870637Y-68851924D01*
X200880392Y-68850963D01*
X200900000Y-68850000D01*
X203300000Y-68850000D01*
X203319608Y-68850963D01*
G37*
G36*
X190719608Y-71450963D02*
G01*
X190729363Y-71451924D01*
X190767810Y-71459572D01*
X190777189Y-71462417D01*
X190813416Y-71477423D01*
X190822061Y-71482044D01*
X190854664Y-71503830D01*
X190862240Y-71510048D01*
X190889952Y-71537760D01*
X190896170Y-71545336D01*
X190917956Y-71577939D01*
X190922577Y-71586584D01*
X190937583Y-71622811D01*
X190940428Y-71632190D01*
X190948076Y-71670637D01*
X190949037Y-71680392D01*
X190950000Y-71700000D01*
X190950000Y-74100000D01*
X190949037Y-74119608D01*
X190948076Y-74129363D01*
X190940428Y-74167810D01*
X190937583Y-74177189D01*
X190922577Y-74213416D01*
X190917956Y-74222061D01*
X190896170Y-74254664D01*
X190889952Y-74262240D01*
X190862240Y-74289952D01*
X190854664Y-74296170D01*
X190822061Y-74317956D01*
X190813416Y-74322577D01*
X190777189Y-74337583D01*
X190767810Y-74340428D01*
X190729363Y-74348076D01*
X190719608Y-74349037D01*
X190700000Y-74350000D01*
X188300000Y-74350000D01*
X188280392Y-74349037D01*
X188270637Y-74348076D01*
X188232190Y-74340428D01*
X188222811Y-74337583D01*
X188186584Y-74322577D01*
X188177939Y-74317956D01*
X188145336Y-74296170D01*
X188137760Y-74289952D01*
X188110048Y-74262240D01*
X188103830Y-74254664D01*
X188082044Y-74222061D01*
X188077423Y-74213416D01*
X188062417Y-74177189D01*
X188059572Y-74167810D01*
X188051924Y-74129363D01*
X188050963Y-74119608D01*
X188050000Y-74100000D01*
X188050000Y-73850000D01*
X187650000Y-73850000D01*
X187610982Y-73846157D01*
X187573463Y-73834776D01*
X187538886Y-73816294D01*
X187508579Y-73791421D01*
X187483706Y-73761114D01*
X187465224Y-73726537D01*
X187453843Y-73689018D01*
X187450000Y-73650000D01*
X187450000Y-72150000D01*
X187453843Y-72110982D01*
X187465224Y-72073463D01*
X187483706Y-72038886D01*
X187508579Y-72008579D01*
X187538886Y-71983706D01*
X187573463Y-71965224D01*
X187610982Y-71953843D01*
X187650000Y-71950000D01*
X188050000Y-71950000D01*
X188050000Y-71700000D01*
X188050963Y-71680392D01*
X188051924Y-71670637D01*
X188059572Y-71632190D01*
X188062417Y-71622811D01*
X188077423Y-71586584D01*
X188082044Y-71577939D01*
X188103830Y-71545336D01*
X188110048Y-71537760D01*
X188137760Y-71510048D01*
X188145336Y-71503830D01*
X188177939Y-71482044D01*
X188186584Y-71477423D01*
X188222811Y-71462417D01*
X188232190Y-71459572D01*
X188270637Y-71451924D01*
X188280392Y-71450963D01*
X188300000Y-71450000D01*
X190700000Y-71450000D01*
X190719608Y-71450963D01*
G37*
D16*
X192690000Y-72859999D03*
D17*
X191420000Y-75400000D03*
X201580000Y-75400000D03*
D18*
X196500000Y-75400000D03*
D16*
X199040000Y-70320000D03*
X193960000Y-70320000D03*
X200310000Y-72860000D03*
D15*
G36*
X184319608Y-59950963D02*
G01*
X184329363Y-59951924D01*
X184367810Y-59959572D01*
X184377189Y-59962417D01*
X184413416Y-59977423D01*
X184422061Y-59982044D01*
X184454664Y-60003830D01*
X184462240Y-60010048D01*
X184489952Y-60037760D01*
X184496170Y-60045336D01*
X184517956Y-60077939D01*
X184522577Y-60086584D01*
X184537583Y-60122811D01*
X184540428Y-60132190D01*
X184548076Y-60170637D01*
X184549037Y-60180392D01*
X184550000Y-60200000D01*
X184550000Y-60450000D01*
X185050000Y-60450000D01*
X185089018Y-60453843D01*
X185126537Y-60465224D01*
X185161114Y-60483706D01*
X185191421Y-60508579D01*
X185216294Y-60538886D01*
X185234776Y-60573463D01*
X185246157Y-60610982D01*
X185250000Y-60650000D01*
X185250000Y-62150000D01*
X185246157Y-62189018D01*
X185234776Y-62226537D01*
X185216294Y-62261114D01*
X185191421Y-62291421D01*
X185161114Y-62316294D01*
X185126537Y-62334776D01*
X185089018Y-62346157D01*
X185050000Y-62350000D01*
X184550000Y-62350000D01*
X184550000Y-62600000D01*
X184549037Y-62619608D01*
X184548076Y-62629363D01*
X184540428Y-62667810D01*
X184537583Y-62677189D01*
X184522577Y-62713416D01*
X184517956Y-62722061D01*
X184496170Y-62754664D01*
X184489952Y-62762240D01*
X184462240Y-62789952D01*
X184454664Y-62796170D01*
X184422061Y-62817956D01*
X184413416Y-62822577D01*
X184377189Y-62837583D01*
X184367810Y-62840428D01*
X184329363Y-62848076D01*
X184319608Y-62849037D01*
X184300000Y-62850000D01*
X182400000Y-62850000D01*
X182380392Y-62849037D01*
X182370637Y-62848076D01*
X182332190Y-62840428D01*
X182322811Y-62837583D01*
X182279116Y-62818377D01*
X182267015Y-62811226D01*
X182243826Y-62795217D01*
X181743826Y-62395217D01*
X181729130Y-62382228D01*
X181722113Y-62375385D01*
X181696841Y-62345362D01*
X181691295Y-62337280D01*
X181672398Y-62302961D01*
X181668534Y-62293953D01*
X181656684Y-62256575D01*
X181654652Y-62246987D01*
X181650612Y-62216588D01*
X181650306Y-62211066D01*
X181650000Y-62200000D01*
X181650000Y-60200000D01*
X181650963Y-60180392D01*
X181651924Y-60170637D01*
X181659572Y-60132190D01*
X181662417Y-60122811D01*
X181677423Y-60086584D01*
X181682044Y-60077939D01*
X181703830Y-60045336D01*
X181710048Y-60037760D01*
X181737760Y-60010048D01*
X181745336Y-60003830D01*
X181777939Y-59982044D01*
X181786584Y-59977423D01*
X181822811Y-59962417D01*
X181832190Y-59959572D01*
X181870637Y-59951924D01*
X181880392Y-59950963D01*
X181900000Y-59950000D01*
X184300000Y-59950000D01*
X184319608Y-59950963D01*
G37*
G36*
X171719608Y-62550963D02*
G01*
X171729363Y-62551924D01*
X171767810Y-62559572D01*
X171777189Y-62562417D01*
X171813416Y-62577423D01*
X171822061Y-62582044D01*
X171854664Y-62603830D01*
X171862240Y-62610048D01*
X171889952Y-62637760D01*
X171896170Y-62645336D01*
X171917956Y-62677939D01*
X171922577Y-62686584D01*
X171937583Y-62722811D01*
X171940428Y-62732190D01*
X171948076Y-62770637D01*
X171949037Y-62780392D01*
X171950000Y-62800000D01*
X171950000Y-65200000D01*
X171949037Y-65219608D01*
X171948076Y-65229363D01*
X171940428Y-65267810D01*
X171937583Y-65277189D01*
X171922577Y-65313416D01*
X171917956Y-65322061D01*
X171896170Y-65354664D01*
X171889952Y-65362240D01*
X171862240Y-65389952D01*
X171854664Y-65396170D01*
X171822061Y-65417956D01*
X171813416Y-65422577D01*
X171777189Y-65437583D01*
X171767810Y-65440428D01*
X171729363Y-65448076D01*
X171719608Y-65449037D01*
X171700000Y-65450000D01*
X169300000Y-65450000D01*
X169280392Y-65449037D01*
X169270637Y-65448076D01*
X169232190Y-65440428D01*
X169222811Y-65437583D01*
X169186584Y-65422577D01*
X169177939Y-65417956D01*
X169145336Y-65396170D01*
X169137760Y-65389952D01*
X169110048Y-65362240D01*
X169103830Y-65354664D01*
X169082044Y-65322061D01*
X169077423Y-65313416D01*
X169062417Y-65277189D01*
X169059572Y-65267810D01*
X169051924Y-65229363D01*
X169050963Y-65219608D01*
X169050000Y-65200000D01*
X169050000Y-64950000D01*
X168650000Y-64950000D01*
X168610982Y-64946157D01*
X168573463Y-64934776D01*
X168538886Y-64916294D01*
X168508579Y-64891421D01*
X168483706Y-64861114D01*
X168465224Y-64826537D01*
X168453843Y-64789018D01*
X168450000Y-64750000D01*
X168450000Y-63250000D01*
X168453843Y-63210982D01*
X168465224Y-63173463D01*
X168483706Y-63138886D01*
X168508579Y-63108579D01*
X168538886Y-63083706D01*
X168573463Y-63065224D01*
X168610982Y-63053843D01*
X168650000Y-63050000D01*
X169050000Y-63050000D01*
X169050000Y-62800000D01*
X169050963Y-62780392D01*
X169051924Y-62770637D01*
X169059572Y-62732190D01*
X169062417Y-62722811D01*
X169077423Y-62686584D01*
X169082044Y-62677939D01*
X169103830Y-62645336D01*
X169110048Y-62637760D01*
X169137760Y-62610048D01*
X169145336Y-62603830D01*
X169177939Y-62582044D01*
X169186584Y-62577423D01*
X169222811Y-62562417D01*
X169232190Y-62559572D01*
X169270637Y-62551924D01*
X169280392Y-62550963D01*
X169300000Y-62550000D01*
X171700000Y-62550000D01*
X171719608Y-62550963D01*
G37*
D16*
X173690000Y-63959999D03*
D17*
X172420000Y-66500000D03*
X182580000Y-66500000D03*
D18*
X177500000Y-66500000D03*
D16*
X180040000Y-61420000D03*
X174960000Y-61420000D03*
X181310000Y-63960000D03*
D15*
G36*
X165319608Y-57550963D02*
G01*
X165329363Y-57551924D01*
X165367810Y-57559572D01*
X165377189Y-57562417D01*
X165413416Y-57577423D01*
X165422061Y-57582044D01*
X165454664Y-57603830D01*
X165462240Y-57610048D01*
X165489952Y-57637760D01*
X165496170Y-57645336D01*
X165517956Y-57677939D01*
X165522577Y-57686584D01*
X165537583Y-57722811D01*
X165540428Y-57732190D01*
X165548076Y-57770637D01*
X165549037Y-57780392D01*
X165550000Y-57800000D01*
X165550000Y-58050000D01*
X166050000Y-58050000D01*
X166089018Y-58053843D01*
X166126537Y-58065224D01*
X166161114Y-58083706D01*
X166191421Y-58108579D01*
X166216294Y-58138886D01*
X166234776Y-58173463D01*
X166246157Y-58210982D01*
X166250000Y-58250000D01*
X166250000Y-59750000D01*
X166246157Y-59789018D01*
X166234776Y-59826537D01*
X166216294Y-59861114D01*
X166191421Y-59891421D01*
X166161114Y-59916294D01*
X166126537Y-59934776D01*
X166089018Y-59946157D01*
X166050000Y-59950000D01*
X165550000Y-59950000D01*
X165550000Y-60200000D01*
X165549037Y-60219608D01*
X165548076Y-60229363D01*
X165540428Y-60267810D01*
X165537583Y-60277189D01*
X165522577Y-60313416D01*
X165517956Y-60322061D01*
X165496170Y-60354664D01*
X165489952Y-60362240D01*
X165462240Y-60389952D01*
X165454664Y-60396170D01*
X165422061Y-60417956D01*
X165413416Y-60422577D01*
X165377189Y-60437583D01*
X165367810Y-60440428D01*
X165329363Y-60448076D01*
X165319608Y-60449037D01*
X165300000Y-60450000D01*
X163400000Y-60450000D01*
X163380392Y-60449037D01*
X163370637Y-60448076D01*
X163332190Y-60440428D01*
X163322811Y-60437583D01*
X163279116Y-60418377D01*
X163267015Y-60411226D01*
X163243826Y-60395217D01*
X162743826Y-59995217D01*
X162729130Y-59982228D01*
X162722113Y-59975385D01*
X162696841Y-59945362D01*
X162691295Y-59937280D01*
X162672398Y-59902961D01*
X162668534Y-59893953D01*
X162656684Y-59856575D01*
X162654652Y-59846987D01*
X162650612Y-59816588D01*
X162650306Y-59811066D01*
X162650000Y-59800000D01*
X162650000Y-57800000D01*
X162650963Y-57780392D01*
X162651924Y-57770637D01*
X162659572Y-57732190D01*
X162662417Y-57722811D01*
X162677423Y-57686584D01*
X162682044Y-57677939D01*
X162703830Y-57645336D01*
X162710048Y-57637760D01*
X162737760Y-57610048D01*
X162745336Y-57603830D01*
X162777939Y-57582044D01*
X162786584Y-57577423D01*
X162822811Y-57562417D01*
X162832190Y-57559572D01*
X162870637Y-57551924D01*
X162880392Y-57550963D01*
X162900000Y-57550000D01*
X165300000Y-57550000D01*
X165319608Y-57550963D01*
G37*
G36*
X152719608Y-60150963D02*
G01*
X152729363Y-60151924D01*
X152767810Y-60159572D01*
X152777189Y-60162417D01*
X152813416Y-60177423D01*
X152822061Y-60182044D01*
X152854664Y-60203830D01*
X152862240Y-60210048D01*
X152889952Y-60237760D01*
X152896170Y-60245336D01*
X152917956Y-60277939D01*
X152922577Y-60286584D01*
X152937583Y-60322811D01*
X152940428Y-60332190D01*
X152948076Y-60370637D01*
X152949037Y-60380392D01*
X152950000Y-60400000D01*
X152950000Y-62800000D01*
X152949037Y-62819608D01*
X152948076Y-62829363D01*
X152940428Y-62867810D01*
X152937583Y-62877189D01*
X152922577Y-62913416D01*
X152917956Y-62922061D01*
X152896170Y-62954664D01*
X152889952Y-62962240D01*
X152862240Y-62989952D01*
X152854664Y-62996170D01*
X152822061Y-63017956D01*
X152813416Y-63022577D01*
X152777189Y-63037583D01*
X152767810Y-63040428D01*
X152729363Y-63048076D01*
X152719608Y-63049037D01*
X152700000Y-63050000D01*
X150300000Y-63050000D01*
X150280392Y-63049037D01*
X150270637Y-63048076D01*
X150232190Y-63040428D01*
X150222811Y-63037583D01*
X150186584Y-63022577D01*
X150177939Y-63017956D01*
X150145336Y-62996170D01*
X150137760Y-62989952D01*
X150110048Y-62962240D01*
X150103830Y-62954664D01*
X150082044Y-62922061D01*
X150077423Y-62913416D01*
X150062417Y-62877189D01*
X150059572Y-62867810D01*
X150051924Y-62829363D01*
X150050963Y-62819608D01*
X150050000Y-62800000D01*
X150050000Y-62550000D01*
X149650000Y-62550000D01*
X149610982Y-62546157D01*
X149573463Y-62534776D01*
X149538886Y-62516294D01*
X149508579Y-62491421D01*
X149483706Y-62461114D01*
X149465224Y-62426537D01*
X149453843Y-62389018D01*
X149450000Y-62350000D01*
X149450000Y-60850000D01*
X149453843Y-60810982D01*
X149465224Y-60773463D01*
X149483706Y-60738886D01*
X149508579Y-60708579D01*
X149538886Y-60683706D01*
X149573463Y-60665224D01*
X149610982Y-60653843D01*
X149650000Y-60650000D01*
X150050000Y-60650000D01*
X150050000Y-60400000D01*
X150050963Y-60380392D01*
X150051924Y-60370637D01*
X150059572Y-60332190D01*
X150062417Y-60322811D01*
X150077423Y-60286584D01*
X150082044Y-60277939D01*
X150103830Y-60245336D01*
X150110048Y-60237760D01*
X150137760Y-60210048D01*
X150145336Y-60203830D01*
X150177939Y-60182044D01*
X150186584Y-60177423D01*
X150222811Y-60162417D01*
X150232190Y-60159572D01*
X150270637Y-60151924D01*
X150280392Y-60150963D01*
X150300000Y-60150000D01*
X152700000Y-60150000D01*
X152719608Y-60150963D01*
G37*
D16*
X154690000Y-61559999D03*
D17*
X153420000Y-64100000D03*
X163580000Y-64100000D03*
D18*
X158500000Y-64100000D03*
D16*
X161040000Y-59020000D03*
X155960000Y-59020000D03*
X162310000Y-61560000D03*
D15*
G36*
X146319608Y-60050963D02*
G01*
X146329363Y-60051924D01*
X146367810Y-60059572D01*
X146377189Y-60062417D01*
X146413416Y-60077423D01*
X146422061Y-60082044D01*
X146454664Y-60103830D01*
X146462240Y-60110048D01*
X146489952Y-60137760D01*
X146496170Y-60145336D01*
X146517956Y-60177939D01*
X146522577Y-60186584D01*
X146537583Y-60222811D01*
X146540428Y-60232190D01*
X146548076Y-60270637D01*
X146549037Y-60280392D01*
X146550000Y-60300000D01*
X146550000Y-60550000D01*
X147050000Y-60550000D01*
X147089018Y-60553843D01*
X147126537Y-60565224D01*
X147161114Y-60583706D01*
X147191421Y-60608579D01*
X147216294Y-60638886D01*
X147234776Y-60673463D01*
X147246157Y-60710982D01*
X147250000Y-60750000D01*
X147250000Y-62250000D01*
X147246157Y-62289018D01*
X147234776Y-62326537D01*
X147216294Y-62361114D01*
X147191421Y-62391421D01*
X147161114Y-62416294D01*
X147126537Y-62434776D01*
X147089018Y-62446157D01*
X147050000Y-62450000D01*
X146550000Y-62450000D01*
X146550000Y-62700000D01*
X146549037Y-62719608D01*
X146548076Y-62729363D01*
X146540428Y-62767810D01*
X146537583Y-62777189D01*
X146522577Y-62813416D01*
X146517956Y-62822061D01*
X146496170Y-62854664D01*
X146489952Y-62862240D01*
X146462240Y-62889952D01*
X146454664Y-62896170D01*
X146422061Y-62917956D01*
X146413416Y-62922577D01*
X146377189Y-62937583D01*
X146367810Y-62940428D01*
X146329363Y-62948076D01*
X146319608Y-62949037D01*
X146300000Y-62950000D01*
X144400000Y-62950000D01*
X144380392Y-62949037D01*
X144370637Y-62948076D01*
X144332190Y-62940428D01*
X144322811Y-62937583D01*
X144279116Y-62918377D01*
X144267015Y-62911226D01*
X144243826Y-62895217D01*
X143743826Y-62495217D01*
X143729130Y-62482228D01*
X143722113Y-62475385D01*
X143696841Y-62445362D01*
X143691295Y-62437280D01*
X143672398Y-62402961D01*
X143668534Y-62393953D01*
X143656684Y-62356575D01*
X143654652Y-62346987D01*
X143650612Y-62316588D01*
X143650306Y-62311066D01*
X143650000Y-62300000D01*
X143650000Y-60300000D01*
X143650963Y-60280392D01*
X143651924Y-60270637D01*
X143659572Y-60232190D01*
X143662417Y-60222811D01*
X143677423Y-60186584D01*
X143682044Y-60177939D01*
X143703830Y-60145336D01*
X143710048Y-60137760D01*
X143737760Y-60110048D01*
X143745336Y-60103830D01*
X143777939Y-60082044D01*
X143786584Y-60077423D01*
X143822811Y-60062417D01*
X143832190Y-60059572D01*
X143870637Y-60051924D01*
X143880392Y-60050963D01*
X143900000Y-60050000D01*
X146300000Y-60050000D01*
X146319608Y-60050963D01*
G37*
G36*
X133719608Y-62650963D02*
G01*
X133729363Y-62651924D01*
X133767810Y-62659572D01*
X133777189Y-62662417D01*
X133813416Y-62677423D01*
X133822061Y-62682044D01*
X133854664Y-62703830D01*
X133862240Y-62710048D01*
X133889952Y-62737760D01*
X133896170Y-62745336D01*
X133917956Y-62777939D01*
X133922577Y-62786584D01*
X133937583Y-62822811D01*
X133940428Y-62832190D01*
X133948076Y-62870637D01*
X133949037Y-62880392D01*
X133950000Y-62900000D01*
X133950000Y-65300000D01*
X133949037Y-65319608D01*
X133948076Y-65329363D01*
X133940428Y-65367810D01*
X133937583Y-65377189D01*
X133922577Y-65413416D01*
X133917956Y-65422061D01*
X133896170Y-65454664D01*
X133889952Y-65462240D01*
X133862240Y-65489952D01*
X133854664Y-65496170D01*
X133822061Y-65517956D01*
X133813416Y-65522577D01*
X133777189Y-65537583D01*
X133767810Y-65540428D01*
X133729363Y-65548076D01*
X133719608Y-65549037D01*
X133700000Y-65550000D01*
X131300000Y-65550000D01*
X131280392Y-65549037D01*
X131270637Y-65548076D01*
X131232190Y-65540428D01*
X131222811Y-65537583D01*
X131186584Y-65522577D01*
X131177939Y-65517956D01*
X131145336Y-65496170D01*
X131137760Y-65489952D01*
X131110048Y-65462240D01*
X131103830Y-65454664D01*
X131082044Y-65422061D01*
X131077423Y-65413416D01*
X131062417Y-65377189D01*
X131059572Y-65367810D01*
X131051924Y-65329363D01*
X131050963Y-65319608D01*
X131050000Y-65300000D01*
X131050000Y-65050000D01*
X130650000Y-65050000D01*
X130610982Y-65046157D01*
X130573463Y-65034776D01*
X130538886Y-65016294D01*
X130508579Y-64991421D01*
X130483706Y-64961114D01*
X130465224Y-64926537D01*
X130453843Y-64889018D01*
X130450000Y-64850000D01*
X130450000Y-63350000D01*
X130453843Y-63310982D01*
X130465224Y-63273463D01*
X130483706Y-63238886D01*
X130508579Y-63208579D01*
X130538886Y-63183706D01*
X130573463Y-63165224D01*
X130610982Y-63153843D01*
X130650000Y-63150000D01*
X131050000Y-63150000D01*
X131050000Y-62900000D01*
X131050963Y-62880392D01*
X131051924Y-62870637D01*
X131059572Y-62832190D01*
X131062417Y-62822811D01*
X131077423Y-62786584D01*
X131082044Y-62777939D01*
X131103830Y-62745336D01*
X131110048Y-62737760D01*
X131137760Y-62710048D01*
X131145336Y-62703830D01*
X131177939Y-62682044D01*
X131186584Y-62677423D01*
X131222811Y-62662417D01*
X131232190Y-62659572D01*
X131270637Y-62651924D01*
X131280392Y-62650963D01*
X131300000Y-62650000D01*
X133700000Y-62650000D01*
X133719608Y-62650963D01*
G37*
D16*
X135690000Y-64059999D03*
D17*
X134420000Y-66600000D03*
X144580000Y-66600000D03*
D18*
X139500000Y-66600000D03*
D16*
X142040000Y-61520000D03*
X136960000Y-61520000D03*
X143310000Y-64060000D03*
D15*
G36*
X127319608Y-62550963D02*
G01*
X127329363Y-62551924D01*
X127367810Y-62559572D01*
X127377189Y-62562417D01*
X127413416Y-62577423D01*
X127422061Y-62582044D01*
X127454664Y-62603830D01*
X127462240Y-62610048D01*
X127489952Y-62637760D01*
X127496170Y-62645336D01*
X127517956Y-62677939D01*
X127522577Y-62686584D01*
X127537583Y-62722811D01*
X127540428Y-62732190D01*
X127548076Y-62770637D01*
X127549037Y-62780392D01*
X127550000Y-62800000D01*
X127550000Y-63050000D01*
X128050000Y-63050000D01*
X128089018Y-63053843D01*
X128126537Y-63065224D01*
X128161114Y-63083706D01*
X128191421Y-63108579D01*
X128216294Y-63138886D01*
X128234776Y-63173463D01*
X128246157Y-63210982D01*
X128250000Y-63250000D01*
X128250000Y-64750000D01*
X128246157Y-64789018D01*
X128234776Y-64826537D01*
X128216294Y-64861114D01*
X128191421Y-64891421D01*
X128161114Y-64916294D01*
X128126537Y-64934776D01*
X128089018Y-64946157D01*
X128050000Y-64950000D01*
X127550000Y-64950000D01*
X127550000Y-65200000D01*
X127549037Y-65219608D01*
X127548076Y-65229363D01*
X127540428Y-65267810D01*
X127537583Y-65277189D01*
X127522577Y-65313416D01*
X127517956Y-65322061D01*
X127496170Y-65354664D01*
X127489952Y-65362240D01*
X127462240Y-65389952D01*
X127454664Y-65396170D01*
X127422061Y-65417956D01*
X127413416Y-65422577D01*
X127377189Y-65437583D01*
X127367810Y-65440428D01*
X127329363Y-65448076D01*
X127319608Y-65449037D01*
X127300000Y-65450000D01*
X125400000Y-65450000D01*
X125380392Y-65449037D01*
X125370637Y-65448076D01*
X125332190Y-65440428D01*
X125322811Y-65437583D01*
X125279116Y-65418377D01*
X125267015Y-65411226D01*
X125243826Y-65395217D01*
X124743826Y-64995217D01*
X124729130Y-64982228D01*
X124722113Y-64975385D01*
X124696841Y-64945362D01*
X124691295Y-64937280D01*
X124672398Y-64902961D01*
X124668534Y-64893953D01*
X124656684Y-64856575D01*
X124654652Y-64846987D01*
X124650612Y-64816588D01*
X124650306Y-64811066D01*
X124650000Y-64800000D01*
X124650000Y-62800000D01*
X124650963Y-62780392D01*
X124651924Y-62770637D01*
X124659572Y-62732190D01*
X124662417Y-62722811D01*
X124677423Y-62686584D01*
X124682044Y-62677939D01*
X124703830Y-62645336D01*
X124710048Y-62637760D01*
X124737760Y-62610048D01*
X124745336Y-62603830D01*
X124777939Y-62582044D01*
X124786584Y-62577423D01*
X124822811Y-62562417D01*
X124832190Y-62559572D01*
X124870637Y-62551924D01*
X124880392Y-62550963D01*
X124900000Y-62550000D01*
X127300000Y-62550000D01*
X127319608Y-62550963D01*
G37*
G36*
X114719608Y-65150963D02*
G01*
X114729363Y-65151924D01*
X114767810Y-65159572D01*
X114777189Y-65162417D01*
X114813416Y-65177423D01*
X114822061Y-65182044D01*
X114854664Y-65203830D01*
X114862240Y-65210048D01*
X114889952Y-65237760D01*
X114896170Y-65245336D01*
X114917956Y-65277939D01*
X114922577Y-65286584D01*
X114937583Y-65322811D01*
X114940428Y-65332190D01*
X114948076Y-65370637D01*
X114949037Y-65380392D01*
X114950000Y-65400000D01*
X114950000Y-67800000D01*
X114949037Y-67819608D01*
X114948076Y-67829363D01*
X114940428Y-67867810D01*
X114937583Y-67877189D01*
X114922577Y-67913416D01*
X114917956Y-67922061D01*
X114896170Y-67954664D01*
X114889952Y-67962240D01*
X114862240Y-67989952D01*
X114854664Y-67996170D01*
X114822061Y-68017956D01*
X114813416Y-68022577D01*
X114777189Y-68037583D01*
X114767810Y-68040428D01*
X114729363Y-68048076D01*
X114719608Y-68049037D01*
X114700000Y-68050000D01*
X112300000Y-68050000D01*
X112280392Y-68049037D01*
X112270637Y-68048076D01*
X112232190Y-68040428D01*
X112222811Y-68037583D01*
X112186584Y-68022577D01*
X112177939Y-68017956D01*
X112145336Y-67996170D01*
X112137760Y-67989952D01*
X112110048Y-67962240D01*
X112103830Y-67954664D01*
X112082044Y-67922061D01*
X112077423Y-67913416D01*
X112062417Y-67877189D01*
X112059572Y-67867810D01*
X112051924Y-67829363D01*
X112050963Y-67819608D01*
X112050000Y-67800000D01*
X112050000Y-67550000D01*
X111650000Y-67550000D01*
X111610982Y-67546157D01*
X111573463Y-67534776D01*
X111538886Y-67516294D01*
X111508579Y-67491421D01*
X111483706Y-67461114D01*
X111465224Y-67426537D01*
X111453843Y-67389018D01*
X111450000Y-67350000D01*
X111450000Y-65850000D01*
X111453843Y-65810982D01*
X111465224Y-65773463D01*
X111483706Y-65738886D01*
X111508579Y-65708579D01*
X111538886Y-65683706D01*
X111573463Y-65665224D01*
X111610982Y-65653843D01*
X111650000Y-65650000D01*
X112050000Y-65650000D01*
X112050000Y-65400000D01*
X112050963Y-65380392D01*
X112051924Y-65370637D01*
X112059572Y-65332190D01*
X112062417Y-65322811D01*
X112077423Y-65286584D01*
X112082044Y-65277939D01*
X112103830Y-65245336D01*
X112110048Y-65237760D01*
X112137760Y-65210048D01*
X112145336Y-65203830D01*
X112177939Y-65182044D01*
X112186584Y-65177423D01*
X112222811Y-65162417D01*
X112232190Y-65159572D01*
X112270637Y-65151924D01*
X112280392Y-65150963D01*
X112300000Y-65150000D01*
X114700000Y-65150000D01*
X114719608Y-65150963D01*
G37*
D16*
X116690000Y-66559999D03*
D17*
X115420000Y-69100000D03*
X125580000Y-69100000D03*
D18*
X120500000Y-69100000D03*
D16*
X123040000Y-64020000D03*
X117960000Y-64020000D03*
X124310000Y-66560000D03*
D15*
G36*
X222319608Y-49950963D02*
G01*
X222329363Y-49951924D01*
X222367810Y-49959572D01*
X222377189Y-49962417D01*
X222413416Y-49977423D01*
X222422061Y-49982044D01*
X222454664Y-50003830D01*
X222462240Y-50010048D01*
X222489952Y-50037760D01*
X222496170Y-50045336D01*
X222517956Y-50077939D01*
X222522577Y-50086584D01*
X222537583Y-50122811D01*
X222540428Y-50132190D01*
X222548076Y-50170637D01*
X222549037Y-50180392D01*
X222550000Y-50200000D01*
X222550000Y-50450000D01*
X223050000Y-50450000D01*
X223089018Y-50453843D01*
X223126537Y-50465224D01*
X223161114Y-50483706D01*
X223191421Y-50508579D01*
X223216294Y-50538886D01*
X223234776Y-50573463D01*
X223246157Y-50610982D01*
X223250000Y-50650000D01*
X223250000Y-52150000D01*
X223246157Y-52189018D01*
X223234776Y-52226537D01*
X223216294Y-52261114D01*
X223191421Y-52291421D01*
X223161114Y-52316294D01*
X223126537Y-52334776D01*
X223089018Y-52346157D01*
X223050000Y-52350000D01*
X222550000Y-52350000D01*
X222550000Y-52600000D01*
X222549037Y-52619608D01*
X222548076Y-52629363D01*
X222540428Y-52667810D01*
X222537583Y-52677189D01*
X222522577Y-52713416D01*
X222517956Y-52722061D01*
X222496170Y-52754664D01*
X222489952Y-52762240D01*
X222462240Y-52789952D01*
X222454664Y-52796170D01*
X222422061Y-52817956D01*
X222413416Y-52822577D01*
X222377189Y-52837583D01*
X222367810Y-52840428D01*
X222329363Y-52848076D01*
X222319608Y-52849037D01*
X222300000Y-52850000D01*
X220400000Y-52850000D01*
X220380392Y-52849037D01*
X220370637Y-52848076D01*
X220332190Y-52840428D01*
X220322811Y-52837583D01*
X220279116Y-52818377D01*
X220267015Y-52811226D01*
X220243826Y-52795217D01*
X219743826Y-52395217D01*
X219729130Y-52382228D01*
X219722113Y-52375385D01*
X219696841Y-52345362D01*
X219691295Y-52337280D01*
X219672398Y-52302961D01*
X219668534Y-52293953D01*
X219656684Y-52256575D01*
X219654652Y-52246987D01*
X219650612Y-52216588D01*
X219650306Y-52211066D01*
X219650000Y-52200000D01*
X219650000Y-50200000D01*
X219650963Y-50180392D01*
X219651924Y-50170637D01*
X219659572Y-50132190D01*
X219662417Y-50122811D01*
X219677423Y-50086584D01*
X219682044Y-50077939D01*
X219703830Y-50045336D01*
X219710048Y-50037760D01*
X219737760Y-50010048D01*
X219745336Y-50003830D01*
X219777939Y-49982044D01*
X219786584Y-49977423D01*
X219822811Y-49962417D01*
X219832190Y-49959572D01*
X219870637Y-49951924D01*
X219880392Y-49950963D01*
X219900000Y-49950000D01*
X222300000Y-49950000D01*
X222319608Y-49950963D01*
G37*
G36*
X209719608Y-52550963D02*
G01*
X209729363Y-52551924D01*
X209767810Y-52559572D01*
X209777189Y-52562417D01*
X209813416Y-52577423D01*
X209822061Y-52582044D01*
X209854664Y-52603830D01*
X209862240Y-52610048D01*
X209889952Y-52637760D01*
X209896170Y-52645336D01*
X209917956Y-52677939D01*
X209922577Y-52686584D01*
X209937583Y-52722811D01*
X209940428Y-52732190D01*
X209948076Y-52770637D01*
X209949037Y-52780392D01*
X209950000Y-52800000D01*
X209950000Y-55200000D01*
X209949037Y-55219608D01*
X209948076Y-55229363D01*
X209940428Y-55267810D01*
X209937583Y-55277189D01*
X209922577Y-55313416D01*
X209917956Y-55322061D01*
X209896170Y-55354664D01*
X209889952Y-55362240D01*
X209862240Y-55389952D01*
X209854664Y-55396170D01*
X209822061Y-55417956D01*
X209813416Y-55422577D01*
X209777189Y-55437583D01*
X209767810Y-55440428D01*
X209729363Y-55448076D01*
X209719608Y-55449037D01*
X209700000Y-55450000D01*
X207300000Y-55450000D01*
X207280392Y-55449037D01*
X207270637Y-55448076D01*
X207232190Y-55440428D01*
X207222811Y-55437583D01*
X207186584Y-55422577D01*
X207177939Y-55417956D01*
X207145336Y-55396170D01*
X207137760Y-55389952D01*
X207110048Y-55362240D01*
X207103830Y-55354664D01*
X207082044Y-55322061D01*
X207077423Y-55313416D01*
X207062417Y-55277189D01*
X207059572Y-55267810D01*
X207051924Y-55229363D01*
X207050963Y-55219608D01*
X207050000Y-55200000D01*
X207050000Y-54950000D01*
X206650000Y-54950000D01*
X206610982Y-54946157D01*
X206573463Y-54934776D01*
X206538886Y-54916294D01*
X206508579Y-54891421D01*
X206483706Y-54861114D01*
X206465224Y-54826537D01*
X206453843Y-54789018D01*
X206450000Y-54750000D01*
X206450000Y-53250000D01*
X206453843Y-53210982D01*
X206465224Y-53173463D01*
X206483706Y-53138886D01*
X206508579Y-53108579D01*
X206538886Y-53083706D01*
X206573463Y-53065224D01*
X206610982Y-53053843D01*
X206650000Y-53050000D01*
X207050000Y-53050000D01*
X207050000Y-52800000D01*
X207050963Y-52780392D01*
X207051924Y-52770637D01*
X207059572Y-52732190D01*
X207062417Y-52722811D01*
X207077423Y-52686584D01*
X207082044Y-52677939D01*
X207103830Y-52645336D01*
X207110048Y-52637760D01*
X207137760Y-52610048D01*
X207145336Y-52603830D01*
X207177939Y-52582044D01*
X207186584Y-52577423D01*
X207222811Y-52562417D01*
X207232190Y-52559572D01*
X207270637Y-52551924D01*
X207280392Y-52550963D01*
X207300000Y-52550000D01*
X209700000Y-52550000D01*
X209719608Y-52550963D01*
G37*
D16*
X211690000Y-53959999D03*
D17*
X210420000Y-56500000D03*
X220580000Y-56500000D03*
D18*
X215500000Y-56500000D03*
D16*
X218040000Y-51420000D03*
X212960000Y-51420000D03*
X219310000Y-53960000D03*
D15*
G36*
X203319608Y-49950963D02*
G01*
X203329363Y-49951924D01*
X203367810Y-49959572D01*
X203377189Y-49962417D01*
X203413416Y-49977423D01*
X203422061Y-49982044D01*
X203454664Y-50003830D01*
X203462240Y-50010048D01*
X203489952Y-50037760D01*
X203496170Y-50045336D01*
X203517956Y-50077939D01*
X203522577Y-50086584D01*
X203537583Y-50122811D01*
X203540428Y-50132190D01*
X203548076Y-50170637D01*
X203549037Y-50180392D01*
X203550000Y-50200000D01*
X203550000Y-50450000D01*
X204050000Y-50450000D01*
X204089018Y-50453843D01*
X204126537Y-50465224D01*
X204161114Y-50483706D01*
X204191421Y-50508579D01*
X204216294Y-50538886D01*
X204234776Y-50573463D01*
X204246157Y-50610982D01*
X204250000Y-50650000D01*
X204250000Y-52150000D01*
X204246157Y-52189018D01*
X204234776Y-52226537D01*
X204216294Y-52261114D01*
X204191421Y-52291421D01*
X204161114Y-52316294D01*
X204126537Y-52334776D01*
X204089018Y-52346157D01*
X204050000Y-52350000D01*
X203550000Y-52350000D01*
X203550000Y-52600000D01*
X203549037Y-52619608D01*
X203548076Y-52629363D01*
X203540428Y-52667810D01*
X203537583Y-52677189D01*
X203522577Y-52713416D01*
X203517956Y-52722061D01*
X203496170Y-52754664D01*
X203489952Y-52762240D01*
X203462240Y-52789952D01*
X203454664Y-52796170D01*
X203422061Y-52817956D01*
X203413416Y-52822577D01*
X203377189Y-52837583D01*
X203367810Y-52840428D01*
X203329363Y-52848076D01*
X203319608Y-52849037D01*
X203300000Y-52850000D01*
X201400000Y-52850000D01*
X201380392Y-52849037D01*
X201370637Y-52848076D01*
X201332190Y-52840428D01*
X201322811Y-52837583D01*
X201279116Y-52818377D01*
X201267015Y-52811226D01*
X201243826Y-52795217D01*
X200743826Y-52395217D01*
X200729130Y-52382228D01*
X200722113Y-52375385D01*
X200696841Y-52345362D01*
X200691295Y-52337280D01*
X200672398Y-52302961D01*
X200668534Y-52293953D01*
X200656684Y-52256575D01*
X200654652Y-52246987D01*
X200650612Y-52216588D01*
X200650306Y-52211066D01*
X200650000Y-52200000D01*
X200650000Y-50200000D01*
X200650963Y-50180392D01*
X200651924Y-50170637D01*
X200659572Y-50132190D01*
X200662417Y-50122811D01*
X200677423Y-50086584D01*
X200682044Y-50077939D01*
X200703830Y-50045336D01*
X200710048Y-50037760D01*
X200737760Y-50010048D01*
X200745336Y-50003830D01*
X200777939Y-49982044D01*
X200786584Y-49977423D01*
X200822811Y-49962417D01*
X200832190Y-49959572D01*
X200870637Y-49951924D01*
X200880392Y-49950963D01*
X200900000Y-49950000D01*
X203300000Y-49950000D01*
X203319608Y-49950963D01*
G37*
G36*
X190719608Y-52550963D02*
G01*
X190729363Y-52551924D01*
X190767810Y-52559572D01*
X190777189Y-52562417D01*
X190813416Y-52577423D01*
X190822061Y-52582044D01*
X190854664Y-52603830D01*
X190862240Y-52610048D01*
X190889952Y-52637760D01*
X190896170Y-52645336D01*
X190917956Y-52677939D01*
X190922577Y-52686584D01*
X190937583Y-52722811D01*
X190940428Y-52732190D01*
X190948076Y-52770637D01*
X190949037Y-52780392D01*
X190950000Y-52800000D01*
X190950000Y-55200000D01*
X190949037Y-55219608D01*
X190948076Y-55229363D01*
X190940428Y-55267810D01*
X190937583Y-55277189D01*
X190922577Y-55313416D01*
X190917956Y-55322061D01*
X190896170Y-55354664D01*
X190889952Y-55362240D01*
X190862240Y-55389952D01*
X190854664Y-55396170D01*
X190822061Y-55417956D01*
X190813416Y-55422577D01*
X190777189Y-55437583D01*
X190767810Y-55440428D01*
X190729363Y-55448076D01*
X190719608Y-55449037D01*
X190700000Y-55450000D01*
X188300000Y-55450000D01*
X188280392Y-55449037D01*
X188270637Y-55448076D01*
X188232190Y-55440428D01*
X188222811Y-55437583D01*
X188186584Y-55422577D01*
X188177939Y-55417956D01*
X188145336Y-55396170D01*
X188137760Y-55389952D01*
X188110048Y-55362240D01*
X188103830Y-55354664D01*
X188082044Y-55322061D01*
X188077423Y-55313416D01*
X188062417Y-55277189D01*
X188059572Y-55267810D01*
X188051924Y-55229363D01*
X188050963Y-55219608D01*
X188050000Y-55200000D01*
X188050000Y-54950000D01*
X187650000Y-54950000D01*
X187610982Y-54946157D01*
X187573463Y-54934776D01*
X187538886Y-54916294D01*
X187508579Y-54891421D01*
X187483706Y-54861114D01*
X187465224Y-54826537D01*
X187453843Y-54789018D01*
X187450000Y-54750000D01*
X187450000Y-53250000D01*
X187453843Y-53210982D01*
X187465224Y-53173463D01*
X187483706Y-53138886D01*
X187508579Y-53108579D01*
X187538886Y-53083706D01*
X187573463Y-53065224D01*
X187610982Y-53053843D01*
X187650000Y-53050000D01*
X188050000Y-53050000D01*
X188050000Y-52800000D01*
X188050963Y-52780392D01*
X188051924Y-52770637D01*
X188059572Y-52732190D01*
X188062417Y-52722811D01*
X188077423Y-52686584D01*
X188082044Y-52677939D01*
X188103830Y-52645336D01*
X188110048Y-52637760D01*
X188137760Y-52610048D01*
X188145336Y-52603830D01*
X188177939Y-52582044D01*
X188186584Y-52577423D01*
X188222811Y-52562417D01*
X188232190Y-52559572D01*
X188270637Y-52551924D01*
X188280392Y-52550963D01*
X188300000Y-52550000D01*
X190700000Y-52550000D01*
X190719608Y-52550963D01*
G37*
D16*
X192690000Y-53959999D03*
D17*
X191420000Y-56500000D03*
X201580000Y-56500000D03*
D18*
X196500000Y-56500000D03*
D16*
X199040000Y-51420000D03*
X193960000Y-51420000D03*
X200310000Y-53960000D03*
D15*
G36*
X184319608Y-40950963D02*
G01*
X184329363Y-40951924D01*
X184367810Y-40959572D01*
X184377189Y-40962417D01*
X184413416Y-40977423D01*
X184422061Y-40982044D01*
X184454664Y-41003830D01*
X184462240Y-41010048D01*
X184489952Y-41037760D01*
X184496170Y-41045336D01*
X184517956Y-41077939D01*
X184522577Y-41086584D01*
X184537583Y-41122811D01*
X184540428Y-41132190D01*
X184548076Y-41170637D01*
X184549037Y-41180392D01*
X184550000Y-41200000D01*
X184550000Y-41450000D01*
X185050000Y-41450000D01*
X185089018Y-41453843D01*
X185126537Y-41465224D01*
X185161114Y-41483706D01*
X185191421Y-41508579D01*
X185216294Y-41538886D01*
X185234776Y-41573463D01*
X185246157Y-41610982D01*
X185250000Y-41650000D01*
X185250000Y-43150000D01*
X185246157Y-43189018D01*
X185234776Y-43226537D01*
X185216294Y-43261114D01*
X185191421Y-43291421D01*
X185161114Y-43316294D01*
X185126537Y-43334776D01*
X185089018Y-43346157D01*
X185050000Y-43350000D01*
X184550000Y-43350000D01*
X184550000Y-43600000D01*
X184549037Y-43619608D01*
X184548076Y-43629363D01*
X184540428Y-43667810D01*
X184537583Y-43677189D01*
X184522577Y-43713416D01*
X184517956Y-43722061D01*
X184496170Y-43754664D01*
X184489952Y-43762240D01*
X184462240Y-43789952D01*
X184454664Y-43796170D01*
X184422061Y-43817956D01*
X184413416Y-43822577D01*
X184377189Y-43837583D01*
X184367810Y-43840428D01*
X184329363Y-43848076D01*
X184319608Y-43849037D01*
X184300000Y-43850000D01*
X182400000Y-43850000D01*
X182380392Y-43849037D01*
X182370637Y-43848076D01*
X182332190Y-43840428D01*
X182322811Y-43837583D01*
X182279116Y-43818377D01*
X182267015Y-43811226D01*
X182243826Y-43795217D01*
X181743826Y-43395217D01*
X181729130Y-43382228D01*
X181722113Y-43375385D01*
X181696841Y-43345362D01*
X181691295Y-43337280D01*
X181672398Y-43302961D01*
X181668534Y-43293953D01*
X181656684Y-43256575D01*
X181654652Y-43246987D01*
X181650612Y-43216588D01*
X181650306Y-43211066D01*
X181650000Y-43200000D01*
X181650000Y-41200000D01*
X181650963Y-41180392D01*
X181651924Y-41170637D01*
X181659572Y-41132190D01*
X181662417Y-41122811D01*
X181677423Y-41086584D01*
X181682044Y-41077939D01*
X181703830Y-41045336D01*
X181710048Y-41037760D01*
X181737760Y-41010048D01*
X181745336Y-41003830D01*
X181777939Y-40982044D01*
X181786584Y-40977423D01*
X181822811Y-40962417D01*
X181832190Y-40959572D01*
X181870637Y-40951924D01*
X181880392Y-40950963D01*
X181900000Y-40950000D01*
X184300000Y-40950000D01*
X184319608Y-40950963D01*
G37*
G36*
X171719608Y-43550963D02*
G01*
X171729363Y-43551924D01*
X171767810Y-43559572D01*
X171777189Y-43562417D01*
X171813416Y-43577423D01*
X171822061Y-43582044D01*
X171854664Y-43603830D01*
X171862240Y-43610048D01*
X171889952Y-43637760D01*
X171896170Y-43645336D01*
X171917956Y-43677939D01*
X171922577Y-43686584D01*
X171937583Y-43722811D01*
X171940428Y-43732190D01*
X171948076Y-43770637D01*
X171949037Y-43780392D01*
X171950000Y-43800000D01*
X171950000Y-46200000D01*
X171949037Y-46219608D01*
X171948076Y-46229363D01*
X171940428Y-46267810D01*
X171937583Y-46277189D01*
X171922577Y-46313416D01*
X171917956Y-46322061D01*
X171896170Y-46354664D01*
X171889952Y-46362240D01*
X171862240Y-46389952D01*
X171854664Y-46396170D01*
X171822061Y-46417956D01*
X171813416Y-46422577D01*
X171777189Y-46437583D01*
X171767810Y-46440428D01*
X171729363Y-46448076D01*
X171719608Y-46449037D01*
X171700000Y-46450000D01*
X169300000Y-46450000D01*
X169280392Y-46449037D01*
X169270637Y-46448076D01*
X169232190Y-46440428D01*
X169222811Y-46437583D01*
X169186584Y-46422577D01*
X169177939Y-46417956D01*
X169145336Y-46396170D01*
X169137760Y-46389952D01*
X169110048Y-46362240D01*
X169103830Y-46354664D01*
X169082044Y-46322061D01*
X169077423Y-46313416D01*
X169062417Y-46277189D01*
X169059572Y-46267810D01*
X169051924Y-46229363D01*
X169050963Y-46219608D01*
X169050000Y-46200000D01*
X169050000Y-45950000D01*
X168650000Y-45950000D01*
X168610982Y-45946157D01*
X168573463Y-45934776D01*
X168538886Y-45916294D01*
X168508579Y-45891421D01*
X168483706Y-45861114D01*
X168465224Y-45826537D01*
X168453843Y-45789018D01*
X168450000Y-45750000D01*
X168450000Y-44250000D01*
X168453843Y-44210982D01*
X168465224Y-44173463D01*
X168483706Y-44138886D01*
X168508579Y-44108579D01*
X168538886Y-44083706D01*
X168573463Y-44065224D01*
X168610982Y-44053843D01*
X168650000Y-44050000D01*
X169050000Y-44050000D01*
X169050000Y-43800000D01*
X169050963Y-43780392D01*
X169051924Y-43770637D01*
X169059572Y-43732190D01*
X169062417Y-43722811D01*
X169077423Y-43686584D01*
X169082044Y-43677939D01*
X169103830Y-43645336D01*
X169110048Y-43637760D01*
X169137760Y-43610048D01*
X169145336Y-43603830D01*
X169177939Y-43582044D01*
X169186584Y-43577423D01*
X169222811Y-43562417D01*
X169232190Y-43559572D01*
X169270637Y-43551924D01*
X169280392Y-43550963D01*
X169300000Y-43550000D01*
X171700000Y-43550000D01*
X171719608Y-43550963D01*
G37*
D16*
X173690000Y-44959999D03*
D17*
X172420000Y-47500000D03*
X182580000Y-47500000D03*
D18*
X177500000Y-47500000D03*
D16*
X180040000Y-42420000D03*
X174960000Y-42420000D03*
X181310000Y-44960000D03*
D15*
G36*
X165319608Y-38460963D02*
G01*
X165329363Y-38461924D01*
X165367810Y-38469572D01*
X165377189Y-38472417D01*
X165413416Y-38487423D01*
X165422061Y-38492044D01*
X165454664Y-38513830D01*
X165462240Y-38520048D01*
X165489952Y-38547760D01*
X165496170Y-38555336D01*
X165517956Y-38587939D01*
X165522577Y-38596584D01*
X165537583Y-38632811D01*
X165540428Y-38642190D01*
X165548076Y-38680637D01*
X165549037Y-38690392D01*
X165550000Y-38710000D01*
X165550000Y-38960000D01*
X166050000Y-38960000D01*
X166089018Y-38963843D01*
X166126537Y-38975224D01*
X166161114Y-38993706D01*
X166191421Y-39018579D01*
X166216294Y-39048886D01*
X166234776Y-39083463D01*
X166246157Y-39120982D01*
X166250000Y-39160000D01*
X166250000Y-40660000D01*
X166246157Y-40699018D01*
X166234776Y-40736537D01*
X166216294Y-40771114D01*
X166191421Y-40801421D01*
X166161114Y-40826294D01*
X166126537Y-40844776D01*
X166089018Y-40856157D01*
X166050000Y-40860000D01*
X165550000Y-40860000D01*
X165550000Y-41110000D01*
X165549037Y-41129608D01*
X165548076Y-41139363D01*
X165540428Y-41177810D01*
X165537583Y-41187189D01*
X165522577Y-41223416D01*
X165517956Y-41232061D01*
X165496170Y-41264664D01*
X165489952Y-41272240D01*
X165462240Y-41299952D01*
X165454664Y-41306170D01*
X165422061Y-41327956D01*
X165413416Y-41332577D01*
X165377189Y-41347583D01*
X165367810Y-41350428D01*
X165329363Y-41358076D01*
X165319608Y-41359037D01*
X165300000Y-41360000D01*
X163400000Y-41360000D01*
X163380392Y-41359037D01*
X163370637Y-41358076D01*
X163332190Y-41350428D01*
X163322811Y-41347583D01*
X163279116Y-41328377D01*
X163267015Y-41321226D01*
X163243826Y-41305217D01*
X162743826Y-40905217D01*
X162729130Y-40892228D01*
X162722113Y-40885385D01*
X162696841Y-40855362D01*
X162691295Y-40847280D01*
X162672398Y-40812961D01*
X162668534Y-40803953D01*
X162656684Y-40766575D01*
X162654652Y-40756987D01*
X162650612Y-40726588D01*
X162650306Y-40721066D01*
X162650000Y-40710000D01*
X162650000Y-38710000D01*
X162650963Y-38690392D01*
X162651924Y-38680637D01*
X162659572Y-38642190D01*
X162662417Y-38632811D01*
X162677423Y-38596584D01*
X162682044Y-38587939D01*
X162703830Y-38555336D01*
X162710048Y-38547760D01*
X162737760Y-38520048D01*
X162745336Y-38513830D01*
X162777939Y-38492044D01*
X162786584Y-38487423D01*
X162822811Y-38472417D01*
X162832190Y-38469572D01*
X162870637Y-38461924D01*
X162880392Y-38460963D01*
X162900000Y-38460000D01*
X165300000Y-38460000D01*
X165319608Y-38460963D01*
G37*
G36*
X152719608Y-41060963D02*
G01*
X152729363Y-41061924D01*
X152767810Y-41069572D01*
X152777189Y-41072417D01*
X152813416Y-41087423D01*
X152822061Y-41092044D01*
X152854664Y-41113830D01*
X152862240Y-41120048D01*
X152889952Y-41147760D01*
X152896170Y-41155336D01*
X152917956Y-41187939D01*
X152922577Y-41196584D01*
X152937583Y-41232811D01*
X152940428Y-41242190D01*
X152948076Y-41280637D01*
X152949037Y-41290392D01*
X152950000Y-41310000D01*
X152950000Y-43710000D01*
X152949037Y-43729608D01*
X152948076Y-43739363D01*
X152940428Y-43777810D01*
X152937583Y-43787189D01*
X152922577Y-43823416D01*
X152917956Y-43832061D01*
X152896170Y-43864664D01*
X152889952Y-43872240D01*
X152862240Y-43899952D01*
X152854664Y-43906170D01*
X152822061Y-43927956D01*
X152813416Y-43932577D01*
X152777189Y-43947583D01*
X152767810Y-43950428D01*
X152729363Y-43958076D01*
X152719608Y-43959037D01*
X152700000Y-43960000D01*
X150300000Y-43960000D01*
X150280392Y-43959037D01*
X150270637Y-43958076D01*
X150232190Y-43950428D01*
X150222811Y-43947583D01*
X150186584Y-43932577D01*
X150177939Y-43927956D01*
X150145336Y-43906170D01*
X150137760Y-43899952D01*
X150110048Y-43872240D01*
X150103830Y-43864664D01*
X150082044Y-43832061D01*
X150077423Y-43823416D01*
X150062417Y-43787189D01*
X150059572Y-43777810D01*
X150051924Y-43739363D01*
X150050963Y-43729608D01*
X150050000Y-43710000D01*
X150050000Y-43460000D01*
X149650000Y-43460000D01*
X149610982Y-43456157D01*
X149573463Y-43444776D01*
X149538886Y-43426294D01*
X149508579Y-43401421D01*
X149483706Y-43371114D01*
X149465224Y-43336537D01*
X149453843Y-43299018D01*
X149450000Y-43260000D01*
X149450000Y-41760000D01*
X149453843Y-41720982D01*
X149465224Y-41683463D01*
X149483706Y-41648886D01*
X149508579Y-41618579D01*
X149538886Y-41593706D01*
X149573463Y-41575224D01*
X149610982Y-41563843D01*
X149650000Y-41560000D01*
X150050000Y-41560000D01*
X150050000Y-41310000D01*
X150050963Y-41290392D01*
X150051924Y-41280637D01*
X150059572Y-41242190D01*
X150062417Y-41232811D01*
X150077423Y-41196584D01*
X150082044Y-41187939D01*
X150103830Y-41155336D01*
X150110048Y-41147760D01*
X150137760Y-41120048D01*
X150145336Y-41113830D01*
X150177939Y-41092044D01*
X150186584Y-41087423D01*
X150222811Y-41072417D01*
X150232190Y-41069572D01*
X150270637Y-41061924D01*
X150280392Y-41060963D01*
X150300000Y-41060000D01*
X152700000Y-41060000D01*
X152719608Y-41060963D01*
G37*
D16*
X154690000Y-42469999D03*
D17*
X153420000Y-45010000D03*
X163580000Y-45010000D03*
D18*
X158500000Y-45010000D03*
D16*
X161040000Y-39930000D03*
X155960000Y-39930000D03*
X162310000Y-42470000D03*
D15*
G36*
X146319608Y-40950963D02*
G01*
X146329363Y-40951924D01*
X146367810Y-40959572D01*
X146377189Y-40962417D01*
X146413416Y-40977423D01*
X146422061Y-40982044D01*
X146454664Y-41003830D01*
X146462240Y-41010048D01*
X146489952Y-41037760D01*
X146496170Y-41045336D01*
X146517956Y-41077939D01*
X146522577Y-41086584D01*
X146537583Y-41122811D01*
X146540428Y-41132190D01*
X146548076Y-41170637D01*
X146549037Y-41180392D01*
X146550000Y-41200000D01*
X146550000Y-41450000D01*
X147050000Y-41450000D01*
X147089018Y-41453843D01*
X147126537Y-41465224D01*
X147161114Y-41483706D01*
X147191421Y-41508579D01*
X147216294Y-41538886D01*
X147234776Y-41573463D01*
X147246157Y-41610982D01*
X147250000Y-41650000D01*
X147250000Y-43150000D01*
X147246157Y-43189018D01*
X147234776Y-43226537D01*
X147216294Y-43261114D01*
X147191421Y-43291421D01*
X147161114Y-43316294D01*
X147126537Y-43334776D01*
X147089018Y-43346157D01*
X147050000Y-43350000D01*
X146550000Y-43350000D01*
X146550000Y-43600000D01*
X146549037Y-43619608D01*
X146548076Y-43629363D01*
X146540428Y-43667810D01*
X146537583Y-43677189D01*
X146522577Y-43713416D01*
X146517956Y-43722061D01*
X146496170Y-43754664D01*
X146489952Y-43762240D01*
X146462240Y-43789952D01*
X146454664Y-43796170D01*
X146422061Y-43817956D01*
X146413416Y-43822577D01*
X146377189Y-43837583D01*
X146367810Y-43840428D01*
X146329363Y-43848076D01*
X146319608Y-43849037D01*
X146300000Y-43850000D01*
X144400000Y-43850000D01*
X144380392Y-43849037D01*
X144370637Y-43848076D01*
X144332190Y-43840428D01*
X144322811Y-43837583D01*
X144279116Y-43818377D01*
X144267015Y-43811226D01*
X144243826Y-43795217D01*
X143743826Y-43395217D01*
X143729130Y-43382228D01*
X143722113Y-43375385D01*
X143696841Y-43345362D01*
X143691295Y-43337280D01*
X143672398Y-43302961D01*
X143668534Y-43293953D01*
X143656684Y-43256575D01*
X143654652Y-43246987D01*
X143650612Y-43216588D01*
X143650306Y-43211066D01*
X143650000Y-43200000D01*
X143650000Y-41200000D01*
X143650963Y-41180392D01*
X143651924Y-41170637D01*
X143659572Y-41132190D01*
X143662417Y-41122811D01*
X143677423Y-41086584D01*
X143682044Y-41077939D01*
X143703830Y-41045336D01*
X143710048Y-41037760D01*
X143737760Y-41010048D01*
X143745336Y-41003830D01*
X143777939Y-40982044D01*
X143786584Y-40977423D01*
X143822811Y-40962417D01*
X143832190Y-40959572D01*
X143870637Y-40951924D01*
X143880392Y-40950963D01*
X143900000Y-40950000D01*
X146300000Y-40950000D01*
X146319608Y-40950963D01*
G37*
G36*
X133719608Y-43550963D02*
G01*
X133729363Y-43551924D01*
X133767810Y-43559572D01*
X133777189Y-43562417D01*
X133813416Y-43577423D01*
X133822061Y-43582044D01*
X133854664Y-43603830D01*
X133862240Y-43610048D01*
X133889952Y-43637760D01*
X133896170Y-43645336D01*
X133917956Y-43677939D01*
X133922577Y-43686584D01*
X133937583Y-43722811D01*
X133940428Y-43732190D01*
X133948076Y-43770637D01*
X133949037Y-43780392D01*
X133950000Y-43800000D01*
X133950000Y-46200000D01*
X133949037Y-46219608D01*
X133948076Y-46229363D01*
X133940428Y-46267810D01*
X133937583Y-46277189D01*
X133922577Y-46313416D01*
X133917956Y-46322061D01*
X133896170Y-46354664D01*
X133889952Y-46362240D01*
X133862240Y-46389952D01*
X133854664Y-46396170D01*
X133822061Y-46417956D01*
X133813416Y-46422577D01*
X133777189Y-46437583D01*
X133767810Y-46440428D01*
X133729363Y-46448076D01*
X133719608Y-46449037D01*
X133700000Y-46450000D01*
X131300000Y-46450000D01*
X131280392Y-46449037D01*
X131270637Y-46448076D01*
X131232190Y-46440428D01*
X131222811Y-46437583D01*
X131186584Y-46422577D01*
X131177939Y-46417956D01*
X131145336Y-46396170D01*
X131137760Y-46389952D01*
X131110048Y-46362240D01*
X131103830Y-46354664D01*
X131082044Y-46322061D01*
X131077423Y-46313416D01*
X131062417Y-46277189D01*
X131059572Y-46267810D01*
X131051924Y-46229363D01*
X131050963Y-46219608D01*
X131050000Y-46200000D01*
X131050000Y-45950000D01*
X130650000Y-45950000D01*
X130610982Y-45946157D01*
X130573463Y-45934776D01*
X130538886Y-45916294D01*
X130508579Y-45891421D01*
X130483706Y-45861114D01*
X130465224Y-45826537D01*
X130453843Y-45789018D01*
X130450000Y-45750000D01*
X130450000Y-44250000D01*
X130453843Y-44210982D01*
X130465224Y-44173463D01*
X130483706Y-44138886D01*
X130508579Y-44108579D01*
X130538886Y-44083706D01*
X130573463Y-44065224D01*
X130610982Y-44053843D01*
X130650000Y-44050000D01*
X131050000Y-44050000D01*
X131050000Y-43800000D01*
X131050963Y-43780392D01*
X131051924Y-43770637D01*
X131059572Y-43732190D01*
X131062417Y-43722811D01*
X131077423Y-43686584D01*
X131082044Y-43677939D01*
X131103830Y-43645336D01*
X131110048Y-43637760D01*
X131137760Y-43610048D01*
X131145336Y-43603830D01*
X131177939Y-43582044D01*
X131186584Y-43577423D01*
X131222811Y-43562417D01*
X131232190Y-43559572D01*
X131270637Y-43551924D01*
X131280392Y-43550963D01*
X131300000Y-43550000D01*
X133700000Y-43550000D01*
X133719608Y-43550963D01*
G37*
D16*
X135690000Y-44959999D03*
D17*
X134420000Y-47500000D03*
X144580000Y-47500000D03*
D18*
X139500000Y-47500000D03*
D16*
X142040000Y-42420000D03*
X136960000Y-42420000D03*
X143310000Y-44960000D03*
D15*
G36*
X127319608Y-43450963D02*
G01*
X127329363Y-43451924D01*
X127367810Y-43459572D01*
X127377189Y-43462417D01*
X127413416Y-43477423D01*
X127422061Y-43482044D01*
X127454664Y-43503830D01*
X127462240Y-43510048D01*
X127489952Y-43537760D01*
X127496170Y-43545336D01*
X127517956Y-43577939D01*
X127522577Y-43586584D01*
X127537583Y-43622811D01*
X127540428Y-43632190D01*
X127548076Y-43670637D01*
X127549037Y-43680392D01*
X127550000Y-43700000D01*
X127550000Y-43950000D01*
X128050000Y-43950000D01*
X128089018Y-43953843D01*
X128126537Y-43965224D01*
X128161114Y-43983706D01*
X128191421Y-44008579D01*
X128216294Y-44038886D01*
X128234776Y-44073463D01*
X128246157Y-44110982D01*
X128250000Y-44150000D01*
X128250000Y-45650000D01*
X128246157Y-45689018D01*
X128234776Y-45726537D01*
X128216294Y-45761114D01*
X128191421Y-45791421D01*
X128161114Y-45816294D01*
X128126537Y-45834776D01*
X128089018Y-45846157D01*
X128050000Y-45850000D01*
X127550000Y-45850000D01*
X127550000Y-46100000D01*
X127549037Y-46119608D01*
X127548076Y-46129363D01*
X127540428Y-46167810D01*
X127537583Y-46177189D01*
X127522577Y-46213416D01*
X127517956Y-46222061D01*
X127496170Y-46254664D01*
X127489952Y-46262240D01*
X127462240Y-46289952D01*
X127454664Y-46296170D01*
X127422061Y-46317956D01*
X127413416Y-46322577D01*
X127377189Y-46337583D01*
X127367810Y-46340428D01*
X127329363Y-46348076D01*
X127319608Y-46349037D01*
X127300000Y-46350000D01*
X125400000Y-46350000D01*
X125380392Y-46349037D01*
X125370637Y-46348076D01*
X125332190Y-46340428D01*
X125322811Y-46337583D01*
X125279116Y-46318377D01*
X125267015Y-46311226D01*
X125243826Y-46295217D01*
X124743826Y-45895217D01*
X124729130Y-45882228D01*
X124722113Y-45875385D01*
X124696841Y-45845362D01*
X124691295Y-45837280D01*
X124672398Y-45802961D01*
X124668534Y-45793953D01*
X124656684Y-45756575D01*
X124654652Y-45746987D01*
X124650612Y-45716588D01*
X124650306Y-45711066D01*
X124650000Y-45700000D01*
X124650000Y-43700000D01*
X124650963Y-43680392D01*
X124651924Y-43670637D01*
X124659572Y-43632190D01*
X124662417Y-43622811D01*
X124677423Y-43586584D01*
X124682044Y-43577939D01*
X124703830Y-43545336D01*
X124710048Y-43537760D01*
X124737760Y-43510048D01*
X124745336Y-43503830D01*
X124777939Y-43482044D01*
X124786584Y-43477423D01*
X124822811Y-43462417D01*
X124832190Y-43459572D01*
X124870637Y-43451924D01*
X124880392Y-43450963D01*
X124900000Y-43450000D01*
X127300000Y-43450000D01*
X127319608Y-43450963D01*
G37*
G36*
X114719608Y-46050963D02*
G01*
X114729363Y-46051924D01*
X114767810Y-46059572D01*
X114777189Y-46062417D01*
X114813416Y-46077423D01*
X114822061Y-46082044D01*
X114854664Y-46103830D01*
X114862240Y-46110048D01*
X114889952Y-46137760D01*
X114896170Y-46145336D01*
X114917956Y-46177939D01*
X114922577Y-46186584D01*
X114937583Y-46222811D01*
X114940428Y-46232190D01*
X114948076Y-46270637D01*
X114949037Y-46280392D01*
X114950000Y-46300000D01*
X114950000Y-48700000D01*
X114949037Y-48719608D01*
X114948076Y-48729363D01*
X114940428Y-48767810D01*
X114937583Y-48777189D01*
X114922577Y-48813416D01*
X114917956Y-48822061D01*
X114896170Y-48854664D01*
X114889952Y-48862240D01*
X114862240Y-48889952D01*
X114854664Y-48896170D01*
X114822061Y-48917956D01*
X114813416Y-48922577D01*
X114777189Y-48937583D01*
X114767810Y-48940428D01*
X114729363Y-48948076D01*
X114719608Y-48949037D01*
X114700000Y-48950000D01*
X112300000Y-48950000D01*
X112280392Y-48949037D01*
X112270637Y-48948076D01*
X112232190Y-48940428D01*
X112222811Y-48937583D01*
X112186584Y-48922577D01*
X112177939Y-48917956D01*
X112145336Y-48896170D01*
X112137760Y-48889952D01*
X112110048Y-48862240D01*
X112103830Y-48854664D01*
X112082044Y-48822061D01*
X112077423Y-48813416D01*
X112062417Y-48777189D01*
X112059572Y-48767810D01*
X112051924Y-48729363D01*
X112050963Y-48719608D01*
X112050000Y-48700000D01*
X112050000Y-48450000D01*
X111650000Y-48450000D01*
X111610982Y-48446157D01*
X111573463Y-48434776D01*
X111538886Y-48416294D01*
X111508579Y-48391421D01*
X111483706Y-48361114D01*
X111465224Y-48326537D01*
X111453843Y-48289018D01*
X111450000Y-48250000D01*
X111450000Y-46750000D01*
X111453843Y-46710982D01*
X111465224Y-46673463D01*
X111483706Y-46638886D01*
X111508579Y-46608579D01*
X111538886Y-46583706D01*
X111573463Y-46565224D01*
X111610982Y-46553843D01*
X111650000Y-46550000D01*
X112050000Y-46550000D01*
X112050000Y-46300000D01*
X112050963Y-46280392D01*
X112051924Y-46270637D01*
X112059572Y-46232190D01*
X112062417Y-46222811D01*
X112077423Y-46186584D01*
X112082044Y-46177939D01*
X112103830Y-46145336D01*
X112110048Y-46137760D01*
X112137760Y-46110048D01*
X112145336Y-46103830D01*
X112177939Y-46082044D01*
X112186584Y-46077423D01*
X112222811Y-46062417D01*
X112232190Y-46059572D01*
X112270637Y-46051924D01*
X112280392Y-46050963D01*
X112300000Y-46050000D01*
X114700000Y-46050000D01*
X114719608Y-46050963D01*
G37*
D16*
X116690000Y-47459999D03*
D17*
X115420000Y-50000000D03*
X125580000Y-50000000D03*
D18*
X120500000Y-50000000D03*
D16*
X123040000Y-44920000D03*
X117960000Y-44920000D03*
X124310000Y-47460000D03*
D19*
X164100000Y-112810000D03*
X160700000Y-112810000D03*
X144600000Y-115800000D03*
X141200000Y-115800000D03*
X125600000Y-118000000D03*
X122200000Y-118000000D03*
D15*
G36*
X109277276Y-120294615D02*
G01*
X110922724Y-119344615D01*
X112022724Y-121249871D01*
X110377276Y-122199871D01*
X109277276Y-120294615D01*
G37*
G36*
X107577276Y-117350129D02*
G01*
X109222724Y-116400129D01*
X110322724Y-118305385D01*
X108677276Y-119255385D01*
X107577276Y-117350129D01*
G37*
D19*
X108400000Y-99010000D03*
X105000000Y-99010000D03*
X223400000Y-106000000D03*
X220000000Y-106000000D03*
X191900000Y-106000000D03*
X188500000Y-106000000D03*
X173200000Y-96800000D03*
X169800000Y-96800000D03*
X154200000Y-94500000D03*
X150800000Y-94500000D03*
X137000000Y-96800000D03*
X133600000Y-96800000D03*
X116100000Y-99100000D03*
X112700000Y-99100000D03*
X223300000Y-102800000D03*
X219900000Y-102800000D03*
X191900000Y-102800000D03*
X188500000Y-102800000D03*
X173200000Y-93600000D03*
X169800000Y-93600000D03*
X154200000Y-91400000D03*
X150800000Y-91400000D03*
X136000000Y-93800000D03*
X132600000Y-93800000D03*
X116100000Y-96000000D03*
X112700000Y-96000000D03*
X223600000Y-67700000D03*
X220200000Y-67700000D03*
X192100000Y-67700000D03*
X188700000Y-67700000D03*
X173200000Y-58700000D03*
X169800000Y-58700000D03*
X154200000Y-56500000D03*
X150800000Y-56500000D03*
X137000000Y-58700000D03*
X133600000Y-58700000D03*
X116100000Y-61100000D03*
X112700000Y-61100000D03*
X223600000Y-64600000D03*
X220200000Y-64600000D03*
X192100000Y-64800000D03*
X188700000Y-64800000D03*
X173200000Y-55600000D03*
X169800000Y-55600000D03*
X154100000Y-53300000D03*
X150700000Y-53300000D03*
X136000000Y-55700000D03*
X132600000Y-55700000D03*
X116100000Y-58000000D03*
X112700000Y-58000000D03*
X182300000Y-115310000D03*
X178900000Y-115310000D03*
D15*
G36*
X99777346Y-52586589D02*
G01*
X99809380Y-52591341D01*
X99840794Y-52599210D01*
X99871286Y-52610120D01*
X99900561Y-52623966D01*
X99928338Y-52640615D01*
X99954350Y-52659907D01*
X99978345Y-52681655D01*
X100000093Y-52705650D01*
X100019385Y-52731662D01*
X100036034Y-52759439D01*
X100049880Y-52788714D01*
X100060790Y-52819206D01*
X100068659Y-52850620D01*
X100073411Y-52882654D01*
X100075000Y-52915000D01*
X100075000Y-53905000D01*
X100073411Y-53937346D01*
X100068659Y-53969380D01*
X100060790Y-54000794D01*
X100049880Y-54031286D01*
X100036034Y-54060561D01*
X100019385Y-54088338D01*
X100000093Y-54114350D01*
X99978345Y-54138345D01*
X99954350Y-54160093D01*
X99928338Y-54179385D01*
X99900561Y-54196034D01*
X99871286Y-54209880D01*
X99840794Y-54220790D01*
X99809380Y-54228659D01*
X99777346Y-54233411D01*
X99745000Y-54235000D01*
X98255000Y-54235000D01*
X98222654Y-54233411D01*
X98190620Y-54228659D01*
X98159206Y-54220790D01*
X98128714Y-54209880D01*
X98099439Y-54196034D01*
X98071662Y-54179385D01*
X98045650Y-54160093D01*
X98021655Y-54138345D01*
X97999907Y-54114350D01*
X97980615Y-54088338D01*
X97963966Y-54060561D01*
X97950120Y-54031286D01*
X97939210Y-54000794D01*
X97931341Y-53969380D01*
X97926589Y-53937346D01*
X97925000Y-53905000D01*
X97925000Y-52915000D01*
X97926589Y-52882654D01*
X97931341Y-52850620D01*
X97939210Y-52819206D01*
X97950120Y-52788714D01*
X97963966Y-52759439D01*
X97980615Y-52731662D01*
X97999907Y-52705650D01*
X98021655Y-52681655D01*
X98045650Y-52659907D01*
X98071662Y-52640615D01*
X98099439Y-52623966D01*
X98128714Y-52610120D01*
X98159206Y-52599210D01*
X98190620Y-52591341D01*
X98222654Y-52586589D01*
X98255000Y-52585000D01*
X99745000Y-52585000D01*
X99777346Y-52586589D01*
G37*
G36*
X99777346Y-49786589D02*
G01*
X99809380Y-49791341D01*
X99840794Y-49799210D01*
X99871286Y-49810120D01*
X99900561Y-49823966D01*
X99928338Y-49840615D01*
X99954350Y-49859907D01*
X99978345Y-49881655D01*
X100000093Y-49905650D01*
X100019385Y-49931662D01*
X100036034Y-49959439D01*
X100049880Y-49988714D01*
X100060790Y-50019206D01*
X100068659Y-50050620D01*
X100073411Y-50082654D01*
X100075000Y-50115000D01*
X100075000Y-51105000D01*
X100073411Y-51137346D01*
X100068659Y-51169380D01*
X100060790Y-51200794D01*
X100049880Y-51231286D01*
X100036034Y-51260561D01*
X100019385Y-51288338D01*
X100000093Y-51314350D01*
X99978345Y-51338345D01*
X99954350Y-51360093D01*
X99928338Y-51379385D01*
X99900561Y-51396034D01*
X99871286Y-51409880D01*
X99840794Y-51420790D01*
X99809380Y-51428659D01*
X99777346Y-51433411D01*
X99745000Y-51435000D01*
X98255000Y-51435000D01*
X98222654Y-51433411D01*
X98190620Y-51428659D01*
X98159206Y-51420790D01*
X98128714Y-51409880D01*
X98099439Y-51396034D01*
X98071662Y-51379385D01*
X98045650Y-51360093D01*
X98021655Y-51338345D01*
X97999907Y-51314350D01*
X97980615Y-51288338D01*
X97963966Y-51260561D01*
X97950120Y-51231286D01*
X97939210Y-51200794D01*
X97931341Y-51169380D01*
X97926589Y-51137346D01*
X97925000Y-51105000D01*
X97925000Y-50115000D01*
X97926589Y-50082654D01*
X97931341Y-50050620D01*
X97939210Y-50019206D01*
X97950120Y-49988714D01*
X97963966Y-49959439D01*
X97980615Y-49931662D01*
X97999907Y-49905650D01*
X98021655Y-49881655D01*
X98045650Y-49859907D01*
X98071662Y-49840615D01*
X98099439Y-49823966D01*
X98128714Y-49810120D01*
X98159206Y-49799210D01*
X98190620Y-49791341D01*
X98222654Y-49786589D01*
X98255000Y-49785000D01*
X99745000Y-49785000D01*
X99777346Y-49786589D01*
G37*
G36*
X102977346Y-52586589D02*
G01*
X103009380Y-52591341D01*
X103040794Y-52599210D01*
X103071286Y-52610120D01*
X103100561Y-52623966D01*
X103128338Y-52640615D01*
X103154350Y-52659907D01*
X103178345Y-52681655D01*
X103200093Y-52705650D01*
X103219385Y-52731662D01*
X103236034Y-52759439D01*
X103249880Y-52788714D01*
X103260790Y-52819206D01*
X103268659Y-52850620D01*
X103273411Y-52882654D01*
X103275000Y-52915000D01*
X103275000Y-53905000D01*
X103273411Y-53937346D01*
X103268659Y-53969380D01*
X103260790Y-54000794D01*
X103249880Y-54031286D01*
X103236034Y-54060561D01*
X103219385Y-54088338D01*
X103200093Y-54114350D01*
X103178345Y-54138345D01*
X103154350Y-54160093D01*
X103128338Y-54179385D01*
X103100561Y-54196034D01*
X103071286Y-54209880D01*
X103040794Y-54220790D01*
X103009380Y-54228659D01*
X102977346Y-54233411D01*
X102945000Y-54235000D01*
X101455000Y-54235000D01*
X101422654Y-54233411D01*
X101390620Y-54228659D01*
X101359206Y-54220790D01*
X101328714Y-54209880D01*
X101299439Y-54196034D01*
X101271662Y-54179385D01*
X101245650Y-54160093D01*
X101221655Y-54138345D01*
X101199907Y-54114350D01*
X101180615Y-54088338D01*
X101163966Y-54060561D01*
X101150120Y-54031286D01*
X101139210Y-54000794D01*
X101131341Y-53969380D01*
X101126589Y-53937346D01*
X101125000Y-53905000D01*
X101125000Y-52915000D01*
X101126589Y-52882654D01*
X101131341Y-52850620D01*
X101139210Y-52819206D01*
X101150120Y-52788714D01*
X101163966Y-52759439D01*
X101180615Y-52731662D01*
X101199907Y-52705650D01*
X101221655Y-52681655D01*
X101245650Y-52659907D01*
X101271662Y-52640615D01*
X101299439Y-52623966D01*
X101328714Y-52610120D01*
X101359206Y-52599210D01*
X101390620Y-52591341D01*
X101422654Y-52586589D01*
X101455000Y-52585000D01*
X102945000Y-52585000D01*
X102977346Y-52586589D01*
G37*
G36*
X102977346Y-49786589D02*
G01*
X103009380Y-49791341D01*
X103040794Y-49799210D01*
X103071286Y-49810120D01*
X103100561Y-49823966D01*
X103128338Y-49840615D01*
X103154350Y-49859907D01*
X103178345Y-49881655D01*
X103200093Y-49905650D01*
X103219385Y-49931662D01*
X103236034Y-49959439D01*
X103249880Y-49988714D01*
X103260790Y-50019206D01*
X103268659Y-50050620D01*
X103273411Y-50082654D01*
X103275000Y-50115000D01*
X103275000Y-51105000D01*
X103273411Y-51137346D01*
X103268659Y-51169380D01*
X103260790Y-51200794D01*
X103249880Y-51231286D01*
X103236034Y-51260561D01*
X103219385Y-51288338D01*
X103200093Y-51314350D01*
X103178345Y-51338345D01*
X103154350Y-51360093D01*
X103128338Y-51379385D01*
X103100561Y-51396034D01*
X103071286Y-51409880D01*
X103040794Y-51420790D01*
X103009380Y-51428659D01*
X102977346Y-51433411D01*
X102945000Y-51435000D01*
X101455000Y-51435000D01*
X101422654Y-51433411D01*
X101390620Y-51428659D01*
X101359206Y-51420790D01*
X101328714Y-51409880D01*
X101299439Y-51396034D01*
X101271662Y-51379385D01*
X101245650Y-51360093D01*
X101221655Y-51338345D01*
X101199907Y-51314350D01*
X101180615Y-51288338D01*
X101163966Y-51260561D01*
X101150120Y-51231286D01*
X101139210Y-51200794D01*
X101131341Y-51169380D01*
X101126589Y-51137346D01*
X101125000Y-51105000D01*
X101125000Y-50115000D01*
X101126589Y-50082654D01*
X101131341Y-50050620D01*
X101139210Y-50019206D01*
X101150120Y-49988714D01*
X101163966Y-49959439D01*
X101180615Y-49931662D01*
X101199907Y-49905650D01*
X101221655Y-49881655D01*
X101245650Y-49859907D01*
X101271662Y-49840615D01*
X101299439Y-49823966D01*
X101328714Y-49810120D01*
X101359206Y-49799210D01*
X101390620Y-49791341D01*
X101422654Y-49786589D01*
X101455000Y-49785000D01*
X102945000Y-49785000D01*
X102977346Y-49786589D01*
G37*
D20*
X99400000Y-60060000D03*
X99400000Y-58760000D03*
D18*
X105130000Y-93336000D03*
X95130000Y-93352000D03*
D21*
X103920000Y-74410000D03*
X101380000Y-74410000D03*
X98840000Y-74410000D03*
X96300000Y-74410000D03*
D22*
X96300000Y-69199620D03*
X96300000Y-70200380D03*
X98800000Y-69199620D03*
X98800000Y-70200380D03*
X101300000Y-69199620D03*
X101300000Y-70200380D03*
X103900000Y-69199620D03*
X103900000Y-70200380D03*
D23*
X205800000Y-104510000D03*
X129300000Y-97510000D03*
X129300000Y-59600000D03*
D10*
X106200000Y-109000000D03*
X106200000Y-104000000D03*
D24*
X99200000Y-112100000D03*
X99200000Y-100900000D03*
D10*
X91700000Y-109000000D03*
X91700000Y-106500000D03*
X91700000Y-104000000D03*
D23*
X103800000Y-120810000D03*
X205800000Y-66210000D03*
D25*
X123500000Y-78710000D03*
X121000000Y-78710000D03*
X118400000Y-78710000D03*
M02*
