G04 #@! TF.GenerationSoftware,KiCad,Pcbnew,5.1.5-52549c5~86~ubuntu19.10.1*
G04 #@! TF.CreationDate,2020-05-06T07:31:02+02:00*
G04 #@! TF.ProjectId,SofleKeyboard,536f666c-654b-4657-9962-6f6172642e6b,rev?*
G04 #@! TF.SameCoordinates,Original*
G04 #@! TF.FileFunction,Legend,Top*
G04 #@! TF.FilePolarity,Positive*
%FSLAX46Y46*%
G04 Gerber Fmt 4.6, Leading zero omitted, Abs format (unit mm)*
G04 Created by KiCad (PCBNEW 5.1.5-52549c5~86~ubuntu19.10.1) date 2020-05-06 07:31:02*
%MOMM*%
%LPD*%
G04 APERTURE LIST*
%ADD10C,0.150000*%
%ADD11C,0.010000*%
%ADD12C,0.381000*%
%ADD13C,0.120000*%
G04 APERTURE END LIST*
D10*
X140815714Y-132054380D02*
X140815714Y-131054380D01*
X141244285Y-132054380D02*
X141244285Y-131530571D01*
X141196666Y-131435333D01*
X141101428Y-131387714D01*
X140958571Y-131387714D01*
X140863333Y-131435333D01*
X140815714Y-131482952D01*
X141577619Y-131387714D02*
X141958571Y-131387714D01*
X141720476Y-131054380D02*
X141720476Y-131911523D01*
X141768095Y-132006761D01*
X141863333Y-132054380D01*
X141958571Y-132054380D01*
X142149047Y-131387714D02*
X142530000Y-131387714D01*
X142291904Y-131054380D02*
X142291904Y-131911523D01*
X142339523Y-132006761D01*
X142434761Y-132054380D01*
X142530000Y-132054380D01*
X142863333Y-131387714D02*
X142863333Y-132387714D01*
X142863333Y-131435333D02*
X142958571Y-131387714D01*
X143149047Y-131387714D01*
X143244285Y-131435333D01*
X143291904Y-131482952D01*
X143339523Y-131578190D01*
X143339523Y-131863904D01*
X143291904Y-131959142D01*
X143244285Y-132006761D01*
X143149047Y-132054380D01*
X142958571Y-132054380D01*
X142863333Y-132006761D01*
X143720476Y-132006761D02*
X143815714Y-132054380D01*
X144006190Y-132054380D01*
X144101428Y-132006761D01*
X144149047Y-131911523D01*
X144149047Y-131863904D01*
X144101428Y-131768666D01*
X144006190Y-131721047D01*
X143863333Y-131721047D01*
X143768095Y-131673428D01*
X143720476Y-131578190D01*
X143720476Y-131530571D01*
X143768095Y-131435333D01*
X143863333Y-131387714D01*
X144006190Y-131387714D01*
X144101428Y-131435333D01*
X144577619Y-131959142D02*
X144625238Y-132006761D01*
X144577619Y-132054380D01*
X144530000Y-132006761D01*
X144577619Y-131959142D01*
X144577619Y-132054380D01*
X144577619Y-131435333D02*
X144625238Y-131482952D01*
X144577619Y-131530571D01*
X144530000Y-131482952D01*
X144577619Y-131435333D01*
X144577619Y-131530571D01*
X145768095Y-131006761D02*
X144910952Y-132292476D01*
X146815714Y-131006761D02*
X145958571Y-132292476D01*
X147149047Y-131387714D02*
X147149047Y-132244857D01*
X147101428Y-132340095D01*
X147006190Y-132387714D01*
X146958571Y-132387714D01*
X147149047Y-131054380D02*
X147101428Y-131102000D01*
X147149047Y-131149619D01*
X147196666Y-131102000D01*
X147149047Y-131054380D01*
X147149047Y-131149619D01*
X147768095Y-132054380D02*
X147672857Y-132006761D01*
X147625238Y-131959142D01*
X147577619Y-131863904D01*
X147577619Y-131578190D01*
X147625238Y-131482952D01*
X147672857Y-131435333D01*
X147768095Y-131387714D01*
X147910952Y-131387714D01*
X148006190Y-131435333D01*
X148053809Y-131482952D01*
X148101428Y-131578190D01*
X148101428Y-131863904D01*
X148053809Y-131959142D01*
X148006190Y-132006761D01*
X147910952Y-132054380D01*
X147768095Y-132054380D01*
X148482380Y-132006761D02*
X148577619Y-132054380D01*
X148768095Y-132054380D01*
X148863333Y-132006761D01*
X148910952Y-131911523D01*
X148910952Y-131863904D01*
X148863333Y-131768666D01*
X148768095Y-131721047D01*
X148625238Y-131721047D01*
X148530000Y-131673428D01*
X148482380Y-131578190D01*
X148482380Y-131530571D01*
X148530000Y-131435333D01*
X148625238Y-131387714D01*
X148768095Y-131387714D01*
X148863333Y-131435333D01*
X149720476Y-132006761D02*
X149625238Y-132054380D01*
X149434761Y-132054380D01*
X149339523Y-132006761D01*
X149291904Y-131911523D01*
X149291904Y-131530571D01*
X149339523Y-131435333D01*
X149434761Y-131387714D01*
X149625238Y-131387714D01*
X149720476Y-131435333D01*
X149768095Y-131530571D01*
X149768095Y-131625809D01*
X149291904Y-131721047D01*
X150053809Y-131387714D02*
X150434761Y-131387714D01*
X150196666Y-132054380D02*
X150196666Y-131197238D01*
X150244285Y-131102000D01*
X150339523Y-131054380D01*
X150434761Y-131054380D01*
X151196666Y-132054380D02*
X151196666Y-131530571D01*
X151149047Y-131435333D01*
X151053809Y-131387714D01*
X150863333Y-131387714D01*
X150768095Y-131435333D01*
X151196666Y-132006761D02*
X151101428Y-132054380D01*
X150863333Y-132054380D01*
X150768095Y-132006761D01*
X150720476Y-131911523D01*
X150720476Y-131816285D01*
X150768095Y-131721047D01*
X150863333Y-131673428D01*
X151101428Y-131673428D01*
X151196666Y-131625809D01*
X152101428Y-132054380D02*
X152101428Y-131054380D01*
X152101428Y-132006761D02*
X152006190Y-132054380D01*
X151815714Y-132054380D01*
X151720476Y-132006761D01*
X151672857Y-131959142D01*
X151625238Y-131863904D01*
X151625238Y-131578190D01*
X151672857Y-131482952D01*
X151720476Y-131435333D01*
X151815714Y-131387714D01*
X152006190Y-131387714D01*
X152101428Y-131435333D01*
X153006190Y-132054380D02*
X153006190Y-131530571D01*
X152958571Y-131435333D01*
X152863333Y-131387714D01*
X152672857Y-131387714D01*
X152577619Y-131435333D01*
X153006190Y-132006761D02*
X152910952Y-132054380D01*
X152672857Y-132054380D01*
X152577619Y-132006761D01*
X152530000Y-131911523D01*
X152530000Y-131816285D01*
X152577619Y-131721047D01*
X152672857Y-131673428D01*
X152910952Y-131673428D01*
X153006190Y-131625809D01*
X153482380Y-132054380D02*
X153482380Y-131387714D01*
X153482380Y-131482952D02*
X153530000Y-131435333D01*
X153625238Y-131387714D01*
X153768095Y-131387714D01*
X153863333Y-131435333D01*
X153910952Y-131530571D01*
X153910952Y-132054380D01*
X153910952Y-131530571D02*
X153958571Y-131435333D01*
X154053809Y-131387714D01*
X154196666Y-131387714D01*
X154291904Y-131435333D01*
X154339523Y-131530571D01*
X154339523Y-132054380D01*
X155244285Y-132006761D02*
X155149047Y-132054380D01*
X154958571Y-132054380D01*
X154863333Y-132006761D01*
X154815714Y-131959142D01*
X154768095Y-131863904D01*
X154768095Y-131578190D01*
X154815714Y-131482952D01*
X154863333Y-131435333D01*
X154958571Y-131387714D01*
X155149047Y-131387714D01*
X155244285Y-131435333D01*
X155672857Y-132054380D02*
X155672857Y-131387714D01*
X155672857Y-131054380D02*
X155625238Y-131102000D01*
X155672857Y-131149619D01*
X155720476Y-131102000D01*
X155672857Y-131054380D01*
X155672857Y-131149619D01*
X156149047Y-132054380D02*
X156149047Y-131054380D01*
X156244285Y-131673428D02*
X156530000Y-132054380D01*
X156530000Y-131387714D02*
X156149047Y-131768666D01*
X156958571Y-131959142D02*
X157006190Y-132006761D01*
X156958571Y-132054380D01*
X156910952Y-132006761D01*
X156958571Y-131959142D01*
X156958571Y-132054380D01*
X157863333Y-131387714D02*
X157863333Y-132197238D01*
X157815714Y-132292476D01*
X157768095Y-132340095D01*
X157672857Y-132387714D01*
X157530000Y-132387714D01*
X157434761Y-132340095D01*
X157863333Y-132006761D02*
X157768095Y-132054380D01*
X157577619Y-132054380D01*
X157482380Y-132006761D01*
X157434761Y-131959142D01*
X157387142Y-131863904D01*
X157387142Y-131578190D01*
X157434761Y-131482952D01*
X157482380Y-131435333D01*
X157577619Y-131387714D01*
X157768095Y-131387714D01*
X157863333Y-131435333D01*
X158339523Y-132054380D02*
X158339523Y-131387714D01*
X158339523Y-131054380D02*
X158291904Y-131102000D01*
X158339523Y-131149619D01*
X158387142Y-131102000D01*
X158339523Y-131054380D01*
X158339523Y-131149619D01*
X158672857Y-131387714D02*
X159053809Y-131387714D01*
X158815714Y-131054380D02*
X158815714Y-131911523D01*
X158863333Y-132006761D01*
X158958571Y-132054380D01*
X159053809Y-132054380D01*
X159387142Y-132054380D02*
X159387142Y-131054380D01*
X159815714Y-132054380D02*
X159815714Y-131530571D01*
X159768095Y-131435333D01*
X159672857Y-131387714D01*
X159530000Y-131387714D01*
X159434761Y-131435333D01*
X159387142Y-131482952D01*
X160720476Y-131387714D02*
X160720476Y-132054380D01*
X160291904Y-131387714D02*
X160291904Y-131911523D01*
X160339523Y-132006761D01*
X160434761Y-132054380D01*
X160577619Y-132054380D01*
X160672857Y-132006761D01*
X160720476Y-131959142D01*
X161196666Y-132054380D02*
X161196666Y-131054380D01*
X161196666Y-131435333D02*
X161291904Y-131387714D01*
X161482380Y-131387714D01*
X161577619Y-131435333D01*
X161625238Y-131482952D01*
X161672857Y-131578190D01*
X161672857Y-131863904D01*
X161625238Y-131959142D01*
X161577619Y-132006761D01*
X161482380Y-132054380D01*
X161291904Y-132054380D01*
X161196666Y-132006761D01*
X162101428Y-131959142D02*
X162149047Y-132006761D01*
X162101428Y-132054380D01*
X162053809Y-132006761D01*
X162101428Y-131959142D01*
X162101428Y-132054380D01*
X162577619Y-132054380D02*
X162577619Y-131387714D01*
X162577619Y-131054380D02*
X162530000Y-131102000D01*
X162577619Y-131149619D01*
X162625238Y-131102000D01*
X162577619Y-131054380D01*
X162577619Y-131149619D01*
X163196666Y-132054380D02*
X163101428Y-132006761D01*
X163053809Y-131959142D01*
X163006190Y-131863904D01*
X163006190Y-131578190D01*
X163053809Y-131482952D01*
X163101428Y-131435333D01*
X163196666Y-131387714D01*
X163339523Y-131387714D01*
X163434761Y-131435333D01*
X163482380Y-131482952D01*
X163530000Y-131578190D01*
X163530000Y-131863904D01*
X163482380Y-131959142D01*
X163434761Y-132006761D01*
X163339523Y-132054380D01*
X163196666Y-132054380D01*
X164672857Y-131006761D02*
X163815714Y-132292476D01*
X164958571Y-132006761D02*
X165101428Y-132054380D01*
X165339523Y-132054380D01*
X165434761Y-132006761D01*
X165482380Y-131959142D01*
X165530000Y-131863904D01*
X165530000Y-131768666D01*
X165482380Y-131673428D01*
X165434761Y-131625809D01*
X165339523Y-131578190D01*
X165149047Y-131530571D01*
X165053809Y-131482952D01*
X165006190Y-131435333D01*
X164958571Y-131340095D01*
X164958571Y-131244857D01*
X165006190Y-131149619D01*
X165053809Y-131102000D01*
X165149047Y-131054380D01*
X165387142Y-131054380D01*
X165530000Y-131102000D01*
X166101428Y-132054380D02*
X166006190Y-132006761D01*
X165958571Y-131959142D01*
X165910952Y-131863904D01*
X165910952Y-131578190D01*
X165958571Y-131482952D01*
X166006190Y-131435333D01*
X166101428Y-131387714D01*
X166244285Y-131387714D01*
X166339523Y-131435333D01*
X166387142Y-131482952D01*
X166434761Y-131578190D01*
X166434761Y-131863904D01*
X166387142Y-131959142D01*
X166339523Y-132006761D01*
X166244285Y-132054380D01*
X166101428Y-132054380D01*
X166720476Y-131387714D02*
X167101428Y-131387714D01*
X166863333Y-132054380D02*
X166863333Y-131197238D01*
X166910952Y-131102000D01*
X167006190Y-131054380D01*
X167101428Y-131054380D01*
X167577619Y-132054380D02*
X167482380Y-132006761D01*
X167434761Y-131911523D01*
X167434761Y-131054380D01*
X168339523Y-132006761D02*
X168244285Y-132054380D01*
X168053809Y-132054380D01*
X167958571Y-132006761D01*
X167910952Y-131911523D01*
X167910952Y-131530571D01*
X167958571Y-131435333D01*
X168053809Y-131387714D01*
X168244285Y-131387714D01*
X168339523Y-131435333D01*
X168387142Y-131530571D01*
X168387142Y-131625809D01*
X167910952Y-131721047D01*
X168815714Y-132054380D02*
X168815714Y-131054380D01*
X169387142Y-132054380D02*
X168958571Y-131482952D01*
X169387142Y-131054380D02*
X168815714Y-131625809D01*
X170196666Y-132006761D02*
X170101428Y-132054380D01*
X169910952Y-132054380D01*
X169815714Y-132006761D01*
X169768095Y-131911523D01*
X169768095Y-131530571D01*
X169815714Y-131435333D01*
X169910952Y-131387714D01*
X170101428Y-131387714D01*
X170196666Y-131435333D01*
X170244285Y-131530571D01*
X170244285Y-131625809D01*
X169768095Y-131721047D01*
X170577619Y-131387714D02*
X170815714Y-132054380D01*
X171053809Y-131387714D02*
X170815714Y-132054380D01*
X170720476Y-132292476D01*
X170672857Y-132340095D01*
X170577619Y-132387714D01*
X171434761Y-132054380D02*
X171434761Y-131054380D01*
X171434761Y-131435333D02*
X171530000Y-131387714D01*
X171720476Y-131387714D01*
X171815714Y-131435333D01*
X171863333Y-131482952D01*
X171910952Y-131578190D01*
X171910952Y-131863904D01*
X171863333Y-131959142D01*
X171815714Y-132006761D01*
X171720476Y-132054380D01*
X171530000Y-132054380D01*
X171434761Y-132006761D01*
X172482380Y-132054380D02*
X172387142Y-132006761D01*
X172339523Y-131959142D01*
X172291904Y-131863904D01*
X172291904Y-131578190D01*
X172339523Y-131482952D01*
X172387142Y-131435333D01*
X172482380Y-131387714D01*
X172625238Y-131387714D01*
X172720476Y-131435333D01*
X172768095Y-131482952D01*
X172815714Y-131578190D01*
X172815714Y-131863904D01*
X172768095Y-131959142D01*
X172720476Y-132006761D01*
X172625238Y-132054380D01*
X172482380Y-132054380D01*
X173672857Y-132054380D02*
X173672857Y-131530571D01*
X173625238Y-131435333D01*
X173529999Y-131387714D01*
X173339523Y-131387714D01*
X173244285Y-131435333D01*
X173672857Y-132006761D02*
X173577619Y-132054380D01*
X173339523Y-132054380D01*
X173244285Y-132006761D01*
X173196666Y-131911523D01*
X173196666Y-131816285D01*
X173244285Y-131721047D01*
X173339523Y-131673428D01*
X173577619Y-131673428D01*
X173672857Y-131625809D01*
X174149047Y-132054380D02*
X174149047Y-131387714D01*
X174149047Y-131578190D02*
X174196666Y-131482952D01*
X174244285Y-131435333D01*
X174339523Y-131387714D01*
X174434761Y-131387714D01*
X175196666Y-132054380D02*
X175196666Y-131054380D01*
X175196666Y-132006761D02*
X175101428Y-132054380D01*
X174910952Y-132054380D01*
X174815714Y-132006761D01*
X174768095Y-131959142D01*
X174720476Y-131863904D01*
X174720476Y-131578190D01*
X174768095Y-131482952D01*
X174815714Y-131435333D01*
X174910952Y-131387714D01*
X175101428Y-131387714D01*
X175196666Y-131435333D01*
X176387142Y-131006761D02*
X175529999Y-132292476D01*
X190301833Y-130939683D02*
X190452147Y-130948706D01*
X190682130Y-130887082D01*
X190761798Y-130816436D01*
X190795470Y-130758115D01*
X190816817Y-130653797D01*
X190792167Y-130561804D01*
X190721521Y-130482136D01*
X190663200Y-130448464D01*
X190558883Y-130427117D01*
X190362572Y-130430420D01*
X190258254Y-130409073D01*
X190199933Y-130375401D01*
X190129287Y-130295733D01*
X190104638Y-130203740D01*
X190125985Y-130099422D01*
X190159657Y-130041101D01*
X190239325Y-129970455D01*
X190469307Y-129908831D01*
X190619621Y-129917854D01*
X191418073Y-130689887D02*
X191313756Y-130668540D01*
X191255434Y-130634868D01*
X191184789Y-130555200D01*
X191110840Y-130279221D01*
X191132187Y-130174903D01*
X191165859Y-130116582D01*
X191245527Y-130045936D01*
X191383517Y-130008962D01*
X191487834Y-130030309D01*
X191546155Y-130063981D01*
X191616801Y-130143649D01*
X191690750Y-130419628D01*
X191669403Y-130523945D01*
X191635731Y-130582266D01*
X191556063Y-130652912D01*
X191418073Y-130689887D01*
X191843481Y-129885715D02*
X192211453Y-129787117D01*
X192154017Y-130492691D02*
X191932172Y-129664755D01*
X191953519Y-129560437D01*
X192033187Y-129489791D01*
X192125180Y-129465142D01*
X192843964Y-130307820D02*
X192739646Y-130286473D01*
X192669000Y-130206805D01*
X192447155Y-129378869D01*
X193567583Y-130064628D02*
X193487914Y-130135274D01*
X193303928Y-130184573D01*
X193199611Y-130163226D01*
X193128965Y-130083558D01*
X193030367Y-129715586D01*
X193051714Y-129611269D01*
X193131382Y-129540623D01*
X193315368Y-129491324D01*
X193419686Y-129512671D01*
X193490332Y-129592339D01*
X193514981Y-129684332D01*
X193079666Y-129899572D01*
X194775815Y-129790182D02*
X194516996Y-128824256D01*
X195327773Y-129642286D02*
X194765908Y-129201250D01*
X195068954Y-128676360D02*
X194664893Y-129376214D01*
X196097388Y-129386769D02*
X196017720Y-129457415D01*
X195833734Y-129506714D01*
X195729417Y-129485367D01*
X195658771Y-129405699D01*
X195560173Y-129037727D01*
X195581520Y-128933409D01*
X195661188Y-128862763D01*
X195845174Y-128813464D01*
X195949492Y-128834811D01*
X196020138Y-128914480D01*
X196044787Y-129006473D01*
X195609472Y-129221713D01*
X196305139Y-128690217D02*
X196707667Y-129272544D01*
X196765103Y-128566970D02*
X196707667Y-129272544D01*
X196677298Y-129527176D01*
X196643626Y-129585497D01*
X196563958Y-129656143D01*
X197305621Y-129112323D02*
X197046802Y-128146397D01*
X197145400Y-128514369D02*
X197225068Y-128443723D01*
X197409054Y-128394424D01*
X197513372Y-128415771D01*
X197571693Y-128449443D01*
X197642339Y-128529111D01*
X197716287Y-128805090D01*
X197694940Y-128909407D01*
X197661268Y-128967729D01*
X197581600Y-129038375D01*
X197397614Y-129087673D01*
X197293296Y-129066326D01*
X198317543Y-128841179D02*
X198213226Y-128819832D01*
X198154905Y-128786160D01*
X198084259Y-128706492D01*
X198010310Y-128430513D01*
X198031657Y-128326196D01*
X198065329Y-128267874D01*
X198144997Y-128197229D01*
X198282987Y-128160254D01*
X198387305Y-128181601D01*
X198445626Y-128215273D01*
X198516272Y-128294941D01*
X198590220Y-128570920D01*
X198568873Y-128675238D01*
X198535201Y-128733559D01*
X198455533Y-128804205D01*
X198317543Y-128841179D01*
X199467455Y-128533061D02*
X199331883Y-128027100D01*
X199261237Y-127947432D01*
X199156920Y-127926085D01*
X198972934Y-127975384D01*
X198893266Y-128046030D01*
X199455130Y-128487065D02*
X199375462Y-128557711D01*
X199145480Y-128619334D01*
X199041162Y-128597987D01*
X198970516Y-128518319D01*
X198945867Y-128426326D01*
X198967214Y-128322008D01*
X199046882Y-128251362D01*
X199276865Y-128189739D01*
X199356533Y-128119093D01*
X199927420Y-128409814D02*
X199754874Y-127765863D01*
X199804173Y-127949849D02*
X199825520Y-127845532D01*
X199859191Y-127787210D01*
X199938860Y-127716565D01*
X200030853Y-127691915D01*
X200939342Y-128138670D02*
X200680523Y-127172744D01*
X200927017Y-128092674D02*
X200847349Y-128163320D01*
X200663363Y-128212619D01*
X200559046Y-128191272D01*
X200500725Y-128157600D01*
X200430079Y-128077932D01*
X200356130Y-127801953D01*
X200377477Y-127697635D01*
X200411149Y-127639314D01*
X200490817Y-127568668D01*
X200674803Y-127519369D01*
X200779121Y-127540716D01*
X201870711Y-127198926D02*
X202273240Y-127781253D01*
X202330676Y-127075679D01*
X202591028Y-126759424D02*
X202624699Y-126701103D01*
X202704368Y-126630457D01*
X202934350Y-126568833D01*
X203038668Y-126590180D01*
X203096989Y-126623852D01*
X203167635Y-126703520D01*
X203192284Y-126795513D01*
X203183262Y-126945827D01*
X202779201Y-127645682D01*
X203377155Y-127485460D01*
X203766474Y-127282545D02*
X203824795Y-127316217D01*
X203791123Y-127374538D01*
X203732802Y-127340866D01*
X203766474Y-127282545D01*
X203791123Y-127374538D01*
X204176255Y-126236066D02*
X204268248Y-126211417D01*
X204372565Y-126232764D01*
X204430886Y-126266435D01*
X204501532Y-126346104D01*
X204596828Y-126517765D01*
X204658451Y-126747747D01*
X204661754Y-126944058D01*
X204640407Y-127048375D01*
X204606735Y-127106696D01*
X204527067Y-127177342D01*
X204435074Y-127201992D01*
X204330756Y-127180645D01*
X204272435Y-127146973D01*
X204201789Y-127067305D01*
X204106494Y-126895644D01*
X204044870Y-126665661D01*
X204041568Y-126469351D01*
X204062915Y-126365033D01*
X204096586Y-126306712D01*
X204176255Y-126236066D01*
X205906961Y-126807601D02*
X205648142Y-125841675D01*
X205746739Y-126209647D02*
X205826408Y-126139001D01*
X206010393Y-126089702D01*
X206114711Y-126111049D01*
X206173032Y-126144721D01*
X206243678Y-126224389D01*
X206317626Y-126500368D01*
X206296279Y-126604685D01*
X206262608Y-126663007D01*
X206182939Y-126733653D01*
X205998954Y-126782951D01*
X205894636Y-126761604D01*
X206516355Y-125954130D02*
X206918883Y-126536457D01*
X206976319Y-125830883D02*
X206918883Y-126536457D01*
X206888514Y-126791089D01*
X206854842Y-126849410D01*
X206775174Y-126920056D01*
X208269940Y-125139166D02*
X208454811Y-125829113D01*
X208445789Y-125979427D01*
X208378445Y-126096070D01*
X208252781Y-126179040D01*
X208160788Y-126203690D01*
X209126713Y-125944871D02*
X209022396Y-125923524D01*
X208964075Y-125889852D01*
X208893429Y-125810184D01*
X208819480Y-125534205D01*
X208840827Y-125429887D01*
X208874499Y-125371566D01*
X208954167Y-125300920D01*
X209092157Y-125263946D01*
X209196474Y-125285293D01*
X209254796Y-125318965D01*
X209325442Y-125398633D01*
X209399390Y-125674612D01*
X209378043Y-125778929D01*
X209344371Y-125837251D01*
X209264703Y-125907897D01*
X209126713Y-125944871D01*
X209804336Y-125714004D02*
X209908653Y-125735351D01*
X210092639Y-125686052D01*
X210172307Y-125615406D01*
X210193655Y-125511088D01*
X210181330Y-125465092D01*
X210110684Y-125385423D01*
X210006366Y-125364076D01*
X209868377Y-125401051D01*
X209764059Y-125379704D01*
X209693413Y-125300035D01*
X209681089Y-125254039D01*
X209702436Y-125149721D01*
X209782104Y-125079075D01*
X209920093Y-125042101D01*
X210024411Y-125063448D01*
X211000244Y-125393561D02*
X210920576Y-125464207D01*
X210736590Y-125513506D01*
X210632272Y-125492159D01*
X210561626Y-125412490D01*
X210463029Y-125044519D01*
X210484376Y-124940201D01*
X210564044Y-124869555D01*
X210748030Y-124820256D01*
X210852347Y-124841603D01*
X210922993Y-124921271D01*
X210947643Y-125013264D01*
X210512327Y-125228505D01*
X211161998Y-124709334D02*
X211529970Y-124610736D01*
X211472533Y-125316310D02*
X211250688Y-124488374D01*
X211272035Y-124384056D01*
X211351704Y-124313410D01*
X211443697Y-124288761D01*
X212640490Y-124707564D02*
X213100454Y-124584317D01*
X212622445Y-125008192D02*
X212685601Y-123955993D01*
X213266396Y-124835646D01*
X214002339Y-124638451D02*
X213743520Y-123672525D01*
X213990014Y-124592454D02*
X213910346Y-124663100D01*
X213726360Y-124712399D01*
X213622043Y-124691052D01*
X213563721Y-124657380D01*
X213493075Y-124577712D01*
X213419127Y-124301733D01*
X213440474Y-124197416D01*
X213474146Y-124139094D01*
X213553814Y-124068449D01*
X213737800Y-124019150D01*
X213842118Y-124040497D01*
X214876272Y-124404281D02*
X214740700Y-123898320D01*
X214670054Y-123818652D01*
X214565736Y-123797305D01*
X214381751Y-123846604D01*
X214302082Y-123917250D01*
X214863947Y-124358285D02*
X214784279Y-124428931D01*
X214554297Y-124490554D01*
X214449979Y-124469207D01*
X214379333Y-124389539D01*
X214354684Y-124297546D01*
X214376031Y-124193228D01*
X214455699Y-124122582D01*
X214685681Y-124060959D01*
X214765349Y-123990313D01*
X215336237Y-124281034D02*
X215163691Y-123637083D01*
X215188340Y-123729076D02*
X215222012Y-123670755D01*
X215301680Y-123600109D01*
X215439669Y-123563135D01*
X215543987Y-123584482D01*
X215614633Y-123664150D01*
X215750205Y-124170112D01*
X215614633Y-123664150D02*
X215635980Y-123559833D01*
X215715648Y-123489187D01*
X215853638Y-123452213D01*
X215957955Y-123473560D01*
X216028601Y-123553228D01*
X216164173Y-124059189D01*
X217025781Y-123779023D02*
X216946113Y-123849669D01*
X216762127Y-123898968D01*
X216657809Y-123877621D01*
X216599488Y-123843949D01*
X216528842Y-123764281D01*
X216454894Y-123488302D01*
X216476241Y-123383984D01*
X216509913Y-123325663D01*
X216589581Y-123255017D01*
X216773567Y-123205718D01*
X216877885Y-123227065D01*
X217452074Y-123714097D02*
X217279528Y-123070146D01*
X217193255Y-122748171D02*
X217159583Y-122806492D01*
X217217905Y-122840164D01*
X217251576Y-122781843D01*
X217193255Y-122748171D01*
X217217905Y-122840164D01*
X217912039Y-123590850D02*
X217653220Y-122624924D01*
X217905434Y-123198229D02*
X218280011Y-123492252D01*
X218107465Y-122848302D02*
X217838091Y-123314871D01*
D11*
G36*
X207837579Y-77999654D02*
G01*
X207889345Y-78055887D01*
X207939854Y-78130465D01*
X207962279Y-78216830D01*
X207962210Y-78344716D01*
X207957007Y-78415720D01*
X207940836Y-78568611D01*
X207921287Y-78697643D01*
X207907578Y-78757386D01*
X207898052Y-78815305D01*
X207935270Y-78834203D01*
X208019805Y-78828699D01*
X208149955Y-78836399D01*
X208243180Y-78874569D01*
X208298584Y-78932013D01*
X208294713Y-79001137D01*
X208276597Y-79045005D01*
X208217857Y-79122167D01*
X208109792Y-79182522D01*
X207991296Y-79222336D01*
X207824727Y-79284460D01*
X207716955Y-79367364D01*
X207651671Y-79491496D01*
X207612566Y-79677304D01*
X207609310Y-79701261D01*
X207579542Y-79927879D01*
X207700532Y-79903948D01*
X207948549Y-79861489D01*
X208123794Y-79846344D01*
X208223329Y-79858676D01*
X208242934Y-79873701D01*
X208301287Y-79923103D01*
X208416781Y-79991469D01*
X208567337Y-80067885D01*
X208730874Y-80141435D01*
X208885314Y-80201207D01*
X208943355Y-80219933D01*
X209068149Y-80262844D01*
X209160948Y-80305361D01*
X209182445Y-80319989D01*
X209202183Y-80370203D01*
X209213332Y-80482093D01*
X209216146Y-80662529D01*
X209210878Y-80918380D01*
X209207818Y-81009226D01*
X209200981Y-81271747D01*
X209201334Y-81471220D01*
X209208690Y-81600860D01*
X209222863Y-81653884D01*
X209225536Y-81654810D01*
X209318767Y-81645536D01*
X209451971Y-81621977D01*
X209596541Y-81590526D01*
X209723869Y-81557576D01*
X209805350Y-81529519D01*
X209817068Y-81522618D01*
X209855321Y-81460299D01*
X209897396Y-81347497D01*
X209915498Y-81283113D01*
X209959266Y-81147877D01*
X210011377Y-81038766D01*
X210032595Y-81009226D01*
X210131503Y-80942210D01*
X210224579Y-80950223D01*
X210297807Y-81024026D01*
X210337171Y-81154377D01*
X210340355Y-81212116D01*
X210350519Y-81291899D01*
X210397802Y-81308472D01*
X210446217Y-81298752D01*
X210705309Y-81249281D01*
X210905204Y-81247483D01*
X211052887Y-81291287D01*
X211149344Y-81362895D01*
X211186210Y-81437327D01*
X211156831Y-81496413D01*
X211132631Y-81509005D01*
X211098157Y-81562442D01*
X211086978Y-81690520D01*
X211088811Y-81763289D01*
X211091281Y-81899557D01*
X211077523Y-81975856D01*
X211039473Y-82016490D01*
X210998657Y-82034998D01*
X210909421Y-82098670D01*
X210869319Y-82163446D01*
X210822565Y-82229081D01*
X210777568Y-82229371D01*
X210678649Y-82207619D01*
X210639133Y-82205143D01*
X210559892Y-82182346D01*
X210448503Y-82124903D01*
X210400823Y-82094519D01*
X210321033Y-82042750D01*
X210253606Y-82012815D01*
X210175570Y-82002151D01*
X210063948Y-82008196D01*
X209895766Y-82028386D01*
X209855166Y-82033657D01*
X209665827Y-82058875D01*
X209492475Y-82083007D01*
X209363891Y-82102011D01*
X209333899Y-82106853D01*
X209195277Y-82130289D01*
X209206899Y-83621902D01*
X209208705Y-83991658D01*
X209208221Y-84325180D01*
X209205598Y-84613939D01*
X209200985Y-84849403D01*
X209194533Y-85023045D01*
X209186392Y-85126334D01*
X209180000Y-85152000D01*
X209129315Y-85160837D01*
X209001796Y-85167970D01*
X208805261Y-85173294D01*
X208547526Y-85176702D01*
X208236411Y-85178088D01*
X207879732Y-85177346D01*
X207511946Y-85174634D01*
X205882414Y-85158783D01*
X205909683Y-85385880D01*
X205925744Y-85566655D01*
X205935734Y-85769315D01*
X205937320Y-85861898D01*
X205937688Y-86110821D01*
X206127395Y-86089438D01*
X206281007Y-86086256D01*
X206366147Y-86126345D01*
X206391340Y-86219671D01*
X206366847Y-86369380D01*
X206332292Y-86498815D01*
X206301610Y-86601133D01*
X206293755Y-86623526D01*
X206290613Y-86664332D01*
X206332984Y-86685182D01*
X206437757Y-86692171D01*
X206484852Y-86692476D01*
X206714476Y-86711595D01*
X206878144Y-86765536D01*
X206972000Y-86849177D01*
X206992191Y-86957394D01*
X206934859Y-87085064D01*
X206851012Y-87179074D01*
X206743141Y-87263790D01*
X206614307Y-87327445D01*
X206449538Y-87373969D01*
X206233862Y-87407288D01*
X205952310Y-87431332D01*
X205870728Y-87436305D01*
X205653698Y-87446357D01*
X205504435Y-87446359D01*
X205406517Y-87435231D01*
X205343518Y-87411892D01*
X205326504Y-87400506D01*
X205281395Y-87357960D01*
X205264609Y-87304653D01*
X205270842Y-87242810D01*
X205462412Y-87242810D01*
X205879967Y-87240957D01*
X206198408Y-87226656D01*
X206439435Y-87186668D01*
X206505147Y-87166873D01*
X206638184Y-87106633D01*
X206742919Y-87034702D01*
X206774894Y-86999393D01*
X206837015Y-86904143D01*
X206428356Y-86904143D01*
X206216219Y-86900717D01*
X206079808Y-86885325D01*
X206010294Y-86850292D01*
X205998847Y-86787943D01*
X206036635Y-86690606D01*
X206083631Y-86604564D01*
X206161161Y-86448136D01*
X206189826Y-86339475D01*
X206168863Y-86285714D01*
X206117605Y-86286471D01*
X206035086Y-86300632D01*
X205902827Y-86312241D01*
X205805719Y-86316838D01*
X205567916Y-86324172D01*
X205540654Y-86645908D01*
X205523745Y-86823809D01*
X205505099Y-86986923D01*
X205488618Y-87101297D01*
X205487902Y-87105226D01*
X205462412Y-87242810D01*
X205270842Y-87242810D01*
X205273641Y-87215048D01*
X205297267Y-87102330D01*
X205325863Y-86936812D01*
X205349656Y-86731674D01*
X205363239Y-86536063D01*
X205372754Y-86365894D01*
X205388216Y-86260817D01*
X205415059Y-86201258D01*
X205458715Y-86167642D01*
X205466559Y-86163854D01*
X205509015Y-86138277D01*
X205536908Y-86098767D01*
X205551562Y-86031363D01*
X205554303Y-85922102D01*
X205546455Y-85757023D01*
X205529342Y-85522162D01*
X205528489Y-85511187D01*
X205513348Y-85316643D01*
X205694364Y-85316643D01*
X205697771Y-85403768D01*
X205707365Y-85426256D01*
X205712775Y-85412386D01*
X205720660Y-85310726D01*
X205713629Y-85243053D01*
X205702477Y-85219591D01*
X205695462Y-85270473D01*
X205694364Y-85316643D01*
X205513348Y-85316643D01*
X205500797Y-85155398D01*
X204532574Y-85183526D01*
X204200079Y-85192034D01*
X203943603Y-85195733D01*
X203754628Y-85194425D01*
X203624631Y-85187911D01*
X203545092Y-85175993D01*
X203508698Y-85159665D01*
X203487642Y-85120574D01*
X203473902Y-85042591D01*
X203472227Y-85011680D01*
X203694020Y-85011680D01*
X203735157Y-85013198D01*
X203853784Y-85014630D01*
X204042723Y-85015953D01*
X204294799Y-85017145D01*
X204602833Y-85018182D01*
X204959649Y-85019039D01*
X205358070Y-85019695D01*
X205790919Y-85020125D01*
X206251019Y-85020305D01*
X206334025Y-85020310D01*
X208974031Y-85020310D01*
X208571317Y-84427643D01*
X208433099Y-84225930D01*
X208306997Y-84045054D01*
X208202475Y-83898347D01*
X208128996Y-83799142D01*
X208100896Y-83764891D01*
X208019319Y-83724715D01*
X207861510Y-83688902D01*
X207635826Y-83658217D01*
X207350624Y-83633422D01*
X207014262Y-83615282D01*
X206635099Y-83604560D01*
X206316446Y-83601838D01*
X206047128Y-83604627D01*
X205761716Y-83612600D01*
X205473951Y-83624844D01*
X205197572Y-83640448D01*
X204946319Y-83658498D01*
X204733931Y-83678084D01*
X204574148Y-83698294D01*
X204480709Y-83718215D01*
X204466701Y-83724619D01*
X204437661Y-83764752D01*
X204374757Y-83863119D01*
X204286670Y-84005263D01*
X204182080Y-84176725D01*
X204069665Y-84363047D01*
X203958107Y-84549772D01*
X203856083Y-84722441D01*
X203772276Y-84866597D01*
X203715363Y-84967782D01*
X203694025Y-85011537D01*
X203694020Y-85011680D01*
X203472227Y-85011680D01*
X203466980Y-84914925D01*
X203466379Y-84726787D01*
X203471602Y-84467390D01*
X203473553Y-84397243D01*
X203482321Y-84129703D01*
X203486426Y-83936161D01*
X203479252Y-83805975D01*
X203454183Y-83728498D01*
X203404603Y-83693087D01*
X203323897Y-83689096D01*
X203205447Y-83705881D01*
X203059022Y-83730277D01*
X202845953Y-83764136D01*
X202702734Y-83790570D01*
X202615497Y-83814817D01*
X202570377Y-83842115D01*
X202553509Y-83877704D01*
X202551022Y-83922200D01*
X202527050Y-84005735D01*
X202441616Y-84048446D01*
X202434605Y-84050082D01*
X202198699Y-84106763D01*
X202013669Y-84160990D01*
X201846678Y-84223002D01*
X201756240Y-84261650D01*
X201617038Y-84317376D01*
X201498773Y-84354600D01*
X201442927Y-84364143D01*
X201379496Y-84340090D01*
X201323909Y-84262696D01*
X201273283Y-84124111D01*
X201224733Y-83916481D01*
X201176395Y-83638490D01*
X201144520Y-83415134D01*
X201130049Y-83252544D01*
X201130407Y-83232347D01*
X201323355Y-83232347D01*
X201330652Y-83364250D01*
X201349961Y-83535725D01*
X201377406Y-83723266D01*
X201409110Y-83903365D01*
X201441199Y-84052516D01*
X201469795Y-84147212D01*
X201476355Y-84160297D01*
X201521186Y-84160116D01*
X201618262Y-84129004D01*
X201714574Y-84088113D01*
X201883599Y-84017980D01*
X202062845Y-83955687D01*
X202138883Y-83933849D01*
X202343320Y-83881454D01*
X202314226Y-83648594D01*
X202306193Y-83592022D01*
X202738716Y-83592022D01*
X202780327Y-83598801D01*
X202835234Y-83591017D01*
X202835890Y-83576566D01*
X202779231Y-83566461D01*
X202754751Y-83573224D01*
X202738716Y-83592022D01*
X202306193Y-83592022D01*
X202299831Y-83547224D01*
X202958453Y-83547224D01*
X203016688Y-83553125D01*
X203076786Y-83546473D01*
X203069605Y-83531773D01*
X202982934Y-83526182D01*
X202963772Y-83531773D01*
X202958453Y-83547224D01*
X202299831Y-83547224D01*
X202293437Y-83502201D01*
X203147216Y-83502201D01*
X203160615Y-83515343D01*
X203228658Y-83515830D01*
X203322702Y-83506232D01*
X203414104Y-83489118D01*
X203461188Y-83474037D01*
X203485618Y-83454391D01*
X203427671Y-83453522D01*
X203355355Y-83461736D01*
X203237464Y-83479932D01*
X203160514Y-83496695D01*
X203147216Y-83502201D01*
X202293437Y-83502201D01*
X202292792Y-83497661D01*
X202269897Y-83367129D01*
X202258262Y-83315262D01*
X202241346Y-83264050D01*
X202215513Y-83248173D01*
X202164224Y-83272699D01*
X202070945Y-83342695D01*
X202009420Y-83391528D01*
X201852096Y-83500539D01*
X201741596Y-83539953D01*
X201678341Y-83509722D01*
X201662022Y-83432255D01*
X201651829Y-83335819D01*
X201625569Y-83203828D01*
X201589717Y-83060157D01*
X201550750Y-82928685D01*
X201515145Y-82833289D01*
X201489942Y-82797810D01*
X201423026Y-82836910D01*
X201368229Y-82941560D01*
X201332826Y-83092778D01*
X201323355Y-83232347D01*
X201130407Y-83232347D01*
X201132246Y-83128787D01*
X201150376Y-83021929D01*
X201155090Y-83003490D01*
X201231694Y-82805666D01*
X201330999Y-82675361D01*
X201441806Y-82614330D01*
X201552914Y-82624330D01*
X201653126Y-82707117D01*
X201731241Y-82864449D01*
X201744811Y-82911007D01*
X201779832Y-83045367D01*
X201807955Y-83153320D01*
X201816330Y-83185493D01*
X201835359Y-83218271D01*
X201879193Y-83219820D01*
X201964733Y-83186379D01*
X202087895Y-83125035D01*
X202244069Y-83051859D01*
X202344693Y-83030899D01*
X202404817Y-83067632D01*
X202439488Y-83167537D01*
X202454103Y-83258350D01*
X202478725Y-83365603D01*
X202512459Y-83425733D01*
X202524845Y-83430574D01*
X202583478Y-83421767D01*
X202706181Y-83399605D01*
X202874054Y-83367595D01*
X203037855Y-83335324D01*
X203503522Y-83242310D01*
X203515396Y-82672478D01*
X203517204Y-82441240D01*
X203514886Y-82151698D01*
X203508911Y-81830092D01*
X203499750Y-81502660D01*
X203489643Y-81235521D01*
X203476660Y-80926396D01*
X203469827Y-80690642D01*
X203471810Y-80517034D01*
X203484806Y-80398634D01*
X203630522Y-80398634D01*
X203630522Y-82593045D01*
X203630646Y-83015156D01*
X203631004Y-83410580D01*
X203631572Y-83771446D01*
X203632325Y-84089882D01*
X203633240Y-84358015D01*
X203634293Y-84567973D01*
X203635459Y-84711885D01*
X203636716Y-84781879D01*
X203637193Y-84787466D01*
X203659635Y-84752925D01*
X203717334Y-84657482D01*
X203802972Y-84513421D01*
X203909231Y-84333024D01*
X203983967Y-84205393D01*
X204103079Y-83998752D01*
X204197959Y-83822340D01*
X204271660Y-83662413D01*
X204327233Y-83505228D01*
X204367730Y-83337043D01*
X204396202Y-83144114D01*
X204415701Y-82912700D01*
X204429279Y-82629055D01*
X204439988Y-82279439D01*
X204443724Y-82134947D01*
X204448009Y-81844303D01*
X204447086Y-81540247D01*
X204441542Y-81235335D01*
X204431966Y-80942124D01*
X204418945Y-80673169D01*
X204403067Y-80441028D01*
X204384919Y-80258256D01*
X204365090Y-80137411D01*
X204348178Y-80093522D01*
X204304860Y-80102444D01*
X204203127Y-80140702D01*
X204061004Y-80201233D01*
X203980763Y-80237491D01*
X203630522Y-80398634D01*
X203484806Y-80398634D01*
X203485277Y-80394348D01*
X203512895Y-80311358D01*
X203557332Y-80256841D01*
X203621255Y-80219571D01*
X203707332Y-80188324D01*
X203741095Y-80177409D01*
X203859238Y-80128834D01*
X204012000Y-80052343D01*
X204028982Y-80042735D01*
X204500181Y-80042735D01*
X204511574Y-80114105D01*
X204522602Y-80195089D01*
X204537548Y-80344399D01*
X204555002Y-80545862D01*
X204573553Y-80783305D01*
X204589668Y-81009226D01*
X204610914Y-81370196D01*
X204620540Y-81683319D01*
X204618546Y-81984613D01*
X204604932Y-82310098D01*
X204589668Y-82554393D01*
X204571319Y-82810123D01*
X204552825Y-83044108D01*
X204535597Y-83240176D01*
X204521046Y-83382153D01*
X204511574Y-83449514D01*
X204500521Y-83533853D01*
X204528578Y-83557319D01*
X204587500Y-83546733D01*
X204663446Y-83535026D01*
X204806788Y-83519267D01*
X205000448Y-83501104D01*
X205227346Y-83482184D01*
X205366188Y-83471606D01*
X205706254Y-83453668D01*
X206091667Y-83445114D01*
X206498818Y-83445543D01*
X206904099Y-83454559D01*
X207283902Y-83471762D01*
X207614618Y-83496756D01*
X207752669Y-83511859D01*
X208022484Y-83545504D01*
X207995315Y-83288073D01*
X207972481Y-83007842D01*
X207955157Y-82665456D01*
X207943582Y-82283264D01*
X207937994Y-81883613D01*
X207938139Y-81793721D01*
X208118823Y-81793721D01*
X208120173Y-82126822D01*
X208123507Y-82445942D01*
X208128824Y-82736991D01*
X208136123Y-82985881D01*
X208145400Y-83178522D01*
X208152972Y-83271444D01*
X208166864Y-83390094D01*
X208184305Y-83487049D01*
X208212447Y-83577047D01*
X208258443Y-83674830D01*
X208329445Y-83795137D01*
X208432606Y-83952709D01*
X208575077Y-84162285D01*
X208610029Y-84213361D01*
X208746640Y-84412269D01*
X208865793Y-84584468D01*
X208959695Y-84718798D01*
X209020554Y-84804105D01*
X209040579Y-84829763D01*
X209042226Y-84788725D01*
X209043770Y-84670847D01*
X209045181Y-84483957D01*
X209046429Y-84235883D01*
X209047482Y-83934450D01*
X209048311Y-83587486D01*
X209048885Y-83202819D01*
X209049174Y-82788275D01*
X209049203Y-82609991D01*
X209049207Y-81900427D01*
X209197355Y-81900427D01*
X209225624Y-81942331D01*
X209250577Y-81939778D01*
X209312718Y-81926446D01*
X209438925Y-81906434D01*
X209609152Y-81882746D01*
X209753362Y-81864411D01*
X209945767Y-81837077D01*
X210111263Y-81806536D01*
X210228850Y-81777066D01*
X210272375Y-81758683D01*
X210316484Y-81690506D01*
X210305636Y-81618733D01*
X210250095Y-81577955D01*
X210218727Y-81577891D01*
X210128094Y-81570169D01*
X210099672Y-81557694D01*
X210036891Y-81563129D01*
X209951660Y-81624103D01*
X209946553Y-81629126D01*
X209855413Y-81694723D01*
X209720346Y-81744601D01*
X209521005Y-81786270D01*
X209520486Y-81786357D01*
X209336252Y-81823650D01*
X209230574Y-81861165D01*
X209197355Y-81900427D01*
X209049207Y-81900427D01*
X209049217Y-80390267D01*
X208903864Y-80362998D01*
X208793001Y-80330083D01*
X208640211Y-80269600D01*
X208477947Y-80194433D01*
X208472862Y-80191879D01*
X208187212Y-80048028D01*
X208152533Y-80290502D01*
X208141928Y-80411618D01*
X208133320Y-80603287D01*
X208126708Y-80851422D01*
X208122089Y-81141931D01*
X208119462Y-81460728D01*
X208118823Y-81793721D01*
X207938139Y-81793721D01*
X207938632Y-81488852D01*
X207945735Y-81121328D01*
X207959543Y-80803389D01*
X207967530Y-80688362D01*
X207984527Y-80463967D01*
X207997316Y-80271539D01*
X208005057Y-80125846D01*
X208006911Y-80041658D01*
X208005129Y-80026932D01*
X207958991Y-80025864D01*
X207854973Y-80036216D01*
X207758022Y-80049517D01*
X207522467Y-80076473D01*
X207229982Y-80096580D01*
X206895625Y-80109992D01*
X206534454Y-80116867D01*
X206161528Y-80117360D01*
X205791903Y-80111627D01*
X205440638Y-80099825D01*
X205122791Y-80082109D01*
X204853420Y-80058635D01*
X204647583Y-80029559D01*
X204587500Y-80016666D01*
X204518043Y-80007284D01*
X204500181Y-80042735D01*
X204028982Y-80042735D01*
X204141122Y-79979292D01*
X204388243Y-79830484D01*
X204665549Y-79879033D01*
X204785225Y-79893349D01*
X204974277Y-79907796D01*
X205217416Y-79921588D01*
X205499357Y-79933934D01*
X205804813Y-79944048D01*
X206032938Y-79949549D01*
X206364622Y-79955974D01*
X206621276Y-79959905D01*
X206812514Y-79960839D01*
X206947947Y-79958272D01*
X207037190Y-79951701D01*
X207089855Y-79940623D01*
X207115556Y-79924535D01*
X207123906Y-79902934D01*
X207124004Y-79901305D01*
X207307889Y-79901305D01*
X207343425Y-79909195D01*
X207395243Y-79856698D01*
X207410949Y-79809801D01*
X207458446Y-79548995D01*
X207508055Y-79363338D01*
X207562699Y-79243316D01*
X207598389Y-79199525D01*
X207655864Y-79129671D01*
X207647883Y-79073369D01*
X207635370Y-79056549D01*
X207632741Y-79051310D01*
X207885022Y-79051310D01*
X207906188Y-79072476D01*
X207927355Y-79051310D01*
X207906188Y-79030143D01*
X207885022Y-79051310D01*
X207632741Y-79051310D01*
X207605965Y-78997968D01*
X207635379Y-78963950D01*
X207656807Y-78924899D01*
X207611104Y-78877655D01*
X207542633Y-78847871D01*
X207488384Y-78875546D01*
X207444730Y-78967767D01*
X207408046Y-79131622D01*
X207380009Y-79329455D01*
X207356400Y-79515806D01*
X207333904Y-79679683D01*
X207316008Y-79796231D01*
X207310081Y-79828036D01*
X207307889Y-79901305D01*
X207124004Y-79901305D01*
X207124545Y-79892413D01*
X207130551Y-79817983D01*
X207145465Y-79682118D01*
X207166729Y-79507273D01*
X207181537Y-79392486D01*
X207237005Y-78971662D01*
X207116513Y-78742604D01*
X207027680Y-78543462D01*
X206999705Y-78400085D01*
X207032702Y-78313601D01*
X207070483Y-78292548D01*
X207145080Y-78237316D01*
X207186900Y-78173279D01*
X207222998Y-78117226D01*
X207283984Y-78088599D01*
X207394431Y-78078919D01*
X207461688Y-78078464D01*
X207636633Y-78066046D01*
X207735962Y-78026544D01*
X207747466Y-78014964D01*
X207791049Y-77979044D01*
X207837579Y-77999654D01*
G37*
X207837579Y-77999654D02*
X207889345Y-78055887D01*
X207939854Y-78130465D01*
X207962279Y-78216830D01*
X207962210Y-78344716D01*
X207957007Y-78415720D01*
X207940836Y-78568611D01*
X207921287Y-78697643D01*
X207907578Y-78757386D01*
X207898052Y-78815305D01*
X207935270Y-78834203D01*
X208019805Y-78828699D01*
X208149955Y-78836399D01*
X208243180Y-78874569D01*
X208298584Y-78932013D01*
X208294713Y-79001137D01*
X208276597Y-79045005D01*
X208217857Y-79122167D01*
X208109792Y-79182522D01*
X207991296Y-79222336D01*
X207824727Y-79284460D01*
X207716955Y-79367364D01*
X207651671Y-79491496D01*
X207612566Y-79677304D01*
X207609310Y-79701261D01*
X207579542Y-79927879D01*
X207700532Y-79903948D01*
X207948549Y-79861489D01*
X208123794Y-79846344D01*
X208223329Y-79858676D01*
X208242934Y-79873701D01*
X208301287Y-79923103D01*
X208416781Y-79991469D01*
X208567337Y-80067885D01*
X208730874Y-80141435D01*
X208885314Y-80201207D01*
X208943355Y-80219933D01*
X209068149Y-80262844D01*
X209160948Y-80305361D01*
X209182445Y-80319989D01*
X209202183Y-80370203D01*
X209213332Y-80482093D01*
X209216146Y-80662529D01*
X209210878Y-80918380D01*
X209207818Y-81009226D01*
X209200981Y-81271747D01*
X209201334Y-81471220D01*
X209208690Y-81600860D01*
X209222863Y-81653884D01*
X209225536Y-81654810D01*
X209318767Y-81645536D01*
X209451971Y-81621977D01*
X209596541Y-81590526D01*
X209723869Y-81557576D01*
X209805350Y-81529519D01*
X209817068Y-81522618D01*
X209855321Y-81460299D01*
X209897396Y-81347497D01*
X209915498Y-81283113D01*
X209959266Y-81147877D01*
X210011377Y-81038766D01*
X210032595Y-81009226D01*
X210131503Y-80942210D01*
X210224579Y-80950223D01*
X210297807Y-81024026D01*
X210337171Y-81154377D01*
X210340355Y-81212116D01*
X210350519Y-81291899D01*
X210397802Y-81308472D01*
X210446217Y-81298752D01*
X210705309Y-81249281D01*
X210905204Y-81247483D01*
X211052887Y-81291287D01*
X211149344Y-81362895D01*
X211186210Y-81437327D01*
X211156831Y-81496413D01*
X211132631Y-81509005D01*
X211098157Y-81562442D01*
X211086978Y-81690520D01*
X211088811Y-81763289D01*
X211091281Y-81899557D01*
X211077523Y-81975856D01*
X211039473Y-82016490D01*
X210998657Y-82034998D01*
X210909421Y-82098670D01*
X210869319Y-82163446D01*
X210822565Y-82229081D01*
X210777568Y-82229371D01*
X210678649Y-82207619D01*
X210639133Y-82205143D01*
X210559892Y-82182346D01*
X210448503Y-82124903D01*
X210400823Y-82094519D01*
X210321033Y-82042750D01*
X210253606Y-82012815D01*
X210175570Y-82002151D01*
X210063948Y-82008196D01*
X209895766Y-82028386D01*
X209855166Y-82033657D01*
X209665827Y-82058875D01*
X209492475Y-82083007D01*
X209363891Y-82102011D01*
X209333899Y-82106853D01*
X209195277Y-82130289D01*
X209206899Y-83621902D01*
X209208705Y-83991658D01*
X209208221Y-84325180D01*
X209205598Y-84613939D01*
X209200985Y-84849403D01*
X209194533Y-85023045D01*
X209186392Y-85126334D01*
X209180000Y-85152000D01*
X209129315Y-85160837D01*
X209001796Y-85167970D01*
X208805261Y-85173294D01*
X208547526Y-85176702D01*
X208236411Y-85178088D01*
X207879732Y-85177346D01*
X207511946Y-85174634D01*
X205882414Y-85158783D01*
X205909683Y-85385880D01*
X205925744Y-85566655D01*
X205935734Y-85769315D01*
X205937320Y-85861898D01*
X205937688Y-86110821D01*
X206127395Y-86089438D01*
X206281007Y-86086256D01*
X206366147Y-86126345D01*
X206391340Y-86219671D01*
X206366847Y-86369380D01*
X206332292Y-86498815D01*
X206301610Y-86601133D01*
X206293755Y-86623526D01*
X206290613Y-86664332D01*
X206332984Y-86685182D01*
X206437757Y-86692171D01*
X206484852Y-86692476D01*
X206714476Y-86711595D01*
X206878144Y-86765536D01*
X206972000Y-86849177D01*
X206992191Y-86957394D01*
X206934859Y-87085064D01*
X206851012Y-87179074D01*
X206743141Y-87263790D01*
X206614307Y-87327445D01*
X206449538Y-87373969D01*
X206233862Y-87407288D01*
X205952310Y-87431332D01*
X205870728Y-87436305D01*
X205653698Y-87446357D01*
X205504435Y-87446359D01*
X205406517Y-87435231D01*
X205343518Y-87411892D01*
X205326504Y-87400506D01*
X205281395Y-87357960D01*
X205264609Y-87304653D01*
X205270842Y-87242810D01*
X205462412Y-87242810D01*
X205879967Y-87240957D01*
X206198408Y-87226656D01*
X206439435Y-87186668D01*
X206505147Y-87166873D01*
X206638184Y-87106633D01*
X206742919Y-87034702D01*
X206774894Y-86999393D01*
X206837015Y-86904143D01*
X206428356Y-86904143D01*
X206216219Y-86900717D01*
X206079808Y-86885325D01*
X206010294Y-86850292D01*
X205998847Y-86787943D01*
X206036635Y-86690606D01*
X206083631Y-86604564D01*
X206161161Y-86448136D01*
X206189826Y-86339475D01*
X206168863Y-86285714D01*
X206117605Y-86286471D01*
X206035086Y-86300632D01*
X205902827Y-86312241D01*
X205805719Y-86316838D01*
X205567916Y-86324172D01*
X205540654Y-86645908D01*
X205523745Y-86823809D01*
X205505099Y-86986923D01*
X205488618Y-87101297D01*
X205487902Y-87105226D01*
X205462412Y-87242810D01*
X205270842Y-87242810D01*
X205273641Y-87215048D01*
X205297267Y-87102330D01*
X205325863Y-86936812D01*
X205349656Y-86731674D01*
X205363239Y-86536063D01*
X205372754Y-86365894D01*
X205388216Y-86260817D01*
X205415059Y-86201258D01*
X205458715Y-86167642D01*
X205466559Y-86163854D01*
X205509015Y-86138277D01*
X205536908Y-86098767D01*
X205551562Y-86031363D01*
X205554303Y-85922102D01*
X205546455Y-85757023D01*
X205529342Y-85522162D01*
X205528489Y-85511187D01*
X205513348Y-85316643D01*
X205694364Y-85316643D01*
X205697771Y-85403768D01*
X205707365Y-85426256D01*
X205712775Y-85412386D01*
X205720660Y-85310726D01*
X205713629Y-85243053D01*
X205702477Y-85219591D01*
X205695462Y-85270473D01*
X205694364Y-85316643D01*
X205513348Y-85316643D01*
X205500797Y-85155398D01*
X204532574Y-85183526D01*
X204200079Y-85192034D01*
X203943603Y-85195733D01*
X203754628Y-85194425D01*
X203624631Y-85187911D01*
X203545092Y-85175993D01*
X203508698Y-85159665D01*
X203487642Y-85120574D01*
X203473902Y-85042591D01*
X203472227Y-85011680D01*
X203694020Y-85011680D01*
X203735157Y-85013198D01*
X203853784Y-85014630D01*
X204042723Y-85015953D01*
X204294799Y-85017145D01*
X204602833Y-85018182D01*
X204959649Y-85019039D01*
X205358070Y-85019695D01*
X205790919Y-85020125D01*
X206251019Y-85020305D01*
X206334025Y-85020310D01*
X208974031Y-85020310D01*
X208571317Y-84427643D01*
X208433099Y-84225930D01*
X208306997Y-84045054D01*
X208202475Y-83898347D01*
X208128996Y-83799142D01*
X208100896Y-83764891D01*
X208019319Y-83724715D01*
X207861510Y-83688902D01*
X207635826Y-83658217D01*
X207350624Y-83633422D01*
X207014262Y-83615282D01*
X206635099Y-83604560D01*
X206316446Y-83601838D01*
X206047128Y-83604627D01*
X205761716Y-83612600D01*
X205473951Y-83624844D01*
X205197572Y-83640448D01*
X204946319Y-83658498D01*
X204733931Y-83678084D01*
X204574148Y-83698294D01*
X204480709Y-83718215D01*
X204466701Y-83724619D01*
X204437661Y-83764752D01*
X204374757Y-83863119D01*
X204286670Y-84005263D01*
X204182080Y-84176725D01*
X204069665Y-84363047D01*
X203958107Y-84549772D01*
X203856083Y-84722441D01*
X203772276Y-84866597D01*
X203715363Y-84967782D01*
X203694025Y-85011537D01*
X203694020Y-85011680D01*
X203472227Y-85011680D01*
X203466980Y-84914925D01*
X203466379Y-84726787D01*
X203471602Y-84467390D01*
X203473553Y-84397243D01*
X203482321Y-84129703D01*
X203486426Y-83936161D01*
X203479252Y-83805975D01*
X203454183Y-83728498D01*
X203404603Y-83693087D01*
X203323897Y-83689096D01*
X203205447Y-83705881D01*
X203059022Y-83730277D01*
X202845953Y-83764136D01*
X202702734Y-83790570D01*
X202615497Y-83814817D01*
X202570377Y-83842115D01*
X202553509Y-83877704D01*
X202551022Y-83922200D01*
X202527050Y-84005735D01*
X202441616Y-84048446D01*
X202434605Y-84050082D01*
X202198699Y-84106763D01*
X202013669Y-84160990D01*
X201846678Y-84223002D01*
X201756240Y-84261650D01*
X201617038Y-84317376D01*
X201498773Y-84354600D01*
X201442927Y-84364143D01*
X201379496Y-84340090D01*
X201323909Y-84262696D01*
X201273283Y-84124111D01*
X201224733Y-83916481D01*
X201176395Y-83638490D01*
X201144520Y-83415134D01*
X201130049Y-83252544D01*
X201130407Y-83232347D01*
X201323355Y-83232347D01*
X201330652Y-83364250D01*
X201349961Y-83535725D01*
X201377406Y-83723266D01*
X201409110Y-83903365D01*
X201441199Y-84052516D01*
X201469795Y-84147212D01*
X201476355Y-84160297D01*
X201521186Y-84160116D01*
X201618262Y-84129004D01*
X201714574Y-84088113D01*
X201883599Y-84017980D01*
X202062845Y-83955687D01*
X202138883Y-83933849D01*
X202343320Y-83881454D01*
X202314226Y-83648594D01*
X202306193Y-83592022D01*
X202738716Y-83592022D01*
X202780327Y-83598801D01*
X202835234Y-83591017D01*
X202835890Y-83576566D01*
X202779231Y-83566461D01*
X202754751Y-83573224D01*
X202738716Y-83592022D01*
X202306193Y-83592022D01*
X202299831Y-83547224D01*
X202958453Y-83547224D01*
X203016688Y-83553125D01*
X203076786Y-83546473D01*
X203069605Y-83531773D01*
X202982934Y-83526182D01*
X202963772Y-83531773D01*
X202958453Y-83547224D01*
X202299831Y-83547224D01*
X202293437Y-83502201D01*
X203147216Y-83502201D01*
X203160615Y-83515343D01*
X203228658Y-83515830D01*
X203322702Y-83506232D01*
X203414104Y-83489118D01*
X203461188Y-83474037D01*
X203485618Y-83454391D01*
X203427671Y-83453522D01*
X203355355Y-83461736D01*
X203237464Y-83479932D01*
X203160514Y-83496695D01*
X203147216Y-83502201D01*
X202293437Y-83502201D01*
X202292792Y-83497661D01*
X202269897Y-83367129D01*
X202258262Y-83315262D01*
X202241346Y-83264050D01*
X202215513Y-83248173D01*
X202164224Y-83272699D01*
X202070945Y-83342695D01*
X202009420Y-83391528D01*
X201852096Y-83500539D01*
X201741596Y-83539953D01*
X201678341Y-83509722D01*
X201662022Y-83432255D01*
X201651829Y-83335819D01*
X201625569Y-83203828D01*
X201589717Y-83060157D01*
X201550750Y-82928685D01*
X201515145Y-82833289D01*
X201489942Y-82797810D01*
X201423026Y-82836910D01*
X201368229Y-82941560D01*
X201332826Y-83092778D01*
X201323355Y-83232347D01*
X201130407Y-83232347D01*
X201132246Y-83128787D01*
X201150376Y-83021929D01*
X201155090Y-83003490D01*
X201231694Y-82805666D01*
X201330999Y-82675361D01*
X201441806Y-82614330D01*
X201552914Y-82624330D01*
X201653126Y-82707117D01*
X201731241Y-82864449D01*
X201744811Y-82911007D01*
X201779832Y-83045367D01*
X201807955Y-83153320D01*
X201816330Y-83185493D01*
X201835359Y-83218271D01*
X201879193Y-83219820D01*
X201964733Y-83186379D01*
X202087895Y-83125035D01*
X202244069Y-83051859D01*
X202344693Y-83030899D01*
X202404817Y-83067632D01*
X202439488Y-83167537D01*
X202454103Y-83258350D01*
X202478725Y-83365603D01*
X202512459Y-83425733D01*
X202524845Y-83430574D01*
X202583478Y-83421767D01*
X202706181Y-83399605D01*
X202874054Y-83367595D01*
X203037855Y-83335324D01*
X203503522Y-83242310D01*
X203515396Y-82672478D01*
X203517204Y-82441240D01*
X203514886Y-82151698D01*
X203508911Y-81830092D01*
X203499750Y-81502660D01*
X203489643Y-81235521D01*
X203476660Y-80926396D01*
X203469827Y-80690642D01*
X203471810Y-80517034D01*
X203484806Y-80398634D01*
X203630522Y-80398634D01*
X203630522Y-82593045D01*
X203630646Y-83015156D01*
X203631004Y-83410580D01*
X203631572Y-83771446D01*
X203632325Y-84089882D01*
X203633240Y-84358015D01*
X203634293Y-84567973D01*
X203635459Y-84711885D01*
X203636716Y-84781879D01*
X203637193Y-84787466D01*
X203659635Y-84752925D01*
X203717334Y-84657482D01*
X203802972Y-84513421D01*
X203909231Y-84333024D01*
X203983967Y-84205393D01*
X204103079Y-83998752D01*
X204197959Y-83822340D01*
X204271660Y-83662413D01*
X204327233Y-83505228D01*
X204367730Y-83337043D01*
X204396202Y-83144114D01*
X204415701Y-82912700D01*
X204429279Y-82629055D01*
X204439988Y-82279439D01*
X204443724Y-82134947D01*
X204448009Y-81844303D01*
X204447086Y-81540247D01*
X204441542Y-81235335D01*
X204431966Y-80942124D01*
X204418945Y-80673169D01*
X204403067Y-80441028D01*
X204384919Y-80258256D01*
X204365090Y-80137411D01*
X204348178Y-80093522D01*
X204304860Y-80102444D01*
X204203127Y-80140702D01*
X204061004Y-80201233D01*
X203980763Y-80237491D01*
X203630522Y-80398634D01*
X203484806Y-80398634D01*
X203485277Y-80394348D01*
X203512895Y-80311358D01*
X203557332Y-80256841D01*
X203621255Y-80219571D01*
X203707332Y-80188324D01*
X203741095Y-80177409D01*
X203859238Y-80128834D01*
X204012000Y-80052343D01*
X204028982Y-80042735D01*
X204500181Y-80042735D01*
X204511574Y-80114105D01*
X204522602Y-80195089D01*
X204537548Y-80344399D01*
X204555002Y-80545862D01*
X204573553Y-80783305D01*
X204589668Y-81009226D01*
X204610914Y-81370196D01*
X204620540Y-81683319D01*
X204618546Y-81984613D01*
X204604932Y-82310098D01*
X204589668Y-82554393D01*
X204571319Y-82810123D01*
X204552825Y-83044108D01*
X204535597Y-83240176D01*
X204521046Y-83382153D01*
X204511574Y-83449514D01*
X204500521Y-83533853D01*
X204528578Y-83557319D01*
X204587500Y-83546733D01*
X204663446Y-83535026D01*
X204806788Y-83519267D01*
X205000448Y-83501104D01*
X205227346Y-83482184D01*
X205366188Y-83471606D01*
X205706254Y-83453668D01*
X206091667Y-83445114D01*
X206498818Y-83445543D01*
X206904099Y-83454559D01*
X207283902Y-83471762D01*
X207614618Y-83496756D01*
X207752669Y-83511859D01*
X208022484Y-83545504D01*
X207995315Y-83288073D01*
X207972481Y-83007842D01*
X207955157Y-82665456D01*
X207943582Y-82283264D01*
X207937994Y-81883613D01*
X207938139Y-81793721D01*
X208118823Y-81793721D01*
X208120173Y-82126822D01*
X208123507Y-82445942D01*
X208128824Y-82736991D01*
X208136123Y-82985881D01*
X208145400Y-83178522D01*
X208152972Y-83271444D01*
X208166864Y-83390094D01*
X208184305Y-83487049D01*
X208212447Y-83577047D01*
X208258443Y-83674830D01*
X208329445Y-83795137D01*
X208432606Y-83952709D01*
X208575077Y-84162285D01*
X208610029Y-84213361D01*
X208746640Y-84412269D01*
X208865793Y-84584468D01*
X208959695Y-84718798D01*
X209020554Y-84804105D01*
X209040579Y-84829763D01*
X209042226Y-84788725D01*
X209043770Y-84670847D01*
X209045181Y-84483957D01*
X209046429Y-84235883D01*
X209047482Y-83934450D01*
X209048311Y-83587486D01*
X209048885Y-83202819D01*
X209049174Y-82788275D01*
X209049203Y-82609991D01*
X209049207Y-81900427D01*
X209197355Y-81900427D01*
X209225624Y-81942331D01*
X209250577Y-81939778D01*
X209312718Y-81926446D01*
X209438925Y-81906434D01*
X209609152Y-81882746D01*
X209753362Y-81864411D01*
X209945767Y-81837077D01*
X210111263Y-81806536D01*
X210228850Y-81777066D01*
X210272375Y-81758683D01*
X210316484Y-81690506D01*
X210305636Y-81618733D01*
X210250095Y-81577955D01*
X210218727Y-81577891D01*
X210128094Y-81570169D01*
X210099672Y-81557694D01*
X210036891Y-81563129D01*
X209951660Y-81624103D01*
X209946553Y-81629126D01*
X209855413Y-81694723D01*
X209720346Y-81744601D01*
X209521005Y-81786270D01*
X209520486Y-81786357D01*
X209336252Y-81823650D01*
X209230574Y-81861165D01*
X209197355Y-81900427D01*
X209049207Y-81900427D01*
X209049217Y-80390267D01*
X208903864Y-80362998D01*
X208793001Y-80330083D01*
X208640211Y-80269600D01*
X208477947Y-80194433D01*
X208472862Y-80191879D01*
X208187212Y-80048028D01*
X208152533Y-80290502D01*
X208141928Y-80411618D01*
X208133320Y-80603287D01*
X208126708Y-80851422D01*
X208122089Y-81141931D01*
X208119462Y-81460728D01*
X208118823Y-81793721D01*
X207938139Y-81793721D01*
X207938632Y-81488852D01*
X207945735Y-81121328D01*
X207959543Y-80803389D01*
X207967530Y-80688362D01*
X207984527Y-80463967D01*
X207997316Y-80271539D01*
X208005057Y-80125846D01*
X208006911Y-80041658D01*
X208005129Y-80026932D01*
X207958991Y-80025864D01*
X207854973Y-80036216D01*
X207758022Y-80049517D01*
X207522467Y-80076473D01*
X207229982Y-80096580D01*
X206895625Y-80109992D01*
X206534454Y-80116867D01*
X206161528Y-80117360D01*
X205791903Y-80111627D01*
X205440638Y-80099825D01*
X205122791Y-80082109D01*
X204853420Y-80058635D01*
X204647583Y-80029559D01*
X204587500Y-80016666D01*
X204518043Y-80007284D01*
X204500181Y-80042735D01*
X204028982Y-80042735D01*
X204141122Y-79979292D01*
X204388243Y-79830484D01*
X204665549Y-79879033D01*
X204785225Y-79893349D01*
X204974277Y-79907796D01*
X205217416Y-79921588D01*
X205499357Y-79933934D01*
X205804813Y-79944048D01*
X206032938Y-79949549D01*
X206364622Y-79955974D01*
X206621276Y-79959905D01*
X206812514Y-79960839D01*
X206947947Y-79958272D01*
X207037190Y-79951701D01*
X207089855Y-79940623D01*
X207115556Y-79924535D01*
X207123906Y-79902934D01*
X207124004Y-79901305D01*
X207307889Y-79901305D01*
X207343425Y-79909195D01*
X207395243Y-79856698D01*
X207410949Y-79809801D01*
X207458446Y-79548995D01*
X207508055Y-79363338D01*
X207562699Y-79243316D01*
X207598389Y-79199525D01*
X207655864Y-79129671D01*
X207647883Y-79073369D01*
X207635370Y-79056549D01*
X207632741Y-79051310D01*
X207885022Y-79051310D01*
X207906188Y-79072476D01*
X207927355Y-79051310D01*
X207906188Y-79030143D01*
X207885022Y-79051310D01*
X207632741Y-79051310D01*
X207605965Y-78997968D01*
X207635379Y-78963950D01*
X207656807Y-78924899D01*
X207611104Y-78877655D01*
X207542633Y-78847871D01*
X207488384Y-78875546D01*
X207444730Y-78967767D01*
X207408046Y-79131622D01*
X207380009Y-79329455D01*
X207356400Y-79515806D01*
X207333904Y-79679683D01*
X207316008Y-79796231D01*
X207310081Y-79828036D01*
X207307889Y-79901305D01*
X207124004Y-79901305D01*
X207124545Y-79892413D01*
X207130551Y-79817983D01*
X207145465Y-79682118D01*
X207166729Y-79507273D01*
X207181537Y-79392486D01*
X207237005Y-78971662D01*
X207116513Y-78742604D01*
X207027680Y-78543462D01*
X206999705Y-78400085D01*
X207032702Y-78313601D01*
X207070483Y-78292548D01*
X207145080Y-78237316D01*
X207186900Y-78173279D01*
X207222998Y-78117226D01*
X207283984Y-78088599D01*
X207394431Y-78078919D01*
X207461688Y-78078464D01*
X207636633Y-78066046D01*
X207735962Y-78026544D01*
X207747466Y-78014964D01*
X207791049Y-77979044D01*
X207837579Y-77999654D01*
G36*
X97937579Y-114199654D02*
G01*
X97989345Y-114255887D01*
X98039854Y-114330465D01*
X98062279Y-114416830D01*
X98062210Y-114544716D01*
X98057007Y-114615720D01*
X98040836Y-114768611D01*
X98021287Y-114897643D01*
X98007578Y-114957386D01*
X97998052Y-115015305D01*
X98035270Y-115034203D01*
X98119805Y-115028699D01*
X98249955Y-115036399D01*
X98343180Y-115074569D01*
X98398584Y-115132013D01*
X98394713Y-115201137D01*
X98376597Y-115245005D01*
X98317857Y-115322167D01*
X98209792Y-115382522D01*
X98091296Y-115422336D01*
X97924727Y-115484460D01*
X97816955Y-115567364D01*
X97751671Y-115691496D01*
X97712566Y-115877304D01*
X97709310Y-115901261D01*
X97679542Y-116127879D01*
X97800532Y-116103948D01*
X98048549Y-116061489D01*
X98223794Y-116046344D01*
X98323329Y-116058676D01*
X98342934Y-116073701D01*
X98401287Y-116123103D01*
X98516781Y-116191469D01*
X98667337Y-116267885D01*
X98830874Y-116341435D01*
X98985314Y-116401207D01*
X99043355Y-116419933D01*
X99168149Y-116462844D01*
X99260948Y-116505361D01*
X99282445Y-116519989D01*
X99302183Y-116570203D01*
X99313332Y-116682093D01*
X99316146Y-116862529D01*
X99310878Y-117118380D01*
X99307818Y-117209226D01*
X99300981Y-117471747D01*
X99301334Y-117671220D01*
X99308690Y-117800860D01*
X99322863Y-117853884D01*
X99325536Y-117854810D01*
X99418767Y-117845536D01*
X99551971Y-117821977D01*
X99696541Y-117790526D01*
X99823869Y-117757576D01*
X99905350Y-117729519D01*
X99917068Y-117722618D01*
X99955321Y-117660299D01*
X99997396Y-117547497D01*
X100015498Y-117483113D01*
X100059266Y-117347877D01*
X100111377Y-117238766D01*
X100132595Y-117209226D01*
X100231503Y-117142210D01*
X100324579Y-117150223D01*
X100397807Y-117224026D01*
X100437171Y-117354377D01*
X100440355Y-117412116D01*
X100450519Y-117491899D01*
X100497802Y-117508472D01*
X100546217Y-117498752D01*
X100805309Y-117449281D01*
X101005204Y-117447483D01*
X101152887Y-117491287D01*
X101249344Y-117562895D01*
X101286210Y-117637327D01*
X101256831Y-117696413D01*
X101232631Y-117709005D01*
X101198157Y-117762442D01*
X101186978Y-117890520D01*
X101188811Y-117963289D01*
X101191281Y-118099557D01*
X101177523Y-118175856D01*
X101139473Y-118216490D01*
X101098657Y-118234998D01*
X101009421Y-118298670D01*
X100969319Y-118363446D01*
X100922565Y-118429081D01*
X100877568Y-118429371D01*
X100778649Y-118407619D01*
X100739133Y-118405143D01*
X100659892Y-118382346D01*
X100548503Y-118324903D01*
X100500823Y-118294519D01*
X100421033Y-118242750D01*
X100353606Y-118212815D01*
X100275570Y-118202151D01*
X100163948Y-118208196D01*
X99995766Y-118228386D01*
X99955166Y-118233657D01*
X99765827Y-118258875D01*
X99592475Y-118283007D01*
X99463891Y-118302011D01*
X99433899Y-118306853D01*
X99295277Y-118330289D01*
X99306899Y-119821902D01*
X99308705Y-120191658D01*
X99308221Y-120525180D01*
X99305598Y-120813939D01*
X99300985Y-121049403D01*
X99294533Y-121223045D01*
X99286392Y-121326334D01*
X99280000Y-121352000D01*
X99229315Y-121360837D01*
X99101796Y-121367970D01*
X98905261Y-121373294D01*
X98647526Y-121376702D01*
X98336411Y-121378088D01*
X97979732Y-121377346D01*
X97611946Y-121374634D01*
X95982414Y-121358783D01*
X96009683Y-121585880D01*
X96025744Y-121766655D01*
X96035734Y-121969315D01*
X96037320Y-122061898D01*
X96037688Y-122310821D01*
X96227395Y-122289438D01*
X96381007Y-122286256D01*
X96466147Y-122326345D01*
X96491340Y-122419671D01*
X96466847Y-122569380D01*
X96432292Y-122698815D01*
X96401610Y-122801133D01*
X96393755Y-122823526D01*
X96390613Y-122864332D01*
X96432984Y-122885182D01*
X96537757Y-122892171D01*
X96584852Y-122892476D01*
X96814476Y-122911595D01*
X96978144Y-122965536D01*
X97072000Y-123049177D01*
X97092191Y-123157394D01*
X97034859Y-123285064D01*
X96951012Y-123379074D01*
X96843141Y-123463790D01*
X96714307Y-123527445D01*
X96549538Y-123573969D01*
X96333862Y-123607288D01*
X96052310Y-123631332D01*
X95970728Y-123636305D01*
X95753698Y-123646357D01*
X95604435Y-123646359D01*
X95506517Y-123635231D01*
X95443518Y-123611892D01*
X95426504Y-123600506D01*
X95381395Y-123557960D01*
X95364609Y-123504653D01*
X95370842Y-123442810D01*
X95562412Y-123442810D01*
X95979967Y-123440957D01*
X96298408Y-123426656D01*
X96539435Y-123386668D01*
X96605147Y-123366873D01*
X96738184Y-123306633D01*
X96842919Y-123234702D01*
X96874894Y-123199393D01*
X96937015Y-123104143D01*
X96528356Y-123104143D01*
X96316219Y-123100717D01*
X96179808Y-123085325D01*
X96110294Y-123050292D01*
X96098847Y-122987943D01*
X96136635Y-122890606D01*
X96183631Y-122804564D01*
X96261161Y-122648136D01*
X96289826Y-122539475D01*
X96268863Y-122485714D01*
X96217605Y-122486471D01*
X96135086Y-122500632D01*
X96002827Y-122512241D01*
X95905719Y-122516838D01*
X95667916Y-122524172D01*
X95640654Y-122845908D01*
X95623745Y-123023809D01*
X95605099Y-123186923D01*
X95588618Y-123301297D01*
X95587902Y-123305226D01*
X95562412Y-123442810D01*
X95370842Y-123442810D01*
X95373641Y-123415048D01*
X95397267Y-123302330D01*
X95425863Y-123136812D01*
X95449656Y-122931674D01*
X95463239Y-122736063D01*
X95472754Y-122565894D01*
X95488216Y-122460817D01*
X95515059Y-122401258D01*
X95558715Y-122367642D01*
X95566559Y-122363854D01*
X95609015Y-122338277D01*
X95636908Y-122298767D01*
X95651562Y-122231363D01*
X95654303Y-122122102D01*
X95646455Y-121957023D01*
X95629342Y-121722162D01*
X95628489Y-121711187D01*
X95613348Y-121516643D01*
X95794364Y-121516643D01*
X95797771Y-121603768D01*
X95807365Y-121626256D01*
X95812775Y-121612386D01*
X95820660Y-121510726D01*
X95813629Y-121443053D01*
X95802477Y-121419591D01*
X95795462Y-121470473D01*
X95794364Y-121516643D01*
X95613348Y-121516643D01*
X95600797Y-121355398D01*
X94632574Y-121383526D01*
X94300079Y-121392034D01*
X94043603Y-121395733D01*
X93854628Y-121394425D01*
X93724631Y-121387911D01*
X93645092Y-121375993D01*
X93608698Y-121359665D01*
X93587642Y-121320574D01*
X93573902Y-121242591D01*
X93572227Y-121211680D01*
X93794020Y-121211680D01*
X93835157Y-121213198D01*
X93953784Y-121214630D01*
X94142723Y-121215953D01*
X94394799Y-121217145D01*
X94702833Y-121218182D01*
X95059649Y-121219039D01*
X95458070Y-121219695D01*
X95890919Y-121220125D01*
X96351019Y-121220305D01*
X96434025Y-121220310D01*
X99074031Y-121220310D01*
X98671317Y-120627643D01*
X98533099Y-120425930D01*
X98406997Y-120245054D01*
X98302475Y-120098347D01*
X98228996Y-119999142D01*
X98200896Y-119964891D01*
X98119319Y-119924715D01*
X97961510Y-119888902D01*
X97735826Y-119858217D01*
X97450624Y-119833422D01*
X97114262Y-119815282D01*
X96735099Y-119804560D01*
X96416446Y-119801838D01*
X96147128Y-119804627D01*
X95861716Y-119812600D01*
X95573951Y-119824844D01*
X95297572Y-119840448D01*
X95046319Y-119858498D01*
X94833931Y-119878084D01*
X94674148Y-119898294D01*
X94580709Y-119918215D01*
X94566701Y-119924619D01*
X94537661Y-119964752D01*
X94474757Y-120063119D01*
X94386670Y-120205263D01*
X94282080Y-120376725D01*
X94169665Y-120563047D01*
X94058107Y-120749772D01*
X93956083Y-120922441D01*
X93872276Y-121066597D01*
X93815363Y-121167782D01*
X93794025Y-121211537D01*
X93794020Y-121211680D01*
X93572227Y-121211680D01*
X93566980Y-121114925D01*
X93566379Y-120926787D01*
X93571602Y-120667390D01*
X93573553Y-120597243D01*
X93582321Y-120329703D01*
X93586426Y-120136161D01*
X93579252Y-120005975D01*
X93554183Y-119928498D01*
X93504603Y-119893087D01*
X93423897Y-119889096D01*
X93305447Y-119905881D01*
X93159022Y-119930277D01*
X92945953Y-119964136D01*
X92802734Y-119990570D01*
X92715497Y-120014817D01*
X92670377Y-120042115D01*
X92653509Y-120077704D01*
X92651022Y-120122200D01*
X92627050Y-120205735D01*
X92541616Y-120248446D01*
X92534605Y-120250082D01*
X92298699Y-120306763D01*
X92113669Y-120360990D01*
X91946678Y-120423002D01*
X91856240Y-120461650D01*
X91717038Y-120517376D01*
X91598773Y-120554600D01*
X91542927Y-120564143D01*
X91479496Y-120540090D01*
X91423909Y-120462696D01*
X91373283Y-120324111D01*
X91324733Y-120116481D01*
X91276395Y-119838490D01*
X91244520Y-119615134D01*
X91230049Y-119452544D01*
X91230407Y-119432347D01*
X91423355Y-119432347D01*
X91430652Y-119564250D01*
X91449961Y-119735725D01*
X91477406Y-119923266D01*
X91509110Y-120103365D01*
X91541199Y-120252516D01*
X91569795Y-120347212D01*
X91576355Y-120360297D01*
X91621186Y-120360116D01*
X91718262Y-120329004D01*
X91814574Y-120288113D01*
X91983599Y-120217980D01*
X92162845Y-120155687D01*
X92238883Y-120133849D01*
X92443320Y-120081454D01*
X92414226Y-119848594D01*
X92406193Y-119792022D01*
X92838716Y-119792022D01*
X92880327Y-119798801D01*
X92935234Y-119791017D01*
X92935890Y-119776566D01*
X92879231Y-119766461D01*
X92854751Y-119773224D01*
X92838716Y-119792022D01*
X92406193Y-119792022D01*
X92399831Y-119747224D01*
X93058453Y-119747224D01*
X93116688Y-119753125D01*
X93176786Y-119746473D01*
X93169605Y-119731773D01*
X93082934Y-119726182D01*
X93063772Y-119731773D01*
X93058453Y-119747224D01*
X92399831Y-119747224D01*
X92393437Y-119702201D01*
X93247216Y-119702201D01*
X93260615Y-119715343D01*
X93328658Y-119715830D01*
X93422702Y-119706232D01*
X93514104Y-119689118D01*
X93561188Y-119674037D01*
X93585618Y-119654391D01*
X93527671Y-119653522D01*
X93455355Y-119661736D01*
X93337464Y-119679932D01*
X93260514Y-119696695D01*
X93247216Y-119702201D01*
X92393437Y-119702201D01*
X92392792Y-119697661D01*
X92369897Y-119567129D01*
X92358262Y-119515262D01*
X92341346Y-119464050D01*
X92315513Y-119448173D01*
X92264224Y-119472699D01*
X92170945Y-119542695D01*
X92109420Y-119591528D01*
X91952096Y-119700539D01*
X91841596Y-119739953D01*
X91778341Y-119709722D01*
X91762022Y-119632255D01*
X91751829Y-119535819D01*
X91725569Y-119403828D01*
X91689717Y-119260157D01*
X91650750Y-119128685D01*
X91615145Y-119033289D01*
X91589942Y-118997810D01*
X91523026Y-119036910D01*
X91468229Y-119141560D01*
X91432826Y-119292778D01*
X91423355Y-119432347D01*
X91230407Y-119432347D01*
X91232246Y-119328787D01*
X91250376Y-119221929D01*
X91255090Y-119203490D01*
X91331694Y-119005666D01*
X91430999Y-118875361D01*
X91541806Y-118814330D01*
X91652914Y-118824330D01*
X91753126Y-118907117D01*
X91831241Y-119064449D01*
X91844811Y-119111007D01*
X91879832Y-119245367D01*
X91907955Y-119353320D01*
X91916330Y-119385493D01*
X91935359Y-119418271D01*
X91979193Y-119419820D01*
X92064733Y-119386379D01*
X92187895Y-119325035D01*
X92344069Y-119251859D01*
X92444693Y-119230899D01*
X92504817Y-119267632D01*
X92539488Y-119367537D01*
X92554103Y-119458350D01*
X92578725Y-119565603D01*
X92612459Y-119625733D01*
X92624845Y-119630574D01*
X92683478Y-119621767D01*
X92806181Y-119599605D01*
X92974054Y-119567595D01*
X93137855Y-119535324D01*
X93603522Y-119442310D01*
X93615396Y-118872478D01*
X93617204Y-118641240D01*
X93614886Y-118351698D01*
X93608911Y-118030092D01*
X93599750Y-117702660D01*
X93589643Y-117435521D01*
X93576660Y-117126396D01*
X93569827Y-116890642D01*
X93571810Y-116717034D01*
X93584806Y-116598634D01*
X93730522Y-116598634D01*
X93730522Y-118793045D01*
X93730646Y-119215156D01*
X93731004Y-119610580D01*
X93731572Y-119971446D01*
X93732325Y-120289882D01*
X93733240Y-120558015D01*
X93734293Y-120767973D01*
X93735459Y-120911885D01*
X93736716Y-120981879D01*
X93737193Y-120987466D01*
X93759635Y-120952925D01*
X93817334Y-120857482D01*
X93902972Y-120713421D01*
X94009231Y-120533024D01*
X94083967Y-120405393D01*
X94203079Y-120198752D01*
X94297959Y-120022340D01*
X94371660Y-119862413D01*
X94427233Y-119705228D01*
X94467730Y-119537043D01*
X94496202Y-119344114D01*
X94515701Y-119112700D01*
X94529279Y-118829055D01*
X94539988Y-118479439D01*
X94543724Y-118334947D01*
X94548009Y-118044303D01*
X94547086Y-117740247D01*
X94541542Y-117435335D01*
X94531966Y-117142124D01*
X94518945Y-116873169D01*
X94503067Y-116641028D01*
X94484919Y-116458256D01*
X94465090Y-116337411D01*
X94448178Y-116293522D01*
X94404860Y-116302444D01*
X94303127Y-116340702D01*
X94161004Y-116401233D01*
X94080763Y-116437491D01*
X93730522Y-116598634D01*
X93584806Y-116598634D01*
X93585277Y-116594348D01*
X93612895Y-116511358D01*
X93657332Y-116456841D01*
X93721255Y-116419571D01*
X93807332Y-116388324D01*
X93841095Y-116377409D01*
X93959238Y-116328834D01*
X94112000Y-116252343D01*
X94128982Y-116242735D01*
X94600181Y-116242735D01*
X94611574Y-116314105D01*
X94622602Y-116395089D01*
X94637548Y-116544399D01*
X94655002Y-116745862D01*
X94673553Y-116983305D01*
X94689668Y-117209226D01*
X94710914Y-117570196D01*
X94720540Y-117883319D01*
X94718546Y-118184613D01*
X94704932Y-118510098D01*
X94689668Y-118754393D01*
X94671319Y-119010123D01*
X94652825Y-119244108D01*
X94635597Y-119440176D01*
X94621046Y-119582153D01*
X94611574Y-119649514D01*
X94600521Y-119733853D01*
X94628578Y-119757319D01*
X94687500Y-119746733D01*
X94763446Y-119735026D01*
X94906788Y-119719267D01*
X95100448Y-119701104D01*
X95327346Y-119682184D01*
X95466188Y-119671606D01*
X95806254Y-119653668D01*
X96191667Y-119645114D01*
X96598818Y-119645543D01*
X97004099Y-119654559D01*
X97383902Y-119671762D01*
X97714618Y-119696756D01*
X97852669Y-119711859D01*
X98122484Y-119745504D01*
X98095315Y-119488073D01*
X98072481Y-119207842D01*
X98055157Y-118865456D01*
X98043582Y-118483264D01*
X98037994Y-118083613D01*
X98038139Y-117993721D01*
X98218823Y-117993721D01*
X98220173Y-118326822D01*
X98223507Y-118645942D01*
X98228824Y-118936991D01*
X98236123Y-119185881D01*
X98245400Y-119378522D01*
X98252972Y-119471444D01*
X98266864Y-119590094D01*
X98284305Y-119687049D01*
X98312447Y-119777047D01*
X98358443Y-119874830D01*
X98429445Y-119995137D01*
X98532606Y-120152709D01*
X98675077Y-120362285D01*
X98710029Y-120413361D01*
X98846640Y-120612269D01*
X98965793Y-120784468D01*
X99059695Y-120918798D01*
X99120554Y-121004105D01*
X99140579Y-121029763D01*
X99142226Y-120988725D01*
X99143770Y-120870847D01*
X99145181Y-120683957D01*
X99146429Y-120435883D01*
X99147482Y-120134450D01*
X99148311Y-119787486D01*
X99148885Y-119402819D01*
X99149174Y-118988275D01*
X99149203Y-118809991D01*
X99149207Y-118100427D01*
X99297355Y-118100427D01*
X99325624Y-118142331D01*
X99350577Y-118139778D01*
X99412718Y-118126446D01*
X99538925Y-118106434D01*
X99709152Y-118082746D01*
X99853362Y-118064411D01*
X100045767Y-118037077D01*
X100211263Y-118006536D01*
X100328850Y-117977066D01*
X100372375Y-117958683D01*
X100416484Y-117890506D01*
X100405636Y-117818733D01*
X100350095Y-117777955D01*
X100318727Y-117777891D01*
X100228094Y-117770169D01*
X100199672Y-117757694D01*
X100136891Y-117763129D01*
X100051660Y-117824103D01*
X100046553Y-117829126D01*
X99955413Y-117894723D01*
X99820346Y-117944601D01*
X99621005Y-117986270D01*
X99620486Y-117986357D01*
X99436252Y-118023650D01*
X99330574Y-118061165D01*
X99297355Y-118100427D01*
X99149207Y-118100427D01*
X99149217Y-116590267D01*
X99003864Y-116562998D01*
X98893001Y-116530083D01*
X98740211Y-116469600D01*
X98577947Y-116394433D01*
X98572862Y-116391879D01*
X98287212Y-116248028D01*
X98252533Y-116490502D01*
X98241928Y-116611618D01*
X98233320Y-116803287D01*
X98226708Y-117051422D01*
X98222089Y-117341931D01*
X98219462Y-117660728D01*
X98218823Y-117993721D01*
X98038139Y-117993721D01*
X98038632Y-117688852D01*
X98045735Y-117321328D01*
X98059543Y-117003389D01*
X98067530Y-116888362D01*
X98084527Y-116663967D01*
X98097316Y-116471539D01*
X98105057Y-116325846D01*
X98106911Y-116241658D01*
X98105129Y-116226932D01*
X98058991Y-116225864D01*
X97954973Y-116236216D01*
X97858022Y-116249517D01*
X97622467Y-116276473D01*
X97329982Y-116296580D01*
X96995625Y-116309992D01*
X96634454Y-116316867D01*
X96261528Y-116317360D01*
X95891903Y-116311627D01*
X95540638Y-116299825D01*
X95222791Y-116282109D01*
X94953420Y-116258635D01*
X94747583Y-116229559D01*
X94687500Y-116216666D01*
X94618043Y-116207284D01*
X94600181Y-116242735D01*
X94128982Y-116242735D01*
X94241122Y-116179292D01*
X94488243Y-116030484D01*
X94765549Y-116079033D01*
X94885225Y-116093349D01*
X95074277Y-116107796D01*
X95317416Y-116121588D01*
X95599357Y-116133934D01*
X95904813Y-116144048D01*
X96132938Y-116149549D01*
X96464622Y-116155974D01*
X96721276Y-116159905D01*
X96912514Y-116160839D01*
X97047947Y-116158272D01*
X97137190Y-116151701D01*
X97189855Y-116140623D01*
X97215556Y-116124535D01*
X97223906Y-116102934D01*
X97224004Y-116101305D01*
X97407889Y-116101305D01*
X97443425Y-116109195D01*
X97495243Y-116056698D01*
X97510949Y-116009801D01*
X97558446Y-115748995D01*
X97608055Y-115563338D01*
X97662699Y-115443316D01*
X97698389Y-115399525D01*
X97755864Y-115329671D01*
X97747883Y-115273369D01*
X97735370Y-115256549D01*
X97732741Y-115251310D01*
X97985022Y-115251310D01*
X98006188Y-115272476D01*
X98027355Y-115251310D01*
X98006188Y-115230143D01*
X97985022Y-115251310D01*
X97732741Y-115251310D01*
X97705965Y-115197968D01*
X97735379Y-115163950D01*
X97756807Y-115124899D01*
X97711104Y-115077655D01*
X97642633Y-115047871D01*
X97588384Y-115075546D01*
X97544730Y-115167767D01*
X97508046Y-115331622D01*
X97480009Y-115529455D01*
X97456400Y-115715806D01*
X97433904Y-115879683D01*
X97416008Y-115996231D01*
X97410081Y-116028036D01*
X97407889Y-116101305D01*
X97224004Y-116101305D01*
X97224545Y-116092413D01*
X97230551Y-116017983D01*
X97245465Y-115882118D01*
X97266729Y-115707273D01*
X97281537Y-115592486D01*
X97337005Y-115171662D01*
X97216513Y-114942604D01*
X97127680Y-114743462D01*
X97099705Y-114600085D01*
X97132702Y-114513601D01*
X97170483Y-114492548D01*
X97245080Y-114437316D01*
X97286900Y-114373279D01*
X97322998Y-114317226D01*
X97383984Y-114288599D01*
X97494431Y-114278919D01*
X97561688Y-114278464D01*
X97736633Y-114266046D01*
X97835962Y-114226544D01*
X97847466Y-114214964D01*
X97891049Y-114179044D01*
X97937579Y-114199654D01*
G37*
X97937579Y-114199654D02*
X97989345Y-114255887D01*
X98039854Y-114330465D01*
X98062279Y-114416830D01*
X98062210Y-114544716D01*
X98057007Y-114615720D01*
X98040836Y-114768611D01*
X98021287Y-114897643D01*
X98007578Y-114957386D01*
X97998052Y-115015305D01*
X98035270Y-115034203D01*
X98119805Y-115028699D01*
X98249955Y-115036399D01*
X98343180Y-115074569D01*
X98398584Y-115132013D01*
X98394713Y-115201137D01*
X98376597Y-115245005D01*
X98317857Y-115322167D01*
X98209792Y-115382522D01*
X98091296Y-115422336D01*
X97924727Y-115484460D01*
X97816955Y-115567364D01*
X97751671Y-115691496D01*
X97712566Y-115877304D01*
X97709310Y-115901261D01*
X97679542Y-116127879D01*
X97800532Y-116103948D01*
X98048549Y-116061489D01*
X98223794Y-116046344D01*
X98323329Y-116058676D01*
X98342934Y-116073701D01*
X98401287Y-116123103D01*
X98516781Y-116191469D01*
X98667337Y-116267885D01*
X98830874Y-116341435D01*
X98985314Y-116401207D01*
X99043355Y-116419933D01*
X99168149Y-116462844D01*
X99260948Y-116505361D01*
X99282445Y-116519989D01*
X99302183Y-116570203D01*
X99313332Y-116682093D01*
X99316146Y-116862529D01*
X99310878Y-117118380D01*
X99307818Y-117209226D01*
X99300981Y-117471747D01*
X99301334Y-117671220D01*
X99308690Y-117800860D01*
X99322863Y-117853884D01*
X99325536Y-117854810D01*
X99418767Y-117845536D01*
X99551971Y-117821977D01*
X99696541Y-117790526D01*
X99823869Y-117757576D01*
X99905350Y-117729519D01*
X99917068Y-117722618D01*
X99955321Y-117660299D01*
X99997396Y-117547497D01*
X100015498Y-117483113D01*
X100059266Y-117347877D01*
X100111377Y-117238766D01*
X100132595Y-117209226D01*
X100231503Y-117142210D01*
X100324579Y-117150223D01*
X100397807Y-117224026D01*
X100437171Y-117354377D01*
X100440355Y-117412116D01*
X100450519Y-117491899D01*
X100497802Y-117508472D01*
X100546217Y-117498752D01*
X100805309Y-117449281D01*
X101005204Y-117447483D01*
X101152887Y-117491287D01*
X101249344Y-117562895D01*
X101286210Y-117637327D01*
X101256831Y-117696413D01*
X101232631Y-117709005D01*
X101198157Y-117762442D01*
X101186978Y-117890520D01*
X101188811Y-117963289D01*
X101191281Y-118099557D01*
X101177523Y-118175856D01*
X101139473Y-118216490D01*
X101098657Y-118234998D01*
X101009421Y-118298670D01*
X100969319Y-118363446D01*
X100922565Y-118429081D01*
X100877568Y-118429371D01*
X100778649Y-118407619D01*
X100739133Y-118405143D01*
X100659892Y-118382346D01*
X100548503Y-118324903D01*
X100500823Y-118294519D01*
X100421033Y-118242750D01*
X100353606Y-118212815D01*
X100275570Y-118202151D01*
X100163948Y-118208196D01*
X99995766Y-118228386D01*
X99955166Y-118233657D01*
X99765827Y-118258875D01*
X99592475Y-118283007D01*
X99463891Y-118302011D01*
X99433899Y-118306853D01*
X99295277Y-118330289D01*
X99306899Y-119821902D01*
X99308705Y-120191658D01*
X99308221Y-120525180D01*
X99305598Y-120813939D01*
X99300985Y-121049403D01*
X99294533Y-121223045D01*
X99286392Y-121326334D01*
X99280000Y-121352000D01*
X99229315Y-121360837D01*
X99101796Y-121367970D01*
X98905261Y-121373294D01*
X98647526Y-121376702D01*
X98336411Y-121378088D01*
X97979732Y-121377346D01*
X97611946Y-121374634D01*
X95982414Y-121358783D01*
X96009683Y-121585880D01*
X96025744Y-121766655D01*
X96035734Y-121969315D01*
X96037320Y-122061898D01*
X96037688Y-122310821D01*
X96227395Y-122289438D01*
X96381007Y-122286256D01*
X96466147Y-122326345D01*
X96491340Y-122419671D01*
X96466847Y-122569380D01*
X96432292Y-122698815D01*
X96401610Y-122801133D01*
X96393755Y-122823526D01*
X96390613Y-122864332D01*
X96432984Y-122885182D01*
X96537757Y-122892171D01*
X96584852Y-122892476D01*
X96814476Y-122911595D01*
X96978144Y-122965536D01*
X97072000Y-123049177D01*
X97092191Y-123157394D01*
X97034859Y-123285064D01*
X96951012Y-123379074D01*
X96843141Y-123463790D01*
X96714307Y-123527445D01*
X96549538Y-123573969D01*
X96333862Y-123607288D01*
X96052310Y-123631332D01*
X95970728Y-123636305D01*
X95753698Y-123646357D01*
X95604435Y-123646359D01*
X95506517Y-123635231D01*
X95443518Y-123611892D01*
X95426504Y-123600506D01*
X95381395Y-123557960D01*
X95364609Y-123504653D01*
X95370842Y-123442810D01*
X95562412Y-123442810D01*
X95979967Y-123440957D01*
X96298408Y-123426656D01*
X96539435Y-123386668D01*
X96605147Y-123366873D01*
X96738184Y-123306633D01*
X96842919Y-123234702D01*
X96874894Y-123199393D01*
X96937015Y-123104143D01*
X96528356Y-123104143D01*
X96316219Y-123100717D01*
X96179808Y-123085325D01*
X96110294Y-123050292D01*
X96098847Y-122987943D01*
X96136635Y-122890606D01*
X96183631Y-122804564D01*
X96261161Y-122648136D01*
X96289826Y-122539475D01*
X96268863Y-122485714D01*
X96217605Y-122486471D01*
X96135086Y-122500632D01*
X96002827Y-122512241D01*
X95905719Y-122516838D01*
X95667916Y-122524172D01*
X95640654Y-122845908D01*
X95623745Y-123023809D01*
X95605099Y-123186923D01*
X95588618Y-123301297D01*
X95587902Y-123305226D01*
X95562412Y-123442810D01*
X95370842Y-123442810D01*
X95373641Y-123415048D01*
X95397267Y-123302330D01*
X95425863Y-123136812D01*
X95449656Y-122931674D01*
X95463239Y-122736063D01*
X95472754Y-122565894D01*
X95488216Y-122460817D01*
X95515059Y-122401258D01*
X95558715Y-122367642D01*
X95566559Y-122363854D01*
X95609015Y-122338277D01*
X95636908Y-122298767D01*
X95651562Y-122231363D01*
X95654303Y-122122102D01*
X95646455Y-121957023D01*
X95629342Y-121722162D01*
X95628489Y-121711187D01*
X95613348Y-121516643D01*
X95794364Y-121516643D01*
X95797771Y-121603768D01*
X95807365Y-121626256D01*
X95812775Y-121612386D01*
X95820660Y-121510726D01*
X95813629Y-121443053D01*
X95802477Y-121419591D01*
X95795462Y-121470473D01*
X95794364Y-121516643D01*
X95613348Y-121516643D01*
X95600797Y-121355398D01*
X94632574Y-121383526D01*
X94300079Y-121392034D01*
X94043603Y-121395733D01*
X93854628Y-121394425D01*
X93724631Y-121387911D01*
X93645092Y-121375993D01*
X93608698Y-121359665D01*
X93587642Y-121320574D01*
X93573902Y-121242591D01*
X93572227Y-121211680D01*
X93794020Y-121211680D01*
X93835157Y-121213198D01*
X93953784Y-121214630D01*
X94142723Y-121215953D01*
X94394799Y-121217145D01*
X94702833Y-121218182D01*
X95059649Y-121219039D01*
X95458070Y-121219695D01*
X95890919Y-121220125D01*
X96351019Y-121220305D01*
X96434025Y-121220310D01*
X99074031Y-121220310D01*
X98671317Y-120627643D01*
X98533099Y-120425930D01*
X98406997Y-120245054D01*
X98302475Y-120098347D01*
X98228996Y-119999142D01*
X98200896Y-119964891D01*
X98119319Y-119924715D01*
X97961510Y-119888902D01*
X97735826Y-119858217D01*
X97450624Y-119833422D01*
X97114262Y-119815282D01*
X96735099Y-119804560D01*
X96416446Y-119801838D01*
X96147128Y-119804627D01*
X95861716Y-119812600D01*
X95573951Y-119824844D01*
X95297572Y-119840448D01*
X95046319Y-119858498D01*
X94833931Y-119878084D01*
X94674148Y-119898294D01*
X94580709Y-119918215D01*
X94566701Y-119924619D01*
X94537661Y-119964752D01*
X94474757Y-120063119D01*
X94386670Y-120205263D01*
X94282080Y-120376725D01*
X94169665Y-120563047D01*
X94058107Y-120749772D01*
X93956083Y-120922441D01*
X93872276Y-121066597D01*
X93815363Y-121167782D01*
X93794025Y-121211537D01*
X93794020Y-121211680D01*
X93572227Y-121211680D01*
X93566980Y-121114925D01*
X93566379Y-120926787D01*
X93571602Y-120667390D01*
X93573553Y-120597243D01*
X93582321Y-120329703D01*
X93586426Y-120136161D01*
X93579252Y-120005975D01*
X93554183Y-119928498D01*
X93504603Y-119893087D01*
X93423897Y-119889096D01*
X93305447Y-119905881D01*
X93159022Y-119930277D01*
X92945953Y-119964136D01*
X92802734Y-119990570D01*
X92715497Y-120014817D01*
X92670377Y-120042115D01*
X92653509Y-120077704D01*
X92651022Y-120122200D01*
X92627050Y-120205735D01*
X92541616Y-120248446D01*
X92534605Y-120250082D01*
X92298699Y-120306763D01*
X92113669Y-120360990D01*
X91946678Y-120423002D01*
X91856240Y-120461650D01*
X91717038Y-120517376D01*
X91598773Y-120554600D01*
X91542927Y-120564143D01*
X91479496Y-120540090D01*
X91423909Y-120462696D01*
X91373283Y-120324111D01*
X91324733Y-120116481D01*
X91276395Y-119838490D01*
X91244520Y-119615134D01*
X91230049Y-119452544D01*
X91230407Y-119432347D01*
X91423355Y-119432347D01*
X91430652Y-119564250D01*
X91449961Y-119735725D01*
X91477406Y-119923266D01*
X91509110Y-120103365D01*
X91541199Y-120252516D01*
X91569795Y-120347212D01*
X91576355Y-120360297D01*
X91621186Y-120360116D01*
X91718262Y-120329004D01*
X91814574Y-120288113D01*
X91983599Y-120217980D01*
X92162845Y-120155687D01*
X92238883Y-120133849D01*
X92443320Y-120081454D01*
X92414226Y-119848594D01*
X92406193Y-119792022D01*
X92838716Y-119792022D01*
X92880327Y-119798801D01*
X92935234Y-119791017D01*
X92935890Y-119776566D01*
X92879231Y-119766461D01*
X92854751Y-119773224D01*
X92838716Y-119792022D01*
X92406193Y-119792022D01*
X92399831Y-119747224D01*
X93058453Y-119747224D01*
X93116688Y-119753125D01*
X93176786Y-119746473D01*
X93169605Y-119731773D01*
X93082934Y-119726182D01*
X93063772Y-119731773D01*
X93058453Y-119747224D01*
X92399831Y-119747224D01*
X92393437Y-119702201D01*
X93247216Y-119702201D01*
X93260615Y-119715343D01*
X93328658Y-119715830D01*
X93422702Y-119706232D01*
X93514104Y-119689118D01*
X93561188Y-119674037D01*
X93585618Y-119654391D01*
X93527671Y-119653522D01*
X93455355Y-119661736D01*
X93337464Y-119679932D01*
X93260514Y-119696695D01*
X93247216Y-119702201D01*
X92393437Y-119702201D01*
X92392792Y-119697661D01*
X92369897Y-119567129D01*
X92358262Y-119515262D01*
X92341346Y-119464050D01*
X92315513Y-119448173D01*
X92264224Y-119472699D01*
X92170945Y-119542695D01*
X92109420Y-119591528D01*
X91952096Y-119700539D01*
X91841596Y-119739953D01*
X91778341Y-119709722D01*
X91762022Y-119632255D01*
X91751829Y-119535819D01*
X91725569Y-119403828D01*
X91689717Y-119260157D01*
X91650750Y-119128685D01*
X91615145Y-119033289D01*
X91589942Y-118997810D01*
X91523026Y-119036910D01*
X91468229Y-119141560D01*
X91432826Y-119292778D01*
X91423355Y-119432347D01*
X91230407Y-119432347D01*
X91232246Y-119328787D01*
X91250376Y-119221929D01*
X91255090Y-119203490D01*
X91331694Y-119005666D01*
X91430999Y-118875361D01*
X91541806Y-118814330D01*
X91652914Y-118824330D01*
X91753126Y-118907117D01*
X91831241Y-119064449D01*
X91844811Y-119111007D01*
X91879832Y-119245367D01*
X91907955Y-119353320D01*
X91916330Y-119385493D01*
X91935359Y-119418271D01*
X91979193Y-119419820D01*
X92064733Y-119386379D01*
X92187895Y-119325035D01*
X92344069Y-119251859D01*
X92444693Y-119230899D01*
X92504817Y-119267632D01*
X92539488Y-119367537D01*
X92554103Y-119458350D01*
X92578725Y-119565603D01*
X92612459Y-119625733D01*
X92624845Y-119630574D01*
X92683478Y-119621767D01*
X92806181Y-119599605D01*
X92974054Y-119567595D01*
X93137855Y-119535324D01*
X93603522Y-119442310D01*
X93615396Y-118872478D01*
X93617204Y-118641240D01*
X93614886Y-118351698D01*
X93608911Y-118030092D01*
X93599750Y-117702660D01*
X93589643Y-117435521D01*
X93576660Y-117126396D01*
X93569827Y-116890642D01*
X93571810Y-116717034D01*
X93584806Y-116598634D01*
X93730522Y-116598634D01*
X93730522Y-118793045D01*
X93730646Y-119215156D01*
X93731004Y-119610580D01*
X93731572Y-119971446D01*
X93732325Y-120289882D01*
X93733240Y-120558015D01*
X93734293Y-120767973D01*
X93735459Y-120911885D01*
X93736716Y-120981879D01*
X93737193Y-120987466D01*
X93759635Y-120952925D01*
X93817334Y-120857482D01*
X93902972Y-120713421D01*
X94009231Y-120533024D01*
X94083967Y-120405393D01*
X94203079Y-120198752D01*
X94297959Y-120022340D01*
X94371660Y-119862413D01*
X94427233Y-119705228D01*
X94467730Y-119537043D01*
X94496202Y-119344114D01*
X94515701Y-119112700D01*
X94529279Y-118829055D01*
X94539988Y-118479439D01*
X94543724Y-118334947D01*
X94548009Y-118044303D01*
X94547086Y-117740247D01*
X94541542Y-117435335D01*
X94531966Y-117142124D01*
X94518945Y-116873169D01*
X94503067Y-116641028D01*
X94484919Y-116458256D01*
X94465090Y-116337411D01*
X94448178Y-116293522D01*
X94404860Y-116302444D01*
X94303127Y-116340702D01*
X94161004Y-116401233D01*
X94080763Y-116437491D01*
X93730522Y-116598634D01*
X93584806Y-116598634D01*
X93585277Y-116594348D01*
X93612895Y-116511358D01*
X93657332Y-116456841D01*
X93721255Y-116419571D01*
X93807332Y-116388324D01*
X93841095Y-116377409D01*
X93959238Y-116328834D01*
X94112000Y-116252343D01*
X94128982Y-116242735D01*
X94600181Y-116242735D01*
X94611574Y-116314105D01*
X94622602Y-116395089D01*
X94637548Y-116544399D01*
X94655002Y-116745862D01*
X94673553Y-116983305D01*
X94689668Y-117209226D01*
X94710914Y-117570196D01*
X94720540Y-117883319D01*
X94718546Y-118184613D01*
X94704932Y-118510098D01*
X94689668Y-118754393D01*
X94671319Y-119010123D01*
X94652825Y-119244108D01*
X94635597Y-119440176D01*
X94621046Y-119582153D01*
X94611574Y-119649514D01*
X94600521Y-119733853D01*
X94628578Y-119757319D01*
X94687500Y-119746733D01*
X94763446Y-119735026D01*
X94906788Y-119719267D01*
X95100448Y-119701104D01*
X95327346Y-119682184D01*
X95466188Y-119671606D01*
X95806254Y-119653668D01*
X96191667Y-119645114D01*
X96598818Y-119645543D01*
X97004099Y-119654559D01*
X97383902Y-119671762D01*
X97714618Y-119696756D01*
X97852669Y-119711859D01*
X98122484Y-119745504D01*
X98095315Y-119488073D01*
X98072481Y-119207842D01*
X98055157Y-118865456D01*
X98043582Y-118483264D01*
X98037994Y-118083613D01*
X98038139Y-117993721D01*
X98218823Y-117993721D01*
X98220173Y-118326822D01*
X98223507Y-118645942D01*
X98228824Y-118936991D01*
X98236123Y-119185881D01*
X98245400Y-119378522D01*
X98252972Y-119471444D01*
X98266864Y-119590094D01*
X98284305Y-119687049D01*
X98312447Y-119777047D01*
X98358443Y-119874830D01*
X98429445Y-119995137D01*
X98532606Y-120152709D01*
X98675077Y-120362285D01*
X98710029Y-120413361D01*
X98846640Y-120612269D01*
X98965793Y-120784468D01*
X99059695Y-120918798D01*
X99120554Y-121004105D01*
X99140579Y-121029763D01*
X99142226Y-120988725D01*
X99143770Y-120870847D01*
X99145181Y-120683957D01*
X99146429Y-120435883D01*
X99147482Y-120134450D01*
X99148311Y-119787486D01*
X99148885Y-119402819D01*
X99149174Y-118988275D01*
X99149203Y-118809991D01*
X99149207Y-118100427D01*
X99297355Y-118100427D01*
X99325624Y-118142331D01*
X99350577Y-118139778D01*
X99412718Y-118126446D01*
X99538925Y-118106434D01*
X99709152Y-118082746D01*
X99853362Y-118064411D01*
X100045767Y-118037077D01*
X100211263Y-118006536D01*
X100328850Y-117977066D01*
X100372375Y-117958683D01*
X100416484Y-117890506D01*
X100405636Y-117818733D01*
X100350095Y-117777955D01*
X100318727Y-117777891D01*
X100228094Y-117770169D01*
X100199672Y-117757694D01*
X100136891Y-117763129D01*
X100051660Y-117824103D01*
X100046553Y-117829126D01*
X99955413Y-117894723D01*
X99820346Y-117944601D01*
X99621005Y-117986270D01*
X99620486Y-117986357D01*
X99436252Y-118023650D01*
X99330574Y-118061165D01*
X99297355Y-118100427D01*
X99149207Y-118100427D01*
X99149217Y-116590267D01*
X99003864Y-116562998D01*
X98893001Y-116530083D01*
X98740211Y-116469600D01*
X98577947Y-116394433D01*
X98572862Y-116391879D01*
X98287212Y-116248028D01*
X98252533Y-116490502D01*
X98241928Y-116611618D01*
X98233320Y-116803287D01*
X98226708Y-117051422D01*
X98222089Y-117341931D01*
X98219462Y-117660728D01*
X98218823Y-117993721D01*
X98038139Y-117993721D01*
X98038632Y-117688852D01*
X98045735Y-117321328D01*
X98059543Y-117003389D01*
X98067530Y-116888362D01*
X98084527Y-116663967D01*
X98097316Y-116471539D01*
X98105057Y-116325846D01*
X98106911Y-116241658D01*
X98105129Y-116226932D01*
X98058991Y-116225864D01*
X97954973Y-116236216D01*
X97858022Y-116249517D01*
X97622467Y-116276473D01*
X97329982Y-116296580D01*
X96995625Y-116309992D01*
X96634454Y-116316867D01*
X96261528Y-116317360D01*
X95891903Y-116311627D01*
X95540638Y-116299825D01*
X95222791Y-116282109D01*
X94953420Y-116258635D01*
X94747583Y-116229559D01*
X94687500Y-116216666D01*
X94618043Y-116207284D01*
X94600181Y-116242735D01*
X94128982Y-116242735D01*
X94241122Y-116179292D01*
X94488243Y-116030484D01*
X94765549Y-116079033D01*
X94885225Y-116093349D01*
X95074277Y-116107796D01*
X95317416Y-116121588D01*
X95599357Y-116133934D01*
X95904813Y-116144048D01*
X96132938Y-116149549D01*
X96464622Y-116155974D01*
X96721276Y-116159905D01*
X96912514Y-116160839D01*
X97047947Y-116158272D01*
X97137190Y-116151701D01*
X97189855Y-116140623D01*
X97215556Y-116124535D01*
X97223906Y-116102934D01*
X97224004Y-116101305D01*
X97407889Y-116101305D01*
X97443425Y-116109195D01*
X97495243Y-116056698D01*
X97510949Y-116009801D01*
X97558446Y-115748995D01*
X97608055Y-115563338D01*
X97662699Y-115443316D01*
X97698389Y-115399525D01*
X97755864Y-115329671D01*
X97747883Y-115273369D01*
X97735370Y-115256549D01*
X97732741Y-115251310D01*
X97985022Y-115251310D01*
X98006188Y-115272476D01*
X98027355Y-115251310D01*
X98006188Y-115230143D01*
X97985022Y-115251310D01*
X97732741Y-115251310D01*
X97705965Y-115197968D01*
X97735379Y-115163950D01*
X97756807Y-115124899D01*
X97711104Y-115077655D01*
X97642633Y-115047871D01*
X97588384Y-115075546D01*
X97544730Y-115167767D01*
X97508046Y-115331622D01*
X97480009Y-115529455D01*
X97456400Y-115715806D01*
X97433904Y-115879683D01*
X97416008Y-115996231D01*
X97410081Y-116028036D01*
X97407889Y-116101305D01*
X97224004Y-116101305D01*
X97224545Y-116092413D01*
X97230551Y-116017983D01*
X97245465Y-115882118D01*
X97266729Y-115707273D01*
X97281537Y-115592486D01*
X97337005Y-115171662D01*
X97216513Y-114942604D01*
X97127680Y-114743462D01*
X97099705Y-114600085D01*
X97132702Y-114513601D01*
X97170483Y-114492548D01*
X97245080Y-114437316D01*
X97286900Y-114373279D01*
X97322998Y-114317226D01*
X97383984Y-114288599D01*
X97494431Y-114278919D01*
X97561688Y-114278464D01*
X97736633Y-114266046D01*
X97835962Y-114226544D01*
X97847466Y-114214964D01*
X97891049Y-114179044D01*
X97937579Y-114199654D01*
D10*
X90480000Y-80802000D02*
X91180000Y-80802000D01*
X93980000Y-80802000D02*
X93380000Y-80802000D01*
X93980000Y-74802000D02*
X93380000Y-74802000D01*
X90480000Y-74802000D02*
X91180000Y-74802000D01*
X93980000Y-80802000D02*
X93980000Y-74802000D01*
X90480000Y-74802000D02*
X90480000Y-80802000D01*
X89980000Y-88502000D02*
X89980000Y-82502000D01*
X89980000Y-82502000D02*
X101980000Y-82502000D01*
X101980000Y-82502000D02*
X101980000Y-88502000D01*
X101980000Y-88502000D02*
X89980000Y-88502000D01*
D12*
X93650000Y-41470000D02*
X91110000Y-41470000D01*
X91110000Y-38930000D02*
X91110000Y-41470000D01*
X108890000Y-38930000D02*
X91110000Y-38930000D01*
X108890000Y-41470000D02*
X108890000Y-38930000D01*
D10*
G36*
X104931568Y-47949360D02*
G01*
X104931568Y-48149360D01*
X104831568Y-48149360D01*
X104831568Y-47949360D01*
X104931568Y-47949360D01*
G37*
X104931568Y-47949360D02*
X104931568Y-48149360D01*
X104831568Y-48149360D01*
X104831568Y-47949360D01*
X104931568Y-47949360D01*
G36*
X104531568Y-47349360D02*
G01*
X104531568Y-48149360D01*
X104431568Y-48149360D01*
X104431568Y-47349360D01*
X104531568Y-47349360D01*
G37*
X104531568Y-47349360D02*
X104531568Y-48149360D01*
X104431568Y-48149360D01*
X104431568Y-47349360D01*
X104531568Y-47349360D01*
G36*
X104931568Y-47349360D02*
G01*
X104931568Y-47449360D01*
X104431568Y-47449360D01*
X104431568Y-47349360D01*
X104931568Y-47349360D01*
G37*
X104931568Y-47349360D02*
X104931568Y-47449360D01*
X104431568Y-47449360D01*
X104431568Y-47349360D01*
X104931568Y-47349360D01*
G36*
X104731568Y-47749360D02*
G01*
X104731568Y-47849360D01*
X104631568Y-47849360D01*
X104631568Y-47749360D01*
X104731568Y-47749360D01*
G37*
X104731568Y-47749360D02*
X104731568Y-47849360D01*
X104631568Y-47849360D01*
X104631568Y-47749360D01*
X104731568Y-47749360D01*
G36*
X104931568Y-47349360D02*
G01*
X104931568Y-47649360D01*
X104831568Y-47649360D01*
X104831568Y-47349360D01*
X104931568Y-47349360D01*
G37*
X104931568Y-47349360D02*
X104931568Y-47649360D01*
X104831568Y-47649360D01*
X104831568Y-47349360D01*
X104931568Y-47349360D01*
D12*
X93650000Y-44010000D02*
X91110000Y-44010000D01*
X93650000Y-41470000D02*
X93650000Y-44010000D01*
X108890000Y-71950000D02*
X108890000Y-41470000D01*
X91110000Y-71950000D02*
X108890000Y-71950000D01*
X91110000Y-41470000D02*
X91110000Y-71950000D01*
D10*
X98739244Y-135102073D02*
G75*
G03X99237371Y-132204856I-1199545J1697672D01*
G01*
X104005345Y-136223229D02*
G75*
G03X104504937Y-133320547I-1201545J1701137D01*
G01*
X96768172Y-127828078D02*
X99253335Y-132224506D01*
X96808010Y-127805078D02*
X100192437Y-125851078D01*
X100192437Y-125851078D02*
X104504937Y-133320547D01*
X103950223Y-136267755D02*
X100533753Y-138240255D01*
X100525959Y-138244755D02*
X98720959Y-135118403D01*
X179985001Y-122779999D02*
G75*
G03X177725000Y-120900000I-2070000J-190001D01*
G01*
X183589000Y-118780000D02*
G75*
G03X181325000Y-116896000I-2074000J-190000D01*
G01*
X172700000Y-120850000D02*
X177750000Y-120896000D01*
X172700000Y-120804000D02*
X172700000Y-116896000D01*
X172700000Y-116896000D02*
X181325000Y-116896000D01*
X183600000Y-118850000D02*
X183600000Y-122795000D01*
X183600000Y-122804000D02*
X179990000Y-122804000D01*
X160985001Y-120279999D02*
G75*
G03X158725000Y-118400000I-2070000J-190001D01*
G01*
X164589000Y-116280000D02*
G75*
G03X162325000Y-114396000I-2074000J-190000D01*
G01*
X153700000Y-118350000D02*
X158750000Y-118396000D01*
X153700000Y-118304000D02*
X153700000Y-114396000D01*
X153700000Y-114396000D02*
X162325000Y-114396000D01*
X164600000Y-116350000D02*
X164600000Y-120295000D01*
X164600000Y-120304000D02*
X160990000Y-120304000D01*
X141985001Y-122879999D02*
G75*
G03X139725000Y-121000000I-2070000J-190001D01*
G01*
X145589000Y-118880000D02*
G75*
G03X143325000Y-116996000I-2074000J-190000D01*
G01*
X134700000Y-120950000D02*
X139750000Y-120996000D01*
X134700000Y-120904000D02*
X134700000Y-116996000D01*
X134700000Y-116996000D02*
X143325000Y-116996000D01*
X145600000Y-118950000D02*
X145600000Y-122895000D01*
X145600000Y-122904000D02*
X141990000Y-122904000D01*
X119527983Y-126582167D02*
G75*
G03X116713066Y-125734672I-1831206J-983711D01*
G01*
X121282558Y-121491954D02*
G75*
G03X118462396Y-120642338I-1834889J-985273D01*
G01*
X112067993Y-127652071D02*
X116734516Y-125721222D01*
X112050019Y-127609727D02*
X110523042Y-124012394D01*
X110523042Y-124012394D02*
X118462396Y-120642338D01*
X121320034Y-121552092D02*
X122861468Y-125183483D01*
X122864985Y-125191768D02*
X119541962Y-126602307D01*
X218035001Y-112679999D02*
G75*
G03X215775000Y-110800000I-2070000J-190001D01*
G01*
X221639000Y-108680000D02*
G75*
G03X219375000Y-106796000I-2074000J-190000D01*
G01*
X210750000Y-110750000D02*
X215800000Y-110796000D01*
X210750000Y-110704000D02*
X210750000Y-106796000D01*
X210750000Y-106796000D02*
X219375000Y-106796000D01*
X221650000Y-108750000D02*
X221650000Y-112695000D01*
X221650000Y-112704000D02*
X218040000Y-112704000D01*
X198985001Y-112679999D02*
G75*
G03X196725000Y-110800000I-2070000J-190001D01*
G01*
X202589000Y-108680000D02*
G75*
G03X200325000Y-106796000I-2074000J-190000D01*
G01*
X191700000Y-110750000D02*
X196750000Y-110796000D01*
X191700000Y-110704000D02*
X191700000Y-106796000D01*
X191700000Y-106796000D02*
X200325000Y-106796000D01*
X202600000Y-108750000D02*
X202600000Y-112695000D01*
X202600000Y-112704000D02*
X198990000Y-112704000D01*
X179985001Y-103779999D02*
G75*
G03X177725000Y-101900000I-2070000J-190001D01*
G01*
X183589000Y-99780000D02*
G75*
G03X181325000Y-97896000I-2074000J-190000D01*
G01*
X172700000Y-101850000D02*
X177750000Y-101896000D01*
X172700000Y-101804000D02*
X172700000Y-97896000D01*
X172700000Y-97896000D02*
X181325000Y-97896000D01*
X183600000Y-99850000D02*
X183600000Y-103795000D01*
X183600000Y-103804000D02*
X179990000Y-103804000D01*
X160985001Y-101279999D02*
G75*
G03X158725000Y-99400000I-2070000J-190001D01*
G01*
X164589000Y-97280000D02*
G75*
G03X162325000Y-95396000I-2074000J-190000D01*
G01*
X153700000Y-99350000D02*
X158750000Y-99396000D01*
X153700000Y-99304000D02*
X153700000Y-95396000D01*
X153700000Y-95396000D02*
X162325000Y-95396000D01*
X164600000Y-97350000D02*
X164600000Y-101295000D01*
X164600000Y-101304000D02*
X160990000Y-101304000D01*
X141985001Y-103779999D02*
G75*
G03X139725000Y-101900000I-2070000J-190001D01*
G01*
X145589000Y-99780000D02*
G75*
G03X143325000Y-97896000I-2074000J-190000D01*
G01*
X134700000Y-101850000D02*
X139750000Y-101896000D01*
X134700000Y-101804000D02*
X134700000Y-97896000D01*
X134700000Y-97896000D02*
X143325000Y-97896000D01*
X145600000Y-99850000D02*
X145600000Y-103795000D01*
X145600000Y-103804000D02*
X141990000Y-103804000D01*
X122985001Y-106179999D02*
G75*
G03X120725000Y-104300000I-2070000J-190001D01*
G01*
X126589000Y-102180000D02*
G75*
G03X124325000Y-100296000I-2074000J-190000D01*
G01*
X115700000Y-104250000D02*
X120750000Y-104296000D01*
X115700000Y-104204000D02*
X115700000Y-100296000D01*
X115700000Y-100296000D02*
X124325000Y-100296000D01*
X126600000Y-102250000D02*
X126600000Y-106195000D01*
X126600000Y-106204000D02*
X122990000Y-106204000D01*
X217985001Y-93679999D02*
G75*
G03X215725000Y-91800000I-2070000J-190001D01*
G01*
X221589000Y-89680000D02*
G75*
G03X219325000Y-87796000I-2074000J-190000D01*
G01*
X210700000Y-91750000D02*
X215750000Y-91796000D01*
X210700000Y-91704000D02*
X210700000Y-87796000D01*
X210700000Y-87796000D02*
X219325000Y-87796000D01*
X221600000Y-89750000D02*
X221600000Y-93695000D01*
X221600000Y-93704000D02*
X217990000Y-93704000D01*
X198985001Y-93679999D02*
G75*
G03X196725000Y-91800000I-2070000J-190001D01*
G01*
X202589000Y-89680000D02*
G75*
G03X200325000Y-87796000I-2074000J-190000D01*
G01*
X191700000Y-91750000D02*
X196750000Y-91796000D01*
X191700000Y-91704000D02*
X191700000Y-87796000D01*
X191700000Y-87796000D02*
X200325000Y-87796000D01*
X202600000Y-89750000D02*
X202600000Y-93695000D01*
X202600000Y-93704000D02*
X198990000Y-93704000D01*
X179985001Y-84679999D02*
G75*
G03X177725000Y-82800000I-2070000J-190001D01*
G01*
X183589000Y-80680000D02*
G75*
G03X181325000Y-78796000I-2074000J-190000D01*
G01*
X172700000Y-82750000D02*
X177750000Y-82796000D01*
X172700000Y-82704000D02*
X172700000Y-78796000D01*
X172700000Y-78796000D02*
X181325000Y-78796000D01*
X183600000Y-80750000D02*
X183600000Y-84695000D01*
X183600000Y-84704000D02*
X179990000Y-84704000D01*
X160985001Y-82279999D02*
G75*
G03X158725000Y-80400000I-2070000J-190001D01*
G01*
X164589000Y-78280000D02*
G75*
G03X162325000Y-76396000I-2074000J-190000D01*
G01*
X153700000Y-80350000D02*
X158750000Y-80396000D01*
X153700000Y-80304000D02*
X153700000Y-76396000D01*
X153700000Y-76396000D02*
X162325000Y-76396000D01*
X164600000Y-78350000D02*
X164600000Y-82295000D01*
X164600000Y-82304000D02*
X160990000Y-82304000D01*
X141985001Y-84679999D02*
G75*
G03X139725000Y-82800000I-2070000J-190001D01*
G01*
X145589000Y-80680000D02*
G75*
G03X143325000Y-78796000I-2074000J-190000D01*
G01*
X134700000Y-82750000D02*
X139750000Y-82796000D01*
X134700000Y-82704000D02*
X134700000Y-78796000D01*
X134700000Y-78796000D02*
X143325000Y-78796000D01*
X145600000Y-80750000D02*
X145600000Y-84695000D01*
X145600000Y-84704000D02*
X141990000Y-84704000D01*
X122985001Y-87179999D02*
G75*
G03X120725000Y-85300000I-2070000J-190001D01*
G01*
X126589000Y-83180000D02*
G75*
G03X124325000Y-81296000I-2074000J-190000D01*
G01*
X115700000Y-85250000D02*
X120750000Y-85296000D01*
X115700000Y-85204000D02*
X115700000Y-81296000D01*
X115700000Y-81296000D02*
X124325000Y-81296000D01*
X126600000Y-83250000D02*
X126600000Y-87195000D01*
X126600000Y-87204000D02*
X122990000Y-87204000D01*
X217985001Y-74479999D02*
G75*
G03X215725000Y-72600000I-2070000J-190001D01*
G01*
X221589000Y-70480000D02*
G75*
G03X219325000Y-68596000I-2074000J-190000D01*
G01*
X210700000Y-72550000D02*
X215750000Y-72596000D01*
X210700000Y-72504000D02*
X210700000Y-68596000D01*
X210700000Y-68596000D02*
X219325000Y-68596000D01*
X221600000Y-70550000D02*
X221600000Y-74495000D01*
X221600000Y-74504000D02*
X217990000Y-74504000D01*
X198985001Y-74479999D02*
G75*
G03X196725000Y-72600000I-2070000J-190001D01*
G01*
X202589000Y-70480000D02*
G75*
G03X200325000Y-68596000I-2074000J-190000D01*
G01*
X191700000Y-72550000D02*
X196750000Y-72596000D01*
X191700000Y-72504000D02*
X191700000Y-68596000D01*
X191700000Y-68596000D02*
X200325000Y-68596000D01*
X202600000Y-70550000D02*
X202600000Y-74495000D01*
X202600000Y-74504000D02*
X198990000Y-74504000D01*
X179985001Y-65579999D02*
G75*
G03X177725000Y-63700000I-2070000J-190001D01*
G01*
X183589000Y-61580000D02*
G75*
G03X181325000Y-59696000I-2074000J-190000D01*
G01*
X172700000Y-63650000D02*
X177750000Y-63696000D01*
X172700000Y-63604000D02*
X172700000Y-59696000D01*
X172700000Y-59696000D02*
X181325000Y-59696000D01*
X183600000Y-61650000D02*
X183600000Y-65595000D01*
X183600000Y-65604000D02*
X179990000Y-65604000D01*
X160985001Y-63179999D02*
G75*
G03X158725000Y-61300000I-2070000J-190001D01*
G01*
X164589000Y-59180000D02*
G75*
G03X162325000Y-57296000I-2074000J-190000D01*
G01*
X153700000Y-61250000D02*
X158750000Y-61296000D01*
X153700000Y-61204000D02*
X153700000Y-57296000D01*
X153700000Y-57296000D02*
X162325000Y-57296000D01*
X164600000Y-59250000D02*
X164600000Y-63195000D01*
X164600000Y-63204000D02*
X160990000Y-63204000D01*
X141985001Y-65679999D02*
G75*
G03X139725000Y-63800000I-2070000J-190001D01*
G01*
X145589000Y-61680000D02*
G75*
G03X143325000Y-59796000I-2074000J-190000D01*
G01*
X134700000Y-63750000D02*
X139750000Y-63796000D01*
X134700000Y-63704000D02*
X134700000Y-59796000D01*
X134700000Y-59796000D02*
X143325000Y-59796000D01*
X145600000Y-61750000D02*
X145600000Y-65695000D01*
X145600000Y-65704000D02*
X141990000Y-65704000D01*
X122985001Y-68179999D02*
G75*
G03X120725000Y-66300000I-2070000J-190001D01*
G01*
X126589000Y-64180000D02*
G75*
G03X124325000Y-62296000I-2074000J-190000D01*
G01*
X115700000Y-66250000D02*
X120750000Y-66296000D01*
X115700000Y-66204000D02*
X115700000Y-62296000D01*
X115700000Y-62296000D02*
X124325000Y-62296000D01*
X126600000Y-64250000D02*
X126600000Y-68195000D01*
X126600000Y-68204000D02*
X122990000Y-68204000D01*
X217985001Y-55579999D02*
G75*
G03X215725000Y-53700000I-2070000J-190001D01*
G01*
X221589000Y-51580000D02*
G75*
G03X219325000Y-49696000I-2074000J-190000D01*
G01*
X210700000Y-53650000D02*
X215750000Y-53696000D01*
X210700000Y-53604000D02*
X210700000Y-49696000D01*
X210700000Y-49696000D02*
X219325000Y-49696000D01*
X221600000Y-51650000D02*
X221600000Y-55595000D01*
X221600000Y-55604000D02*
X217990000Y-55604000D01*
X198985001Y-55579999D02*
G75*
G03X196725000Y-53700000I-2070000J-190001D01*
G01*
X202589000Y-51580000D02*
G75*
G03X200325000Y-49696000I-2074000J-190000D01*
G01*
X191700000Y-53650000D02*
X196750000Y-53696000D01*
X191700000Y-53604000D02*
X191700000Y-49696000D01*
X191700000Y-49696000D02*
X200325000Y-49696000D01*
X202600000Y-51650000D02*
X202600000Y-55595000D01*
X202600000Y-55604000D02*
X198990000Y-55604000D01*
X179985001Y-46579999D02*
G75*
G03X177725000Y-44700000I-2070000J-190001D01*
G01*
X183589000Y-42580000D02*
G75*
G03X181325000Y-40696000I-2074000J-190000D01*
G01*
X172700000Y-44650000D02*
X177750000Y-44696000D01*
X172700000Y-44604000D02*
X172700000Y-40696000D01*
X172700000Y-40696000D02*
X181325000Y-40696000D01*
X183600000Y-42650000D02*
X183600000Y-46595000D01*
X183600000Y-46604000D02*
X179990000Y-46604000D01*
X160985001Y-44089999D02*
G75*
G03X158725000Y-42210000I-2070000J-190001D01*
G01*
X164589000Y-40090000D02*
G75*
G03X162325000Y-38206000I-2074000J-190000D01*
G01*
X153700000Y-42160000D02*
X158750000Y-42206000D01*
X153700000Y-42114000D02*
X153700000Y-38206000D01*
X153700000Y-38206000D02*
X162325000Y-38206000D01*
X164600000Y-40160000D02*
X164600000Y-44105000D01*
X164600000Y-44114000D02*
X160990000Y-44114000D01*
X141985001Y-46579999D02*
G75*
G03X139725000Y-44700000I-2070000J-190001D01*
G01*
X145589000Y-42580000D02*
G75*
G03X143325000Y-40696000I-2074000J-190000D01*
G01*
X134700000Y-44650000D02*
X139750000Y-44696000D01*
X134700000Y-44604000D02*
X134700000Y-40696000D01*
X134700000Y-40696000D02*
X143325000Y-40696000D01*
X145600000Y-42650000D02*
X145600000Y-46595000D01*
X145600000Y-46604000D02*
X141990000Y-46604000D01*
X122985001Y-49079999D02*
G75*
G03X120725000Y-47200000I-2070000J-190001D01*
G01*
X126589000Y-45080000D02*
G75*
G03X124325000Y-43196000I-2074000J-190000D01*
G01*
X115700000Y-47150000D02*
X120750000Y-47196000D01*
X115700000Y-47104000D02*
X115700000Y-43196000D01*
X115700000Y-43196000D02*
X124325000Y-43196000D01*
X126600000Y-45150000D02*
X126600000Y-49095000D01*
X126600000Y-49104000D02*
X122990000Y-49104000D01*
X161900000Y-112110000D02*
X161900000Y-113510000D01*
X161900000Y-112810000D02*
X162800000Y-112110000D01*
X162800000Y-113510000D02*
X161900000Y-112810000D01*
X162800000Y-112110000D02*
X162800000Y-113510000D01*
X142400000Y-115100000D02*
X142400000Y-116500000D01*
X142400000Y-115800000D02*
X143300000Y-115100000D01*
X143300000Y-116500000D02*
X142400000Y-115800000D01*
X143300000Y-115100000D02*
X143300000Y-116500000D01*
X123400000Y-117300000D02*
X123400000Y-118700000D01*
X123400000Y-118000000D02*
X124300000Y-117300000D01*
X124300000Y-118700000D02*
X123400000Y-118000000D01*
X124300000Y-117300000D02*
X124300000Y-118700000D01*
X110156218Y-118516987D02*
X108943782Y-119216987D01*
X109550000Y-118866987D02*
X110606218Y-119296410D01*
X109393782Y-119996410D02*
X109550000Y-118866987D01*
X110606218Y-119296410D02*
X109393782Y-119996410D01*
X106200000Y-98310000D02*
X106200000Y-99710000D01*
X106200000Y-99010000D02*
X107100000Y-98310000D01*
X107100000Y-99710000D02*
X106200000Y-99010000D01*
X107100000Y-98310000D02*
X107100000Y-99710000D01*
X221200000Y-105300000D02*
X221200000Y-106700000D01*
X221200000Y-106000000D02*
X222100000Y-105300000D01*
X222100000Y-106700000D02*
X221200000Y-106000000D01*
X222100000Y-105300000D02*
X222100000Y-106700000D01*
X189700000Y-105300000D02*
X189700000Y-106700000D01*
X189700000Y-106000000D02*
X190600000Y-105300000D01*
X190600000Y-106700000D02*
X189700000Y-106000000D01*
X190600000Y-105300000D02*
X190600000Y-106700000D01*
X171000000Y-96100000D02*
X171000000Y-97500000D01*
X171000000Y-96800000D02*
X171900000Y-96100000D01*
X171900000Y-97500000D02*
X171000000Y-96800000D01*
X171900000Y-96100000D02*
X171900000Y-97500000D01*
X152000000Y-93800000D02*
X152000000Y-95200000D01*
X152000000Y-94500000D02*
X152900000Y-93800000D01*
X152900000Y-95200000D02*
X152000000Y-94500000D01*
X152900000Y-93800000D02*
X152900000Y-95200000D01*
X134800000Y-96100000D02*
X134800000Y-97500000D01*
X134800000Y-96800000D02*
X135700000Y-96100000D01*
X135700000Y-97500000D02*
X134800000Y-96800000D01*
X135700000Y-96100000D02*
X135700000Y-97500000D01*
X113900000Y-98400000D02*
X113900000Y-99800000D01*
X113900000Y-99100000D02*
X114800000Y-98400000D01*
X114800000Y-99800000D02*
X113900000Y-99100000D01*
X114800000Y-98400000D02*
X114800000Y-99800000D01*
X221100000Y-102100000D02*
X221100000Y-103500000D01*
X221100000Y-102800000D02*
X222000000Y-102100000D01*
X222000000Y-103500000D02*
X221100000Y-102800000D01*
X222000000Y-102100000D02*
X222000000Y-103500000D01*
X189700000Y-102100000D02*
X189700000Y-103500000D01*
X189700000Y-102800000D02*
X190600000Y-102100000D01*
X190600000Y-103500000D02*
X189700000Y-102800000D01*
X190600000Y-102100000D02*
X190600000Y-103500000D01*
X171000000Y-92900000D02*
X171000000Y-94300000D01*
X171000000Y-93600000D02*
X171900000Y-92900000D01*
X171900000Y-94300000D02*
X171000000Y-93600000D01*
X171900000Y-92900000D02*
X171900000Y-94300000D01*
X152000000Y-90700000D02*
X152000000Y-92100000D01*
X152000000Y-91400000D02*
X152900000Y-90700000D01*
X152900000Y-92100000D02*
X152000000Y-91400000D01*
X152900000Y-90700000D02*
X152900000Y-92100000D01*
X133800000Y-93100000D02*
X133800000Y-94500000D01*
X133800000Y-93800000D02*
X134700000Y-93100000D01*
X134700000Y-94500000D02*
X133800000Y-93800000D01*
X134700000Y-93100000D02*
X134700000Y-94500000D01*
X113900000Y-95300000D02*
X113900000Y-96700000D01*
X113900000Y-96000000D02*
X114800000Y-95300000D01*
X114800000Y-96700000D02*
X113900000Y-96000000D01*
X114800000Y-95300000D02*
X114800000Y-96700000D01*
X221400000Y-67000000D02*
X221400000Y-68400000D01*
X221400000Y-67700000D02*
X222300000Y-67000000D01*
X222300000Y-68400000D02*
X221400000Y-67700000D01*
X222300000Y-67000000D02*
X222300000Y-68400000D01*
X189900000Y-67000000D02*
X189900000Y-68400000D01*
X189900000Y-67700000D02*
X190800000Y-67000000D01*
X190800000Y-68400000D02*
X189900000Y-67700000D01*
X190800000Y-67000000D02*
X190800000Y-68400000D01*
X171000000Y-58000000D02*
X171000000Y-59400000D01*
X171000000Y-58700000D02*
X171900000Y-58000000D01*
X171900000Y-59400000D02*
X171000000Y-58700000D01*
X171900000Y-58000000D02*
X171900000Y-59400000D01*
X152000000Y-55800000D02*
X152000000Y-57200000D01*
X152000000Y-56500000D02*
X152900000Y-55800000D01*
X152900000Y-57200000D02*
X152000000Y-56500000D01*
X152900000Y-55800000D02*
X152900000Y-57200000D01*
X134800000Y-58000000D02*
X134800000Y-59400000D01*
X134800000Y-58700000D02*
X135700000Y-58000000D01*
X135700000Y-59400000D02*
X134800000Y-58700000D01*
X135700000Y-58000000D02*
X135700000Y-59400000D01*
X113900000Y-60400000D02*
X113900000Y-61800000D01*
X113900000Y-61100000D02*
X114800000Y-60400000D01*
X114800000Y-61800000D02*
X113900000Y-61100000D01*
X114800000Y-60400000D02*
X114800000Y-61800000D01*
X221400000Y-63900000D02*
X221400000Y-65300000D01*
X221400000Y-64600000D02*
X222300000Y-63900000D01*
X222300000Y-65300000D02*
X221400000Y-64600000D01*
X222300000Y-63900000D02*
X222300000Y-65300000D01*
X189900000Y-64100000D02*
X189900000Y-65500000D01*
X189900000Y-64800000D02*
X190800000Y-64100000D01*
X190800000Y-65500000D02*
X189900000Y-64800000D01*
X190800000Y-64100000D02*
X190800000Y-65500000D01*
X171000000Y-54900000D02*
X171000000Y-56300000D01*
X171000000Y-55600000D02*
X171900000Y-54900000D01*
X171900000Y-56300000D02*
X171000000Y-55600000D01*
X171900000Y-54900000D02*
X171900000Y-56300000D01*
X151900000Y-52600000D02*
X151900000Y-54000000D01*
X151900000Y-53300000D02*
X152800000Y-52600000D01*
X152800000Y-54000000D02*
X151900000Y-53300000D01*
X152800000Y-52600000D02*
X152800000Y-54000000D01*
X133800000Y-55000000D02*
X133800000Y-56400000D01*
X133800000Y-55700000D02*
X134700000Y-55000000D01*
X134700000Y-56400000D02*
X133800000Y-55700000D01*
X134700000Y-55000000D02*
X134700000Y-56400000D01*
X113900000Y-57300000D02*
X113900000Y-58700000D01*
X113900000Y-58000000D02*
X114800000Y-57300000D01*
X114800000Y-58700000D02*
X113900000Y-58000000D01*
X114800000Y-57300000D02*
X114800000Y-58700000D01*
X180100000Y-114610000D02*
X180100000Y-116010000D01*
X180100000Y-115310000D02*
X181000000Y-114610000D01*
X181000000Y-116010000D02*
X180100000Y-115310000D01*
X181000000Y-114610000D02*
X181000000Y-116010000D01*
D13*
X99275000Y-59110000D02*
X102075000Y-59110000D01*
X102075000Y-59110000D02*
X102075000Y-61110000D01*
X102075000Y-61110000D02*
X99275000Y-61110000D01*
X99275000Y-61110000D02*
X99275000Y-59110000D01*
X102100000Y-63810000D02*
X99300000Y-63810000D01*
X99300000Y-63810000D02*
X99300000Y-61810000D01*
X99300000Y-61810000D02*
X102100000Y-61810000D01*
X102100000Y-61810000D02*
X102100000Y-63810000D01*
D10*
X95030000Y-75680000D02*
X95030000Y-73140000D01*
X105190000Y-73140000D02*
X105190000Y-75680000D01*
X95030000Y-73140000D02*
X105190000Y-73140000D01*
X95030000Y-75680000D02*
X105190000Y-75680000D01*
X97189000Y-70843000D02*
X95411000Y-70843000D01*
X97189000Y-68557000D02*
X97189000Y-70843000D01*
X95411000Y-68557000D02*
X97189000Y-68557000D01*
X95411000Y-70843000D02*
X95411000Y-68557000D01*
X99689000Y-70843000D02*
X97911000Y-70843000D01*
X99689000Y-68557000D02*
X99689000Y-70843000D01*
X97911000Y-68557000D02*
X99689000Y-68557000D01*
X97911000Y-70843000D02*
X97911000Y-68557000D01*
X102189000Y-70843000D02*
X100411000Y-70843000D01*
X102189000Y-68557000D02*
X102189000Y-70843000D01*
X100411000Y-68557000D02*
X102189000Y-68557000D01*
X100411000Y-70843000D02*
X100411000Y-68557000D01*
X104789000Y-70843000D02*
X103011000Y-70843000D01*
X104789000Y-68557000D02*
X104789000Y-70843000D01*
X103011000Y-68557000D02*
X104789000Y-68557000D01*
X103011000Y-70843000D02*
X103011000Y-68557000D01*
D13*
X98700000Y-106500000D02*
X99700000Y-106500000D01*
X99200000Y-106000000D02*
X99200000Y-107000000D01*
X105300000Y-110000000D02*
X105300000Y-112400000D01*
X105300000Y-105200000D02*
X105300000Y-107800000D01*
X105300000Y-100600000D02*
X105300000Y-103000000D01*
X93100000Y-100600000D02*
X93100000Y-112400000D01*
X97200000Y-100600000D02*
X93100000Y-100600000D01*
X97200000Y-112400000D02*
X93100000Y-112400000D01*
X105300000Y-112400000D02*
X101200000Y-112400000D01*
X101200000Y-100600000D02*
X105300000Y-100600000D01*
X102200000Y-106500000D02*
G75*
G03X102200000Y-106500000I-3000000J0D01*
G01*
D10*
X119300000Y-77810000D02*
X117500000Y-77810000D01*
X117500000Y-79610000D02*
X117500000Y-77810000D01*
X119300000Y-79610000D02*
X117500000Y-79610000D01*
X121900000Y-77810000D02*
X120100000Y-77810000D01*
X121900000Y-79610000D02*
X120100000Y-79610000D01*
X120100000Y-79610000D02*
X120100000Y-77810000D01*
X121900000Y-77810000D02*
X121900000Y-79610000D01*
X122600000Y-77810000D02*
X124400000Y-77810000D01*
X122600000Y-79610000D02*
X122600000Y-77810000D01*
X124400000Y-79610000D02*
X122600000Y-79610000D01*
X124400000Y-77810000D02*
X124400000Y-79610000D01*
X119300000Y-77810000D02*
X119300000Y-79610000D01*
X91918095Y-76640095D02*
X92299047Y-76373428D01*
X91918095Y-76182952D02*
X92718095Y-76182952D01*
X92718095Y-76487714D01*
X92680000Y-76563904D01*
X92641904Y-76602000D01*
X92565714Y-76640095D01*
X92451428Y-76640095D01*
X92375238Y-76602000D01*
X92337142Y-76563904D01*
X92299047Y-76487714D01*
X92299047Y-76182952D01*
X92337142Y-76982952D02*
X92337142Y-77249619D01*
X91918095Y-77363904D02*
X91918095Y-76982952D01*
X92718095Y-76982952D01*
X92718095Y-77363904D01*
X91956190Y-77668666D02*
X91918095Y-77782952D01*
X91918095Y-77973428D01*
X91956190Y-78049619D01*
X91994285Y-78087714D01*
X92070476Y-78125809D01*
X92146666Y-78125809D01*
X92222857Y-78087714D01*
X92260952Y-78049619D01*
X92299047Y-77973428D01*
X92337142Y-77821047D01*
X92375238Y-77744857D01*
X92413333Y-77706761D01*
X92489523Y-77668666D01*
X92565714Y-77668666D01*
X92641904Y-77706761D01*
X92680000Y-77744857D01*
X92718095Y-77821047D01*
X92718095Y-78011523D01*
X92680000Y-78125809D01*
X92337142Y-78468666D02*
X92337142Y-78735333D01*
X91918095Y-78849619D02*
X91918095Y-78468666D01*
X92718095Y-78468666D01*
X92718095Y-78849619D01*
X92718095Y-79078190D02*
X92718095Y-79535333D01*
X91918095Y-79306761D02*
X92718095Y-79306761D01*
X95882380Y-88013904D02*
X95882380Y-87442476D01*
X96882380Y-87728190D02*
X95882380Y-87728190D01*
X96882380Y-86537714D02*
X96406190Y-86871047D01*
X96882380Y-87109142D02*
X95882380Y-87109142D01*
X95882380Y-86728190D01*
X95930000Y-86632952D01*
X95977619Y-86585333D01*
X96072857Y-86537714D01*
X96215714Y-86537714D01*
X96310952Y-86585333D01*
X96358571Y-86632952D01*
X96406190Y-86728190D01*
X96406190Y-87109142D01*
X96882380Y-85537714D02*
X96406190Y-85871047D01*
X96882380Y-86109142D02*
X95882380Y-86109142D01*
X95882380Y-85728190D01*
X95930000Y-85632952D01*
X95977619Y-85585333D01*
X96072857Y-85537714D01*
X96215714Y-85537714D01*
X96310952Y-85585333D01*
X96358571Y-85632952D01*
X96406190Y-85728190D01*
X96406190Y-86109142D01*
X96834761Y-85156761D02*
X96882380Y-85013904D01*
X96882380Y-84775809D01*
X96834761Y-84680571D01*
X96787142Y-84632952D01*
X96691904Y-84585333D01*
X96596666Y-84585333D01*
X96501428Y-84632952D01*
X96453809Y-84680571D01*
X96406190Y-84775809D01*
X96358571Y-84966285D01*
X96310952Y-85061523D01*
X96263333Y-85109142D01*
X96168095Y-85156761D01*
X96072857Y-85156761D01*
X95977619Y-85109142D01*
X95930000Y-85061523D01*
X95882380Y-84966285D01*
X95882380Y-84728190D01*
X95930000Y-84585333D01*
X95882380Y-88013904D02*
X95882380Y-87442476D01*
X96882380Y-87728190D02*
X95882380Y-87728190D01*
X96882380Y-86537714D02*
X96406190Y-86871047D01*
X96882380Y-87109142D02*
X95882380Y-87109142D01*
X95882380Y-86728190D01*
X95930000Y-86632952D01*
X95977619Y-86585333D01*
X96072857Y-86537714D01*
X96215714Y-86537714D01*
X96310952Y-86585333D01*
X96358571Y-86632952D01*
X96406190Y-86728190D01*
X96406190Y-87109142D01*
X96882380Y-85537714D02*
X96406190Y-85871047D01*
X96882380Y-86109142D02*
X95882380Y-86109142D01*
X95882380Y-85728190D01*
X95930000Y-85632952D01*
X95977619Y-85585333D01*
X96072857Y-85537714D01*
X96215714Y-85537714D01*
X96310952Y-85585333D01*
X96358571Y-85632952D01*
X96406190Y-85728190D01*
X96406190Y-86109142D01*
X96834761Y-85156761D02*
X96882380Y-85013904D01*
X96882380Y-84775809D01*
X96834761Y-84680571D01*
X96787142Y-84632952D01*
X96691904Y-84585333D01*
X96596666Y-84585333D01*
X96501428Y-84632952D01*
X96453809Y-84680571D01*
X96406190Y-84775809D01*
X96358571Y-84966285D01*
X96310952Y-85061523D01*
X96263333Y-85109142D01*
X96168095Y-85156761D01*
X96072857Y-85156761D01*
X95977619Y-85109142D01*
X95930000Y-85061523D01*
X95882380Y-84966285D01*
X95882380Y-84728190D01*
X95930000Y-84585333D01*
X105199786Y-48113809D02*
X105314072Y-48151904D01*
X105504548Y-48151904D01*
X105580739Y-48113809D01*
X105618834Y-48075714D01*
X105656929Y-47999523D01*
X105656929Y-47923333D01*
X105618834Y-47847142D01*
X105580739Y-47809047D01*
X105504548Y-47770952D01*
X105352167Y-47732857D01*
X105275977Y-47694761D01*
X105237881Y-47656666D01*
X105199786Y-47580476D01*
X105199786Y-47504285D01*
X105237881Y-47428095D01*
X105275977Y-47390000D01*
X105352167Y-47351904D01*
X105542643Y-47351904D01*
X105656929Y-47390000D01*
X105885500Y-47351904D02*
X106342643Y-47351904D01*
X106114072Y-48151904D02*
X106114072Y-47351904D01*
X93929476Y-47420000D02*
X93853285Y-47381904D01*
X93739000Y-47381904D01*
X93624714Y-47420000D01*
X93548523Y-47496190D01*
X93510428Y-47572380D01*
X93472333Y-47724761D01*
X93472333Y-47839047D01*
X93510428Y-47991428D01*
X93548523Y-48067619D01*
X93624714Y-48143809D01*
X93739000Y-48181904D01*
X93815190Y-48181904D01*
X93929476Y-48143809D01*
X93967571Y-48105714D01*
X93967571Y-47839047D01*
X93815190Y-47839047D01*
X94310428Y-48181904D02*
X94310428Y-47381904D01*
X94767571Y-48181904D01*
X94767571Y-47381904D01*
X95148523Y-48181904D02*
X95148523Y-47381904D01*
X95339000Y-47381904D01*
X95453285Y-47420000D01*
X95529476Y-47496190D01*
X95567571Y-47572380D01*
X95605666Y-47724761D01*
X95605666Y-47839047D01*
X95567571Y-47991428D01*
X95529476Y-48067619D01*
X95453285Y-48143809D01*
X95339000Y-48181904D01*
X95148523Y-48181904D01*
X105137190Y-68082857D02*
X105251476Y-68120952D01*
X105289571Y-68159047D01*
X105327666Y-68235238D01*
X105327666Y-68349523D01*
X105289571Y-68425714D01*
X105251476Y-68463809D01*
X105175285Y-68501904D01*
X104870523Y-68501904D01*
X104870523Y-67701904D01*
X105137190Y-67701904D01*
X105213380Y-67740000D01*
X105251476Y-67778095D01*
X105289571Y-67854285D01*
X105289571Y-67930476D01*
X105251476Y-68006666D01*
X105213380Y-68044761D01*
X105137190Y-68082857D01*
X104870523Y-68082857D01*
X105632428Y-67778095D02*
X105670523Y-67740000D01*
X105746714Y-67701904D01*
X105937190Y-67701904D01*
X106013380Y-67740000D01*
X106051476Y-67778095D01*
X106089571Y-67854285D01*
X106089571Y-67930476D01*
X106051476Y-68044761D01*
X105594333Y-68501904D01*
X106089571Y-68501904D01*
X105194333Y-60462857D02*
X104927666Y-60462857D01*
X104927666Y-60881904D02*
X104927666Y-60081904D01*
X105308619Y-60081904D01*
X105537190Y-60081904D02*
X106070523Y-60081904D01*
X105727666Y-60881904D01*
X105194333Y-57922857D02*
X104927666Y-57922857D01*
X104927666Y-58341904D02*
X104927666Y-57541904D01*
X105308619Y-57541904D01*
X105956238Y-57541904D02*
X105803857Y-57541904D01*
X105727666Y-57580000D01*
X105689571Y-57618095D01*
X105613380Y-57732380D01*
X105575285Y-57884761D01*
X105575285Y-58189523D01*
X105613380Y-58265714D01*
X105651476Y-58303809D01*
X105727666Y-58341904D01*
X105880047Y-58341904D01*
X105956238Y-58303809D01*
X105994333Y-58265714D01*
X106032428Y-58189523D01*
X106032428Y-57999047D01*
X105994333Y-57922857D01*
X105956238Y-57884761D01*
X105880047Y-57846666D01*
X105727666Y-57846666D01*
X105651476Y-57884761D01*
X105613380Y-57922857D01*
X105575285Y-57999047D01*
X105194333Y-55382857D02*
X104927666Y-55382857D01*
X104927666Y-55801904D02*
X104927666Y-55001904D01*
X105308619Y-55001904D01*
X105994333Y-55001904D02*
X105613380Y-55001904D01*
X105575285Y-55382857D01*
X105613380Y-55344761D01*
X105689571Y-55306666D01*
X105880047Y-55306666D01*
X105956238Y-55344761D01*
X105994333Y-55382857D01*
X106032428Y-55459047D01*
X106032428Y-55649523D01*
X105994333Y-55725714D01*
X105956238Y-55763809D01*
X105880047Y-55801904D01*
X105689571Y-55801904D01*
X105613380Y-55763809D01*
X105575285Y-55725714D01*
X105199786Y-48113809D02*
X105314072Y-48151904D01*
X105504548Y-48151904D01*
X105580739Y-48113809D01*
X105618834Y-48075714D01*
X105656929Y-47999523D01*
X105656929Y-47923333D01*
X105618834Y-47847142D01*
X105580739Y-47809047D01*
X105504548Y-47770952D01*
X105352167Y-47732857D01*
X105275977Y-47694761D01*
X105237881Y-47656666D01*
X105199786Y-47580476D01*
X105199786Y-47504285D01*
X105237881Y-47428095D01*
X105275977Y-47390000D01*
X105352167Y-47351904D01*
X105542643Y-47351904D01*
X105656929Y-47390000D01*
X105885500Y-47351904D02*
X106342643Y-47351904D01*
X106114072Y-48151904D02*
X106114072Y-47351904D01*
X104851476Y-44880000D02*
X104775285Y-44841904D01*
X104661000Y-44841904D01*
X104546714Y-44880000D01*
X104470523Y-44956190D01*
X104432428Y-45032380D01*
X104394333Y-45184761D01*
X104394333Y-45299047D01*
X104432428Y-45451428D01*
X104470523Y-45527619D01*
X104546714Y-45603809D01*
X104661000Y-45641904D01*
X104737190Y-45641904D01*
X104851476Y-45603809D01*
X104889571Y-45565714D01*
X104889571Y-45299047D01*
X104737190Y-45299047D01*
X105232428Y-45641904D02*
X105232428Y-44841904D01*
X105689571Y-45641904D01*
X105689571Y-44841904D01*
X106070523Y-45641904D02*
X106070523Y-44841904D01*
X106261000Y-44841904D01*
X106375285Y-44880000D01*
X106451476Y-44956190D01*
X106489571Y-45032380D01*
X106527666Y-45184761D01*
X106527666Y-45299047D01*
X106489571Y-45451428D01*
X106451476Y-45527619D01*
X106375285Y-45603809D01*
X106261000Y-45641904D01*
X106070523Y-45641904D01*
X105194333Y-55382857D02*
X104927666Y-55382857D01*
X104927666Y-55801904D02*
X104927666Y-55001904D01*
X105308619Y-55001904D01*
X105994333Y-55001904D02*
X105613380Y-55001904D01*
X105575285Y-55382857D01*
X105613380Y-55344761D01*
X105689571Y-55306666D01*
X105880047Y-55306666D01*
X105956238Y-55344761D01*
X105994333Y-55382857D01*
X106032428Y-55459047D01*
X106032428Y-55649523D01*
X105994333Y-55725714D01*
X105956238Y-55763809D01*
X105880047Y-55801904D01*
X105689571Y-55801904D01*
X105613380Y-55763809D01*
X105575285Y-55725714D01*
X105194333Y-57922857D02*
X104927666Y-57922857D01*
X104927666Y-58341904D02*
X104927666Y-57541904D01*
X105308619Y-57541904D01*
X105956238Y-57541904D02*
X105803857Y-57541904D01*
X105727666Y-57580000D01*
X105689571Y-57618095D01*
X105613380Y-57732380D01*
X105575285Y-57884761D01*
X105575285Y-58189523D01*
X105613380Y-58265714D01*
X105651476Y-58303809D01*
X105727666Y-58341904D01*
X105880047Y-58341904D01*
X105956238Y-58303809D01*
X105994333Y-58265714D01*
X106032428Y-58189523D01*
X106032428Y-57999047D01*
X105994333Y-57922857D01*
X105956238Y-57884761D01*
X105880047Y-57846666D01*
X105727666Y-57846666D01*
X105651476Y-57884761D01*
X105613380Y-57922857D01*
X105575285Y-57999047D01*
X105194333Y-60462857D02*
X104927666Y-60462857D01*
X104927666Y-60881904D02*
X104927666Y-60081904D01*
X105308619Y-60081904D01*
X105537190Y-60081904D02*
X106070523Y-60081904D01*
X105727666Y-60881904D01*
X105137190Y-68082857D02*
X105251476Y-68120952D01*
X105289571Y-68159047D01*
X105327666Y-68235238D01*
X105327666Y-68349523D01*
X105289571Y-68425714D01*
X105251476Y-68463809D01*
X105175285Y-68501904D01*
X104870523Y-68501904D01*
X104870523Y-67701904D01*
X105137190Y-67701904D01*
X105213380Y-67740000D01*
X105251476Y-67778095D01*
X105289571Y-67854285D01*
X105289571Y-67930476D01*
X105251476Y-68006666D01*
X105213380Y-68044761D01*
X105137190Y-68082857D01*
X104870523Y-68082857D01*
X105632428Y-67778095D02*
X105670523Y-67740000D01*
X105746714Y-67701904D01*
X105937190Y-67701904D01*
X106013380Y-67740000D01*
X106051476Y-67778095D01*
X106089571Y-67854285D01*
X106089571Y-67930476D01*
X106051476Y-68044761D01*
X105594333Y-68501904D01*
X106089571Y-68501904D01*
X102436904Y-61157619D02*
X103008333Y-61157619D01*
X103122619Y-61195714D01*
X103198809Y-61271904D01*
X103236904Y-61386190D01*
X103236904Y-61462380D01*
X103236904Y-60776666D02*
X102436904Y-60776666D01*
X102436904Y-60471904D01*
X102475000Y-60395714D01*
X102513095Y-60357619D01*
X102589285Y-60319523D01*
X102703571Y-60319523D01*
X102779761Y-60357619D01*
X102817857Y-60395714D01*
X102855952Y-60471904D01*
X102855952Y-60776666D01*
X103236904Y-59557619D02*
X103236904Y-60014761D01*
X103236904Y-59786190D02*
X102436904Y-59786190D01*
X102551190Y-59862380D01*
X102627380Y-59938571D01*
X102665476Y-60014761D01*
X102436904Y-59062380D02*
X102436904Y-58986190D01*
X102475000Y-58910000D01*
X102513095Y-58871904D01*
X102589285Y-58833809D01*
X102741666Y-58795714D01*
X102932142Y-58795714D01*
X103084523Y-58833809D01*
X103160714Y-58871904D01*
X103198809Y-58910000D01*
X103236904Y-58986190D01*
X103236904Y-59062380D01*
X103198809Y-59138571D01*
X103160714Y-59176666D01*
X103084523Y-59214761D01*
X102932142Y-59252857D01*
X102741666Y-59252857D01*
X102589285Y-59214761D01*
X102513095Y-59176666D01*
X102475000Y-59138571D01*
X102436904Y-59062380D01*
X102461904Y-63476666D02*
X103033333Y-63476666D01*
X103147619Y-63514761D01*
X103223809Y-63590952D01*
X103261904Y-63705238D01*
X103261904Y-63781428D01*
X103261904Y-63095714D02*
X102461904Y-63095714D01*
X102461904Y-62790952D01*
X102500000Y-62714761D01*
X102538095Y-62676666D01*
X102614285Y-62638571D01*
X102728571Y-62638571D01*
X102804761Y-62676666D01*
X102842857Y-62714761D01*
X102880952Y-62790952D01*
X102880952Y-63095714D01*
X103261904Y-62257619D02*
X103261904Y-62105238D01*
X103223809Y-62029047D01*
X103185714Y-61990952D01*
X103071428Y-61914761D01*
X102919047Y-61876666D01*
X102614285Y-61876666D01*
X102538095Y-61914761D01*
X102500000Y-61952857D01*
X102461904Y-62029047D01*
X102461904Y-62181428D01*
X102500000Y-62257619D01*
X102538095Y-62295714D01*
X102614285Y-62333809D01*
X102804761Y-62333809D01*
X102880952Y-62295714D01*
X102919047Y-62257619D01*
X102957142Y-62181428D01*
X102957142Y-62029047D01*
X102919047Y-61952857D01*
X102880952Y-61914761D01*
X102804761Y-61876666D01*
X118000000Y-77219523D02*
X117961904Y-77295714D01*
X117961904Y-77410000D01*
X118000000Y-77524285D01*
X118076190Y-77600476D01*
X118152380Y-77638571D01*
X118304761Y-77676666D01*
X118419047Y-77676666D01*
X118571428Y-77638571D01*
X118647619Y-77600476D01*
X118723809Y-77524285D01*
X118761904Y-77410000D01*
X118761904Y-77333809D01*
X118723809Y-77219523D01*
X118685714Y-77181428D01*
X118419047Y-77181428D01*
X118419047Y-77333809D01*
X118761904Y-76838571D02*
X117961904Y-76838571D01*
X118761904Y-76381428D01*
X117961904Y-76381428D01*
X118761904Y-76000476D02*
X117961904Y-76000476D01*
X117961904Y-75810000D01*
X118000000Y-75695714D01*
X118076190Y-75619523D01*
X118152380Y-75581428D01*
X118304761Y-75543333D01*
X118419047Y-75543333D01*
X118571428Y-75581428D01*
X118647619Y-75619523D01*
X118723809Y-75695714D01*
X118761904Y-75810000D01*
X118761904Y-76000476D01*
X118000000Y-77219523D02*
X117961904Y-77295714D01*
X117961904Y-77410000D01*
X118000000Y-77524285D01*
X118076190Y-77600476D01*
X118152380Y-77638571D01*
X118304761Y-77676666D01*
X118419047Y-77676666D01*
X118571428Y-77638571D01*
X118647619Y-77600476D01*
X118723809Y-77524285D01*
X118761904Y-77410000D01*
X118761904Y-77333809D01*
X118723809Y-77219523D01*
X118685714Y-77181428D01*
X118419047Y-77181428D01*
X118419047Y-77333809D01*
X118761904Y-76838571D02*
X117961904Y-76838571D01*
X118761904Y-76381428D01*
X117961904Y-76381428D01*
X118761904Y-76000476D02*
X117961904Y-76000476D01*
X117961904Y-75810000D01*
X118000000Y-75695714D01*
X118076190Y-75619523D01*
X118152380Y-75581428D01*
X118304761Y-75543333D01*
X118419047Y-75543333D01*
X118571428Y-75581428D01*
X118647619Y-75619523D01*
X118723809Y-75695714D01*
X118761904Y-75810000D01*
X118761904Y-76000476D01*
M02*
