M48
; DRILL file {KiCad 5.1.5-52549c5~86~ubuntu19.10.1} date Út 5. května 2020, 19:45:21 CEST
; FORMAT={-:-/ absolute / metric / decimal}
; #@! TF.CreationDate,2020-05-05T19:45:21+02:00
; #@! TF.GenerationSoftware,Kicad,Pcbnew,5.1.5-52549c5~86~ubuntu19.10.1
FMAT,2
METRIC
T1C0.300
T2C0.400
T3C0.813
T4C1.000
T5C1.092
T6C1.300
T7C1.500
T8C2.200
T9C4.100
T10C1.200
T11C1.700
T12C3.000
T13C4.000
%
G90
G05
T1
X95.0Y-63.06
X95.13Y-55.352
X95.8Y-65.51
X96.229Y-53.981
X96.3Y-68.2
X96.8Y-123.71
X97.2Y-54.01
X97.324Y-61.136
X97.8Y-120.01
X98.2Y-62.51
X98.93Y-65.452
X99.18Y-55.702
X99.45Y-121.66
X99.655Y-77.427
X99.989Y-69.317
X101.03Y-45.902
X101.08Y-42.752
X101.4Y-61.51
X101.43Y-55.752
X101.63Y-65.452
X102.6Y-69.2
X102.7Y-60.11
X102.7Y-68.3
X103.279Y-76.751
X103.78Y-55.752
X103.83Y-62.252
X103.93Y-58.352
X104.2Y-53.51
X104.3Y-51.21
X105.2Y-138.51
X105.4Y-124.91
X105.85Y-117.11
X105.95Y-114.86
X106.35Y-127.21
X107.6Y-75.71
X107.8Y-126.91
X108.05Y-81.06
X109.45Y-112.21
X111.8Y-112.26
X112.3Y-64.1
X112.3Y-83.0
X112.4Y-44.9
X112.4Y-102.0
X112.5Y-76.41
X112.6Y-53.01
X113.4Y-119.16
X113.5Y-114.96
X114.65Y-53.06
X115.83Y-71.052
X115.95Y-120.21
X119.05Y-72.21
X119.5Y-119.16
X119.8Y-112.36
X120.85Y-115.46
X123.5Y-120.41
X124.25Y-112.36
X128.6Y-102.0
X128.7Y-64.0
X128.7Y-83.0
X128.85Y-118.41
X129.0Y-44.91
X129.0Y-115.06
X129.8Y-51.56
X131.0Y-80.51
X131.0Y-118.71
X131.1Y-42.41
X131.1Y-100.01
X131.2Y-62.11
X131.2Y-75.01
X132.05Y-51.46
X133.7Y-71.06
X147.5Y-61.6
X147.6Y-42.5
X147.6Y-99.7
X147.8Y-71.01
X147.8Y-80.6
X147.9Y-118.71
X148.3Y-115.91
X148.65Y-50.11
X148.7Y-108.76
X149.0Y-113.96
X150.0Y-39.91
X150.0Y-58.91
X150.0Y-74.46
X150.0Y-78.11
X150.0Y-116.11
X150.1Y-97.11
X150.3Y-50.06
X151.55Y-108.81
X151.65Y-71.01
X166.3Y-114.21
X166.5Y-108.46
X166.9Y-39.91
X166.9Y-59.01
X166.9Y-78.11
X166.9Y-97.01
X167.0Y-116.11
X168.2Y-112.56
X168.45Y-70.96
X168.45Y-109.66
X169.0Y-118.61
X169.1Y-116.56
X169.4Y-42.5
X169.4Y-99.7
X169.5Y-61.5
X169.5Y-73.71
X169.5Y-80.6
X169.75Y-50.51
X170.9Y-70.96
X171.7Y-50.56
X184.85Y-111.91
X185.6Y-61.5
X185.6Y-99.7
X185.9Y-80.6
X185.9Y-96.61
X186.0Y-42.41
X186.0Y-118.61
X186.55Y-113.91
X186.65Y-58.06
X186.65Y-76.11
X187.1Y-86.61
X188.0Y-51.41
X188.0Y-70.31
X188.0Y-78.11
X188.0Y-89.51
X188.0Y-108.51
X188.35Y-58.06
X188.75Y-96.61
X189.2Y-117.81
X189.25Y-76.26
X189.45Y-86.61
X204.9Y-70.31
X204.9Y-89.51
X205.0Y-51.41
X205.0Y-108.51
X205.85Y-82.21
X207.0Y-51.41
X207.0Y-70.31
X207.0Y-77.81
X207.0Y-89.41
X207.1Y-108.51
X207.65Y-59.81
X208.2Y-82.16
X209.85Y-59.81
X222.7Y-97.56
X224.0Y-51.41
X224.0Y-70.31
X224.0Y-89.51
X224.0Y-108.51
T2
X150.8Y-56.5
X154.2Y-56.5
X108.95Y-117.828
X110.65Y-120.772
X112.7Y-58.0
X116.1Y-58.0
X112.7Y-96.0
X116.1Y-96.0
X132.6Y-55.7
X136.0Y-55.7
X133.6Y-96.8
X137.0Y-96.8
X133.6Y-58.7
X137.0Y-58.7
X188.5Y-106.0
X191.9Y-106.0
X150.7Y-53.3
X154.1Y-53.3
X112.7Y-99.1
X116.1Y-99.1
X112.7Y-61.1
X116.1Y-61.1
X169.8Y-96.8
X173.2Y-96.8
X105.0Y-99.01
X108.4Y-99.01
X169.8Y-93.6
X173.2Y-93.6
X220.2Y-67.7
X223.6Y-67.7
X141.2Y-115.8
X144.6Y-115.8
X220.0Y-106.0
X223.4Y-106.0
X150.8Y-94.5
X154.2Y-94.5
X160.7Y-112.81
X164.1Y-112.81
X219.9Y-102.8
X223.3Y-102.8
X220.2Y-64.6
X223.6Y-64.6
X150.8Y-91.4
X154.2Y-91.4
X188.7Y-67.7
X192.1Y-67.7
X188.5Y-102.8
X191.9Y-102.8
X178.9Y-115.31
X182.3Y-115.31
X169.8Y-58.7
X173.2Y-58.7
X188.7Y-64.8
X192.1Y-64.8
X122.2Y-118.0
X125.6Y-118.0
X132.6Y-93.8
X136.0Y-93.8
X99.0Y-50.61
X99.0Y-53.41
X169.8Y-55.6
X173.2Y-55.6
X102.2Y-50.61
X102.2Y-53.41
T3
X96.3Y-74.41
X98.84Y-74.41
X101.38Y-74.41
X103.92Y-74.41
T4
X118.4Y-78.71
X121.0Y-78.71
X123.5Y-78.71
X91.7Y-104.0
X91.7Y-106.5
X91.7Y-109.0
X106.2Y-104.0
X106.2Y-109.0
T5
X92.151Y-42.74
X92.151Y-47.82
X92.151Y-52.9
X92.151Y-57.98
X92.151Y-63.06
X92.151Y-68.14
X92.609Y-45.28
X92.609Y-50.36
X92.609Y-55.44
X92.609Y-60.52
X92.609Y-65.6
X92.609Y-70.68
X107.391Y-45.28
X107.391Y-50.36
X107.391Y-55.44
X107.391Y-60.52
X107.391Y-65.6
X107.391Y-70.68
X107.849Y-42.74
X107.849Y-47.82
X107.849Y-52.9
X107.849Y-57.98
X107.849Y-63.06
X107.849Y-68.14
T6
X92.28Y-74.552
X92.28Y-81.052
T8
X105.13Y-93.336
X95.13Y-93.352
T9
X129.3Y-97.51
X205.8Y-66.21
X205.8Y-104.51
X129.3Y-59.6
X103.8Y-120.81
T10
X91.48Y-85.502
X91.48Y-87.252
X98.48Y-85.502
X98.48Y-87.252
T11
X191.42Y-113.6
X201.58Y-113.6
X191.42Y-56.5
X201.58Y-56.5
X134.42Y-123.8
X144.58Y-123.8
X115.42Y-69.1
X125.58Y-69.1
X210.42Y-75.4
X220.58Y-75.4
X191.42Y-94.6
X201.58Y-94.6
X172.42Y-85.6
X182.58Y-85.6
X134.42Y-85.6
X144.58Y-85.6
X210.42Y-56.5
X220.58Y-56.5
X210.47Y-113.6
X220.63Y-113.6
X115.42Y-50.0
X125.58Y-50.0
X210.42Y-94.6
X220.58Y-94.6
X115.42Y-107.1
X125.58Y-107.1
X134.42Y-66.6
X144.58Y-66.6
X112.924Y-130.385
X122.276Y-126.415
X191.42Y-75.4
X201.58Y-75.4
X153.42Y-102.2
X163.58Y-102.2
X134.42Y-47.5
X144.58Y-47.5
X134.42Y-104.7
X144.58Y-104.7
X172.42Y-66.5
X182.58Y-66.5
X153.42Y-121.2
X163.58Y-121.2
X153.42Y-45.01
X163.58Y-45.01
X115.42Y-88.1
X125.58Y-88.1
X153.42Y-83.2
X163.58Y-83.2
X94.16Y-129.011
X99.24Y-137.809
X172.42Y-47.5
X182.58Y-47.5
X172.42Y-104.7
X182.58Y-104.7
X153.42Y-64.1
X163.58Y-64.1
X172.42Y-123.7
X182.58Y-123.7
T12
X154.69Y-42.47
X155.96Y-39.93
X161.04Y-39.93
X162.31Y-42.47
X116.69Y-85.56
X117.96Y-83.02
X123.04Y-83.02
X124.31Y-85.56
X154.69Y-80.66
X155.96Y-78.12
X161.04Y-78.12
X162.31Y-80.66
X96.995Y-128.84
X99.829Y-128.67
X100.805Y-135.44
X102.369Y-133.07
X173.69Y-44.96
X174.96Y-42.42
X180.04Y-42.42
X181.31Y-44.96
X173.69Y-102.16
X174.96Y-99.62
X180.04Y-99.62
X181.31Y-102.16
X154.69Y-61.56
X155.96Y-59.02
X161.04Y-59.02
X162.31Y-61.56
X173.69Y-121.16
X174.96Y-118.62
X180.04Y-118.62
X181.31Y-121.16
X192.69Y-111.06
X193.96Y-108.52
X199.04Y-108.52
X200.31Y-111.06
X192.69Y-53.96
X193.96Y-51.42
X199.04Y-51.42
X200.31Y-53.96
X135.69Y-121.26
X136.96Y-118.72
X142.04Y-118.72
X143.31Y-121.26
X116.69Y-66.56
X117.96Y-64.02
X123.04Y-64.02
X124.31Y-66.56
X211.69Y-72.86
X212.96Y-70.32
X218.04Y-70.32
X219.31Y-72.86
X192.69Y-92.06
X193.96Y-89.52
X199.04Y-89.52
X200.31Y-92.06
X173.69Y-83.06
X174.96Y-80.52
X180.04Y-80.52
X181.31Y-83.06
X135.69Y-83.06
X136.96Y-80.52
X142.04Y-80.52
X143.31Y-83.06
X211.69Y-53.96
X212.96Y-51.42
X218.04Y-51.42
X219.31Y-53.96
X211.74Y-111.06
X213.01Y-108.52
X218.09Y-108.52
X219.36Y-111.06
X116.69Y-47.46
X117.96Y-44.92
X123.04Y-44.92
X124.31Y-47.46
X211.69Y-92.06
X212.96Y-89.52
X218.04Y-89.52
X219.31Y-92.06
X116.69Y-104.56
X117.96Y-102.02
X123.04Y-102.02
X124.31Y-104.56
X135.69Y-64.06
X136.96Y-61.52
X142.04Y-61.52
X143.31Y-64.06
X113.1Y-127.551
X113.277Y-124.716
X117.953Y-122.731
X120.115Y-124.573
X192.69Y-72.86
X193.96Y-70.32
X199.04Y-70.32
X200.31Y-72.86
X154.69Y-99.66
X155.96Y-97.12
X161.04Y-97.12
X162.31Y-99.66
X135.69Y-44.96
X136.96Y-42.42
X142.04Y-42.42
X143.31Y-44.96
X135.69Y-102.16
X136.96Y-99.62
X142.04Y-99.62
X143.31Y-102.16
X173.69Y-63.96
X174.96Y-61.42
X180.04Y-61.42
X181.31Y-63.96
X154.69Y-118.66
X155.96Y-116.12
X161.04Y-116.12
X162.31Y-118.66
T13
X177.5Y-123.7
X196.5Y-113.6
X196.5Y-56.5
X139.5Y-123.8
X120.5Y-69.1
X215.5Y-75.4
X196.5Y-94.6
X177.5Y-85.6
X139.5Y-85.6
X215.5Y-56.5
X215.55Y-113.6
X120.5Y-50.0
X215.5Y-94.6
X120.5Y-107.1
X139.5Y-66.6
X117.6Y-128.4
X196.5Y-75.4
X158.5Y-102.2
X139.5Y-47.5
X139.5Y-104.7
X177.5Y-66.5
X158.5Y-121.2
X158.5Y-45.01
X120.5Y-88.1
X158.5Y-83.2
X96.7Y-133.41
X177.5Y-47.5
X177.5Y-104.7
X158.5Y-64.1
T4
G00X93.03Y-83.402
M15
G01X93.53Y-83.402
M16
G05
G00X93.03Y-89.352
M15
G01X93.53Y-89.352
M16
G05
G00X96.03Y-83.402
M15
G01X96.53Y-83.402
M16
G05
G00X96.03Y-89.352
M15
G01X96.53Y-89.352
M16
G05
G00X100.03Y-83.402
M15
G01X100.53Y-83.402
M16
G05
G00X100.03Y-89.352
M15
G01X100.53Y-89.352
M16
G05
G00X101.53Y-85.152
M15
G01X102.03Y-85.152
M16
G05
G00X101.53Y-87.602
M15
G01X102.03Y-87.602
M16
G05
T7
G00X98.55Y-100.9
M15
G01X99.85Y-100.9
M16
G05
G00X98.55Y-112.1
M15
G01X99.85Y-112.1
M16
G05
T0
M30
