M48
; DRILL file {KiCad 5.1.5-52549c5~86~ubuntu19.10.1} date Pá 1. května 2020, 12:59:12 CEST
; FORMAT={-:-/ absolute / metric / decimal}
; #@! TF.CreationDate,2020-05-01T12:59:12+02:00
; #@! TF.GenerationSoftware,Kicad,Pcbnew,5.1.5-52549c5~86~ubuntu19.10.1
FMAT,2
METRIC
T1C0.300
T2C0.400
T3C0.813
T4C1.000
T5C1.092
T6C1.300
T7C1.500
T8C2.200
T9C4.100
T10C1.200
T11C1.700
T12C3.000
T13C4.000
%
G90
G05
T1
X5.27Y-22.508
X5.4Y-14.8
X6.07Y-24.958
X6.499Y-13.429
X6.57Y-27.648
X7.07Y-83.158
X7.47Y-13.458
X7.594Y-20.584
X8.07Y-79.458
X8.47Y-21.958
X9.2Y-24.9
X9.45Y-15.15
X9.72Y-81.108
X9.925Y-36.875
X10.259Y-28.765
X11.3Y-5.35
X11.35Y-2.2
X11.67Y-20.958
X11.7Y-15.2
X11.9Y-24.9
X12.87Y-28.648
X12.97Y-19.558
X12.97Y-27.748
X13.549Y-36.199
X14.05Y-15.2
X14.1Y-21.7
X14.2Y-17.8
X14.47Y-12.958
X14.57Y-10.658
X15.47Y-97.958
X15.67Y-84.358
X16.12Y-76.558
X16.22Y-74.308
X16.62Y-86.658
X17.87Y-35.158
X18.07Y-86.358
X18.32Y-40.508
X19.72Y-71.658
X22.07Y-71.708
X22.57Y-23.548
X22.57Y-42.448
X22.67Y-4.348
X22.67Y-61.448
X22.77Y-35.858
X22.87Y-12.458
X23.67Y-78.608
X23.77Y-74.408
X24.92Y-12.508
X26.1Y-30.5
X26.22Y-79.658
X29.32Y-31.658
X29.77Y-78.608
X30.07Y-71.808
X31.12Y-74.908
X33.77Y-79.858
X34.52Y-71.808
X38.87Y-61.448
X38.97Y-23.448
X38.97Y-42.448
X39.12Y-77.858
X39.27Y-4.358
X39.27Y-74.508
X40.07Y-11.008
X41.27Y-39.958
X41.27Y-78.158
X41.37Y-1.858
X41.37Y-59.458
X41.47Y-21.558
X41.47Y-34.458
X42.32Y-10.908
X43.97Y-30.508
X57.77Y-21.048
X57.87Y-1.948
X57.87Y-59.148
X58.07Y-30.458
X58.07Y-40.048
X58.17Y-78.158
X58.57Y-75.358
X58.92Y-9.558
X58.97Y-68.208
X59.27Y-73.408
X60.27Y0.642
X60.27Y-18.358
X60.27Y-33.908
X60.27Y-37.558
X60.27Y-75.558
X60.37Y-56.558
X60.57Y-9.508
X61.82Y-68.258
X61.92Y-30.458
X76.57Y-73.658
X76.77Y-67.908
X77.17Y0.642
X77.17Y-18.458
X77.17Y-37.558
X77.17Y-56.458
X77.27Y-75.558
X78.47Y-72.008
X78.72Y-30.408
X78.72Y-69.108
X79.27Y-78.058
X79.37Y-76.008
X79.67Y-1.948
X79.67Y-59.148
X79.77Y-20.948
X79.77Y-33.158
X79.77Y-40.048
X80.02Y-9.958
X81.17Y-30.408
X81.97Y-10.008
X95.12Y-71.358
X95.87Y-20.948
X95.87Y-59.148
X96.17Y-40.048
X96.17Y-56.058
X96.27Y-1.858
X96.27Y-78.058
X96.82Y-73.358
X96.92Y-17.508
X96.92Y-35.558
X97.37Y-46.058
X98.27Y-10.858
X98.27Y-29.758
X98.27Y-37.558
X98.27Y-48.958
X98.27Y-67.958
X98.62Y-17.508
X99.02Y-56.058
X99.47Y-77.258
X99.52Y-35.708
X99.72Y-46.058
X115.17Y-29.758
X115.17Y-48.958
X115.27Y-10.858
X115.27Y-67.958
X116.12Y-41.658
X117.27Y-10.858
X117.27Y-29.758
X117.27Y-37.258
X117.27Y-48.858
X117.37Y-67.958
X117.92Y-19.258
X118.47Y-41.608
X120.12Y-19.258
X132.97Y-57.008
X134.27Y-10.858
X134.27Y-29.758
X134.27Y-48.958
X134.27Y-67.958
T2
X98.77Y-65.448
X102.17Y-65.448
X80.07Y-53.048
X83.47Y-53.048
X51.47Y-75.248
X54.87Y-75.248
X12.47Y-10.058
X12.47Y-12.858
X80.07Y-56.248
X83.47Y-56.248
X9.27Y-10.058
X9.27Y-12.858
X61.07Y-53.948
X64.47Y-53.948
X43.87Y-18.148
X47.27Y-18.148
X15.27Y-58.458
X18.67Y-58.458
X61.07Y-15.948
X64.47Y-15.948
X130.47Y-24.048
X133.87Y-24.048
X19.22Y-77.276
X20.92Y-80.22
X42.87Y-53.248
X46.27Y-53.248
X80.07Y-15.048
X83.47Y-15.048
X60.97Y-12.748
X64.37Y-12.748
X32.47Y-77.448
X35.87Y-77.448
X70.97Y-72.258
X74.37Y-72.258
X80.07Y-18.148
X83.47Y-18.148
X22.97Y-17.448
X26.37Y-17.448
X43.87Y-56.248
X47.27Y-56.248
X98.97Y-24.248
X102.37Y-24.248
X22.97Y-20.548
X26.37Y-20.548
X61.07Y-50.848
X64.47Y-50.848
X89.17Y-74.758
X92.57Y-74.758
X130.27Y-65.448
X133.67Y-65.448
X22.97Y-55.448
X26.37Y-55.448
X42.87Y-15.148
X46.27Y-15.148
X98.77Y-62.248
X102.17Y-62.248
X130.17Y-62.248
X133.57Y-62.248
X98.97Y-27.148
X102.37Y-27.148
X22.97Y-58.548
X26.37Y-58.548
X130.47Y-27.148
X133.87Y-27.148
T3
X6.57Y-33.858
X9.11Y-33.858
X11.65Y-33.858
X14.19Y-33.858
T4
X28.67Y-38.158
X31.27Y-38.158
X33.77Y-38.158
X1.97Y-63.448
X1.97Y-65.948
X1.97Y-68.448
X16.47Y-63.448
X16.47Y-68.448
T5
X2.421Y-2.188
X2.421Y-7.268
X2.421Y-12.348
X2.421Y-17.428
X2.421Y-22.508
X2.421Y-27.588
X2.879Y-4.728
X2.879Y-9.808
X2.879Y-14.888
X2.879Y-19.968
X2.879Y-25.048
X2.879Y-30.128
X17.661Y-4.728
X17.661Y-9.808
X17.661Y-14.888
X17.661Y-19.968
X17.661Y-25.048
X17.661Y-30.128
X18.119Y-2.188
X18.119Y-7.268
X18.119Y-12.348
X18.119Y-17.428
X18.119Y-22.508
X18.119Y-27.588
T6
X2.55Y-34.0
X2.55Y-40.5
T8
X15.4Y-52.784
X5.4Y-52.8
T9
X39.57Y-19.048
X116.07Y-25.658
X14.07Y-80.258
X39.57Y-56.958
X116.07Y-63.958
T10
X1.75Y-44.95
X1.75Y-46.7
X8.75Y-44.95
X8.75Y-46.7
T11
X101.69Y-73.048
X111.85Y-73.048
X120.69Y-34.848
X130.85Y-34.848
X63.69Y-23.548
X73.85Y-23.548
X44.69Y-6.948
X54.85Y-6.948
X25.69Y-28.548
X35.85Y-28.548
X82.69Y-25.948
X92.85Y-25.948
X82.69Y-6.948
X92.85Y-6.948
X44.69Y-26.048
X54.85Y-26.048
X63.69Y-42.648
X73.85Y-42.648
X63.69Y-80.648
X73.85Y-80.648
X25.69Y-9.448
X35.85Y-9.448
X82.69Y-45.048
X92.85Y-45.048
X82.69Y-64.148
X92.85Y-64.148
X25.69Y-47.548
X35.85Y-47.548
X4.43Y-88.459
X9.51Y-97.257
X101.69Y-34.848
X111.85Y-34.848
X25.69Y-66.548
X35.85Y-66.548
X63.69Y-4.458
X73.85Y-4.458
X63.69Y-61.648
X73.85Y-61.648
X23.194Y-89.833
X32.546Y-85.863
X44.69Y-45.048
X54.85Y-45.048
X44.69Y-83.248
X54.85Y-83.248
X120.69Y-15.948
X130.85Y-15.948
X120.74Y-73.048
X130.9Y-73.048
X82.69Y-83.148
X92.85Y-83.148
X101.69Y-15.948
X111.85Y-15.948
X101.69Y-54.048
X111.85Y-54.048
X120.69Y-54.048
X130.85Y-54.048
X44.69Y-64.148
X54.85Y-64.148
T12
X122.01Y-70.508
X123.28Y-67.968
X128.36Y-67.968
X129.63Y-70.508
X83.96Y-80.608
X85.23Y-78.068
X90.31Y-78.068
X91.58Y-80.608
X102.96Y-13.408
X104.23Y-10.868
X109.31Y-10.868
X110.58Y-13.408
X102.96Y-51.508
X104.23Y-48.968
X109.31Y-48.968
X110.58Y-51.508
X121.96Y-51.508
X123.23Y-48.968
X128.31Y-48.968
X129.58Y-51.508
X45.96Y-61.608
X47.23Y-59.068
X52.31Y-59.068
X53.58Y-61.608
X102.96Y-70.508
X104.23Y-67.968
X109.31Y-67.968
X110.58Y-70.508
X121.96Y-32.308
X123.23Y-29.768
X128.31Y-29.768
X129.58Y-32.308
X64.96Y-21.008
X66.23Y-18.468
X71.31Y-18.468
X72.58Y-21.008
X45.96Y-4.408
X47.23Y-1.868
X52.31Y-1.868
X53.58Y-4.408
X26.96Y-26.008
X28.23Y-23.468
X33.31Y-23.468
X34.58Y-26.008
X83.96Y-23.408
X85.23Y-20.868
X90.31Y-20.868
X91.58Y-23.408
X83.96Y-4.408
X85.23Y-1.868
X90.31Y-1.868
X91.58Y-4.408
X45.96Y-23.508
X47.23Y-20.968
X52.31Y-20.968
X53.58Y-23.508
X64.96Y-40.108
X66.23Y-37.568
X71.31Y-37.568
X72.58Y-40.108
X64.96Y-78.108
X66.23Y-75.568
X71.31Y-75.568
X72.58Y-78.108
X26.96Y-6.908
X28.23Y-4.368
X33.31Y-4.368
X34.58Y-6.908
X83.96Y-42.508
X85.23Y-39.968
X90.31Y-39.968
X91.58Y-42.508
X83.96Y-61.608
X85.23Y-59.068
X90.31Y-59.068
X91.58Y-61.608
X26.96Y-45.008
X28.23Y-42.468
X33.31Y-42.468
X34.58Y-45.008
X7.265Y-88.288
X10.099Y-88.118
X11.075Y-94.888
X12.639Y-92.518
X102.96Y-32.308
X104.23Y-29.768
X109.31Y-29.768
X110.58Y-32.308
X26.96Y-64.008
X28.23Y-61.468
X33.31Y-61.468
X34.58Y-64.008
X64.96Y-1.918
X66.23Y0.622
X71.31Y0.622
X72.58Y-1.918
X64.96Y-59.108
X66.23Y-56.568
X71.31Y-56.568
X72.58Y-59.108
X23.37Y-86.999
X23.547Y-84.164
X28.223Y-82.179
X30.385Y-84.021
X45.96Y-42.508
X47.23Y-39.968
X52.31Y-39.968
X53.58Y-42.508
X45.96Y-80.708
X47.23Y-78.168
X52.31Y-78.168
X53.58Y-80.708
X121.96Y-13.408
X123.23Y-10.868
X128.31Y-10.868
X129.58Y-13.408
T13
X49.77Y-45.048
X49.77Y-83.248
X125.77Y-15.948
X125.82Y-73.048
X87.77Y-83.148
X106.77Y-15.948
X106.77Y-54.048
X125.77Y-54.048
X49.77Y-64.148
X106.77Y-73.048
X125.77Y-34.848
X68.77Y-23.548
X49.77Y-6.948
X30.77Y-28.548
X87.77Y-25.948
X87.77Y-6.948
X49.77Y-26.048
X68.77Y-42.648
X68.77Y-80.648
X30.77Y-9.448
X87.77Y-45.048
X87.77Y-64.148
X30.77Y-47.548
X6.97Y-92.858
X106.77Y-34.848
X30.77Y-66.548
X68.77Y-4.458
X68.77Y-61.648
X27.87Y-87.848
T4
G00X3.3Y-42.85
M15
G01X3.8Y-42.85
M16
G05
G00X3.3Y-48.8
M15
G01X3.8Y-48.8
M16
G05
G00X6.3Y-42.85
M15
G01X6.8Y-42.85
M16
G05
G00X6.3Y-48.8
M15
G01X6.8Y-48.8
M16
G05
G00X10.3Y-42.85
M15
G01X10.8Y-42.85
M16
G05
G00X10.3Y-48.8
M15
G01X10.8Y-48.8
M16
G05
G00X11.8Y-44.6
M15
G01X12.3Y-44.6
M16
G05
G00X11.8Y-47.05
M15
G01X12.3Y-47.05
M16
G05
T7
G00X8.82Y-60.348
M15
G01X10.12Y-60.348
M16
G05
G00X8.82Y-71.548
M15
G01X10.12Y-71.548
M16
G05
T0
M30
