  0
SECTION
  2
HEADER
  9
$ACADVER
  1
AC1014
  9
$HANDSEED
  5
FFFF
  9
$MEASUREMENT
 70
     1
  0
ENDSEC
  0
SECTION
  2
TABLES
  0
TABLE
  2
VPORT
  5
8
330
0
100
AcDbSymbolTable
 70
     4
  0
VPORT
  5
2E
330
8
100
AcDbSymbolTableRecord
100
AcDbViewportTableRecord
  2
*ACTIVE
 70
     0
 10
0.0
 20
0.0
 11
1.0
 21
1.0
 12
210.0
 22
148.5
 13
0.0
 23
0.0
 14
10.0
 24
10.0
 15
10.0
 25
10.0
 16
0.0
 26
0.0
 36
1.0
 17
0.0
 27
0.0
 37
0.0
 40
341.0
 41
1.24
 42
50.0
 43
0.0
 44
0.0
 50
0.0
 51
0.0
 71
     0
 72
   100
 73
     1
 74
     3
 75
     0
 76
     0
 77
     0
 78
     0
  0
ENDTAB
  0
TABLE
  2
LTYPE
  5
5
330
0
100
AcDbSymbolTable
 70
     1
  0
LTYPE
  5
14
330
5
100
AcDbSymbolTableRecord
100
AcDbLinetypeTableRecord
  2
BYBLOCK
 70
     0
  3

 72
    65
 73
     0
 40
0.0
  0
LTYPE
  5
15
330
5
100
AcDbSymbolTableRecord
100
AcDbLinetypeTableRecord
  2
BYLAYER
 70
     0
  3

 72
    65
 73
     0
 40
0.0
  0
LTYPE
  5
16
330
5
100
AcDbSymbolTableRecord
100
AcDbLinetypeTableRecord
  2
CONTINUOUS
 70
     0
  3
Solid line
 72
    65
 73
     0
 40
0.0
  0
ENDTAB
  0
TABLE
  2
LAYER
  5
2
100
AcDbSymbolTable
 70
2
  0
LAYER
  5
50
100
AcDbSymbolTableRecord
100
AcDbLayerTableRecord
  2
0
 70
0
  6
CONTINUOUS
  0
LAYER
  5
51
100
AcDbSymbolTableRecord
100
AcDbLayerTableRecord
  2
edge3
 70
0
  6
CONTINUOUS
  0
ENDTAB
  0
TABLE
  2
STYLE
  5
3
330
0
100
AcDbSymbolTable
 70
     1
  0
STYLE
  5
11
330
3
100
AcDbSymbolTableRecord
100
AcDbTextStyleTableRecord
  2
STANDARD
 70
     0
 40
0.0
 41
1.0
 50
0.0
 71
     0
 42
2.5
  3
txt
  4

  0
ENDTAB
  0
TABLE
  2
VIEW
  5
6
330
0
100
AcDbSymbolTable
 70
     0
  0
ENDTAB
  0
TABLE
  2
UCS
  5
7
330
0
100
AcDbSymbolTable
 70
     0
  0
ENDTAB
  0
TABLE
  2
APPID
  5
9
330
0
100
AcDbSymbolTable
 70
     2
  0
APPID
  5
12
330
9
100
AcDbSymbolTableRecord
100
AcDbRegAppTableRecord
  2
ACAD
 70
     0
  0
ENDTAB
  0
TABLE
  2
DIMSTYLE
  5
A
330
0
100
AcDbSymbolTable
 70
     1
  0
DIMSTYLE
105
27
330
A
100
AcDbSymbolTableRecord
100
AcDbDimStyleTableRecord
  2
ISO-25
 70
     0
  3

  4

  5

  6

  7

 40
1.0
 41
2.5
 42
0.625
 43
3.75
 44
1.25
 45
0.0
 46
0.0
 47
0.0
 48
0.0
140
2.5
141
2.5
142
0.0
143
0.03937007874016
144
1.0
145
0.0
146
1.0
147
0.625
 71
     0
 72
     0
 73
     0
 74
     0
 75
     0
 76
     0
 77
     1
 78
     8
170
     0
171
     3
172
     1
173
     0
174
     0
175
     0
176
     0
177
     0
178
     0
270
     2
271
     2
272
     2
273
     2
274
     3
340
11
275
     0
280
     0
281
     0
282
     0
283
     0
284
     8
285
     0
286
     0
287
     3
288
     0
  0
ENDTAB
  0
TABLE
  2
BLOCK_RECORD
  5
1
330
0
100
AcDbSymbolTable
 70
     1
  0
BLOCK_RECORD
  5
1F
330
1
100
AcDbSymbolTableRecord
100
AcDbBlockTableRecord
  2
*MODEL_SPACE
  0
BLOCK_RECORD
  5
1B
330
1
100
AcDbSymbolTableRecord
100
AcDbBlockTableRecord
  2
*PAPER_SPACE
  0
ENDTAB
  0
ENDSEC
  0
SECTION
  2
BLOCKS
  0
BLOCK
  5
20
330
1F
100
AcDbEntity
  8
0
100
AcDbBlockBegin
  2
*MODEL_SPACE
 70
     0
 10
0.0
 20
0.0
 30
0.0
  3
*MODEL_SPACE
  1

  0
ENDBLK
  5
21
330
1F
100
AcDbEntity
  8
0
100
AcDbBlockEnd
  0
BLOCK
  5
1C
330
1B
100
AcDbEntity
 67
     1
  8
0
100
AcDbBlockBegin
  2
*PAPER_SPACE
  1

  0
ENDBLK
  5
1D
330
1B
100
AcDbEntity
 67
     1
  8
0
100
AcDbBlockEnd
  0
ENDSEC
  0
SECTION
  2
ENTITIES
  0
SPLINE
  5
100
100
AcDbEntity
  8
edge3
 62
7
100
AcDbSpline
 70
8
 71
3
 72
8
 73
4
 74
0
 40
0
 40
0
 40
0
 40
0
 40
1
 40
1
 40
1
 40
1
 10
158.533750
 20
-103.892665
 30
0.0
 10
158.533750
 20
-103.892665
 30
0.0
 10
139.546362
 20
-105.420268
 30
0.0
 10
139.546362
 20
-105.420268
 30
0.0
  0
SPLINE
  5
101
100
AcDbEntity
  8
edge3
 62
7
100
AcDbSpline
 70
8
 71
3
 72
8
 73
4
 74
0
 40
0
 40
0
 40
0
 40
0
 40
1
 40
1
 40
1
 40
1
 10
139.546362
 20
-105.420268
 30
0.0
 10
139.239671
 20
-105.444942
 30
0.0
 10
138.963390
 20
-105.615125
 30
0.0
 10
138.803380
 20
-105.877927
 30
0.0
  0
LWPOLYLINE
  5
102
100
AcDbEntity
  8
0
 62
7
100
AcDbPolyline
 90
1
 70
1
 10
-16.360547
 20
55.959590
 30
0.0
  0
SPLINE
  5
103
100
AcDbEntity
  8
edge3
 62
7
100
AcDbSpline
 70
8
 71
3
 72
8
 73
4
 74
0
 40
0
 40
0
 40
0
 40
0
 40
1
 40
1
 40
1
 40
1
 10
130.211005
 20
-119.990112
 30
0.0
 10
130.036793
 20
-120.276240
 30
0.0
 10
129.726029
 20
-120.450862
 30
0.0
 10
129.391038
 20
-120.450863
 30
0.0
  0
SPLINE
  5
104
100
AcDbEntity
  8
edge3
 62
7
100
AcDbSpline
 70
8
 71
3
 72
8
 73
4
 74
0
 40
0
 40
0
 40
0
 40
0
 40
1
 40
1
 40
1
 40
1
 10
129.391038
 20
-120.450863
 30
0.0
 10
129.391038
 20
-120.450863
 30
0.0
 10
112.528063
 20
-120.450863
 30
0.0
 10
112.528063
 20
-120.450863
 30
0.0
  0
SPLINE
  5
105
100
AcDbEntity
  8
edge3
 62
7
100
AcDbSpline
 70
8
 71
3
 72
8
 73
4
 74
0
 40
0
 40
0
 40
0
 40
0
 40
1
 40
1
 40
1
 40
1
 10
112.528063
 20
-120.450863
 30
0.0
 10
112.130874
 20
-120.450863
 30
0.0
 10
111.735522
 20
-120.396971
 30
0.0
 10
111.352824
 20
-120.290663
 30
0.0
  0
SPLINE
  5
106
100
AcDbEntity
  8
edge3
 62
7
100
AcDbSpline
 70
8
 71
3
 72
8
 73
4
 74
0
 40
0
 40
0
 40
0
 40
0
 40
1
 40
1
 40
1
 40
1
 10
111.352824
 20
-120.290663
 30
0.0
 10
111.352824
 20
-120.290663
 30
0.0
 10
94.039820
 20
-115.481365
 30
0.0
 10
94.039820
 20
-115.481365
 30
0.0
  0
SPLINE
  5
107
100
AcDbEntity
  8
edge3
 62
7
100
AcDbSpline
 70
8
 71
3
 72
8
 73
4
 74
0
 40
0
 40
0
 40
0
 40
0
 40
1
 40
1
 40
1
 40
1
 10
94.039820
 20
-115.481365
 30
0.0
 10
93.369325
 20
-115.295112
 30
0.0
 10
92.676658
 20
-115.200693
 30
0.0
 10
91.980774
 20
-115.200693
 30
0.0
  0
LWPOLYLINE
  5
108
100
AcDbEntity
  8
edge3
 62
7
100
AcDbPolyline
 90
2
 70
0
 10
138.803380
 20
-105.877927
 30
0.0
 10
130.211005
 20
-119.990112
 30
0.0
  0
SPLINE
  5
109
100
AcDbEntity
  8
edge3
 62
7
100
AcDbSpline
 70
8
 71
3
 72
8
 73
4
 74
0
 40
0
 40
0
 40
0
 40
0
 40
1
 40
1
 40
1
 40
1
 10
75.189772
 20
-115.200693
 30
0.0
 10
74.358377
 20
-115.200694
 30
0.0
 10
73.534628
 20
-115.359441
 30
0.0
 10
72.762774
 20
-115.668408
 30
0.0
  0
SPLINE
  5
10a
100
AcDbEntity
  8
edge3
 62
7
100
AcDbSpline
 70
8
 71
3
 72
8
 73
4
 74
0
 40
0
 40
0
 40
0
 40
0
 40
1
 40
1
 40
1
 40
1
 10
72.762774
 20
-115.668408
 30
0.0
 10
72.762774
 20
-115.668408
 30
0.0
 10
39.867465
 20
-128.836126
 30
0.0
 10
39.867465
 20
-128.836126
 30
0.0
  0
SPLINE
  5
10b
100
AcDbEntity
  8
edge3
 62
7
100
AcDbSpline
 70
8
 71
3
 72
8
 73
4
 74
0
 40
0
 40
0
 40
0
 40
0
 40
1
 40
1
 40
1
 40
1
 10
39.867465
 20
-128.836126
 30
0.0
 10
39.424229
 20
-129.013549
 30
0.0
 10
38.917969
 20
-128.838297
 30
0.0
 10
38.679287
 20
-128.424814
 30
0.0
  0
SPLINE
  5
10c
100
AcDbEntity
  8
edge3
 62
7
100
AcDbSpline
 70
8
 71
3
 72
8
 73
4
 74
0
 40
0
 40
0
 40
0
 40
0
 40
1
 40
1
 40
1
 40
1
 10
38.679287
 20
-128.424814
 30
0.0
 10
38.679287
 20
-128.424814
 30
0.0
 10
25.367544
 20
-105.364164
 30
0.0
 10
25.367544
 20
-105.364164
 30
0.0
  0
SPLINE
  5
10d
100
AcDbEntity
  8
edge3
 62
7
100
AcDbSpline
 70
8
 71
3
 72
8
 73
4
 74
0
 40
0
 40
0
 40
0
 40
0
 40
1
 40
1
 40
1
 40
1
 10
25.367544
 20
-105.364164
 30
0.0
 10
25.187436
 20
-105.052152
 30
0.0
 10
25.020627
 20
-104.732650
 30
0.0
 10
24.867566
 20
-104.406517
 30
0.0
  0
SPLINE
  5
10e
100
AcDbEntity
  8
edge3
 62
7
100
AcDbSpline
 70
8
 71
3
 72
8
 73
4
 74
0
 40
0
 40
0
 40
0
 40
0
 40
1
 40
1
 40
1
 40
1
 10
24.867566
 20
-104.406517
 30
0.0
 10
24.867566
 20
-104.406517
 30
0.0
 10
22.452187
 20
-99.259974
 30
0.0
 10
22.452187
 20
-99.259974
 30
0.0
  0
SPLINE
  5
10f
100
AcDbEntity
  8
edge3
 62
7
100
AcDbSpline
 70
8
 71
3
 72
8
 73
4
 74
0
 40
0
 40
0
 40
0
 40
0
 40
1
 40
1
 40
1
 40
1
 10
22.452187
 20
-99.259974
 30
0.0
 10
22.300549
 20
-98.936871
 30
0.0
 10
22.221306
 20
-98.584549
 30
0.0
 10
22.219999
 20
-98.227635
 30
0.0
  0
SPLINE
  5
110
100
AcDbEntity
  8
edge3
 62
7
100
AcDbSpline
 70
8
 71
3
 72
8
 73
4
 74
0
 40
0
 40
0
 40
0
 40
0
 40
1
 40
1
 40
1
 40
1
 10
22.219999
 20
-98.227635
 30
0.0
 10
22.219999
 20
-98.227635
 30
0.0
 10
21.935572
 20
-20.573897
 30
0.0
 10
21.935572
 20
-20.573897
 30
0.0
  0
SPLINE
  5
111
100
AcDbEntity
  8
edge3
 62
7
100
AcDbSpline
 70
8
 71
3
 72
8
 73
4
 74
0
 40
0
 40
0
 40
0
 40
0
 40
1
 40
1
 40
1
 40
1
 10
21.935572
 20
-20.573897
 30
0.0
 10
21.934637
 20
-20.318681
 30
0.0
 10
22.035366
 20
-20.073599
 30
0.0
 10
22.215501
 20
-19.892803
 30
0.0
  0
SPLINE
  5
112
100
AcDbEntity
  8
edge3
 62
7
100
AcDbSpline
 70
8
 71
3
 72
8
 73
4
 74
0
 40
0
 40
0
 40
0
 40
0
 40
1
 40
1
 40
1
 40
1
 10
22.215501
 20
-19.892803
 30
0.0
 10
22.395635
 20
-19.712007
 30
0.0
 10
22.640348
 20
-19.610381
 30
0.0
 10
22.895564
 20
-19.610381
 30
0.0
  0
LWPOLYLINE
  5
113
100
AcDbEntity
  8
edge3
 62
7
100
AcDbPolyline
 90
2
 70
0
 10
91.980774
 20
-115.200693
 30
0.0
 10
75.189772
 20
-115.200693
 30
0.0
  0
SPLINE
  5
114
100
AcDbEntity
  8
edge3
 62
7
100
AcDbSpline
 70
8
 71
3
 72
8
 73
4
 74
0
 40
0
 40
0
 40
0
 40
0
 40
1
 40
1
 40
1
 40
1
 10
106.899459
 20
-19.610381
 30
0.0
 10
106.899459
 20
-19.610381
 30
0.0
 10
119.329399
 20
-19.610381
 30
0.0
 10
119.329399
 20
-19.610381
 30
0.0
  0
SPLINE
  5
115
100
AcDbEntity
  8
edge3
 62
7
100
AcDbSpline
 70
8
 71
3
 72
8
 73
4
 74
0
 40
0
 40
0
 40
0
 40
0
 40
1
 40
1
 40
1
 40
1
 10
119.329399
 20
-19.610381
 30
0.0
 10
120.222690
 20
-19.610381
 30
0.0
 10
121.114534
 20
-19.682200
 30
0.0
 10
121.996313
 20
-19.825144
 30
0.0
  0
SPLINE
  5
116
100
AcDbEntity
  8
edge3
 62
7
100
AcDbSpline
 70
8
 71
3
 72
8
 73
4
 74
0
 40
0
 40
0
 40
0
 40
0
 40
1
 40
1
 40
1
 40
1
 10
121.996313
 20
-19.825144
 30
0.0
 10
121.996313
 20
-19.825144
 30
0.0
 10
158.583245
 20
-25.756177
 30
0.0
 10
158.583245
 20
-25.756177
 30
0.0
  0
SPLINE
  5
117
100
AcDbEntity
  8
edge3
 62
7
100
AcDbSpline
 70
8
 71
3
 72
8
 73
4
 74
0
 40
0
 40
0
 40
0
 40
0
 40
1
 40
1
 40
1
 40
1
 10
158.583245
 20
-25.756177
 30
0.0
 10
159.047946
 20
-25.831509
 30
0.0
 10
159.389458
 20
-26.232696
 30
0.0
 10
159.389625
 20
-26.703464
 30
0.0
  0
SPLINE
  5
118
100
AcDbEntity
  8
edge3
 62
7
100
AcDbSpline
 70
8
 71
3
 72
8
 73
4
 74
0
 40
0
 40
0
 40
0
 40
0
 40
1
 40
1
 40
1
 40
1
 10
159.389625
 20
-26.703464
 30
0.0
 10
159.389625
 20
-26.703464
 30
0.0
 10
159.416763
 20
-102.935416
 30
0.0
 10
159.416763
 20
-102.935416
 30
0.0
  0
SPLINE
  5
119
100
AcDbEntity
  8
edge3
 62
7
100
AcDbSpline
 70
8
 71
3
 72
8
 73
4
 74
0
 40
0
 40
0
 40
0
 40
0
 40
1
 40
1
 40
1
 40
1
 10
159.416763
 20
-102.935416
 30
0.0
 10
159.416941
 20
-103.435887
 30
0.0
 10
159.032609
 20
-103.852530
 30
0.0
 10
158.533750
 20
-103.892665
 30
0.0
  0
LWPOLYLINE
  5
11a
100
AcDbEntity
  8
edge3
 62
7
100
AcDbPolyline
 90
9
 70
0
 10
22.895564
 20
-19.610381
 30
0.0
 10
40.373219
 20
-19.610381
 30
0.0
 10
58.688833
 20
-19.610381
 30
0.0
 10
63.695062
 20
-19.610381
 30
0.0
 10
79.354032
 20
-19.610381
 30
0.0
 10
82.944390
 20
-19.610381
 30
0.0
 10
101.513092
 20
-19.610381
 30
0.0
 10
102.016959
 20
-19.610381
 30
0.0
 10
106.899459
 20
-19.610381
 30
0.0
  0
LWPOLYLINE
  5
11b
100
AcDbEntity
  8
edge3
 62
7
100
AcDbPolyline
 90
1
 70
1
 10
158.533750
 20
-103.892665
 30
0.0
  0
ENDSEC
  0
SECTION
  2
OBJECTS
  0
DICTIONARY
  5
C
330
0
100
AcDbDictionary
  3
ACAD_GROUP
350
D
  3
ACAD_MLINESTYLE
350
17
  0
DICTIONARY
  5
D
330
C
100
AcDbDictionary
  0
DICTIONARY
  5
1A
330
C
100
AcDbDictionary
  0
DICTIONARY
  5
17
330
C
100
AcDbDictionary
  3
STANDARD
350
18
  0
DICTIONARY
  5
19
330
C
100
AcDbDictionary
  0
ENDSEC
  0
EOF
