  0
SECTION
  2
HEADER
  9
$ACADVER
  1
AC1014
  9
$HANDSEED
  5
FFFF
  9
$MEASUREMENT
 70
     1
  0
ENDSEC
  0
SECTION
  2
TABLES
  0
TABLE
  2
VPORT
  5
8
330
0
100
AcDbSymbolTable
 70
     4
  0
VPORT
  5
2E
330
8
100
AcDbSymbolTableRecord
100
AcDbViewportTableRecord
  2
*ACTIVE
 70
     0
 10
0.0
 20
0.0
 11
1.0
 21
1.0
 12
210.0
 22
148.5
 13
0.0
 23
0.0
 14
10.0
 24
10.0
 15
10.0
 25
10.0
 16
0.0
 26
0.0
 36
1.0
 17
0.0
 27
0.0
 37
0.0
 40
341.0
 41
1.24
 42
50.0
 43
0.0
 44
0.0
 50
0.0
 51
0.0
 71
     0
 72
   100
 73
     1
 74
     3
 75
     0
 76
     0
 77
     0
 78
     0
  0
ENDTAB
  0
TABLE
  2
LTYPE
  5
5
330
0
100
AcDbSymbolTable
 70
     1
  0
LTYPE
  5
14
330
5
100
AcDbSymbolTableRecord
100
AcDbLinetypeTableRecord
  2
BYBLOCK
 70
     0
  3

 72
    65
 73
     0
 40
0.0
  0
LTYPE
  5
15
330
5
100
AcDbSymbolTableRecord
100
AcDbLinetypeTableRecord
  2
BYLAYER
 70
     0
  3

 72
    65
 73
     0
 40
0.0
  0
LTYPE
  5
16
330
5
100
AcDbSymbolTableRecord
100
AcDbLinetypeTableRecord
  2
CONTINUOUS
 70
     0
  3
Solid line
 72
    65
 73
     0
 40
0.0
  0
ENDTAB
  0
TABLE
  2
LAYER
  5
2
100
AcDbSymbolTable
 70
2
  0
LAYER
  5
50
100
AcDbSymbolTableRecord
100
AcDbLayerTableRecord
  2
0
 70
0
  6
CONTINUOUS
  0
LAYER
  5
51
100
AcDbSymbolTableRecord
100
AcDbLayerTableRecord
  2
EdgePCB
 70
0
  6
CONTINUOUS
  0
ENDTAB
  0
TABLE
  2
STYLE
  5
3
330
0
100
AcDbSymbolTable
 70
     1
  0
STYLE
  5
11
330
3
100
AcDbSymbolTableRecord
100
AcDbTextStyleTableRecord
  2
STANDARD
 70
     0
 40
0.0
 41
1.0
 50
0.0
 71
     0
 42
2.5
  3
txt
  4

  0
ENDTAB
  0
TABLE
  2
VIEW
  5
6
330
0
100
AcDbSymbolTable
 70
     0
  0
ENDTAB
  0
TABLE
  2
UCS
  5
7
330
0
100
AcDbSymbolTable
 70
     0
  0
ENDTAB
  0
TABLE
  2
APPID
  5
9
330
0
100
AcDbSymbolTable
 70
     2
  0
APPID
  5
12
330
9
100
AcDbSymbolTableRecord
100
AcDbRegAppTableRecord
  2
ACAD
 70
     0
  0
ENDTAB
  0
TABLE
  2
DIMSTYLE
  5
A
330
0
100
AcDbSymbolTable
 70
     1
  0
DIMSTYLE
105
27
330
A
100
AcDbSymbolTableRecord
100
AcDbDimStyleTableRecord
  2
ISO-25
 70
     0
  3

  4

  5

  6

  7

 40
1.0
 41
2.5
 42
0.625
 43
3.75
 44
1.25
 45
0.0
 46
0.0
 47
0.0
 48
0.0
140
2.5
141
2.5
142
0.0
143
0.03937007874016
144
1.0
145
0.0
146
1.0
147
0.625
 71
     0
 72
     0
 73
     0
 74
     0
 75
     0
 76
     0
 77
     1
 78
     8
170
     0
171
     3
172
     1
173
     0
174
     0
175
     0
176
     0
177
     0
178
     0
270
     2
271
     2
272
     2
273
     2
274
     3
340
11
275
     0
280
     0
281
     0
282
     0
283
     0
284
     8
285
     0
286
     0
287
     3
288
     0
  0
ENDTAB
  0
TABLE
  2
BLOCK_RECORD
  5
1
330
0
100
AcDbSymbolTable
 70
     1
  0
BLOCK_RECORD
  5
1F
330
1
100
AcDbSymbolTableRecord
100
AcDbBlockTableRecord
  2
*MODEL_SPACE
  0
BLOCK_RECORD
  5
1B
330
1
100
AcDbSymbolTableRecord
100
AcDbBlockTableRecord
  2
*PAPER_SPACE
  0
ENDTAB
  0
ENDSEC
  0
SECTION
  2
BLOCKS
  0
BLOCK
  5
20
330
1F
100
AcDbEntity
  8
0
100
AcDbBlockBegin
  2
*MODEL_SPACE
 70
     0
 10
0.0
 20
0.0
 30
0.0
  3
*MODEL_SPACE
  1

  0
ENDBLK
  5
21
330
1F
100
AcDbEntity
  8
0
100
AcDbBlockEnd
  0
BLOCK
  5
1C
330
1B
100
AcDbEntity
 67
     1
  8
0
100
AcDbBlockBegin
  2
*PAPER_SPACE
  1

  0
ENDBLK
  5
1D
330
1B
100
AcDbEntity
 67
     1
  8
0
100
AcDbBlockEnd
  0
ENDSEC
  0
SECTION
  2
ENTITIES
  0
LWPOLYLINE
  5
100
100
AcDbEntity
  8
0
 62
7
100
AcDbPolyline
 90
1
 70
1
 10
-15.323951
 20
52.303562
 30
0.0
  0
SPLINE
  5
101
100
AcDbEntity
  8
EdgePCB
 62
7
100
AcDbSpline
 70
8
 71
3
 72
8
 73
4
 74
0
 40
0
 40
0
 40
0
 40
0
 40
1
 40
1
 40
1
 40
1
 10
130.796166
 20
-98.843790
 30
0.0
 10
130.451455
 20
-98.871523
 30
0.0
 10
130.140923
 20
-99.062803
 30
0.0
 10
129.961077
 20
-99.358184
 30
0.0
  0
LWPOLYLINE
  5
102
100
AcDbEntity
  8
EdgePCB
 62
7
100
AcDbPolyline
 90
2
 70
0
 10
148.323576
 20
-97.433648
 30
0.0
 10
130.796166
 20
-98.843790
 30
0.0
  0
SPLINE
  5
103
100
AcDbEntity
  8
EdgePCB
 62
7
100
AcDbSpline
 70
8
 71
3
 72
8
 73
4
 74
0
 40
0
 40
0
 40
0
 40
0
 40
1
 40
1
 40
1
 40
1
 10
122.013388
 20
-112.411536
 30
0.0
 10
121.817578
 20
-112.733135
 30
0.0
 10
121.468288
 20
-112.929406
 30
0.0
 10
121.091767
 20
-112.929405
 30
0.0
  0
LWPOLYLINE
  5
104
100
AcDbEntity
  8
EdgePCB
 62
7
100
AcDbPolyline
 90
2
 70
0
 10
129.961077
 20
-99.358184
 30
0.0
 10
122.013388
 20
-112.411536
 30
0.0
  0
SPLINE
  5
105
100
AcDbEntity
  8
EdgePCB
 62
7
100
AcDbSpline
 70
8
 71
3
 72
8
 73
4
 74
0
 40
0
 40
0
 40
0
 40
0
 40
1
 40
1
 40
1
 40
1
 10
106.364386
 20
-112.929405
 30
0.0
 10
105.351258
 20
-112.929405
 30
0.0
 10
104.342816
 20
-112.791942
 30
0.0
 10
103.366652
 20
-112.520777
 30
0.0
  0
LWPOLYLINE
  5
106
100
AcDbEntity
  8
EdgePCB
 62
7
100
AcDbPolyline
 90
2
 70
0
 10
121.091767
 20
-112.929405
 30
0.0
 10
106.364386
 20
-112.929405
 30
0.0
  0
SPLINE
  5
107
100
AcDbEntity
  8
EdgePCB
 62
7
100
AcDbSpline
 70
8
 71
3
 72
8
 73
4
 74
0
 40
0
 40
0
 40
0
 40
0
 40
1
 40
1
 40
1
 40
1
 10
88.857045
 20
-108.490223
 30
0.0
 10
87.714353
 20
-108.172800
 30
0.0
 10
86.533875
 20
-108.011887
 30
0.0
 10
85.347915
 20
-108.011886
 30
0.0
  0
LWPOLYLINE
  5
108
100
AcDbEntity
  8
EdgePCB
 62
7
100
AcDbPolyline
 90
2
 70
0
 10
103.366652
 20
-112.520777
 30
0.0
 10
88.857045
 20
-108.490223
 30
0.0
  0
SPLINE
  5
109
100
AcDbEntity
  8
EdgePCB
 62
7
100
AcDbSpline
 70
8
 71
3
 72
8
 73
4
 74
0
 40
0
 40
0
 40
0
 40
0
 40
1
 40
1
 40
1
 40
1
 10
71.093591
 20
-108.011886
 30
0.0
 10
69.873702
 20
-108.011887
 30
0.0
 10
68.665033
 20
-108.244813
 30
0.0
 10
67.532509
 20
-108.698153
 30
0.0
  0
LWPOLYLINE
  5
10a
100
AcDbEntity
  8
EdgePCB
 62
7
100
AcDbPolyline
 90
2
 70
0
 10
85.347915
 20
-108.011886
 30
0.0
 10
71.093591
 20
-108.011886
 30
0.0
  0
SPLINE
  5
10b
100
AcDbEntity
  8
EdgePCB
 62
7
100
AcDbSpline
 70
8
 71
3
 72
8
 73
4
 74
0
 40
0
 40
0
 40
0
 40
0
 40
1
 40
1
 40
1
 40
1
 10
37.486135
 20
-120.725467
 30
0.0
 10
36.987951
 20
-120.924885
 30
0.0
 10
36.418930
 20
-120.727907
 30
0.0
 10
36.150659
 20
-120.263165
 30
0.0
  0
LWPOLYLINE
  5
10c
100
AcDbEntity
  8
EdgePCB
 62
7
100
AcDbPolyline
 90
2
 70
0
 10
67.532509
 20
-108.698153
 30
0.0
 10
37.486135
 20
-120.725467
 30
0.0
  0
SPLINE
  5
10d
100
AcDbEntity
  8
EdgePCB
 62
7
100
AcDbSpline
 70
8
 71
3
 72
8
 73
4
 74
0
 40
0
 40
0
 40
0
 40
0
 40
1
 40
1
 40
1
 40
1
 10
23.529962
 20
-98.399648
 30
0.0
 10
23.514726
 20
-98.373254
 30
0.0
 10
23.500615
 20
-98.346227
 30
0.0
 10
23.487668
 20
-98.318638
 30
0.0
  0
LWPOLYLINE
  5
10e
100
AcDbEntity
  8
EdgePCB
 62
7
100
AcDbPolyline
 90
2
 70
0
 10
36.150659
 20
-120.263165
 30
0.0
 10
23.529962
 20
-98.399648
 30
0.0
  0
SPLINE
  5
10f
100
AcDbEntity
  8
EdgePCB
 62
7
100
AcDbSpline
 70
8
 71
3
 72
8
 73
4
 74
0
 40
0
 40
0
 40
0
 40
0
 40
1
 40
1
 40
1
 40
1
 10
21.332174
 20
-93.725842
 30
0.0
 10
20.990914
 20
-92.998707
 30
0.0
 10
20.813991
 20
-92.205334
 30
0.0
 10
20.813976
 20
-91.402100
 30
0.0
  0
LWPOLYLINE
  5
110
100
AcDbEntity
  8
EdgePCB
 62
7
100
AcDbPolyline
 90
2
 70
0
 10
23.487668
 20
-98.318638
 30
0.0
 10
21.332174
 20
-93.725842
 30
0.0
  0
SPLINE
  5
111
100
AcDbEntity
  8
EdgePCB
 62
7
100
AcDbSpline
 70
8
 71
3
 72
8
 73
4
 74
0
 40
0
 40
0
 40
0
 40
0
 40
1
 40
1
 40
1
 40
1
 10
20.812672
 20
-19.557135
 30
0.0
 10
20.812672
 20
-18.961202
 30
0.0
 10
21.295752
 20
-18.478105
 30
0.0
 10
21.891685
 20
-18.478108
 30
0.0
  0
SPLINE
  5
112
100
AcDbEntity
  8
EdgePCB
 62
7
100
AcDbSpline
 70
8
 71
3
 72
8
 73
4
 74
0
 40
0
 40
0
 40
0
 40
0
 40
1
 40
1
 40
1
 40
1
 10
21.891685
 20
-18.478108
 30
0.0
 10
49.905744
 20
-18.478231
 30
0.0
 10
100.166164
 20
-18.478191
 30
0.0
 10
110.951966
 20
-18.478181
 30
0.0
  0
SPLINE
  5
113
100
AcDbEntity
  8
EdgePCB
 62
7
100
AcDbSpline
 70
8
 71
3
 72
8
 73
4
 74
0
 40
0
 40
0
 40
0
 40
0
 40
1
 40
1
 40
1
 40
1
 10
110.951966
 20
-18.478181
 30
0.0
 10
112.097288
 20
-18.478180
 30
0.0
 10
113.942259
 20
-18.626752
 30
0.0
 10
115.072823
 20
-18.810025
 30
0.0
  0
LWPOLYLINE
  5
114
100
AcDbEntity
  8
EdgePCB
 62
7
100
AcDbPolyline
 90
2
 70
0
 10
20.813976
 20
-91.402100
 30
0.0
 10
20.812672
 20
-19.557135
 30
0.0
  0
SPLINE
  5
115
100
AcDbEntity
  8
EdgePCB
 62
7
100
AcDbSpline
 70
8
 71
3
 72
8
 73
4
 74
0
 40
0
 40
0
 40
0
 40
0
 40
1
 40
1
 40
1
 40
1
 10
148.384407
 20
-24.210096
 30
0.0
 10
148.906716
 20
-24.294767
 30
0.0
 10
149.290564
 20
-24.745689
 30
0.0
 10
149.290751
 20
-25.274817
 30
0.0
  0
LWPOLYLINE
  5
116
100
AcDbEntity
  8
EdgePCB
 62
7
100
AcDbPolyline
 90
2
 70
0
 10
115.072823
 20
-18.810025
 30
0.0
 10
148.384407
 20
-24.210096
 30
0.0
  0
SPLINE
  5
117
100
AcDbEntity
  8
EdgePCB
 62
7
100
AcDbSpline
 70
8
 71
3
 72
8
 73
4
 74
0
 40
0
 40
0
 40
0
 40
0
 40
1
 40
1
 40
1
 40
1
 10
149.316055
 20
-96.357732
 30
0.0
 10
149.316255
 20
-96.920245
 30
0.0
 10
148.884278
 20
-97.388539
 30
0.0
 10
148.323576
 20
-97.433649
 30
0.0
  0
LWPOLYLINE
  5
118
100
AcDbEntity
  8
EdgePCB
 62
7
100
AcDbPolyline
 90
2
 70
0
 10
149.290751
 20
-25.274817
 30
0.0
 10
149.316055
 20
-96.357732
 30
0.0
  0
LWPOLYLINE
  5
119
100
AcDbEntity
  8
EdgePCB
 62
7
100
AcDbPolyline
 90
1
 70
1
 10
148.323576
 20
-97.433649
 30
0.0
  0
ENDSEC
  0
SECTION
  2
OBJECTS
  0
DICTIONARY
  5
C
330
0
100
AcDbDictionary
  3
ACAD_GROUP
350
D
  3
ACAD_MLINESTYLE
350
17
  0
DICTIONARY
  5
D
330
C
100
AcDbDictionary
  0
DICTIONARY
  5
1A
330
C
100
AcDbDictionary
  0
DICTIONARY
  5
17
330
C
100
AcDbDictionary
  3
STANDARD
350
18
  0
DICTIONARY
  5
19
330
C
100
AcDbDictionary
  0
ENDSEC
  0
EOF
