  0
SECTION
  2
HEADER
  9
$ACADVER
  1
AC1014
  9
$HANDSEED
  5
FFFF
  9
$MEASUREMENT
 70
     1
  0
ENDSEC
  0
SECTION
  2
TABLES
  0
TABLE
  2
VPORT
  5
8
330
0
100
AcDbSymbolTable
 70
     4
  0
VPORT
  5
2E
330
8
100
AcDbSymbolTableRecord
100
AcDbViewportTableRecord
  2
*ACTIVE
 70
     0
 10
0.0
 20
0.0
 11
1.0
 21
1.0
 12
210.0
 22
148.5
 13
0.0
 23
0.0
 14
10.0
 24
10.0
 15
10.0
 25
10.0
 16
0.0
 26
0.0
 36
1.0
 17
0.0
 27
0.0
 37
0.0
 40
341.0
 41
1.24
 42
50.0
 43
0.0
 44
0.0
 50
0.0
 51
0.0
 71
     0
 72
   100
 73
     1
 74
     3
 75
     0
 76
     0
 77
     0
 78
     0
  0
ENDTAB
  0
TABLE
  2
LTYPE
  5
5
330
0
100
AcDbSymbolTable
 70
     1
  0
LTYPE
  5
14
330
5
100
AcDbSymbolTableRecord
100
AcDbLinetypeTableRecord
  2
BYBLOCK
 70
     0
  3

 72
    65
 73
     0
 40
0.0
  0
LTYPE
  5
15
330
5
100
AcDbSymbolTableRecord
100
AcDbLinetypeTableRecord
  2
BYLAYER
 70
     0
  3

 72
    65
 73
     0
 40
0.0
  0
LTYPE
  5
16
330
5
100
AcDbSymbolTableRecord
100
AcDbLinetypeTableRecord
  2
CONTINUOUS
 70
     0
  3
Solid line
 72
    65
 73
     0
 40
0.0
  0
ENDTAB
  0
TABLE
  2
LAYER
  5
2
100
AcDbSymbolTable
 70
2
  0
LAYER
  5
50
100
AcDbSymbolTableRecord
100
AcDbLayerTableRecord
  2
0
 70
0
  6
CONTINUOUS
  0
LAYER
  5
51
100
AcDbSymbolTableRecord
100
AcDbLayerTableRecord
  2
Layer_1
 70
0
  6
CONTINUOUS
  0
ENDTAB
  0
TABLE
  2
STYLE
  5
3
330
0
100
AcDbSymbolTable
 70
     1
  0
STYLE
  5
11
330
3
100
AcDbSymbolTableRecord
100
AcDbTextStyleTableRecord
  2
STANDARD
 70
     0
 40
0.0
 41
1.0
 50
0.0
 71
     0
 42
2.5
  3
txt
  4

  0
ENDTAB
  0
TABLE
  2
VIEW
  5
6
330
0
100
AcDbSymbolTable
 70
     0
  0
ENDTAB
  0
TABLE
  2
UCS
  5
7
330
0
100
AcDbSymbolTable
 70
     0
  0
ENDTAB
  0
TABLE
  2
APPID
  5
9
330
0
100
AcDbSymbolTable
 70
     2
  0
APPID
  5
12
330
9
100
AcDbSymbolTableRecord
100
AcDbRegAppTableRecord
  2
ACAD
 70
     0
  0
ENDTAB
  0
TABLE
  2
DIMSTYLE
  5
A
330
0
100
AcDbSymbolTable
 70
     1
  0
DIMSTYLE
105
27
330
A
100
AcDbSymbolTableRecord
100
AcDbDimStyleTableRecord
  2
ISO-25
 70
     0
  3

  4

  5

  6

  7

 40
1.0
 41
2.5
 42
0.625
 43
3.75
 44
1.25
 45
0.0
 46
0.0
 47
0.0
 48
0.0
140
2.5
141
2.5
142
0.0
143
0.03937007874016
144
1.0
145
0.0
146
1.0
147
0.625
 71
     0
 72
     0
 73
     0
 74
     0
 75
     0
 76
     0
 77
     1
 78
     8
170
     0
171
     3
172
     1
173
     0
174
     0
175
     0
176
     0
177
     0
178
     0
270
     2
271
     2
272
     2
273
     2
274
     3
340
11
275
     0
280
     0
281
     0
282
     0
283
     0
284
     8
285
     0
286
     0
287
     3
288
     0
  0
ENDTAB
  0
TABLE
  2
BLOCK_RECORD
  5
1
330
0
100
AcDbSymbolTable
 70
     1
  0
BLOCK_RECORD
  5
1F
330
1
100
AcDbSymbolTableRecord
100
AcDbBlockTableRecord
  2
*MODEL_SPACE
  0
BLOCK_RECORD
  5
1B
330
1
100
AcDbSymbolTableRecord
100
AcDbBlockTableRecord
  2
*PAPER_SPACE
  0
ENDTAB
  0
ENDSEC
  0
SECTION
  2
BLOCKS
  0
BLOCK
  5
20
330
1F
100
AcDbEntity
  8
0
100
AcDbBlockBegin
  2
*MODEL_SPACE
 70
     0
 10
0.0
 20
0.0
 30
0.0
  3
*MODEL_SPACE
  1

  0
ENDBLK
  5
21
330
1F
100
AcDbEntity
  8
0
100
AcDbBlockEnd
  0
BLOCK
  5
1C
330
1B
100
AcDbEntity
 67
     1
  8
0
100
AcDbBlockBegin
  2
*PAPER_SPACE
  1

  0
ENDBLK
  5
1D
330
1B
100
AcDbEntity
 67
     1
  8
0
100
AcDbBlockEnd
  0
ENDSEC
  0
SECTION
  2
ENTITIES
  0
LWPOLYLINE
  5
100
100
AcDbEntity
  8
Layer_1
 62
7
100
AcDbPolyline
 90
95
 70
0
 10
139.353950
 20
210.342290
 30
0.0
 10
120.640860
 20
208.836750
 30
0.0
 10
120.504760
 20
208.817540
 30
0.0
 10
120.373290
 20
208.782740
 30
0.0
 10
120.247660
 20
208.733040
 30
0.0
 10
120.129060
 20
208.669240
 30
0.0
 10
120.018720
 20
208.592040
 30
0.0
 10
119.917840
 20
208.502140
 30
0.0
 10
119.827640
 20
208.400379
 30
0.0
 10
119.749340
 20
208.287449
 30
0.0
 10
111.264010
 20
194.351070
 30
0.0
 10
111.178210
 20
194.228730
 30
0.0
 10
111.078610
 20
194.119830
 30
0.0
 10
110.966810
 20
194.025230
 30
0.0
 10
110.844390
 20
193.945830
 30
0.0
 10
110.712920
 20
193.882530
 30
0.0
 10
110.573990
 20
193.836230
 30
0.0
 10
110.429180
 20
193.807830
 30
0.0
 10
110.280060
 20
193.797830
 30
0.0
 10
94.556349
 20
193.797830
 30
0.0
 10
93.746499
 20
193.825330
 30
0.0
 10
92.941290
 20
193.907430
 30
0.0
 10
92.143479
 20
194.043830
 30
0.0
 10
91.355830
 20
194.234130
 30
0.0
 10
75.864688
 20
198.537350
 30
0.0
 10
75.405368
 20
198.656590
 30
0.0
 10
74.942670
 20
198.760118
 30
0.0
 10
74.476998
 20
198.847818
 30
0.0
 10
74.008757
 20
198.919718
 30
0.0
 10
73.538349
 20
198.975718
 30
0.0
 10
73.066182
 20
199.015818
 30
0.0
 10
72.592657
 20
199.039918
 30
0.0
 10
72.118177
 20
199.047918
 30
0.0
 10
56.899587
 20
199.047918
 30
0.0
 10
56.411881
 20
199.036328
 30
0.0
 10
55.926108
 20
199.001528
 30
0.0
 10
55.443085
 20
198.943728
 30
0.0
 10
54.963620
 20
198.863128
 30
0.0
 10
54.488527
 20
198.759809
 30
0.0
 10
54.018619
 20
198.633949
 30
0.0
 10
53.554709
 20
198.485729
 30
0.0
 10
53.097607
 20
198.315279
 30
0.0
 10
21.018681
 20
185.474350
 30
0.0
 10
20.816455
 20
185.414050
 30
0.0
 10
20.611787
 20
185.391850
 30
0.0
 10
20.409327
 20
185.406150
 30
0.0
 10
20.213725
 20
185.455250
 30
0.0
 10
20.029628
 20
185.537550
 30
0.0
 10
19.861686
 20
185.651510
 30
0.0
 10
19.714549
 20
185.795500
 30
0.0
 10
19.592865
 20
185.967900
 30
0.0
 10
6.118414
 20
209.310422
 30
0.0
 10
6.073264
 20
209.396922
 30
0.0
 10
3.771958
 20
214.300400
 30
0.0
 10
3.643579
 20
214.594717
 30
0.0
 10
3.531806
 20
214.894961
 30
0.0
 10
3.436796
 20
215.200423
 30
0.0
 10
3.358706
 20
215.510401
 30
0.0
 10
3.297696
 20
215.824186
 30
0.0
 10
3.253916
 20
216.141072
 30
0.0
 10
3.227536
 20
216.460358
 30
0.0
 10
3.218736
 20
216.781335
 30
0.0
 10
3.217336
 20
293.486395
 30
0.0
 10
3.240736
 20
293.718569
 30
0.0
 10
3.307856
 20
293.934816
 30
0.0
 10
3.414069
 20
294.130503
 30
0.0
 10
3.554738
 20
294.300999
 30
0.0
 10
3.725231
 20
294.441670
 30
0.0
 10
3.920915
 20
294.547885
 30
0.0
 10
4.137160
 20
294.615015
 30
0.0
 10
4.369332
 20
294.638425
 30
0.0
 10
99.454286
 20
294.638345
 30
0.0
 10
100.487860
 20
294.610505
 30
0.0
 10
101.660010
 20
294.534575
 30
0.0
 10
102.829210
 20
294.421960
 30
0.0
 10
103.853900
 20
294.284054
 30
0.0
 10
139.418920
 20
288.518684
 30
0.0
 10
139.620590
 20
288.467054
 30
0.0
 10
139.805350
 20
288.382364
 30
0.0
 10
139.970100
 20
288.268230
 30
0.0
 10
140.111800
 20
288.128248
 30
0.0
 10
140.227360
 20
287.966023
 30
0.0
 10
140.313760
 20
287.785158
 30
0.0
 10
140.367860
 20
287.589259
 30
0.0
 10
140.386660
 20
287.381928
 30
0.0
 10
140.413660
 20
211.490475
 30
0.0
 10
140.392760
 20
211.270664
 30
0.0
 10
140.332360
 20
211.064395
 30
0.0
 10
140.236360
 20
210.875795
 30
0.0
 10
140.108450
 20
210.708975
 30
0.0
 10
139.952470
 20
210.568045
 30
0.0
 10
139.772210
 20
210.457126
 30
0.0
 10
139.571480
 20
210.380326
 30
0.0
 10
139.354070
 20
210.341726
 30
0.0
 10
139.354090
 20
210.341716
 30
0.0
  0
ENDSEC
  0
SECTION
  2
OBJECTS
  0
DICTIONARY
  5
C
330
0
100
AcDbDictionary
  3
ACAD_GROUP
350
D
  3
ACAD_MLINESTYLE
350
17
  0
DICTIONARY
  5
D
330
C
100
AcDbDictionary
  0
DICTIONARY
  5
1A
330
C
100
AcDbDictionary
  0
DICTIONARY
  5
17
330
C
100
AcDbDictionary
  3
STANDARD
350
18
  0
DICTIONARY
  5
19
330
C
100
AcDbDictionary
  0
ENDSEC
  0
EOF
