  0
SECTION
  2
HEADER
  9
$ACADVER
  1
AC1014
  9
$HANDSEED
  5
FFFF
  9
$MEASUREMENT
 70
     1
  0
ENDSEC
  0
SECTION
  2
TABLES
  0
TABLE
  2
VPORT
  5
8
330
0
100
AcDbSymbolTable
 70
     4
  0
VPORT
  5
2E
330
8
100
AcDbSymbolTableRecord
100
AcDbViewportTableRecord
  2
*ACTIVE
 70
     0
 10
0.0
 20
0.0
 11
1.0
 21
1.0
 12
210.0
 22
148.5
 13
0.0
 23
0.0
 14
10.0
 24
10.0
 15
10.0
 25
10.0
 16
0.0
 26
0.0
 36
1.0
 17
0.0
 27
0.0
 37
0.0
 40
341.0
 41
1.24
 42
50.0
 43
0.0
 44
0.0
 50
0.0
 51
0.0
 71
     0
 72
   100
 73
     1
 74
     3
 75
     0
 76
     0
 77
     0
 78
     0
  0
ENDTAB
  0
TABLE
  2
LTYPE
  5
5
330
0
100
AcDbSymbolTable
 70
     1
  0
LTYPE
  5
14
330
5
100
AcDbSymbolTableRecord
100
AcDbLinetypeTableRecord
  2
BYBLOCK
 70
     0
  3

 72
    65
 73
     0
 40
0.0
  0
LTYPE
  5
15
330
5
100
AcDbSymbolTableRecord
100
AcDbLinetypeTableRecord
  2
BYLAYER
 70
     0
  3

 72
    65
 73
     0
 40
0.0
  0
LTYPE
  5
16
330
5
100
AcDbSymbolTableRecord
100
AcDbLinetypeTableRecord
  2
CONTINUOUS
 70
     0
  3
Solid line
 72
    65
 73
     0
 40
0.0
  0
ENDTAB
  0
TABLE
  2
LAYER
  5
2
100
AcDbSymbolTable
 70
2
  0
LAYER
  5
50
100
AcDbSymbolTableRecord
100
AcDbLayerTableRecord
  2
0
 70
0
  6
CONTINUOUS
  0
LAYER
  5
51
100
AcDbSymbolTableRecord
100
AcDbLayerTableRecord
  2
Layer_1
 70
0
  6
CONTINUOUS
  0
ENDTAB
  0
TABLE
  2
STYLE
  5
3
330
0
100
AcDbSymbolTable
 70
     1
  0
STYLE
  5
11
330
3
100
AcDbSymbolTableRecord
100
AcDbTextStyleTableRecord
  2
STANDARD
 70
     0
 40
0.0
 41
1.0
 50
0.0
 71
     0
 42
2.5
  3
txt
  4

  0
ENDTAB
  0
TABLE
  2
VIEW
  5
6
330
0
100
AcDbSymbolTable
 70
     0
  0
ENDTAB
  0
TABLE
  2
UCS
  5
7
330
0
100
AcDbSymbolTable
 70
     0
  0
ENDTAB
  0
TABLE
  2
APPID
  5
9
330
0
100
AcDbSymbolTable
 70
     2
  0
APPID
  5
12
330
9
100
AcDbSymbolTableRecord
100
AcDbRegAppTableRecord
  2
ACAD
 70
     0
  0
ENDTAB
  0
TABLE
  2
DIMSTYLE
  5
A
330
0
100
AcDbSymbolTable
 70
     1
  0
DIMSTYLE
105
27
330
A
100
AcDbSymbolTableRecord
100
AcDbDimStyleTableRecord
  2
ISO-25
 70
     0
  3

  4

  5

  6

  7

 40
1.0
 41
2.5
 42
0.625
 43
3.75
 44
1.25
 45
0.0
 46
0.0
 47
0.0
 48
0.0
140
2.5
141
2.5
142
0.0
143
0.03937007874016
144
1.0
145
0.0
146
1.0
147
0.625
 71
     0
 72
     0
 73
     0
 74
     0
 75
     0
 76
     0
 77
     1
 78
     8
170
     0
171
     3
172
     1
173
     0
174
     0
175
     0
176
     0
177
     0
178
     0
270
     2
271
     2
272
     2
273
     2
274
     3
340
11
275
     0
280
     0
281
     0
282
     0
283
     0
284
     8
285
     0
286
     0
287
     3
288
     0
  0
ENDTAB
  0
TABLE
  2
BLOCK_RECORD
  5
1
330
0
100
AcDbSymbolTable
 70
     1
  0
BLOCK_RECORD
  5
1F
330
1
100
AcDbSymbolTableRecord
100
AcDbBlockTableRecord
  2
*MODEL_SPACE
  0
BLOCK_RECORD
  5
1B
330
1
100
AcDbSymbolTableRecord
100
AcDbBlockTableRecord
  2
*PAPER_SPACE
  0
ENDTAB
  0
ENDSEC
  0
SECTION
  2
BLOCKS
  0
BLOCK
  5
20
330
1F
100
AcDbEntity
  8
0
100
AcDbBlockBegin
  2
*MODEL_SPACE
 70
     0
 10
0.0
 20
0.0
 30
0.0
  3
*MODEL_SPACE
  1

  0
ENDBLK
  5
21
330
1F
100
AcDbEntity
  8
0
100
AcDbBlockEnd
  0
BLOCK
  5
1C
330
1B
100
AcDbEntity
 67
     1
  8
0
100
AcDbBlockBegin
  2
*PAPER_SPACE
  1

  0
ENDBLK
  5
1D
330
1B
100
AcDbEntity
 67
     1
  8
0
100
AcDbBlockEnd
  0
ENDSEC
  0
SECTION
  2
ENTITIES
  0
LWPOLYLINE
  5
100
100
AcDbEntity
  8
Layer_1
 62
7
100
AcDbPolyline
 90
95
 70
0
 10
136.268647
 20
25.083197
 30
0.0
 10
117.555577
 20
23.577677
 30
0.0
 10
117.419477
 20
23.558477
 30
0.0
 10
117.288017
 20
23.523677
 30
0.0
 10
117.162377
 20
23.473977
 30
0.0
 10
117.043777
 20
23.410177
 30
0.0
 10
116.933437
 20
23.332977
 30
0.0
 10
116.832557
 20
23.243077
 30
0.0
 10
116.742357
 20
23.141317
 30
0.0
 10
116.664057
 20
23.028387
 30
0.0
 10
108.178737
 20
9.092027
 30
0.0
 10
108.092937
 20
8.969687
 30
0.0
 10
107.993337
 20
8.860787
 30
0.0
 10
107.881537
 20
8.766187
 30
0.0
 10
107.759117
 20
8.686787
 30
0.0
 10
107.627647
 20
8.623487
 30
0.0
 10
107.488717
 20
8.577187
 30
0.0
 10
107.343907
 20
8.548787
 30
0.0
 10
107.194787
 20
8.538787
 30
0.0
 10
91.471077
 20
8.538787
 30
0.0
 10
90.661227
 20
8.566287
 30
0.0
 10
89.856027
 20
8.648387
 30
0.0
 10
89.058217
 20
8.784787
 30
0.0
 10
88.270567
 20
8.975087
 30
0.0
 10
72.779442
 20
13.278297
 30
0.0
 10
72.320122
 20
13.397537
 30
0.0
 10
71.857422
 20
13.501067
 30
0.0
 10
71.391752
 20
13.588767
 30
0.0
 10
70.923512
 20
13.660667
 30
0.0
 10
70.453112
 20
13.716667
 30
0.0
 10
69.980942
 20
13.756767
 30
0.0
 10
69.507412
 20
13.780867
 30
0.0
 10
69.032932
 20
13.788867
 30
0.0
 10
53.814362
 20
13.788867
 30
0.0
 10
53.326652
 20
13.777267
 30
0.0
 10
52.840882
 20
13.742467
 30
0.0
 10
52.357862
 20
13.684667
 30
0.0
 10
51.878402
 20
13.604067
 30
0.0
 10
51.403302
 20
13.500747
 30
0.0
 10
50.933402
 20
13.374887
 30
0.0
 10
50.469492
 20
13.226667
 30
0.0
 10
50.012392
 20
13.056217
 30
0.0
 10
17.933502
 20
0.215297
 30
0.0
 10
17.731272
 20
0.154997
 30
0.0
 10
17.526602
 20
0.132797
 30
0.0
 10
17.324142
 20
0.147097
 30
0.0
 10
17.128542
 20
0.196197
 30
0.0
 10
16.944442
 20
0.278497
 30
0.0
 10
16.776502
 20
0.392477
 30
0.0
 10
16.629362
 20
0.536457
 30
0.0
 10
16.507682
 20
0.708857
 30
0.0
 10
3.033242
 20
24.051357
 30
0.0
 10
2.988042
 20
24.137857
 30
0.0
 10
0.686742
 20
29.041339
 30
0.0
 10
0.558362
 20
29.335659
 30
0.0
 10
0.446592
 20
29.635899
 30
0.0
 10
0.351592
 20
29.941359
 30
0.0
 10
0.273492
 20
30.251349
 30
0.0
 10
0.212492
 20
30.565139
 30
0.0
 10
0.168692
 20
30.882019
 30
0.0
 10
0.142292
 20
31.201310
 30
0.0
 10
0.133292
 20
31.522287
 30
0.0
 10
0.132292
 20
108.227278
 30
0.0
 10
0.155692
 20
108.459451
 30
0.0
 10
0.222792
 20
108.675698
 30
0.0
 10
0.329002
 20
108.871385
 30
0.0
 10
0.469672
 20
109.041881
 30
0.0
 10
0.640162
 20
109.182553
 30
0.0
 10
0.835852
 20
109.288768
 30
0.0
 10
1.052092
 20
109.355898
 30
0.0
 10
1.284262
 20
109.379298
 30
0.0
 10
96.369117
 20
109.379219
 30
0.0
 10
97.402677
 20
109.351379
 30
0.0
 10
98.574827
 20
109.275449
 30
0.0
 10
99.744027
 20
109.162833
 30
0.0
 10
100.768737
 20
109.024926
 30
0.0
 10
136.333707
 20
103.259562
 30
0.0
 10
136.535387
 20
103.207932
 30
0.0
 10
136.720127
 20
103.123252
 30
0.0
 10
136.884887
 20
103.009119
 30
0.0
 10
137.026577
 20
102.869138
 30
0.0
 10
137.142147
 20
102.706913
 30
0.0
 10
137.228547
 20
102.526048
 30
0.0
 10
137.282647
 20
102.330149
 30
0.0
 10
137.301447
 20
102.122818
 30
0.0
 10
137.328447
 20
26.231427
 30
0.0
 10
137.307547
 20
26.011607
 30
0.0
 10
137.247147
 20
25.805347
 30
0.0
 10
137.151147
 20
25.616747
 30
0.0
 10
137.023237
 20
25.449917
 30
0.0
 10
136.867257
 20
25.308997
 30
0.0
 10
136.686997
 20
25.198067
 30
0.0
 10
136.486267
 20
25.121267
 30
0.0
 10
136.268857
 20
25.082667
 30
0.0
 10
136.268897
 20
25.082667
 30
0.0
  0
ENDSEC
  0
SECTION
  2
OBJECTS
  0
DICTIONARY
  5
C
330
0
100
AcDbDictionary
  3
ACAD_GROUP
350
D
  3
ACAD_MLINESTYLE
350
17
  0
DICTIONARY
  5
D
330
C
100
AcDbDictionary
  0
DICTIONARY
  5
1A
330
C
100
AcDbDictionary
  0
DICTIONARY
  5
17
330
C
100
AcDbDictionary
  3
STANDARD
350
18
  0
DICTIONARY
  5
19
330
C
100
AcDbDictionary
  0
ENDSEC
  0
EOF
