<svg id="Ebene_1" data-name="Ebene 1" xmlns="http://www.w3.org/2000/svg" viewBox="0 0 352.81 501.55"><defs><style>.cls-1{fill:#1d1d1b;}</style></defs><title>SOFLE VELKA s klaveskama</title><path class="cls-1" d="M224.87,141.4c-6.92,9.63-9.54,20.38-11.45,31.91-2.16,13-4,26.2-2.38,39.34,2.5,20.21,16,42.38,38.4,43.76,24,1.48,36.38-30,40.38-49.05,4.35-20.68,7.11-48.9-8.58-65.63-15.53-16.57-46-17.26-58.71,3.1-1.71,2.73,2.61,5.24,4.32,2.52,10.57-16.87,35.74-16.45,49.28-3.66,15.28,14.43,12.92,40.28,9.5,59.15a92.18,92.18,0,0,1-9.6,28.24c-5,9.07-12.58,19.77-23.9,20.35-21.54,1.09-34.38-22.12-36.3-40.62-1.31-12.63.57-25.35,2.68-37.79,1.79-10.55,4.35-20.29,10.68-29.1,1.88-2.62-2.45-5.12-4.32-2.52Z" transform="translate(-88.75 -58.17)"/><path class="cls-1" d="M242.62,128.29c-11-13.58-12.19-33.18-2.16-47.63,10.19-14.69,29.92-20.79,47-16.16s22.87,24.12,19.81,39.9a50.36,50.36,0,0,1-28.66,36.1c-2.93,1.32-.39,5.63,2.52,4.32,25.85-11.66,42.39-47.5,25-72.79-8.94-13-25.12-15.45-39.8-13a45.46,45.46,0,0,0-34.09,26c-7,15.61-3.86,33.72,6.8,46.83,2,2.5,5.55-1.06,3.53-3.54Z" transform="translate(-88.75 -58.17)"/><path class="cls-1" d="M235.86,167.76c-4.23,6.74-6.55,16.79-2.25,24.1,3.81,6.48,11.86,5.82,14.85-.79a39.64,39.64,0,0,0,3.13-12.64c.33-3.71.8-9.4-1.39-12.73-3.73-5.66-10.38-2.06-13.95,1.55-2.26,2.3,1.28,5.83,3.54,3.54a20,20,0,0,1,1.6-1.59c3.05-2.47,4.83,1.45,5.34,4.2.72,3.86-.54,8.93-1.7,12.58-.84,2.65-2.11,5.52-5.61,5-2.64-.38-3-6.8-3-8.59a22.6,22.6,0,0,1,3.75-12.12c1.72-2.73-2.61-5.24-4.32-2.52Z" transform="translate(-88.75 -58.17)"/><path class="cls-1" d="M265.24,161.25c-5.54,6.45-7.09,15-7,23.36.08,6.37,3.92,13.62,11.38,10.25,11.62-5.24,9.39-39.84-3.89-34-2.94,1.29-.4,5.6,2.52,4.31,1-.43,3.57,6,3.66,6.31a20.14,20.14,0,0,1,.35,7.38c-.32,3.13-3.88,17.75-8.6,9.51-1.38-2.4-.36-7.76,0-10.42.57-4.82,1.93-9.43,5.14-13.17,2.09-2.43-1.44-6-3.54-3.53Z" transform="translate(-88.75 -58.17)"/><path class="cls-1" d="M262.52,180.51a8.4,8.4,0,0,1,.38,8h4.32a8.13,8.13,0,0,1,.09-7.58l-3.92.5a4.08,4.08,0,0,1-.37,6.14l3.92.5a2.62,2.62,0,0,1-.42-2.31c.79-3.13-4-4.46-4.82-1.33a7.68,7.68,0,0,0,.93,6.16,2.54,2.54,0,0,0,3.92.51,9.07,9.07,0,0,0,.37-13.2,2.53,2.53,0,0,0-3.93.5A13.42,13.42,0,0,0,262.9,191a2.52,2.52,0,0,0,4.32,0,13.64,13.64,0,0,0-.38-13c-1.61-2.79-5.93-.28-4.32,2.52Z" transform="translate(-88.75 -58.17)"/><path class="cls-1" d="M241.34,183.64a3.92,3.92,0,0,1-.53-4.46H236.5a10.92,10.92,0,0,1,.33,9.31l4.56.6a15.52,15.52,0,0,1-.76-7.55L237,183a3.44,3.44,0,0,1,.51,5.54c-2.39,2.16,1.15,5.69,3.54,3.54a8.48,8.48,0,0,0-1.52-13.39c-1.27-.73-3.42-.15-3.68,1.49a20.88,20.88,0,0,0,.76,10.2c.62,1.81,3.64,2.73,4.57.6a16.3,16.3,0,0,0-.33-14.35,2.51,2.51,0,0,0-4.31,0,9.14,9.14,0,0,0,1.3,10.51c2.12,2.43,5.65-1.11,3.54-3.53Z" transform="translate(-88.75 -58.17)"/><path class="cls-1" d="M249,199.54c-8.6.27-12.88,10.91-6.1,16.67,2.44,2.07,6-1.45,3.53-3.54-3.26-2.77-2-8,2.57-8.13,3.21-.1,3.22-5.1,0-5Z" transform="translate(-88.75 -58.17)"/><path class="cls-1" d="M236.5,226.45c12.23,9,28.82,3.29,33.59-10.88,1-3.06-3.8-4.37-4.82-1.33-3.82,11.36-16.79,14.86-26.24,7.89-2.6-1.91-5.09,2.43-2.53,4.32Z" transform="translate(-88.75 -58.17)"/><path class="cls-1" d="M260.73,250.57l-2.43,13.11c-.58,3.14,4.23,4.49,4.82,1.33l2.43-13.11c.59-3.14-4.23-4.49-4.82-1.33Z" transform="translate(-88.75 -58.17)"/><path class="cls-1" d="M241.5,254v10c0,3.22,5,3.22,5,0V254c0-3.22-5-3.22-5,0Z" transform="translate(-88.75 -58.17)"/><path class="cls-1" d="M261.91,266.43A107.55,107.55,0,0,0,294,268.11c3.17-.32,3.21-5.32,0-5a103,103,0,0,1-30.74-1.5c-3.14-.64-4.49,4.18-1.33,4.82Z" transform="translate(-88.75 -58.17)"/><path class="cls-1" d="M293.9,264.84a379.81,379.81,0,0,1,25.76,108.32c1.51,17.71,3.43,37.32-1.24,54.69a52,52,0,0,1-31.08,34.76c-3,1.17-1.67,6,1.33,4.83a57.9,57.9,0,0,0,26.93-21.39c7.7-11.36,10-24.93,10.35-38.42.75-30.93-3.42-62.39-10.7-92.41a384,384,0,0,0-16.53-51.71c-1.18-2.95-6-1.67-4.82,1.33Z" transform="translate(-88.75 -58.17)"/><path class="cls-1" d="M283.16,295.79a408.42,408.42,0,0,1,19.48,82.53,343.91,343.91,0,0,1,2.61,41.7c0,6.91-.43,13.61-5,19.22C296,444.59,289.54,445.78,283,446c-3.21.09-3.22,5.09,0,5,12-.33,21.61-5.16,25.69-17,2.33-6.81,1.63-14.42,1.46-21.49q-.3-12.35-1.49-24.65A408.71,408.71,0,0,0,288,294.46c-1-3-5.87-1.73-4.83,1.33Z" transform="translate(-88.75 -58.17)"/><path class="cls-1" d="M284,292.27a460.27,460.27,0,0,0-56.65,6.34c-3.16.55-1.82,5.37,1.33,4.82A450.48,450.48,0,0,1,284,297.27c3.2-.16,3.22-5.16,0-5Z" transform="translate(-88.75 -58.17)"/><path class="cls-1" d="M108.87,468.92a16.9,16.9,0,0,0-.54,4,2.51,2.51,0,0,0,2.5,2.5c15.58-1.68,30.61-5.89,45.65-10.15a399.4,399.4,0,0,1,44.71-9.91c30.41-5,61.36-8.13,92.21-7.1,3.21.11,3.21-4.89,0-5-30.14-1-60.36,2-90.09,6.72a392,392,0,0,0-44.6,9.46c-15.78,4.43-31.53,9.22-47.88,11l2.5,2.5.36-2.67c.73-3.13-4.09-4.47-4.82-1.33Z" transform="translate(-88.75 -58.17)"/><path class="cls-1" d="M108.19,468.05a46.51,46.51,0,0,0,.14,4.87c.08,1.24,1.08,2.66,2.5,2.5a39.08,39.08,0,0,0,6.07-1c3.1-.83,1.78-5.65-1.33-4.82a30.58,30.58,0,0,1-4.74.85l2.5,2.5a46.51,46.51,0,0,1-.14-4.87c.12-3.22-4.88-3.22-5,0Z" transform="translate(-88.75 -58.17)"/><path class="cls-1" d="M108.43,466.47c-1.28,2.06-.33,4.92,0,7.12.21,1.54,2.46,2.33,3.67,1.49a5.07,5.07,0,0,0,2.31-4.38c0-3.22-5-3.22-5,0,0,.39-.06.22.16.06l3.68,1.5c-.1-.68-.29-1.7-.35-2.14,0,0-.06-.77-.06-1.05a2,2,0,0,0,0-.54c.09.14-.33.83-.1.47,1.7-2.74-2.62-5.26-4.32-2.53Z" transform="translate(-88.75 -58.17)"/><path class="cls-1" d="M130.45,315.19c-12.72,1.32-25.48,2.35-38.11,4.4A2.49,2.49,0,0,0,90.5,322c.24,2.17-.76,4.22-.6,6.38a48.13,48.13,0,0,1,0,8.32c-.64,6.95-1.1,13.92-1.17,20.9a153.69,153.69,0,0,0,1.14,20.9c.78,6.17,1,12.64,2.43,18.67,2.92,12.45,8.9,23.9,12.09,36.26,3.43,13.33,2.14,26.67,4,40.16.38,2.77,4,1.93,4.82,0,.69-1.67.5-6.51-1.06-7.77-1.3-1.05-3.81-.94-4.17,1.11a21.14,21.14,0,0,0,.32,6,2.51,2.51,0,0,0,4.91.67,9.15,9.15,0,0,0,.14-5.26c-.59-3.16-5.41-1.82-4.82,1.33l-.14,2.6,4.91.66c-.15-1.31-.68-3.67-.5-4.66l-4.18,1.1c-1.06-.85-.25-.58-.24.88a5.28,5.28,0,0,1,0,2h4.82c-1-7.08-.69-14.19-1-21.31a92.66,92.66,0,0,0-3-18.85c-3.11-12.08-8.88-23.28-11.87-35.4-.78-3.16-.63-6.18-1-9.36-.37-3.59-1.33-7.15-1.74-10.74a156.8,156.8,0,0,1-.88-20.9c.13-7,.65-13.95,1.32-20.9a31.87,31.87,0,0,0-.14-6.42c-.19-2.14.77-4.19.53-6.38l-1.84,2.41c12.2-2,24.51-3,36.79-4.22,3.17-.32,3.2-5.33,0-5Z" transform="translate(-88.75 -58.17)"/><path class="cls-1" d="M227.34,298.61c-17.75,4.44-35.89,6.84-53.89,10.06-3.16.56-1.82,5.38,1.33,4.82,18-3.21,36.14-5.62,53.89-10.06,3.12-.78,1.8-5.6-1.33-4.82Z" transform="translate(-88.75 -58.17)"/><path class="cls-1" d="M309.33,294.68c12.24-2.54,23.93-6.86,36.29-9.13,24.24-4.44,48.88-3.13,73.38-4.05,3.21-.12,3.22-5.12,0-5-24.29.91-48.71-.32-72.76,3.88a205.43,205.43,0,0,0-24.39,5.56c-4.6,1.4-9.13,2.94-13.85,3.92-3.15.66-1.81,5.48,1.33,4.82Z" transform="translate(-88.75 -58.17)"/><path class="cls-1" d="M316.6,443.14c40-10.93,80.89-19.67,122.55-17.38,3.21.17,3.2-4.83,0-5-42.08-2.32-83.52,6.52-123.88,17.56-3.1.84-1.78,5.67,1.33,4.82Z" transform="translate(-88.75 -58.17)"/><path class="cls-1" d="M418.36,279a955.24,955.24,0,0,0,16,145.47c.59,3.16,5.41,1.82,4.82-1.33A945.48,945.48,0,0,1,423.36,279c-.11-3.21-5.11-3.23-5,0Z" transform="translate(-88.75 -58.17)"/><path class="cls-1" d="M138.83,293.08c-11.06-2.72-12,12-11.27,19.39.8,7.93,8.16,16.56,16.56,11.46,2.75-1.67.24-6-2.52-4.32-11.68,7.09-11.88-23.62-4.1-21.71,3.13.77,4.46-4,1.33-4.82Z" transform="translate(-88.75 -58.17)"/><path class="cls-1" d="M136.32,301a35.13,35.13,0,0,0,6.6,18.1c2.34,3.16,7.05,6.72,10.06,2.26,1.8-2.67-2.53-5.18-4.32-2.52.32-.48-4.07-6.37-4.66-7.63A30.14,30.14,0,0,1,141.32,301c-.28-3.18-5.29-3.21-5,0Z" transform="translate(-88.75 -58.17)"/><path class="cls-1" d="M144.64,301.64a100,100,0,0,0,10.88,19.85c1.85,2.6,6.19.11,4.32-2.52a93.79,93.79,0,0,1-10.37-18.66c-1.21-2.93-6.05-1.65-4.83,1.33Z" transform="translate(-88.75 -58.17)"/><path class="cls-1" d="M153.32,301.66A26.82,26.82,0,0,1,162.56,321c.13,3.21,5.13,3.22,5,0a31.85,31.85,0,0,0-10.7-22.87c-2.4-2.13-6,1.39-3.54,3.53Z" transform="translate(-88.75 -58.17)"/><path class="cls-1" d="M140.82,296.89c9.43-6.67,21.42-3.2,26,7.39,1.26,3,5.57.41,4.31-2.52a21.78,21.78,0,0,0-32.8-9.19c-2.61,1.84-.11,6.18,2.52,4.32Z" transform="translate(-88.75 -58.17)"/><path class="cls-1" d="M243.34,262.62l-18.08,4.8c-3.11.82-1.79,5.64,1.33,4.82l18.07-4.8c3.11-.83,1.79-5.65-1.32-4.82Z" transform="translate(-88.75 -58.17)"/><path class="cls-1" d="M223.51,271.31a193,193,0,0,0-8.57,31.05c-.6,3.14,4.22,4.49,4.82,1.33a193.72,193.72,0,0,1,8.57-31.05c1.11-3-3.72-4.33-4.82-1.33Z" transform="translate(-88.75 -58.17)"/><path class="cls-1" d="M236.42,268.09c-2.45,5.85.52,13.43,5.26,17.28s13,3.68,17.89.13c1.51-1.09,4-3.62,4-5.7,0-.38-1.24.56-.78.34s.88-.1,1.27-.41c3.53-2.72,3.3-10.23,3.82-14,.44-3.14-4.38-4.5-4.82-1.33-.4,2.95-.77,5.92-1.38,8.83-.13.65-.65,2.34-.61,2.61,0,0,2.27-1.3.61-.51-.3.14-.44,0-.83.3A5.09,5.09,0,0,0,259.4,277c-.87,1.26-.87,2.67-2,3.85-2,2-5.53,2.52-8.2,2.23-6.09-.65-10.31-8-7.94-13.67,1.24-3-3.59-4.25-4.82-1.32Z" transform="translate(-88.75 -58.17)"/><path class="cls-1" d="M264.73,450.64A21.53,21.53,0,0,0,288,467.53c3.16-.39,3.2-5.4,0-5a16.64,16.64,0,0,1-18.44-13.22c-.64-3.15-5.46-1.82-4.83,1.33Z" transform="translate(-88.75 -58.17)"/><path class="cls-1" d="M205.66,455.05a153.12,153.12,0,0,1-4.83,24.18c-1.35,4.7-5.75,12-2.31,16.7,2.94,4,8.81,3.72,13.19,3.45,8.81-.53,17.62-1,26.43-1.34q25.47-.92,51-.31c13.92.32,29.64,3,42.9-2.56,2.92-1.22,1.64-6.07-1.33-4.83-12,5-26,2.8-38.63,2.46q-22-.6-44.1-.06-10.77.27-21.55.8-5.38.25-10.76.59c-3,.18-7.31,1.18-10.26.2-4.7-1.55-2.05-6.27-1-9.44s1.92-6.36,2.72-9.58a165.57,165.57,0,0,0,3.6-20.26c.37-3.19-4.63-3.16-5,0Z" transform="translate(-88.75 -58.17)"/><path class="cls-1" d="M319.14,441.39q4.51,26.25,11.36,52c.83,3.11,5.65,1.79,4.82-1.33-4.56-17.15-8.35-34.53-11.35-52-.55-3.16-5.37-1.82-4.83,1.33Z" transform="translate(-88.75 -58.17)"/><path class="cls-1" d="M229.5,499v17c0,3.22,5,3.22,5,0V499c0-3.22-5-3.22-5,0Z" transform="translate(-88.75 -58.17)"/><path class="cls-1" d="M238.5,497v19c0,3.22,5,3.22,5,0V497c0-3.22-5-3.22-5,0Z" transform="translate(-88.75 -58.17)"/><path class="cls-1" d="M290.09,496.05c.21,6-.43,12.91,1.7,18.61,1.12,3,5.95,1.7,4.82-1.32-2-5.29-1.33-11.73-1.52-17.29-.11-3.21-5.11-3.22-5,0Z" transform="translate(-88.75 -58.17)"/><path class="cls-1" d="M297.29,497l1.1,14c.25,3.19,5.25,3.21,5,0l-1.1-14c-.25-3.19-5.26-3.22-5,0Z" transform="translate(-88.75 -58.17)"/><path class="cls-1" d="M283.78,519.28c9.18-.37,18.16-2.77,27.05-4.87,3.13-.74,1.81-5.56-1.33-4.82-8.45,2-17,4.33-25.72,4.69-3.2.14-3.22,5.14,0,5Z" transform="translate(-88.75 -58.17)"/><path class="cls-1" d="M281.27,518l1.14,27.15c.12,2.71-.53,6.73,1.13,9.16,1.51,2.19,4.81,2.36,7.14,2.8,15.58,2.87,32.88,3.84,48.46.36,4.86-1.08,10-3.63,11.21-8.89,1.3-5.48-2.2-10.81-6.75-13.55-6.3-3.79-14.88-4.67-22.08-4.68-1.44,0-4.11.74-5.33.18-2.45-1.13-2.11-3.85-2.37-6.21a81.4,81.4,0,0,1-.27-13.34c.18-3.21-4.82-3.2-5,0-.33,6.06-.33,12.46,1,18.42,1,4.59,3.61,6.11,8.16,6.07,7.28-.07,15.3-.16,22,3.13,3.42,1.67,6.9,5.08,5.5,9.21-1.07,3.17-4.38,4.17-7.38,4.84-13.44,3-28.59,2.36-42.11.26-1.83-.28-6.89-.36-8-1.94-.48-.66-.21-5-.25-5.82l-.2-4.85-.94-22.3c-.14-3.21-5.14-3.23-5,0Z" transform="translate(-88.75 -58.17)"/><path class="cls-1" d="M221.36,519.41c9.55,2.39,19.68,1.56,29.27-.2,3.16-.57,1.82-5.39-1.33-4.82-8.67,1.59-18,2.36-26.61.2-3.12-.78-4.45,4-1.33,4.82Z" transform="translate(-88.75 -58.17)"/><path class="cls-1" d="M248.5,519c0,10.44-.18,20.88-.19,31.32,0,3.21,5,3.22,5,0,0-10.44.18-20.88.19-31.32,0-3.22-5-3.22-5,0Z" transform="translate(-88.75 -58.17)"/><path class="cls-1" d="M219.53,518.36l-.11,17,3.16-2.41a57,57,0,0,0-33,3.8c-6.35,2.67-15.23,10-11.54,17.83,2.23,4.76,6.18,4.38,10.82,4.48,7.21.16,14.42,0,21.61-.34a365.57,365.57,0,0,0,41-4.62l-2.43-4.18c1.12-1,0-.37-.88-.14s-2.11-.28-.51.52l-.6,4.57a38.9,38.9,0,0,1,4.42-.77l-3.17-2.41-.12,1.3c-.32,3.2,4.68,3.17,5,0l.12-1.3c.18-1.78-1.73-2.64-3.16-2.41a36.8,36.8,0,0,0-4.42.77c-2,.55-2.58,3.58-.6,4.56s6,.2,7.45-1.15c2-1.83-.19-4.55-2.43-4.18a331.6,331.6,0,0,1-59.27,4.82c-2.62,0-9.08,1.08-8.47-4.06.16-1.36,1.73-3.47,2.62-4.45,2.45-2.73,6-4.18,9.4-5.31,8.8-2.93,17.61-4.28,26.82-2.51a2.54,2.54,0,0,0,3.17-2.41l.11-17c0-3.22-5-3.22-5,0Z" transform="translate(-88.75 -58.17)"/><path class="cls-1" d="M166.74,303.85c.55,2,4.81,14.93.47,14.81-3.22-.09-3.22,4.91,0,5,10.84.29,5.9-15.55,4.35-21.14-.85-3.09-5.68-1.78-4.82,1.33Z" transform="translate(-88.75 -58.17)"/><path class="cls-1" d="M158.24,323.91a6.36,6.36,0,0,0,5.85-.11,2.52,2.52,0,0,0,.9-3.42,2.56,2.56,0,0,0-3.42-.9c-.59.32.44-.11-.2.08s.41.05-.19.05c-.16,0-.73-.12-.2,0-.12,0-.7-.24-.22,0a2.56,2.56,0,0,0-3.42.89,2.52,2.52,0,0,0,.9,3.42Z" transform="translate(-88.75 -58.17)"/><path class="cls-1" d="M153.77,321.67a6.29,6.29,0,0,0,2.14-2.41,2.67,2.67,0,0,0,.25-1.92,2.56,2.56,0,0,0-1.14-1.5,2.53,2.53,0,0,0-3.42.9l-.22.41c0,.07-.3.45-.06.12s-.06,0-.11.09-.52.4,0,0a2.69,2.69,0,0,0-1.15,1.5,2.5,2.5,0,0,0,3.67,2.82Z" transform="translate(-88.75 -58.17)"/><path class="cls-1" d="M151.5,322.75c3.22,0,3.22-5,0-5s-3.22,5,0,5Z" transform="translate(-88.75 -58.17)"/><path class="cls-1" d="M235.16,142.93a58.64,58.64,0,0,0-6.83,17.35c-.69,3.14,4.13,4.48,4.82,1.33a54.2,54.2,0,0,1,6.33-16.15c1.64-2.78-2.68-5.3-4.32-2.53Z" transform="translate(-88.75 -58.17)"/><path class="cls-1" d="M243.2,140.9a30.38,30.38,0,0,0-1.88,18.83c.68,3.14,5.5,1.81,4.82-1.33a24.51,24.51,0,0,1,1.38-15c1.25-2.92-3.06-5.47-4.32-2.52Z" transform="translate(-88.75 -58.17)"/><path class="cls-1" d="M253.7,139.63a23.65,23.65,0,0,0-3.41,20.13c.86,3.09,5.68,1.78,4.82-1.33A18.75,18.75,0,0,1,258,142.16c1.86-2.64-2.48-5.14-4.32-2.53Z" transform="translate(-88.75 -58.17)"/><path class="cls-1" d="M264,141.79a32.41,32.41,0,0,0-1.9,14.7c.32,3.17,5.33,3.21,5,0a29.18,29.18,0,0,1,1.72-13.38c1.13-3-3.7-4.32-4.82-1.32Z" transform="translate(-88.75 -58.17)"/><path class="cls-1" d="M117.45,439l.17,18.07a2.52,2.52,0,0,0,3.76,2.16,32,32,0,0,1,13.17-5.13,2.51,2.51,0,0,0,1.84-2.41l.12-10.92c0-2.32.57-5.43-.9-7.48-2.7-3.76-10-1.55-13.66-1.2-3.18.3-3.21,5.3,0,5a45.49,45.49,0,0,1,6.56-.62c2.47.14,2.56-.23,3,2.48.69,4-.1,8.72-.14,12.74l1.83-2.41a35.36,35.36,0,0,0-14.37,5.63l3.77,2.16L122.45,439c0-3.21-5-3.22-5,0Z" transform="translate(-88.75 -58.17)"/><path class="cls-1" d="M139.52,434l0,9.22c0,2-.4,4.27.25,6.18,1.36,4.05,6.54,3.11,9.86,3.12,3.54,0,8,.54,8.86-3.94.4-2.13.08-4.49.06-6.66L158.4,433a2.51,2.51,0,0,0-2.5-2.5l-13.9,1c-3.19.23-3.22,5.24,0,5l13.9-1-2.5-2.5.12,10.23c0,.51.33,3.44,0,3.84-.69,1-2.88.48-4,.48-.76,0-4.29.46-4.79,0-.71-.68-.33-2.07-.33-3l.05-10.53c0-3.22-5-3.22-5,0Z" transform="translate(-88.75 -58.17)"/><path class="cls-1" d="M162.46,430l.16,19.07a2.52,2.52,0,0,0,3.17,2.41l11.67-3.69c3.06-1,1.75-5.8-1.33-4.83l-11.67,3.7,3.16,2.41L167.46,430c0-3.21-5-3.22-5,0Z" transform="translate(-88.75 -58.17)"/><path class="cls-1" d="M163.37,429.26a64.51,64.51,0,0,0,15.56,1.33l-2.5-2.5.09,17.91c0,3.22,5,3.22,5,0l-.09-17.91a2.53,2.53,0,0,0-2.5-2.5,59.11,59.11,0,0,1-14.23-1.15c-3.14-.64-4.48,4.18-1.33,4.82Z" transform="translate(-88.75 -58.17)"/><path class="cls-1" d="M115,407.46l.16,18.07a2.52,2.52,0,0,0,3.77,2.15,32.05,32.05,0,0,1,13.17-5.12,2.51,2.51,0,0,0,1.83-2.41l.13-10.93c0-2.32.57-5.42-.9-7.47-2.7-3.77-10-1.55-13.66-1.21-3.18.3-3.21,5.31,0,5a46.65,46.65,0,0,1,6.56-.61c2.47.14,2.55-.23,3,2.47.69,4-.1,8.73-.15,12.75l1.84-2.41a35.11,35.11,0,0,0-14.37,5.63l3.76,2.16L120,407.46c0-3.22-5-3.23-5,0Z" transform="translate(-88.75 -58.17)"/><path class="cls-1" d="M137.09,402.46l-.05,9.21c0,2-.39,4.28.25,6.19,1.37,4.05,6.55,3.11,9.86,3.11,3.55,0,8,.55,8.87-3.93a35.27,35.27,0,0,0,0-6.66l-.1-9a2.52,2.52,0,0,0-2.5-2.5l-13.9,1c-3.19.23-3.22,5.23,0,5l13.9-1-2.5-2.5.12,10.24c0,.51.33,3.44,0,3.84-.68,1-2.87.48-4,.47-.75,0-4.28.47-4.78,0-.71-.68-.34-2.06-.33-3l.05-10.53c0-3.22-5-3.22-5,0Z" transform="translate(-88.75 -58.17)"/><path class="cls-1" d="M160,398.46l.16,19.07a2.52,2.52,0,0,0,3.16,2.41l11.68-3.7c3.05-1,1.75-5.8-1.33-4.82L162,415.11l3.17,2.42L165,398.46c0-3.22-5-3.22-5,0Z" transform="translate(-88.75 -58.17)"/><path class="cls-1" d="M160.94,397.72a65,65,0,0,0,15.56,1.33l-2.5-2.5.09,17.91c0,3.21,5,3.22,5,0L179,396.55a2.53,2.53,0,0,0-2.5-2.5,59.62,59.62,0,0,1-14.23-1.15c-3.14-.65-4.49,4.17-1.33,4.82Z" transform="translate(-88.75 -58.17)"/><path class="cls-1" d="M104.35,375l.16,18.07a2.52,2.52,0,0,0,3.76,2.16,32.12,32.12,0,0,1,13.17-5.13,2.51,2.51,0,0,0,1.84-2.41l.12-10.92c0-2.32.57-5.43-.9-7.48-2.7-3.76-10-1.55-13.66-1.2-3.18.3-3.21,5.3,0,5a45.49,45.49,0,0,1,6.56-.62c2.47.14,2.56-.23,3,2.48.68,4-.1,8.72-.15,12.74l1.83-2.41a35.26,35.26,0,0,0-14.36,5.63l3.76,2.16L109.35,375c0-3.21-5-3.22-5,0Z" transform="translate(-88.75 -58.17)"/><path class="cls-1" d="M126.41,370l0,9.22c0,2-.39,4.27.25,6.18,1.36,4.05,6.54,3.11,9.86,3.12,3.54,0,8,.54,8.86-3.94.4-2.13.08-4.49.06-6.65l-.11-9a2.51,2.51,0,0,0-2.5-2.5l-13.9,1c-3.19.24-3.21,5.24,0,5l13.9-1-2.5-2.5.12,10.24c0,.51.33,3.44.05,3.84-.69,1-2.88.47-4,.47-.76,0-4.29.46-4.79,0-.71-.68-.33-2.07-.33-3l0-10.53c0-3.21-5-3.22-5,0Z" transform="translate(-88.75 -58.17)"/><path class="cls-1" d="M149.35,366l.16,19.07a2.53,2.53,0,0,0,3.17,2.41l11.67-3.69c3.06-1,1.75-5.8-1.33-4.82l-11.67,3.69,3.16,2.41L154.35,366c0-3.21-5-3.22-5,0Z" transform="translate(-88.75 -58.17)"/><path class="cls-1" d="M150.26,365.26a65.06,65.06,0,0,0,15.56,1.32l-2.5-2.5.09,17.91c0,3.22,5,3.22,5,0l-.09-17.91a2.53,2.53,0,0,0-2.5-2.5,59.11,59.11,0,0,1-14.23-1.15c-3.14-.64-4.48,4.18-1.33,4.83Z" transform="translate(-88.75 -58.17)"/><path class="cls-1" d="M187.51,428.82l.16,18.07a2.52,2.52,0,0,0,3.76,2.16,32.12,32.12,0,0,1,13.17-5.13,2.5,2.5,0,0,0,1.84-2.41l.12-10.92c0-2.32.57-5.43-.9-7.48-2.7-3.76-10-1.55-13.66-1.2-3.18.3-3.21,5.3,0,5a45.49,45.49,0,0,1,6.56-.62c2.47.14,2.56-.23,3,2.48.68,4-.1,8.73-.15,12.74l1.84-2.41a35.39,35.39,0,0,0-14.37,5.63l3.76,2.16-.16-18.07c0-3.21-5-3.22-5,0Z" transform="translate(-88.75 -58.17)"/><path class="cls-1" d="M209.57,423.82l0,9.22c0,2-.39,4.27.25,6.18,1.36,4,6.54,3.11,9.86,3.12,3.54,0,8,.54,8.86-3.94.4-2.13.08-4.49.06-6.65l-.1-9a2.53,2.53,0,0,0-2.5-2.5l-13.91,1c-3.19.24-3.21,5.24,0,5l13.91-1-2.5-2.5.11,10.24c0,.51.33,3.44.05,3.84-.69,1-2.88.47-4,.47-.76,0-4.29.47-4.79,0-.71-.68-.33-2.07-.33-3l0-10.53c0-3.21-5-3.22-5,0Z" transform="translate(-88.75 -58.17)"/><path class="cls-1" d="M232.51,419.83l.16,19.06a2.53,2.53,0,0,0,3.17,2.41l11.67-3.69c3.06-1,1.75-5.8-1.33-4.82l-11.67,3.69,3.16,2.41-.16-19.06c0-3.22-5-3.23-5,0Z" transform="translate(-88.75 -58.17)"/><path class="cls-1" d="M233.42,419.09A65.06,65.06,0,0,0,249,420.41l-2.5-2.5.09,17.91c0,3.22,5,3.23,5,0l-.09-17.91a2.53,2.53,0,0,0-2.5-2.5,59.11,59.11,0,0,1-14.23-1.15c-3.14-.64-4.48,4.18-1.33,4.83Z" transform="translate(-88.75 -58.17)"/><path class="cls-1" d="M183.26,395.5l.16,18.07a2.53,2.53,0,0,0,3.77,2.16,31.93,31.93,0,0,1,13.17-5.13,2.52,2.52,0,0,0,1.84-2.41l.12-10.93c0-2.32.57-5.42-.9-7.47-2.7-3.76-10-1.55-13.66-1.2-3.18.3-3.21,5.3,0,5a45.49,45.49,0,0,1,6.56-.62c2.47.14,2.55-.23,3,2.47.69,4-.1,8.73-.14,12.75l1.83-2.41a35.36,35.36,0,0,0-14.37,5.63l3.76,2.16-.16-18.07c0-3.22-5-3.23-5,0Z" transform="translate(-88.75 -58.17)"/><path class="cls-1" d="M205.33,390.5l-.05,9.21c0,2-.39,4.28.26,6.19,1.36,4.05,6.54,3.11,9.85,3.11,3.55,0,8,.55,8.87-3.93a35.27,35.27,0,0,0,.05-6.66l-.1-9a2.52,2.52,0,0,0-2.5-2.5l-13.9,1c-3.19.23-3.22,5.23,0,5l13.9-1-2.5-2.5.12,10.24c0,.51.33,3.44,0,3.84-.68,1-2.87.48-4,.47-.75,0-4.28.47-4.78,0-.71-.67-.34-2.06-.33-3l.05-10.53c0-3.22-5-3.22-5,0Z" transform="translate(-88.75 -58.17)"/><path class="cls-1" d="M228.27,386.5l.16,19.07a2.52,2.52,0,0,0,3.16,2.41l11.68-3.7c3-1,1.75-5.79-1.33-4.82l-11.68,3.7,3.17,2.41-.16-19.07c0-3.22-5-3.22-5,0Z" transform="translate(-88.75 -58.17)"/><path class="cls-1" d="M229.18,385.76a65,65,0,0,0,15.56,1.33l-2.5-2.5.09,17.91c0,3.21,5,3.22,5,0l-.09-17.91a2.53,2.53,0,0,0-2.5-2.5,59.11,59.11,0,0,1-14.23-1.15c-3.14-.65-4.49,4.17-1.33,4.82Z" transform="translate(-88.75 -58.17)"/><path class="cls-1" d="M180,363l.16,18.07a2.52,2.52,0,0,0,3.76,2.16,32.26,32.26,0,0,1,13.17-5.13,2.5,2.5,0,0,0,1.84-2.41L199,364.8c0-2.32.57-5.43-.9-7.48-2.7-3.76-10-1.54-13.66-1.2-3.18.3-3.21,5.3,0,5a47,47,0,0,1,6.56-.62c2.47.14,2.56-.22,3,2.48.68,4-.1,8.73-.15,12.74l1.83-2.41a35.4,35.4,0,0,0-14.36,5.63l3.76,2.16L185,363c0-3.21-5-3.22-5,0Z" transform="translate(-88.75 -58.17)"/><path class="cls-1" d="M202,358l0,9.22c0,2-.39,4.27.25,6.18,1.36,4.06,6.54,3.11,9.86,3.12,3.54,0,8,.55,8.86-3.94.4-2.13.08-4.48.06-6.65l-.11-9a2.51,2.51,0,0,0-2.5-2.5l-13.9,1c-3.19.24-3.21,5.24,0,5l13.9-1-2.5-2.5.12,10.24c0,.51.33,3.44.05,3.84-.69,1-2.88.47-4,.47-.76,0-4.29.47-4.79,0-.71-.68-.33-2.06-.33-3L207,358c0-3.21-5-3.22-5,0Z" transform="translate(-88.75 -58.17)"/><path class="cls-1" d="M225,354l.16,19.06a2.53,2.53,0,0,0,3.17,2.41L240,371.82c3.06-1,1.75-5.8-1.33-4.82L227,370.69l3.16,2.41L230,354c0-3.22-5-3.23-5,0Z" transform="translate(-88.75 -58.17)"/><path class="cls-1" d="M225.89,353.3a65.06,65.06,0,0,0,15.56,1.32l-2.5-2.5L239,370c0,3.22,5,3.23,5,0L244,352.12a2.53,2.53,0,0,0-2.5-2.5,59.11,59.11,0,0,1-14.23-1.14c-3.14-.65-4.48,4.17-1.33,4.82Z" transform="translate(-88.75 -58.17)"/><path class="cls-1" d="M102,341.51l.16,18.07a2.52,2.52,0,0,0,3.77,2.15,32.11,32.11,0,0,1,13.17-5.12A2.53,2.53,0,0,0,121,354.2l.12-10.93c0-2.32.57-5.42-.9-7.47-2.7-3.77-10-1.55-13.66-1.21-3.18.3-3.21,5.31,0,5a46.93,46.93,0,0,1,6.56-.61c2.47.14,2.55-.23,3,2.47.69,4-.1,8.73-.14,12.75l1.83-2.41a35.22,35.22,0,0,0-14.37,5.63l3.76,2.16L107,341.51c0-3.22-5-3.23-5,0Z" transform="translate(-88.75 -58.17)"/><path class="cls-1" d="M124.09,336.51l0,9.21c0,2-.4,4.28.25,6.19,1.36,4,6.54,3.11,9.85,3.11,3.55,0,8,.55,8.87-3.93a36.12,36.12,0,0,0,.06-6.66l-.11-9a2.51,2.51,0,0,0-2.5-2.5l-13.9,1c-3.19.23-3.22,5.23,0,5l13.9-1-2.5-2.5.12,10.24c0,.51.33,3.44,0,3.84-.68,1-2.87.48-4,.47-.75,0-4.28.47-4.78,0-.71-.68-.34-2.06-.33-3l.05-10.53c0-3.22-5-3.22-5,0Z" transform="translate(-88.75 -58.17)"/><path class="cls-1" d="M147,332.51l.16,19.07a2.52,2.52,0,0,0,3.16,2.41l11.68-3.7c3.05-1,1.75-5.8-1.33-4.82L149,349.17l3.17,2.41L152,332.51c0-3.22-5-3.22-5,0Z" transform="translate(-88.75 -58.17)"/><path class="cls-1" d="M147.94,331.77a65,65,0,0,0,15.56,1.33l-2.5-2.5.09,17.91c0,3.21,5,3.22,5,0L166,330.6a2.53,2.53,0,0,0-2.5-2.5A59.11,59.11,0,0,1,149.27,327c-3.14-.65-4.48,4.17-1.33,4.82Z" transform="translate(-88.75 -58.17)"/><path class="cls-1" d="M172.44,329.55l.17,18.07a2.52,2.52,0,0,0,3.76,2.16,32,32,0,0,1,13.17-5.13,2.51,2.51,0,0,0,1.84-2.41l.12-10.93c0-2.32.57-5.42-.9-7.47-2.7-3.76-10-1.55-13.66-1.2-3.18.3-3.21,5.3,0,5a45.49,45.49,0,0,1,6.56-.62c2.47.14,2.56-.23,3,2.47.69,4-.1,8.73-.14,12.75l1.83-2.41a35.26,35.26,0,0,0-14.36,5.63l3.76,2.16-.17-18.07c0-3.22-5-3.23-5,0Z" transform="translate(-88.75 -58.17)"/><path class="cls-1" d="M194.51,324.55l0,9.21c0,2-.39,4.28.25,6.19,1.36,4.05,6.54,3.11,9.86,3.11,3.54,0,8,.55,8.86-3.93.4-2.14.08-4.49.06-6.66l-.11-9a2.52,2.52,0,0,0-2.5-2.5L197,322c-3.19.23-3.22,5.23,0,5l13.9-1-2.5-2.5.12,10.24c0,.51.33,3.44.05,3.84-.69,1-2.88.48-4,.47-.76,0-4.29.47-4.79,0-.71-.67-.33-2.06-.33-3l0-10.53c0-3.22-5-3.22-5,0Z" transform="translate(-88.75 -58.17)"/><path class="cls-1" d="M217.45,320.55l.16,19.07a2.53,2.53,0,0,0,3.17,2.41l11.67-3.7c3.06-1,1.75-5.79-1.33-4.82l-11.67,3.7,3.16,2.41-.16-19.07c0-3.22-5-3.22-5,0Z" transform="translate(-88.75 -58.17)"/><path class="cls-1" d="M218.36,319.81a65.06,65.06,0,0,0,15.56,1.33l-2.5-2.5.09,17.91c0,3.21,5,3.22,5,0l-.09-17.91a2.53,2.53,0,0,0-2.5-2.5A59.11,59.11,0,0,1,219.69,315c-3.14-.65-4.48,4.17-1.33,4.82Z" transform="translate(-88.75 -58.17)"/><path class="cls-1" d="M260.56,420.89l.16,18.07a2.52,2.52,0,0,0,3.76,2.16A32,32,0,0,1,277.66,436a2.52,2.52,0,0,0,1.83-2.41l.13-10.93c0-2.32.56-5.42-.91-7.47-2.7-3.77-10-1.55-13.66-1.2-3.17.3-3.21,5.3,0,5a45.49,45.49,0,0,1,6.56-.62c2.48.14,2.56-.23,3,2.47.68,4-.1,8.73-.15,12.75l1.84-2.41A35.11,35.11,0,0,0,262,436.8l3.76,2.16-.16-18.07c0-3.22-5-3.23-5,0Z" transform="translate(-88.75 -58.17)"/><path class="cls-1" d="M282.62,415.89l0,9.21c0,2-.39,4.28.25,6.19,1.37,4,6.54,3.11,9.86,3.11,3.55,0,8,.55,8.87-3.93a36.12,36.12,0,0,0,.05-6.66l-.1-9a2.53,2.53,0,0,0-2.5-2.5l-13.91,1c-3.19.23-3.21,5.23,0,5l13.91-1-2.5-2.5.11,10.24c0,.51.33,3.44.05,3.84-.69,1-2.88.48-4,.47-.76,0-4.29.47-4.79,0-.71-.67-.33-2.06-.33-3l.05-10.53c0-3.22-5-3.22-5,0Z" transform="translate(-88.75 -58.17)"/><path class="cls-1" d="M256,393.07l.16,18.07a2.52,2.52,0,0,0,3.76,2.16,32.17,32.17,0,0,1,13.18-5.13,2.5,2.5,0,0,0,1.83-2.41l.13-10.92c0-2.32.57-5.43-.9-7.48-2.7-3.76-10-1.55-13.67-1.2-3.17.3-3.2,5.3,0,5a45.49,45.49,0,0,1,6.57-.62c2.47.14,2.55-.23,3,2.48.69,4-.1,8.73-.15,12.74l1.84-2.41A35.39,35.39,0,0,0,257.37,409l3.76,2.16L261,393.07c0-3.21-5-3.22-5,0Z" transform="translate(-88.75 -58.17)"/><path class="cls-1" d="M278,388.07l-.05,9.22c0,2-.39,4.27.25,6.18,1.37,4,6.54,3.11,9.86,3.12,3.55,0,8,.54,8.87-3.94a35.16,35.16,0,0,0,0-6.65l-.1-9a2.53,2.53,0,0,0-2.5-2.5l-13.9,1c-3.19.24-3.22,5.24,0,5l13.9-1-2.5-2.5.12,10.24c0,.51.33,3.44,0,3.84-.68,1-2.87.47-4,.47-.76,0-4.28.47-4.78,0-.71-.68-.34-2.07-.33-3l.05-10.53c0-3.21-5-3.22-5,0Z" transform="translate(-88.75 -58.17)"/><path class="cls-1" d="M301,384.08l.16,19.06a2.52,2.52,0,0,0,3.16,2.41l1.3-.41c3.06-1,1.75-5.79-1.33-4.82l-1.3.41,3.17,2.41L306,384.08c0-3.22-5-3.23-5,0Z" transform="translate(-88.75 -58.17)"/><path class="cls-1" d="M258.26,357.5l.16,18.07a2.52,2.52,0,0,0,3.76,2.16,32,32,0,0,1,13.18-5.13,2.51,2.51,0,0,0,1.83-2.41l.13-10.93c0-2.32.56-5.42-.91-7.47-2.7-3.76-10-1.55-13.66-1.2-3.17.3-3.2,5.3,0,5a45.49,45.49,0,0,1,6.56-.62c2.48.14,2.56-.23,3,2.47.68,4-.1,8.73-.15,12.75l1.84-2.41a35.25,35.25,0,0,0-14.37,5.63l3.76,2.16-.16-18.07c0-3.22-5-3.22-5,0Z" transform="translate(-88.75 -58.17)"/><path class="cls-1" d="M280.33,352.5l-.05,9.21c0,2-.39,4.28.25,6.19,1.37,4.05,6.54,3.11,9.86,3.11,3.55,0,8,.55,8.87-3.93a35.26,35.26,0,0,0,.05-6.66l-.1-9a2.53,2.53,0,0,0-2.5-2.5l-13.91,1c-3.19.23-3.21,5.23,0,5l13.91-1-2.5-2.5.12,10.24c0,.51.32,3.44,0,3.84-.69,1-2.87.48-4,.47-.76,0-4.28.47-4.79,0-.71-.67-.33-2.06-.33-3l.06-10.53c0-3.22-5-3.22-5,0Z" transform="translate(-88.75 -58.17)"/><path class="cls-1" d="M250.73,324l.16,18.07a2.52,2.52,0,0,0,3.76,2.16,32.11,32.11,0,0,1,13.18-5.13,2.5,2.5,0,0,0,1.83-2.41l.13-10.92c0-2.32.56-5.43-.91-7.48-2.7-3.76-10-1.55-13.66-1.2-3.17.3-3.2,5.3,0,5a45.49,45.49,0,0,1,6.56-.62c2.48.14,2.56-.23,3,2.48.68,4-.1,8.73-.15,12.74l1.84-2.41a35.39,35.39,0,0,0-14.37,5.63l3.76,2.16L255.73,324c0-3.21-5-3.22-5,0Z" transform="translate(-88.75 -58.17)"/><path class="cls-1" d="M272.79,319l0,9.22c0,2-.39,4.27.25,6.18,1.37,4,6.54,3.11,9.86,3.12,3.55,0,8,.54,8.87-3.94a35.16,35.16,0,0,0,0-6.65l-.1-9a2.53,2.53,0,0,0-2.5-2.5l-13.91,1c-3.19.24-3.21,5.24,0,5l13.91-1-2.5-2.5.12,10.24c0,.51.32,3.44,0,3.84-.69,1-2.87.47-4,.47-.76,0-4.29.47-4.79,0-.71-.68-.33-2.07-.33-3l.05-10.53c0-3.21-5-3.22-5,0Z" transform="translate(-88.75 -58.17)"/><path class="cls-1" d="M320.39,309.25l.16,18.06a2.52,2.52,0,0,0,3.76,2.16,32.15,32.15,0,0,1,13.18-5.12,2.52,2.52,0,0,0,1.83-2.41l.13-10.93c0-2.32.57-5.43-.9-7.47-2.7-3.77-10-1.55-13.67-1.21-3.17.3-3.2,5.31,0,5a48.51,48.51,0,0,1,6.57-.62c2.47.14,2.55-.22,3,2.48.69,4-.1,8.73-.15,12.75l1.84-2.42a35.26,35.26,0,0,0-14.37,5.64l3.76,2.15-.16-18.06c0-3.22-5-3.23-5,0Z" transform="translate(-88.75 -58.17)"/><path class="cls-1" d="M342.46,304.25l0,9.21c0,2-.39,4.28.25,6.18,1.37,4.06,6.54,3.11,9.86,3.12,3.55,0,8,.55,8.87-3.93a35.27,35.27,0,0,0,.05-6.66l-.1-9a2.53,2.53,0,0,0-2.5-2.5l-13.9,1c-3.19.24-3.22,5.24,0,5l13.9-1-2.5-2.5.12,10.24c0,.51.33,3.44,0,3.84-.68,1-2.87.47-4,.47-.76,0-4.28.47-4.78,0-.71-.68-.34-2.06-.33-3l0-10.53c0-3.22-5-3.23-5,0Z" transform="translate(-88.75 -58.17)"/><path class="cls-1" d="M365.4,300.25l.16,19.06a2.52,2.52,0,0,0,3.16,2.41L380.39,318c3.06-1,1.76-5.8-1.32-4.82l-11.68,3.69,3.17,2.41-.16-19.06c0-3.22-5-3.23-5,0Z" transform="translate(-88.75 -58.17)"/><path class="cls-1" d="M366.31,299.51a65,65,0,0,0,15.56,1.33l-2.5-2.5.09,17.9c0,3.22,5,3.23,5,0l-.09-17.9a2.53,2.53,0,0,0-2.5-2.5,59.58,59.58,0,0,1-14.23-1.15c-3.14-.65-4.49,4.17-1.33,4.82Z" transform="translate(-88.75 -58.17)"/><path class="cls-1" d="M326.83,343.35l.16,18.07a2.53,2.53,0,0,0,3.77,2.16,32.07,32.07,0,0,1,13.17-5.13,2.49,2.49,0,0,0,1.83-2.41l.13-10.92c0-2.32.57-5.43-.9-7.48-2.7-3.76-10-1.55-13.66-1.2-3.18.3-3.21,5.3,0,5a45.22,45.22,0,0,1,6.56-.62c2.47.14,2.55-.23,3,2.48.69,4-.1,8.73-.15,12.74l1.84-2.41a35.39,35.39,0,0,0-14.37,5.63l3.76,2.16-.16-18.07c0-3.21-5-3.22-5,0Z" transform="translate(-88.75 -58.17)"/><path class="cls-1" d="M348.9,338.35l0,9.22c0,2-.39,4.27.25,6.18,1.37,4.05,6.55,3.11,9.86,3.12,3.55,0,8,.54,8.87-3.94a35.16,35.16,0,0,0,.05-6.65l-.1-9a2.52,2.52,0,0,0-2.5-2.5l-13.9,1c-3.19.24-3.22,5.24,0,5l13.9-1-2.5-2.5.12,10.24c0,.51.33,3.44,0,3.84-.68,1-2.87.47-4,.47-.75,0-4.28.47-4.78,0-.71-.68-.34-2.07-.33-3l0-10.53c0-3.21-5-3.22-5,0Z" transform="translate(-88.75 -58.17)"/><path class="cls-1" d="M371.84,334.36l.16,19.06a2.52,2.52,0,0,0,3.16,2.41l11.68-3.69c3.05-1,1.75-5.8-1.33-4.82L373.83,351l3.17,2.41-.16-19.06c0-3.22-5-3.23-5,0Z" transform="translate(-88.75 -58.17)"/><path class="cls-1" d="M372.75,333.62a65,65,0,0,0,15.56,1.32l-2.5-2.5.09,17.91c0,3.22,5,3.23,5,0l-.09-17.91a2.53,2.53,0,0,0-2.5-2.5,59.11,59.11,0,0,1-14.23-1.15c-3.14-.64-4.49,4.18-1.33,4.83Z" transform="translate(-88.75 -58.17)"/><path class="cls-1" d="M327,378l.16,18.07a2.52,2.52,0,0,0,3.76,2.16,32.1,32.1,0,0,1,13.18-5.12,2.52,2.52,0,0,0,1.83-2.42l.13-10.92c0-2.32.57-5.43-.9-7.48-2.71-3.76-10-1.54-13.67-1.2-3.17.3-3.2,5.3,0,5a47,47,0,0,1,6.56-.62c2.48.14,2.56-.22,3,2.48.68,4-.1,8.73-.15,12.74l1.84-2.41a35.26,35.26,0,0,0-14.37,5.64l3.76,2.15L332,378c0-3.21-5-3.22-5,0Z" transform="translate(-88.75 -58.17)"/><path class="cls-1" d="M349,373l-.05,9.21c0,2-.39,4.27.25,6.18,1.37,4.06,6.54,3.11,9.86,3.12,3.55,0,8,.55,8.87-3.94a35.15,35.15,0,0,0,0-6.65l-.1-9a2.53,2.53,0,0,0-2.5-2.5l-13.91,1c-3.19.24-3.21,5.24,0,5l13.91-1-2.5-2.5.12,10.24c0,.51.33,3.44,0,3.84-.68,1-2.87.47-4,.47-.76,0-4.28.47-4.78,0-.72-.68-.34-2.06-.33-3L354,373c0-3.22-5-3.23-5,0Z" transform="translate(-88.75 -58.17)"/><path class="cls-1" d="M372,369l.17,19.06a2.52,2.52,0,0,0,3.16,2.41L387,386.75c3.06-1,1.75-5.8-1.33-4.82L374,385.62l3.17,2.41L377,369c0-3.22-5-3.23-5,0Z" transform="translate(-88.75 -58.17)"/><path class="cls-1" d="M372.89,368.23a65.49,65.49,0,0,0,15.56,1.33l-2.5-2.5L386,385c0,3.22,5,3.23,5,0l-.09-17.9a2.53,2.53,0,0,0-2.5-2.5,59.58,59.58,0,0,1-14.23-1.15c-3.14-.65-4.49,4.17-1.33,4.82Z" transform="translate(-88.75 -58.17)"/><path class="cls-1" d="M328,408.93l.16,18.07a2.52,2.52,0,0,0,3.76,2.16A32,32,0,0,1,345.08,424a2.51,2.51,0,0,0,1.83-2.41L347,410.7c0-2.33.57-5.43-.9-7.48-2.7-3.76-10-1.55-13.67-1.2-3.17.3-3.2,5.3,0,5a45.49,45.49,0,0,1,6.57-.62c2.47.14,2.55-.23,3,2.47.69,4-.1,8.73-.15,12.75l1.84-2.41a35.25,35.25,0,0,0-14.37,5.63l3.76,2.16L333,408.93c0-3.22-5-3.22-5,0Z" transform="translate(-88.75 -58.17)"/><path class="cls-1" d="M350.05,403.93l-.05,9.21c0,2-.39,4.28.25,6.19,1.37,4.05,6.54,3.11,9.86,3.12,3.55,0,8,.54,8.87-3.94a35.26,35.26,0,0,0,0-6.66l-.1-9a2.53,2.53,0,0,0-2.5-2.5l-13.9,1c-3.19.23-3.22,5.23,0,5l13.9-1-2.5-2.5.12,10.24c0,.51.33,3.44,0,3.84-.68,1-2.87.48-4,.48-.76,0-4.28.46-4.78,0-.71-.67-.34-2.06-.33-3l.05-10.53c0-3.22-5-3.22-5,0Z" transform="translate(-88.75 -58.17)"/><path class="cls-1" d="M373,399.93l.16,19.07a2.52,2.52,0,0,0,3.16,2.41l11.67-3.7c3.06-1,1.76-5.79-1.32-4.82L375,416.59l3.17,2.41L378,399.93c0-3.21-5-3.22-5,0Z" transform="translate(-88.75 -58.17)"/><path class="cls-1" d="M373.9,399.19a65,65,0,0,0,15.56,1.33L387,398l.09,17.91c0,3.21,5,3.22,5,0L392,398a2.53,2.53,0,0,0-2.5-2.5,59.11,59.11,0,0,1-14.23-1.15c-3.14-.64-4.49,4.17-1.33,4.82Z" transform="translate(-88.75 -58.17)"/><path class="cls-1" d="M395.4,334.36l.17,18.07a2.51,2.51,0,0,0,3.76,2.16,32.11,32.11,0,0,1,13.17-5.12,2.52,2.52,0,0,0,1.84-2.42l.12-10.92c0-2.32.57-5.43-.9-7.47-2.7-3.77-10-1.55-13.66-1.21-3.18.3-3.21,5.31,0,5a48.51,48.51,0,0,1,6.56-.62c2.47.14,2.56-.22,3,2.48.69,4-.1,8.73-.14,12.74l1.83-2.41a35.37,35.37,0,0,0-14.37,5.64l3.77,2.15-.17-18.07c0-3.21-5-3.22-5,0Z" transform="translate(-88.75 -58.17)"/><path class="cls-1" d="M391.86,302.64l.16,18.07a2.52,2.52,0,0,0,3.76,2.16A32.1,32.1,0,0,1,409,317.75a2.52,2.52,0,0,0,1.83-2.42l.13-10.92c0-2.32.56-5.43-.91-7.48-2.7-3.76-10-1.54-13.66-1.2-3.17.3-3.21,5.3,0,5a47,47,0,0,1,6.56-.62c2.48.14,2.56-.22,3,2.48.68,4-.1,8.73-.15,12.74l1.84-2.41a35.39,35.39,0,0,0-14.37,5.63l3.76,2.16-.16-18.07c0-3.21-5-3.22-5,0Z" transform="translate(-88.75 -58.17)"/><path class="cls-1" d="M398,366l.16,18.07a2.52,2.52,0,0,0,3.76,2.16,32.25,32.25,0,0,1,13.18-5.13,2.5,2.5,0,0,0,1.83-2.41l.13-10.92c0-2.32.56-5.43-.91-7.48-2.7-3.76-10-1.54-13.66-1.2-3.17.3-3.2,5.3,0,5a47,47,0,0,1,6.56-.62c2.48.14,2.56-.22,3,2.48.68,4-.1,8.73-.15,12.74l1.84-2.41a35.39,35.39,0,0,0-14.37,5.63l3.76,2.16L403,366c0-3.21-5-3.22-5,0Z" transform="translate(-88.75 -58.17)"/><path class="cls-1" d="M395.65,396.48l.17,18.07a2.52,2.52,0,0,0,3.76,2.16,32,32,0,0,1,13.17-5.13,2.52,2.52,0,0,0,1.84-2.41l.12-10.92c0-2.32.57-5.43-.9-7.48-2.7-3.76-10-1.55-13.66-1.2-3.18.3-3.21,5.3,0,5a45.49,45.49,0,0,1,6.56-.62c2.47.14,2.56-.23,3,2.48.69,4-.1,8.72-.14,12.74l1.83-2.41a35.36,35.36,0,0,0-14.37,5.63l3.77,2.16-.17-18.07c0-3.22-5-3.22-5,0Z" transform="translate(-88.75 -58.17)"/></svg>