G04 #@! TF.GenerationSoftware,KiCad,Pcbnew,5.1.5-52549c5~86~ubuntu19.10.1*
G04 #@! TF.CreationDate,2020-05-05T19:49:36+02:00*
G04 #@! TF.ProjectId,bottom_plate,626f7474-6f6d-45f7-906c-6174652e6b69,rev?*
G04 #@! TF.SameCoordinates,Original*
G04 #@! TF.FileFunction,Soldermask,Bot*
G04 #@! TF.FilePolarity,Negative*
%FSLAX46Y46*%
G04 Gerber Fmt 4.6, Leading zero omitted, Abs format (unit mm)*
G04 Created by KiCad (PCBNEW 5.1.5-52549c5~86~ubuntu19.10.1) date 2020-05-05 19:49:36*
%MOMM*%
%LPD*%
G04 APERTURE LIST*
%ADD10C,0.010000*%
%ADD11C,4.400000*%
G04 APERTURE END LIST*
D10*
G36*
X53227363Y-150549881D02*
G01*
X53354363Y-150769851D01*
X53426828Y-150890655D01*
X53475589Y-150950324D01*
X53517495Y-150962042D01*
X53569394Y-150938997D01*
X53570019Y-150938636D01*
X53689502Y-150880829D01*
X53751143Y-150883051D01*
X53760089Y-150948752D01*
X53733191Y-151048073D01*
X53700326Y-151204246D01*
X53712416Y-151366013D01*
X53773569Y-151551178D01*
X53887890Y-151777546D01*
X53910601Y-151817412D01*
X54025688Y-151998452D01*
X54134248Y-152123542D01*
X54235097Y-152202985D01*
X54363781Y-152270792D01*
X54502576Y-152298186D01*
X54659158Y-152295762D01*
X54779207Y-152283521D01*
X54888364Y-152260018D01*
X55007019Y-152217820D01*
X55155564Y-152149493D01*
X55354389Y-152047604D01*
X55387097Y-152030397D01*
X55700288Y-151853874D01*
X55424785Y-151376689D01*
X55177045Y-151518745D01*
X55049657Y-151581714D01*
X54822218Y-151671975D01*
X54644181Y-151702474D01*
X54505511Y-151673744D01*
X54422758Y-151615077D01*
X54310408Y-151476211D01*
X54208902Y-151301708D01*
X54137582Y-151127978D01*
X54117456Y-151040305D01*
X54111447Y-150911873D01*
X54136439Y-150803362D01*
X54202103Y-150703184D01*
X54318120Y-150599754D01*
X54494165Y-150481483D01*
X54672822Y-150375256D01*
X54905969Y-150246772D01*
X55085502Y-150166011D01*
X55226422Y-150131094D01*
X55343729Y-150140140D01*
X55452426Y-150191268D01*
X55548262Y-150265548D01*
X55672332Y-150404953D01*
X55772456Y-150575277D01*
X55838061Y-150751363D01*
X55858582Y-150908061D01*
X55846977Y-150976407D01*
X55771478Y-151096618D01*
X55626838Y-151233013D01*
X55424785Y-151376689D01*
X55700288Y-151853874D01*
X55735651Y-151833943D01*
X56008285Y-151650018D01*
X56211572Y-151472113D01*
X56352091Y-151293714D01*
X56436418Y-151108314D01*
X56466643Y-150961630D01*
X56465072Y-150858949D01*
X56432376Y-150739320D01*
X56361535Y-150580223D01*
X56325881Y-150509989D01*
X56177247Y-150257559D01*
X56027097Y-150077792D01*
X55864095Y-149959259D01*
X55723864Y-149902862D01*
X55541204Y-149849454D01*
X56912072Y-149057983D01*
X56636905Y-148581381D01*
X53227363Y-150549881D01*
G37*
X53227363Y-150549881D02*
X53354363Y-150769851D01*
X53426828Y-150890655D01*
X53475589Y-150950324D01*
X53517495Y-150962042D01*
X53569394Y-150938997D01*
X53570019Y-150938636D01*
X53689502Y-150880829D01*
X53751143Y-150883051D01*
X53760089Y-150948752D01*
X53733191Y-151048073D01*
X53700326Y-151204246D01*
X53712416Y-151366013D01*
X53773569Y-151551178D01*
X53887890Y-151777546D01*
X53910601Y-151817412D01*
X54025688Y-151998452D01*
X54134248Y-152123542D01*
X54235097Y-152202985D01*
X54363781Y-152270792D01*
X54502576Y-152298186D01*
X54659158Y-152295762D01*
X54779207Y-152283521D01*
X54888364Y-152260018D01*
X55007019Y-152217820D01*
X55155564Y-152149493D01*
X55354389Y-152047604D01*
X55387097Y-152030397D01*
X55700288Y-151853874D01*
X55424785Y-151376689D01*
X55177045Y-151518745D01*
X55049657Y-151581714D01*
X54822218Y-151671975D01*
X54644181Y-151702474D01*
X54505511Y-151673744D01*
X54422758Y-151615077D01*
X54310408Y-151476211D01*
X54208902Y-151301708D01*
X54137582Y-151127978D01*
X54117456Y-151040305D01*
X54111447Y-150911873D01*
X54136439Y-150803362D01*
X54202103Y-150703184D01*
X54318120Y-150599754D01*
X54494165Y-150481483D01*
X54672822Y-150375256D01*
X54905969Y-150246772D01*
X55085502Y-150166011D01*
X55226422Y-150131094D01*
X55343729Y-150140140D01*
X55452426Y-150191268D01*
X55548262Y-150265548D01*
X55672332Y-150404953D01*
X55772456Y-150575277D01*
X55838061Y-150751363D01*
X55858582Y-150908061D01*
X55846977Y-150976407D01*
X55771478Y-151096618D01*
X55626838Y-151233013D01*
X55424785Y-151376689D01*
X55700288Y-151853874D01*
X55735651Y-151833943D01*
X56008285Y-151650018D01*
X56211572Y-151472113D01*
X56352091Y-151293714D01*
X56436418Y-151108314D01*
X56466643Y-150961630D01*
X56465072Y-150858949D01*
X56432376Y-150739320D01*
X56361535Y-150580223D01*
X56325881Y-150509989D01*
X56177247Y-150257559D01*
X56027097Y-150077792D01*
X55864095Y-149959259D01*
X55723864Y-149902862D01*
X55541204Y-149849454D01*
X56912072Y-149057983D01*
X56636905Y-148581381D01*
X53227363Y-150549881D01*
G36*
X54519265Y-147389985D02*
G01*
X54353242Y-147164254D01*
X54195871Y-147007910D01*
X54038773Y-146915266D01*
X53873566Y-146880632D01*
X53691873Y-146898321D01*
X53579936Y-146928916D01*
X53480804Y-146970314D01*
X53322753Y-147047636D01*
X53119665Y-147153581D01*
X52885425Y-147280849D01*
X52633915Y-147422143D01*
X52547614Y-147471689D01*
X51724530Y-147946897D01*
X51974809Y-148380393D01*
X52133556Y-148321322D01*
X52292303Y-148262251D01*
X52233145Y-148436862D01*
X52204253Y-148591915D01*
X52208418Y-148751845D01*
X52213841Y-148779789D01*
X52275574Y-148957902D01*
X52375096Y-149157983D01*
X52496528Y-149354348D01*
X52623994Y-149521310D01*
X52741242Y-149632926D01*
X52895185Y-149716669D01*
X53051375Y-149743087D01*
X53225932Y-149710728D01*
X53434974Y-149618138D01*
X53482944Y-149591233D01*
X53215279Y-149127624D01*
X53161477Y-149148127D01*
X53056450Y-149163113D01*
X52962600Y-149129644D01*
X52869322Y-149038797D01*
X52766010Y-148881648D01*
X52698176Y-148758239D01*
X52617413Y-148600802D01*
X52572436Y-148494021D01*
X52557790Y-148414609D01*
X52568019Y-148339281D01*
X52586047Y-148279581D01*
X52646534Y-148162257D01*
X52741382Y-148044717D01*
X52850117Y-147946120D01*
X52952265Y-147885624D01*
X53015645Y-147877582D01*
X53063931Y-147922275D01*
X53135787Y-148026050D01*
X53221433Y-148170165D01*
X53311085Y-148335882D01*
X53394963Y-148504460D01*
X53463284Y-148657162D01*
X53506265Y-148775245D01*
X53515460Y-148835086D01*
X53462526Y-148939651D01*
X53353895Y-149044742D01*
X53215279Y-149127624D01*
X53482944Y-149591233D01*
X53536445Y-149561226D01*
X53753343Y-149419399D01*
X53897816Y-149286448D01*
X53979447Y-149150196D01*
X54007814Y-148998460D01*
X54007862Y-148961918D01*
X53998304Y-148885280D01*
X53969552Y-148791024D01*
X53915851Y-148666048D01*
X53831450Y-148497252D01*
X53710596Y-148271533D01*
X53680821Y-148217084D01*
X53357827Y-147627953D01*
X53558453Y-147545083D01*
X53736219Y-147481534D01*
X53863108Y-147463553D01*
X53958951Y-147490134D01*
X54004625Y-147522534D01*
X54051677Y-147581488D01*
X54130047Y-147699934D01*
X54230472Y-147863052D01*
X54343689Y-148056029D01*
X54398753Y-148152947D01*
X54716191Y-148717601D01*
X54900033Y-148596768D01*
X55083875Y-148475934D01*
X55025057Y-148314364D01*
X54980944Y-148214232D01*
X54904702Y-148062053D01*
X54807155Y-147878741D01*
X54702319Y-147690790D01*
X54519265Y-147389985D01*
G37*
X54519265Y-147389985D02*
X54353242Y-147164254D01*
X54195871Y-147007910D01*
X54038773Y-146915266D01*
X53873566Y-146880632D01*
X53691873Y-146898321D01*
X53579936Y-146928916D01*
X53480804Y-146970314D01*
X53322753Y-147047636D01*
X53119665Y-147153581D01*
X52885425Y-147280849D01*
X52633915Y-147422143D01*
X52547614Y-147471689D01*
X51724530Y-147946897D01*
X51974809Y-148380393D01*
X52133556Y-148321322D01*
X52292303Y-148262251D01*
X52233145Y-148436862D01*
X52204253Y-148591915D01*
X52208418Y-148751845D01*
X52213841Y-148779789D01*
X52275574Y-148957902D01*
X52375096Y-149157983D01*
X52496528Y-149354348D01*
X52623994Y-149521310D01*
X52741242Y-149632926D01*
X52895185Y-149716669D01*
X53051375Y-149743087D01*
X53225932Y-149710728D01*
X53434974Y-149618138D01*
X53482944Y-149591233D01*
X53215279Y-149127624D01*
X53161477Y-149148127D01*
X53056450Y-149163113D01*
X52962600Y-149129644D01*
X52869322Y-149038797D01*
X52766010Y-148881648D01*
X52698176Y-148758239D01*
X52617413Y-148600802D01*
X52572436Y-148494021D01*
X52557790Y-148414609D01*
X52568019Y-148339281D01*
X52586047Y-148279581D01*
X52646534Y-148162257D01*
X52741382Y-148044717D01*
X52850117Y-147946120D01*
X52952265Y-147885624D01*
X53015645Y-147877582D01*
X53063931Y-147922275D01*
X53135787Y-148026050D01*
X53221433Y-148170165D01*
X53311085Y-148335882D01*
X53394963Y-148504460D01*
X53463284Y-148657162D01*
X53506265Y-148775245D01*
X53515460Y-148835086D01*
X53462526Y-148939651D01*
X53353895Y-149044742D01*
X53215279Y-149127624D01*
X53482944Y-149591233D01*
X53536445Y-149561226D01*
X53753343Y-149419399D01*
X53897816Y-149286448D01*
X53979447Y-149150196D01*
X54007814Y-148998460D01*
X54007862Y-148961918D01*
X53998304Y-148885280D01*
X53969552Y-148791024D01*
X53915851Y-148666048D01*
X53831450Y-148497252D01*
X53710596Y-148271533D01*
X53680821Y-148217084D01*
X53357827Y-147627953D01*
X53558453Y-147545083D01*
X53736219Y-147481534D01*
X53863108Y-147463553D01*
X53958951Y-147490134D01*
X54004625Y-147522534D01*
X54051677Y-147581488D01*
X54130047Y-147699934D01*
X54230472Y-147863052D01*
X54343689Y-148056029D01*
X54398753Y-148152947D01*
X54716191Y-148717601D01*
X54900033Y-148596768D01*
X55083875Y-148475934D01*
X55025057Y-148314364D01*
X54980944Y-148214232D01*
X54904702Y-148062053D01*
X54807155Y-147878741D01*
X54702319Y-147690790D01*
X54519265Y-147389985D01*
G36*
X50689321Y-140741194D02*
G01*
X50580218Y-140572346D01*
X50507225Y-140474139D01*
X50405125Y-140349778D01*
X49986914Y-140591232D01*
X50151712Y-140801600D01*
X50266552Y-140967566D01*
X50370617Y-141152238D01*
X50451821Y-141330767D01*
X50498076Y-141478303D01*
X50504222Y-141526338D01*
X50489597Y-141627742D01*
X50432729Y-141726804D01*
X50324683Y-141832201D01*
X50156523Y-141952615D01*
X49919316Y-142096727D01*
X49913848Y-142099886D01*
X49658820Y-142239703D01*
X49458860Y-142330576D01*
X49302366Y-142375753D01*
X49177738Y-142378476D01*
X49073376Y-142341995D01*
X49065277Y-142337316D01*
X48994890Y-142271166D01*
X48900600Y-142140097D01*
X48778614Y-141938605D01*
X48724564Y-141843068D01*
X48481195Y-141406745D01*
X48297188Y-141527668D01*
X48190355Y-141602397D01*
X48141998Y-141657545D01*
X48138000Y-141717097D01*
X48153321Y-141772063D01*
X48209144Y-141906762D01*
X48298096Y-142081075D01*
X48407839Y-142274665D01*
X48526035Y-142467189D01*
X48640344Y-142638307D01*
X48738430Y-142767678D01*
X48790184Y-142821958D01*
X48990604Y-142939809D01*
X49223241Y-142986850D01*
X49444896Y-142964604D01*
X49571639Y-142918928D01*
X49749238Y-142835680D01*
X49959055Y-142725654D01*
X50182447Y-142599644D01*
X50400778Y-142468438D01*
X50595409Y-142342832D01*
X50747699Y-142233616D01*
X50827988Y-142163777D01*
X50949902Y-141987023D01*
X51027443Y-141772763D01*
X51051368Y-141553966D01*
X51034429Y-141427376D01*
X50987905Y-141301328D01*
X50906194Y-141129243D01*
X50802322Y-140934679D01*
X50689321Y-140741194D01*
G37*
X50689321Y-140741194D02*
X50580218Y-140572346D01*
X50507225Y-140474139D01*
X50405125Y-140349778D01*
X49986914Y-140591232D01*
X50151712Y-140801600D01*
X50266552Y-140967566D01*
X50370617Y-141152238D01*
X50451821Y-141330767D01*
X50498076Y-141478303D01*
X50504222Y-141526338D01*
X50489597Y-141627742D01*
X50432729Y-141726804D01*
X50324683Y-141832201D01*
X50156523Y-141952615D01*
X49919316Y-142096727D01*
X49913848Y-142099886D01*
X49658820Y-142239703D01*
X49458860Y-142330576D01*
X49302366Y-142375753D01*
X49177738Y-142378476D01*
X49073376Y-142341995D01*
X49065277Y-142337316D01*
X48994890Y-142271166D01*
X48900600Y-142140097D01*
X48778614Y-141938605D01*
X48724564Y-141843068D01*
X48481195Y-141406745D01*
X48297188Y-141527668D01*
X48190355Y-141602397D01*
X48141998Y-141657545D01*
X48138000Y-141717097D01*
X48153321Y-141772063D01*
X48209144Y-141906762D01*
X48298096Y-142081075D01*
X48407839Y-142274665D01*
X48526035Y-142467189D01*
X48640344Y-142638307D01*
X48738430Y-142767678D01*
X48790184Y-142821958D01*
X48990604Y-142939809D01*
X49223241Y-142986850D01*
X49444896Y-142964604D01*
X49571639Y-142918928D01*
X49749238Y-142835680D01*
X49959055Y-142725654D01*
X50182447Y-142599644D01*
X50400778Y-142468438D01*
X50595409Y-142342832D01*
X50747699Y-142233616D01*
X50827988Y-142163777D01*
X50949902Y-141987023D01*
X51027443Y-141772763D01*
X51051368Y-141553966D01*
X51034429Y-141427376D01*
X50987905Y-141301328D01*
X50906194Y-141129243D01*
X50802322Y-140934679D01*
X50689321Y-140741194D01*
G36*
X56569179Y-152639035D02*
G01*
X56181906Y-152709148D01*
X55820494Y-152775023D01*
X55493422Y-152835082D01*
X55209173Y-152887748D01*
X54976225Y-152931441D01*
X54803061Y-152964584D01*
X54698163Y-152985600D01*
X54669200Y-152992551D01*
X54676829Y-153032865D01*
X54721938Y-153124712D01*
X54795089Y-153249153D01*
X54804534Y-153264162D01*
X54966750Y-153520253D01*
X55829033Y-153362771D01*
X56218256Y-154036925D01*
X56355091Y-154274524D01*
X56454224Y-154449871D01*
X56520398Y-154573972D01*
X56558357Y-154657835D01*
X56572843Y-154712466D01*
X56568601Y-154748873D01*
X56550374Y-154778060D01*
X56541977Y-154788126D01*
X56484113Y-154856261D01*
X56389713Y-154967492D01*
X56277003Y-155100344D01*
X56251066Y-155130921D01*
X56025658Y-155396670D01*
X56173229Y-155652270D01*
X56257615Y-155790228D01*
X56314649Y-155861077D01*
X56352773Y-155874432D01*
X56362522Y-155867978D01*
X56397828Y-155828230D01*
X56482039Y-155730573D01*
X56609405Y-155581756D01*
X56774175Y-155388531D01*
X56970598Y-155157648D01*
X57192922Y-154895858D01*
X57286154Y-154785912D01*
X56997320Y-154285637D01*
X56402848Y-153255981D01*
X56500154Y-153234022D01*
X56689371Y-153193951D01*
X56908384Y-153151767D01*
X57142836Y-153109736D01*
X57378367Y-153070126D01*
X57600622Y-153035205D01*
X57795241Y-153007237D01*
X57947866Y-152988491D01*
X58044139Y-152981234D01*
X58070887Y-152986023D01*
X58040050Y-153032093D01*
X57963423Y-153130467D01*
X57850540Y-153269358D01*
X57710935Y-153436977D01*
X57605651Y-153561298D01*
X57447519Y-153747129D01*
X57303487Y-153916980D01*
X57184862Y-154057474D01*
X57102948Y-154155235D01*
X57075626Y-154188433D01*
X56997320Y-154285637D01*
X57286154Y-154785912D01*
X57435396Y-154609912D01*
X57615408Y-154397372D01*
X58826572Y-152966660D01*
X58442276Y-152301040D01*
X56569179Y-152639035D01*
G37*
X56569179Y-152639035D02*
X56181906Y-152709148D01*
X55820494Y-152775023D01*
X55493422Y-152835082D01*
X55209173Y-152887748D01*
X54976225Y-152931441D01*
X54803061Y-152964584D01*
X54698163Y-152985600D01*
X54669200Y-152992551D01*
X54676829Y-153032865D01*
X54721938Y-153124712D01*
X54795089Y-153249153D01*
X54804534Y-153264162D01*
X54966750Y-153520253D01*
X55829033Y-153362771D01*
X56218256Y-154036925D01*
X56355091Y-154274524D01*
X56454224Y-154449871D01*
X56520398Y-154573972D01*
X56558357Y-154657835D01*
X56572843Y-154712466D01*
X56568601Y-154748873D01*
X56550374Y-154778060D01*
X56541977Y-154788126D01*
X56484113Y-154856261D01*
X56389713Y-154967492D01*
X56277003Y-155100344D01*
X56251066Y-155130921D01*
X56025658Y-155396670D01*
X56173229Y-155652270D01*
X56257615Y-155790228D01*
X56314649Y-155861077D01*
X56352773Y-155874432D01*
X56362522Y-155867978D01*
X56397828Y-155828230D01*
X56482039Y-155730573D01*
X56609405Y-155581756D01*
X56774175Y-155388531D01*
X56970598Y-155157648D01*
X57192922Y-154895858D01*
X57286154Y-154785912D01*
X56997320Y-154285637D01*
X56402848Y-153255981D01*
X56500154Y-153234022D01*
X56689371Y-153193951D01*
X56908384Y-153151767D01*
X57142836Y-153109736D01*
X57378367Y-153070126D01*
X57600622Y-153035205D01*
X57795241Y-153007237D01*
X57947866Y-152988491D01*
X58044139Y-152981234D01*
X58070887Y-152986023D01*
X58040050Y-153032093D01*
X57963423Y-153130467D01*
X57850540Y-153269358D01*
X57710935Y-153436977D01*
X57605651Y-153561298D01*
X57447519Y-153747129D01*
X57303487Y-153916980D01*
X57184862Y-154057474D01*
X57102948Y-154155235D01*
X57075626Y-154188433D01*
X56997320Y-154285637D01*
X57286154Y-154785912D01*
X57435396Y-154609912D01*
X57615408Y-154397372D01*
X58826572Y-152966660D01*
X58442276Y-152301040D01*
X56569179Y-152639035D01*
G36*
X52829610Y-144474612D02*
G01*
X52685498Y-144330077D01*
X52527533Y-144246427D01*
X52409656Y-144219128D01*
X52239486Y-144195069D01*
X52300116Y-144074867D01*
X52347048Y-143889536D01*
X52322711Y-143666651D01*
X52228207Y-143412596D01*
X52165019Y-143293171D01*
X52028832Y-143083708D01*
X51895704Y-142946501D01*
X51750133Y-142871201D01*
X51576623Y-142847457D01*
X51501014Y-142849744D01*
X51427315Y-142855947D01*
X51357829Y-142867727D01*
X51281884Y-142889958D01*
X51188808Y-142927516D01*
X51067927Y-142985274D01*
X50908571Y-143068109D01*
X50700067Y-143180893D01*
X50431742Y-143328505D01*
X50330905Y-143384221D01*
X49390430Y-143904117D01*
X49690391Y-144423665D01*
X50575394Y-143927399D01*
X50863053Y-143767015D01*
X51086516Y-143644919D01*
X51254734Y-143556764D01*
X51376659Y-143498203D01*
X51461242Y-143464886D01*
X51517435Y-143452466D01*
X51548448Y-143454784D01*
X51648088Y-143515718D01*
X51754145Y-143633885D01*
X51849054Y-143785319D01*
X51915242Y-143946056D01*
X51919330Y-143960684D01*
X51940765Y-144059132D01*
X51942912Y-144144632D01*
X51918439Y-144224616D01*
X51860014Y-144306515D01*
X51760307Y-144397762D01*
X51611985Y-144505789D01*
X51407717Y-144638027D01*
X51140172Y-144801909D01*
X51015346Y-144877055D01*
X50225842Y-145351094D01*
X50496863Y-145820516D01*
X51276043Y-145370929D01*
X51581686Y-145196353D01*
X51824495Y-145062887D01*
X52013676Y-144967159D01*
X52158435Y-144905795D01*
X52267977Y-144875423D01*
X52351510Y-144872670D01*
X52418237Y-144894164D01*
X52472768Y-144932514D01*
X52618662Y-145097342D01*
X52709211Y-145282424D01*
X52740399Y-145469358D01*
X52708213Y-145639738D01*
X52648155Y-145736663D01*
X52566218Y-145807017D01*
X52413565Y-145913071D01*
X52194798Y-146051841D01*
X51914515Y-146220348D01*
X51785566Y-146295782D01*
X51026030Y-146737059D01*
X51301196Y-147213661D01*
X53610886Y-145880161D01*
X53356886Y-145440221D01*
X53210239Y-145524887D01*
X53099561Y-145576339D01*
X53047294Y-145572066D01*
X53057237Y-145514217D01*
X53092146Y-145458162D01*
X53142868Y-145318973D01*
X53138467Y-145134157D01*
X53081477Y-144920084D01*
X52974431Y-144693125D01*
X52973435Y-144691398D01*
X52829610Y-144474612D01*
G37*
X52829610Y-144474612D02*
X52685498Y-144330077D01*
X52527533Y-144246427D01*
X52409656Y-144219128D01*
X52239486Y-144195069D01*
X52300116Y-144074867D01*
X52347048Y-143889536D01*
X52322711Y-143666651D01*
X52228207Y-143412596D01*
X52165019Y-143293171D01*
X52028832Y-143083708D01*
X51895704Y-142946501D01*
X51750133Y-142871201D01*
X51576623Y-142847457D01*
X51501014Y-142849744D01*
X51427315Y-142855947D01*
X51357829Y-142867727D01*
X51281884Y-142889958D01*
X51188808Y-142927516D01*
X51067927Y-142985274D01*
X50908571Y-143068109D01*
X50700067Y-143180893D01*
X50431742Y-143328505D01*
X50330905Y-143384221D01*
X49390430Y-143904117D01*
X49690391Y-144423665D01*
X50575394Y-143927399D01*
X50863053Y-143767015D01*
X51086516Y-143644919D01*
X51254734Y-143556764D01*
X51376659Y-143498203D01*
X51461242Y-143464886D01*
X51517435Y-143452466D01*
X51548448Y-143454784D01*
X51648088Y-143515718D01*
X51754145Y-143633885D01*
X51849054Y-143785319D01*
X51915242Y-143946056D01*
X51919330Y-143960684D01*
X51940765Y-144059132D01*
X51942912Y-144144632D01*
X51918439Y-144224616D01*
X51860014Y-144306515D01*
X51760307Y-144397762D01*
X51611985Y-144505789D01*
X51407717Y-144638027D01*
X51140172Y-144801909D01*
X51015346Y-144877055D01*
X50225842Y-145351094D01*
X50496863Y-145820516D01*
X51276043Y-145370929D01*
X51581686Y-145196353D01*
X51824495Y-145062887D01*
X52013676Y-144967159D01*
X52158435Y-144905795D01*
X52267977Y-144875423D01*
X52351510Y-144872670D01*
X52418237Y-144894164D01*
X52472768Y-144932514D01*
X52618662Y-145097342D01*
X52709211Y-145282424D01*
X52740399Y-145469358D01*
X52708213Y-145639738D01*
X52648155Y-145736663D01*
X52566218Y-145807017D01*
X52413565Y-145913071D01*
X52194798Y-146051841D01*
X51914515Y-146220348D01*
X51785566Y-146295782D01*
X51026030Y-146737059D01*
X51301196Y-147213661D01*
X53610886Y-145880161D01*
X53356886Y-145440221D01*
X53210239Y-145524887D01*
X53099561Y-145576339D01*
X53047294Y-145572066D01*
X53057237Y-145514217D01*
X53092146Y-145458162D01*
X53142868Y-145318973D01*
X53138467Y-145134157D01*
X53081477Y-144920084D01*
X52974431Y-144693125D01*
X52973435Y-144691398D01*
X52829610Y-144474612D01*
G36*
X47470030Y-140577886D02*
G01*
X47766363Y-141091151D01*
X50076053Y-139757651D01*
X49779719Y-139244386D01*
X47470030Y-140577886D01*
G37*
X47470030Y-140577886D02*
X47766363Y-141091151D01*
X50076053Y-139757651D01*
X49779719Y-139244386D01*
X47470030Y-140577886D01*
G36*
X50316531Y-137651297D02*
G01*
X50173324Y-137428464D01*
X48163996Y-138562537D01*
X48091450Y-138436883D01*
X48066064Y-138384429D01*
X48055659Y-138327999D01*
X48063497Y-138253816D01*
X48092838Y-138148100D01*
X48146943Y-137997071D01*
X48229073Y-137786952D01*
X48268764Y-137687606D01*
X48518626Y-137063981D01*
X48364757Y-136795536D01*
X48288608Y-136670686D01*
X48228232Y-136586502D01*
X48195019Y-136558569D01*
X48192947Y-136560433D01*
X48172477Y-136608792D01*
X48126468Y-136722968D01*
X48060118Y-136889889D01*
X47978622Y-137096482D01*
X47890986Y-137319945D01*
X47606963Y-138046114D01*
X46774802Y-137944274D01*
X46519184Y-137913647D01*
X46293385Y-137887844D01*
X46110434Y-137868251D01*
X45983362Y-137856253D01*
X45925199Y-137853238D01*
X45923169Y-137853675D01*
X45933208Y-137892736D01*
X45977616Y-137985598D01*
X46047253Y-138113423D01*
X46059586Y-138134926D01*
X46215475Y-138404934D01*
X46901312Y-138492173D01*
X47158154Y-138525808D01*
X47344116Y-138553651D01*
X47472456Y-138579329D01*
X47556436Y-138606468D01*
X47609316Y-138638695D01*
X47644356Y-138679636D01*
X47655943Y-138698563D01*
X47724735Y-138817715D01*
X46771530Y-139368049D01*
X47046696Y-139844651D01*
X50459737Y-137874131D01*
X50316531Y-137651297D01*
G37*
X50316531Y-137651297D02*
X50173324Y-137428464D01*
X48163996Y-138562537D01*
X48091450Y-138436883D01*
X48066064Y-138384429D01*
X48055659Y-138327999D01*
X48063497Y-138253816D01*
X48092838Y-138148100D01*
X48146943Y-137997071D01*
X48229073Y-137786952D01*
X48268764Y-137687606D01*
X48518626Y-137063981D01*
X48364757Y-136795536D01*
X48288608Y-136670686D01*
X48228232Y-136586502D01*
X48195019Y-136558569D01*
X48192947Y-136560433D01*
X48172477Y-136608792D01*
X48126468Y-136722968D01*
X48060118Y-136889889D01*
X47978622Y-137096482D01*
X47890986Y-137319945D01*
X47606963Y-138046114D01*
X46774802Y-137944274D01*
X46519184Y-137913647D01*
X46293385Y-137887844D01*
X46110434Y-137868251D01*
X45983362Y-137856253D01*
X45925199Y-137853238D01*
X45923169Y-137853675D01*
X45933208Y-137892736D01*
X45977616Y-137985598D01*
X46047253Y-138113423D01*
X46059586Y-138134926D01*
X46215475Y-138404934D01*
X46901312Y-138492173D01*
X47158154Y-138525808D01*
X47344116Y-138553651D01*
X47472456Y-138579329D01*
X47556436Y-138606468D01*
X47609316Y-138638695D01*
X47644356Y-138679636D01*
X47655943Y-138698563D01*
X47724735Y-138817715D01*
X46771530Y-139368049D01*
X47046696Y-139844651D01*
X50459737Y-137874131D01*
X50316531Y-137651297D01*
G36*
X51625082Y-139913172D02*
G01*
X51577537Y-139861717D01*
X51571384Y-139858753D01*
X51540962Y-139891006D01*
X51486194Y-139985511D01*
X51415635Y-140126503D01*
X51358244Y-140251584D01*
X51180015Y-140653770D01*
X51330499Y-140912215D01*
X51480982Y-141170660D01*
X51894296Y-141213107D01*
X52074400Y-141229152D01*
X52223013Y-141237823D01*
X52319946Y-141238182D01*
X52345007Y-141233962D01*
X52350051Y-141187793D01*
X52316327Y-141099656D01*
X52300809Y-141071041D01*
X52247783Y-140994499D01*
X52180261Y-140941522D01*
X52075357Y-140899562D01*
X51910184Y-140856074D01*
X51907471Y-140855427D01*
X51757026Y-140817573D01*
X51643223Y-140785153D01*
X51587129Y-140764256D01*
X51584785Y-140762186D01*
X51591368Y-140715627D01*
X51618806Y-140610025D01*
X51661464Y-140466752D01*
X51669083Y-140442526D01*
X51716655Y-140278875D01*
X51734143Y-140167992D01*
X51722514Y-140083876D01*
X51685309Y-140004965D01*
X51625082Y-139913172D01*
G37*
X51625082Y-139913172D02*
X51577537Y-139861717D01*
X51571384Y-139858753D01*
X51540962Y-139891006D01*
X51486194Y-139985511D01*
X51415635Y-140126503D01*
X51358244Y-140251584D01*
X51180015Y-140653770D01*
X51330499Y-140912215D01*
X51480982Y-141170660D01*
X51894296Y-141213107D01*
X52074400Y-141229152D01*
X52223013Y-141237823D01*
X52319946Y-141238182D01*
X52345007Y-141233962D01*
X52350051Y-141187793D01*
X52316327Y-141099656D01*
X52300809Y-141071041D01*
X52247783Y-140994499D01*
X52180261Y-140941522D01*
X52075357Y-140899562D01*
X51910184Y-140856074D01*
X51907471Y-140855427D01*
X51757026Y-140817573D01*
X51643223Y-140785153D01*
X51587129Y-140764256D01*
X51584785Y-140762186D01*
X51591368Y-140715627D01*
X51618806Y-140610025D01*
X51661464Y-140466752D01*
X51669083Y-140442526D01*
X51716655Y-140278875D01*
X51734143Y-140167992D01*
X51722514Y-140083876D01*
X51685309Y-140004965D01*
X51625082Y-139913172D01*
G36*
X50686838Y-138286615D02*
G01*
X50625452Y-138209170D01*
X50591952Y-138188856D01*
X50566883Y-138234986D01*
X50524695Y-138345156D01*
X50471632Y-138502027D01*
X50422946Y-138658127D01*
X50364613Y-138855348D01*
X50330043Y-138991378D01*
X50318238Y-139085994D01*
X50328198Y-139158969D01*
X50358927Y-139230080D01*
X50391193Y-139287489D01*
X50454064Y-139388986D01*
X50499698Y-139449148D01*
X50512277Y-139456914D01*
X50535902Y-139416585D01*
X50586052Y-139315502D01*
X50654702Y-139170205D01*
X50713176Y-139042881D01*
X50896625Y-138638923D01*
X50761098Y-138404184D01*
X50686838Y-138286615D01*
G37*
X50686838Y-138286615D02*
X50625452Y-138209170D01*
X50591952Y-138188856D01*
X50566883Y-138234986D01*
X50524695Y-138345156D01*
X50471632Y-138502027D01*
X50422946Y-138658127D01*
X50364613Y-138855348D01*
X50330043Y-138991378D01*
X50318238Y-139085994D01*
X50328198Y-139158969D01*
X50358927Y-139230080D01*
X50391193Y-139287489D01*
X50454064Y-139388986D01*
X50499698Y-139449148D01*
X50512277Y-139456914D01*
X50535902Y-139416585D01*
X50586052Y-139315502D01*
X50654702Y-139170205D01*
X50713176Y-139042881D01*
X50896625Y-138638923D01*
X50761098Y-138404184D01*
X50686838Y-138286615D01*
G36*
X59808792Y-151979750D02*
G01*
X59635940Y-152075287D01*
X59484242Y-152151897D01*
X59371803Y-152200877D01*
X59320960Y-152214301D01*
X59244889Y-152173031D01*
X59154795Y-152052712D01*
X59137586Y-152023687D01*
X59077762Y-151906942D01*
X59056031Y-151813232D01*
X59079847Y-151730421D01*
X59156665Y-151646377D01*
X59293937Y-151548968D01*
X59499115Y-151426060D01*
X59507789Y-151421048D01*
X59904061Y-151192260D01*
X59798228Y-151008952D01*
X59198780Y-151355044D01*
X58931074Y-151512501D01*
X58730172Y-151639196D01*
X58587575Y-151743059D01*
X58494777Y-151832022D01*
X58443280Y-151914013D01*
X58424578Y-151996965D01*
X58428084Y-152073902D01*
X58456087Y-152177666D01*
X58511381Y-152312796D01*
X58581869Y-152456072D01*
X58655462Y-152584279D01*
X58720062Y-152674199D01*
X58755598Y-152702620D01*
X58821035Y-152692276D01*
X58865526Y-152671741D01*
X58903750Y-152638899D01*
X58897906Y-152593124D01*
X58842518Y-152512334D01*
X58818358Y-152481654D01*
X58729665Y-152343485D01*
X58666359Y-152193830D01*
X58635892Y-152057325D01*
X58645710Y-151958607D01*
X58655387Y-151942650D01*
X58724290Y-151881095D01*
X58809286Y-151824329D01*
X58885350Y-151785662D01*
X58910856Y-151802492D01*
X58908324Y-151875791D01*
X58928639Y-152011116D01*
X58997466Y-152164075D01*
X59096057Y-152303908D01*
X59205663Y-152399855D01*
X59237052Y-152415164D01*
X59290555Y-152431612D01*
X59345331Y-152432954D01*
X59416309Y-152413830D01*
X59518417Y-152368878D01*
X59666583Y-152292736D01*
X59844365Y-152197061D01*
X60331646Y-151932859D01*
X60221561Y-151742186D01*
X59808792Y-151979750D01*
G37*
X59808792Y-151979750D02*
X59635940Y-152075287D01*
X59484242Y-152151897D01*
X59371803Y-152200877D01*
X59320960Y-152214301D01*
X59244889Y-152173031D01*
X59154795Y-152052712D01*
X59137586Y-152023687D01*
X59077762Y-151906942D01*
X59056031Y-151813232D01*
X59079847Y-151730421D01*
X59156665Y-151646377D01*
X59293937Y-151548968D01*
X59499115Y-151426060D01*
X59507789Y-151421048D01*
X59904061Y-151192260D01*
X59798228Y-151008952D01*
X59198780Y-151355044D01*
X58931074Y-151512501D01*
X58730172Y-151639196D01*
X58587575Y-151743059D01*
X58494777Y-151832022D01*
X58443280Y-151914013D01*
X58424578Y-151996965D01*
X58428084Y-152073902D01*
X58456087Y-152177666D01*
X58511381Y-152312796D01*
X58581869Y-152456072D01*
X58655462Y-152584279D01*
X58720062Y-152674199D01*
X58755598Y-152702620D01*
X58821035Y-152692276D01*
X58865526Y-152671741D01*
X58903750Y-152638899D01*
X58897906Y-152593124D01*
X58842518Y-152512334D01*
X58818358Y-152481654D01*
X58729665Y-152343485D01*
X58666359Y-152193830D01*
X58635892Y-152057325D01*
X58645710Y-151958607D01*
X58655387Y-151942650D01*
X58724290Y-151881095D01*
X58809286Y-151824329D01*
X58885350Y-151785662D01*
X58910856Y-151802492D01*
X58908324Y-151875791D01*
X58928639Y-152011116D01*
X58997466Y-152164075D01*
X59096057Y-152303908D01*
X59205663Y-152399855D01*
X59237052Y-152415164D01*
X59290555Y-152431612D01*
X59345331Y-152432954D01*
X59416309Y-152413830D01*
X59518417Y-152368878D01*
X59666583Y-152292736D01*
X59844365Y-152197061D01*
X60331646Y-151932859D01*
X60221561Y-151742186D01*
X59808792Y-151979750D01*
G36*
X61454115Y-152790507D02*
G01*
X61413272Y-152784894D01*
X61341922Y-152811495D01*
X61223188Y-152875138D01*
X61145703Y-152919514D01*
X61007861Y-152994880D01*
X60900816Y-153045477D01*
X60842761Y-153062964D01*
X60837701Y-153060678D01*
X60831013Y-153000886D01*
X60835731Y-152930267D01*
X60819993Y-152825144D01*
X60764296Y-152688903D01*
X60685446Y-152553245D01*
X60600246Y-152449874D01*
X60567508Y-152424264D01*
X60444310Y-152396233D01*
X60270528Y-152430904D01*
X60051092Y-152527055D01*
X59967968Y-152572951D01*
X59750211Y-152717048D01*
X59607339Y-152853576D01*
X59542877Y-152978879D01*
X59539432Y-153017824D01*
X59561597Y-153102867D01*
X59615383Y-153226090D01*
X59660067Y-153309651D01*
X59748478Y-153443974D01*
X59829176Y-153517852D01*
X59893532Y-153544690D01*
X59973467Y-153568618D01*
X59981897Y-153588429D01*
X59935866Y-153618014D01*
X59889560Y-153679314D01*
X59904876Y-153733671D01*
X59921541Y-153756229D01*
X59946297Y-153766151D01*
X59988748Y-153759025D01*
X60058499Y-153730433D01*
X60165154Y-153675964D01*
X60318319Y-153591199D01*
X60492657Y-153491673D01*
X60397486Y-153326832D01*
X60255966Y-153404982D01*
X60161087Y-153443641D01*
X60088358Y-153449230D01*
X60013281Y-153428171D01*
X60012318Y-153427803D01*
X59914358Y-153371353D01*
X59842633Y-153274379D01*
X59811000Y-153208033D01*
X59771824Y-153090054D01*
X59762315Y-152997501D01*
X59767893Y-152976462D01*
X59818041Y-152927208D01*
X59921690Y-152852215D01*
X60058034Y-152766331D01*
X60082446Y-152752017D01*
X60228518Y-152669812D01*
X60324275Y-152626319D01*
X60391405Y-152615708D01*
X60451595Y-152632147D01*
X60479251Y-152645326D01*
X60592638Y-152741602D01*
X60648814Y-152849559D01*
X60686553Y-152984635D01*
X60675670Y-153090314D01*
X60607080Y-153183845D01*
X60471700Y-153282476D01*
X60397486Y-153326832D01*
X60492657Y-153491673D01*
X60527598Y-153471727D01*
X60735436Y-153351911D01*
X60994735Y-153201867D01*
X61189206Y-153087818D01*
X61327474Y-153003658D01*
X61418167Y-152943272D01*
X61469907Y-152900553D01*
X61491323Y-152869389D01*
X61491038Y-152843668D01*
X61481330Y-152823505D01*
X61454115Y-152790507D01*
G37*
X61454115Y-152790507D02*
X61413272Y-152784894D01*
X61341922Y-152811495D01*
X61223188Y-152875138D01*
X61145703Y-152919514D01*
X61007861Y-152994880D01*
X60900816Y-153045477D01*
X60842761Y-153062964D01*
X60837701Y-153060678D01*
X60831013Y-153000886D01*
X60835731Y-152930267D01*
X60819993Y-152825144D01*
X60764296Y-152688903D01*
X60685446Y-152553245D01*
X60600246Y-152449874D01*
X60567508Y-152424264D01*
X60444310Y-152396233D01*
X60270528Y-152430904D01*
X60051092Y-152527055D01*
X59967968Y-152572951D01*
X59750211Y-152717048D01*
X59607339Y-152853576D01*
X59542877Y-152978879D01*
X59539432Y-153017824D01*
X59561597Y-153102867D01*
X59615383Y-153226090D01*
X59660067Y-153309651D01*
X59748478Y-153443974D01*
X59829176Y-153517852D01*
X59893532Y-153544690D01*
X59973467Y-153568618D01*
X59981897Y-153588429D01*
X59935866Y-153618014D01*
X59889560Y-153679314D01*
X59904876Y-153733671D01*
X59921541Y-153756229D01*
X59946297Y-153766151D01*
X59988748Y-153759025D01*
X60058499Y-153730433D01*
X60165154Y-153675964D01*
X60318319Y-153591199D01*
X60492657Y-153491673D01*
X60397486Y-153326832D01*
X60255966Y-153404982D01*
X60161087Y-153443641D01*
X60088358Y-153449230D01*
X60013281Y-153428171D01*
X60012318Y-153427803D01*
X59914358Y-153371353D01*
X59842633Y-153274379D01*
X59811000Y-153208033D01*
X59771824Y-153090054D01*
X59762315Y-152997501D01*
X59767893Y-152976462D01*
X59818041Y-152927208D01*
X59921690Y-152852215D01*
X60058034Y-152766331D01*
X60082446Y-152752017D01*
X60228518Y-152669812D01*
X60324275Y-152626319D01*
X60391405Y-152615708D01*
X60451595Y-152632147D01*
X60479251Y-152645326D01*
X60592638Y-152741602D01*
X60648814Y-152849559D01*
X60686553Y-152984635D01*
X60675670Y-153090314D01*
X60607080Y-153183845D01*
X60471700Y-153282476D01*
X60397486Y-153326832D01*
X60492657Y-153491673D01*
X60527598Y-153471727D01*
X60735436Y-153351911D01*
X60994735Y-153201867D01*
X61189206Y-153087818D01*
X61327474Y-153003658D01*
X61418167Y-152943272D01*
X61469907Y-152900553D01*
X61491323Y-152869389D01*
X61491038Y-152843668D01*
X61481330Y-152823505D01*
X61454115Y-152790507D01*
G36*
X55636363Y-140888631D02*
G01*
X55499870Y-140692126D01*
X55371169Y-140558060D01*
X55238351Y-140484082D01*
X55089507Y-140467838D01*
X54912726Y-140506976D01*
X54696098Y-140599144D01*
X54427713Y-140741990D01*
X54247685Y-140844797D01*
X53981059Y-141001849D01*
X53780890Y-141129132D01*
X53638549Y-141235996D01*
X53545404Y-141331788D01*
X53492824Y-141425856D01*
X53472179Y-141527547D01*
X53474836Y-141646213D01*
X53478001Y-141678426D01*
X53515980Y-141840064D01*
X53593436Y-142044044D01*
X53698296Y-142265547D01*
X53818486Y-142479752D01*
X53941930Y-142661838D01*
X53978552Y-142707388D01*
X54146802Y-142866237D01*
X54327055Y-142949835D01*
X54539157Y-142967236D01*
X54547197Y-142966770D01*
X54629064Y-142957034D01*
X54714837Y-142933932D01*
X54819133Y-142890880D01*
X54956570Y-142821294D01*
X55126548Y-142727029D01*
X54883875Y-142306708D01*
X54742956Y-142387389D01*
X54643405Y-142436073D01*
X54570113Y-142459364D01*
X54507972Y-142463872D01*
X54460300Y-142459003D01*
X54335104Y-142415844D01*
X54231106Y-142314170D01*
X54214771Y-142291665D01*
X54146136Y-142186699D01*
X54101128Y-142104631D01*
X54095167Y-142089257D01*
X54063498Y-142015746D01*
X54009400Y-141913767D01*
X54006300Y-141908374D01*
X53959183Y-141766023D01*
X53964939Y-141667399D01*
X53984039Y-141616634D01*
X54019925Y-141568599D01*
X54084889Y-141513918D01*
X54191226Y-141443214D01*
X54351230Y-141347113D01*
X54492529Y-141265030D01*
X54692878Y-141150098D01*
X54835150Y-141072119D01*
X54934367Y-141025330D01*
X55005556Y-141003969D01*
X55063738Y-141002274D01*
X55123939Y-141014482D01*
X55136875Y-141017906D01*
X55212077Y-141042442D01*
X55269293Y-141079684D01*
X55323660Y-141146817D01*
X55390309Y-141261027D01*
X55449784Y-141373228D01*
X55533685Y-141538367D01*
X55582923Y-141663931D01*
X55591244Y-141763744D01*
X55552387Y-141851631D01*
X55460099Y-141941415D01*
X55308120Y-142046922D01*
X55090194Y-142181973D01*
X55081269Y-142187420D01*
X54883875Y-142306708D01*
X55126548Y-142727029D01*
X55141767Y-142718590D01*
X55301194Y-142627195D01*
X55525743Y-142496014D01*
X55688971Y-142395923D01*
X55803922Y-142317535D01*
X55883639Y-142251462D01*
X55941165Y-142188316D01*
X55973619Y-142143225D01*
X56044517Y-142018460D01*
X56079359Y-141898099D01*
X56075519Y-141767742D01*
X56030374Y-141612988D01*
X55941298Y-141419436D01*
X55805665Y-141172687D01*
X55792558Y-141149928D01*
X55636363Y-140888631D01*
G37*
X55636363Y-140888631D02*
X55499870Y-140692126D01*
X55371169Y-140558060D01*
X55238351Y-140484082D01*
X55089507Y-140467838D01*
X54912726Y-140506976D01*
X54696098Y-140599144D01*
X54427713Y-140741990D01*
X54247685Y-140844797D01*
X53981059Y-141001849D01*
X53780890Y-141129132D01*
X53638549Y-141235996D01*
X53545404Y-141331788D01*
X53492824Y-141425856D01*
X53472179Y-141527547D01*
X53474836Y-141646213D01*
X53478001Y-141678426D01*
X53515980Y-141840064D01*
X53593436Y-142044044D01*
X53698296Y-142265547D01*
X53818486Y-142479752D01*
X53941930Y-142661838D01*
X53978552Y-142707388D01*
X54146802Y-142866237D01*
X54327055Y-142949835D01*
X54539157Y-142967236D01*
X54547197Y-142966770D01*
X54629064Y-142957034D01*
X54714837Y-142933932D01*
X54819133Y-142890880D01*
X54956570Y-142821294D01*
X55126548Y-142727029D01*
X54883875Y-142306708D01*
X54742956Y-142387389D01*
X54643405Y-142436073D01*
X54570113Y-142459364D01*
X54507972Y-142463872D01*
X54460300Y-142459003D01*
X54335104Y-142415844D01*
X54231106Y-142314170D01*
X54214771Y-142291665D01*
X54146136Y-142186699D01*
X54101128Y-142104631D01*
X54095167Y-142089257D01*
X54063498Y-142015746D01*
X54009400Y-141913767D01*
X54006300Y-141908374D01*
X53959183Y-141766023D01*
X53964939Y-141667399D01*
X53984039Y-141616634D01*
X54019925Y-141568599D01*
X54084889Y-141513918D01*
X54191226Y-141443214D01*
X54351230Y-141347113D01*
X54492529Y-141265030D01*
X54692878Y-141150098D01*
X54835150Y-141072119D01*
X54934367Y-141025330D01*
X55005556Y-141003969D01*
X55063738Y-141002274D01*
X55123939Y-141014482D01*
X55136875Y-141017906D01*
X55212077Y-141042442D01*
X55269293Y-141079684D01*
X55323660Y-141146817D01*
X55390309Y-141261027D01*
X55449784Y-141373228D01*
X55533685Y-141538367D01*
X55582923Y-141663931D01*
X55591244Y-141763744D01*
X55552387Y-141851631D01*
X55460099Y-141941415D01*
X55308120Y-142046922D01*
X55090194Y-142181973D01*
X55081269Y-142187420D01*
X54883875Y-142306708D01*
X55126548Y-142727029D01*
X55141767Y-142718590D01*
X55301194Y-142627195D01*
X55525743Y-142496014D01*
X55688971Y-142395923D01*
X55803922Y-142317535D01*
X55883639Y-142251462D01*
X55941165Y-142188316D01*
X55973619Y-142143225D01*
X56044517Y-142018460D01*
X56079359Y-141898099D01*
X56075519Y-141767742D01*
X56030374Y-141612988D01*
X55941298Y-141419436D01*
X55805665Y-141172687D01*
X55792558Y-141149928D01*
X55636363Y-140888631D01*
G36*
X54370584Y-138663283D02*
G01*
X54302604Y-138565787D01*
X54138558Y-138340926D01*
X53788265Y-138543168D01*
X54059659Y-138971504D01*
X54198428Y-139199757D01*
X54286948Y-139372628D01*
X54327180Y-139501388D01*
X54321085Y-139597307D01*
X54270624Y-139671656D01*
X54191288Y-139728070D01*
X54091668Y-139769554D01*
X54016962Y-139773632D01*
X54012494Y-139771637D01*
X53966525Y-139728467D01*
X53881334Y-139632477D01*
X53769230Y-139498032D01*
X53647013Y-139345218D01*
X53490277Y-139151439D01*
X53367436Y-139018671D01*
X53264624Y-138938018D01*
X53167974Y-138900581D01*
X53063623Y-138897463D01*
X52972285Y-138912225D01*
X52830268Y-138963155D01*
X52667086Y-139052984D01*
X52508830Y-139163761D01*
X52381593Y-139277534D01*
X52317588Y-139362654D01*
X52278462Y-139488274D01*
X52267520Y-139613662D01*
X52292966Y-139726256D01*
X52355386Y-139889318D01*
X52445115Y-140082649D01*
X52552490Y-140286053D01*
X52667850Y-140479329D01*
X52717612Y-140554456D01*
X52825212Y-140707369D01*
X52902225Y-140798616D01*
X52965031Y-140836978D01*
X53030010Y-140831235D01*
X53113541Y-140790166D01*
X53134712Y-140778026D01*
X53299032Y-140683155D01*
X53006241Y-140181813D01*
X52887958Y-139976872D01*
X52808263Y-139830977D01*
X52761439Y-139731026D01*
X52741770Y-139663918D01*
X52743538Y-139616548D01*
X52750699Y-139596116D01*
X52817791Y-139509770D01*
X52920364Y-139437594D01*
X53025720Y-139398635D01*
X53084479Y-139401660D01*
X53135540Y-139444543D01*
X53222255Y-139539992D01*
X53330624Y-139671997D01*
X53404004Y-139767108D01*
X53527178Y-139923918D01*
X53646076Y-140063779D01*
X53742981Y-140166340D01*
X53780277Y-140199318D01*
X53935523Y-140266063D01*
X54126525Y-140256314D01*
X54352848Y-140170118D01*
X54425251Y-140130697D01*
X54628623Y-139981403D01*
X54758152Y-139813631D01*
X54808958Y-139634165D01*
X54809222Y-139596906D01*
X54782340Y-139470432D01*
X54715545Y-139294517D01*
X54618326Y-139088476D01*
X54500175Y-138871626D01*
X54370584Y-138663283D01*
G37*
X54370584Y-138663283D02*
X54302604Y-138565787D01*
X54138558Y-138340926D01*
X53788265Y-138543168D01*
X54059659Y-138971504D01*
X54198428Y-139199757D01*
X54286948Y-139372628D01*
X54327180Y-139501388D01*
X54321085Y-139597307D01*
X54270624Y-139671656D01*
X54191288Y-139728070D01*
X54091668Y-139769554D01*
X54016962Y-139773632D01*
X54012494Y-139771637D01*
X53966525Y-139728467D01*
X53881334Y-139632477D01*
X53769230Y-139498032D01*
X53647013Y-139345218D01*
X53490277Y-139151439D01*
X53367436Y-139018671D01*
X53264624Y-138938018D01*
X53167974Y-138900581D01*
X53063623Y-138897463D01*
X52972285Y-138912225D01*
X52830268Y-138963155D01*
X52667086Y-139052984D01*
X52508830Y-139163761D01*
X52381593Y-139277534D01*
X52317588Y-139362654D01*
X52278462Y-139488274D01*
X52267520Y-139613662D01*
X52292966Y-139726256D01*
X52355386Y-139889318D01*
X52445115Y-140082649D01*
X52552490Y-140286053D01*
X52667850Y-140479329D01*
X52717612Y-140554456D01*
X52825212Y-140707369D01*
X52902225Y-140798616D01*
X52965031Y-140836978D01*
X53030010Y-140831235D01*
X53113541Y-140790166D01*
X53134712Y-140778026D01*
X53299032Y-140683155D01*
X53006241Y-140181813D01*
X52887958Y-139976872D01*
X52808263Y-139830977D01*
X52761439Y-139731026D01*
X52741770Y-139663918D01*
X52743538Y-139616548D01*
X52750699Y-139596116D01*
X52817791Y-139509770D01*
X52920364Y-139437594D01*
X53025720Y-139398635D01*
X53084479Y-139401660D01*
X53135540Y-139444543D01*
X53222255Y-139539992D01*
X53330624Y-139671997D01*
X53404004Y-139767108D01*
X53527178Y-139923918D01*
X53646076Y-140063779D01*
X53742981Y-140166340D01*
X53780277Y-140199318D01*
X53935523Y-140266063D01*
X54126525Y-140256314D01*
X54352848Y-140170118D01*
X54425251Y-140130697D01*
X54628623Y-139981403D01*
X54758152Y-139813631D01*
X54808958Y-139634165D01*
X54809222Y-139596906D01*
X54782340Y-139470432D01*
X54715545Y-139294517D01*
X54618326Y-139088476D01*
X54500175Y-138871626D01*
X54370584Y-138663283D01*
G36*
X53101514Y-136513604D02*
G01*
X52962817Y-136388370D01*
X52817034Y-136317294D01*
X52796881Y-136311476D01*
X52678817Y-136293444D01*
X52549098Y-136305217D01*
X52391709Y-136351080D01*
X52190633Y-136435322D01*
X52009748Y-136522181D01*
X51678147Y-136686772D01*
X52053332Y-137359671D01*
X52428515Y-138032570D01*
X52275430Y-138106084D01*
X52158700Y-138158146D01*
X52065097Y-138193237D01*
X52052046Y-138196900D01*
X51965162Y-138191516D01*
X51869458Y-138129989D01*
X51759683Y-138006458D01*
X51630582Y-137815059D01*
X51484450Y-137563587D01*
X51222866Y-137091362D01*
X51062685Y-137183843D01*
X50953795Y-137261651D01*
X50911700Y-137327358D01*
X50911974Y-137336071D01*
X50940153Y-137417832D01*
X51002250Y-137552572D01*
X51087858Y-137721135D01*
X51186565Y-137904366D01*
X51287960Y-138083110D01*
X51381636Y-138238211D01*
X51457181Y-138350515D01*
X51476875Y-138375533D01*
X51637583Y-138540743D01*
X51795778Y-138643403D01*
X51964681Y-138684552D01*
X52157505Y-138665227D01*
X52387468Y-138586465D01*
X52635387Y-138466532D01*
X52947213Y-138293586D01*
X53015198Y-138249746D01*
X52777747Y-137838469D01*
X52747721Y-137824034D01*
X52702972Y-137770138D01*
X52636039Y-137666935D01*
X52539460Y-137504574D01*
X52475470Y-137394229D01*
X52195570Y-136909428D01*
X52290822Y-136883909D01*
X52408852Y-136840728D01*
X52470518Y-136810304D01*
X52568550Y-136787675D01*
X52690555Y-136798618D01*
X52696904Y-136800251D01*
X52778667Y-136830061D01*
X52844310Y-136880755D01*
X52912570Y-136971451D01*
X52988938Y-137098249D01*
X53068320Y-137243216D01*
X53108093Y-137343410D01*
X53115445Y-137424621D01*
X53100995Y-137500157D01*
X53031473Y-137636939D01*
X52954309Y-137704830D01*
X52858989Y-137769642D01*
X52800513Y-137823296D01*
X52777747Y-137838469D01*
X53015198Y-138249746D01*
X53186585Y-138139229D01*
X53361386Y-137995320D01*
X53479499Y-137853715D01*
X53548806Y-137706273D01*
X53577188Y-137544851D01*
X53578904Y-137491903D01*
X53567471Y-137379619D01*
X53527254Y-137248976D01*
X53451015Y-137079530D01*
X53392168Y-136964410D01*
X53241756Y-136702463D01*
X53101514Y-136513604D01*
G37*
X53101514Y-136513604D02*
X52962817Y-136388370D01*
X52817034Y-136317294D01*
X52796881Y-136311476D01*
X52678817Y-136293444D01*
X52549098Y-136305217D01*
X52391709Y-136351080D01*
X52190633Y-136435322D01*
X52009748Y-136522181D01*
X51678147Y-136686772D01*
X52053332Y-137359671D01*
X52428515Y-138032570D01*
X52275430Y-138106084D01*
X52158700Y-138158146D01*
X52065097Y-138193237D01*
X52052046Y-138196900D01*
X51965162Y-138191516D01*
X51869458Y-138129989D01*
X51759683Y-138006458D01*
X51630582Y-137815059D01*
X51484450Y-137563587D01*
X51222866Y-137091362D01*
X51062685Y-137183843D01*
X50953795Y-137261651D01*
X50911700Y-137327358D01*
X50911974Y-137336071D01*
X50940153Y-137417832D01*
X51002250Y-137552572D01*
X51087858Y-137721135D01*
X51186565Y-137904366D01*
X51287960Y-138083110D01*
X51381636Y-138238211D01*
X51457181Y-138350515D01*
X51476875Y-138375533D01*
X51637583Y-138540743D01*
X51795778Y-138643403D01*
X51964681Y-138684552D01*
X52157505Y-138665227D01*
X52387468Y-138586465D01*
X52635387Y-138466532D01*
X52947213Y-138293586D01*
X53015198Y-138249746D01*
X52777747Y-137838469D01*
X52747721Y-137824034D01*
X52702972Y-137770138D01*
X52636039Y-137666935D01*
X52539460Y-137504574D01*
X52475470Y-137394229D01*
X52195570Y-136909428D01*
X52290822Y-136883909D01*
X52408852Y-136840728D01*
X52470518Y-136810304D01*
X52568550Y-136787675D01*
X52690555Y-136798618D01*
X52696904Y-136800251D01*
X52778667Y-136830061D01*
X52844310Y-136880755D01*
X52912570Y-136971451D01*
X52988938Y-137098249D01*
X53068320Y-137243216D01*
X53108093Y-137343410D01*
X53115445Y-137424621D01*
X53100995Y-137500157D01*
X53031473Y-137636939D01*
X52954309Y-137704830D01*
X52858989Y-137769642D01*
X52800513Y-137823296D01*
X52777747Y-137838469D01*
X53015198Y-138249746D01*
X53186585Y-138139229D01*
X53361386Y-137995320D01*
X53479499Y-137853715D01*
X53548806Y-137706273D01*
X53577188Y-137544851D01*
X53578904Y-137491903D01*
X53567471Y-137379619D01*
X53527254Y-137248976D01*
X53451015Y-137079530D01*
X53392168Y-136964410D01*
X53241756Y-136702463D01*
X53101514Y-136513604D01*
G36*
X56215248Y-142872594D02*
G01*
X55860590Y-143085227D01*
X55572434Y-143260846D01*
X55344070Y-143404955D01*
X55168786Y-143523062D01*
X55039874Y-143620675D01*
X54950620Y-143703300D01*
X54894316Y-143776445D01*
X54864250Y-143845615D01*
X54853709Y-143916319D01*
X54855557Y-143988375D01*
X54879578Y-144103436D01*
X54932775Y-144263767D01*
X55004945Y-144439685D01*
X55027318Y-144488018D01*
X55187081Y-144823498D01*
X55600444Y-144584843D01*
X55488073Y-144390210D01*
X55435096Y-144299285D01*
X55396742Y-144224075D01*
X55379101Y-144158210D01*
X55388261Y-144095324D01*
X55430314Y-144029045D01*
X55511346Y-143953004D01*
X55637448Y-143860834D01*
X55814709Y-143746162D01*
X56049219Y-143602621D01*
X56347067Y-143423841D01*
X56498948Y-143332856D01*
X57600381Y-142672503D01*
X57476705Y-142432833D01*
X57353030Y-142193165D01*
X56215248Y-142872594D01*
G37*
X56215248Y-142872594D02*
X55860590Y-143085227D01*
X55572434Y-143260846D01*
X55344070Y-143404955D01*
X55168786Y-143523062D01*
X55039874Y-143620675D01*
X54950620Y-143703300D01*
X54894316Y-143776445D01*
X54864250Y-143845615D01*
X54853709Y-143916319D01*
X54855557Y-143988375D01*
X54879578Y-144103436D01*
X54932775Y-144263767D01*
X55004945Y-144439685D01*
X55027318Y-144488018D01*
X55187081Y-144823498D01*
X55600444Y-144584843D01*
X55488073Y-144390210D01*
X55435096Y-144299285D01*
X55396742Y-144224075D01*
X55379101Y-144158210D01*
X55388261Y-144095324D01*
X55430314Y-144029045D01*
X55511346Y-143953004D01*
X55637448Y-143860834D01*
X55814709Y-143746162D01*
X56049219Y-143602621D01*
X56347067Y-143423841D01*
X56498948Y-143332856D01*
X57600381Y-142672503D01*
X57476705Y-142432833D01*
X57353030Y-142193165D01*
X56215248Y-142872594D01*
G36*
X52444982Y-134039422D02*
G01*
X52550815Y-134222731D01*
X52626116Y-134389525D01*
X52631127Y-134521398D01*
X52561441Y-134631853D01*
X52412650Y-134734394D01*
X52377820Y-134752699D01*
X52162474Y-134862439D01*
X52008759Y-134621231D01*
X51855043Y-134380023D01*
X51491776Y-134589756D01*
X51788110Y-135103020D01*
X50138331Y-136055520D01*
X50371164Y-136458799D01*
X52020943Y-135506299D01*
X52253776Y-135909578D01*
X52616562Y-135700124D01*
X52516519Y-135501252D01*
X52416474Y-135302380D01*
X52719660Y-135102146D01*
X52911507Y-134965681D01*
X53038625Y-134843170D01*
X53104722Y-134718267D01*
X53113507Y-134574622D01*
X53068687Y-134395884D01*
X52973971Y-134165709D01*
X52945908Y-134104610D01*
X52816039Y-133825192D01*
X52444982Y-134039422D01*
G37*
X52444982Y-134039422D02*
X52550815Y-134222731D01*
X52626116Y-134389525D01*
X52631127Y-134521398D01*
X52561441Y-134631853D01*
X52412650Y-134734394D01*
X52377820Y-134752699D01*
X52162474Y-134862439D01*
X52008759Y-134621231D01*
X51855043Y-134380023D01*
X51491776Y-134589756D01*
X51788110Y-135103020D01*
X50138331Y-136055520D01*
X50371164Y-136458799D01*
X52020943Y-135506299D01*
X52253776Y-135909578D01*
X52616562Y-135700124D01*
X52516519Y-135501252D01*
X52416474Y-135302380D01*
X52719660Y-135102146D01*
X52911507Y-134965681D01*
X53038625Y-134843170D01*
X53104722Y-134718267D01*
X53113507Y-134574622D01*
X53068687Y-134395884D01*
X52973971Y-134165709D01*
X52945908Y-134104610D01*
X52816039Y-133825192D01*
X52444982Y-134039422D01*
G36*
X59660030Y-147277086D02*
G01*
X59369617Y-147448935D01*
X59148754Y-147591328D01*
X58991571Y-147713282D01*
X58892198Y-147823815D01*
X58844767Y-147931945D01*
X58843404Y-148046689D01*
X58882242Y-148177065D01*
X58955409Y-148332090D01*
X58963356Y-148347327D01*
X59042338Y-148491186D01*
X59111799Y-148605644D01*
X59158770Y-148669582D01*
X59164123Y-148674304D01*
X59236326Y-148684337D01*
X59280114Y-148668440D01*
X59310754Y-148641010D01*
X59312686Y-148597450D01*
X59280781Y-148520879D01*
X59209909Y-148394418D01*
X59182974Y-148348766D01*
X59098709Y-148201218D01*
X59054081Y-148102716D01*
X59042330Y-148031484D01*
X59056694Y-147965747D01*
X59060695Y-147954982D01*
X59130277Y-147852132D01*
X59237729Y-147764893D01*
X59238149Y-147764653D01*
X59317291Y-147727629D01*
X59349345Y-147729781D01*
X59347105Y-147738409D01*
X59323814Y-147872022D01*
X59358199Y-148028235D01*
X59437793Y-148182231D01*
X59550132Y-148309184D01*
X59669275Y-148379929D01*
X59739947Y-148401564D01*
X59802012Y-148405607D01*
X59874430Y-148386163D01*
X59976156Y-148337340D01*
X60126145Y-148253246D01*
X60183981Y-148219915D01*
X60193706Y-148214193D01*
X60098503Y-148049296D01*
X59920649Y-148143545D01*
X59798238Y-148189640D01*
X59746880Y-148191202D01*
X59624054Y-148104182D01*
X59535179Y-147967034D01*
X59494935Y-147810854D01*
X59509343Y-147688004D01*
X59546965Y-147616291D01*
X59615973Y-147552728D01*
X59736071Y-147481151D01*
X59804607Y-147445757D01*
X59943578Y-147382535D01*
X60058872Y-147342369D01*
X60123518Y-147333909D01*
X60216093Y-147393599D01*
X60305398Y-147504818D01*
X60371291Y-147636127D01*
X60393661Y-147755649D01*
X60384354Y-147823208D01*
X60354944Y-147877014D01*
X60289700Y-147932718D01*
X60172887Y-148005971D01*
X60098503Y-148049296D01*
X60193706Y-148214193D01*
X60353466Y-148120183D01*
X60463981Y-148047786D01*
X60530850Y-147989447D01*
X60569397Y-147931894D01*
X60594113Y-147864620D01*
X60612963Y-147768796D01*
X60598986Y-147678598D01*
X60545143Y-147562609D01*
X60514096Y-147507538D01*
X60426160Y-147371627D01*
X60348645Y-147295566D01*
X60275128Y-147262968D01*
X60195194Y-147239042D01*
X60186764Y-147219231D01*
X60232795Y-147189644D01*
X60277891Y-147134967D01*
X60253202Y-147055657D01*
X60200286Y-146964003D01*
X59660030Y-147277086D01*
G37*
X59660030Y-147277086D02*
X59369617Y-147448935D01*
X59148754Y-147591328D01*
X58991571Y-147713282D01*
X58892198Y-147823815D01*
X58844767Y-147931945D01*
X58843404Y-148046689D01*
X58882242Y-148177065D01*
X58955409Y-148332090D01*
X58963356Y-148347327D01*
X59042338Y-148491186D01*
X59111799Y-148605644D01*
X59158770Y-148669582D01*
X59164123Y-148674304D01*
X59236326Y-148684337D01*
X59280114Y-148668440D01*
X59310754Y-148641010D01*
X59312686Y-148597450D01*
X59280781Y-148520879D01*
X59209909Y-148394418D01*
X59182974Y-148348766D01*
X59098709Y-148201218D01*
X59054081Y-148102716D01*
X59042330Y-148031484D01*
X59056694Y-147965747D01*
X59060695Y-147954982D01*
X59130277Y-147852132D01*
X59237729Y-147764893D01*
X59238149Y-147764653D01*
X59317291Y-147727629D01*
X59349345Y-147729781D01*
X59347105Y-147738409D01*
X59323814Y-147872022D01*
X59358199Y-148028235D01*
X59437793Y-148182231D01*
X59550132Y-148309184D01*
X59669275Y-148379929D01*
X59739947Y-148401564D01*
X59802012Y-148405607D01*
X59874430Y-148386163D01*
X59976156Y-148337340D01*
X60126145Y-148253246D01*
X60183981Y-148219915D01*
X60193706Y-148214193D01*
X60098503Y-148049296D01*
X59920649Y-148143545D01*
X59798238Y-148189640D01*
X59746880Y-148191202D01*
X59624054Y-148104182D01*
X59535179Y-147967034D01*
X59494935Y-147810854D01*
X59509343Y-147688004D01*
X59546965Y-147616291D01*
X59615973Y-147552728D01*
X59736071Y-147481151D01*
X59804607Y-147445757D01*
X59943578Y-147382535D01*
X60058872Y-147342369D01*
X60123518Y-147333909D01*
X60216093Y-147393599D01*
X60305398Y-147504818D01*
X60371291Y-147636127D01*
X60393661Y-147755649D01*
X60384354Y-147823208D01*
X60354944Y-147877014D01*
X60289700Y-147932718D01*
X60172887Y-148005971D01*
X60098503Y-148049296D01*
X60193706Y-148214193D01*
X60353466Y-148120183D01*
X60463981Y-148047786D01*
X60530850Y-147989447D01*
X60569397Y-147931894D01*
X60594113Y-147864620D01*
X60612963Y-147768796D01*
X60598986Y-147678598D01*
X60545143Y-147562609D01*
X60514096Y-147507538D01*
X60426160Y-147371627D01*
X60348645Y-147295566D01*
X60275128Y-147262968D01*
X60195194Y-147239042D01*
X60186764Y-147219231D01*
X60232795Y-147189644D01*
X60277891Y-147134967D01*
X60253202Y-147055657D01*
X60200286Y-146964003D01*
X59660030Y-147277086D01*
G36*
X63114642Y-150841762D02*
G01*
X63055302Y-150766036D01*
X61478847Y-151676203D01*
X61514757Y-151765456D01*
X61558988Y-151826027D01*
X61625673Y-151811402D01*
X61626540Y-151810903D01*
X61679671Y-151784184D01*
X61690048Y-151805880D01*
X61671423Y-151882755D01*
X61663980Y-151975297D01*
X61696915Y-152083149D01*
X61763307Y-152208543D01*
X61845384Y-152330715D01*
X61926294Y-152422261D01*
X61970040Y-152453882D01*
X62104460Y-152475369D01*
X62274263Y-152437816D01*
X62488334Y-152338947D01*
X62547109Y-152305941D01*
X62550085Y-152303976D01*
X62444359Y-152120853D01*
X62294454Y-152204439D01*
X62195298Y-152248973D01*
X62126115Y-152260714D01*
X62066129Y-152245914D01*
X62051109Y-152239255D01*
X61927130Y-152139549D01*
X61848213Y-151993885D01*
X61832382Y-151835969D01*
X61833051Y-151831516D01*
X61852277Y-151759162D01*
X61894838Y-151699688D01*
X61978225Y-151635872D01*
X62116276Y-151552595D01*
X62259837Y-151473460D01*
X62356055Y-151433908D01*
X62428590Y-151427405D01*
X62499441Y-151446776D01*
X62629212Y-151537539D01*
X62717419Y-151677760D01*
X62743884Y-151834972D01*
X62743524Y-151839489D01*
X62730540Y-151902244D01*
X62693690Y-151956199D01*
X62617169Y-152016218D01*
X62485173Y-152097166D01*
X62444359Y-152120853D01*
X62550085Y-152303976D01*
X62766740Y-152160849D01*
X62910499Y-152023940D01*
X62975255Y-151898453D01*
X62978729Y-151859288D01*
X62949296Y-151745217D01*
X62879410Y-151604751D01*
X62787907Y-151467747D01*
X62693621Y-151364064D01*
X62645590Y-151331196D01*
X62541476Y-151282665D01*
X62857729Y-151100076D01*
X63009320Y-151011326D01*
X63098917Y-150952580D01*
X63138195Y-150912101D01*
X63138823Y-150878154D01*
X63114642Y-150841762D01*
G37*
X63114642Y-150841762D02*
X63055302Y-150766036D01*
X61478847Y-151676203D01*
X61514757Y-151765456D01*
X61558988Y-151826027D01*
X61625673Y-151811402D01*
X61626540Y-151810903D01*
X61679671Y-151784184D01*
X61690048Y-151805880D01*
X61671423Y-151882755D01*
X61663980Y-151975297D01*
X61696915Y-152083149D01*
X61763307Y-152208543D01*
X61845384Y-152330715D01*
X61926294Y-152422261D01*
X61970040Y-152453882D01*
X62104460Y-152475369D01*
X62274263Y-152437816D01*
X62488334Y-152338947D01*
X62547109Y-152305941D01*
X62550085Y-152303976D01*
X62444359Y-152120853D01*
X62294454Y-152204439D01*
X62195298Y-152248973D01*
X62126115Y-152260714D01*
X62066129Y-152245914D01*
X62051109Y-152239255D01*
X61927130Y-152139549D01*
X61848213Y-151993885D01*
X61832382Y-151835969D01*
X61833051Y-151831516D01*
X61852277Y-151759162D01*
X61894838Y-151699688D01*
X61978225Y-151635872D01*
X62116276Y-151552595D01*
X62259837Y-151473460D01*
X62356055Y-151433908D01*
X62428590Y-151427405D01*
X62499441Y-151446776D01*
X62629212Y-151537539D01*
X62717419Y-151677760D01*
X62743884Y-151834972D01*
X62743524Y-151839489D01*
X62730540Y-151902244D01*
X62693690Y-151956199D01*
X62617169Y-152016218D01*
X62485173Y-152097166D01*
X62444359Y-152120853D01*
X62550085Y-152303976D01*
X62766740Y-152160849D01*
X62910499Y-152023940D01*
X62975255Y-151898453D01*
X62978729Y-151859288D01*
X62949296Y-151745217D01*
X62879410Y-151604751D01*
X62787907Y-151467747D01*
X62693621Y-151364064D01*
X62645590Y-151331196D01*
X62541476Y-151282665D01*
X62857729Y-151100076D01*
X63009320Y-151011326D01*
X63098917Y-150952580D01*
X63138195Y-150912101D01*
X63138823Y-150878154D01*
X63114642Y-150841762D01*
G36*
X61994508Y-150093521D02*
G01*
X61888279Y-149991002D01*
X61771834Y-149954380D01*
X61627096Y-149976305D01*
X61500558Y-150022024D01*
X61373001Y-150078610D01*
X61281044Y-150127522D01*
X61249569Y-150152401D01*
X61261449Y-150201725D01*
X61308707Y-150306365D01*
X61383076Y-150449086D01*
X61443597Y-150556816D01*
X61656661Y-150925852D01*
X61523996Y-150971236D01*
X61403261Y-150997268D01*
X61305354Y-150975250D01*
X61215941Y-150895534D01*
X61120684Y-150748476D01*
X61079639Y-150672294D01*
X61005039Y-150532651D01*
X60955329Y-150455408D01*
X60917302Y-150427351D01*
X60877754Y-150435269D01*
X60855040Y-150447570D01*
X60817012Y-150475061D01*
X60805502Y-150511240D01*
X60825099Y-150573050D01*
X60880393Y-150677433D01*
X60949548Y-150796398D01*
X61042134Y-150945407D01*
X61129008Y-151070579D01*
X61194367Y-151149483D01*
X61205009Y-151158977D01*
X61306304Y-151208813D01*
X61427804Y-151204901D01*
X61587695Y-151145511D01*
X61644886Y-151117124D01*
X61865404Y-150999194D01*
X61886956Y-150986069D01*
X61803307Y-150841186D01*
X61631328Y-150543309D01*
X61547629Y-150395668D01*
X61502790Y-150303607D01*
X61492414Y-150249923D01*
X61512103Y-150217417D01*
X61542846Y-150197225D01*
X61689105Y-150152200D01*
X61821919Y-150189218D01*
X61933649Y-150305853D01*
X61945209Y-150324967D01*
X62013572Y-150484275D01*
X62009926Y-150612912D01*
X61932902Y-150726872D01*
X61908944Y-150748986D01*
X61803307Y-150841186D01*
X61886956Y-150986069D01*
X62020509Y-150904735D01*
X62122638Y-150823938D01*
X62184227Y-150746990D01*
X62217343Y-150665467D01*
X62232424Y-150578547D01*
X62220638Y-150495064D01*
X62174753Y-150388673D01*
X62108593Y-150269287D01*
X61994508Y-150093521D01*
G37*
X61994508Y-150093521D02*
X61888279Y-149991002D01*
X61771834Y-149954380D01*
X61627096Y-149976305D01*
X61500558Y-150022024D01*
X61373001Y-150078610D01*
X61281044Y-150127522D01*
X61249569Y-150152401D01*
X61261449Y-150201725D01*
X61308707Y-150306365D01*
X61383076Y-150449086D01*
X61443597Y-150556816D01*
X61656661Y-150925852D01*
X61523996Y-150971236D01*
X61403261Y-150997268D01*
X61305354Y-150975250D01*
X61215941Y-150895534D01*
X61120684Y-150748476D01*
X61079639Y-150672294D01*
X61005039Y-150532651D01*
X60955329Y-150455408D01*
X60917302Y-150427351D01*
X60877754Y-150435269D01*
X60855040Y-150447570D01*
X60817012Y-150475061D01*
X60805502Y-150511240D01*
X60825099Y-150573050D01*
X60880393Y-150677433D01*
X60949548Y-150796398D01*
X61042134Y-150945407D01*
X61129008Y-151070579D01*
X61194367Y-151149483D01*
X61205009Y-151158977D01*
X61306304Y-151208813D01*
X61427804Y-151204901D01*
X61587695Y-151145511D01*
X61644886Y-151117124D01*
X61865404Y-150999194D01*
X61886956Y-150986069D01*
X61803307Y-150841186D01*
X61631328Y-150543309D01*
X61547629Y-150395668D01*
X61502790Y-150303607D01*
X61492414Y-150249923D01*
X61512103Y-150217417D01*
X61542846Y-150197225D01*
X61689105Y-150152200D01*
X61821919Y-150189218D01*
X61933649Y-150305853D01*
X61945209Y-150324967D01*
X62013572Y-150484275D01*
X62009926Y-150612912D01*
X61932902Y-150726872D01*
X61908944Y-150748986D01*
X61803307Y-150841186D01*
X61886956Y-150986069D01*
X62020509Y-150904735D01*
X62122638Y-150823938D01*
X62184227Y-150746990D01*
X62217343Y-150665467D01*
X62232424Y-150578547D01*
X62220638Y-150495064D01*
X62174753Y-150388673D01*
X62108593Y-150269287D01*
X61994508Y-150093521D01*
G36*
X61407048Y-149071617D02*
G01*
X61313297Y-148928005D01*
X61248356Y-148845901D01*
X61200062Y-148812726D01*
X61158933Y-148814928D01*
X61127068Y-148835881D01*
X61125497Y-148877871D01*
X61158909Y-148957052D01*
X61231992Y-149089574D01*
X61245411Y-149112881D01*
X61337493Y-149289281D01*
X61375320Y-149413646D01*
X61359199Y-149498678D01*
X61289438Y-149557084D01*
X61256516Y-149571953D01*
X61202930Y-149583858D01*
X61150399Y-149563657D01*
X61082440Y-149499475D01*
X60982575Y-149379437D01*
X60973460Y-149368004D01*
X60843887Y-149214726D01*
X60742149Y-149126030D01*
X60650316Y-149095264D01*
X60550455Y-149115780D01*
X60441900Y-149170858D01*
X60310884Y-149259784D01*
X60239228Y-149350757D01*
X60225476Y-149459239D01*
X60268171Y-149600695D01*
X60365856Y-149790587D01*
X60381016Y-149817038D01*
X60469306Y-149967471D01*
X60528333Y-150056346D01*
X60570292Y-150095930D01*
X60607372Y-150098491D01*
X60643470Y-150081120D01*
X60683738Y-150052087D01*
X60693622Y-150014804D01*
X60668280Y-149950944D01*
X60602879Y-149842177D01*
X60564568Y-149782227D01*
X60464851Y-149610229D01*
X60422253Y-149486442D01*
X60435396Y-149397869D01*
X60502902Y-149331510D01*
X60515923Y-149323650D01*
X60593933Y-149299475D01*
X60673405Y-149326262D01*
X60766538Y-149412083D01*
X60885532Y-149565009D01*
X60889866Y-149571049D01*
X61004220Y-149710399D01*
X61107263Y-149776961D01*
X61220402Y-149776037D01*
X61365046Y-149712927D01*
X61394820Y-149696100D01*
X61512421Y-149613059D01*
X61572456Y-149523665D01*
X61575203Y-149413802D01*
X61520938Y-149269358D01*
X61409937Y-149076220D01*
X61407048Y-149071617D01*
G37*
X61407048Y-149071617D02*
X61313297Y-148928005D01*
X61248356Y-148845901D01*
X61200062Y-148812726D01*
X61158933Y-148814928D01*
X61127068Y-148835881D01*
X61125497Y-148877871D01*
X61158909Y-148957052D01*
X61231992Y-149089574D01*
X61245411Y-149112881D01*
X61337493Y-149289281D01*
X61375320Y-149413646D01*
X61359199Y-149498678D01*
X61289438Y-149557084D01*
X61256516Y-149571953D01*
X61202930Y-149583858D01*
X61150399Y-149563657D01*
X61082440Y-149499475D01*
X60982575Y-149379437D01*
X60973460Y-149368004D01*
X60843887Y-149214726D01*
X60742149Y-149126030D01*
X60650316Y-149095264D01*
X60550455Y-149115780D01*
X60441900Y-149170858D01*
X60310884Y-149259784D01*
X60239228Y-149350757D01*
X60225476Y-149459239D01*
X60268171Y-149600695D01*
X60365856Y-149790587D01*
X60381016Y-149817038D01*
X60469306Y-149967471D01*
X60528333Y-150056346D01*
X60570292Y-150095930D01*
X60607372Y-150098491D01*
X60643470Y-150081120D01*
X60683738Y-150052087D01*
X60693622Y-150014804D01*
X60668280Y-149950944D01*
X60602879Y-149842177D01*
X60564568Y-149782227D01*
X60464851Y-149610229D01*
X60422253Y-149486442D01*
X60435396Y-149397869D01*
X60502902Y-149331510D01*
X60515923Y-149323650D01*
X60593933Y-149299475D01*
X60673405Y-149326262D01*
X60766538Y-149412083D01*
X60885532Y-149565009D01*
X60889866Y-149571049D01*
X61004220Y-149710399D01*
X61107263Y-149776961D01*
X61220402Y-149776037D01*
X61365046Y-149712927D01*
X61394820Y-149696100D01*
X61512421Y-149613059D01*
X61572456Y-149523665D01*
X61575203Y-149413802D01*
X61520938Y-149269358D01*
X61409937Y-149076220D01*
X61407048Y-149071617D01*
G36*
X60963579Y-148294387D02*
G01*
X60934042Y-148284965D01*
X60883111Y-148297057D01*
X60799056Y-148335499D01*
X60670146Y-148405128D01*
X60484649Y-148510780D01*
X60391192Y-148564663D01*
X60180117Y-148687168D01*
X60032585Y-148775559D01*
X59938543Y-148837576D01*
X59887938Y-148880960D01*
X59870713Y-148913453D01*
X59876818Y-148942794D01*
X59883600Y-148955487D01*
X59903473Y-148981587D01*
X59933010Y-148991009D01*
X59983941Y-148978917D01*
X60067997Y-148940475D01*
X60196907Y-148870847D01*
X60382404Y-148765195D01*
X60475859Y-148711311D01*
X60686935Y-148588806D01*
X60834466Y-148500416D01*
X60928509Y-148438398D01*
X60979115Y-148395014D01*
X60996339Y-148362522D01*
X60990234Y-148333180D01*
X60983452Y-148320487D01*
X60963579Y-148294387D01*
G37*
X60963579Y-148294387D02*
X60934042Y-148284965D01*
X60883111Y-148297057D01*
X60799056Y-148335499D01*
X60670146Y-148405128D01*
X60484649Y-148510780D01*
X60391192Y-148564663D01*
X60180117Y-148687168D01*
X60032585Y-148775559D01*
X59938543Y-148837576D01*
X59887938Y-148880960D01*
X59870713Y-148913453D01*
X59876818Y-148942794D01*
X59883600Y-148955487D01*
X59903473Y-148981587D01*
X59933010Y-148991009D01*
X59983941Y-148978917D01*
X60067997Y-148940475D01*
X60196907Y-148870847D01*
X60382404Y-148765195D01*
X60475859Y-148711311D01*
X60686935Y-148588806D01*
X60834466Y-148500416D01*
X60928509Y-148438398D01*
X60979115Y-148395014D01*
X60996339Y-148362522D01*
X60990234Y-148333180D01*
X60983452Y-148320487D01*
X60963579Y-148294387D01*
G36*
X59594964Y-145936960D02*
G01*
X59476726Y-145838444D01*
X59449942Y-145826174D01*
X59396439Y-145809725D01*
X59341663Y-145808382D01*
X59270685Y-145827507D01*
X59168577Y-145872459D01*
X59020411Y-145948601D01*
X58842629Y-146044276D01*
X58355349Y-146308479D01*
X58465433Y-146499150D01*
X58878202Y-146261587D01*
X59051055Y-146166051D01*
X59202752Y-146089440D01*
X59315191Y-146040461D01*
X59366034Y-146027036D01*
X59435167Y-146065518D01*
X59512184Y-146158053D01*
X59581030Y-146277483D01*
X59625651Y-146396652D01*
X59632488Y-146477749D01*
X59613254Y-146525103D01*
X59563693Y-146577590D01*
X59471461Y-146644647D01*
X59324212Y-146735707D01*
X59200054Y-146808252D01*
X58782933Y-147049077D01*
X58888766Y-147232385D01*
X59438692Y-146914885D01*
X59649768Y-146792380D01*
X59797299Y-146703990D01*
X59891342Y-146641973D01*
X59941948Y-146598588D01*
X59959172Y-146566096D01*
X59953067Y-146536754D01*
X59946286Y-146524062D01*
X59885687Y-146477919D01*
X59827968Y-146494608D01*
X59751983Y-146538478D01*
X59772197Y-146398009D01*
X59759736Y-146246975D01*
X59694980Y-146083214D01*
X59594964Y-145936960D01*
G37*
X59594964Y-145936960D02*
X59476726Y-145838444D01*
X59449942Y-145826174D01*
X59396439Y-145809725D01*
X59341663Y-145808382D01*
X59270685Y-145827507D01*
X59168577Y-145872459D01*
X59020411Y-145948601D01*
X58842629Y-146044276D01*
X58355349Y-146308479D01*
X58465433Y-146499150D01*
X58878202Y-146261587D01*
X59051055Y-146166051D01*
X59202752Y-146089440D01*
X59315191Y-146040461D01*
X59366034Y-146027036D01*
X59435167Y-146065518D01*
X59512184Y-146158053D01*
X59581030Y-146277483D01*
X59625651Y-146396652D01*
X59632488Y-146477749D01*
X59613254Y-146525103D01*
X59563693Y-146577590D01*
X59471461Y-146644647D01*
X59324212Y-146735707D01*
X59200054Y-146808252D01*
X58782933Y-147049077D01*
X58888766Y-147232385D01*
X59438692Y-146914885D01*
X59649768Y-146792380D01*
X59797299Y-146703990D01*
X59891342Y-146641973D01*
X59941948Y-146598588D01*
X59959172Y-146566096D01*
X59953067Y-146536754D01*
X59946286Y-146524062D01*
X59885687Y-146477919D01*
X59827968Y-146494608D01*
X59751983Y-146538478D01*
X59772197Y-146398009D01*
X59759736Y-146246975D01*
X59694980Y-146083214D01*
X59594964Y-145936960D01*
G36*
X58884727Y-144704344D02*
G01*
X58824514Y-144651379D01*
X58748192Y-144616576D01*
X58737821Y-144612924D01*
X58643388Y-144590013D01*
X58553856Y-144599465D01*
X58438379Y-144647111D01*
X58369810Y-144682527D01*
X58145450Y-144801923D01*
X58561444Y-145570837D01*
X58429526Y-145614487D01*
X58311078Y-145639768D01*
X58215295Y-145619853D01*
X58127442Y-145544813D01*
X58032783Y-145404722D01*
X57981072Y-145312327D01*
X57902146Y-145170388D01*
X57849070Y-145090954D01*
X57809689Y-145060878D01*
X57771842Y-145067010D01*
X57760074Y-145073303D01*
X57729816Y-145100309D01*
X57725913Y-145143772D01*
X57752976Y-145219935D01*
X57815610Y-145345040D01*
X57861337Y-145430338D01*
X57982976Y-145636604D01*
X58083212Y-145765445D01*
X58134943Y-145807580D01*
X58213685Y-145844213D01*
X58294673Y-145852540D01*
X58394712Y-145828254D01*
X58530611Y-145767047D01*
X58719178Y-145664612D01*
X58740973Y-145652279D01*
X58790376Y-145622636D01*
X58711046Y-145485232D01*
X58369015Y-144892818D01*
X58476383Y-144830829D01*
X58612253Y-144787988D01*
X58732783Y-144827021D01*
X58840817Y-144948995D01*
X58855188Y-144972893D01*
X58922223Y-145128948D01*
X58917787Y-145255008D01*
X58840200Y-145369010D01*
X58815953Y-145391768D01*
X58711046Y-145485232D01*
X58790376Y-145622636D01*
X58939977Y-145532872D01*
X59068212Y-145432273D01*
X59132087Y-145334483D01*
X59138015Y-145223502D01*
X59092408Y-145083332D01*
X59025097Y-144943276D01*
X58945898Y-144795100D01*
X58884727Y-144704344D01*
G37*
X58884727Y-144704344D02*
X58824514Y-144651379D01*
X58748192Y-144616576D01*
X58737821Y-144612924D01*
X58643388Y-144590013D01*
X58553856Y-144599465D01*
X58438379Y-144647111D01*
X58369810Y-144682527D01*
X58145450Y-144801923D01*
X58561444Y-145570837D01*
X58429526Y-145614487D01*
X58311078Y-145639768D01*
X58215295Y-145619853D01*
X58127442Y-145544813D01*
X58032783Y-145404722D01*
X57981072Y-145312327D01*
X57902146Y-145170388D01*
X57849070Y-145090954D01*
X57809689Y-145060878D01*
X57771842Y-145067010D01*
X57760074Y-145073303D01*
X57729816Y-145100309D01*
X57725913Y-145143772D01*
X57752976Y-145219935D01*
X57815610Y-145345040D01*
X57861337Y-145430338D01*
X57982976Y-145636604D01*
X58083212Y-145765445D01*
X58134943Y-145807580D01*
X58213685Y-145844213D01*
X58294673Y-145852540D01*
X58394712Y-145828254D01*
X58530611Y-145767047D01*
X58719178Y-145664612D01*
X58740973Y-145652279D01*
X58790376Y-145622636D01*
X58711046Y-145485232D01*
X58369015Y-144892818D01*
X58476383Y-144830829D01*
X58612253Y-144787988D01*
X58732783Y-144827021D01*
X58840817Y-144948995D01*
X58855188Y-144972893D01*
X58922223Y-145128948D01*
X58917787Y-145255008D01*
X58840200Y-145369010D01*
X58815953Y-145391768D01*
X58711046Y-145485232D01*
X58790376Y-145622636D01*
X58939977Y-145532872D01*
X59068212Y-145432273D01*
X59132087Y-145334483D01*
X59138015Y-145223502D01*
X59092408Y-145083332D01*
X59025097Y-144943276D01*
X58945898Y-144795100D01*
X58884727Y-144704344D01*
G36*
X57750541Y-143392367D02*
G01*
X57487388Y-143544622D01*
X57289154Y-143660768D01*
X57147312Y-143746815D01*
X57053337Y-143808772D01*
X56998702Y-143852651D01*
X56974879Y-143884461D01*
X56973342Y-143910211D01*
X56983766Y-143932828D01*
X57044364Y-143978971D01*
X57102084Y-143962282D01*
X57178068Y-143918413D01*
X57157856Y-144058881D01*
X57169826Y-144205081D01*
X57231705Y-144365990D01*
X57326842Y-144511460D01*
X57438590Y-144611343D01*
X57471898Y-144627543D01*
X57605585Y-144639859D01*
X57775365Y-144601065D01*
X57960421Y-144522739D01*
X58044455Y-144472986D01*
X57948343Y-144306515D01*
X57795705Y-144380117D01*
X57650696Y-144422028D01*
X57534746Y-144420846D01*
X57497800Y-144403250D01*
X57413739Y-144308750D01*
X57347015Y-144179854D01*
X57310609Y-144049183D01*
X57317344Y-143949702D01*
X57379869Y-143876260D01*
X57495482Y-143789086D01*
X57637715Y-143703409D01*
X57780096Y-143634458D01*
X57896154Y-143597460D01*
X57933277Y-143595351D01*
X58027706Y-143640643D01*
X58124050Y-143738650D01*
X58201173Y-143860618D01*
X58237944Y-143977792D01*
X58237736Y-144009574D01*
X58190787Y-144109842D01*
X58087180Y-144212622D01*
X57948343Y-144306515D01*
X58044455Y-144472986D01*
X58139936Y-144416456D01*
X58293092Y-144293796D01*
X58399071Y-144166335D01*
X58430856Y-144094257D01*
X58443041Y-143991284D01*
X58414689Y-143883766D01*
X58353874Y-143765924D01*
X58259486Y-143629653D01*
X58164975Y-143538355D01*
X58139006Y-143523138D01*
X58036807Y-143475500D01*
X58334138Y-143289616D01*
X58479603Y-143196723D01*
X58564965Y-143133906D01*
X58602843Y-143087885D01*
X58605857Y-143045376D01*
X58595559Y-143014480D01*
X58559649Y-142925228D01*
X57750541Y-143392367D01*
G37*
X57750541Y-143392367D02*
X57487388Y-143544622D01*
X57289154Y-143660768D01*
X57147312Y-143746815D01*
X57053337Y-143808772D01*
X56998702Y-143852651D01*
X56974879Y-143884461D01*
X56973342Y-143910211D01*
X56983766Y-143932828D01*
X57044364Y-143978971D01*
X57102084Y-143962282D01*
X57178068Y-143918413D01*
X57157856Y-144058881D01*
X57169826Y-144205081D01*
X57231705Y-144365990D01*
X57326842Y-144511460D01*
X57438590Y-144611343D01*
X57471898Y-144627543D01*
X57605585Y-144639859D01*
X57775365Y-144601065D01*
X57960421Y-144522739D01*
X58044455Y-144472986D01*
X57948343Y-144306515D01*
X57795705Y-144380117D01*
X57650696Y-144422028D01*
X57534746Y-144420846D01*
X57497800Y-144403250D01*
X57413739Y-144308750D01*
X57347015Y-144179854D01*
X57310609Y-144049183D01*
X57317344Y-143949702D01*
X57379869Y-143876260D01*
X57495482Y-143789086D01*
X57637715Y-143703409D01*
X57780096Y-143634458D01*
X57896154Y-143597460D01*
X57933277Y-143595351D01*
X58027706Y-143640643D01*
X58124050Y-143738650D01*
X58201173Y-143860618D01*
X58237944Y-143977792D01*
X58237736Y-144009574D01*
X58190787Y-144109842D01*
X58087180Y-144212622D01*
X57948343Y-144306515D01*
X58044455Y-144472986D01*
X58139936Y-144416456D01*
X58293092Y-144293796D01*
X58399071Y-144166335D01*
X58430856Y-144094257D01*
X58443041Y-143991284D01*
X58414689Y-143883766D01*
X58353874Y-143765924D01*
X58259486Y-143629653D01*
X58164975Y-143538355D01*
X58139006Y-143523138D01*
X58036807Y-143475500D01*
X58334138Y-143289616D01*
X58479603Y-143196723D01*
X58564965Y-143133906D01*
X58602843Y-143087885D01*
X58605857Y-143045376D01*
X58595559Y-143014480D01*
X58559649Y-142925228D01*
X57750541Y-143392367D01*
G36*
X61458948Y-147980699D02*
G01*
X61401546Y-147984556D01*
X61346948Y-148012858D01*
X61272622Y-148068048D01*
X61266059Y-148125305D01*
X61288735Y-148171920D01*
X61338006Y-148232857D01*
X61395575Y-148224271D01*
X61437180Y-148196201D01*
X61502543Y-148117960D01*
X61495392Y-148037139D01*
X61458948Y-147980699D01*
G37*
X61458948Y-147980699D02*
X61401546Y-147984556D01*
X61346948Y-148012858D01*
X61272622Y-148068048D01*
X61266059Y-148125305D01*
X61288735Y-148171920D01*
X61338006Y-148232857D01*
X61395575Y-148224271D01*
X61437180Y-148196201D01*
X61502543Y-148117960D01*
X61495392Y-148037139D01*
X61458948Y-147980699D01*
D11*
X89400562Y-69230774D03*
X165900280Y-75841123D03*
X165900280Y-114140512D03*
X63901882Y-130442232D03*
X89401833Y-107142305D03*
M02*
