G04 #@! TF.GenerationSoftware,KiCad,Pcbnew,5.1.5-52549c5~86~ubuntu19.10.1*
G04 #@! TF.CreationDate,2020-05-05T19:49:36+02:00*
G04 #@! TF.ProjectId,bottom_plate,626f7474-6f6d-45f7-906c-6174652e6b69,rev?*
G04 #@! TF.SameCoordinates,Original*
G04 #@! TF.FileFunction,Legend,Bot*
G04 #@! TF.FilePolarity,Positive*
%FSLAX46Y46*%
G04 Gerber Fmt 4.6, Leading zero omitted, Abs format (unit mm)*
G04 Created by KiCad (PCBNEW 5.1.5-52549c5~86~ubuntu19.10.1) date 2020-05-05 19:49:36*
%MOMM*%
%LPD*%
G04 APERTURE LIST*
%ADD10C,0.300000*%
%ADD11C,0.150000*%
%ADD12C,0.010000*%
G04 APERTURE END LIST*
D10*
X145221428Y-140278571D02*
X145221428Y-138778571D01*
X144578571Y-140278571D02*
X144578571Y-139492857D01*
X144650000Y-139350000D01*
X144792857Y-139278571D01*
X145007142Y-139278571D01*
X145150000Y-139350000D01*
X145221428Y-139421428D01*
X144078571Y-139278571D02*
X143507142Y-139278571D01*
X143864285Y-138778571D02*
X143864285Y-140064285D01*
X143792857Y-140207142D01*
X143650000Y-140278571D01*
X143507142Y-140278571D01*
X143221428Y-139278571D02*
X142650000Y-139278571D01*
X143007142Y-138778571D02*
X143007142Y-140064285D01*
X142935714Y-140207142D01*
X142792857Y-140278571D01*
X142650000Y-140278571D01*
X142150000Y-139278571D02*
X142150000Y-140778571D01*
X142150000Y-139350000D02*
X142007142Y-139278571D01*
X141721428Y-139278571D01*
X141578571Y-139350000D01*
X141507142Y-139421428D01*
X141435714Y-139564285D01*
X141435714Y-139992857D01*
X141507142Y-140135714D01*
X141578571Y-140207142D01*
X141721428Y-140278571D01*
X142007142Y-140278571D01*
X142150000Y-140207142D01*
X140864285Y-140207142D02*
X140721428Y-140278571D01*
X140435714Y-140278571D01*
X140292857Y-140207142D01*
X140221428Y-140064285D01*
X140221428Y-139992857D01*
X140292857Y-139850000D01*
X140435714Y-139778571D01*
X140650000Y-139778571D01*
X140792857Y-139707142D01*
X140864285Y-139564285D01*
X140864285Y-139492857D01*
X140792857Y-139350000D01*
X140650000Y-139278571D01*
X140435714Y-139278571D01*
X140292857Y-139350000D01*
X139578571Y-140135714D02*
X139507142Y-140207142D01*
X139578571Y-140278571D01*
X139650000Y-140207142D01*
X139578571Y-140135714D01*
X139578571Y-140278571D01*
X139578571Y-139350000D02*
X139507142Y-139421428D01*
X139578571Y-139492857D01*
X139650000Y-139421428D01*
X139578571Y-139350000D01*
X139578571Y-139492857D01*
X137792857Y-138707142D02*
X139078571Y-140635714D01*
X136221428Y-138707142D02*
X137507142Y-140635714D01*
X135721428Y-139278571D02*
X135721428Y-140564285D01*
X135792857Y-140707142D01*
X135935714Y-140778571D01*
X136007142Y-140778571D01*
X135721428Y-138778571D02*
X135792857Y-138850000D01*
X135721428Y-138921428D01*
X135650000Y-138850000D01*
X135721428Y-138778571D01*
X135721428Y-138921428D01*
X134792857Y-140278571D02*
X134935714Y-140207142D01*
X135007142Y-140135714D01*
X135078571Y-139992857D01*
X135078571Y-139564285D01*
X135007142Y-139421428D01*
X134935714Y-139350000D01*
X134792857Y-139278571D01*
X134578571Y-139278571D01*
X134435714Y-139350000D01*
X134364285Y-139421428D01*
X134292857Y-139564285D01*
X134292857Y-139992857D01*
X134364285Y-140135714D01*
X134435714Y-140207142D01*
X134578571Y-140278571D01*
X134792857Y-140278571D01*
X133721428Y-140207142D02*
X133578571Y-140278571D01*
X133292857Y-140278571D01*
X133149999Y-140207142D01*
X133078571Y-140064285D01*
X133078571Y-139992857D01*
X133149999Y-139850000D01*
X133292857Y-139778571D01*
X133507142Y-139778571D01*
X133649999Y-139707142D01*
X133721428Y-139564285D01*
X133721428Y-139492857D01*
X133649999Y-139350000D01*
X133507142Y-139278571D01*
X133292857Y-139278571D01*
X133149999Y-139350000D01*
X131864285Y-140207142D02*
X132007142Y-140278571D01*
X132292857Y-140278571D01*
X132435714Y-140207142D01*
X132507142Y-140064285D01*
X132507142Y-139492857D01*
X132435714Y-139350000D01*
X132292857Y-139278571D01*
X132007142Y-139278571D01*
X131864285Y-139350000D01*
X131792857Y-139492857D01*
X131792857Y-139635714D01*
X132507142Y-139778571D01*
X131364285Y-139278571D02*
X130792857Y-139278571D01*
X131149999Y-140278571D02*
X131149999Y-138992857D01*
X131078571Y-138850000D01*
X130935714Y-138778571D01*
X130792857Y-138778571D01*
X129649999Y-140278571D02*
X129649999Y-139492857D01*
X129721428Y-139350000D01*
X129864285Y-139278571D01*
X130149999Y-139278571D01*
X130292857Y-139350000D01*
X129649999Y-140207142D02*
X129792857Y-140278571D01*
X130149999Y-140278571D01*
X130292857Y-140207142D01*
X130364285Y-140064285D01*
X130364285Y-139921428D01*
X130292857Y-139778571D01*
X130149999Y-139707142D01*
X129792857Y-139707142D01*
X129649999Y-139635714D01*
X128292857Y-140278571D02*
X128292857Y-138778571D01*
X128292857Y-140207142D02*
X128435714Y-140278571D01*
X128721428Y-140278571D01*
X128864285Y-140207142D01*
X128935714Y-140135714D01*
X129007142Y-139992857D01*
X129007142Y-139564285D01*
X128935714Y-139421428D01*
X128864285Y-139350000D01*
X128721428Y-139278571D01*
X128435714Y-139278571D01*
X128292857Y-139350000D01*
X126935714Y-140278571D02*
X126935714Y-139492857D01*
X127007142Y-139350000D01*
X127149999Y-139278571D01*
X127435714Y-139278571D01*
X127578571Y-139350000D01*
X126935714Y-140207142D02*
X127078571Y-140278571D01*
X127435714Y-140278571D01*
X127578571Y-140207142D01*
X127649999Y-140064285D01*
X127649999Y-139921428D01*
X127578571Y-139778571D01*
X127435714Y-139707142D01*
X127078571Y-139707142D01*
X126935714Y-139635714D01*
X126221428Y-140278571D02*
X126221428Y-139278571D01*
X126221428Y-139421428D02*
X126149999Y-139350000D01*
X126007142Y-139278571D01*
X125792857Y-139278571D01*
X125649999Y-139350000D01*
X125578571Y-139492857D01*
X125578571Y-140278571D01*
X125578571Y-139492857D02*
X125507142Y-139350000D01*
X125364285Y-139278571D01*
X125149999Y-139278571D01*
X125007142Y-139350000D01*
X124935714Y-139492857D01*
X124935714Y-140278571D01*
X123578571Y-140207142D02*
X123721428Y-140278571D01*
X124007142Y-140278571D01*
X124149999Y-140207142D01*
X124221428Y-140135714D01*
X124292857Y-139992857D01*
X124292857Y-139564285D01*
X124221428Y-139421428D01*
X124149999Y-139350000D01*
X124007142Y-139278571D01*
X123721428Y-139278571D01*
X123578571Y-139350000D01*
X122935714Y-140278571D02*
X122935714Y-139278571D01*
X122935714Y-138778571D02*
X123007142Y-138850000D01*
X122935714Y-138921428D01*
X122864285Y-138850000D01*
X122935714Y-138778571D01*
X122935714Y-138921428D01*
X122221428Y-140278571D02*
X122221428Y-138778571D01*
X122078571Y-139707142D02*
X121649999Y-140278571D01*
X121649999Y-139278571D02*
X122221428Y-139850000D01*
X121007142Y-140135714D02*
X120935714Y-140207142D01*
X121007142Y-140278571D01*
X121078571Y-140207142D01*
X121007142Y-140135714D01*
X121007142Y-140278571D01*
X119649999Y-139278571D02*
X119649999Y-140492857D01*
X119721428Y-140635714D01*
X119792857Y-140707142D01*
X119935714Y-140778571D01*
X120149999Y-140778571D01*
X120292857Y-140707142D01*
X119649999Y-140207142D02*
X119792857Y-140278571D01*
X120078571Y-140278571D01*
X120221428Y-140207142D01*
X120292857Y-140135714D01*
X120364285Y-139992857D01*
X120364285Y-139564285D01*
X120292857Y-139421428D01*
X120221428Y-139350000D01*
X120078571Y-139278571D01*
X119792857Y-139278571D01*
X119649999Y-139350000D01*
X118935714Y-140278571D02*
X118935714Y-139278571D01*
X118935714Y-138778571D02*
X119007142Y-138850000D01*
X118935714Y-138921428D01*
X118864285Y-138850000D01*
X118935714Y-138778571D01*
X118935714Y-138921428D01*
X118435714Y-139278571D02*
X117864285Y-139278571D01*
X118221428Y-138778571D02*
X118221428Y-140064285D01*
X118149999Y-140207142D01*
X118007142Y-140278571D01*
X117864285Y-140278571D01*
X117364285Y-140278571D02*
X117364285Y-138778571D01*
X116721428Y-140278571D02*
X116721428Y-139492857D01*
X116792857Y-139350000D01*
X116935714Y-139278571D01*
X117149999Y-139278571D01*
X117292857Y-139350000D01*
X117364285Y-139421428D01*
X115364285Y-139278571D02*
X115364285Y-140278571D01*
X116007142Y-139278571D02*
X116007142Y-140064285D01*
X115935714Y-140207142D01*
X115792857Y-140278571D01*
X115578571Y-140278571D01*
X115435714Y-140207142D01*
X115364285Y-140135714D01*
X114649999Y-140278571D02*
X114649999Y-138778571D01*
X114649999Y-139350000D02*
X114507142Y-139278571D01*
X114221428Y-139278571D01*
X114078571Y-139350000D01*
X114007142Y-139421428D01*
X113935714Y-139564285D01*
X113935714Y-139992857D01*
X114007142Y-140135714D01*
X114078571Y-140207142D01*
X114221428Y-140278571D01*
X114507142Y-140278571D01*
X114649999Y-140207142D01*
X113292857Y-140135714D02*
X113221428Y-140207142D01*
X113292857Y-140278571D01*
X113364285Y-140207142D01*
X113292857Y-140135714D01*
X113292857Y-140278571D01*
X112578571Y-140278571D02*
X112578571Y-139278571D01*
X112578571Y-138778571D02*
X112649999Y-138850000D01*
X112578571Y-138921428D01*
X112507142Y-138850000D01*
X112578571Y-138778571D01*
X112578571Y-138921428D01*
X111649999Y-140278571D02*
X111792857Y-140207142D01*
X111864285Y-140135714D01*
X111935714Y-139992857D01*
X111935714Y-139564285D01*
X111864285Y-139421428D01*
X111792857Y-139350000D01*
X111649999Y-139278571D01*
X111435714Y-139278571D01*
X111292857Y-139350000D01*
X111221428Y-139421428D01*
X111149999Y-139564285D01*
X111149999Y-139992857D01*
X111221428Y-140135714D01*
X111292857Y-140207142D01*
X111435714Y-140278571D01*
X111649999Y-140278571D01*
X109435714Y-138707142D02*
X110721428Y-140635714D01*
X109007142Y-140207142D02*
X108792857Y-140278571D01*
X108435714Y-140278571D01*
X108292857Y-140207142D01*
X108221428Y-140135714D01*
X108149999Y-139992857D01*
X108149999Y-139850000D01*
X108221428Y-139707142D01*
X108292857Y-139635714D01*
X108435714Y-139564285D01*
X108721428Y-139492857D01*
X108864285Y-139421428D01*
X108935714Y-139350000D01*
X109007142Y-139207142D01*
X109007142Y-139064285D01*
X108935714Y-138921428D01*
X108864285Y-138850000D01*
X108721428Y-138778571D01*
X108364285Y-138778571D01*
X108149999Y-138850000D01*
X107292857Y-140278571D02*
X107435714Y-140207142D01*
X107507142Y-140135714D01*
X107578571Y-139992857D01*
X107578571Y-139564285D01*
X107507142Y-139421428D01*
X107435714Y-139350000D01*
X107292857Y-139278571D01*
X107078571Y-139278571D01*
X106935714Y-139350000D01*
X106864285Y-139421428D01*
X106792857Y-139564285D01*
X106792857Y-139992857D01*
X106864285Y-140135714D01*
X106935714Y-140207142D01*
X107078571Y-140278571D01*
X107292857Y-140278571D01*
X106364285Y-139278571D02*
X105792857Y-139278571D01*
X106149999Y-140278571D02*
X106149999Y-138992857D01*
X106078571Y-138850000D01*
X105935714Y-138778571D01*
X105792857Y-138778571D01*
X105078571Y-140278571D02*
X105221428Y-140207142D01*
X105292857Y-140064285D01*
X105292857Y-138778571D01*
X103935714Y-140207142D02*
X104078571Y-140278571D01*
X104364285Y-140278571D01*
X104507142Y-140207142D01*
X104578571Y-140064285D01*
X104578571Y-139492857D01*
X104507142Y-139350000D01*
X104364285Y-139278571D01*
X104078571Y-139278571D01*
X103935714Y-139350000D01*
X103864285Y-139492857D01*
X103864285Y-139635714D01*
X104578571Y-139778571D01*
X103221428Y-140278571D02*
X103221428Y-138778571D01*
X102364285Y-140278571D02*
X103007142Y-139421428D01*
X102364285Y-138778571D02*
X103221428Y-139635714D01*
X101149999Y-140207142D02*
X101292857Y-140278571D01*
X101578571Y-140278571D01*
X101721428Y-140207142D01*
X101792857Y-140064285D01*
X101792857Y-139492857D01*
X101721428Y-139350000D01*
X101578571Y-139278571D01*
X101292857Y-139278571D01*
X101149999Y-139350000D01*
X101078571Y-139492857D01*
X101078571Y-139635714D01*
X101792857Y-139778571D01*
X100578571Y-139278571D02*
X100221428Y-140278571D01*
X99864285Y-139278571D02*
X100221428Y-140278571D01*
X100364285Y-140635714D01*
X100435714Y-140707142D01*
X100578571Y-140778571D01*
X99292857Y-140278571D02*
X99292857Y-138778571D01*
X99292857Y-139350000D02*
X99149999Y-139278571D01*
X98864285Y-139278571D01*
X98721428Y-139350000D01*
X98649999Y-139421428D01*
X98578571Y-139564285D01*
X98578571Y-139992857D01*
X98649999Y-140135714D01*
X98721428Y-140207142D01*
X98864285Y-140278571D01*
X99149999Y-140278571D01*
X99292857Y-140207142D01*
X97721428Y-140278571D02*
X97864285Y-140207142D01*
X97935714Y-140135714D01*
X98007142Y-139992857D01*
X98007142Y-139564285D01*
X97935714Y-139421428D01*
X97864285Y-139350000D01*
X97721428Y-139278571D01*
X97507142Y-139278571D01*
X97364285Y-139350000D01*
X97292857Y-139421428D01*
X97221428Y-139564285D01*
X97221428Y-139992857D01*
X97292857Y-140135714D01*
X97364285Y-140207142D01*
X97507142Y-140278571D01*
X97721428Y-140278571D01*
X95935714Y-140278571D02*
X95935714Y-139492857D01*
X96007142Y-139350000D01*
X96149999Y-139278571D01*
X96435714Y-139278571D01*
X96578571Y-139350000D01*
X95935714Y-140207142D02*
X96078571Y-140278571D01*
X96435714Y-140278571D01*
X96578571Y-140207142D01*
X96649999Y-140064285D01*
X96649999Y-139921428D01*
X96578571Y-139778571D01*
X96435714Y-139707142D01*
X96078571Y-139707142D01*
X95935714Y-139635714D01*
X95221428Y-140278571D02*
X95221428Y-139278571D01*
X95221428Y-139564285D02*
X95149999Y-139421428D01*
X95078571Y-139350000D01*
X94935714Y-139278571D01*
X94792857Y-139278571D01*
X93649999Y-140278571D02*
X93649999Y-138778571D01*
X93649999Y-140207142D02*
X93792857Y-140278571D01*
X94078571Y-140278571D01*
X94221428Y-140207142D01*
X94292857Y-140135714D01*
X94364285Y-139992857D01*
X94364285Y-139564285D01*
X94292857Y-139421428D01*
X94221428Y-139350000D01*
X94078571Y-139278571D01*
X93792857Y-139278571D01*
X93649999Y-139350000D01*
X91864285Y-138707142D02*
X93149999Y-140635714D01*
D11*
X179655658Y-132295658D02*
X179529993Y-132378629D01*
X179300011Y-132440252D01*
X179195693Y-132418905D01*
X179137372Y-132385233D01*
X179066726Y-132305565D01*
X179042076Y-132213572D01*
X179063423Y-132109255D01*
X179097095Y-132050933D01*
X179176763Y-131980287D01*
X179348425Y-131884992D01*
X179428093Y-131814346D01*
X179461765Y-131756025D01*
X179483112Y-131651707D01*
X179458462Y-131559714D01*
X179387816Y-131480046D01*
X179329495Y-131446374D01*
X179225177Y-131425027D01*
X178995195Y-131486651D01*
X178869530Y-131569622D01*
X178564067Y-132637448D02*
X178643735Y-132566802D01*
X178677407Y-132508481D01*
X178698754Y-132404163D01*
X178624806Y-132128184D01*
X178554160Y-132048516D01*
X178495839Y-132014844D01*
X178391521Y-131993497D01*
X178253532Y-132030471D01*
X178173863Y-132101117D01*
X178140192Y-132159438D01*
X178118845Y-132263756D01*
X178192793Y-132539735D01*
X178263439Y-132619403D01*
X178321760Y-132653075D01*
X178426078Y-132674422D01*
X178564067Y-132637448D01*
X177793567Y-132153718D02*
X177425595Y-132252316D01*
X177828124Y-132834643D02*
X177606279Y-132006707D01*
X177535633Y-131927038D01*
X177431315Y-131905691D01*
X177339322Y-131930341D01*
X177138177Y-133019514D02*
X177217845Y-132948868D01*
X177239192Y-132844550D01*
X177017347Y-132016614D01*
X176389908Y-133170713D02*
X176494226Y-133192060D01*
X176678212Y-133142761D01*
X176757880Y-133072115D01*
X176779227Y-132967797D01*
X176680629Y-132599826D01*
X176609984Y-132520157D01*
X176505666Y-132498810D01*
X176321680Y-132548109D01*
X176242012Y-132618755D01*
X176220665Y-132723073D01*
X176245314Y-132815066D01*
X176729928Y-132783812D01*
X175206325Y-133537152D02*
X174947506Y-132571226D01*
X174654367Y-133685049D02*
X174920439Y-133022168D01*
X174395548Y-132719123D02*
X175095402Y-133123184D01*
X173860103Y-133848572D02*
X173964420Y-133869919D01*
X174148406Y-133820620D01*
X174228074Y-133749974D01*
X174249421Y-133645657D01*
X174150824Y-133277685D01*
X174080178Y-133198017D01*
X173975860Y-133176670D01*
X173791874Y-133225969D01*
X173712206Y-133296615D01*
X173690859Y-133400932D01*
X173715508Y-133492925D01*
X174200123Y-133461671D01*
X173331910Y-133349216D02*
X173274473Y-134054790D01*
X172871945Y-133472463D02*
X173274473Y-134054790D01*
X173428090Y-134260123D01*
X173486411Y-134293795D01*
X173590729Y-134315142D01*
X172676519Y-134215011D02*
X172417700Y-133249085D01*
X172516298Y-133617057D02*
X172411980Y-133595710D01*
X172227994Y-133645009D01*
X172148326Y-133715655D01*
X172114654Y-133773976D01*
X172093307Y-133878294D01*
X172167256Y-134154273D01*
X172237902Y-134233941D01*
X172296223Y-134267613D01*
X172400540Y-134288960D01*
X172584526Y-134239661D01*
X172664194Y-134169015D01*
X171664597Y-134486155D02*
X171744265Y-134415509D01*
X171777937Y-134357188D01*
X171799284Y-134252870D01*
X171725336Y-133976892D01*
X171654690Y-133897223D01*
X171596369Y-133863552D01*
X171492051Y-133842205D01*
X171354061Y-133879179D01*
X171274393Y-133949825D01*
X171240721Y-134008146D01*
X171219374Y-134112463D01*
X171293323Y-134388442D01*
X171363969Y-134468110D01*
X171422290Y-134501782D01*
X171526607Y-134523129D01*
X171664597Y-134486155D01*
X170514685Y-134794273D02*
X170379113Y-134288312D01*
X170400460Y-134183994D01*
X170480129Y-134113348D01*
X170664114Y-134064049D01*
X170768432Y-134085396D01*
X170502360Y-134748277D02*
X170606678Y-134769624D01*
X170836660Y-134708000D01*
X170916329Y-134637354D01*
X170937676Y-134533036D01*
X170913026Y-134441043D01*
X170842380Y-134361375D01*
X170738063Y-134340028D01*
X170508080Y-134401652D01*
X170403763Y-134380305D01*
X170054721Y-134917520D02*
X169882174Y-134273570D01*
X169931473Y-134457555D02*
X169860827Y-134377887D01*
X169802506Y-134344216D01*
X169698189Y-134322868D01*
X169606196Y-134347518D01*
X169042798Y-135188664D02*
X168783979Y-134222738D01*
X169030473Y-135142667D02*
X169134791Y-135164014D01*
X169318777Y-135114716D01*
X169398445Y-135044070D01*
X169432117Y-134985749D01*
X169453464Y-134881431D01*
X169379516Y-134605452D01*
X169308870Y-134525784D01*
X169250549Y-134492112D01*
X169146231Y-134470765D01*
X168962245Y-134520064D01*
X168882577Y-134590710D01*
X167766337Y-134840507D02*
X167708901Y-135546081D01*
X167306372Y-134963754D01*
X166922773Y-134820044D02*
X166864452Y-134786373D01*
X166760135Y-134765026D01*
X166530152Y-134826649D01*
X166450484Y-134897295D01*
X166416812Y-134955616D01*
X166395465Y-135059934D01*
X166420115Y-135151927D01*
X166503085Y-135277592D01*
X167202939Y-135681653D01*
X166604985Y-135841874D01*
X166166368Y-135860803D02*
X166132696Y-135919125D01*
X166191017Y-135952796D01*
X166224689Y-135894475D01*
X166166368Y-135860803D01*
X166191017Y-135952796D01*
X165288248Y-135159417D02*
X165196255Y-135184066D01*
X165116586Y-135254712D01*
X165082915Y-135313033D01*
X165061568Y-135417351D01*
X165064870Y-135613661D01*
X165126494Y-135843644D01*
X165221789Y-136015305D01*
X165292435Y-136094973D01*
X165350756Y-136128645D01*
X165455074Y-136149992D01*
X165547067Y-136125342D01*
X165626735Y-136054696D01*
X165660407Y-135996375D01*
X165681754Y-135892058D01*
X165678451Y-135695747D01*
X165616828Y-135465765D01*
X165521532Y-135294104D01*
X165450886Y-135214435D01*
X165392565Y-135180764D01*
X165288248Y-135159417D01*
X163339236Y-136716929D02*
X163080417Y-135751003D01*
X163179015Y-136118975D02*
X163074697Y-136097628D01*
X162890711Y-136146926D01*
X162811043Y-136217572D01*
X162777371Y-136275894D01*
X162756024Y-136380211D01*
X162829973Y-136656190D01*
X162900619Y-136735858D01*
X162958940Y-136769530D01*
X163063257Y-136790877D01*
X163247243Y-136741578D01*
X163326911Y-136670932D01*
X162384750Y-136282498D02*
X162327314Y-136988073D01*
X161924786Y-136405746D02*
X162327314Y-136988073D01*
X162480930Y-137193405D01*
X162539252Y-137227077D01*
X162643569Y-137248424D01*
X160458618Y-136453512D02*
X160643489Y-137143459D01*
X160726460Y-137269123D01*
X160843102Y-137336467D01*
X160993416Y-137345489D01*
X161085409Y-137320840D01*
X160119483Y-137579659D02*
X160199152Y-137509013D01*
X160232823Y-137450692D01*
X160254170Y-137346374D01*
X160180222Y-137070395D01*
X160109576Y-136990727D01*
X160051255Y-136957055D01*
X159946937Y-136935708D01*
X159808948Y-136972683D01*
X159729280Y-137043328D01*
X159695608Y-137101650D01*
X159674261Y-137205967D01*
X159748209Y-137481946D01*
X159818855Y-137561614D01*
X159877176Y-137595286D01*
X159981494Y-137616633D01*
X160119483Y-137579659D01*
X159417212Y-137718533D02*
X159337543Y-137789179D01*
X159153558Y-137838478D01*
X159049240Y-137817131D01*
X158978594Y-137737463D01*
X158966269Y-137691466D01*
X158987616Y-137587149D01*
X159067285Y-137516503D01*
X159205274Y-137479529D01*
X159284942Y-137408883D01*
X159306289Y-137304565D01*
X159293965Y-137258569D01*
X159223319Y-137178900D01*
X159119001Y-137157553D01*
X158981012Y-137194527D01*
X158901343Y-137265173D01*
X158221304Y-138038976D02*
X158325621Y-138060323D01*
X158509607Y-138011024D01*
X158589275Y-137940378D01*
X158610622Y-137836060D01*
X158512025Y-137468089D01*
X158441379Y-137388420D01*
X158337061Y-137367073D01*
X158153075Y-137416372D01*
X158073407Y-137487018D01*
X158052060Y-137591336D01*
X158076709Y-137683329D01*
X158561323Y-137652075D01*
X157739107Y-137527295D02*
X157371135Y-137625892D01*
X157773664Y-138208219D02*
X157551819Y-137380283D01*
X157481173Y-137300615D01*
X157376855Y-137279268D01*
X157284862Y-137303917D01*
X156457811Y-138265008D02*
X155997846Y-138388255D01*
X156623752Y-138516337D02*
X156042958Y-137636685D01*
X155979801Y-138688883D01*
X155243858Y-138886079D02*
X154985039Y-137920153D01*
X155231533Y-138840082D02*
X155335851Y-138861429D01*
X155519837Y-138812131D01*
X155599505Y-138741485D01*
X155633177Y-138683163D01*
X155654524Y-138578846D01*
X155580575Y-138302867D01*
X155509929Y-138223199D01*
X155451608Y-138189527D01*
X155347291Y-138168180D01*
X155163305Y-138217479D01*
X155083637Y-138288125D01*
X154369925Y-139120248D02*
X154234353Y-138614287D01*
X154255700Y-138509970D01*
X154335368Y-138439324D01*
X154519354Y-138390025D01*
X154623672Y-138411372D01*
X154357600Y-139074252D02*
X154461918Y-139095599D01*
X154691900Y-139033975D01*
X154771568Y-138963330D01*
X154792915Y-138859012D01*
X154768266Y-138767019D01*
X154697620Y-138687351D01*
X154593302Y-138666004D01*
X154363320Y-138727627D01*
X154259002Y-138706280D01*
X153909960Y-139243496D02*
X153737414Y-138599545D01*
X153762064Y-138691538D02*
X153703742Y-138657866D01*
X153599425Y-138636519D01*
X153461435Y-138673493D01*
X153381767Y-138744139D01*
X153360420Y-138848457D01*
X153495992Y-139354418D01*
X153360420Y-138848457D02*
X153289774Y-138768789D01*
X153185457Y-138747442D01*
X153047467Y-138784416D01*
X152967799Y-138855062D01*
X152946452Y-138959379D01*
X153082024Y-139465341D01*
X152195766Y-139653514D02*
X152300084Y-139674861D01*
X152484070Y-139625562D01*
X152563738Y-139554916D01*
X152597410Y-139496595D01*
X152618757Y-139392277D01*
X152544808Y-139116298D01*
X152474163Y-139036630D01*
X152415841Y-139002958D01*
X152311524Y-138981611D01*
X152127538Y-139030910D01*
X152047870Y-139101556D01*
X151794123Y-139810433D02*
X151621577Y-139166482D01*
X151535304Y-138844507D02*
X151593625Y-138878179D01*
X151559953Y-138936500D01*
X151501632Y-138902828D01*
X151535304Y-138844507D01*
X151559953Y-138936500D01*
X151334158Y-139933680D02*
X151075339Y-138967754D01*
X151143567Y-139590357D02*
X150966186Y-140032277D01*
X150793640Y-139388327D02*
X151260210Y-139657701D01*
D12*
G36*
X77108223Y-59493848D02*
G01*
X77067370Y-59529647D01*
X77059667Y-59610410D01*
X77059667Y-59734154D01*
X76935923Y-59610410D01*
X76791329Y-59508724D01*
X76681923Y-59486667D01*
X76593329Y-59495097D01*
X76557861Y-59537798D01*
X76551667Y-59629423D01*
X76558746Y-59722171D01*
X76596071Y-59768850D01*
X76687776Y-59793751D01*
X76720276Y-59799141D01*
X76833890Y-59828361D01*
X76915827Y-59882669D01*
X76972376Y-59975141D01*
X77009827Y-60118854D01*
X77034470Y-60326887D01*
X77044876Y-60473982D01*
X77072533Y-60926000D01*
X77356000Y-60926000D01*
X77356000Y-59486667D01*
X77207833Y-59486667D01*
X77108223Y-59493848D01*
G37*
X77108223Y-59493848D02*
X77067370Y-59529647D01*
X77059667Y-59610410D01*
X77059667Y-59734154D01*
X76935923Y-59610410D01*
X76791329Y-59508724D01*
X76681923Y-59486667D01*
X76593329Y-59495097D01*
X76557861Y-59537798D01*
X76551667Y-59629423D01*
X76558746Y-59722171D01*
X76596071Y-59768850D01*
X76687776Y-59793751D01*
X76720276Y-59799141D01*
X76833890Y-59828361D01*
X76915827Y-59882669D01*
X76972376Y-59975141D01*
X77009827Y-60118854D01*
X77034470Y-60326887D01*
X77044876Y-60473982D01*
X77072533Y-60926000D01*
X77356000Y-60926000D01*
X77356000Y-59486667D01*
X77207833Y-59486667D01*
X77108223Y-59493848D01*
G36*
X86923333Y-59783000D02*
G01*
X86784752Y-59783000D01*
X86720825Y-59776957D01*
X86661408Y-59751321D01*
X86593910Y-59694830D01*
X86505740Y-59596223D01*
X86384305Y-59444237D01*
X86335083Y-59380834D01*
X86202047Y-59210650D01*
X86106701Y-59096766D01*
X86035724Y-59027907D01*
X85975792Y-58992799D01*
X85913585Y-58980170D01*
X85859831Y-58978667D01*
X85755661Y-58982441D01*
X85699070Y-58991833D01*
X85695667Y-58995175D01*
X85720293Y-59032674D01*
X85787825Y-59124040D01*
X85888738Y-59256657D01*
X86013511Y-59417911D01*
X86051709Y-59466837D01*
X86407752Y-59921990D01*
X86051709Y-60403171D01*
X85923967Y-60577204D01*
X85816536Y-60726223D01*
X85738464Y-60837468D01*
X85698801Y-60898181D01*
X85695667Y-60905176D01*
X85733388Y-60917300D01*
X85828246Y-60923165D01*
X85875583Y-60923151D01*
X85952332Y-60919727D01*
X86013332Y-60904687D01*
X86071659Y-60866657D01*
X86140386Y-60794258D01*
X86232587Y-60676116D01*
X86361337Y-60500853D01*
X86362091Y-60499818D01*
X86494640Y-60321029D01*
X86591071Y-60200892D01*
X86663011Y-60128140D01*
X86722089Y-60091504D01*
X86779933Y-60079718D01*
X86796008Y-60079334D01*
X86923333Y-60079334D01*
X86923333Y-60926000D01*
X87262000Y-60926000D01*
X87262000Y-58978667D01*
X86923333Y-58978667D01*
X86923333Y-59783000D01*
G37*
X86923333Y-59783000D02*
X86784752Y-59783000D01*
X86720825Y-59776957D01*
X86661408Y-59751321D01*
X86593910Y-59694830D01*
X86505740Y-59596223D01*
X86384305Y-59444237D01*
X86335083Y-59380834D01*
X86202047Y-59210650D01*
X86106701Y-59096766D01*
X86035724Y-59027907D01*
X85975792Y-58992799D01*
X85913585Y-58980170D01*
X85859831Y-58978667D01*
X85755661Y-58982441D01*
X85699070Y-58991833D01*
X85695667Y-58995175D01*
X85720293Y-59032674D01*
X85787825Y-59124040D01*
X85888738Y-59256657D01*
X86013511Y-59417911D01*
X86051709Y-59466837D01*
X86407752Y-59921990D01*
X86051709Y-60403171D01*
X85923967Y-60577204D01*
X85816536Y-60726223D01*
X85738464Y-60837468D01*
X85698801Y-60898181D01*
X85695667Y-60905176D01*
X85733388Y-60917300D01*
X85828246Y-60923165D01*
X85875583Y-60923151D01*
X85952332Y-60919727D01*
X86013332Y-60904687D01*
X86071659Y-60866657D01*
X86140386Y-60794258D01*
X86232587Y-60676116D01*
X86361337Y-60500853D01*
X86362091Y-60499818D01*
X86494640Y-60321029D01*
X86591071Y-60200892D01*
X86663011Y-60128140D01*
X86722089Y-60091504D01*
X86779933Y-60079718D01*
X86796008Y-60079334D01*
X86923333Y-60079334D01*
X86923333Y-60926000D01*
X87262000Y-60926000D01*
X87262000Y-58978667D01*
X86923333Y-58978667D01*
X86923333Y-59783000D01*
G36*
X90013667Y-60926000D02*
G01*
X90310000Y-60926000D01*
X90310000Y-58851667D01*
X90013667Y-58851667D01*
X90013667Y-60926000D01*
G37*
X90013667Y-60926000D02*
X90310000Y-60926000D01*
X90310000Y-58851667D01*
X90013667Y-58851667D01*
X90013667Y-60926000D01*
G36*
X90693586Y-58855027D02*
G01*
X90630293Y-58872229D01*
X90608482Y-58913957D01*
X90606333Y-58957500D01*
X90625722Y-59040014D01*
X90693783Y-59063334D01*
X90837088Y-59090272D01*
X90919163Y-59174470D01*
X90945000Y-59318823D01*
X90940864Y-59426257D01*
X90912161Y-59473995D01*
X90834450Y-59486263D01*
X90775667Y-59486667D01*
X90667089Y-59491682D01*
X90618822Y-59518859D01*
X90606601Y-59586396D01*
X90606333Y-59613667D01*
X90613020Y-59695100D01*
X90649257Y-59731301D01*
X90739306Y-59740466D01*
X90775667Y-59740667D01*
X90945000Y-59740667D01*
X90945000Y-60926000D01*
X91238944Y-60926000D01*
X91262500Y-59761834D01*
X91400083Y-59748568D01*
X91495528Y-59729350D01*
X91532534Y-59679994D01*
X91537667Y-59610985D01*
X91529129Y-59527417D01*
X91486442Y-59493143D01*
X91389500Y-59486667D01*
X91241333Y-59486667D01*
X91241333Y-59273076D01*
X91216000Y-59077106D01*
X91136547Y-58945048D01*
X90997799Y-58871723D01*
X90819924Y-58851667D01*
X90693586Y-58855027D01*
G37*
X90693586Y-58855027D02*
X90630293Y-58872229D01*
X90608482Y-58913957D01*
X90606333Y-58957500D01*
X90625722Y-59040014D01*
X90693783Y-59063334D01*
X90837088Y-59090272D01*
X90919163Y-59174470D01*
X90945000Y-59318823D01*
X90940864Y-59426257D01*
X90912161Y-59473995D01*
X90834450Y-59486263D01*
X90775667Y-59486667D01*
X90667089Y-59491682D01*
X90618822Y-59518859D01*
X90606601Y-59586396D01*
X90606333Y-59613667D01*
X90613020Y-59695100D01*
X90649257Y-59731301D01*
X90739306Y-59740466D01*
X90775667Y-59740667D01*
X90945000Y-59740667D01*
X90945000Y-60926000D01*
X91238944Y-60926000D01*
X91262500Y-59761834D01*
X91400083Y-59748568D01*
X91495528Y-59729350D01*
X91532534Y-59679994D01*
X91537667Y-59610985D01*
X91529129Y-59527417D01*
X91486442Y-59493143D01*
X91389500Y-59486667D01*
X91241333Y-59486667D01*
X91241333Y-59273076D01*
X91216000Y-59077106D01*
X91136547Y-58945048D01*
X90997799Y-58871723D01*
X90819924Y-58851667D01*
X90693586Y-58855027D01*
G36*
X75070000Y-60926000D02*
G01*
X75200963Y-60926000D01*
X75307527Y-60906540D01*
X75353044Y-60845247D01*
X75372346Y-60790588D01*
X75403374Y-60796420D01*
X75454914Y-60845247D01*
X75554337Y-60907429D01*
X75638038Y-60926000D01*
X75742177Y-60932680D01*
X75796788Y-60942753D01*
X75875102Y-60945179D01*
X75986505Y-60927917D01*
X75990489Y-60926986D01*
X76131443Y-60878311D01*
X76219602Y-60799420D01*
X76277355Y-60666822D01*
X76292964Y-60609641D01*
X76333005Y-60366907D01*
X76337472Y-60119344D01*
X76336847Y-60114281D01*
X76037972Y-60114281D01*
X76037047Y-60288990D01*
X76013955Y-60450003D01*
X75971785Y-60570863D01*
X75936317Y-60614844D01*
X75820406Y-60659415D01*
X75670989Y-60669222D01*
X75531461Y-60644196D01*
X75474727Y-60615607D01*
X75421838Y-60534464D01*
X75384843Y-60395486D01*
X75367477Y-60224627D01*
X75373472Y-60047842D01*
X75383378Y-59980586D01*
X75445744Y-59846457D01*
X75564745Y-59767555D01*
X75728140Y-59749868D01*
X75822518Y-59765815D01*
X75932771Y-59808016D01*
X75990873Y-59881883D01*
X76013644Y-59952334D01*
X76037972Y-60114281D01*
X76336847Y-60114281D01*
X76308966Y-59888606D01*
X76250086Y-59696343D01*
X76167918Y-59568585D01*
X76059240Y-59509967D01*
X75903088Y-59483260D01*
X75730304Y-59488204D01*
X75571731Y-59524540D01*
X75477876Y-59574406D01*
X75366333Y-59662145D01*
X75366333Y-58851667D01*
X75070000Y-58851667D01*
X75070000Y-60926000D01*
G37*
X75070000Y-60926000D02*
X75200963Y-60926000D01*
X75307527Y-60906540D01*
X75353044Y-60845247D01*
X75372346Y-60790588D01*
X75403374Y-60796420D01*
X75454914Y-60845247D01*
X75554337Y-60907429D01*
X75638038Y-60926000D01*
X75742177Y-60932680D01*
X75796788Y-60942753D01*
X75875102Y-60945179D01*
X75986505Y-60927917D01*
X75990489Y-60926986D01*
X76131443Y-60878311D01*
X76219602Y-60799420D01*
X76277355Y-60666822D01*
X76292964Y-60609641D01*
X76333005Y-60366907D01*
X76337472Y-60119344D01*
X76336847Y-60114281D01*
X76037972Y-60114281D01*
X76037047Y-60288990D01*
X76013955Y-60450003D01*
X75971785Y-60570863D01*
X75936317Y-60614844D01*
X75820406Y-60659415D01*
X75670989Y-60669222D01*
X75531461Y-60644196D01*
X75474727Y-60615607D01*
X75421838Y-60534464D01*
X75384843Y-60395486D01*
X75367477Y-60224627D01*
X75373472Y-60047842D01*
X75383378Y-59980586D01*
X75445744Y-59846457D01*
X75564745Y-59767555D01*
X75728140Y-59749868D01*
X75822518Y-59765815D01*
X75932771Y-59808016D01*
X75990873Y-59881883D01*
X76013644Y-59952334D01*
X76037972Y-60114281D01*
X76336847Y-60114281D01*
X76308966Y-59888606D01*
X76250086Y-59696343D01*
X76167918Y-59568585D01*
X76059240Y-59509967D01*
X75903088Y-59483260D01*
X75730304Y-59488204D01*
X75571731Y-59524540D01*
X75477876Y-59574406D01*
X75366333Y-59662145D01*
X75366333Y-58851667D01*
X75070000Y-58851667D01*
X75070000Y-60926000D01*
G36*
X78278218Y-59488236D02*
G01*
X78141196Y-59495333D01*
X78049437Y-59511544D01*
X77983250Y-59540452D01*
X77922945Y-59585642D01*
X77919277Y-59588783D01*
X77873093Y-59630647D01*
X77840427Y-59673566D01*
X77818516Y-59732454D01*
X77804596Y-59822226D01*
X77795905Y-59957797D01*
X77789679Y-60154081D01*
X77785947Y-60308449D01*
X77771395Y-60926000D01*
X77923531Y-60926000D01*
X78026397Y-60917719D01*
X78069025Y-60883356D01*
X78075667Y-60833954D01*
X78075667Y-60741908D01*
X78170917Y-60828452D01*
X78293277Y-60896486D01*
X78462789Y-60937664D01*
X78644280Y-60944913D01*
X78710667Y-60937024D01*
X78867212Y-60874621D01*
X78965361Y-60751613D01*
X79005783Y-60567059D01*
X79007000Y-60521144D01*
X79003103Y-60456336D01*
X78706206Y-60456336D01*
X78703224Y-60506921D01*
X78681472Y-60609148D01*
X78625815Y-60657384D01*
X78562500Y-60673551D01*
X78375368Y-60682018D01*
X78225892Y-60638255D01*
X78131857Y-60547609D01*
X78129636Y-60543352D01*
X78077594Y-60420134D01*
X78079747Y-60344325D01*
X78145053Y-60305219D01*
X78282472Y-60292110D01*
X78340250Y-60291648D01*
X78522499Y-60298138D01*
X78634773Y-60322133D01*
X78691275Y-60372058D01*
X78706206Y-60456336D01*
X79003103Y-60456336D01*
X78996657Y-60349156D01*
X78957096Y-60230157D01*
X78875522Y-60153954D01*
X78739138Y-60110352D01*
X78535151Y-60089157D01*
X78460434Y-60085705D01*
X78278879Y-60077596D01*
X78165791Y-60067105D01*
X78105004Y-60049467D01*
X78080352Y-60019917D01*
X78075668Y-59973691D01*
X78075667Y-59972312D01*
X78092386Y-59869778D01*
X78150475Y-59801110D01*
X78261831Y-59760681D01*
X78438350Y-59742865D01*
X78565524Y-59740667D01*
X78922333Y-59740667D01*
X78922333Y-59486667D01*
X78480194Y-59486667D01*
X78278218Y-59488236D01*
G37*
X78278218Y-59488236D02*
X78141196Y-59495333D01*
X78049437Y-59511544D01*
X77983250Y-59540452D01*
X77922945Y-59585642D01*
X77919277Y-59588783D01*
X77873093Y-59630647D01*
X77840427Y-59673566D01*
X77818516Y-59732454D01*
X77804596Y-59822226D01*
X77795905Y-59957797D01*
X77789679Y-60154081D01*
X77785947Y-60308449D01*
X77771395Y-60926000D01*
X77923531Y-60926000D01*
X78026397Y-60917719D01*
X78069025Y-60883356D01*
X78075667Y-60833954D01*
X78075667Y-60741908D01*
X78170917Y-60828452D01*
X78293277Y-60896486D01*
X78462789Y-60937664D01*
X78644280Y-60944913D01*
X78710667Y-60937024D01*
X78867212Y-60874621D01*
X78965361Y-60751613D01*
X79005783Y-60567059D01*
X79007000Y-60521144D01*
X79003103Y-60456336D01*
X78706206Y-60456336D01*
X78703224Y-60506921D01*
X78681472Y-60609148D01*
X78625815Y-60657384D01*
X78562500Y-60673551D01*
X78375368Y-60682018D01*
X78225892Y-60638255D01*
X78131857Y-60547609D01*
X78129636Y-60543352D01*
X78077594Y-60420134D01*
X78079747Y-60344325D01*
X78145053Y-60305219D01*
X78282472Y-60292110D01*
X78340250Y-60291648D01*
X78522499Y-60298138D01*
X78634773Y-60322133D01*
X78691275Y-60372058D01*
X78706206Y-60456336D01*
X79003103Y-60456336D01*
X78996657Y-60349156D01*
X78957096Y-60230157D01*
X78875522Y-60153954D01*
X78739138Y-60110352D01*
X78535151Y-60089157D01*
X78460434Y-60085705D01*
X78278879Y-60077596D01*
X78165791Y-60067105D01*
X78105004Y-60049467D01*
X78080352Y-60019917D01*
X78075668Y-59973691D01*
X78075667Y-59972312D01*
X78092386Y-59869778D01*
X78150475Y-59801110D01*
X78261831Y-59760681D01*
X78438350Y-59742865D01*
X78565524Y-59740667D01*
X78922333Y-59740667D01*
X78922333Y-59486667D01*
X78480194Y-59486667D01*
X78278218Y-59488236D01*
G36*
X79761698Y-59493621D02*
G01*
X79588200Y-59522164D01*
X79470458Y-59583820D01*
X79397961Y-59690110D01*
X79360199Y-59852559D01*
X79346659Y-60082687D01*
X79345667Y-60205570D01*
X79351346Y-60459997D01*
X79370619Y-60642813D01*
X79406836Y-60766454D01*
X79463351Y-60843353D01*
X79527579Y-60880402D01*
X79676677Y-60917304D01*
X79870633Y-60939824D01*
X80070459Y-60945331D01*
X80237166Y-60931197D01*
X80248526Y-60929012D01*
X80381548Y-60882708D01*
X80492640Y-60813212D01*
X80502526Y-60803956D01*
X80541678Y-60758070D01*
X80567863Y-60702176D01*
X80583652Y-60619447D01*
X80591614Y-60493055D01*
X80594315Y-60306174D01*
X80594491Y-60206334D01*
X80319333Y-60206334D01*
X80314163Y-60410625D01*
X80291816Y-60544927D01*
X80242042Y-60623630D01*
X80154588Y-60661128D01*
X80019204Y-60671813D01*
X79987644Y-60672000D01*
X79845648Y-60663649D01*
X79735463Y-60642107D01*
X79692800Y-60621200D01*
X79666566Y-60552465D01*
X79649586Y-60424808D01*
X79641861Y-60263467D01*
X79643391Y-60093680D01*
X79654176Y-59940684D01*
X79674216Y-59829716D01*
X79692800Y-59791467D01*
X79760738Y-59763647D01*
X79882678Y-59745195D01*
X79987644Y-59740667D01*
X80133159Y-59747926D01*
X80228820Y-59779299D01*
X80284880Y-59849178D01*
X80311590Y-59971957D01*
X80319200Y-60162026D01*
X80319333Y-60206334D01*
X80594491Y-60206334D01*
X80594500Y-60201492D01*
X80593882Y-59986192D01*
X80589839Y-59838629D01*
X80579090Y-59741874D01*
X80558352Y-59678998D01*
X80524344Y-59633072D01*
X80475723Y-59588835D01*
X80406649Y-59537638D01*
X80330563Y-59506954D01*
X80223943Y-59491716D01*
X80063269Y-59486858D01*
X80001465Y-59486667D01*
X79761698Y-59493621D01*
G37*
X79761698Y-59493621D02*
X79588200Y-59522164D01*
X79470458Y-59583820D01*
X79397961Y-59690110D01*
X79360199Y-59852559D01*
X79346659Y-60082687D01*
X79345667Y-60205570D01*
X79351346Y-60459997D01*
X79370619Y-60642813D01*
X79406836Y-60766454D01*
X79463351Y-60843353D01*
X79527579Y-60880402D01*
X79676677Y-60917304D01*
X79870633Y-60939824D01*
X80070459Y-60945331D01*
X80237166Y-60931197D01*
X80248526Y-60929012D01*
X80381548Y-60882708D01*
X80492640Y-60813212D01*
X80502526Y-60803956D01*
X80541678Y-60758070D01*
X80567863Y-60702176D01*
X80583652Y-60619447D01*
X80591614Y-60493055D01*
X80594315Y-60306174D01*
X80594491Y-60206334D01*
X80319333Y-60206334D01*
X80314163Y-60410625D01*
X80291816Y-60544927D01*
X80242042Y-60623630D01*
X80154588Y-60661128D01*
X80019204Y-60671813D01*
X79987644Y-60672000D01*
X79845648Y-60663649D01*
X79735463Y-60642107D01*
X79692800Y-60621200D01*
X79666566Y-60552465D01*
X79649586Y-60424808D01*
X79641861Y-60263467D01*
X79643391Y-60093680D01*
X79654176Y-59940684D01*
X79674216Y-59829716D01*
X79692800Y-59791467D01*
X79760738Y-59763647D01*
X79882678Y-59745195D01*
X79987644Y-59740667D01*
X80133159Y-59747926D01*
X80228820Y-59779299D01*
X80284880Y-59849178D01*
X80311590Y-59971957D01*
X80319200Y-60162026D01*
X80319333Y-60206334D01*
X80594491Y-60206334D01*
X80594500Y-60201492D01*
X80593882Y-59986192D01*
X80589839Y-59838629D01*
X80579090Y-59741874D01*
X80558352Y-59678998D01*
X80524344Y-59633072D01*
X80475723Y-59588835D01*
X80406649Y-59537638D01*
X80330563Y-59506954D01*
X80223943Y-59491716D01*
X80063269Y-59486858D01*
X80001465Y-59486667D01*
X79761698Y-59493621D01*
G36*
X81928000Y-59662145D02*
G01*
X81816458Y-59574406D01*
X81688619Y-59514245D01*
X81519497Y-59485434D01*
X81342289Y-59488630D01*
X81190190Y-59524490D01*
X81126267Y-59560750D01*
X81046100Y-59670901D01*
X80990585Y-59837664D01*
X80959562Y-60040430D01*
X80952871Y-60258591D01*
X80970352Y-60471538D01*
X81011844Y-60658662D01*
X81077187Y-60799354D01*
X81136351Y-60858745D01*
X81305333Y-60925257D01*
X81510747Y-60945950D01*
X81610500Y-60937794D01*
X81737590Y-60893982D01*
X81832750Y-60830564D01*
X81928000Y-60741908D01*
X81928000Y-60833954D01*
X81942142Y-60896815D01*
X82000367Y-60922392D01*
X82076167Y-60926000D01*
X82224333Y-60926000D01*
X82224333Y-60180487D01*
X81928000Y-60180487D01*
X81911964Y-60409388D01*
X81864169Y-60562366D01*
X81785083Y-60638039D01*
X81771654Y-60642356D01*
X81579969Y-60667503D01*
X81420930Y-60640621D01*
X81335333Y-60587334D01*
X81288075Y-60522771D01*
X81261921Y-60432348D01*
X81251576Y-60292235D01*
X81250667Y-60206334D01*
X81264722Y-59994633D01*
X81311536Y-59853409D01*
X81398084Y-59772495D01*
X81531341Y-59741722D01*
X81570091Y-59740667D01*
X81738059Y-59774173D01*
X81853814Y-59873872D01*
X81916356Y-60038535D01*
X81928000Y-60180487D01*
X82224333Y-60180487D01*
X82224333Y-58851667D01*
X81928000Y-58851667D01*
X81928000Y-59662145D01*
G37*
X81928000Y-59662145D02*
X81816458Y-59574406D01*
X81688619Y-59514245D01*
X81519497Y-59485434D01*
X81342289Y-59488630D01*
X81190190Y-59524490D01*
X81126267Y-59560750D01*
X81046100Y-59670901D01*
X80990585Y-59837664D01*
X80959562Y-60040430D01*
X80952871Y-60258591D01*
X80970352Y-60471538D01*
X81011844Y-60658662D01*
X81077187Y-60799354D01*
X81136351Y-60858745D01*
X81305333Y-60925257D01*
X81510747Y-60945950D01*
X81610500Y-60937794D01*
X81737590Y-60893982D01*
X81832750Y-60830564D01*
X81928000Y-60741908D01*
X81928000Y-60833954D01*
X81942142Y-60896815D01*
X82000367Y-60922392D01*
X82076167Y-60926000D01*
X82224333Y-60926000D01*
X82224333Y-60180487D01*
X81928000Y-60180487D01*
X81911964Y-60409388D01*
X81864169Y-60562366D01*
X81785083Y-60638039D01*
X81771654Y-60642356D01*
X81579969Y-60667503D01*
X81420930Y-60640621D01*
X81335333Y-60587334D01*
X81288075Y-60522771D01*
X81261921Y-60432348D01*
X81251576Y-60292235D01*
X81250667Y-60206334D01*
X81264722Y-59994633D01*
X81311536Y-59853409D01*
X81398084Y-59772495D01*
X81531341Y-59741722D01*
X81570091Y-59740667D01*
X81738059Y-59774173D01*
X81853814Y-59873872D01*
X81916356Y-60038535D01*
X81928000Y-60180487D01*
X82224333Y-60180487D01*
X82224333Y-58851667D01*
X81928000Y-58851667D01*
X81928000Y-59662145D01*
G36*
X84678695Y-59494647D02*
G01*
X84544420Y-59516924D01*
X84503967Y-59532408D01*
X84408956Y-59627274D01*
X84339818Y-59786784D01*
X84302988Y-59993177D01*
X84298667Y-60099140D01*
X84298667Y-60333334D01*
X85230000Y-60333334D01*
X85230000Y-60451867D01*
X85220167Y-60546721D01*
X85181598Y-60610111D01*
X85100687Y-60648085D01*
X84963826Y-60666689D01*
X84757412Y-60671972D01*
X84734700Y-60672000D01*
X84550755Y-60672747D01*
X84435448Y-60677897D01*
X84372749Y-60691812D01*
X84346629Y-60718855D01*
X84341060Y-60763390D01*
X84341000Y-60779162D01*
X84359439Y-60865957D01*
X84393917Y-60902588D01*
X84503603Y-60922093D01*
X84665842Y-60935175D01*
X84848691Y-60940773D01*
X85020206Y-60937824D01*
X85136676Y-60927273D01*
X85285217Y-60892502D01*
X85389116Y-60833624D01*
X85456695Y-60736735D01*
X85496277Y-60587934D01*
X85516184Y-60373321D01*
X85519799Y-60287285D01*
X85521494Y-60025499D01*
X85518310Y-59991884D01*
X85230000Y-59991884D01*
X85223135Y-60036536D01*
X85190792Y-60062730D01*
X85115347Y-60075320D01*
X84979178Y-60079159D01*
X84912500Y-60079334D01*
X84750383Y-60077443D01*
X84655281Y-60068534D01*
X84609573Y-60047754D01*
X84595634Y-60010249D01*
X84595000Y-59991884D01*
X84614459Y-59859781D01*
X84681316Y-59780988D01*
X84808294Y-59745439D01*
X84912500Y-59740667D01*
X85079458Y-59756063D01*
X85179040Y-59808963D01*
X85223969Y-59909432D01*
X85230000Y-59991884D01*
X85518310Y-59991884D01*
X85503282Y-59833279D01*
X85461329Y-59697061D01*
X85391801Y-59603283D01*
X85310806Y-59548170D01*
X85198383Y-59514565D01*
X85035605Y-59494053D01*
X84852399Y-59487219D01*
X84678695Y-59494647D01*
G37*
X84678695Y-59494647D02*
X84544420Y-59516924D01*
X84503967Y-59532408D01*
X84408956Y-59627274D01*
X84339818Y-59786784D01*
X84302988Y-59993177D01*
X84298667Y-60099140D01*
X84298667Y-60333334D01*
X85230000Y-60333334D01*
X85230000Y-60451867D01*
X85220167Y-60546721D01*
X85181598Y-60610111D01*
X85100687Y-60648085D01*
X84963826Y-60666689D01*
X84757412Y-60671972D01*
X84734700Y-60672000D01*
X84550755Y-60672747D01*
X84435448Y-60677897D01*
X84372749Y-60691812D01*
X84346629Y-60718855D01*
X84341060Y-60763390D01*
X84341000Y-60779162D01*
X84359439Y-60865957D01*
X84393917Y-60902588D01*
X84503603Y-60922093D01*
X84665842Y-60935175D01*
X84848691Y-60940773D01*
X85020206Y-60937824D01*
X85136676Y-60927273D01*
X85285217Y-60892502D01*
X85389116Y-60833624D01*
X85456695Y-60736735D01*
X85496277Y-60587934D01*
X85516184Y-60373321D01*
X85519799Y-60287285D01*
X85521494Y-60025499D01*
X85518310Y-59991884D01*
X85230000Y-59991884D01*
X85223135Y-60036536D01*
X85190792Y-60062730D01*
X85115347Y-60075320D01*
X84979178Y-60079159D01*
X84912500Y-60079334D01*
X84750383Y-60077443D01*
X84655281Y-60068534D01*
X84609573Y-60047754D01*
X84595634Y-60010249D01*
X84595000Y-59991884D01*
X84614459Y-59859781D01*
X84681316Y-59780988D01*
X84808294Y-59745439D01*
X84912500Y-59740667D01*
X85079458Y-59756063D01*
X85179040Y-59808963D01*
X85223969Y-59909432D01*
X85230000Y-59991884D01*
X85518310Y-59991884D01*
X85503282Y-59833279D01*
X85461329Y-59697061D01*
X85391801Y-59603283D01*
X85310806Y-59548170D01*
X85198383Y-59514565D01*
X85035605Y-59494053D01*
X84852399Y-59487219D01*
X84678695Y-59494647D01*
G36*
X88740707Y-59494435D02*
G01*
X88606356Y-59517405D01*
X88567967Y-59532408D01*
X88472956Y-59627274D01*
X88403818Y-59786784D01*
X88366988Y-59993177D01*
X88362667Y-60099140D01*
X88362667Y-60333334D01*
X89294000Y-60333334D01*
X89294000Y-60458844D01*
X89279634Y-60549771D01*
X89228395Y-60611597D01*
X89128073Y-60649266D01*
X88966457Y-60667723D01*
X88767617Y-60672000D01*
X88592562Y-60672923D01*
X88485473Y-60678980D01*
X88429651Y-60695108D01*
X88408393Y-60726242D01*
X88405001Y-60777317D01*
X88405000Y-60779162D01*
X88423439Y-60865957D01*
X88457917Y-60902588D01*
X88567603Y-60922093D01*
X88729842Y-60935175D01*
X88912691Y-60940773D01*
X89084206Y-60937824D01*
X89200676Y-60927273D01*
X89354175Y-60890034D01*
X89460259Y-60825656D01*
X89527937Y-60719989D01*
X89566216Y-60558884D01*
X89584105Y-60328192D01*
X89584238Y-60324817D01*
X89585040Y-60040913D01*
X89577611Y-59976524D01*
X89294000Y-59976524D01*
X89289676Y-60028831D01*
X89264822Y-60059493D01*
X89201618Y-60074283D01*
X89082243Y-60078970D01*
X88976500Y-60079334D01*
X88659000Y-60079334D01*
X88659000Y-59960800D01*
X88679473Y-59842065D01*
X88749362Y-59772651D01*
X88881376Y-59743288D01*
X88960776Y-59740667D01*
X89140040Y-59763796D01*
X89250154Y-59834166D01*
X89293198Y-59953248D01*
X89294000Y-59976524D01*
X89577611Y-59976524D01*
X89560552Y-59828674D01*
X89508150Y-59678188D01*
X89425208Y-59579544D01*
X89379144Y-59550413D01*
X89264292Y-59515570D01*
X89099631Y-59494182D01*
X88915118Y-59486916D01*
X88740707Y-59494435D01*
G37*
X88740707Y-59494435D02*
X88606356Y-59517405D01*
X88567967Y-59532408D01*
X88472956Y-59627274D01*
X88403818Y-59786784D01*
X88366988Y-59993177D01*
X88362667Y-60099140D01*
X88362667Y-60333334D01*
X89294000Y-60333334D01*
X89294000Y-60458844D01*
X89279634Y-60549771D01*
X89228395Y-60611597D01*
X89128073Y-60649266D01*
X88966457Y-60667723D01*
X88767617Y-60672000D01*
X88592562Y-60672923D01*
X88485473Y-60678980D01*
X88429651Y-60695108D01*
X88408393Y-60726242D01*
X88405001Y-60777317D01*
X88405000Y-60779162D01*
X88423439Y-60865957D01*
X88457917Y-60902588D01*
X88567603Y-60922093D01*
X88729842Y-60935175D01*
X88912691Y-60940773D01*
X89084206Y-60937824D01*
X89200676Y-60927273D01*
X89354175Y-60890034D01*
X89460259Y-60825656D01*
X89527937Y-60719989D01*
X89566216Y-60558884D01*
X89584105Y-60328192D01*
X89584238Y-60324817D01*
X89585040Y-60040913D01*
X89577611Y-59976524D01*
X89294000Y-59976524D01*
X89289676Y-60028831D01*
X89264822Y-60059493D01*
X89201618Y-60074283D01*
X89082243Y-60078970D01*
X88976500Y-60079334D01*
X88659000Y-60079334D01*
X88659000Y-59960800D01*
X88679473Y-59842065D01*
X88749362Y-59772651D01*
X88881376Y-59743288D01*
X88960776Y-59740667D01*
X89140040Y-59763796D01*
X89250154Y-59834166D01*
X89293198Y-59953248D01*
X89294000Y-59976524D01*
X89577611Y-59976524D01*
X89560552Y-59828674D01*
X89508150Y-59678188D01*
X89425208Y-59579544D01*
X89379144Y-59550413D01*
X89264292Y-59515570D01*
X89099631Y-59494182D01*
X88915118Y-59486916D01*
X88740707Y-59494435D01*
G36*
X92207810Y-59493607D02*
G01*
X92034360Y-59522105D01*
X91916618Y-59583681D01*
X91844089Y-59689853D01*
X91806275Y-59852140D01*
X91792680Y-60082059D01*
X91791667Y-60206334D01*
X91797999Y-60457637D01*
X91819479Y-60638244D01*
X91859828Y-60761347D01*
X91922770Y-60840143D01*
X91980368Y-60875145D01*
X92113984Y-60913573D01*
X92295818Y-60938120D01*
X92490165Y-60946093D01*
X92661318Y-60934797D01*
X92694526Y-60929012D01*
X92827548Y-60882708D01*
X92938640Y-60813212D01*
X92948526Y-60803956D01*
X92987678Y-60758070D01*
X93013863Y-60702176D01*
X93029652Y-60619447D01*
X93037614Y-60493055D01*
X93040315Y-60306174D01*
X93040491Y-60206334D01*
X92765333Y-60206334D01*
X92760163Y-60410625D01*
X92737816Y-60544927D01*
X92688042Y-60623630D01*
X92600588Y-60661128D01*
X92465204Y-60671813D01*
X92433644Y-60672000D01*
X92291648Y-60663649D01*
X92181463Y-60642107D01*
X92138800Y-60621200D01*
X92112566Y-60552465D01*
X92095586Y-60424808D01*
X92087861Y-60263467D01*
X92089391Y-60093680D01*
X92100176Y-59940684D01*
X92120216Y-59829716D01*
X92138800Y-59791467D01*
X92206738Y-59763647D01*
X92328678Y-59745195D01*
X92433644Y-59740667D01*
X92579159Y-59747926D01*
X92674820Y-59779299D01*
X92730880Y-59849178D01*
X92757590Y-59971957D01*
X92765200Y-60162026D01*
X92765333Y-60206334D01*
X93040491Y-60206334D01*
X93040500Y-60201492D01*
X93039882Y-59986192D01*
X93035839Y-59838629D01*
X93025090Y-59741874D01*
X93004352Y-59678998D01*
X92970344Y-59633072D01*
X92921723Y-59588835D01*
X92852649Y-59537638D01*
X92776563Y-59506954D01*
X92669943Y-59491716D01*
X92509269Y-59486858D01*
X92447465Y-59486667D01*
X92207810Y-59493607D01*
G37*
X92207810Y-59493607D02*
X92034360Y-59522105D01*
X91916618Y-59583681D01*
X91844089Y-59689853D01*
X91806275Y-59852140D01*
X91792680Y-60082059D01*
X91791667Y-60206334D01*
X91797999Y-60457637D01*
X91819479Y-60638244D01*
X91859828Y-60761347D01*
X91922770Y-60840143D01*
X91980368Y-60875145D01*
X92113984Y-60913573D01*
X92295818Y-60938120D01*
X92490165Y-60946093D01*
X92661318Y-60934797D01*
X92694526Y-60929012D01*
X92827548Y-60882708D01*
X92938640Y-60813212D01*
X92948526Y-60803956D01*
X92987678Y-60758070D01*
X93013863Y-60702176D01*
X93029652Y-60619447D01*
X93037614Y-60493055D01*
X93040315Y-60306174D01*
X93040491Y-60206334D01*
X92765333Y-60206334D01*
X92760163Y-60410625D01*
X92737816Y-60544927D01*
X92688042Y-60623630D01*
X92600588Y-60661128D01*
X92465204Y-60671813D01*
X92433644Y-60672000D01*
X92291648Y-60663649D01*
X92181463Y-60642107D01*
X92138800Y-60621200D01*
X92112566Y-60552465D01*
X92095586Y-60424808D01*
X92087861Y-60263467D01*
X92089391Y-60093680D01*
X92100176Y-59940684D01*
X92120216Y-59829716D01*
X92138800Y-59791467D01*
X92206738Y-59763647D01*
X92328678Y-59745195D01*
X92433644Y-59740667D01*
X92579159Y-59747926D01*
X92674820Y-59779299D01*
X92730880Y-59849178D01*
X92757590Y-59971957D01*
X92765200Y-60162026D01*
X92765333Y-60206334D01*
X93040491Y-60206334D01*
X93040500Y-60201492D01*
X93039882Y-59986192D01*
X93035839Y-59838629D01*
X93025090Y-59741874D01*
X93004352Y-59678998D01*
X92970344Y-59633072D01*
X92921723Y-59588835D01*
X92852649Y-59537638D01*
X92776563Y-59506954D01*
X92669943Y-59491716D01*
X92509269Y-59486858D01*
X92447465Y-59486667D01*
X92207810Y-59493607D01*
G36*
X93841535Y-58981980D02*
G01*
X93677304Y-58991606D01*
X93572273Y-59011993D01*
X93513742Y-59046851D01*
X93489010Y-59099889D01*
X93485000Y-59152544D01*
X93485000Y-59274214D01*
X93925930Y-59266461D01*
X94159888Y-59266241D01*
X94321633Y-59279209D01*
X94423311Y-59311344D01*
X94477068Y-59368625D01*
X94495050Y-59457032D01*
X94492513Y-59545384D01*
X94483974Y-59622847D01*
X94462771Y-59678180D01*
X94415506Y-59717208D01*
X94328778Y-59745753D01*
X94189190Y-59769638D01*
X93983340Y-59794686D01*
X93896369Y-59804447D01*
X93684136Y-59848938D01*
X93537723Y-59929703D01*
X93536535Y-59930720D01*
X93477730Y-59988087D01*
X93443287Y-60050179D01*
X93426768Y-60140696D01*
X93421738Y-60283341D01*
X93421500Y-60354307D01*
X93423475Y-60520784D01*
X93434510Y-60627455D01*
X93462271Y-60699173D01*
X93514425Y-60760787D01*
X93559751Y-60802473D01*
X93667096Y-60879811D01*
X93767545Y-60923140D01*
X93792585Y-60926466D01*
X93901615Y-60930885D01*
X94032931Y-60940891D01*
X94035333Y-60941120D01*
X94156903Y-60946093D01*
X94323260Y-60944695D01*
X94469250Y-60938720D01*
X94755000Y-60922132D01*
X94755000Y-60631935D01*
X94363417Y-60654495D01*
X94123711Y-60662056D01*
X93954983Y-60649065D01*
X93844939Y-60610287D01*
X93781288Y-60540489D01*
X93751736Y-60434433D01*
X93747488Y-60392183D01*
X93752481Y-60259274D01*
X93786290Y-60179720D01*
X93789821Y-60176651D01*
X93854673Y-60152107D01*
X93981084Y-60123617D01*
X94146394Y-60095948D01*
X94222472Y-60085656D01*
X94456126Y-60047380D01*
X94619173Y-59994848D01*
X94725551Y-59918336D01*
X94789199Y-59808119D01*
X94822207Y-59667201D01*
X94827001Y-59438492D01*
X94772892Y-59243578D01*
X94665274Y-59098231D01*
X94615111Y-59061467D01*
X94529864Y-59020203D01*
X94424895Y-58994997D01*
X94278359Y-58982513D01*
X94077667Y-58979403D01*
X93841535Y-58981980D01*
G37*
X93841535Y-58981980D02*
X93677304Y-58991606D01*
X93572273Y-59011993D01*
X93513742Y-59046851D01*
X93489010Y-59099889D01*
X93485000Y-59152544D01*
X93485000Y-59274214D01*
X93925930Y-59266461D01*
X94159888Y-59266241D01*
X94321633Y-59279209D01*
X94423311Y-59311344D01*
X94477068Y-59368625D01*
X94495050Y-59457032D01*
X94492513Y-59545384D01*
X94483974Y-59622847D01*
X94462771Y-59678180D01*
X94415506Y-59717208D01*
X94328778Y-59745753D01*
X94189190Y-59769638D01*
X93983340Y-59794686D01*
X93896369Y-59804447D01*
X93684136Y-59848938D01*
X93537723Y-59929703D01*
X93536535Y-59930720D01*
X93477730Y-59988087D01*
X93443287Y-60050179D01*
X93426768Y-60140696D01*
X93421738Y-60283341D01*
X93421500Y-60354307D01*
X93423475Y-60520784D01*
X93434510Y-60627455D01*
X93462271Y-60699173D01*
X93514425Y-60760787D01*
X93559751Y-60802473D01*
X93667096Y-60879811D01*
X93767545Y-60923140D01*
X93792585Y-60926466D01*
X93901615Y-60930885D01*
X94032931Y-60940891D01*
X94035333Y-60941120D01*
X94156903Y-60946093D01*
X94323260Y-60944695D01*
X94469250Y-60938720D01*
X94755000Y-60922132D01*
X94755000Y-60631935D01*
X94363417Y-60654495D01*
X94123711Y-60662056D01*
X93954983Y-60649065D01*
X93844939Y-60610287D01*
X93781288Y-60540489D01*
X93751736Y-60434433D01*
X93747488Y-60392183D01*
X93752481Y-60259274D01*
X93786290Y-60179720D01*
X93789821Y-60176651D01*
X93854673Y-60152107D01*
X93981084Y-60123617D01*
X94146394Y-60095948D01*
X94222472Y-60085656D01*
X94456126Y-60047380D01*
X94619173Y-59994848D01*
X94725551Y-59918336D01*
X94789199Y-59808119D01*
X94822207Y-59667201D01*
X94827001Y-59438492D01*
X94772892Y-59243578D01*
X94665274Y-59098231D01*
X94615111Y-59061467D01*
X94529864Y-59020203D01*
X94424895Y-58994997D01*
X94278359Y-58982513D01*
X94077667Y-58979403D01*
X93841535Y-58981980D01*
G36*
X83614203Y-60019334D02*
G01*
X83604155Y-60273277D01*
X83585456Y-60453673D01*
X83552002Y-60571607D01*
X83497686Y-60638160D01*
X83416403Y-60664416D01*
X83302047Y-60661457D01*
X83262985Y-60656866D01*
X83155822Y-60635872D01*
X83080326Y-60596212D01*
X83031064Y-60524717D01*
X83002601Y-60408220D01*
X82989502Y-60233554D01*
X82986334Y-59987553D01*
X82986333Y-59986576D01*
X82986333Y-59486667D01*
X82690000Y-59486667D01*
X82690000Y-60309411D01*
X82692033Y-60571743D01*
X82697690Y-60810810D01*
X82706311Y-61011444D01*
X82717237Y-61158481D01*
X82729807Y-61236754D01*
X82730444Y-61238530D01*
X82800871Y-61353339D01*
X82917689Y-61431426D01*
X83093177Y-61478268D01*
X83312941Y-61498302D01*
X83484846Y-61502474D01*
X83634388Y-61500414D01*
X83732474Y-61492608D01*
X83740246Y-61491128D01*
X83811974Y-61455807D01*
X83826850Y-61377218D01*
X83824913Y-61356645D01*
X83815182Y-61301306D01*
X83789981Y-61267334D01*
X83731728Y-61248907D01*
X83622841Y-61240203D01*
X83459703Y-61235710D01*
X83284121Y-61226091D01*
X83141853Y-61207568D01*
X83056009Y-61183394D01*
X83046953Y-61177609D01*
X83005752Y-61098308D01*
X82987388Y-60961083D01*
X82986982Y-60931400D01*
X82993092Y-60826976D01*
X83007954Y-60778104D01*
X83018732Y-60782079D01*
X83122736Y-60866122D01*
X83291967Y-60915077D01*
X83446856Y-60926000D01*
X83606238Y-60912942D01*
X83721876Y-60865958D01*
X83777723Y-60823884D01*
X83823907Y-60782020D01*
X83856573Y-60739101D01*
X83878484Y-60680213D01*
X83892404Y-60590441D01*
X83901095Y-60454870D01*
X83907322Y-60258586D01*
X83911053Y-60104218D01*
X83925606Y-59486667D01*
X83628239Y-59486667D01*
X83614203Y-60019334D01*
G37*
X83614203Y-60019334D02*
X83604155Y-60273277D01*
X83585456Y-60453673D01*
X83552002Y-60571607D01*
X83497686Y-60638160D01*
X83416403Y-60664416D01*
X83302047Y-60661457D01*
X83262985Y-60656866D01*
X83155822Y-60635872D01*
X83080326Y-60596212D01*
X83031064Y-60524717D01*
X83002601Y-60408220D01*
X82989502Y-60233554D01*
X82986334Y-59987553D01*
X82986333Y-59986576D01*
X82986333Y-59486667D01*
X82690000Y-59486667D01*
X82690000Y-60309411D01*
X82692033Y-60571743D01*
X82697690Y-60810810D01*
X82706311Y-61011444D01*
X82717237Y-61158481D01*
X82729807Y-61236754D01*
X82730444Y-61238530D01*
X82800871Y-61353339D01*
X82917689Y-61431426D01*
X83093177Y-61478268D01*
X83312941Y-61498302D01*
X83484846Y-61502474D01*
X83634388Y-61500414D01*
X83732474Y-61492608D01*
X83740246Y-61491128D01*
X83811974Y-61455807D01*
X83826850Y-61377218D01*
X83824913Y-61356645D01*
X83815182Y-61301306D01*
X83789981Y-61267334D01*
X83731728Y-61248907D01*
X83622841Y-61240203D01*
X83459703Y-61235710D01*
X83284121Y-61226091D01*
X83141853Y-61207568D01*
X83056009Y-61183394D01*
X83046953Y-61177609D01*
X83005752Y-61098308D01*
X82987388Y-60961083D01*
X82986982Y-60931400D01*
X82993092Y-60826976D01*
X83007954Y-60778104D01*
X83018732Y-60782079D01*
X83122736Y-60866122D01*
X83291967Y-60915077D01*
X83446856Y-60926000D01*
X83606238Y-60912942D01*
X83721876Y-60865958D01*
X83777723Y-60823884D01*
X83823907Y-60782020D01*
X83856573Y-60739101D01*
X83878484Y-60680213D01*
X83892404Y-60590441D01*
X83901095Y-60454870D01*
X83907322Y-60258586D01*
X83911053Y-60104218D01*
X83925606Y-59486667D01*
X83628239Y-59486667D01*
X83614203Y-60019334D01*
G36*
X75053746Y-61823813D02*
G01*
X74872495Y-61844563D01*
X74754548Y-61874916D01*
X74637900Y-61941043D01*
X74565909Y-62033425D01*
X74529519Y-62171056D01*
X74519667Y-62367426D01*
X74524174Y-62519398D01*
X74543875Y-62616114D01*
X74588039Y-62686778D01*
X74636083Y-62734229D01*
X74726914Y-62796677D01*
X74872255Y-62875503D01*
X75047214Y-62957696D01*
X75133500Y-62994159D01*
X75308642Y-63066429D01*
X75420311Y-63119049D01*
X75483571Y-63163994D01*
X75513486Y-63213239D01*
X75525121Y-63278759D01*
X75527639Y-63307473D01*
X75540778Y-63466000D01*
X74519667Y-63466000D01*
X74519667Y-63762334D01*
X75886883Y-63762334D01*
X75860225Y-63416646D01*
X75838155Y-63216519D01*
X75798499Y-63071709D01*
X75727011Y-62964376D01*
X75609448Y-62876681D01*
X75431567Y-62790785D01*
X75325504Y-62746940D01*
X75109553Y-62655785D01*
X74962473Y-62581701D01*
X74872421Y-62516188D01*
X74827555Y-62450749D01*
X74816000Y-62381317D01*
X74822457Y-62270934D01*
X74850712Y-62195407D01*
X74914087Y-62148217D01*
X75025905Y-62122845D01*
X75199492Y-62112772D01*
X75367823Y-62111334D01*
X75832000Y-62111334D01*
X75832000Y-61989872D01*
X75821601Y-61907887D01*
X75774124Y-61865786D01*
X75673250Y-61842172D01*
X75481473Y-61821642D01*
X75265855Y-61815848D01*
X75053746Y-61823813D01*
G37*
X75053746Y-61823813D02*
X74872495Y-61844563D01*
X74754548Y-61874916D01*
X74637900Y-61941043D01*
X74565909Y-62033425D01*
X74529519Y-62171056D01*
X74519667Y-62367426D01*
X74524174Y-62519398D01*
X74543875Y-62616114D01*
X74588039Y-62686778D01*
X74636083Y-62734229D01*
X74726914Y-62796677D01*
X74872255Y-62875503D01*
X75047214Y-62957696D01*
X75133500Y-62994159D01*
X75308642Y-63066429D01*
X75420311Y-63119049D01*
X75483571Y-63163994D01*
X75513486Y-63213239D01*
X75525121Y-63278759D01*
X75527639Y-63307473D01*
X75540778Y-63466000D01*
X74519667Y-63466000D01*
X74519667Y-63762334D01*
X75886883Y-63762334D01*
X75860225Y-63416646D01*
X75838155Y-63216519D01*
X75798499Y-63071709D01*
X75727011Y-62964376D01*
X75609448Y-62876681D01*
X75431567Y-62790785D01*
X75325504Y-62746940D01*
X75109553Y-62655785D01*
X74962473Y-62581701D01*
X74872421Y-62516188D01*
X74827555Y-62450749D01*
X74816000Y-62381317D01*
X74822457Y-62270934D01*
X74850712Y-62195407D01*
X74914087Y-62148217D01*
X75025905Y-62122845D01*
X75199492Y-62112772D01*
X75367823Y-62111334D01*
X75832000Y-62111334D01*
X75832000Y-61989872D01*
X75821601Y-61907887D01*
X75774124Y-61865786D01*
X75673250Y-61842172D01*
X75481473Y-61821642D01*
X75265855Y-61815848D01*
X75053746Y-61823813D01*
G36*
X76845631Y-62328766D02*
G01*
X76824287Y-62351235D01*
X76822157Y-62400326D01*
X76840781Y-62486215D01*
X76881699Y-62619074D01*
X76946453Y-62809079D01*
X77036583Y-63066403D01*
X77064361Y-63145581D01*
X77280574Y-63762334D01*
X77477037Y-63761976D01*
X77673500Y-63761619D01*
X77902150Y-63095226D01*
X77979797Y-62869140D01*
X78048667Y-62669007D01*
X78103708Y-62509478D01*
X78139867Y-62405204D01*
X78151206Y-62373025D01*
X78141972Y-62337042D01*
X78069034Y-62327351D01*
X78010495Y-62330692D01*
X77849378Y-62344167D01*
X77658860Y-62915667D01*
X77468341Y-63487167D01*
X77275721Y-62905084D01*
X77083100Y-62323000D01*
X76939794Y-62323000D01*
X76884647Y-62322746D01*
X76845631Y-62328766D01*
G37*
X76845631Y-62328766D02*
X76824287Y-62351235D01*
X76822157Y-62400326D01*
X76840781Y-62486215D01*
X76881699Y-62619074D01*
X76946453Y-62809079D01*
X77036583Y-63066403D01*
X77064361Y-63145581D01*
X77280574Y-63762334D01*
X77477037Y-63761976D01*
X77673500Y-63761619D01*
X77902150Y-63095226D01*
X77979797Y-62869140D01*
X78048667Y-62669007D01*
X78103708Y-62509478D01*
X78139867Y-62405204D01*
X78151206Y-62373025D01*
X78141972Y-62337042D01*
X78069034Y-62327351D01*
X78010495Y-62330692D01*
X77849378Y-62344167D01*
X77658860Y-62915667D01*
X77468341Y-63487167D01*
X77275721Y-62905084D01*
X77083100Y-62323000D01*
X76939794Y-62323000D01*
X76884647Y-62322746D01*
X76845631Y-62328766D01*
G36*
X61924924Y-54089783D02*
G01*
X61832552Y-54206948D01*
X61778247Y-54308346D01*
X61712872Y-54503807D01*
X61685824Y-54736638D01*
X61697771Y-55014630D01*
X61749382Y-55345573D01*
X61841326Y-55737259D01*
X61927087Y-56041805D01*
X61938406Y-56092239D01*
X61921092Y-56112460D01*
X61857418Y-56105311D01*
X61729659Y-56073640D01*
X61729332Y-56073555D01*
X61509953Y-56027574D01*
X61337371Y-56020574D01*
X61183163Y-56052673D01*
X61121314Y-56076044D01*
X60995628Y-56163705D01*
X60939637Y-56281793D01*
X60951924Y-56414782D01*
X61031073Y-56547148D01*
X61174862Y-56662896D01*
X61280776Y-56711957D01*
X61438959Y-56770389D01*
X61619462Y-56827356D01*
X61664643Y-56840120D01*
X61911156Y-56912958D01*
X62089082Y-56980079D01*
X62213257Y-57050247D01*
X62298512Y-57132227D01*
X62359681Y-57234783D01*
X62369488Y-57256589D01*
X62399211Y-57347878D01*
X62435826Y-57493907D01*
X62476090Y-57677185D01*
X62516759Y-57880223D01*
X62554590Y-58085531D01*
X62586340Y-58275619D01*
X62608765Y-58432997D01*
X62618624Y-58540176D01*
X62614666Y-58578778D01*
X62569679Y-58579246D01*
X62457781Y-58570264D01*
X62295945Y-58553882D01*
X62101141Y-58532150D01*
X61890343Y-58507116D01*
X61680521Y-58480830D01*
X61488647Y-58455342D01*
X61331694Y-58432699D01*
X61226633Y-58414951D01*
X61195250Y-58407395D01*
X61147328Y-58412715D01*
X61142333Y-58427279D01*
X61106386Y-58466649D01*
X61007914Y-58534468D01*
X60860975Y-58623077D01*
X60679626Y-58724818D01*
X60477925Y-58832032D01*
X60269928Y-58937061D01*
X60069693Y-59032246D01*
X59891277Y-59109928D01*
X59883648Y-59113027D01*
X59669310Y-59193642D01*
X59438935Y-59270593D01*
X59232440Y-59330810D01*
X59174564Y-59345196D01*
X59004530Y-59391642D01*
X58894413Y-59436525D01*
X58856333Y-59474116D01*
X58827559Y-59524641D01*
X58809201Y-59529000D01*
X58797894Y-59569510D01*
X58789809Y-59683879D01*
X58784825Y-59861365D01*
X58782819Y-60091227D01*
X58783671Y-60362723D01*
X58787257Y-60665111D01*
X58793456Y-60987650D01*
X58802147Y-61319598D01*
X58813206Y-61650213D01*
X58826513Y-61968754D01*
X58839827Y-62227750D01*
X58864481Y-62661667D01*
X58750320Y-62661667D01*
X58641594Y-62653084D01*
X58475367Y-62629838D01*
X58270871Y-62595682D01*
X58047338Y-62554368D01*
X57824000Y-62509650D01*
X57620088Y-62465281D01*
X57454833Y-62425013D01*
X57347468Y-62392600D01*
X57327520Y-62384011D01*
X57247530Y-62330607D01*
X57180495Y-62252918D01*
X57119265Y-62136888D01*
X57056690Y-61968458D01*
X56985618Y-61733573D01*
X56971821Y-61684756D01*
X56889479Y-61417821D01*
X56810258Y-61223037D01*
X56727463Y-61088458D01*
X56634397Y-61002140D01*
X56570209Y-60968282D01*
X56433863Y-60946725D01*
X56320985Y-60995826D01*
X56235506Y-61103861D01*
X56181359Y-61259106D01*
X56162476Y-61449836D01*
X56182788Y-61664328D01*
X56246228Y-61890856D01*
X56254031Y-61911040D01*
X56265575Y-61959457D01*
X56231060Y-61963374D01*
X56162416Y-61939689D01*
X55979672Y-61880580D01*
X55749068Y-61821115D01*
X55497595Y-61766749D01*
X55252243Y-61722936D01*
X55040003Y-61695128D01*
X54917062Y-61688055D01*
X54722398Y-61705765D01*
X54529125Y-61753319D01*
X54359002Y-61822241D01*
X54233789Y-61904055D01*
X54179713Y-61975271D01*
X54190020Y-62050397D01*
X54252218Y-62129638D01*
X54339712Y-62185354D01*
X54392101Y-62196000D01*
X54471023Y-62210319D01*
X54564084Y-62240076D01*
X54680014Y-62284153D01*
X54535544Y-62356493D01*
X54414960Y-62449661D01*
X54342669Y-62571471D01*
X54332735Y-62695756D01*
X54340075Y-62720213D01*
X54394442Y-62769583D01*
X54515282Y-62789237D01*
X54547588Y-62789954D01*
X54654149Y-62793569D01*
X54686549Y-62805790D01*
X54655224Y-62831817D01*
X54644167Y-62838069D01*
X54481395Y-62953646D01*
X54391579Y-63075842D01*
X54377889Y-63196703D01*
X54443497Y-63308277D01*
X54453099Y-63317319D01*
X54551234Y-63374588D01*
X54687600Y-63394290D01*
X54878942Y-63377966D01*
X54961667Y-63364087D01*
X55152167Y-63329284D01*
X55039656Y-63418809D01*
X54950453Y-63480057D01*
X54885421Y-63508142D01*
X54882235Y-63508334D01*
X54856303Y-63540772D01*
X54880687Y-63638916D01*
X54926495Y-63744592D01*
X54953539Y-63790305D01*
X54993089Y-63811569D01*
X55066355Y-63810648D01*
X55194546Y-63789806D01*
X55250937Y-63779243D01*
X55476509Y-63731287D01*
X55647079Y-63678962D01*
X55791986Y-63610477D01*
X55940568Y-63514041D01*
X55977667Y-63487167D01*
X56069908Y-63419984D01*
X56150174Y-63367695D01*
X56229334Y-63329888D01*
X56318257Y-63306154D01*
X56427813Y-63296080D01*
X56568870Y-63299259D01*
X56752297Y-63315277D01*
X56988964Y-63343727D01*
X57289739Y-63384196D01*
X57592682Y-63426179D01*
X57902486Y-63468994D01*
X58185258Y-63507743D01*
X58430058Y-63540953D01*
X58625948Y-63567152D01*
X58761991Y-63584867D01*
X58827248Y-63592627D01*
X58830789Y-63592854D01*
X58836182Y-63633925D01*
X58840523Y-63751963D01*
X58843862Y-63939277D01*
X58846248Y-64188175D01*
X58847730Y-64490965D01*
X58848355Y-64839956D01*
X58848174Y-65227455D01*
X58847235Y-65645770D01*
X58845588Y-66087210D01*
X58843280Y-66544083D01*
X58840361Y-67008697D01*
X58836880Y-67473360D01*
X58832886Y-67930380D01*
X58828427Y-68372066D01*
X58823553Y-68790725D01*
X58818312Y-69178666D01*
X58812754Y-69528197D01*
X58806927Y-69831626D01*
X58800880Y-70081261D01*
X58794662Y-70269411D01*
X58788323Y-70388383D01*
X58787517Y-70398084D01*
X58775804Y-70558625D01*
X58777498Y-70652072D01*
X58794705Y-70695239D01*
X58825951Y-70705000D01*
X58892976Y-70730452D01*
X58907079Y-70751404D01*
X58939869Y-70766496D01*
X59029921Y-70774535D01*
X59183375Y-70775502D01*
X59406372Y-70769380D01*
X59705049Y-70756149D01*
X59852524Y-70748574D01*
X60059512Y-70739591D01*
X60340986Y-70730385D01*
X60686764Y-70721154D01*
X61086668Y-70712093D01*
X61530516Y-70703399D01*
X62008128Y-70695269D01*
X62509325Y-70687897D01*
X63023925Y-70681481D01*
X63541749Y-70676217D01*
X63657240Y-70675215D01*
X66531979Y-70651090D01*
X66503338Y-71323628D01*
X66490713Y-71615115D01*
X66476514Y-71934962D01*
X66462337Y-72247648D01*
X66449778Y-72517657D01*
X66447811Y-72559011D01*
X66420927Y-73121856D01*
X66311047Y-73101661D01*
X66067224Y-73060124D01*
X65842308Y-73027841D01*
X65652526Y-73006640D01*
X65514102Y-72998348D01*
X65444840Y-73004132D01*
X65395734Y-73065541D01*
X65378110Y-73189100D01*
X65389350Y-73359463D01*
X65426834Y-73561285D01*
X65487943Y-73779218D01*
X65570058Y-73997919D01*
X65639556Y-74145018D01*
X65709683Y-74279911D01*
X65763506Y-74384072D01*
X65789839Y-74435851D01*
X65790212Y-74436632D01*
X65755307Y-74446119D01*
X65650558Y-74453269D01*
X65490766Y-74457534D01*
X65290736Y-74458365D01*
X65219016Y-74457799D01*
X64891990Y-74458078D01*
X64636873Y-74468088D01*
X64441273Y-74489715D01*
X64292795Y-74524845D01*
X64179048Y-74575362D01*
X64105868Y-74627160D01*
X64001708Y-74762417D01*
X63977290Y-74925139D01*
X64032613Y-75114337D01*
X64105992Y-75243044D01*
X64244691Y-75417673D01*
X64415050Y-75564368D01*
X64625003Y-75685816D01*
X64882483Y-75784705D01*
X65195424Y-75863723D01*
X65571761Y-75925557D01*
X66019427Y-75972896D01*
X66327444Y-75995579D01*
X66679687Y-76016687D01*
X66959059Y-76029564D01*
X67176970Y-76034107D01*
X67344825Y-76030211D01*
X67474030Y-76017769D01*
X67575994Y-75996678D01*
X67617905Y-75983694D01*
X67735911Y-75918065D01*
X67823788Y-75827090D01*
X67827828Y-75820249D01*
X67856220Y-75758608D01*
X67866573Y-75691859D01*
X67861013Y-75634673D01*
X67567712Y-75634673D01*
X67563886Y-75673449D01*
X67544448Y-75699496D01*
X67501157Y-75718110D01*
X67421834Y-75730447D01*
X67294304Y-75737661D01*
X67106389Y-75740908D01*
X66848079Y-75741346D01*
X66564767Y-75736864D01*
X66263799Y-75725478D01*
X65976131Y-75708763D01*
X65732715Y-75688293D01*
X65672000Y-75681542D01*
X65452710Y-75651003D01*
X65241325Y-75614270D01*
X65065579Y-75576540D01*
X64973500Y-75550601D01*
X64744904Y-75453430D01*
X64549462Y-75334229D01*
X64395745Y-75202616D01*
X64292322Y-75068210D01*
X64247765Y-74940632D01*
X64270643Y-74829499D01*
X64298924Y-74793457D01*
X64331546Y-74768920D01*
X64381033Y-74750864D01*
X64458925Y-74738516D01*
X64576764Y-74731104D01*
X64746088Y-74727854D01*
X64978440Y-74727993D01*
X65241922Y-74730281D01*
X65538166Y-74732747D01*
X65760854Y-74732536D01*
X65921072Y-74728912D01*
X66029908Y-74721143D01*
X66098448Y-74708494D01*
X66137780Y-74690231D01*
X66156544Y-74669723D01*
X66175535Y-74584831D01*
X66140717Y-74504563D01*
X66025243Y-74306781D01*
X65914908Y-74093289D01*
X65815608Y-73878649D01*
X65733240Y-73677420D01*
X65673703Y-73504164D01*
X65642893Y-73373440D01*
X65646708Y-73299811D01*
X65650652Y-73294571D01*
X65698918Y-73290902D01*
X65810307Y-73298516D01*
X65964268Y-73315783D01*
X66030841Y-73324702D01*
X66231895Y-73348772D01*
X66479420Y-73372491D01*
X66735274Y-73392413D01*
X66876326Y-73401079D01*
X67361846Y-73427098D01*
X67362205Y-73931562D01*
X67363372Y-74161638D01*
X67368311Y-74343522D01*
X67379745Y-74501681D01*
X67400394Y-74660581D01*
X67432979Y-74844688D01*
X67480222Y-75078468D01*
X67500613Y-75176032D01*
X67535841Y-75362129D01*
X67559099Y-75522018D01*
X67567712Y-75634673D01*
X67861013Y-75634673D01*
X67857551Y-75599070D01*
X67827819Y-75459307D01*
X67796770Y-75333415D01*
X67722088Y-75007787D01*
X67670456Y-74704374D01*
X67638547Y-74394094D01*
X67623037Y-74047870D01*
X67620172Y-73789279D01*
X67619301Y-73546792D01*
X67613269Y-73376295D01*
X67595722Y-73265121D01*
X67560303Y-73200603D01*
X67500656Y-73170072D01*
X67410424Y-73160862D01*
X67304585Y-73160334D01*
X67123762Y-73160334D01*
X67139002Y-72959250D01*
X67171695Y-72532079D01*
X67202876Y-72132718D01*
X67231771Y-71770625D01*
X67257606Y-71455259D01*
X67279604Y-71196076D01*
X67296992Y-71002534D01*
X67308887Y-70885031D01*
X67330672Y-70697047D01*
X67064604Y-70697047D01*
X67061745Y-70777137D01*
X67055029Y-70821417D01*
X67044525Y-70910644D01*
X67029357Y-71069151D01*
X67010833Y-71281765D01*
X66990263Y-71533308D01*
X66968953Y-71808607D01*
X66962851Y-71890334D01*
X66935856Y-72251500D01*
X66913600Y-72537040D01*
X66894908Y-72755787D01*
X66878602Y-72916576D01*
X66863507Y-73028240D01*
X66848446Y-73099612D01*
X66832244Y-73139525D01*
X66813723Y-73156815D01*
X66793738Y-73160334D01*
X66723436Y-73134475D01*
X66710101Y-73119512D01*
X66705365Y-73068186D01*
X66704457Y-72943365D01*
X66707138Y-72756123D01*
X66713172Y-72517534D01*
X66722319Y-72238670D01*
X66734344Y-71930607D01*
X66736892Y-71870679D01*
X66788912Y-70662667D01*
X66934367Y-70662667D01*
X67028414Y-70667138D01*
X67064604Y-70697047D01*
X67330672Y-70697047D01*
X67334630Y-70662895D01*
X67932065Y-70684248D01*
X68536633Y-70705061D01*
X69109464Y-70723216D01*
X69645309Y-70738625D01*
X70138919Y-70751200D01*
X70585046Y-70760855D01*
X70978439Y-70767500D01*
X71313849Y-70771049D01*
X71586027Y-70771414D01*
X71789723Y-70768507D01*
X71919689Y-70762240D01*
X71970675Y-70752526D01*
X71971148Y-70751724D01*
X72021096Y-70709343D01*
X72048460Y-70705000D01*
X72079961Y-70690493D01*
X72094733Y-70636248D01*
X72094748Y-70578000D01*
X71807923Y-70578000D01*
X71768577Y-70583197D01*
X71657479Y-70585163D01*
X71487479Y-70583996D01*
X71271425Y-70579794D01*
X71022167Y-70572657D01*
X70995468Y-70571771D01*
X70797113Y-70565645D01*
X70525225Y-70558062D01*
X70190919Y-70549295D01*
X69805311Y-70539615D01*
X69379519Y-70529294D01*
X68924656Y-70518603D01*
X68451840Y-70507813D01*
X67972185Y-70497197D01*
X67725167Y-70491865D01*
X66623835Y-70473003D01*
X65509421Y-70462939D01*
X64398136Y-70461567D01*
X63306193Y-70468778D01*
X62249806Y-70484465D01*
X61245187Y-70508521D01*
X60308550Y-70540838D01*
X60304188Y-70541016D01*
X60000013Y-70552546D01*
X59724159Y-70561406D01*
X59487745Y-70567370D01*
X59301887Y-70570208D01*
X59177703Y-70569691D01*
X59126309Y-70565592D01*
X59125780Y-70565224D01*
X59144195Y-70526718D01*
X59205871Y-70425336D01*
X59306226Y-70268059D01*
X59440680Y-70061864D01*
X59604651Y-69813731D01*
X59793557Y-69530639D01*
X60002817Y-69219566D01*
X60209055Y-68915134D01*
X61315093Y-67287806D01*
X61916630Y-67218122D01*
X62289082Y-67175900D01*
X62619475Y-67141022D01*
X62921792Y-67112800D01*
X63210014Y-67090545D01*
X63498123Y-67073571D01*
X63800101Y-67061190D01*
X64129930Y-67052713D01*
X64501592Y-67047454D01*
X64929068Y-67044723D01*
X65426341Y-67043835D01*
X65460333Y-67043825D01*
X66054005Y-67045398D01*
X66578639Y-67050938D01*
X67049808Y-67061239D01*
X67483082Y-67077094D01*
X67894030Y-67099296D01*
X68298225Y-67128638D01*
X68711236Y-67165914D01*
X69148634Y-67211916D01*
X69458876Y-67247519D01*
X69880252Y-67297167D01*
X70842830Y-68927000D01*
X71042029Y-69264649D01*
X71227414Y-69579591D01*
X71394650Y-69864407D01*
X71539399Y-70111680D01*
X71657325Y-70313991D01*
X71744092Y-70463922D01*
X71795364Y-70554055D01*
X71807923Y-70578000D01*
X72094748Y-70578000D01*
X72094762Y-70526179D01*
X72086363Y-70398084D01*
X72078401Y-70270037D01*
X72068548Y-70071763D01*
X72057322Y-69817668D01*
X72045241Y-69522157D01*
X72032824Y-69199637D01*
X72020587Y-68864512D01*
X72009050Y-68531188D01*
X71998731Y-68214071D01*
X71990147Y-67927567D01*
X71983816Y-67686080D01*
X71980257Y-67504017D01*
X71979667Y-67431171D01*
X71979667Y-67180426D01*
X72201917Y-67208683D01*
X72396659Y-67234853D01*
X72631219Y-67268602D01*
X72892634Y-67307831D01*
X73167941Y-67350439D01*
X73444178Y-67394327D01*
X73708382Y-67437395D01*
X73947592Y-67477542D01*
X74148844Y-67512669D01*
X74299176Y-67540675D01*
X74385626Y-67559460D01*
X74401130Y-67564978D01*
X74410547Y-67620025D01*
X74399666Y-67725495D01*
X74389274Y-67778130D01*
X74369068Y-67907036D01*
X74386187Y-67994069D01*
X74453282Y-68052348D01*
X74583005Y-68094994D01*
X74722179Y-68123365D01*
X75137722Y-68220940D01*
X75591373Y-68365748D01*
X76057652Y-68549124D01*
X76312062Y-68664136D01*
X76517553Y-68760682D01*
X76661958Y-68824413D01*
X76760293Y-68859620D01*
X76827575Y-68870595D01*
X76878820Y-68861628D01*
X76924983Y-68839303D01*
X77014082Y-68751651D01*
X77100262Y-68589286D01*
X77184075Y-68350298D01*
X77266072Y-68032775D01*
X77346806Y-67634808D01*
X77426827Y-67154486D01*
X77443565Y-67043167D01*
X77496107Y-66627553D01*
X77519729Y-66280115D01*
X77519602Y-66272875D01*
X77261989Y-66272875D01*
X77246235Y-66508242D01*
X77217121Y-66781658D01*
X77177260Y-67077613D01*
X77129268Y-67380599D01*
X77075760Y-67675109D01*
X77019351Y-67945635D01*
X76962656Y-68176668D01*
X76908291Y-68352700D01*
X76863855Y-68450750D01*
X76796552Y-68522479D01*
X76739690Y-68546000D01*
X76676121Y-68528539D01*
X76556179Y-68481483D01*
X76399356Y-68412827D01*
X76285582Y-68359785D01*
X75848813Y-68173288D01*
X75394478Y-68018875D01*
X74959906Y-67909063D01*
X74914798Y-67900222D01*
X74640191Y-67848130D01*
X74667050Y-67720815D01*
X74763871Y-67201370D01*
X74766804Y-67179294D01*
X74515777Y-67179294D01*
X74480224Y-67245043D01*
X74422725Y-67276000D01*
X74365526Y-67269586D01*
X74237781Y-67251644D01*
X74052533Y-67224125D01*
X73822823Y-67188978D01*
X73561693Y-67148155D01*
X73458313Y-67131778D01*
X73170392Y-67086727D01*
X72891737Y-67044446D01*
X72639949Y-67007507D01*
X72432631Y-66978481D01*
X72287384Y-66959939D01*
X72265417Y-66957513D01*
X71979667Y-66927470D01*
X71979667Y-66784235D01*
X71993796Y-66681111D01*
X72031533Y-66641846D01*
X72032583Y-66641842D01*
X72095215Y-66649944D01*
X72225481Y-66671831D01*
X72410739Y-66705053D01*
X72638344Y-66747160D01*
X72895653Y-66795702D01*
X73170022Y-66848226D01*
X73448807Y-66902283D01*
X73719364Y-66955422D01*
X73969050Y-67005193D01*
X74185221Y-67049144D01*
X74355232Y-67084825D01*
X74466440Y-67109786D01*
X74506025Y-67121247D01*
X74515777Y-67179294D01*
X74766804Y-67179294D01*
X74827385Y-66723402D01*
X74844473Y-66523774D01*
X74858096Y-66340613D01*
X74871695Y-66227175D01*
X74889940Y-66168648D01*
X74917504Y-66150218D01*
X74959058Y-66157074D01*
X74960022Y-66157355D01*
X75112299Y-66223319D01*
X75304690Y-66339377D01*
X75519627Y-66493649D01*
X75739539Y-66674252D01*
X75787620Y-66717042D01*
X75954354Y-66860085D01*
X76074248Y-66939247D01*
X76156902Y-66953761D01*
X76211914Y-66902862D01*
X76248881Y-66785781D01*
X76267076Y-66678735D01*
X76299541Y-66484977D01*
X76344645Y-66257678D01*
X76397626Y-66016867D01*
X76453723Y-65782570D01*
X76508173Y-65574816D01*
X76556215Y-65413631D01*
X76587941Y-65329285D01*
X76671748Y-65209617D01*
X76768841Y-65164729D01*
X76872576Y-65187113D01*
X76976313Y-65269260D01*
X77073411Y-65403661D01*
X77157227Y-65582808D01*
X77221120Y-65799193D01*
X77258448Y-66045307D01*
X77261766Y-66091063D01*
X77261989Y-66272875D01*
X77519602Y-66272875D01*
X77514594Y-65989516D01*
X77480869Y-65744419D01*
X77463480Y-65671538D01*
X77372308Y-65419487D01*
X77246702Y-65200021D01*
X77097633Y-65025753D01*
X76936069Y-64909296D01*
X76772979Y-64863263D01*
X76760321Y-64863000D01*
X76619436Y-64893247D01*
X76494904Y-64986866D01*
X76384378Y-65148179D01*
X76285506Y-65381503D01*
X76195941Y-65691161D01*
X76121577Y-66037476D01*
X76084050Y-66231782D01*
X76051672Y-66393309D01*
X76027890Y-66505260D01*
X76016155Y-66550840D01*
X76016137Y-66550866D01*
X75982008Y-66532335D01*
X75901270Y-66469129D01*
X75789716Y-66373791D01*
X75759857Y-66347295D01*
X75536143Y-66173689D01*
X75286941Y-66023433D01*
X75039846Y-65911411D01*
X74851395Y-65857245D01*
X74760956Y-65847783D01*
X74696706Y-65866183D01*
X74653017Y-65924250D01*
X74624263Y-66033791D01*
X74604818Y-66206610D01*
X74592006Y-66401479D01*
X74580663Y-66579202D01*
X74569224Y-66721720D01*
X74559324Y-66810308D01*
X74554577Y-66830030D01*
X74511152Y-66825529D01*
X74394721Y-66807109D01*
X74215475Y-66776552D01*
X73983605Y-66735642D01*
X73709305Y-66686164D01*
X73402764Y-66629902D01*
X73262597Y-66603885D01*
X72899245Y-66535746D01*
X72610638Y-66480229D01*
X72388152Y-66435196D01*
X72223161Y-66398507D01*
X72107040Y-66368024D01*
X72031165Y-66341607D01*
X71986910Y-66317118D01*
X71965652Y-66292416D01*
X71961425Y-66281167D01*
X71951870Y-66200028D01*
X71944899Y-66042526D01*
X71940378Y-65816917D01*
X71938175Y-65531460D01*
X71938157Y-65194414D01*
X71940191Y-64814038D01*
X71944145Y-64398589D01*
X71949884Y-63956326D01*
X71957278Y-63495509D01*
X71966192Y-63024395D01*
X71976494Y-62551242D01*
X71988051Y-62084310D01*
X72000730Y-61631856D01*
X72014399Y-61202140D01*
X72028924Y-60803419D01*
X72044174Y-60443953D01*
X72060014Y-60131999D01*
X72060450Y-60124281D01*
X72074599Y-59866876D01*
X72078358Y-59679403D01*
X72075499Y-59652558D01*
X71890360Y-59652558D01*
X71886116Y-59788924D01*
X71876797Y-59941750D01*
X71852817Y-60365444D01*
X71831859Y-60860102D01*
X71813928Y-61415823D01*
X71799025Y-62022705D01*
X71787153Y-62670845D01*
X71778313Y-63350342D01*
X71772509Y-64051294D01*
X71769742Y-64763798D01*
X71770015Y-65477953D01*
X71773330Y-66183855D01*
X71779689Y-66871605D01*
X71789095Y-67531298D01*
X71801549Y-68153034D01*
X71817055Y-68726910D01*
X71835615Y-69243024D01*
X71857230Y-69691474D01*
X71874472Y-69963901D01*
X71882411Y-70130169D01*
X71878651Y-70233103D01*
X71863657Y-70263218D01*
X71859858Y-70260235D01*
X71830628Y-70215644D01*
X71763394Y-70105901D01*
X71662889Y-69938946D01*
X71533844Y-69722716D01*
X71380989Y-69465151D01*
X71209057Y-69174189D01*
X71022780Y-68857768D01*
X70943607Y-68722943D01*
X70751937Y-68394576D01*
X70572936Y-68084577D01*
X70411396Y-67801494D01*
X70272107Y-67553871D01*
X70159863Y-67350256D01*
X70079455Y-67199194D01*
X70035676Y-67109231D01*
X70029712Y-67093110D01*
X70021568Y-67052068D01*
X69818913Y-67052068D01*
X69807737Y-67095864D01*
X69765153Y-67095252D01*
X69752764Y-67091645D01*
X69688337Y-67080709D01*
X69552995Y-67063910D01*
X69360174Y-67042701D01*
X69123308Y-67018534D01*
X68855834Y-66992861D01*
X68741167Y-66982304D01*
X67820498Y-66906607D01*
X66964623Y-66853562D01*
X66156885Y-66822720D01*
X65380622Y-66813633D01*
X64619176Y-66825852D01*
X63957500Y-66853373D01*
X63596681Y-66874888D01*
X63212848Y-66901992D01*
X62824379Y-66933061D01*
X62449649Y-66966469D01*
X62107035Y-67000589D01*
X61814916Y-67033797D01*
X61619143Y-67060228D01*
X61492598Y-67076472D01*
X61405793Y-67082259D01*
X61383107Y-67079329D01*
X61382135Y-67034023D01*
X61391007Y-66923402D01*
X61408022Y-66766030D01*
X61422945Y-66645108D01*
X61485627Y-66111495D01*
X61535529Y-65575166D01*
X61573481Y-65020635D01*
X61600316Y-64432413D01*
X61616866Y-63795013D01*
X61622957Y-63192219D01*
X61434178Y-63192219D01*
X61413325Y-64158534D01*
X61367796Y-65100116D01*
X61297732Y-65997486D01*
X61214382Y-66746858D01*
X61159602Y-67170167D01*
X60087021Y-68748525D01*
X59865979Y-69073049D01*
X59659684Y-69374474D01*
X59472938Y-69645887D01*
X59310547Y-69880373D01*
X59177315Y-70071017D01*
X59078045Y-70210904D01*
X59017541Y-70293120D01*
X59000271Y-70312715D01*
X58998079Y-70268634D01*
X58998117Y-70149485D01*
X59000224Y-69964832D01*
X59004242Y-69724240D01*
X59010012Y-69437273D01*
X59017375Y-69113498D01*
X59025800Y-68776690D01*
X59036452Y-68299965D01*
X59044969Y-67775461D01*
X59051412Y-67211564D01*
X59055843Y-66616663D01*
X59058321Y-65999143D01*
X59058909Y-65367392D01*
X59057667Y-64729798D01*
X59054655Y-64094748D01*
X59049935Y-63470628D01*
X59046609Y-63154598D01*
X58856333Y-63154598D01*
X58853393Y-63272770D01*
X58835561Y-63326315D01*
X58789319Y-63335263D01*
X58739917Y-63327094D01*
X58668234Y-63315657D01*
X58524761Y-63294741D01*
X58321632Y-63266042D01*
X58268122Y-63258616D01*
X55808804Y-63258616D01*
X55785050Y-63294022D01*
X55713701Y-63345502D01*
X55609063Y-63403452D01*
X55507227Y-63449481D01*
X55448500Y-63465522D01*
X55455251Y-63446366D01*
X55519398Y-63397450D01*
X55575500Y-63361271D01*
X55692625Y-63294956D01*
X55774676Y-63259363D01*
X55808804Y-63258616D01*
X58268122Y-63258616D01*
X58084739Y-63233167D01*
X55893000Y-63233167D01*
X55871833Y-63254334D01*
X55850667Y-63233167D01*
X55871833Y-63212000D01*
X55893000Y-63233167D01*
X58084739Y-63233167D01*
X58070982Y-63231258D01*
X57784947Y-63192085D01*
X57475661Y-63150220D01*
X57459333Y-63148024D01*
X57094554Y-63097922D01*
X56806110Y-63055744D01*
X56586192Y-63020042D01*
X56426990Y-62989364D01*
X56320693Y-62962262D01*
X56259491Y-62937286D01*
X56240425Y-62921804D01*
X56165540Y-62878055D01*
X55871833Y-62878055D01*
X55868582Y-62887089D01*
X55795505Y-62910704D01*
X55665443Y-62945186D01*
X55512758Y-62981871D01*
X55326909Y-63025571D01*
X55170728Y-63063633D01*
X55063325Y-63091320D01*
X55025924Y-63102572D01*
X54955771Y-63118906D01*
X54873959Y-63123403D01*
X54813674Y-63116336D01*
X54804802Y-63100754D01*
X54855496Y-63081632D01*
X54969633Y-63051715D01*
X55127317Y-63015157D01*
X55308655Y-62976110D01*
X55493751Y-62938725D01*
X55662711Y-62907156D01*
X55795641Y-62885553D01*
X55871833Y-62878055D01*
X56165540Y-62878055D01*
X56151947Y-62870114D01*
X56075742Y-62866557D01*
X55997840Y-62866619D01*
X55981532Y-62826766D01*
X55987365Y-62798487D01*
X56000082Y-62715141D01*
X55980084Y-62656376D01*
X55916328Y-62617777D01*
X55797773Y-62594933D01*
X55613374Y-62583430D01*
X55440106Y-62579774D01*
X55244800Y-62576176D01*
X55083221Y-62571119D01*
X54972548Y-62565284D01*
X54930108Y-62559552D01*
X54964695Y-62552536D01*
X55069187Y-62542751D01*
X55228911Y-62531323D01*
X55429194Y-62519379D01*
X55507374Y-62515222D01*
X55758369Y-62500139D01*
X55935071Y-62483921D01*
X56047854Y-62465045D01*
X56107090Y-62441987D01*
X56121428Y-62425049D01*
X56133067Y-62338379D01*
X56083833Y-62278599D01*
X55965122Y-62239538D01*
X55837542Y-62221369D01*
X55652739Y-62198272D01*
X55446948Y-62166396D01*
X55236009Y-62128991D01*
X55035763Y-62089302D01*
X54862052Y-62050579D01*
X54730716Y-62016068D01*
X54657597Y-61989016D01*
X54648344Y-61977575D01*
X54715163Y-61944978D01*
X54852122Y-61938248D01*
X55049142Y-61956172D01*
X55296142Y-61997539D01*
X55583044Y-62061133D01*
X55790702Y-62115061D01*
X56012511Y-62177574D01*
X56206949Y-62235614D01*
X56358549Y-62284313D01*
X56451848Y-62318804D01*
X56472251Y-62329560D01*
X56536743Y-62337741D01*
X56609834Y-62283499D01*
X56682568Y-62194489D01*
X56686712Y-62128230D01*
X56636154Y-62070926D01*
X56576696Y-61986348D01*
X56519566Y-61848800D01*
X56474437Y-61689661D01*
X56450985Y-61540308D01*
X56451103Y-61470781D01*
X56472318Y-61357810D01*
X56506505Y-61324048D01*
X56554445Y-61370399D01*
X56616920Y-61497767D01*
X56694711Y-61707055D01*
X56719563Y-61781125D01*
X56789474Y-61983918D01*
X56859024Y-62169603D01*
X56919570Y-62315977D01*
X56958201Y-62394080D01*
X57031323Y-62486222D01*
X57136884Y-62564369D01*
X57285679Y-62632692D01*
X57488503Y-62695358D01*
X57756149Y-62756538D01*
X58030833Y-62808392D01*
X58259842Y-62849135D01*
X58465317Y-62885983D01*
X58629953Y-62915812D01*
X58736445Y-62935495D01*
X58761083Y-62940271D01*
X58820333Y-62964109D01*
X58848445Y-63020014D01*
X58856246Y-63132345D01*
X58856333Y-63154598D01*
X59046609Y-63154598D01*
X59043568Y-62865827D01*
X59035615Y-62288730D01*
X59026136Y-61747727D01*
X59015192Y-61251203D01*
X59002844Y-60807546D01*
X58989154Y-60425143D01*
X58974182Y-60112382D01*
X58961480Y-59919954D01*
X58952291Y-59748594D01*
X58958669Y-59646716D01*
X58981931Y-59600346D01*
X58992094Y-59595263D01*
X59054675Y-59577316D01*
X59178249Y-59543059D01*
X59342061Y-59498218D01*
X59449000Y-59469167D01*
X59728977Y-59377253D01*
X60066413Y-59238628D01*
X60451140Y-59057524D01*
X60517917Y-59024126D01*
X60732806Y-58916419D01*
X60918897Y-58824317D01*
X61064167Y-58753673D01*
X61156593Y-58710343D01*
X61184667Y-58699468D01*
X61189059Y-58743121D01*
X61201261Y-58857393D01*
X61219806Y-59028744D01*
X61243231Y-59243637D01*
X61267946Y-59469200D01*
X61347237Y-60339661D01*
X61401277Y-61263303D01*
X61430209Y-62220649D01*
X61434178Y-63192219D01*
X61622957Y-63192219D01*
X61623961Y-63092948D01*
X61624362Y-62894500D01*
X61623086Y-62485166D01*
X61619056Y-62079246D01*
X61612598Y-61691071D01*
X61604036Y-61334974D01*
X61593698Y-61025288D01*
X61581907Y-60776343D01*
X61573372Y-60650834D01*
X61546363Y-60332863D01*
X61517153Y-60011435D01*
X61487056Y-59699043D01*
X61457387Y-59408176D01*
X61429460Y-59151327D01*
X61404591Y-58940986D01*
X61384094Y-58789646D01*
X61369284Y-58709796D01*
X61368927Y-58708587D01*
X61362301Y-58661288D01*
X61393780Y-58643648D01*
X61482177Y-58649970D01*
X61536700Y-58657784D01*
X61814497Y-58697159D01*
X62116038Y-58736074D01*
X62417253Y-58771738D01*
X62694071Y-58801360D01*
X62922422Y-58822151D01*
X63005000Y-58828008D01*
X63480829Y-58856652D01*
X63884582Y-58879904D01*
X64228643Y-58898279D01*
X64525397Y-58912289D01*
X64787229Y-58922449D01*
X65026524Y-58929271D01*
X65255664Y-58933271D01*
X65487037Y-58934960D01*
X65587333Y-58935104D01*
X66309329Y-58924989D01*
X67061112Y-58895803D01*
X67815214Y-58849282D01*
X68544166Y-58787164D01*
X69220498Y-58711186D01*
X69306994Y-58699866D01*
X69498431Y-58675731D01*
X69656476Y-58658435D01*
X69763873Y-58649689D01*
X69803127Y-58650683D01*
X69803369Y-58695625D01*
X69794245Y-58809860D01*
X69777193Y-58978706D01*
X69753645Y-59187480D01*
X69737761Y-59319578D01*
X69684490Y-59775661D01*
X69641469Y-60199743D01*
X69607782Y-60609033D01*
X69582509Y-61020741D01*
X69564733Y-61452075D01*
X69553536Y-61920246D01*
X69547999Y-62442464D01*
X69547016Y-62894500D01*
X69556185Y-63794685D01*
X69582893Y-64620428D01*
X69627681Y-65380234D01*
X69691092Y-66082605D01*
X69773670Y-66736044D01*
X69805582Y-66944661D01*
X69818913Y-67052068D01*
X70021568Y-67052068D01*
X70008387Y-66985649D01*
X69981976Y-66807324D01*
X69951920Y-66571682D01*
X69919660Y-66292274D01*
X69886636Y-65982649D01*
X69854292Y-65656356D01*
X69824067Y-65326944D01*
X69797404Y-65007964D01*
X69775744Y-64712964D01*
X69774459Y-64693667D01*
X69760269Y-64407909D01*
X69750398Y-64056923D01*
X69744650Y-63654886D01*
X69742833Y-63215973D01*
X69744752Y-62754363D01*
X69750212Y-62284232D01*
X69759021Y-61819757D01*
X69770982Y-61375115D01*
X69785903Y-60964482D01*
X69803589Y-60602035D01*
X69823846Y-60301951D01*
X69836494Y-60164000D01*
X69881407Y-59744040D01*
X69920154Y-59403637D01*
X69953425Y-59137959D01*
X69981909Y-58942173D01*
X70006295Y-58811448D01*
X70027272Y-58740952D01*
X70041798Y-58724667D01*
X70091615Y-58744246D01*
X70199356Y-58797607D01*
X70349340Y-58876684D01*
X70525890Y-58973411D01*
X70532428Y-58977057D01*
X70741755Y-59087976D01*
X70970875Y-59199668D01*
X71203523Y-59305237D01*
X71423432Y-59397789D01*
X71614337Y-59470429D01*
X71759971Y-59516259D01*
X71834471Y-59529000D01*
X71866085Y-59537696D01*
X71884199Y-59573849D01*
X71890360Y-59652558D01*
X72075499Y-59652558D01*
X72064275Y-59547180D01*
X72024898Y-59455523D01*
X71952778Y-59389749D01*
X71840462Y-59335176D01*
X71680498Y-59277120D01*
X71619833Y-59256037D01*
X71302189Y-59131295D01*
X70947793Y-58968513D01*
X70586322Y-58782145D01*
X70254871Y-58591198D01*
X69968833Y-58415957D01*
X69460833Y-58485414D01*
X69089783Y-58534925D01*
X68755058Y-58576337D01*
X68443912Y-58610362D01*
X68143597Y-58637710D01*
X67841369Y-58659092D01*
X67524481Y-58675219D01*
X67180186Y-58686802D01*
X66795738Y-58694551D01*
X66358390Y-58699178D01*
X65855397Y-58701392D01*
X65580278Y-58701813D01*
X65179039Y-58701496D01*
X64803793Y-58699926D01*
X64463016Y-58697231D01*
X64165182Y-58693537D01*
X63918766Y-58688970D01*
X63732243Y-58683657D01*
X63614088Y-58677726D01*
X63573032Y-58671810D01*
X63556326Y-58619302D01*
X63544941Y-58560198D01*
X63259000Y-58560198D01*
X63247534Y-58613316D01*
X63198217Y-58634331D01*
X63088670Y-58632317D01*
X63082252Y-58631851D01*
X62905505Y-58618834D01*
X62782876Y-57941500D01*
X62719590Y-57607247D01*
X62660343Y-57345468D01*
X62597751Y-57144743D01*
X62524436Y-56993653D01*
X62433016Y-56880779D01*
X62316110Y-56794701D01*
X62166336Y-56723999D01*
X61976315Y-56657255D01*
X61946667Y-56647763D01*
X61706653Y-56570723D01*
X61536844Y-56513259D01*
X61426531Y-56470015D01*
X61365007Y-56435634D01*
X61341564Y-56404759D01*
X61345494Y-56372033D01*
X61355153Y-56351846D01*
X61406946Y-56297382D01*
X61495487Y-56290805D01*
X61534751Y-56296944D01*
X61665022Y-56331009D01*
X61811422Y-56383884D01*
X61947263Y-56444133D01*
X62045853Y-56500319D01*
X62077484Y-56529510D01*
X62134699Y-56555121D01*
X62216835Y-56536043D01*
X62286029Y-56484392D01*
X62301402Y-56457854D01*
X62304675Y-56374844D01*
X62281036Y-56279549D01*
X62202457Y-56049016D01*
X62126184Y-55781832D01*
X62057349Y-55500855D01*
X62001084Y-55228942D01*
X61962519Y-54988950D01*
X61946787Y-54803737D01*
X61946667Y-54790197D01*
X61951020Y-54641184D01*
X61962724Y-54543371D01*
X61979747Y-54512136D01*
X61983081Y-54514617D01*
X62011347Y-54580025D01*
X62045899Y-54710779D01*
X62083300Y-54888121D01*
X62120112Y-55093289D01*
X62152899Y-55307524D01*
X62178223Y-55512066D01*
X62189987Y-55643963D01*
X62210957Y-55836184D01*
X62246097Y-55953830D01*
X62302096Y-56006660D01*
X62385643Y-56004434D01*
X62427536Y-55990598D01*
X62454301Y-55970280D01*
X62473638Y-55924818D01*
X62486912Y-55841836D01*
X62495485Y-55708960D01*
X62500723Y-55513815D01*
X62503455Y-55301721D01*
X62506510Y-55062633D01*
X62510527Y-54903194D01*
X62515991Y-54818388D01*
X62523387Y-54803196D01*
X62533198Y-54852603D01*
X62540841Y-54914667D01*
X62557604Y-55104852D01*
X62570667Y-55328113D01*
X62576719Y-55515064D01*
X62581602Y-55681738D01*
X62593357Y-55782782D01*
X62617034Y-55837213D01*
X62657684Y-55864050D01*
X62670595Y-55868519D01*
X62757153Y-55875930D01*
X62797162Y-55859105D01*
X62819130Y-55805468D01*
X62852551Y-55685399D01*
X62893197Y-55515670D01*
X62936839Y-55313051D01*
X62945001Y-55272817D01*
X62988812Y-55065612D01*
X63030510Y-54887874D01*
X63065837Y-54756476D01*
X63090537Y-54688289D01*
X63093601Y-54683950D01*
X63118450Y-54666459D01*
X63128424Y-54686812D01*
X63122167Y-54754222D01*
X63098327Y-54877903D01*
X63055547Y-55067069D01*
X63007832Y-55267367D01*
X62941000Y-55546163D01*
X62893052Y-55753792D01*
X62862798Y-55901341D01*
X62849048Y-55999896D01*
X62850615Y-56060543D01*
X62866308Y-56094368D01*
X62894939Y-56112459D01*
X62916392Y-56119916D01*
X62974885Y-56156061D01*
X63000615Y-56231649D01*
X63005000Y-56326259D01*
X63010369Y-56419092D01*
X63025415Y-56581285D01*
X63048551Y-56798283D01*
X63078188Y-57055530D01*
X63112739Y-57338473D01*
X63132000Y-57490003D01*
X63168098Y-57773632D01*
X63200208Y-58032633D01*
X63226790Y-58254044D01*
X63246306Y-58424903D01*
X63257219Y-58532246D01*
X63259000Y-58560198D01*
X63544941Y-58560198D01*
X63532552Y-58495886D01*
X63503376Y-58314868D01*
X63470464Y-58089554D01*
X63435481Y-57833250D01*
X63400092Y-57559263D01*
X63365964Y-57280900D01*
X63334762Y-57011466D01*
X63308152Y-56764269D01*
X63287798Y-56552613D01*
X63275367Y-56389807D01*
X63272524Y-56289157D01*
X63273299Y-56277189D01*
X63336400Y-56063386D01*
X63417617Y-55937668D01*
X63520187Y-55794524D01*
X63616968Y-55635615D01*
X63636055Y-55599733D01*
X63689541Y-55464064D01*
X63729373Y-55312687D01*
X63459465Y-55312687D01*
X63452968Y-55357248D01*
X63416573Y-55446000D01*
X63363860Y-55550483D01*
X63308406Y-55642239D01*
X63290859Y-55666084D01*
X63241961Y-55717986D01*
X63234429Y-55701715D01*
X63267124Y-55622320D01*
X63326701Y-55507121D01*
X63391495Y-55395900D01*
X63440498Y-55326124D01*
X63459465Y-55312687D01*
X63729373Y-55312687D01*
X63733640Y-55296472D01*
X63764730Y-55121049D01*
X63779189Y-54961889D01*
X63773396Y-54843085D01*
X63756534Y-54798250D01*
X63670787Y-54747753D01*
X63566243Y-54767056D01*
X63463277Y-54850897D01*
X63441346Y-54879633D01*
X63348526Y-55012469D01*
X63356680Y-54680424D01*
X63359230Y-54513110D01*
X63352950Y-54409319D01*
X63332125Y-54347961D01*
X63291039Y-54307951D01*
X63248782Y-54282273D01*
X63144477Y-54244365D01*
X63052008Y-54267024D01*
X62955661Y-54357508D01*
X62888583Y-54448649D01*
X62793333Y-54588521D01*
X62793333Y-54439277D01*
X62765958Y-54298782D01*
X62694570Y-54219527D01*
X62595277Y-54203136D01*
X62484186Y-54251234D01*
X62377404Y-54365445D01*
X62358533Y-54395429D01*
X62266867Y-54550790D01*
X62202017Y-54331874D01*
X62156701Y-54199406D01*
X62111247Y-54098479D01*
X62088795Y-54065390D01*
X62013349Y-54040242D01*
X61924924Y-54089783D01*
G37*
X61924924Y-54089783D02*
X61832552Y-54206948D01*
X61778247Y-54308346D01*
X61712872Y-54503807D01*
X61685824Y-54736638D01*
X61697771Y-55014630D01*
X61749382Y-55345573D01*
X61841326Y-55737259D01*
X61927087Y-56041805D01*
X61938406Y-56092239D01*
X61921092Y-56112460D01*
X61857418Y-56105311D01*
X61729659Y-56073640D01*
X61729332Y-56073555D01*
X61509953Y-56027574D01*
X61337371Y-56020574D01*
X61183163Y-56052673D01*
X61121314Y-56076044D01*
X60995628Y-56163705D01*
X60939637Y-56281793D01*
X60951924Y-56414782D01*
X61031073Y-56547148D01*
X61174862Y-56662896D01*
X61280776Y-56711957D01*
X61438959Y-56770389D01*
X61619462Y-56827356D01*
X61664643Y-56840120D01*
X61911156Y-56912958D01*
X62089082Y-56980079D01*
X62213257Y-57050247D01*
X62298512Y-57132227D01*
X62359681Y-57234783D01*
X62369488Y-57256589D01*
X62399211Y-57347878D01*
X62435826Y-57493907D01*
X62476090Y-57677185D01*
X62516759Y-57880223D01*
X62554590Y-58085531D01*
X62586340Y-58275619D01*
X62608765Y-58432997D01*
X62618624Y-58540176D01*
X62614666Y-58578778D01*
X62569679Y-58579246D01*
X62457781Y-58570264D01*
X62295945Y-58553882D01*
X62101141Y-58532150D01*
X61890343Y-58507116D01*
X61680521Y-58480830D01*
X61488647Y-58455342D01*
X61331694Y-58432699D01*
X61226633Y-58414951D01*
X61195250Y-58407395D01*
X61147328Y-58412715D01*
X61142333Y-58427279D01*
X61106386Y-58466649D01*
X61007914Y-58534468D01*
X60860975Y-58623077D01*
X60679626Y-58724818D01*
X60477925Y-58832032D01*
X60269928Y-58937061D01*
X60069693Y-59032246D01*
X59891277Y-59109928D01*
X59883648Y-59113027D01*
X59669310Y-59193642D01*
X59438935Y-59270593D01*
X59232440Y-59330810D01*
X59174564Y-59345196D01*
X59004530Y-59391642D01*
X58894413Y-59436525D01*
X58856333Y-59474116D01*
X58827559Y-59524641D01*
X58809201Y-59529000D01*
X58797894Y-59569510D01*
X58789809Y-59683879D01*
X58784825Y-59861365D01*
X58782819Y-60091227D01*
X58783671Y-60362723D01*
X58787257Y-60665111D01*
X58793456Y-60987650D01*
X58802147Y-61319598D01*
X58813206Y-61650213D01*
X58826513Y-61968754D01*
X58839827Y-62227750D01*
X58864481Y-62661667D01*
X58750320Y-62661667D01*
X58641594Y-62653084D01*
X58475367Y-62629838D01*
X58270871Y-62595682D01*
X58047338Y-62554368D01*
X57824000Y-62509650D01*
X57620088Y-62465281D01*
X57454833Y-62425013D01*
X57347468Y-62392600D01*
X57327520Y-62384011D01*
X57247530Y-62330607D01*
X57180495Y-62252918D01*
X57119265Y-62136888D01*
X57056690Y-61968458D01*
X56985618Y-61733573D01*
X56971821Y-61684756D01*
X56889479Y-61417821D01*
X56810258Y-61223037D01*
X56727463Y-61088458D01*
X56634397Y-61002140D01*
X56570209Y-60968282D01*
X56433863Y-60946725D01*
X56320985Y-60995826D01*
X56235506Y-61103861D01*
X56181359Y-61259106D01*
X56162476Y-61449836D01*
X56182788Y-61664328D01*
X56246228Y-61890856D01*
X56254031Y-61911040D01*
X56265575Y-61959457D01*
X56231060Y-61963374D01*
X56162416Y-61939689D01*
X55979672Y-61880580D01*
X55749068Y-61821115D01*
X55497595Y-61766749D01*
X55252243Y-61722936D01*
X55040003Y-61695128D01*
X54917062Y-61688055D01*
X54722398Y-61705765D01*
X54529125Y-61753319D01*
X54359002Y-61822241D01*
X54233789Y-61904055D01*
X54179713Y-61975271D01*
X54190020Y-62050397D01*
X54252218Y-62129638D01*
X54339712Y-62185354D01*
X54392101Y-62196000D01*
X54471023Y-62210319D01*
X54564084Y-62240076D01*
X54680014Y-62284153D01*
X54535544Y-62356493D01*
X54414960Y-62449661D01*
X54342669Y-62571471D01*
X54332735Y-62695756D01*
X54340075Y-62720213D01*
X54394442Y-62769583D01*
X54515282Y-62789237D01*
X54547588Y-62789954D01*
X54654149Y-62793569D01*
X54686549Y-62805790D01*
X54655224Y-62831817D01*
X54644167Y-62838069D01*
X54481395Y-62953646D01*
X54391579Y-63075842D01*
X54377889Y-63196703D01*
X54443497Y-63308277D01*
X54453099Y-63317319D01*
X54551234Y-63374588D01*
X54687600Y-63394290D01*
X54878942Y-63377966D01*
X54961667Y-63364087D01*
X55152167Y-63329284D01*
X55039656Y-63418809D01*
X54950453Y-63480057D01*
X54885421Y-63508142D01*
X54882235Y-63508334D01*
X54856303Y-63540772D01*
X54880687Y-63638916D01*
X54926495Y-63744592D01*
X54953539Y-63790305D01*
X54993089Y-63811569D01*
X55066355Y-63810648D01*
X55194546Y-63789806D01*
X55250937Y-63779243D01*
X55476509Y-63731287D01*
X55647079Y-63678962D01*
X55791986Y-63610477D01*
X55940568Y-63514041D01*
X55977667Y-63487167D01*
X56069908Y-63419984D01*
X56150174Y-63367695D01*
X56229334Y-63329888D01*
X56318257Y-63306154D01*
X56427813Y-63296080D01*
X56568870Y-63299259D01*
X56752297Y-63315277D01*
X56988964Y-63343727D01*
X57289739Y-63384196D01*
X57592682Y-63426179D01*
X57902486Y-63468994D01*
X58185258Y-63507743D01*
X58430058Y-63540953D01*
X58625948Y-63567152D01*
X58761991Y-63584867D01*
X58827248Y-63592627D01*
X58830789Y-63592854D01*
X58836182Y-63633925D01*
X58840523Y-63751963D01*
X58843862Y-63939277D01*
X58846248Y-64188175D01*
X58847730Y-64490965D01*
X58848355Y-64839956D01*
X58848174Y-65227455D01*
X58847235Y-65645770D01*
X58845588Y-66087210D01*
X58843280Y-66544083D01*
X58840361Y-67008697D01*
X58836880Y-67473360D01*
X58832886Y-67930380D01*
X58828427Y-68372066D01*
X58823553Y-68790725D01*
X58818312Y-69178666D01*
X58812754Y-69528197D01*
X58806927Y-69831626D01*
X58800880Y-70081261D01*
X58794662Y-70269411D01*
X58788323Y-70388383D01*
X58787517Y-70398084D01*
X58775804Y-70558625D01*
X58777498Y-70652072D01*
X58794705Y-70695239D01*
X58825951Y-70705000D01*
X58892976Y-70730452D01*
X58907079Y-70751404D01*
X58939869Y-70766496D01*
X59029921Y-70774535D01*
X59183375Y-70775502D01*
X59406372Y-70769380D01*
X59705049Y-70756149D01*
X59852524Y-70748574D01*
X60059512Y-70739591D01*
X60340986Y-70730385D01*
X60686764Y-70721154D01*
X61086668Y-70712093D01*
X61530516Y-70703399D01*
X62008128Y-70695269D01*
X62509325Y-70687897D01*
X63023925Y-70681481D01*
X63541749Y-70676217D01*
X63657240Y-70675215D01*
X66531979Y-70651090D01*
X66503338Y-71323628D01*
X66490713Y-71615115D01*
X66476514Y-71934962D01*
X66462337Y-72247648D01*
X66449778Y-72517657D01*
X66447811Y-72559011D01*
X66420927Y-73121856D01*
X66311047Y-73101661D01*
X66067224Y-73060124D01*
X65842308Y-73027841D01*
X65652526Y-73006640D01*
X65514102Y-72998348D01*
X65444840Y-73004132D01*
X65395734Y-73065541D01*
X65378110Y-73189100D01*
X65389350Y-73359463D01*
X65426834Y-73561285D01*
X65487943Y-73779218D01*
X65570058Y-73997919D01*
X65639556Y-74145018D01*
X65709683Y-74279911D01*
X65763506Y-74384072D01*
X65789839Y-74435851D01*
X65790212Y-74436632D01*
X65755307Y-74446119D01*
X65650558Y-74453269D01*
X65490766Y-74457534D01*
X65290736Y-74458365D01*
X65219016Y-74457799D01*
X64891990Y-74458078D01*
X64636873Y-74468088D01*
X64441273Y-74489715D01*
X64292795Y-74524845D01*
X64179048Y-74575362D01*
X64105868Y-74627160D01*
X64001708Y-74762417D01*
X63977290Y-74925139D01*
X64032613Y-75114337D01*
X64105992Y-75243044D01*
X64244691Y-75417673D01*
X64415050Y-75564368D01*
X64625003Y-75685816D01*
X64882483Y-75784705D01*
X65195424Y-75863723D01*
X65571761Y-75925557D01*
X66019427Y-75972896D01*
X66327444Y-75995579D01*
X66679687Y-76016687D01*
X66959059Y-76029564D01*
X67176970Y-76034107D01*
X67344825Y-76030211D01*
X67474030Y-76017769D01*
X67575994Y-75996678D01*
X67617905Y-75983694D01*
X67735911Y-75918065D01*
X67823788Y-75827090D01*
X67827828Y-75820249D01*
X67856220Y-75758608D01*
X67866573Y-75691859D01*
X67861013Y-75634673D01*
X67567712Y-75634673D01*
X67563886Y-75673449D01*
X67544448Y-75699496D01*
X67501157Y-75718110D01*
X67421834Y-75730447D01*
X67294304Y-75737661D01*
X67106389Y-75740908D01*
X66848079Y-75741346D01*
X66564767Y-75736864D01*
X66263799Y-75725478D01*
X65976131Y-75708763D01*
X65732715Y-75688293D01*
X65672000Y-75681542D01*
X65452710Y-75651003D01*
X65241325Y-75614270D01*
X65065579Y-75576540D01*
X64973500Y-75550601D01*
X64744904Y-75453430D01*
X64549462Y-75334229D01*
X64395745Y-75202616D01*
X64292322Y-75068210D01*
X64247765Y-74940632D01*
X64270643Y-74829499D01*
X64298924Y-74793457D01*
X64331546Y-74768920D01*
X64381033Y-74750864D01*
X64458925Y-74738516D01*
X64576764Y-74731104D01*
X64746088Y-74727854D01*
X64978440Y-74727993D01*
X65241922Y-74730281D01*
X65538166Y-74732747D01*
X65760854Y-74732536D01*
X65921072Y-74728912D01*
X66029908Y-74721143D01*
X66098448Y-74708494D01*
X66137780Y-74690231D01*
X66156544Y-74669723D01*
X66175535Y-74584831D01*
X66140717Y-74504563D01*
X66025243Y-74306781D01*
X65914908Y-74093289D01*
X65815608Y-73878649D01*
X65733240Y-73677420D01*
X65673703Y-73504164D01*
X65642893Y-73373440D01*
X65646708Y-73299811D01*
X65650652Y-73294571D01*
X65698918Y-73290902D01*
X65810307Y-73298516D01*
X65964268Y-73315783D01*
X66030841Y-73324702D01*
X66231895Y-73348772D01*
X66479420Y-73372491D01*
X66735274Y-73392413D01*
X66876326Y-73401079D01*
X67361846Y-73427098D01*
X67362205Y-73931562D01*
X67363372Y-74161638D01*
X67368311Y-74343522D01*
X67379745Y-74501681D01*
X67400394Y-74660581D01*
X67432979Y-74844688D01*
X67480222Y-75078468D01*
X67500613Y-75176032D01*
X67535841Y-75362129D01*
X67559099Y-75522018D01*
X67567712Y-75634673D01*
X67861013Y-75634673D01*
X67857551Y-75599070D01*
X67827819Y-75459307D01*
X67796770Y-75333415D01*
X67722088Y-75007787D01*
X67670456Y-74704374D01*
X67638547Y-74394094D01*
X67623037Y-74047870D01*
X67620172Y-73789279D01*
X67619301Y-73546792D01*
X67613269Y-73376295D01*
X67595722Y-73265121D01*
X67560303Y-73200603D01*
X67500656Y-73170072D01*
X67410424Y-73160862D01*
X67304585Y-73160334D01*
X67123762Y-73160334D01*
X67139002Y-72959250D01*
X67171695Y-72532079D01*
X67202876Y-72132718D01*
X67231771Y-71770625D01*
X67257606Y-71455259D01*
X67279604Y-71196076D01*
X67296992Y-71002534D01*
X67308887Y-70885031D01*
X67330672Y-70697047D01*
X67064604Y-70697047D01*
X67061745Y-70777137D01*
X67055029Y-70821417D01*
X67044525Y-70910644D01*
X67029357Y-71069151D01*
X67010833Y-71281765D01*
X66990263Y-71533308D01*
X66968953Y-71808607D01*
X66962851Y-71890334D01*
X66935856Y-72251500D01*
X66913600Y-72537040D01*
X66894908Y-72755787D01*
X66878602Y-72916576D01*
X66863507Y-73028240D01*
X66848446Y-73099612D01*
X66832244Y-73139525D01*
X66813723Y-73156815D01*
X66793738Y-73160334D01*
X66723436Y-73134475D01*
X66710101Y-73119512D01*
X66705365Y-73068186D01*
X66704457Y-72943365D01*
X66707138Y-72756123D01*
X66713172Y-72517534D01*
X66722319Y-72238670D01*
X66734344Y-71930607D01*
X66736892Y-71870679D01*
X66788912Y-70662667D01*
X66934367Y-70662667D01*
X67028414Y-70667138D01*
X67064604Y-70697047D01*
X67330672Y-70697047D01*
X67334630Y-70662895D01*
X67932065Y-70684248D01*
X68536633Y-70705061D01*
X69109464Y-70723216D01*
X69645309Y-70738625D01*
X70138919Y-70751200D01*
X70585046Y-70760855D01*
X70978439Y-70767500D01*
X71313849Y-70771049D01*
X71586027Y-70771414D01*
X71789723Y-70768507D01*
X71919689Y-70762240D01*
X71970675Y-70752526D01*
X71971148Y-70751724D01*
X72021096Y-70709343D01*
X72048460Y-70705000D01*
X72079961Y-70690493D01*
X72094733Y-70636248D01*
X72094748Y-70578000D01*
X71807923Y-70578000D01*
X71768577Y-70583197D01*
X71657479Y-70585163D01*
X71487479Y-70583996D01*
X71271425Y-70579794D01*
X71022167Y-70572657D01*
X70995468Y-70571771D01*
X70797113Y-70565645D01*
X70525225Y-70558062D01*
X70190919Y-70549295D01*
X69805311Y-70539615D01*
X69379519Y-70529294D01*
X68924656Y-70518603D01*
X68451840Y-70507813D01*
X67972185Y-70497197D01*
X67725167Y-70491865D01*
X66623835Y-70473003D01*
X65509421Y-70462939D01*
X64398136Y-70461567D01*
X63306193Y-70468778D01*
X62249806Y-70484465D01*
X61245187Y-70508521D01*
X60308550Y-70540838D01*
X60304188Y-70541016D01*
X60000013Y-70552546D01*
X59724159Y-70561406D01*
X59487745Y-70567370D01*
X59301887Y-70570208D01*
X59177703Y-70569691D01*
X59126309Y-70565592D01*
X59125780Y-70565224D01*
X59144195Y-70526718D01*
X59205871Y-70425336D01*
X59306226Y-70268059D01*
X59440680Y-70061864D01*
X59604651Y-69813731D01*
X59793557Y-69530639D01*
X60002817Y-69219566D01*
X60209055Y-68915134D01*
X61315093Y-67287806D01*
X61916630Y-67218122D01*
X62289082Y-67175900D01*
X62619475Y-67141022D01*
X62921792Y-67112800D01*
X63210014Y-67090545D01*
X63498123Y-67073571D01*
X63800101Y-67061190D01*
X64129930Y-67052713D01*
X64501592Y-67047454D01*
X64929068Y-67044723D01*
X65426341Y-67043835D01*
X65460333Y-67043825D01*
X66054005Y-67045398D01*
X66578639Y-67050938D01*
X67049808Y-67061239D01*
X67483082Y-67077094D01*
X67894030Y-67099296D01*
X68298225Y-67128638D01*
X68711236Y-67165914D01*
X69148634Y-67211916D01*
X69458876Y-67247519D01*
X69880252Y-67297167D01*
X70842830Y-68927000D01*
X71042029Y-69264649D01*
X71227414Y-69579591D01*
X71394650Y-69864407D01*
X71539399Y-70111680D01*
X71657325Y-70313991D01*
X71744092Y-70463922D01*
X71795364Y-70554055D01*
X71807923Y-70578000D01*
X72094748Y-70578000D01*
X72094762Y-70526179D01*
X72086363Y-70398084D01*
X72078401Y-70270037D01*
X72068548Y-70071763D01*
X72057322Y-69817668D01*
X72045241Y-69522157D01*
X72032824Y-69199637D01*
X72020587Y-68864512D01*
X72009050Y-68531188D01*
X71998731Y-68214071D01*
X71990147Y-67927567D01*
X71983816Y-67686080D01*
X71980257Y-67504017D01*
X71979667Y-67431171D01*
X71979667Y-67180426D01*
X72201917Y-67208683D01*
X72396659Y-67234853D01*
X72631219Y-67268602D01*
X72892634Y-67307831D01*
X73167941Y-67350439D01*
X73444178Y-67394327D01*
X73708382Y-67437395D01*
X73947592Y-67477542D01*
X74148844Y-67512669D01*
X74299176Y-67540675D01*
X74385626Y-67559460D01*
X74401130Y-67564978D01*
X74410547Y-67620025D01*
X74399666Y-67725495D01*
X74389274Y-67778130D01*
X74369068Y-67907036D01*
X74386187Y-67994069D01*
X74453282Y-68052348D01*
X74583005Y-68094994D01*
X74722179Y-68123365D01*
X75137722Y-68220940D01*
X75591373Y-68365748D01*
X76057652Y-68549124D01*
X76312062Y-68664136D01*
X76517553Y-68760682D01*
X76661958Y-68824413D01*
X76760293Y-68859620D01*
X76827575Y-68870595D01*
X76878820Y-68861628D01*
X76924983Y-68839303D01*
X77014082Y-68751651D01*
X77100262Y-68589286D01*
X77184075Y-68350298D01*
X77266072Y-68032775D01*
X77346806Y-67634808D01*
X77426827Y-67154486D01*
X77443565Y-67043167D01*
X77496107Y-66627553D01*
X77519729Y-66280115D01*
X77519602Y-66272875D01*
X77261989Y-66272875D01*
X77246235Y-66508242D01*
X77217121Y-66781658D01*
X77177260Y-67077613D01*
X77129268Y-67380599D01*
X77075760Y-67675109D01*
X77019351Y-67945635D01*
X76962656Y-68176668D01*
X76908291Y-68352700D01*
X76863855Y-68450750D01*
X76796552Y-68522479D01*
X76739690Y-68546000D01*
X76676121Y-68528539D01*
X76556179Y-68481483D01*
X76399356Y-68412827D01*
X76285582Y-68359785D01*
X75848813Y-68173288D01*
X75394478Y-68018875D01*
X74959906Y-67909063D01*
X74914798Y-67900222D01*
X74640191Y-67848130D01*
X74667050Y-67720815D01*
X74763871Y-67201370D01*
X74766804Y-67179294D01*
X74515777Y-67179294D01*
X74480224Y-67245043D01*
X74422725Y-67276000D01*
X74365526Y-67269586D01*
X74237781Y-67251644D01*
X74052533Y-67224125D01*
X73822823Y-67188978D01*
X73561693Y-67148155D01*
X73458313Y-67131778D01*
X73170392Y-67086727D01*
X72891737Y-67044446D01*
X72639949Y-67007507D01*
X72432631Y-66978481D01*
X72287384Y-66959939D01*
X72265417Y-66957513D01*
X71979667Y-66927470D01*
X71979667Y-66784235D01*
X71993796Y-66681111D01*
X72031533Y-66641846D01*
X72032583Y-66641842D01*
X72095215Y-66649944D01*
X72225481Y-66671831D01*
X72410739Y-66705053D01*
X72638344Y-66747160D01*
X72895653Y-66795702D01*
X73170022Y-66848226D01*
X73448807Y-66902283D01*
X73719364Y-66955422D01*
X73969050Y-67005193D01*
X74185221Y-67049144D01*
X74355232Y-67084825D01*
X74466440Y-67109786D01*
X74506025Y-67121247D01*
X74515777Y-67179294D01*
X74766804Y-67179294D01*
X74827385Y-66723402D01*
X74844473Y-66523774D01*
X74858096Y-66340613D01*
X74871695Y-66227175D01*
X74889940Y-66168648D01*
X74917504Y-66150218D01*
X74959058Y-66157074D01*
X74960022Y-66157355D01*
X75112299Y-66223319D01*
X75304690Y-66339377D01*
X75519627Y-66493649D01*
X75739539Y-66674252D01*
X75787620Y-66717042D01*
X75954354Y-66860085D01*
X76074248Y-66939247D01*
X76156902Y-66953761D01*
X76211914Y-66902862D01*
X76248881Y-66785781D01*
X76267076Y-66678735D01*
X76299541Y-66484977D01*
X76344645Y-66257678D01*
X76397626Y-66016867D01*
X76453723Y-65782570D01*
X76508173Y-65574816D01*
X76556215Y-65413631D01*
X76587941Y-65329285D01*
X76671748Y-65209617D01*
X76768841Y-65164729D01*
X76872576Y-65187113D01*
X76976313Y-65269260D01*
X77073411Y-65403661D01*
X77157227Y-65582808D01*
X77221120Y-65799193D01*
X77258448Y-66045307D01*
X77261766Y-66091063D01*
X77261989Y-66272875D01*
X77519602Y-66272875D01*
X77514594Y-65989516D01*
X77480869Y-65744419D01*
X77463480Y-65671538D01*
X77372308Y-65419487D01*
X77246702Y-65200021D01*
X77097633Y-65025753D01*
X76936069Y-64909296D01*
X76772979Y-64863263D01*
X76760321Y-64863000D01*
X76619436Y-64893247D01*
X76494904Y-64986866D01*
X76384378Y-65148179D01*
X76285506Y-65381503D01*
X76195941Y-65691161D01*
X76121577Y-66037476D01*
X76084050Y-66231782D01*
X76051672Y-66393309D01*
X76027890Y-66505260D01*
X76016155Y-66550840D01*
X76016137Y-66550866D01*
X75982008Y-66532335D01*
X75901270Y-66469129D01*
X75789716Y-66373791D01*
X75759857Y-66347295D01*
X75536143Y-66173689D01*
X75286941Y-66023433D01*
X75039846Y-65911411D01*
X74851395Y-65857245D01*
X74760956Y-65847783D01*
X74696706Y-65866183D01*
X74653017Y-65924250D01*
X74624263Y-66033791D01*
X74604818Y-66206610D01*
X74592006Y-66401479D01*
X74580663Y-66579202D01*
X74569224Y-66721720D01*
X74559324Y-66810308D01*
X74554577Y-66830030D01*
X74511152Y-66825529D01*
X74394721Y-66807109D01*
X74215475Y-66776552D01*
X73983605Y-66735642D01*
X73709305Y-66686164D01*
X73402764Y-66629902D01*
X73262597Y-66603885D01*
X72899245Y-66535746D01*
X72610638Y-66480229D01*
X72388152Y-66435196D01*
X72223161Y-66398507D01*
X72107040Y-66368024D01*
X72031165Y-66341607D01*
X71986910Y-66317118D01*
X71965652Y-66292416D01*
X71961425Y-66281167D01*
X71951870Y-66200028D01*
X71944899Y-66042526D01*
X71940378Y-65816917D01*
X71938175Y-65531460D01*
X71938157Y-65194414D01*
X71940191Y-64814038D01*
X71944145Y-64398589D01*
X71949884Y-63956326D01*
X71957278Y-63495509D01*
X71966192Y-63024395D01*
X71976494Y-62551242D01*
X71988051Y-62084310D01*
X72000730Y-61631856D01*
X72014399Y-61202140D01*
X72028924Y-60803419D01*
X72044174Y-60443953D01*
X72060014Y-60131999D01*
X72060450Y-60124281D01*
X72074599Y-59866876D01*
X72078358Y-59679403D01*
X72075499Y-59652558D01*
X71890360Y-59652558D01*
X71886116Y-59788924D01*
X71876797Y-59941750D01*
X71852817Y-60365444D01*
X71831859Y-60860102D01*
X71813928Y-61415823D01*
X71799025Y-62022705D01*
X71787153Y-62670845D01*
X71778313Y-63350342D01*
X71772509Y-64051294D01*
X71769742Y-64763798D01*
X71770015Y-65477953D01*
X71773330Y-66183855D01*
X71779689Y-66871605D01*
X71789095Y-67531298D01*
X71801549Y-68153034D01*
X71817055Y-68726910D01*
X71835615Y-69243024D01*
X71857230Y-69691474D01*
X71874472Y-69963901D01*
X71882411Y-70130169D01*
X71878651Y-70233103D01*
X71863657Y-70263218D01*
X71859858Y-70260235D01*
X71830628Y-70215644D01*
X71763394Y-70105901D01*
X71662889Y-69938946D01*
X71533844Y-69722716D01*
X71380989Y-69465151D01*
X71209057Y-69174189D01*
X71022780Y-68857768D01*
X70943607Y-68722943D01*
X70751937Y-68394576D01*
X70572936Y-68084577D01*
X70411396Y-67801494D01*
X70272107Y-67553871D01*
X70159863Y-67350256D01*
X70079455Y-67199194D01*
X70035676Y-67109231D01*
X70029712Y-67093110D01*
X70021568Y-67052068D01*
X69818913Y-67052068D01*
X69807737Y-67095864D01*
X69765153Y-67095252D01*
X69752764Y-67091645D01*
X69688337Y-67080709D01*
X69552995Y-67063910D01*
X69360174Y-67042701D01*
X69123308Y-67018534D01*
X68855834Y-66992861D01*
X68741167Y-66982304D01*
X67820498Y-66906607D01*
X66964623Y-66853562D01*
X66156885Y-66822720D01*
X65380622Y-66813633D01*
X64619176Y-66825852D01*
X63957500Y-66853373D01*
X63596681Y-66874888D01*
X63212848Y-66901992D01*
X62824379Y-66933061D01*
X62449649Y-66966469D01*
X62107035Y-67000589D01*
X61814916Y-67033797D01*
X61619143Y-67060228D01*
X61492598Y-67076472D01*
X61405793Y-67082259D01*
X61383107Y-67079329D01*
X61382135Y-67034023D01*
X61391007Y-66923402D01*
X61408022Y-66766030D01*
X61422945Y-66645108D01*
X61485627Y-66111495D01*
X61535529Y-65575166D01*
X61573481Y-65020635D01*
X61600316Y-64432413D01*
X61616866Y-63795013D01*
X61622957Y-63192219D01*
X61434178Y-63192219D01*
X61413325Y-64158534D01*
X61367796Y-65100116D01*
X61297732Y-65997486D01*
X61214382Y-66746858D01*
X61159602Y-67170167D01*
X60087021Y-68748525D01*
X59865979Y-69073049D01*
X59659684Y-69374474D01*
X59472938Y-69645887D01*
X59310547Y-69880373D01*
X59177315Y-70071017D01*
X59078045Y-70210904D01*
X59017541Y-70293120D01*
X59000271Y-70312715D01*
X58998079Y-70268634D01*
X58998117Y-70149485D01*
X59000224Y-69964832D01*
X59004242Y-69724240D01*
X59010012Y-69437273D01*
X59017375Y-69113498D01*
X59025800Y-68776690D01*
X59036452Y-68299965D01*
X59044969Y-67775461D01*
X59051412Y-67211564D01*
X59055843Y-66616663D01*
X59058321Y-65999143D01*
X59058909Y-65367392D01*
X59057667Y-64729798D01*
X59054655Y-64094748D01*
X59049935Y-63470628D01*
X59046609Y-63154598D01*
X58856333Y-63154598D01*
X58853393Y-63272770D01*
X58835561Y-63326315D01*
X58789319Y-63335263D01*
X58739917Y-63327094D01*
X58668234Y-63315657D01*
X58524761Y-63294741D01*
X58321632Y-63266042D01*
X58268122Y-63258616D01*
X55808804Y-63258616D01*
X55785050Y-63294022D01*
X55713701Y-63345502D01*
X55609063Y-63403452D01*
X55507227Y-63449481D01*
X55448500Y-63465522D01*
X55455251Y-63446366D01*
X55519398Y-63397450D01*
X55575500Y-63361271D01*
X55692625Y-63294956D01*
X55774676Y-63259363D01*
X55808804Y-63258616D01*
X58268122Y-63258616D01*
X58084739Y-63233167D01*
X55893000Y-63233167D01*
X55871833Y-63254334D01*
X55850667Y-63233167D01*
X55871833Y-63212000D01*
X55893000Y-63233167D01*
X58084739Y-63233167D01*
X58070982Y-63231258D01*
X57784947Y-63192085D01*
X57475661Y-63150220D01*
X57459333Y-63148024D01*
X57094554Y-63097922D01*
X56806110Y-63055744D01*
X56586192Y-63020042D01*
X56426990Y-62989364D01*
X56320693Y-62962262D01*
X56259491Y-62937286D01*
X56240425Y-62921804D01*
X56165540Y-62878055D01*
X55871833Y-62878055D01*
X55868582Y-62887089D01*
X55795505Y-62910704D01*
X55665443Y-62945186D01*
X55512758Y-62981871D01*
X55326909Y-63025571D01*
X55170728Y-63063633D01*
X55063325Y-63091320D01*
X55025924Y-63102572D01*
X54955771Y-63118906D01*
X54873959Y-63123403D01*
X54813674Y-63116336D01*
X54804802Y-63100754D01*
X54855496Y-63081632D01*
X54969633Y-63051715D01*
X55127317Y-63015157D01*
X55308655Y-62976110D01*
X55493751Y-62938725D01*
X55662711Y-62907156D01*
X55795641Y-62885553D01*
X55871833Y-62878055D01*
X56165540Y-62878055D01*
X56151947Y-62870114D01*
X56075742Y-62866557D01*
X55997840Y-62866619D01*
X55981532Y-62826766D01*
X55987365Y-62798487D01*
X56000082Y-62715141D01*
X55980084Y-62656376D01*
X55916328Y-62617777D01*
X55797773Y-62594933D01*
X55613374Y-62583430D01*
X55440106Y-62579774D01*
X55244800Y-62576176D01*
X55083221Y-62571119D01*
X54972548Y-62565284D01*
X54930108Y-62559552D01*
X54964695Y-62552536D01*
X55069187Y-62542751D01*
X55228911Y-62531323D01*
X55429194Y-62519379D01*
X55507374Y-62515222D01*
X55758369Y-62500139D01*
X55935071Y-62483921D01*
X56047854Y-62465045D01*
X56107090Y-62441987D01*
X56121428Y-62425049D01*
X56133067Y-62338379D01*
X56083833Y-62278599D01*
X55965122Y-62239538D01*
X55837542Y-62221369D01*
X55652739Y-62198272D01*
X55446948Y-62166396D01*
X55236009Y-62128991D01*
X55035763Y-62089302D01*
X54862052Y-62050579D01*
X54730716Y-62016068D01*
X54657597Y-61989016D01*
X54648344Y-61977575D01*
X54715163Y-61944978D01*
X54852122Y-61938248D01*
X55049142Y-61956172D01*
X55296142Y-61997539D01*
X55583044Y-62061133D01*
X55790702Y-62115061D01*
X56012511Y-62177574D01*
X56206949Y-62235614D01*
X56358549Y-62284313D01*
X56451848Y-62318804D01*
X56472251Y-62329560D01*
X56536743Y-62337741D01*
X56609834Y-62283499D01*
X56682568Y-62194489D01*
X56686712Y-62128230D01*
X56636154Y-62070926D01*
X56576696Y-61986348D01*
X56519566Y-61848800D01*
X56474437Y-61689661D01*
X56450985Y-61540308D01*
X56451103Y-61470781D01*
X56472318Y-61357810D01*
X56506505Y-61324048D01*
X56554445Y-61370399D01*
X56616920Y-61497767D01*
X56694711Y-61707055D01*
X56719563Y-61781125D01*
X56789474Y-61983918D01*
X56859024Y-62169603D01*
X56919570Y-62315977D01*
X56958201Y-62394080D01*
X57031323Y-62486222D01*
X57136884Y-62564369D01*
X57285679Y-62632692D01*
X57488503Y-62695358D01*
X57756149Y-62756538D01*
X58030833Y-62808392D01*
X58259842Y-62849135D01*
X58465317Y-62885983D01*
X58629953Y-62915812D01*
X58736445Y-62935495D01*
X58761083Y-62940271D01*
X58820333Y-62964109D01*
X58848445Y-63020014D01*
X58856246Y-63132345D01*
X58856333Y-63154598D01*
X59046609Y-63154598D01*
X59043568Y-62865827D01*
X59035615Y-62288730D01*
X59026136Y-61747727D01*
X59015192Y-61251203D01*
X59002844Y-60807546D01*
X58989154Y-60425143D01*
X58974182Y-60112382D01*
X58961480Y-59919954D01*
X58952291Y-59748594D01*
X58958669Y-59646716D01*
X58981931Y-59600346D01*
X58992094Y-59595263D01*
X59054675Y-59577316D01*
X59178249Y-59543059D01*
X59342061Y-59498218D01*
X59449000Y-59469167D01*
X59728977Y-59377253D01*
X60066413Y-59238628D01*
X60451140Y-59057524D01*
X60517917Y-59024126D01*
X60732806Y-58916419D01*
X60918897Y-58824317D01*
X61064167Y-58753673D01*
X61156593Y-58710343D01*
X61184667Y-58699468D01*
X61189059Y-58743121D01*
X61201261Y-58857393D01*
X61219806Y-59028744D01*
X61243231Y-59243637D01*
X61267946Y-59469200D01*
X61347237Y-60339661D01*
X61401277Y-61263303D01*
X61430209Y-62220649D01*
X61434178Y-63192219D01*
X61622957Y-63192219D01*
X61623961Y-63092948D01*
X61624362Y-62894500D01*
X61623086Y-62485166D01*
X61619056Y-62079246D01*
X61612598Y-61691071D01*
X61604036Y-61334974D01*
X61593698Y-61025288D01*
X61581907Y-60776343D01*
X61573372Y-60650834D01*
X61546363Y-60332863D01*
X61517153Y-60011435D01*
X61487056Y-59699043D01*
X61457387Y-59408176D01*
X61429460Y-59151327D01*
X61404591Y-58940986D01*
X61384094Y-58789646D01*
X61369284Y-58709796D01*
X61368927Y-58708587D01*
X61362301Y-58661288D01*
X61393780Y-58643648D01*
X61482177Y-58649970D01*
X61536700Y-58657784D01*
X61814497Y-58697159D01*
X62116038Y-58736074D01*
X62417253Y-58771738D01*
X62694071Y-58801360D01*
X62922422Y-58822151D01*
X63005000Y-58828008D01*
X63480829Y-58856652D01*
X63884582Y-58879904D01*
X64228643Y-58898279D01*
X64525397Y-58912289D01*
X64787229Y-58922449D01*
X65026524Y-58929271D01*
X65255664Y-58933271D01*
X65487037Y-58934960D01*
X65587333Y-58935104D01*
X66309329Y-58924989D01*
X67061112Y-58895803D01*
X67815214Y-58849282D01*
X68544166Y-58787164D01*
X69220498Y-58711186D01*
X69306994Y-58699866D01*
X69498431Y-58675731D01*
X69656476Y-58658435D01*
X69763873Y-58649689D01*
X69803127Y-58650683D01*
X69803369Y-58695625D01*
X69794245Y-58809860D01*
X69777193Y-58978706D01*
X69753645Y-59187480D01*
X69737761Y-59319578D01*
X69684490Y-59775661D01*
X69641469Y-60199743D01*
X69607782Y-60609033D01*
X69582509Y-61020741D01*
X69564733Y-61452075D01*
X69553536Y-61920246D01*
X69547999Y-62442464D01*
X69547016Y-62894500D01*
X69556185Y-63794685D01*
X69582893Y-64620428D01*
X69627681Y-65380234D01*
X69691092Y-66082605D01*
X69773670Y-66736044D01*
X69805582Y-66944661D01*
X69818913Y-67052068D01*
X70021568Y-67052068D01*
X70008387Y-66985649D01*
X69981976Y-66807324D01*
X69951920Y-66571682D01*
X69919660Y-66292274D01*
X69886636Y-65982649D01*
X69854292Y-65656356D01*
X69824067Y-65326944D01*
X69797404Y-65007964D01*
X69775744Y-64712964D01*
X69774459Y-64693667D01*
X69760269Y-64407909D01*
X69750398Y-64056923D01*
X69744650Y-63654886D01*
X69742833Y-63215973D01*
X69744752Y-62754363D01*
X69750212Y-62284232D01*
X69759021Y-61819757D01*
X69770982Y-61375115D01*
X69785903Y-60964482D01*
X69803589Y-60602035D01*
X69823846Y-60301951D01*
X69836494Y-60164000D01*
X69881407Y-59744040D01*
X69920154Y-59403637D01*
X69953425Y-59137959D01*
X69981909Y-58942173D01*
X70006295Y-58811448D01*
X70027272Y-58740952D01*
X70041798Y-58724667D01*
X70091615Y-58744246D01*
X70199356Y-58797607D01*
X70349340Y-58876684D01*
X70525890Y-58973411D01*
X70532428Y-58977057D01*
X70741755Y-59087976D01*
X70970875Y-59199668D01*
X71203523Y-59305237D01*
X71423432Y-59397789D01*
X71614337Y-59470429D01*
X71759971Y-59516259D01*
X71834471Y-59529000D01*
X71866085Y-59537696D01*
X71884199Y-59573849D01*
X71890360Y-59652558D01*
X72075499Y-59652558D01*
X72064275Y-59547180D01*
X72024898Y-59455523D01*
X71952778Y-59389749D01*
X71840462Y-59335176D01*
X71680498Y-59277120D01*
X71619833Y-59256037D01*
X71302189Y-59131295D01*
X70947793Y-58968513D01*
X70586322Y-58782145D01*
X70254871Y-58591198D01*
X69968833Y-58415957D01*
X69460833Y-58485414D01*
X69089783Y-58534925D01*
X68755058Y-58576337D01*
X68443912Y-58610362D01*
X68143597Y-58637710D01*
X67841369Y-58659092D01*
X67524481Y-58675219D01*
X67180186Y-58686802D01*
X66795738Y-58694551D01*
X66358390Y-58699178D01*
X65855397Y-58701392D01*
X65580278Y-58701813D01*
X65179039Y-58701496D01*
X64803793Y-58699926D01*
X64463016Y-58697231D01*
X64165182Y-58693537D01*
X63918766Y-58688970D01*
X63732243Y-58683657D01*
X63614088Y-58677726D01*
X63573032Y-58671810D01*
X63556326Y-58619302D01*
X63544941Y-58560198D01*
X63259000Y-58560198D01*
X63247534Y-58613316D01*
X63198217Y-58634331D01*
X63088670Y-58632317D01*
X63082252Y-58631851D01*
X62905505Y-58618834D01*
X62782876Y-57941500D01*
X62719590Y-57607247D01*
X62660343Y-57345468D01*
X62597751Y-57144743D01*
X62524436Y-56993653D01*
X62433016Y-56880779D01*
X62316110Y-56794701D01*
X62166336Y-56723999D01*
X61976315Y-56657255D01*
X61946667Y-56647763D01*
X61706653Y-56570723D01*
X61536844Y-56513259D01*
X61426531Y-56470015D01*
X61365007Y-56435634D01*
X61341564Y-56404759D01*
X61345494Y-56372033D01*
X61355153Y-56351846D01*
X61406946Y-56297382D01*
X61495487Y-56290805D01*
X61534751Y-56296944D01*
X61665022Y-56331009D01*
X61811422Y-56383884D01*
X61947263Y-56444133D01*
X62045853Y-56500319D01*
X62077484Y-56529510D01*
X62134699Y-56555121D01*
X62216835Y-56536043D01*
X62286029Y-56484392D01*
X62301402Y-56457854D01*
X62304675Y-56374844D01*
X62281036Y-56279549D01*
X62202457Y-56049016D01*
X62126184Y-55781832D01*
X62057349Y-55500855D01*
X62001084Y-55228942D01*
X61962519Y-54988950D01*
X61946787Y-54803737D01*
X61946667Y-54790197D01*
X61951020Y-54641184D01*
X61962724Y-54543371D01*
X61979747Y-54512136D01*
X61983081Y-54514617D01*
X62011347Y-54580025D01*
X62045899Y-54710779D01*
X62083300Y-54888121D01*
X62120112Y-55093289D01*
X62152899Y-55307524D01*
X62178223Y-55512066D01*
X62189987Y-55643963D01*
X62210957Y-55836184D01*
X62246097Y-55953830D01*
X62302096Y-56006660D01*
X62385643Y-56004434D01*
X62427536Y-55990598D01*
X62454301Y-55970280D01*
X62473638Y-55924818D01*
X62486912Y-55841836D01*
X62495485Y-55708960D01*
X62500723Y-55513815D01*
X62503455Y-55301721D01*
X62506510Y-55062633D01*
X62510527Y-54903194D01*
X62515991Y-54818388D01*
X62523387Y-54803196D01*
X62533198Y-54852603D01*
X62540841Y-54914667D01*
X62557604Y-55104852D01*
X62570667Y-55328113D01*
X62576719Y-55515064D01*
X62581602Y-55681738D01*
X62593357Y-55782782D01*
X62617034Y-55837213D01*
X62657684Y-55864050D01*
X62670595Y-55868519D01*
X62757153Y-55875930D01*
X62797162Y-55859105D01*
X62819130Y-55805468D01*
X62852551Y-55685399D01*
X62893197Y-55515670D01*
X62936839Y-55313051D01*
X62945001Y-55272817D01*
X62988812Y-55065612D01*
X63030510Y-54887874D01*
X63065837Y-54756476D01*
X63090537Y-54688289D01*
X63093601Y-54683950D01*
X63118450Y-54666459D01*
X63128424Y-54686812D01*
X63122167Y-54754222D01*
X63098327Y-54877903D01*
X63055547Y-55067069D01*
X63007832Y-55267367D01*
X62941000Y-55546163D01*
X62893052Y-55753792D01*
X62862798Y-55901341D01*
X62849048Y-55999896D01*
X62850615Y-56060543D01*
X62866308Y-56094368D01*
X62894939Y-56112459D01*
X62916392Y-56119916D01*
X62974885Y-56156061D01*
X63000615Y-56231649D01*
X63005000Y-56326259D01*
X63010369Y-56419092D01*
X63025415Y-56581285D01*
X63048551Y-56798283D01*
X63078188Y-57055530D01*
X63112739Y-57338473D01*
X63132000Y-57490003D01*
X63168098Y-57773632D01*
X63200208Y-58032633D01*
X63226790Y-58254044D01*
X63246306Y-58424903D01*
X63257219Y-58532246D01*
X63259000Y-58560198D01*
X63544941Y-58560198D01*
X63532552Y-58495886D01*
X63503376Y-58314868D01*
X63470464Y-58089554D01*
X63435481Y-57833250D01*
X63400092Y-57559263D01*
X63365964Y-57280900D01*
X63334762Y-57011466D01*
X63308152Y-56764269D01*
X63287798Y-56552613D01*
X63275367Y-56389807D01*
X63272524Y-56289157D01*
X63273299Y-56277189D01*
X63336400Y-56063386D01*
X63417617Y-55937668D01*
X63520187Y-55794524D01*
X63616968Y-55635615D01*
X63636055Y-55599733D01*
X63689541Y-55464064D01*
X63729373Y-55312687D01*
X63459465Y-55312687D01*
X63452968Y-55357248D01*
X63416573Y-55446000D01*
X63363860Y-55550483D01*
X63308406Y-55642239D01*
X63290859Y-55666084D01*
X63241961Y-55717986D01*
X63234429Y-55701715D01*
X63267124Y-55622320D01*
X63326701Y-55507121D01*
X63391495Y-55395900D01*
X63440498Y-55326124D01*
X63459465Y-55312687D01*
X63729373Y-55312687D01*
X63733640Y-55296472D01*
X63764730Y-55121049D01*
X63779189Y-54961889D01*
X63773396Y-54843085D01*
X63756534Y-54798250D01*
X63670787Y-54747753D01*
X63566243Y-54767056D01*
X63463277Y-54850897D01*
X63441346Y-54879633D01*
X63348526Y-55012469D01*
X63356680Y-54680424D01*
X63359230Y-54513110D01*
X63352950Y-54409319D01*
X63332125Y-54347961D01*
X63291039Y-54307951D01*
X63248782Y-54282273D01*
X63144477Y-54244365D01*
X63052008Y-54267024D01*
X62955661Y-54357508D01*
X62888583Y-54448649D01*
X62793333Y-54588521D01*
X62793333Y-54439277D01*
X62765958Y-54298782D01*
X62694570Y-54219527D01*
X62595277Y-54203136D01*
X62484186Y-54251234D01*
X62377404Y-54365445D01*
X62358533Y-54395429D01*
X62266867Y-54550790D01*
X62202017Y-54331874D01*
X62156701Y-54199406D01*
X62111247Y-54098479D01*
X62088795Y-54065390D01*
X62013349Y-54040242D01*
X61924924Y-54089783D01*
M02*
