M48
; DRILL file {KiCad 7.0.6} date Sun Jul 16 22:52:43 2023
; FORMAT={-:-/ absolute / inch / decimal}
; #@! TF.CreationDate,2023-07-16T22:52:43-04:00
; #@! TF.GenerationSoftware,Kicad,Pcbnew,7.0.6
; #@! TF.FileFunction,NonPlated,1,2,NPTH
FMAT,2
INCH
; #@! TA.AperFunction,NonPlated,NPTH,ComponentDrill
T1C0.0197
; #@! TA.AperFunction,NonPlated,NPTH,ComponentDrill
T2C0.0354
; #@! TA.AperFunction,NonPlated,NPTH,ComponentDrill
T3C0.0669
; #@! TA.AperFunction,NonPlated,NPTH,ComponentDrill
T4C0.0748
; #@! TA.AperFunction,NonPlated,NPTH,ComponentDrill
T5C0.1181
; #@! TA.AperFunction,NonPlated,NPTH,ComponentDrill
T6C0.1575
%
G90
G05
T1
X5.8105Y-2.3805
X5.8105Y-2.41
X5.8105Y-2.4395
X5.8105Y-3.1205
X5.8105Y-3.15
X5.8105Y-3.1795
X5.8105Y-3.8805
X5.8105Y-3.91
X5.8105Y-3.9395
X5.8105Y-4.6305
X5.8105Y-4.66
X5.8105Y-4.6895
X5.8695Y-2.3805
X5.8695Y-2.41
X5.8695Y-2.4395
X5.8695Y-3.1205
X5.8695Y-3.15
X5.8695Y-3.1795
X5.8695Y-3.8805
X5.8695Y-3.91
X5.8695Y-3.9395
X5.8695Y-4.6305
X5.8695Y-4.66
X5.8695Y-4.6895
T2
X0.8176Y-1.8569
X0.9357Y-1.8569
X10.7446Y-1.8569
X10.8628Y-1.8569
T3
X0.6594Y-5.2667
X0.8594Y-5.6131
X1.3982Y-5.3208
X1.4965Y-2.1561
X1.4965Y-2.908
X1.4965Y-3.6561
X1.4965Y-4.4041
X1.7664Y-5.1645
X1.8965Y-2.1561
X1.8965Y-2.908
X1.8965Y-3.6561
X1.8965Y-4.4041
X2.2445Y-2.0576
X2.2445Y-2.8096
X2.2445Y-3.5576
X2.2445Y-4.3096
X2.2445Y-5.0616
X2.6445Y-2.0576
X2.6445Y-2.8096
X2.6445Y-3.5576
X2.6445Y-4.3096
X2.6445Y-5.0616
X2.9925Y-1.9596
X2.9925Y-2.7112
X2.9925Y-3.4631
X2.9925Y-4.2112
X2.9925Y-4.9592
X3.3925Y-1.9596
X3.3925Y-2.7112
X3.3925Y-3.4631
X3.3925Y-4.2112
X3.3925Y-4.9592
X3.7406Y-2.0576
X3.7406Y-2.8057
X3.7406Y-3.5576
X3.7406Y-4.3096
X3.7406Y-5.0576
X4.1406Y-2.0576
X4.1406Y-2.8057
X4.1406Y-3.5576
X4.1406Y-4.3096
X4.1406Y-5.0576
X4.4886Y-2.412
X4.4886Y-3.1561
X4.4886Y-3.912
X4.4886Y-4.66
X4.8886Y-2.412
X4.8886Y-3.1561
X4.8886Y-3.912
X4.8886Y-4.66
X5.2366Y-2.412
X5.2366Y-3.1561
X5.2366Y-3.912
X5.2386Y-4.66
X5.6366Y-2.412
X5.6366Y-3.1561
X5.6366Y-3.912
X5.6386Y-4.66
X6.0646Y-2.4027
X6.0646Y-3.1467
X6.0646Y-3.9027
X6.0666Y-4.6507
X6.4646Y-2.4027
X6.4646Y-3.1467
X6.4646Y-3.9027
X6.4666Y-4.6507
X6.7917Y-2.412
X6.7917Y-3.1561
X6.7917Y-3.912
X6.7917Y-4.66
X7.1917Y-2.412
X7.1917Y-3.1561
X7.1917Y-3.912
X7.1917Y-4.66
X7.5398Y-2.0576
X7.5398Y-2.8057
X7.5398Y-3.5576
X7.5398Y-4.3096
X7.5398Y-5.0576
X7.9398Y-2.0576
X7.9398Y-2.8057
X7.9398Y-3.5576
X7.9398Y-4.3096
X7.9398Y-5.0576
X8.2878Y-1.9596
X8.2878Y-2.7112
X8.2878Y-3.4631
X8.2878Y-4.2112
X8.2878Y-4.9592
X8.6878Y-1.9596
X8.6878Y-2.7112
X8.6878Y-3.4631
X8.6878Y-4.2112
X8.6878Y-4.9592
X9.0358Y-2.0576
X9.0358Y-2.8096
X9.0358Y-3.5576
X9.0358Y-4.3096
X9.0358Y-5.0616
X9.4358Y-2.0576
X9.4358Y-2.8096
X9.4358Y-3.5576
X9.4358Y-4.3096
X9.4358Y-5.0616
X9.7839Y-2.1561
X9.7839Y-2.908
X9.7839Y-3.6561
X9.7839Y-4.4041
X9.9136Y-5.1643
X10.1839Y-2.1561
X10.1839Y-2.908
X10.1839Y-3.6561
X10.1839Y-4.4041
X10.2818Y-5.3206
X10.8207Y-5.6135
X11.0207Y-5.2671
T4
X0.6512Y-5.2524
X0.8677Y-5.6274
X1.383Y-5.3273
X1.4799Y-2.1561
X1.4799Y-2.908
X1.4799Y-3.6561
X1.4799Y-4.4041
X1.7816Y-5.1581
X1.913Y-2.1561
X1.913Y-2.908
X1.913Y-3.6561
X1.913Y-4.4041
X2.228Y-2.0576
X2.228Y-2.8096
X2.228Y-3.5576
X2.228Y-4.3096
X2.228Y-5.0616
X2.661Y-2.0576
X2.661Y-2.8096
X2.661Y-3.5576
X2.661Y-4.3096
X2.661Y-5.0616
X2.976Y-1.9596
X2.976Y-2.7112
X2.976Y-3.4631
X2.976Y-4.2112
X2.976Y-4.9592
X3.4091Y-1.9596
X3.4091Y-2.7112
X3.4091Y-3.4631
X3.4091Y-4.2112
X3.4091Y-4.9592
X3.724Y-2.0576
X3.724Y-2.8057
X3.724Y-3.5576
X3.724Y-4.3096
X3.724Y-5.0576
X4.1571Y-2.0576
X4.1571Y-2.8057
X4.1571Y-3.5576
X4.1571Y-4.3096
X4.1571Y-5.0576
X4.472Y-2.412
X4.472Y-3.1561
X4.472Y-3.912
X4.472Y-4.66
X4.9051Y-2.412
X4.9051Y-3.1561
X4.9051Y-3.912
X4.9051Y-4.66
X5.2201Y-2.412
X5.2201Y-3.1561
X5.2201Y-3.912
X5.222Y-4.66
X5.6531Y-2.412
X5.6531Y-3.1561
X5.6531Y-3.912
X5.6551Y-4.66
X6.0481Y-2.4027
X6.0481Y-3.1467
X6.0481Y-3.9027
X6.0501Y-4.6507
X6.4812Y-2.4027
X6.4812Y-3.1467
X6.4812Y-3.9027
X6.4831Y-4.6507
X6.7752Y-2.412
X6.7752Y-3.1561
X6.7752Y-3.912
X6.7752Y-4.66
X7.2083Y-2.412
X7.2083Y-3.1561
X7.2083Y-3.912
X7.2083Y-4.66
X7.5232Y-2.0576
X7.5232Y-2.8057
X7.5232Y-3.5576
X7.5232Y-4.3096
X7.5232Y-5.0576
X7.9563Y-2.0576
X7.9563Y-2.8057
X7.9563Y-3.5576
X7.9563Y-4.3096
X7.9563Y-5.0576
X8.2713Y-1.9596
X8.2713Y-2.7112
X8.2713Y-3.4631
X8.2713Y-4.2112
X8.2713Y-4.9592
X8.7043Y-1.9596
X8.7043Y-2.7112
X8.7043Y-3.4631
X8.7043Y-4.2112
X8.7043Y-4.9592
X9.0193Y-2.0576
X9.0193Y-2.8096
X9.0193Y-3.5576
X9.0193Y-4.3096
X9.0193Y-5.0616
X9.4524Y-2.0576
X9.4524Y-2.8096
X9.4524Y-3.5576
X9.4524Y-4.3096
X9.4524Y-5.0616
X9.7673Y-2.1561
X9.7673Y-2.908
X9.7673Y-3.6561
X9.7673Y-4.4041
X9.8984Y-5.1579
X10.2004Y-2.1561
X10.2004Y-2.908
X10.2004Y-3.6561
X10.2004Y-4.4041
X10.297Y-5.3271
X10.8124Y-5.6278
X11.029Y-5.2528
T5
X0.5349Y-5.3423
X0.5583Y-5.5561
X0.7711Y-5.26
X0.9827Y-5.4265
X1.4051Y-5.2092
X1.458Y-5.4537
X1.4996Y-2.3017
X1.4996Y-3.0537
X1.4996Y-3.8017
X1.4996Y-4.5498
X1.5465Y-2.0561
X1.5465Y-2.808
X1.5465Y-3.5561
X1.5465Y-4.3041
X1.5962Y-5.0195
X1.673Y-5.4565
X1.6965Y-2.3883
X1.6965Y-3.1403
X1.6965Y-3.8883
X1.6965Y-4.6364
X1.7965Y-1.9561
X1.7965Y-2.708
X1.7965Y-3.4561
X1.7965Y-4.2041
X2.2476Y-2.2033
X2.2476Y-2.9553
X2.2476Y-3.7033
X2.2476Y-4.4553
X2.2476Y-5.2072
X2.2945Y-1.9576
X2.2945Y-2.7096
X2.2945Y-3.4576
X2.2945Y-4.2096
X2.2945Y-4.9616
X2.4445Y-2.2899
X2.4445Y-3.0419
X2.4445Y-3.7899
X2.4445Y-4.5419
X2.4445Y-5.2939
X2.5445Y-1.8576
X2.5445Y-2.6096
X2.5445Y-3.3576
X2.5445Y-4.1096
X2.5445Y-4.8616
X2.9957Y-2.1053
X2.9957Y-2.8569
X2.9957Y-3.6088
X2.9957Y-4.3569
X2.9957Y-5.1049
X3.0425Y-1.8596
X3.0425Y-2.6112
X3.0425Y-3.3631
X3.0425Y-4.1112
X3.0425Y-4.8592
X3.1925Y-2.1919
X3.1925Y-2.9435
X3.1925Y-3.6954
X3.1925Y-4.4435
X3.1925Y-5.1915
X3.2925Y-1.7596
X3.2925Y-2.5112
X3.2925Y-3.2631
X3.2925Y-4.0112
X3.2925Y-4.7592
X3.7437Y-2.2033
X3.7437Y-2.9513
X3.7437Y-3.7033
X3.7437Y-4.4553
X3.7437Y-5.2033
X3.7906Y-1.9576
X3.7906Y-2.7057
X3.7906Y-3.4576
X3.7906Y-4.2096
X3.7906Y-4.9576
X3.9406Y-2.2899
X3.9406Y-3.038
X3.9406Y-3.7899
X3.9406Y-4.5419
X3.9406Y-5.2899
X4.0406Y-1.8576
X4.0406Y-2.6057
X4.0406Y-3.3576
X4.0406Y-4.1096
X4.0406Y-4.8576
X4.4917Y-2.5576
X4.4917Y-3.3017
X4.4917Y-4.0576
X4.4917Y-4.8057
X4.5386Y-2.312
X4.5386Y-3.0561
X4.5386Y-3.812
X4.5386Y-4.56
X4.6886Y-2.6443
X4.6886Y-3.3883
X4.6886Y-4.1443
X4.6886Y-4.8923
X4.7886Y-2.212
X4.7886Y-2.9561
X4.7886Y-3.712
X4.7886Y-4.46
X5.2398Y-2.5576
X5.2398Y-3.3017
X5.2398Y-4.0576
X5.2417Y-4.8057
X5.2866Y-2.312
X5.2866Y-3.0561
X5.2866Y-3.812
X5.2886Y-4.56
X5.4366Y-2.6443
X5.4366Y-3.3883
X5.4366Y-4.1443
X5.4386Y-4.8923
X5.5366Y-2.212
X5.5366Y-2.9561
X5.5366Y-3.712
X5.5386Y-4.46
X6.0678Y-2.5483
X6.0678Y-3.2924
X6.0678Y-4.0483
X6.0698Y-4.7964
X6.1146Y-2.3027
X6.1146Y-3.0467
X6.1146Y-3.8027
X6.1166Y-4.5507
X6.2646Y-2.6349
X6.2646Y-3.379
X6.2646Y-4.1349
X6.2666Y-4.883
X6.3646Y-2.2027
X6.3646Y-2.9467
X6.3646Y-3.7027
X6.3666Y-4.4507
X6.7949Y-2.5576
X6.7949Y-3.3017
X6.7949Y-4.0576
X6.7949Y-4.8057
X6.8417Y-2.312
X6.8417Y-3.0561
X6.8417Y-3.812
X6.8417Y-4.56
X6.9917Y-2.6443
X6.9917Y-3.3883
X6.9917Y-4.1443
X6.9917Y-4.8923
X7.0917Y-2.212
X7.0917Y-2.9561
X7.0917Y-3.712
X7.0917Y-4.46
X7.5429Y-2.2033
X7.5429Y-2.9513
X7.5429Y-3.7033
X7.5429Y-4.4553
X7.5429Y-5.2033
X7.5898Y-1.9576
X7.5898Y-2.7057
X7.5898Y-3.4576
X7.5898Y-4.2096
X7.5898Y-4.9576
X7.7398Y-2.2899
X7.7398Y-3.038
X7.7398Y-3.7899
X7.7398Y-4.5419
X7.7398Y-5.2899
X7.8398Y-1.8576
X7.8398Y-2.6057
X7.8398Y-3.3576
X7.8398Y-4.1096
X7.8398Y-4.8576
X8.2909Y-2.1053
X8.2909Y-2.8569
X8.2909Y-3.6088
X8.2909Y-4.3569
X8.2909Y-5.1049
X8.3378Y-1.8596
X8.3378Y-2.6112
X8.3378Y-3.3631
X8.3378Y-4.1112
X8.3378Y-4.8592
X8.4878Y-2.1919
X8.4878Y-2.9435
X8.4878Y-3.6954
X8.4878Y-4.4435
X8.4878Y-5.1915
X8.5878Y-1.7596
X8.5878Y-2.5112
X8.5878Y-3.2631
X8.5878Y-4.0112
X8.5878Y-4.7592
X9.039Y-2.2033
X9.039Y-2.9553
X9.039Y-3.7033
X9.039Y-4.4553
X9.039Y-5.2072
X9.0858Y-1.9576
X9.0858Y-2.7096
X9.0858Y-3.4576
X9.0858Y-4.2096
X9.0858Y-4.9616
X9.2358Y-2.2899
X9.2358Y-3.0419
X9.2358Y-3.7899
X9.2358Y-4.5419
X9.2358Y-5.2939
X9.3358Y-1.8576
X9.3358Y-2.6096
X9.3358Y-3.3576
X9.3358Y-4.1096
X9.3358Y-4.8616
X9.787Y-2.3017
X9.787Y-3.0537
X9.787Y-3.8017
X9.787Y-4.5498
X9.8339Y-2.0561
X9.8339Y-2.808
X9.8339Y-3.5561
X9.8339Y-4.3041
X9.8596Y-5.2997
X9.9839Y-2.3883
X9.9839Y-3.1403
X9.9839Y-3.8883
X9.9839Y-4.6364
X9.9987Y-5.0918
X10.0069Y-5.4563
X10.0839Y-1.9561
X10.0839Y-2.708
X10.0839Y-3.4561
X10.0839Y-4.2041
X10.2679Y-5.0974
X10.7591Y-5.5202
X10.7975Y-5.2537
X10.9484Y-5.6836
X11.1219Y-5.5565
T6
X0.7594Y-5.4399
X1.5823Y-5.2427
X1.6965Y-2.1561
X1.6965Y-2.908
X1.6965Y-3.6561
X1.6965Y-4.4041
X2.4445Y-2.0576
X2.4445Y-2.8096
X2.4445Y-3.5576
X2.4445Y-4.3096
X2.4445Y-5.0616
X3.1925Y-1.9596
X3.1925Y-2.7112
X3.1925Y-3.4631
X3.1925Y-4.2112
X3.1925Y-4.9592
X3.9406Y-2.0576
X3.9406Y-2.8057
X3.9406Y-3.5576
X3.9406Y-4.3096
X3.9406Y-5.0576
X4.6886Y-2.412
X4.6886Y-3.1561
X4.6886Y-3.912
X4.6886Y-4.66
X5.4366Y-2.412
X5.4366Y-3.1561
X5.4366Y-3.912
X5.4386Y-4.66
X6.2646Y-2.4027
X6.2646Y-3.1467
X6.2646Y-3.9027
X6.2666Y-4.6507
X6.9917Y-2.412
X6.9917Y-3.1561
X6.9917Y-3.912
X6.9917Y-4.66
X7.7398Y-2.0576
X7.7398Y-2.8057
X7.7398Y-3.5576
X7.7398Y-4.3096
X7.7398Y-5.0576
X8.4878Y-1.9596
X8.4878Y-2.7112
X8.4878Y-3.4631
X8.4878Y-4.2112
X8.4878Y-4.9592
X9.2358Y-2.0576
X9.2358Y-2.8096
X9.2358Y-3.5576
X9.2358Y-4.3096
X9.2358Y-5.0616
X9.9839Y-2.1561
X9.9839Y-2.908
X9.9839Y-3.6561
X9.9839Y-4.4041
X10.0977Y-5.2425
X10.9207Y-5.4403
T0
M30
