<?xml version="1.0" encoding="UTF-8" standalone="no"?>
<!-- Created with Inkscape (http://www.inkscape.org/) -->

<svg
   xmlns:dc="http://purl.org/dc/elements/1.1/"
   xmlns:cc="http://creativecommons.org/ns#"
   xmlns:rdf="http://www.w3.org/1999/02/22-rdf-syntax-ns#"
   xmlns:svg="http://www.w3.org/2000/svg"
   xmlns="http://www.w3.org/2000/svg"
   xmlns:sodipodi="http://sodipodi.sourceforge.net/DTD/sodipodi-0.dtd"
   xmlns:inkscape="http://www.inkscape.org/namespaces/inkscape"
   width="172.19913mm"
   height="138.5985mm"
   viewBox="0 0 172.19912 138.5985"
   version="1.1"
   id="svg6136"
   inkscape:version="0.92.5 (2060ec1f9f, 2020-04-08)"
   sodipodi:docname="Comparison1_2.svg">
  <defs
     id="defs6130">
    <filter
       inkscape:collect="always"
       style="color-interpolation-filters:sRGB"
       id="filter19445">
      <feBlend
         inkscape:collect="always"
         mode="darken"
         in2="BackgroundImage"
         id="feBlend19447" />
    </filter>
  </defs>
  <sodipodi:namedview
     id="base"
     pagecolor="#ffffff"
     bordercolor="#666666"
     borderopacity="1.0"
     inkscape:pageopacity="0.0"
     inkscape:pageshadow="2"
     inkscape:zoom="0.98994949"
     inkscape:cx="412.35661"
     inkscape:cy="312.25098"
     inkscape:document-units="mm"
     inkscape:current-layer="layer2"
     showgrid="false"
     fit-margin-top="0"
     fit-margin-left="0"
     fit-margin-right="0"
     fit-margin-bottom="0"
     inkscape:window-width="1920"
     inkscape:window-height="1019"
     inkscape:window-x="0"
     inkscape:window-y="27"
     inkscape:window-maximized="1" />
  <metadata
     id="metadata6133">
    <rdf:RDF>
      <cc:Work
         rdf:about="">
        <dc:format>image/svg+xml</dc:format>
        <dc:type
           rdf:resource="http://purl.org/dc/dcmitype/StillImage" />
        <dc:title></dc:title>
      </cc:Work>
    </rdf:RDF>
  </metadata>
  <g
     inkscape:label="Sofle1"
     inkscape:groupmode="layer"
     id="layer1"
     transform="translate(9.1171249,4.2296266)">
    <g
       transform="translate(9.54038,-8.5117323)"
       style="display:inline;stroke:#f0b900;stroke-width:1;stroke-miterlimit:4;stroke-dasharray:none;stroke-opacity:1"
       id="g6088">
      <path
         sodipodi:nodetypes="ccccccccccccccc"
         inkscape:connector-curvature="0"
         id="path4233-9-4-0"
         d="m 138.88318,101.59527 -18.71307,1.50553 -0.1361,0.0192 -0.13147,0.0348 -0.12563,0.0497 -0.1186,0.0638 -0.11034,0.0772 -0.10088,0.0899 -0.0902,0.10176 -0.0783,0.11293 -8.48532,13.93637 -0.0858,0.12234 -0.0996,0.1089 -0.1118,0.0946 -0.12242,0.0794 -0.13147,0.0633 -0.13893,0.0463 -0.14481,0.0284 -0.14912,0.01 h -15.7237 l -0.809846,-0.0275 -0.805208,-0.0821 -0.797809,-0.1364 -0.787647,-0.1903 -15.49113,-4.30321 -0.45932,-0.11924 -0.462698,-0.10353 -0.465672,-0.0877 -0.468241,-0.0719 -0.470407,-0.056 -0.472168,-0.0401 -0.473526,-0.0241 -0.474478,-0.008 H 56.4289 l -0.487706,0.0116 -0.48577,0.0348 -0.483023,0.0578 -0.479463,0.0806 -0.47509,0.10332 -0.469907,0.12586 -0.463909,0.14822 -0.4571,0.17045 -32.07889,12.84092 -0.202227,0.0603 -0.204668,0.0222 -0.20246,-0.0143 -0.195604,-0.0491 -0.184097,-0.0823 -0.167942,-0.11397 -0.147138,-0.14399 -0.121684,-0.1724 -13.4744384,-23.34251 -0.04515,-0.0865 -2.301304,-4.903483 -0.1283356,-0.294302 -0.1116676,-0.300242 -0.094842,-0.305472 -0.077858,-0.30999 -0.060716,-0.313798 -0.043417,-0.316895 -0.025959,-0.319283 -0.00834,-0.320958 0.0282,-17.5832 0.023764,-0.232254 0.067442,-0.216282 0.1064905,-0.195689 0.1409096,-0.170474 0.1706991,-0.140636 0.1958594,-0.106177 0.2163903,-0.0671 0.2322916,-0.02339 H 24.450785 l 0.210762,-0.02085 0.200741,-0.061 0.18508,-0.09881 0.163776,-0.134286 0.134286,-0.163776 0.09881,-0.18508 0.061,-0.200741 0.02085,-0.210762 V 18.535599 l 0.02513,-0.249279 0.07207,-0.232179 0.114041,-0.210105 0.151037,-0.183059 0.183057,-0.151037 0.210106,-0.114042 0.232178,-0.07207 0.249279,-0.02513 72.220545,8.1e-5 1.104577,0.0222 1.10235,0.06652 1.09878,0.110735 1.0939,0.154842 35.56498,5.765363 0.20167,0.05163 0.18475,0.08468 0.16475,0.114134 0.1417,0.139982 0.11556,0.162224 0.0864,0.180864 0.0541,0.195899 0.0188,0.20733 0.027,75.891388 -0.0209,0.21981 -0.0604,0.20627 -0.096,0.1886 -0.12791,0.16682 -0.15598,0.14093 -0.18026,0.11092 -0.20073,0.0768 -0.21741,0.0386 h 2e-5"
         style="display:inline;fill:none;stroke:#f0b900;stroke-width:1;stroke-linecap:butt;stroke-linejoin:miter;stroke-miterlimit:4;stroke-dasharray:none;stroke-opacity:1"
         inkscape:original-d="m 62763.753,41623.007 -8015.348,644.863 -3593.563,5902.098 H 44067.848 L 36626.857,46102.97 h -7518.992 l -13714.989,5489.996 -5510.9926,-9546.991 -1132,-2411.997 12.6531,-7888.727 H 17717.607 V 8468.9203 l 29791.968,0.033 15243.256,2471.0527 z" />
      <path
         d="m 27.96033,23.180337 h 13.99794 m 0,0 v 14.00048 m 0,0 H 27.96033 m 0,0 v -14.00048"
         style="fill:none;fill-opacity:0.08333327;stroke:#f0b900;stroke-width:1;stroke-linecap:round;stroke-linejoin:round;stroke-miterlimit:4;stroke-dasharray:none;stroke-opacity:1"
         id="path736-6"
         inkscape:connector-curvature="0" />
      <path
         d="m 46.95953,20.780037 h 14.00048 m 0,0 v 14.00048 m 0,0 H 46.95953 m 0,0 v -14.00048"
         style="fill:none;fill-opacity:0.08333327;stroke:#f0b900;stroke-width:1;stroke-linecap:round;stroke-linejoin:round;stroke-miterlimit:4;stroke-dasharray:none;stroke-opacity:1"
         id="path720-7"
         inkscape:connector-curvature="0" />
      <path
         d="m 66.06032,19.390622 h 13.99794 m 0,0 v 14.00048 m 0,0 H 66.06032 m 0,0 v -14.00048"
         style="opacity:1;fill:none;fill-opacity:0.08333327;stroke:#f0b900;stroke-width:1;stroke-linecap:round;stroke-linejoin:round;stroke-miterlimit:4;stroke-dasharray:none;stroke-opacity:1"
         id="path704-8"
         inkscape:connector-curvature="0" />
      <path
         d="M 85.05952,20.780003 H 99.06 m 0,0 v 14.00048 m 0,0 H 85.05952 m 0,0 v -14.00048"
         style="opacity:1;fill:none;fill-opacity:0.08333327;stroke:#f0b900;stroke-width:1;stroke-linecap:round;stroke-linejoin:round;stroke-miterlimit:4;stroke-dasharray:none;stroke-opacity:1"
         id="path688-1"
         inkscape:connector-curvature="0" />
      <path
         d="m 104.16032,25.580603 h 13.99794 m 0,0 v 14.00048 m 0,0 h -13.99794 m 0,0 v -14.00048"
         style="opacity:1;fill:none;fill-opacity:0.08333327;stroke:#f0b900;stroke-width:1;stroke-linecap:round;stroke-linejoin:round;stroke-miterlimit:4;stroke-dasharray:none;stroke-opacity:1"
         id="path672-9"
         inkscape:connector-curvature="0" />
      <path
         d="M 123.15952,27.081744 H 137.16 m 0,0 v 14.00048 m 0,0 h -14.00048 m 0,0 v -14.00048"
         style="opacity:1;fill:none;fill-opacity:0.08333327;stroke:#f0b900;stroke-width:1;stroke-linecap:round;stroke-linejoin:round;stroke-miterlimit:4;stroke-dasharray:none;stroke-opacity:1"
         id="path656-5"
         inkscape:connector-curvature="0" />
      <path
         d="M 123.15952,45.981884 H 137.16 m 0,0 v 13.99794 m 0,0 h -14.00048 m 0,0 v -13.99794"
         style="opacity:1;fill:none;fill-opacity:0.08333327;stroke:#f0b900;stroke-width:1;stroke-linecap:round;stroke-linejoin:round;stroke-miterlimit:4;stroke-dasharray:none;stroke-opacity:1"
         id="path560-0"
         inkscape:connector-curvature="0" />
      <path
         d="m 104.16032,44.480743 h 13.99794 m 0,0 v 14.00048 m 0,0 h -13.99794 m 0,0 v -14.00048"
         style="opacity:1;fill:none;fill-opacity:0.08333327;stroke:#f0b900;stroke-width:1;stroke-linecap:round;stroke-linejoin:round;stroke-miterlimit:4;stroke-dasharray:none;stroke-opacity:1"
         id="path576-6"
         inkscape:connector-curvature="0" />
      <path
         d="M 85.05952,39.781743 H 99.06 m 0,0 v 14.00048 m 0,0 H 85.05952 m 0,0 v -14.00048"
         style="opacity:1;fill:none;fill-opacity:0.08333327;stroke:#f0b900;stroke-width:1;stroke-linecap:round;stroke-linejoin:round;stroke-miterlimit:4;stroke-dasharray:none;stroke-opacity:1"
         id="path592-7"
         inkscape:connector-curvature="0" />
      <path
         d="m 66.06032,38.481262 h 13.99794 m 0,0 v 14.00048 m 0,0 H 66.06032 m 0,0 v -14.00048"
         style="opacity:1;fill:none;fill-opacity:0.08333327;stroke:#f0b900;stroke-width:1;stroke-linecap:round;stroke-linejoin:round;stroke-miterlimit:4;stroke-dasharray:none;stroke-opacity:1"
         id="path608-3"
         inkscape:connector-curvature="0" />
      <path
         d="M 46.95952,39.880803 H 60.96 m 0,0 v 14.00048 m 0,0 H 46.95952 m 0,0 v -14.00048"
         style="opacity:1;fill:none;fill-opacity:0.08333327;stroke:#f0b900;stroke-width:1;stroke-linecap:round;stroke-linejoin:round;stroke-miterlimit:4;stroke-dasharray:none;stroke-opacity:1"
         id="path624-5"
         inkscape:connector-curvature="0" />
      <path
         d="m 27.96032,42.281104 h 13.99794 m 0,0 v 14.00048 m 0,0 H 27.96032 m 0,0 v -14.00048"
         style="opacity:1;fill:none;fill-opacity:0.08333327;stroke:#f0b900;stroke-width:1;stroke-linecap:round;stroke-linejoin:round;stroke-miterlimit:4;stroke-dasharray:none;stroke-opacity:1"
         id="path640-3"
         inkscape:connector-curvature="0" />
      <path
         d="m 27.96032,61.280304 h 13.99794 m 0,0 v 14.00048 m 0,0 H 27.96032 m 0,0 v -14.00048"
         style="opacity:1;fill:none;fill-opacity:0.08333327;stroke:#f0b900;stroke-width:1;stroke-linecap:round;stroke-linejoin:round;stroke-miterlimit:4;stroke-dasharray:none;stroke-opacity:1"
         id="path544-8"
         inkscape:connector-curvature="0" />
      <path
         d="M 46.95952,58.880003 H 60.96 m 0,0 v 14.00048 m 0,0 H 46.95952 m 0,0 v -14.00048"
         style="opacity:1;fill:none;fill-opacity:0.08333327;stroke:#f0b900;stroke-width:1;stroke-linecap:round;stroke-linejoin:round;stroke-miterlimit:4;stroke-dasharray:none;stroke-opacity:1"
         id="path528-4"
         inkscape:connector-curvature="0" />
      <path
         d="m 66.06032,57.582062 h 13.99794 m 0,0 v 13.99794 m 0,0 H 66.06032 m 0,0 v -13.99794"
         style="opacity:1;fill:none;fill-opacity:0.08333327;stroke:#f0b900;stroke-width:1;stroke-linecap:round;stroke-linejoin:round;stroke-miterlimit:4;stroke-dasharray:none;stroke-opacity:1"
         id="path512-8"
         inkscape:connector-curvature="0" />
      <path
         d="M 85.05952,58.880003 H 99.06 m 0,0 v 14.00048 m 0,0 H 85.05952 m 0,0 v -14.00048"
         style="opacity:1;fill:none;fill-opacity:0.08333327;stroke:#f0b900;stroke-width:1;stroke-linecap:round;stroke-linejoin:round;stroke-miterlimit:4;stroke-dasharray:none;stroke-opacity:1"
         id="path496-4"
         inkscape:connector-curvature="0" />
      <path
         d="m 104.16032,63.680603 h 13.99794 m 0,0 v 14.00048 m 0,0 h -13.99794 m 0,0 v -14.00048"
         style="opacity:1;fill:none;fill-opacity:0.08333327;stroke:#f0b900;stroke-width:1;stroke-linecap:round;stroke-linejoin:round;stroke-miterlimit:4;stroke-dasharray:none;stroke-opacity:1"
         id="path480-8"
         inkscape:connector-curvature="0" />
      <path
         d="M 123.15952,65.181744 H 137.16 m 0,0 v 14.00048 m 0,0 h -14.00048 m 0,0 v -14.00048"
         style="opacity:1;fill:none;fill-opacity:0.08333327;stroke:#f0b900;stroke-width:1;stroke-linecap:round;stroke-linejoin:round;stroke-miterlimit:4;stroke-dasharray:none;stroke-opacity:1"
         id="path464-2"
         inkscape:connector-curvature="0" />
      <path
         d="m 27.96032,80.282044 h 13.99794 m 0,0 v 13.99794 m 0,0 H 27.96032 m 0,0 v -13.99794"
         style="opacity:1;fill:none;fill-opacity:0.08333327;stroke:#f0b900;stroke-width:1;stroke-linecap:round;stroke-linejoin:round;stroke-miterlimit:4;stroke-dasharray:none;stroke-opacity:1"
         id="path448-9"
         inkscape:connector-curvature="0" />
      <path
         d="M 46.95952,77.980803 H 60.96 m 0,0 v 14.00048 m 0,0 H 46.95952 m 0,0 v -14.00048"
         style="opacity:1;fill:none;fill-opacity:0.08333327;stroke:#f0b900;stroke-width:1;stroke-linecap:round;stroke-linejoin:round;stroke-miterlimit:4;stroke-dasharray:none;stroke-opacity:1"
         id="path432-1"
         inkscape:connector-curvature="0" />
      <path
         d="m 66.06032,76.581265 h 13.99794 m 0,0 v 14.00048 m 0,0 H 66.06032 m 0,0 v -14.00048"
         style="opacity:1;fill:none;fill-opacity:0.08333327;stroke:#f0b900;stroke-width:1;stroke-linecap:round;stroke-linejoin:round;stroke-miterlimit:4;stroke-dasharray:none;stroke-opacity:1"
         id="path416-6"
         inkscape:connector-curvature="0" />
      <path
         d="M 85.05952,77.980803 H 99.06 m 0,0 v 14.00048 m 0,0 H 85.05952 m 0,0 v -14.00048"
         style="opacity:1;fill:none;fill-opacity:0.08333327;stroke:#f0b900;stroke-width:1;stroke-linecap:round;stroke-linejoin:round;stroke-miterlimit:4;stroke-dasharray:none;stroke-opacity:1"
         id="path400-6"
         inkscape:connector-curvature="0" />
      <path
         d="m 104.16032,82.679803 h 13.99794 m 0,0 v 14.00048 m 0,0 h -13.99794 m 0,0 v -14.00048"
         style="opacity:1;fill:none;fill-opacity:0.08333327;stroke:#f0b900;stroke-width:1;stroke-linecap:round;stroke-linejoin:round;stroke-miterlimit:4;stroke-dasharray:none;stroke-opacity:1"
         id="path384-1"
         inkscape:connector-curvature="0" />
      <path
         d="m 123.21032,84.180944 h 13.99794 m 0,0 v 14.00048 m 0,0 h -13.99794 m 0,0 v -14.00048"
         style="opacity:1;fill:none;fill-opacity:0.08333327;stroke:#f0b900;stroke-width:1;stroke-linecap:round;stroke-linejoin:round;stroke-miterlimit:4;stroke-dasharray:none;stroke-opacity:1"
         id="path368-0"
         inkscape:connector-curvature="0" />
      <path
         d="m 94.65818,101.0821 h 14.00048 m 0,0 v 13.99794 m 0,0 H 94.65818 m 0,0 V 101.0821"
         style="opacity:1;fill:none;fill-opacity:0.08333327;stroke:#f0b900;stroke-width:1;stroke-linecap:round;stroke-linejoin:round;stroke-miterlimit:4;stroke-dasharray:none;stroke-opacity:1"
         id="path288-9"
         inkscape:connector-curvature="0" />
      <path
         d="M 75.55992,96.931743 H 89.5604 m 0,0 v 14.000477 m 0,0 H 75.55992 m 0,0 V 96.931743"
         style="opacity:1;fill:none;fill-opacity:0.08333327;stroke:#f0b900;stroke-width:1;stroke-linecap:round;stroke-linejoin:round;stroke-miterlimit:4;stroke-dasharray:none;stroke-opacity:1"
         id="path304-6"
         inkscape:connector-curvature="0" />
      <path
         d="M 56.45912,96.931743 H 70.4596 m 0,0 v 14.000477 m 0,0 H 56.45912 m 0,0 V 96.931743"
         style="opacity:1;fill:none;fill-opacity:0.08333327;stroke:#f0b900;stroke-width:1;stroke-linecap:round;stroke-linejoin:round;stroke-miterlimit:4;stroke-dasharray:none;stroke-opacity:1"
         id="path320-8"
         inkscape:connector-curvature="0" />
      <path
         d="m 33.766758,101.65106 13.52296,-3.624578 m 0,0 3.62204,13.522958 m 0,0 -13.52296,3.62458 m 0,0 -3.62204,-13.52296"
         style="opacity:1;fill:none;fill-opacity:0.08333327;stroke:#f0b900;stroke-width:1;stroke-linecap:round;stroke-linejoin:round;stroke-miterlimit:4;stroke-dasharray:none;stroke-opacity:1"
         id="path336-3"
         inkscape:connector-curvature="0" />
      <path
         d="m 22.981919,100.6884 7.00024,12.12596 m 0,0 -12.12596,6.9977 m 0,0 -7.00024,-12.12342 m 0,0 12.12596,-7.00024"
         style="opacity:1;fill:none;fill-opacity:0.08333327;stroke:#f0b900;stroke-width:1;stroke-linecap:round;stroke-linejoin:round;stroke-miterlimit:4;stroke-dasharray:none;stroke-opacity:1"
         id="path352-4"
         inkscape:connector-curvature="0" />
      <path
         d="M 6.5124548,78.546911 H 22.173232 V 90.532734 H 6.5124548 V 78.546911"
         style="display:inline;fill:none;fill-opacity:0.08333327;stroke:#f0b900;stroke-width:1;stroke-miterlimit:4;stroke-dasharray:none;stroke-opacity:1"
         id="rect24304"
         inkscape:connector-curvature="0" />
    </g>
  </g>
  <g
     inkscape:groupmode="layer"
     id="layer2"
     inkscape:label="Sofle2"
     transform="translate(21.275405,12.8843)">
    <path
       style="display:inline;fill:none;stroke:#1200e3;stroke-width:1;stroke-linecap:butt;stroke-linejoin:miter;stroke-miterlimit:4;stroke-dasharray:none;stroke-opacity:0.88178914;filter:url(#filter19445)"
       d="m 22.467445,3.666816 20.106402,-0.0022 -2.65e-4,-2.497146 18.999498,-0.0022 -2.7e-4,-2.499696 h 18.00098 v 2.501881 h 18.9992 l 1.5e-4,8.999521 h 38.00065 v 75.99904 L 98.57285,96.165989 H 42.073097 L 24.572497,104.16699 7.572785,114.16432 -6.925478,89.165749 1.573329,84.164504 1.572797,61.119198 H 22.47211 Z"
       id="path8013"
       inkscape:connector-curvature="0"
       sodipodi:nodetypes="cccccccccccccccccccc"
       inkscape:label="edge" />
    <path
       style="display:inline;fill:none;stroke:#1200e3;stroke-width:1;stroke-linecap:butt;stroke-linejoin:miter;stroke-miterlimit:4;stroke-dasharray:none;stroke-opacity:0.88178914"
       d="M 25.345093,6.113151 H 39.34298 V 20.113575 H 25.345093 Z"
       id="path2266"
       inkscape:connector-curvature="0" />
    <path
       style="display:inline;fill:none;stroke:#1200e3;stroke-width:1;stroke-linecap:butt;stroke-linejoin:miter;stroke-miterlimit:4;stroke-dasharray:none;stroke-opacity:0.88178914"
       d="M 44.346759,3.6138 H 58.34465 V 17.614225 H 44.346759 Z"
       id="path2266-3"
       inkscape:connector-curvature="0" />
    <path
       style="display:inline;fill:none;stroke:#1200e3;stroke-width:1;stroke-linecap:butt;stroke-linejoin:miter;stroke-miterlimit:4;stroke-dasharray:none;stroke-opacity:0.88178914"
       d="M 63.34335,1.12461 H 77.34123 V 15.125036 H 63.34335 Z"
       id="path2266-3-6"
       inkscape:connector-curvature="0" />
    <path
       style="display:inline;fill:none;stroke:#1200e3;stroke-width:1;stroke-linecap:butt;stroke-linejoin:miter;stroke-miterlimit:4;stroke-dasharray:none;stroke-opacity:0.88178914"
       d="M 82.34247,3.6138 H 96.34035 V 17.614225 H 82.34247 Z"
       id="path2266-3-7"
       inkscape:connector-curvature="0" />
    <path
       style="display:inline;fill:none;stroke:#1200e3;stroke-width:1;stroke-linecap:butt;stroke-linejoin:miter;stroke-miterlimit:4;stroke-dasharray:none;stroke-opacity:0.88178914"
       d="m 101.34667,12.612985 h 13.99788 v 14.000426 h -13.99788 z"
       id="path2266-3-5"
       inkscape:connector-curvature="0" />
    <path
       style="display:inline;fill:none;stroke:#1200e3;stroke-width:1;stroke-linecap:butt;stroke-linejoin:miter;stroke-miterlimit:4;stroke-dasharray:none;stroke-opacity:0.88178914"
       d="m 120.34326,12.612985 h 13.99788 v 14.000426 h -13.99788 z"
       id="path2266-3-5-3"
       inkscape:connector-curvature="0" />
    <path
       style="display:inline;fill:none;stroke:#1200e3;stroke-width:1;stroke-linecap:butt;stroke-linejoin:miter;stroke-miterlimit:4;stroke-dasharray:none;stroke-opacity:0.88178914"
       d="m 120.34326,31.513052 h 13.99788 v 14.000425 h -13.99788 z"
       id="path2266-3-5-5"
       inkscape:connector-curvature="0" />
    <path
       style="display:inline;fill:none;stroke:#1200e3;stroke-width:1;stroke-linecap:butt;stroke-linejoin:miter;stroke-miterlimit:4;stroke-dasharray:none;stroke-opacity:0.88178914"
       d="m 101.34413,31.513052 h 13.99788 v 14.000425 h -13.99788 z"
       id="path2266-3-5-6"
       inkscape:connector-curvature="0" />
    <path
       style="display:inline;fill:none;stroke:#1200e3;stroke-width:1;stroke-linecap:butt;stroke-linejoin:miter;stroke-miterlimit:4;stroke-dasharray:none;stroke-opacity:0.88178914"
       d="m 120.34326,50.712835 h 13.99788 V 64.71326 h -13.99788 z"
       id="path2266-3-5-2"
       inkscape:connector-curvature="0" />
    <path
       style="display:inline;fill:none;stroke:#1200e3;stroke-width:1;stroke-linecap:butt;stroke-linejoin:miter;stroke-miterlimit:4;stroke-dasharray:none;stroke-opacity:0.88178914"
       d="m 101.34413,50.712835 h 13.99788 V 64.71326 h -13.99788 z"
       id="path2266-3-5-9"
       inkscape:connector-curvature="0" />
    <path
       style="display:inline;fill:none;stroke:#1200e3;stroke-width:1;stroke-linecap:butt;stroke-linejoin:miter;stroke-miterlimit:4;stroke-dasharray:none;stroke-opacity:0.88178914"
       d="m 120.39405,69.714501 h 13.99788 v 14.000425 h -13.99788 z"
       id="path2266-3-5-1"
       inkscape:connector-curvature="0" />
    <path
       style="display:inline;fill:none;stroke:#1200e3;stroke-width:1;stroke-linecap:butt;stroke-linejoin:miter;stroke-miterlimit:4;stroke-dasharray:none;stroke-opacity:0.88178914"
       d="m 101.34413,69.714501 h 13.99788 v 14.000425 h -13.99788 z"
       id="path2266-3-5-27"
       inkscape:connector-curvature="0" />
    <path
       style="display:inline;fill:none;stroke:#1200e3;stroke-width:1;stroke-linecap:butt;stroke-linejoin:miter;stroke-miterlimit:4;stroke-dasharray:none;stroke-opacity:0.88178914"
       d="M 82.34247,79.813502 H 96.34035 V 93.813919 H 82.34247 Z"
       id="path2266-3-5-0"
       inkscape:connector-curvature="0" />
    <path
       style="display:inline;fill:none;stroke:#1200e3;stroke-width:1;stroke-linecap:butt;stroke-linejoin:miter;stroke-miterlimit:4;stroke-dasharray:none;stroke-opacity:0.88178914"
       d="M 82.34247,60.814376 H 96.34034 V 74.8148 H 82.34247 Z"
       id="path2266-3-5-93"
       inkscape:connector-curvature="0" />
    <path
       style="display:inline;fill:none;stroke:#1200e3;stroke-width:1;stroke-linecap:butt;stroke-linejoin:miter;stroke-miterlimit:4;stroke-dasharray:none;stroke-opacity:0.88178914"
       d="M 63.34335,58.312486 H 77.34123 V 72.312911 H 63.34335 Z"
       id="path2266-3-5-60"
       inkscape:connector-curvature="0" />
    <path
       style="display:inline;fill:none;stroke:#1200e3;stroke-width:1;stroke-linecap:butt;stroke-linejoin:miter;stroke-miterlimit:4;stroke-dasharray:none;stroke-opacity:0.88178914"
       d="M 63.34335,77.314152 H 77.34123 V 91.314579 H 63.34335 Z"
       id="path2266-3-5-60-6"
       inkscape:connector-curvature="0" />
    <path
       style="display:inline;fill:none;stroke:#1200e3;stroke-width:1;stroke-linecap:butt;stroke-linejoin:miter;stroke-miterlimit:4;stroke-dasharray:none;stroke-opacity:0.88178914"
       d="M 44.344221,60.814376 H 58.3421 V 74.8148 H 44.344221 Z"
       id="path2266-3-5-60-2"
       inkscape:connector-curvature="0" />
    <path
       style="display:inline;fill:none;stroke:#1200e3;stroke-width:1;stroke-linecap:butt;stroke-linejoin:miter;stroke-miterlimit:4;stroke-dasharray:none;stroke-opacity:0.88178914"
       d="M 44.344221,79.912562 H 58.3421 V 93.912979 H 44.344221 Z"
       id="path2266-3-5-60-61"
       inkscape:connector-curvature="0" />
    <path
       style="display:inline;fill:none;stroke:#1200e3;stroke-width:1;stroke-linecap:butt;stroke-linejoin:miter;stroke-miterlimit:4;stroke-dasharray:none;stroke-opacity:0.88178914"
       d="m 25.345095,63.214668 h 13.99788 v 14.000424 h -13.99788 z"
       id="path2266-3-5-60-8"
       inkscape:connector-curvature="0" />
    <path
       style="display:inline;fill:none;stroke:#1200e3;stroke-width:1;stroke-linecap:butt;stroke-linejoin:miter;stroke-miterlimit:4;stroke-dasharray:none;stroke-opacity:0.88178914"
       d="M 25.345095,44.213002 H 39.342977 V 58.213429 H 25.345095 Z"
       id="path2266-3-5-60-7"
       inkscape:connector-curvature="0" />
    <path
       style="display:inline;fill:none;stroke:#1200e3;stroke-width:1;stroke-linecap:butt;stroke-linejoin:miter;stroke-miterlimit:4;stroke-dasharray:none;stroke-opacity:0.88178914"
       d="M 44.344221,41.71365 H 58.3421 V 55.714077 H 44.344221 Z"
       id="path2266-3-5-60-9"
       inkscape:connector-curvature="0" />
    <path
       style="display:inline;fill:none;stroke:#1200e3;stroke-width:1;stroke-linecap:butt;stroke-linejoin:miter;stroke-miterlimit:4;stroke-dasharray:none;stroke-opacity:0.88178914"
       d="M 44.346767,22.714527 H 58.34465 V 36.714951 H 44.346767 Z"
       id="path2266-3-5-60-20"
       inkscape:connector-curvature="0" />
    <path
       style="display:inline;fill:none;stroke:#1200e3;stroke-width:1;stroke-linecap:butt;stroke-linejoin:miter;stroke-miterlimit:4;stroke-dasharray:none;stroke-opacity:0.88178914"
       d="m 25.345095,25.213876 h 13.99788 V 39.2143 h -13.99788 z"
       id="path2266-3-5-60-23"
       inkscape:connector-curvature="0" />
    <path
       style="display:inline;fill:none;stroke:#1200e3;stroke-width:1;stroke-linecap:butt;stroke-linejoin:miter;stroke-miterlimit:4;stroke-dasharray:none;stroke-opacity:0.88178914"
       d="M 63.34335,20.212635 H 77.34123 V 34.213062 H 63.34335 Z"
       id="path2266-3-5-60-75"
       inkscape:connector-curvature="0" />
    <path
       style="display:inline;fill:none;stroke:#1200e3;stroke-width:1;stroke-linecap:butt;stroke-linejoin:miter;stroke-miterlimit:4;stroke-dasharray:none;stroke-opacity:0.88178914"
       d="M 82.34247,22.612927 H 96.34034 V 36.613351 H 82.34247 Z"
       id="path2266-3-5-60-92"
       inkscape:connector-curvature="0" />
    <path
       style="display:inline;fill:none;stroke:#1200e3;stroke-width:1;stroke-linecap:butt;stroke-linejoin:miter;stroke-miterlimit:4;stroke-dasharray:none;stroke-opacity:0.88178914"
       d="M 82.34247,41.71365 H 96.34034 V 55.714077 H 82.34247 Z"
       id="path2266-3-5-60-28"
       inkscape:connector-curvature="0" />
    <path
       style="display:inline;fill:none;stroke:#1200e3;stroke-width:1;stroke-linecap:butt;stroke-linejoin:miter;stroke-miterlimit:4;stroke-dasharray:none;stroke-opacity:0.88178914"
       d="M 63.34335,39.31336 H 77.34123 V 53.313785 H 63.34335 Z"
       id="path2266-3-5-60-97"
       inkscape:connector-curvature="0" />
    <path
       style="display:inline;fill:none;stroke:#1200e3;stroke-width:1;stroke-linecap:butt;stroke-linejoin:miter;stroke-miterlimit:4;stroke-dasharray:none;stroke-opacity:0.88178914"
       d="M 5.060392,63.79092 H 17.064039 V 75.391055 H 5.062587 Z"
       id="path2579"
       inkscape:connector-curvature="0" />
    <path
       style="display:inline;fill:none;stroke:#1200e3;stroke-width:1;stroke-linecap:butt;stroke-linejoin:miter;stroke-miterlimit:4;stroke-dasharray:none;stroke-opacity:0.88178914"
       d="M -1.017461,93.961239 5.982752,106.08461 18.106125,99.084399 11.105911,86.96103 Z"
       id="path2581"
       inkscape:connector-curvature="0" />
    <path
       style="display:inline;fill:none;stroke:#1200e3;stroke-width:1;stroke-linecap:butt;stroke-linejoin:miter;stroke-miterlimit:4;stroke-dasharray:none;stroke-opacity:0.88178914"
       d="m 20.265114,87.804309 12.88791,-5.468601 5.468599,12.885371 -12.88537,5.471141 z"
       id="path2583"
       inkscape:connector-curvature="0" />
    <circle
       style="opacity:1;fill:#000000;fill-opacity:1;stroke:#1200e3;stroke-width:1;stroke-linecap:round;stroke-miterlimit:4;stroke-dasharray:none;stroke-opacity:0.88178914"
       id="path17568"
       cx="41.143459"
       cy="22.714277"
       r="1" />
    <circle
       style="opacity:1;fill:#000000;fill-opacity:1;stroke:#1200e3;stroke-width:1;stroke-linecap:round;stroke-miterlimit:4;stroke-dasharray:none;stroke-opacity:0.88178914"
       id="path17568-4"
       cx="117.64319"
       cy="29.324625"
       r="1" />
    <circle
       style="opacity:1;fill:#000000;fill-opacity:1;stroke:#1200e3;stroke-width:1;stroke-linecap:round;stroke-miterlimit:4;stroke-dasharray:none;stroke-opacity:0.88178914"
       id="path17568-8"
       cx="117.64319"
       cy="67.624016"
       r="1" />
    <circle
       style="opacity:1;fill:#000000;fill-opacity:1;stroke:#1200e3;stroke-width:1;stroke-linecap:round;stroke-miterlimit:4;stroke-dasharray:none;stroke-opacity:0.88178914"
       id="path17568-7"
       cx="15.644773"
       cy="83.925735"
       r="1" />
    <circle
       style="opacity:1;fill:#000000;fill-opacity:1;stroke:#1200e3;stroke-width:1;stroke-linecap:round;stroke-miterlimit:4;stroke-dasharray:none;stroke-opacity:0.88178914"
       id="path17568-0"
       cx="41.144726"
       cy="60.625809"
       r="1" />
  </g>
</svg>
