<?xml version="1.0" standalone="no"?>
<!DOCTYPE svg PUBLIC "-//W3C//DTD SVG 20010904//EN"
 "http://www.w3.org/TR/2001/REC-SVG-20010904/DTD/svg10.dtd">
<svg version="1.0" xmlns="http://www.w3.org/2000/svg"
 width="608.000000pt" height="608.000000pt" viewBox="0 0 608.000000 608.000000"
 preserveAspectRatio="xMidYMid meet">
<metadata>
Created by potrace 1.14, written by Peter Selinger 2001-2017
</metadata>
<g transform="translate(0.000000,608.000000) scale(0.100000,-0.100000)"
fill="#000000" stroke="none">
<path d="M3990 5880 c-11 -11 -20 -31 -20 -45 0 -30 -3 -31 -38 -5 -41 31 -78
34 -102 10 -16 -16 -24 -18 -41 -10 -62 34 -127 4 -138 -64 -6 -41 -7 -42 -85
-76 l-48 -21 21 -20 c18 -17 26 -44 22 -71 -5 -35 28 -119 75 -190 58 -87 58
-87 39 -208 -2 -14 -7 -50 -10 -80 -4 -30 -9 -68 -11 -85 -2 -16 -6 -50 -9
-75 -3 -25 -8 -61 -10 -80 -2 -19 -7 -60 -11 -90 -3 -30 -9 -58 -12 -62 -16
-16 -586 -26 -832 -14 -180 8 -332 17 -350 21 -10 2 -50 6 -87 10 -37 3 -81 8
-98 10 -16 2 -56 7 -88 10 -32 4 -68 8 -80 11 -12 2 -42 7 -67 10 -25 3 -53 7
-62 10 -11 3 -18 -2 -20 -16 -2 -13 -19 -30 -43 -43 -22 -12 -42 -25 -45 -28
-13 -15 -263 -129 -327 -150 -67 -21 -72 -24 -67 -46 5 -19 2 -23 -18 -23 -23
0 -25 -4 -22 -37 3 -52 15 -288 20 -403 12 -295 20 -1019 14 -1237 l-3 -72
-46 -10 c-64 -14 -113 -24 -131 -26 -8 -2 -31 -5 -50 -9 -90 -17 -137 -26
-156 -30 -21 -4 -85 -16 -114 -21 -8 -1 -33 -6 -55 -10 -22 -4 -48 -9 -58 -11
-9 -1 -17 3 -18 9 -2 30 -7 96 -10 142 -5 82 -16 94 -80 91 -35 -2 -75 -13
-115 -33 -66 -32 -67 -33 -131 -88 -46 -40 -44 -41 -58 40 -14 80 -16 91 -27
130 -6 22 -13 47 -14 55 -2 8 -15 37 -29 65 -51 103 -155 124 -205 44 -14 -22
-42 -59 -63 -82 -58 -65 -69 -98 -73 -217 -2 -102 27 -350 52 -431 2 -9 7 -32
9 -50 3 -19 12 -59 21 -89 8 -30 18 -65 21 -77 3 -12 20 -38 39 -57 28 -29 39
-34 66 -30 34 5 141 53 146 67 2 4 11 7 21 7 9 0 21 4 26 9 29 26 268 99 381
117 60 9 82 27 79 66 -1 18 -5 41 -10 51 -4 10 -5 20 -3 22 5 5 144 32 168 33
8 0 26 3 40 6 14 3 43 8 65 11 22 3 69 10 105 16 89 14 129 20 171 24 34 3 36
1 33 -24 -1 -14 -5 -127 -8 -251 -6 -215 -14 -443 -20 -540 -4 -57 1 -69 25
-63 15 4 19 0 19 -21 l0 -27 203 6 c404 12 466 14 723 20 209 5 261 3 261 -7
0 -7 3 -33 6 -58 3 -25 9 -81 12 -125 4 -44 8 -96 10 -115 3 -27 16 -225 17
-250 1 -31 -4 -36 -39 -34 -70 2 -95 -28 -83 -98 4 -21 4 -38 -1 -38 -5 0 -5
-10 -1 -22 17 -52 -3 -259 -40 -408 -24 -99 -25 -105 -16 -146 6 -25 17 -37
54 -54 45 -22 52 -23 248 -16 209 7 261 13 311 39 17 9 50 18 75 22 92 13 106
16 157 36 33 13 64 36 87 64 20 23 48 46 62 49 46 12 68 99 39 156 -32 63
-125 87 -312 84 -68 -2 -123 1 -123 5 0 4 9 25 19 47 26 53 48 137 56 209 4
32 8 62 10 65 2 3 -4 16 -14 29 -13 17 -28 23 -54 23 -19 0 -39 -2 -44 -5 -4
-3 -33 -8 -63 -12 -30 -4 -58 -9 -62 -11 -20 -13 -35 11 -37 59 -1 29 -4 108
-7 177 -3 69 -7 175 -7 235 l-2 110 520 -1 c474 -1 937 -9 1090 -19 33 -2 118
-7 189 -10 71 -3 133 -8 138 -11 4 -3 8 9 8 25 0 17 3 30 8 30 40 -7 41 -3 37
124 -17 525 -25 1670 -13 1682 3 3 25 7 49 10 24 3 53 7 65 9 12 2 45 7 75 11
30 3 61 8 69 10 8 2 38 6 65 10 28 3 64 8 80 11 35 6 75 11 165 20 l65 6 61
-46 c72 -54 119 -72 193 -75 41 -2 58 -7 69 -22 18 -26 28 -24 42 11 7 17 16
30 20 30 4 0 8 11 8 25 0 32 0 33 37 39 72 13 112 76 82 128 -17 30 -17 32 4
54 20 22 21 27 10 64 -6 21 -21 46 -34 55 -19 13 -17 16 8 15 3 0 18 6 34 15
49 25 53 87 8 100 -12 4 -37 13 -56 22 -18 8 -54 17 -80 19 -25 1 -61 7 -80
13 -19 6 -37 9 -40 7 -4 -3 -24 -7 -46 -10 -22 -4 -81 -19 -132 -35 -56 -17
-91 -24 -90 -17 1 6 6 14 10 17 5 3 10 47 12 97 l4 91 -30 25 c-41 34 -76 33
-122 -5 -46 -38 -77 -111 -102 -236 -12 -66 -61 -116 -124 -128 -9 -2 -16 -4
-16 -5 0 -1 -13 -3 -30 -5 -35 -4 -93 -14 -115 -20 -15 -4 -80 -14 -115 -18
-19 -2 -20 4 -18 98 2 136 14 581 17 630 4 52 -1 64 -25 60 -15 -3 -19 2 -19
23 0 26 -4 28 -65 40 -96 18 -176 47 -305 112 -163 81 -198 103 -203 122 -5
17 -7 17 -84 3 -16 -3 -46 -8 -68 -10 -22 -3 -51 -8 -65 -10 -14 -2 -56 -7
-93 -11 l-68 -6 6 43 c16 108 48 255 61 281 18 35 27 40 159 78 60 17 124 40
142 51 68 42 87 117 42 165 -22 23 -56 37 -63 25 -2 -3 -28 -5 -58 -5 -29 1
-68 -4 -86 -12 -30 -12 -33 -12 -28 4 61 204 71 260 55 309 -6 21 -13 56 -14
78 -1 41 -39 133 -59 147 -19 13 -46 8 -66 -12z m-102 -507 c-2 -12 6 -19 27
-23 24 -5 30 -10 27 -29 -1 -13 -10 -30 -20 -38 -16 -13 -16 -15 6 -29 12 -9
22 -23 22 -31 0 -8 4 -12 8 -9 4 2 14 1 21 -3 9 -6 3 -12 -21 -20 -35 -12 -77
-49 -96 -87 -10 -19 -20 -58 -36 -136 -3 -16 -9 -40 -12 -55 -8 -36 -11 -57
-19 -118 -9 -64 -20 -84 -45 -82 -18 1 -20 6 -15 37 6 41 12 86 21 155 3 28 8
64 10 80 2 17 6 46 8 65 3 19 8 60 12 90 8 65 10 129 4 150 -3 9 7 20 27 30
20 9 31 20 28 29 -6 17 12 41 32 41 8 0 13 -8 11 -17z m223 -128 c-18 -8 -36
-15 -40 -15 -13 1 45 29 59 29 8 0 0 -6 -19 -14z m-1946 -590 c17 -2 53 -7 80
-10 381 -48 1016 -61 1413 -29 125 11 136 11 154 0 11 -7 25 -6 45 4 34 16 41
18 118 26 33 3 87 10 120 15 84 13 86 12 81 -13 -3 -13 -8 -48 -11 -78 -3 -30
-8 -71 -10 -90 -4 -30 -10 -97 -19 -205 -15 -163 -21 -360 -21 -680 0 -396 6
-523 39 -865 8 -83 17 -157 22 -179 5 -23 4 -23 -48 -17 -134 16 -145 17 -288
31 -349 34 -917 38 -1290 10 -25 -2 -83 -6 -130 -9 -47 -4 -103 -8 -125 -11
-22 -2 -62 -6 -90 -9 -27 -3 -78 -8 -113 -12 l-63 -7 5 29 c13 74 19 124 31
242 3 28 8 75 11 102 6 55 9 103 20 290 14 239 8 791 -11 1000 -16 175 -16
179 -35 345 -6 55 -14 108 -16 118 -5 17 -1 18 48 12 29 -4 67 -9 83 -10z
m-211 -71 c3 -27 7 -65 10 -84 16 -111 26 -225 43 -510 8 -139 8 -648 0 -780
-3 -52 -8 -136 -11 -187 -3 -50 -8 -108 -10 -130 -3 -21 -8 -65 -11 -98 -6
-58 -12 -112 -20 -165 -2 -14 -7 -50 -10 -80 -5 -39 -20 -76 -50 -125 -23 -38
-80 -135 -127 -215 -47 -80 -95 -161 -107 -180 -11 -19 -24 -42 -28 -50 -8
-17 -113 -193 -119 -199 -3 -3 -2 47 1 110 14 328 19 655 19 1234 0 584 -3
755 -20 1110 -3 66 -6 138 -7 160 -2 39 -1 40 48 58 28 10 58 20 68 23 21 4
233 109 287 142 19 12 36 20 37 18 2 -2 5 -25 7 -52z m2480 -32 c111 -54 193
-86 289 -111 l72 -19 -1 -73 c-1 -41 -5 -180 -10 -309 -9 -265 -12 -1941 -3
-2153 3 -76 2 -134 -2 -130 -17 18 -169 245 -169 253 0 5 -3 10 -7 12 -9 3
-19 17 -133 188 -46 69 -87 127 -90 130 -4 3 -9 10 -11 15 -2 6 -25 42 -51 80
-37 55 -48 82 -53 126 -3 31 -7 65 -9 75 -2 11 -7 51 -10 89 -4 39 -9 86 -11
105 -3 19 -7 67 -10 105 -3 39 -8 115 -12 170 -15 214 -8 930 11 1135 2 19 7
73 10 120 4 47 9 99 11 115 2 17 7 57 10 90 4 33 9 64 12 68 2 4 21 -2 40 -14
20 -13 77 -43 127 -67z m984 -697 c-6 -14 -13 -23 -15 -21 -5 5 15 46 22 46 3
0 -1 -11 -7 -25z m-23 -103 c0 -4 13 -20 28 -36 l27 -29 21 21 c30 33 59 29
59 -8 0 -23 4 -30 20 -30 22 0 23 -1 14 -24 -3 -9 -16 -16 -29 -16 -16 0 -25
-7 -29 -25 -5 -20 -12 -24 -39 -23 -34 1 -122 -9 -172 -19 -16 -3 -41 -7 -55
-8 -37 -4 -121 -15 -150 -20 -14 -2 -45 -7 -70 -10 -50 -6 -120 -16 -135 -18
-5 -1 -10 9 -10 23 0 25 13 31 110 44 91 13 276 56 303 70 35 18 64 52 82 96
11 26 25 33 25 12z m-5151 -796 c16 -34 64 -216 71 -271 2 -16 6 -39 8 -50 3
-11 8 -39 12 -62 5 -31 12 -44 28 -49 37 -13 59 -4 120 50 59 53 193 133 204
122 4 -3 7 -27 9 -53 3 -55 12 -134 21 -178 3 -16 7 -39 9 -50 1 -11 6 -34 9
-50 l7 -31 -64 -13 c-78 -15 -243 -70 -323 -107 -33 -15 -63 -27 -67 -26 -5 1
-8 -2 -8 -6 0 -13 -45 -31 -58 -23 -10 6 -49 143 -57 201 -2 14 -8 50 -14 80
-44 235 -47 365 -8 451 22 51 60 99 78 99 4 0 14 -15 23 -34z m1196 -367 c0
-13 -12 -17 -68 -23 -29 -3 -63 -8 -75 -11 -12 -2 -42 -7 -67 -10 -25 -3 -56
-7 -70 -9 -14 -3 -47 -7 -74 -11 -27 -3 -54 -9 -59 -12 -6 -3 -7 -1 -3 5 3 6
28 14 54 17 26 4 74 13 107 20 33 8 80 16 105 19 25 3 59 10 75 14 38 11 75
12 75 1z m-465 -79 c-3 -5 -12 -10 -18 -10 -7 0 -6 4 3 10 19 12 23 12 15 0z
m2570 -14 c66 -3 145 -8 175 -11 30 -3 84 -7 120 -10 36 -3 81 -7 100 -9 19
-3 60 -8 90 -11 114 -13 171 -22 175 -27 51 -73 135 -202 135 -208 0 -5 4 -10
9 -12 7 -3 39 -47 76 -107 6 -9 13 -18 16 -21 3 -3 14 -20 24 -37 11 -18 23
-33 27 -33 4 0 8 -4 8 -9 0 -5 54 -88 120 -185 66 -97 120 -178 120 -181 0 -3
-37 -3 -82 0 -600 37 -1868 37 -2930 0 l-187 -6 12 25 c7 14 15 26 20 26 4 0
7 4 7 9 0 12 417 721 434 737 6 7 45 15 86 18 41 3 84 8 95 10 11 2 60 7 110
11 49 3 105 9 125 11 39 6 83 8 310 19 85 4 156 8 157 9 5 4 545 -2 648 -8z
m-768 -1009 c2 -39 4 -100 6 -134 3 -35 1 -63 -3 -63 -3 0 -8 24 -9 54 -1 30
-4 64 -6 77 -13 70 -14 139 -2 139 8 0 13 -24 14 -73z m10 -284 c-3 -10 -5 -2
-5 17 0 19 2 27 5 18 2 -10 2 -26 0 -35z m254 -334 c-2 -8 -5 -27 -8 -44 -7
-42 -41 -131 -75 -193 -32 -61 -35 -83 -10 -105 14 -13 47 -15 222 -12 227 4
260 1 260 -24 0 -33 -104 -115 -158 -126 -10 -2 -55 -13 -102 -25 -47 -12 -94
-23 -104 -25 -59 -13 -364 -25 -419 -17 -27 4 -29 6 -24 46 3 22 10 52 15 66
5 14 10 28 10 33 1 15 15 102 19 122 2 11 6 78 8 148 2 71 6 132 10 135 3 4
36 7 73 8 80 1 198 13 225 23 30 11 62 6 58 -10z"/>
</g>
</svg>
