<?xml version="1.0" encoding="UTF-8" standalone="no"?>
<svg
   xmlns:dc="http://purl.org/dc/elements/1.1/"
   xmlns:cc="http://creativecommons.org/ns#"
   xmlns:rdf="http://www.w3.org/1999/02/22-rdf-syntax-ns#"
   xmlns:svg="http://www.w3.org/2000/svg"
   xmlns="http://www.w3.org/2000/svg"
   xmlns:sodipodi="http://sodipodi.sourceforge.net/DTD/sodipodi-0.dtd"
   xmlns:inkscape="http://www.inkscape.org/namespaces/inkscape"
   width="210mm"
   height="297mm"
   viewBox="0 0 210 297"
   version="1.1"
   id="svg8"
   inkscape:version="1.0.1 (3bc2e813f5, 2020-09-07)"
   sodipodi:docname="oled_cover.svg">
  <defs
     id="defs2" />
  <sodipodi:namedview
     id="base"
     pagecolor="#ffffff"
     bordercolor="#666666"
     borderopacity="1.0"
     inkscape:pageopacity="0.0"
     inkscape:pageshadow="2"
     inkscape:zoom="2.8"
     inkscape:cx="122.18212"
     inkscape:cy="152.82544"
     inkscape:document-units="mm"
     inkscape:current-layer="layer1"
     inkscape:document-rotation="0"
     showgrid="false"
     showguides="true"
     inkscape:guide-bbox="true"
     inkscape:lockguides="true"
     inkscape:window-width="1680"
     inkscape:window-height="987"
     inkscape:window-x="1912"
     inkscape:window-y="218"
     inkscape:window-maximized="1">
    <inkscape:grid
       type="xygrid"
       id="grid854"
       originx="13.229167"
       originy="26.458333" />
    <sodipodi:guide
       position="-60.854165,283.77084"
       orientation="1,0"
       id="guide856"
       inkscape:locked="true" />
  </sodipodi:namedview>
  <metadata
     id="metadata5">
    <rdf:RDF>
      <cc:Work
         rdf:about="">
        <dc:format>image/svg+xml</dc:format>
        <dc:type
           rdf:resource="http://purl.org/dc/dcmitype/StillImage" />
        <dc:title></dc:title>
      </cc:Work>
    </rdf:RDF>
  </metadata>
  <g
     inkscape:label="Layer 1"
     inkscape:groupmode="layer"
     id="layer1">
    <circle
       style="fill:none;fill-rule:evenodd;stroke-width:0.1;stroke:#ff0000;stroke-opacity:1;stroke-miterlimit:4;stroke-dasharray:none"
       id="path10"
       cx="6.0444865"
       cy="58.696583"
       r="1.1" />
    <circle
       style="fill:none;fill-rule:evenodd;stroke-width:0.1;stroke-miterlimit:4;stroke-dasharray:none;stroke:#ff0000;stroke-opacity:1"
       id="path10-7"
       cx="21.544487"
       cy="58.696583"
       r="1.1" />
    <rect
       style="fill:none;fill-rule:evenodd;stroke:#ff0000;stroke-width:0.1;stroke-opacity:1;stroke-miterlimit:4;stroke-dasharray:none"
       id="rect29"
       width="21.821825"
       height="58.621822"
       x="2.9335749"
       y="2.78567"
       ry="1.3363477" />
    <g
       id="g1010"
       transform="translate(8.3154762,70.303572)"
       style="fill:#0000ff;fill-opacity:1">
      <path
         style="fill:#0000ff;fill-opacity:1;stroke-width:0.264583"
         d="m -193.18904,128.93924 c -0.3291,-0.41964 -0.31974,-0.429 0.0999,-0.0999 0.44073,0.34564 0.58089,0.56292 0.36313,0.56292 -0.0549,0 -0.2633,-0.20836 -0.46303,-0.46303 z m -5.58864,-3.15179 c 0.1819,-0.0734 0.47956,-0.0734 0.66146,0 0.1819,0.0734 0.0331,0.13346 -0.33073,0.13346 -0.3638,0 -0.51263,-0.0601 -0.33073,-0.13346 z m 5.3787,-5.00619 c 0.0127,-0.30823 0.0754,-0.37092 0.15985,-0.15985 0.0764,0.19099 0.067,0.4192 -0.0209,0.50711 -0.0879,0.0879 -0.15046,-0.0683 -0.13897,-0.34726 z m 15.08125,-28.045835 c 0.0127,-0.308226 0.0754,-0.370919 0.15985,-0.159853 0.0764,0.190995 0.067,0.4192 -0.0209,0.507119 -0.0879,0.08792 -0.15046,-0.06835 -0.13897,-0.347266 z"
         id="path1026" />
      <path
         style="fill:#0000ff;fill-opacity:1;stroke-width:0.264583"
         d="m -204.20164,148.79905 c 0.25466,-0.0666 0.67138,-0.0666 0.92604,0 0.25466,0.0666 0.0463,0.121 -0.46302,0.121 -0.50932,0 -0.71768,-0.0545 -0.46302,-0.121 z m 10.21885,-20.65356 c -0.3291,-0.41964 -0.31974,-0.429 0.0999,-0.0999 0.44073,0.34564 0.58089,0.56292 0.36313,0.56292 -0.055,0 -0.2633,-0.20836 -0.46303,-0.46303 z m 24.66089,-35.410065 c 0.0127,-0.308226 0.0754,-0.370919 0.15985,-0.159853 0.0764,0.190995 0.067,0.4192 -0.0209,0.507119 -0.0879,0.08792 -0.15045,-0.06835 -0.13897,-0.347266 z"
         id="path1024" />
      <path
         style="fill:#0000ff;fill-opacity:1;stroke-width:0.264583"
         d="m -200.36518,125.78745 c 0.1819,-0.0734 0.47956,-0.0734 0.66146,0 0.1819,0.0734 0.0331,0.13346 -0.33073,0.13346 -0.3638,0 -0.51263,-0.0601 -0.33073,-0.13346 z"
         id="path1022" />
      <path
         style="fill:#0000ff;fill-opacity:1;stroke-width:0.264583"
         d="m -201.14239,125.78194 c 0.19099,-0.0764 0.4192,-0.067 0.50711,0.0209 0.0879,0.0879 -0.0684,0.15045 -0.34726,0.13896 -0.30823,-0.0127 -0.37092,-0.0754 -0.15985,-0.15985 z"
         id="path1020" />
      <path
         style="fill:#0000ff;fill-opacity:1;stroke-width:0.264583"
         d="m -172.56739,157.53194 c 0.19099,-0.0764 0.4192,-0.067 0.50711,0.0209 0.0879,0.0879 -0.0683,0.15045 -0.34726,0.13896 -0.30823,-0.0127 -0.37092,-0.0754 -0.15985,-0.15985 z m -16.6529,-24.88853 c -0.3291,-0.41964 -0.31974,-0.429 0.0999,-0.0999 0.44073,0.34565 0.58089,0.56292 0.36313,0.56292 -0.0549,0 -0.2633,-0.20836 -0.46303,-0.46302 z m -12.71585,-6.86147 c 0.19099,-0.0764 0.4192,-0.067 0.50711,0.0209 0.0879,0.0879 -0.0683,0.15045 -0.34726,0.13896 -0.30823,-0.0127 -0.37092,-0.0754 -0.15985,-0.15985 z"
         id="path1018" />
      <path
         style="fill:#0000ff;fill-opacity:1;stroke-width:0.264583"
         d="m -221.3164,138.74024 c -0.14358,-0.37708 -0.11319,-0.40748 0.14811,-0.14811 0.18082,0.17947 0.26212,0.39297 0.18066,0.47443 -0.0815,0.0815 -0.22941,-0.0654 -0.32877,-0.32632 z m 31.30236,-6.89058 c -0.3291,-0.41964 -0.31974,-0.429 0.0999,-0.0999 0.44073,0.34565 0.58089,0.56292 0.36313,0.56292 -0.055,0 -0.2633,-0.20836 -0.46303,-0.46302 z m -9.49125,-11.54312 c 0,-0.055 0.20836,-0.2633 0.46303,-0.46303 0.41964,-0.3291 0.429,-0.31974 0.0999,0.0999 -0.34564,0.44073 -0.56292,0.58089 -0.56292,0.36313 z m 3.1254,-1.40376 c 0.19099,-0.0764 0.4192,-0.067 0.50711,0.0209 0.0879,0.0879 -0.0683,0.15045 -0.34726,0.13897 -0.30823,-0.0127 -0.37092,-0.0754 -0.15985,-0.15986 z m 2.71633,-2.09027 c 0.0127,-0.30823 0.0754,-0.37092 0.15985,-0.15985 0.0764,0.19099 0.067,0.4192 -0.0209,0.50711 -0.0879,0.0879 -0.15045,-0.0683 -0.13896,-0.34726 z"
         id="path1016" />
      <path
         style="fill:#0000ff;fill-opacity:1;stroke-width:0.264583"
         d="m -216.72323,144.81424 -0.64143,-0.7276 0.7276,0.64143 c 0.68006,0.59952 0.84894,0.81378 0.64144,0.81378 -0.0474,0 -0.37482,-0.32742 -0.72761,-0.72761 z m -1.45183,-2.51354 -0.7771,-0.85989 0.8599,0.7771 c 0.47294,0.42741 0.85989,0.81436 0.85989,0.8599 0,0.2044 -0.21831,0.0245 -0.94269,-0.77711 z m 27.36727,-11.24479 c -0.3291,-0.41964 -0.31974,-0.429 0.0999,-0.0999 0.44073,0.34565 0.58089,0.56292 0.36313,0.56292 -0.0549,0 -0.2633,-0.20836 -0.46303,-0.46302 z m -5.30752,-33.055218 c 0.19099,-0.07643 0.4192,-0.06703 0.50712,0.02088 0.0879,0.08792 -0.0683,0.150453 -0.34727,0.138965 -0.30822,-0.0127 -0.37092,-0.07539 -0.15985,-0.159851 z"
         id="path1014" />
    </g>
    <path
       style="fill:#0000ff;fill-opacity:1;stroke-width:0.0742524"
       d="m 16.500286,57.566415 c -0.110766,-0.110776 -0.110301,-0.131148 0.0058,-0.259656 0.108991,-0.120433 0.119667,-0.246117 0.07832,-0.921744 -0.05377,-0.878458 -0.03183,-0.835968 -1.147403,-2.223723 l -0.476182,-0.592355 0.694485,-0.631904 c 1.063179,-0.967369 1.661396,-1.549368 1.619294,-1.575407 -0.02096,-0.01301 -0.307707,-0.285026 -0.637194,-0.604574 l -0.59906,-0.580999 -0.488081,0.733159 C 14.436308,52.582517 12.75716,53.839483 11.047693,54.279736 9.2841875,54.733907 7.5442364,54.540149 6.1870728,53.73846 5.3977091,53.272178 4.3250187,52.193576 3.7998151,51.338042 c -0.084922,-0.138311 -0.028145,-0.09608 0.1498695,0.111378 1.6472843,1.920403 3.6191351,2.750732 5.5572199,2.3401 0.5898135,-0.124965 1.8272505,-0.696105 2.5087985,-1.157923 0.893307,-0.605321 1.584122,-1.46069 2.478177,-3.068485 l 0.285075,-0.512654 -0.694698,-0.67386 c -0.808476,-0.784249 -0.762715,-0.808492 -0.854634,0.452793 -0.02912,0.399635 -0.07405,0.765535 -0.09994,0.813131 -0.02863,0.0528 -0.467137,-0.318121 -1.123654,-0.950452 -0.59216,-0.570334 -1.210312,-1.10139 -1.373672,-1.180119 -0.233481,-0.112524 -0.461226,-0.143494 -1.0647516,-0.144774 -0.6849247,-9.79e-4 -0.7810457,0.01475 -0.891027,0.150277 -0.1077769,0.132807 -0.140766,0.139096 -0.2623251,0.04998 -0.2074611,-0.152005 -0.097733,-0.453627 0.1430467,-0.393202 0.1133192,0.02843 0.3215958,-0.02746 0.5870168,-0.157673 0.3486931,-0.171017 0.4113898,-0.23254 0.4113898,-0.403673 0,-0.166252 -0.07541,-0.24771 -0.4269571,-0.461178 C 8.8939332,46.009117 8.608131,45.868973 8.4936273,45.840273 8.33611,45.800773 8.2909414,45.749823 8.3080033,45.630842 c 0.029892,-0.2088 0.2546676,-0.243186 0.4143103,-0.06337 0.071432,0.08056 0.3205379,0.184683 0.5640739,0.235947 0.3990255,0.08395 0.4479787,0.07988 0.5759918,-0.04814 0.1198028,-0.119803 0.1328269,-0.207626 0.090648,-0.611377 -0.038722,-0.370821 -0.078516,-0.479113 -0.1861672,-0.507269 -0.075313,-0.0197 -0.1368841,-0.0626 -0.1368841,-0.09531 0,-0.173443 0.1100487,-0.29442 0.2678277,-0.29442 0.1347493,0 0.1777053,0.04037 0.1777533,0.167068 2.9e-5,0.09191 0.09997,0.378265 0.222087,0.636397 0.18674,0.394744 0.248679,0.465545 0.389727,0.445513 0.129974,-0.01844 0.204132,-0.124025 0.329709,-0.469331 0.0891,-0.245029 0.144842,-0.505589 0.12385,-0.579019 -0.05804,-0.203045 0.106632,-0.362901 0.278902,-0.27071 0.168591,0.09026 0.178616,0.202132 0.03261,0.363512 -0.08677,0.09589 -0.09932,0.275204 -0.06347,0.908458 l 0.04465,0.788964 0.554544,0.753425 c 0.304999,0.414388 0.574215,0.733772 0.598255,0.709721 0.02407,-0.02407 0.112485,-0.602186 0.196552,-1.284781 0.08405,-0.682585 0.179791,-1.235187 0.212731,-1.228015 0.033,0.0068 0.543887,0.453743 1.135407,0.99237 0.59153,0.538616 1.090879,0.963933 1.109668,0.945134 0.01883,-0.01883 0.0068,-0.498767 -0.02766,-1.066606 -0.04862,-0.811763 -0.03067,-1.401827 0.08405,-2.760495 0.08026,-0.950433 0.12781,-1.746095 0.105749,-1.768146 -0.02203,-0.02203 -0.393405,0.160488 -0.825224,0.405635 l -0.78515,0.445737 -0.81087,-0.942281 c -0.445953,-0.518265 -0.88969,-1.012693 -0.986053,-1.098741 -0.241508,-0.215652 -1.271398,-0.576322 -1.467747,-0.514003 -0.108389,0.03436 -0.170367,0.01243 -0.202735,-0.07192 -0.06347,-0.165437 0.09142,-0.319848 0.206005,-0.205306 0.05357,0.05357 0.223253,0.06842 0.464081,0.04067 0.617394,-0.07114 0.648926,-0.281552 0.125732,-0.838821 -0.365163,-0.388951 -0.415582,-0.593054 -0.146502,-0.593054 0.08812,0 0.140562,0.05212 0.140562,0.139718 0,0.08492 0.137961,0.229462 0.351818,0.368579 0.303001,0.197096 0.371598,0.215729 0.494341,0.134234 0.201085,-0.133516 0.358466,-0.692232 0.245807,-0.872635 -0.106448,-0.170435 0.0231,-0.333562 0.208373,-0.262451 0.0922,0.03533 0.110427,0.100896 0.07415,0.266091 -0.07192,0.327613 0.03018,0.876507 0.173347,0.931439 0.142163,0.05454 0.673938,-0.513344 0.677529,-0.723531 9.52e-4,-0.07968 0.05959,-0.129945 0.150714,-0.129945 0.177578,0 0.208519,0.27864 0.03824,0.343995 -0.09881,0.03795 -0.55925,1.303939 -0.557086,1.531762 5.82e-4,0.05057 0.201638,0.403616 0.447008,0.784569 l 0.446135,0.69264 0.833842,-0.442931 0.833843,-0.442942 -0.02601,-0.888794 c -0.02067,-0.707217 -0.0019,-0.93573 0.09278,-1.11848 0.06531,-0.126325 0.118774,-0.344394 0.118774,-0.484597 0,-0.182625 0.03776,-0.264781 0.133089,-0.289714 0.08347,-0.02184 0.266644,-0.326749 0.49108,-0.817363 0.568703,-1.243155 0.807183,-1.232343 1.298165,0.05881 0.196397,0.516488 0.363484,0.850254 0.425656,0.850254 0.06939,0 0.102333,0.09278 0.102333,0.287948 0,0.158362 0.04775,0.402236 0.106128,0.541925 0.0922,0.220738 0.09171,0.364115 -0.0039,1.094916 l -0.109805,0.840928 0.8385,1.104592 c 0.461178,0.607524 0.882573,1.104592 0.936429,1.104592 0.29736,0 1.477616,-0.401586 1.600749,-0.544652 0.244535,-0.284134 0.634873,-1.134573 0.59346,-1.292964 -0.05222,-0.19958 0.106361,-0.289005 0.252784,-0.142581 0.08667,0.08667 0.0955,0.14163 0.03475,0.214837 -0.04493,0.05416 -0.104603,0.271323 -0.132633,0.482675 -0.04872,0.36692 -0.04251,0.386389 0.13573,0.43114 0.208673,0.05241 0.505307,-0.07735 0.86055,-0.376236 0.245273,-0.206384 0.381683,-0.190613 0.381683,0.04416 0,0.08939 -0.05086,0.144125 -0.133934,0.144125 -0.200261,0 -0.608583,0.456849 -0.608583,0.680906 0,0.156993 0.0627,0.218331 0.350605,0.342956 0.236936,0.102567 0.390883,0.130207 0.474843,0.08531 0.08541,-0.04571 0.153538,-0.03116 0.217992,0.04649 0.155741,0.187671 -0.01058,0.245738 -0.542112,0.189312 -0.475415,-0.05046 -0.649839,-0.0078 -0.649839,0.159322 0,0.14029 0.479414,0.649063 0.61161,0.649063 0.103847,0 0.134964,0.04406 0.117522,0.16631 -0.03271,0.229231 -0.239469,0.249534 -0.338035,0.03319 -0.05694,-0.125102 -0.285685,-0.266683 -0.77429,-0.479307 l -0.693435,-0.301768 -1.146219,0.175211 c -0.630419,0.09637 -1.167531,0.16205 -1.193579,0.145958 -0.02601,-0.01611 -0.295461,-0.431644 -0.598703,-0.923433 -0.481239,-0.780463 -0.554184,-0.867559 -0.573643,-0.684943 -0.01223,0.115066 0.02892,0.988157 0.09162,1.940201 l 0.11391,1.730984 -0.756403,1.460466 -0.756414,1.460477 1.022844,1.395937 c 0.56256,0.767758 1.039218,1.43862 1.059249,1.490815 0.02222,0.05784 -0.486352,0.477327 -1.304764,1.076078 -0.737644,0.539655 -1.34117,1.008519 -1.34117,1.041925 0,0.117192 0.602148,0.536074 0.973396,0.677141 0.321081,0.121995 0.48583,0.13534 1.144898,0.09278 0.543043,-0.03513 0.78124,-0.07949 0.808493,-0.150472 0.05512,-0.143716 0.248137,-0.124412 0.332515,0.03329 0.09307,0.173832 -0.0087,0.334718 -0.186731,0.29511 -0.07677,-0.01708 -0.331737,0.06367 -0.566558,0.179394 -0.366649,0.180732 -0.426948,0.239566 -0.426948,0.416523 0,0.17852 0.06823,0.242895 0.510083,0.481568 0.280542,0.151539 0.566878,0.275515 0.636311,0.275515 0.08832,0 0.119093,0.04998 0.102488,0.166311 -0.02922,0.204918 -0.262723,0.261888 -0.385456,0.09404 -0.04988,-0.06813 -0.296721,-0.16696 -0.548603,-0.219525 -0.421609,-0.08793 -0.467865,-0.08463 -0.582456,0.04202 -0.165991,0.183412 -0.106176,0.995563 0.08356,1.134291 0.0693,0.05067 0.113649,0.156741 0.09859,0.235722 -0.03416,0.17887 -0.355817,0.24377 -0.369298,0.07454 -0.01708,-0.214565 -0.02699,-0.242632 -0.247339,-0.703742 -0.190769,-0.399142 -0.243701,-0.456365 -0.404402,-0.437225 -0.1558,0.01854 -0.206122,0.0921 -0.319713,0.467535 -0.07415,0.245029 -0.119094,0.510596 -0.09991,0.59015 0.03474,0.144096 -0.07163,0.337998 -0.18543,0.337998 -0.0329,0 -0.11395,-0.05406 -0.180062,-0.1202 z"
       id="path1012" />
    <circle
       style="fill:none;fill-rule:evenodd;stroke-width:0.1;stroke-miterlimit:4;stroke-dasharray:none;stroke:#ff0000;stroke-opacity:1"
       id="path10-4"
       cx="-46.420444"
       cy="58.538708"
       r="1.1"
       transform="scale(-1,1)" />
    <circle
       style="fill:none;fill-rule:evenodd;stroke-width:0.1;stroke-miterlimit:4;stroke-dasharray:none;stroke:#ff0000;stroke-opacity:1"
       id="path10-7-9"
       cx="-30.920444"
       cy="58.538708"
       r="1.1"
       transform="scale(-1,1)" />
    <rect
       style="fill:none;fill-rule:evenodd;stroke:#ff0000;stroke-width:0.1;stroke-opacity:1;stroke-miterlimit:4;stroke-dasharray:none"
       id="rect29-3"
       width="21.821825"
       height="58.621822"
       x="-49.531361"
       y="2.6277974"
       ry="1.3363477"
       transform="scale(-1,1)" />
    <path
       style="fill:#0000ff;fill-opacity:1;stroke-width:0.0742524"
       d="m 35.964648,57.408543 c 0.110766,-0.110775 0.110301,-0.131148 -0.0058,-0.259656 -0.108991,-0.120434 -0.119667,-0.246116 -0.07832,-0.921743 0.05377,-0.878459 0.03183,-0.835969 1.147402,-2.223725 l 0.476182,-0.592354 -0.694484,-0.631905 c -1.063179,-0.967369 -1.661396,-1.549368 -1.619294,-1.575405 0.02096,-0.01302 0.307707,-0.285028 0.637194,-0.604576 l 0.59906,-0.580999 0.48808,0.733161 c 1.113959,1.673304 2.793107,2.930271 4.502573,3.370524 1.763506,0.454171 3.503457,0.260411 4.860621,-0.541276 0.789363,-0.466283 1.862054,-1.544884 2.387257,-2.400419 0.08492,-0.138311 0.02815,-0.09608 -0.149869,0.111379 -1.647285,1.920401 -3.619135,2.750732 -5.55722,2.340099 -0.589814,-0.124965 -1.827251,-0.696106 -2.508799,-1.157923 -0.893306,-0.605321 -1.584121,-1.46069 -2.478176,-3.068486 l -0.285075,-0.512654 0.694698,-0.67386 c 0.808475,-0.784248 0.762715,-0.808492 0.854634,0.452795 0.02912,0.399635 0.07405,0.765535 0.09994,0.813131 0.02863,0.0528 0.467136,-0.318122 1.123653,-0.950452 0.59216,-0.570336 1.210312,-1.101392 1.373672,-1.180121 0.233481,-0.112522 0.461226,-0.143492 1.064752,-0.144772 0.684924,-0.0011 0.781045,0.01474 0.891027,0.150275 0.107777,0.132808 0.140766,0.139097 0.262325,0.04998 0.207461,-0.152003 0.09773,-0.453626 -0.143047,-0.3932 -0.113319,0.02843 -0.321596,-0.02746 -0.587017,-0.157673 -0.348693,-0.171019 -0.411389,-0.23254 -0.411389,-0.403675 0,-0.166251 0.07541,-0.247708 0.426957,-0.461177 0.234816,-0.142592 0.520618,-0.282736 0.635122,-0.311436 0.157517,-0.0395 0.202686,-0.09045 0.185624,-0.20943 -0.02989,-0.208799 -0.254668,-0.243187 -0.41431,-0.06337 -0.07143,0.08056 -0.320538,0.184685 -0.564074,0.235948 -0.399026,0.08395 -0.447979,0.07988 -0.575992,-0.04814 -0.119803,-0.119801 -0.132827,-0.207624 -0.09065,-0.611376 0.03872,-0.370821 0.07852,-0.479112 0.186167,-0.507269 0.07531,-0.01971 0.136884,-0.0626 0.136884,-0.09531 0,-0.173443 -0.110049,-0.294418 -0.267828,-0.294418 -0.134749,0 -0.177705,0.04037 -0.177753,0.167066 -2.9e-5,0.09191 -0.09997,0.378267 -0.222087,0.636397 -0.18674,0.394745 -0.248679,0.465545 -0.389727,0.445513 -0.129974,-0.01844 -0.204132,-0.124023 -0.329709,-0.469331 -0.0891,-0.245028 -0.144842,-0.505587 -0.12385,-0.579019 0.05804,-0.203044 -0.106632,-0.3629 -0.278902,-0.270709 -0.168591,0.09026 -0.178616,0.202131 -0.03261,0.363511 0.08677,0.09589 0.09932,0.275204 0.06347,0.908458 l -0.04465,0.788966 -0.554544,0.753425 c -0.304999,0.414388 -0.574215,0.733771 -0.598255,0.709721 -0.02407,-0.02408 -0.112485,-0.602187 -0.196551,-1.284782 -0.08405,-0.682586 -0.179791,-1.235187 -0.212731,-1.228016 -0.033,0.0068 -0.543888,0.453744 -1.135407,0.99237 -0.59153,0.538617 -1.090879,0.963935 -1.109669,0.945134 -0.01883,-0.01884 -0.0068,-0.498766 0.02766,-1.066604 0.04862,-0.811763 0.03067,-1.401829 -0.08405,-2.760496 -0.08026,-0.950434 -0.127811,-1.746094 -0.10575,-1.768147 0.02203,-0.02204 0.393406,0.160488 0.825224,0.405635 l 0.78515,0.445738 0.810871,-0.942281 c 0.445953,-0.518269 0.88969,-1.012696 0.986053,-1.098744 0.241508,-0.215651 1.271398,-0.576323 1.467747,-0.514003 0.108389,0.03436 0.170367,0.01244 0.202735,-0.07192 0.06347,-0.165439 -0.09142,-0.31985 -0.206005,-0.205306 -0.05357,0.05357 -0.223253,0.06842 -0.464081,0.04067 -0.617394,-0.07114 -0.648926,-0.281551 -0.125732,-0.838822 0.365163,-0.388951 0.415582,-0.593053 0.146502,-0.593053 -0.08812,0 -0.140562,0.05212 -0.140562,0.139718 0,0.08492 -0.137961,0.229463 -0.351818,0.368578 -0.303001,0.197096 -0.371598,0.215731 -0.494341,0.134234 -0.201085,-0.133514 -0.358466,-0.692232 -0.245807,-0.872633 0.106448,-0.170437 -0.0231,-0.333563 -0.208373,-0.262453 -0.0922,0.03533 -0.110427,0.100896 -0.07415,0.266091 0.07192,0.327615 -0.03018,0.876509 -0.173347,0.931439 -0.142162,0.05454 -0.673938,-0.513344 -0.677528,-0.723529 -9.53e-4,-0.07968 -0.05959,-0.129945 -0.150715,-0.129945 -0.177577,0 -0.208518,0.278638 -0.03824,0.343993 0.09881,0.03795 0.559251,1.30394 0.557087,1.531763 -5.83e-4,0.05057 -0.201638,0.403616 -0.447008,0.784568 l -0.446135,0.69264 -0.833842,-0.442931 -0.833843,-0.442942 0.02601,-0.888793 c 0.02067,-0.707218 0.0019,-0.935731 -0.09278,-1.118481 -0.06531,-0.126323 -0.118775,-0.344393 -0.118775,-0.484595 0,-0.182626 -0.03776,-0.264782 -0.133088,-0.289716 -0.08347,-0.02183 -0.266644,-0.326748 -0.49108,-0.817362 -0.568703,-1.243155 -0.807183,-1.232344 -1.298165,0.05881 -0.196397,0.516488 -0.363484,0.850255 -0.425657,0.850255 -0.06939,0 -0.102332,0.09278 -0.102332,0.287948 0,0.158361 -0.04775,0.402236 -0.106129,0.541925 -0.0922,0.220737 -0.09171,0.364114 0.0039,1.094915 l 0.109805,0.84093 -0.8385,1.104591 c -0.461178,0.607523 -0.882573,1.104593 -0.936429,1.104593 -0.29736,0 -1.477616,-0.401588 -1.600749,-0.544653 -0.244535,-0.284133 -0.634873,-1.134573 -0.59346,-1.292963 0.05222,-0.199581 -0.106361,-0.289007 -0.252784,-0.142582 -0.08667,0.08667 -0.0955,0.141629 -0.03475,0.214837 0.04493,0.05416 0.104603,0.271322 0.132633,0.482674 0.04872,0.366921 0.04251,0.38639 -0.13573,0.431141 -0.208673,0.05241 -0.505307,-0.07735 -0.86055,-0.376237 -0.245273,-0.206383 -0.381683,-0.190611 -0.381683,0.04416 0,0.08939 0.05086,0.144124 0.133934,0.144124 0.200261,0 0.608583,0.456851 0.608583,0.680908 0,0.156993 -0.0627,0.218329 -0.350605,0.342955 -0.236936,0.102566 -0.390883,0.130207 -0.474843,0.08531 -0.08541,-0.04571 -0.153538,-0.03116 -0.217992,0.04649 -0.155741,0.187672 0.01058,0.245737 0.542112,0.189312 0.475415,-0.05046 0.649839,-0.0078 0.649839,0.159322 0,0.14029 -0.479414,0.649062 -0.61161,0.649062 -0.103847,0 -0.134964,0.04406 -0.117522,0.166312 0.03271,0.22923 0.239469,0.249534 0.338035,0.03319 0.05694,-0.125103 0.285685,-0.266684 0.77429,-0.479308 l 0.693435,-0.301768 1.146219,0.175212 c 0.630419,0.09637 1.167531,0.16205 1.193579,0.145958 0.02601,-0.01611 0.295461,-0.431644 0.598703,-0.923433 0.481239,-0.780463 0.554184,-0.867558 0.573643,-0.684943 0.01223,0.115065 -0.02892,0.988158 -0.09162,1.9402 l -0.11391,1.730984 0.756403,1.460468 0.756414,1.460476 -1.022844,1.395937 c -0.56256,0.767757 -1.039218,1.438621 -1.059249,1.490815 -0.02222,0.05784 0.486352,0.477327 1.304764,1.076077 0.737644,0.539657 1.34117,1.00852 1.34117,1.041926 0,0.117192 -0.602148,0.536075 -0.973396,0.67714 -0.321081,0.121997 -0.48583,0.13534 -1.144898,0.09278 -0.543043,-0.03513 -0.78124,-0.07949 -0.808493,-0.150474 -0.05512,-0.143714 -0.248137,-0.12441 -0.332515,0.03329 -0.09307,0.173834 0.0087,0.334719 0.186731,0.295111 0.07677,-0.01707 0.331737,0.06367 0.566558,0.179395 0.366649,0.180732 0.426948,0.239565 0.426948,0.416523 0,0.17852 -0.06823,0.242893 -0.510083,0.481566 -0.280542,0.15154 -0.566878,0.275516 -0.636311,0.275516 -0.08832,0 -0.119093,0.04998 -0.102488,0.166311 0.02922,0.204918 0.262723,0.261888 0.385456,0.09404 0.04988,-0.06813 0.296721,-0.16696 0.548603,-0.219527 0.421609,-0.08793 0.467865,-0.08463 0.582456,0.04202 0.165991,0.183412 0.106176,0.995564 -0.08356,1.13429 -0.0693,0.05067 -0.113649,0.156742 -0.09859,0.235723 0.03416,0.178871 0.355817,0.243771 0.369298,0.07454 0.01708,-0.214567 0.02699,-0.242634 0.247339,-0.703742 0.190769,-0.399142 0.243701,-0.456366 0.404402,-0.437226 0.1558,0.01855 0.206122,0.0921 0.319713,0.467534 0.07415,0.245031 0.119094,0.510596 0.09991,0.590151 -0.03474,0.144097 0.07163,0.337997 0.18543,0.337997 0.0329,0 0.11395,-0.05406 0.180062,-0.120198 z"
       id="path1012-7" />
  </g>
</svg>
