<?xml version="1.0" encoding="UTF-8" standalone="no"?>
<svg
   sodipodi:docname="logo3.svg"
   inkscape:version="1.2 (dc2aeda, 2022-05-15)"
   id="svg856"
   version="1.1"
   viewBox="0 0 10.073716 9.4846563"
   height="9.4846563mm"
   width="10.073716mm"
   xmlns:inkscape="http://www.inkscape.org/namespaces/inkscape"
   xmlns:sodipodi="http://sodipodi.sourceforge.net/DTD/sodipodi-0.dtd"
   xmlns="http://www.w3.org/2000/svg"
   xmlns:svg="http://www.w3.org/2000/svg"
   xmlns:rdf="http://www.w3.org/1999/02/22-rdf-syntax-ns#"
   xmlns:cc="http://creativecommons.org/ns#"
   xmlns:dc="http://purl.org/dc/elements/1.1/">
  <defs
     id="defs850" />
  <sodipodi:namedview
     inkscape:snap-to-guides="false"
     inkscape:snap-grids="false"
     inkscape:object-nodes="true"
     inkscape:document-rotation="0"
     inkscape:snap-global="true"
     borderlayer="true"
     inkscape:window-maximized="0"
     inkscape:window-y="332"
     inkscape:window-x="1728"
     inkscape:window-height="1295"
     inkscape:window-width="2560"
     showgrid="true"
     inkscape:current-layer="g1422"
     inkscape:document-units="mm"
     inkscape:cy="40.526059"
     inkscape:cx="11.490486"
     inkscape:zoom="11.313708"
     inkscape:pageshadow="2"
     inkscape:pageopacity="0.0"
     borderopacity="1.0"
     bordercolor="#666666"
     pagecolor="#ffffff"
     id="base"
     showguides="true"
     inkscape:guide-bbox="true"
     inkscape:showpageshadow="2"
     inkscape:pagecheckerboard="0"
     inkscape:deskcolor="#d1d1d1">
    <inkscape:grid
       spacingx="2.54"
       spacingy="2.54"
       empspacing="1"
       type="xygrid"
       units="mm"
       id="grid1402"
       originx="-1.618875"
       originy="-1.7715134" />
    <sodipodi:guide
       position="68.760296,-43.271432"
       orientation="0,1"
       id="guide861"
       inkscape:locked="false" />
  </sodipodi:namedview>
  <metadata
     id="metadata853">
    <rdf:RDF>
      <cc:Work
         rdf:about="">
        <dc:format>image/svg+xml</dc:format>
        <dc:type
           rdf:resource="http://purl.org/dc/dcmitype/StillImage" />
      </cc:Work>
    </rdf:RDF>
  </metadata>
  <g
     inkscape:label="F.Silk"
     inkscape:groupmode="layer"
     id="g1422"
     transform="translate(-1.618875,-1.7715133)">
    <g
       id="path24"
       class="cls-2" />
    <g
       id="path26"
       class="cls-2" />
    <g
       id="path28"
       class="cls-2" />
    <g
       id="path30"
       class="cls-2" />
    <g
       id="path32"
       class="cls-2" />
    <g
       id="path34"
       class="cls-2" />
    <g
       id="path36"
       class="cls-2"
       style="display:none" />
    <g
       id="path38"
       class="cls-2">
      <path
         id="path3801"
         style="color:#000000;fill:#1d1d1b;stroke-miterlimit:7;-inkscape-stroke:none"
         d="m 10.691406,4.7246094 c -0.05941,-0.00836 -0.112051,0.021737 -0.15039,0.0625 h -0.002 c -0.095,0.1021102 -0.110931,0.2389695 -0.138672,0.3496093 -0.02774,0.1106399 -0.05614,0.1835972 -0.126953,0.2148438 -0.07625,0.033546 -0.199728,0.046727 -0.3105474,0.068359 -0.1094193,0.022197 -0.2201793,0.039725 -0.3320312,0.056641 -0.024707,0.00368 -0.055058,0.022034 -0.068359,0.046875 -0.013301,0.024841 -0.013364,0.048511 -0.00781,0.068359 0.011104,0.039697 0.057676,0.077867 0.1074219,0.070312 0.1619573,-0.024337 0.323718,-0.05326 0.4843747,-0.087891 0.04841,-0.010257 0.112031,-0.018297 0.175782,-0.039063 0.06375,-0.020765 0.131925,-0.059524 0.173828,-0.1328125 0.02082,-0.036426 0.0245,-0.071272 0.03906,-0.109375 l 0.02344,0.029297 c 0.0031,0.012086 -0.0052,0.025775 0.002,0.035156 0.007,0.00921 0.02263,0.00556 0.0332,0.011719 l 0.05859,0.076172 0.04101,-0.0625 c 0.03009,-0.00884 0.05987,-0.016485 0.08984,-0.025391 v 0.00195 c -0.0014,0.00598 -0.01172,0.00783 -0.01172,0.013672 0,0.00584 0.01028,0.00769 0.01172,0.013672 v 0.085937 l 0.07033,-0.0039 -0.0059,0.03125 c -0.0032,0.00717 -0.01637,0.00842 -0.01758,0.015625 -0.0017,0.010008 0.0039,0.021891 0.0059,0.033203 l -0.0059,-0.00195 h -0.002 L 10.75968,5.527348 10.73819,5.60352 c -0.0038,0.00621 -0.01578,0.00515 -0.01758,0.011719 -2.23e-4,8.166e-4 0.0021,0.00112 0.002,0.00195 -0.04191,-0.00259 -0.08303,-0.0041 -0.128906,0.00195 -0.317888,0.042459 -0.6355382,0.090152 -0.953125,0.1328125 -0.01718,0.00221 -0.014854,0.023318 -0.027344,0.033203 h -0.00781 l -0.017578,0.029297 -0.00391,0.00195 c -0.00621,0.012868 -0.025338,0.018196 -0.025391,0.03125 -8.28e-5,0.02044 0.00572,0.043814 0.025391,0.064453 0.019668,0.02064 0.053226,0.030767 0.078125,0.027344 0.01241,-0.00167 0.024703,-0.00417 0.037109,-0.00586 0.287261,-0.039019 0.575244,-0.081892 0.861328,-0.1210937 0.06074,-0.00829 0.108145,-0.016007 0.144531,-0.013672 0.03639,0.00233 0.06078,0.011318 0.09766,0.042969 0.04212,0.039091 0.08918,0.072353 0.138672,0.1015625 l 0.002,0.00195 c 0.09306,0.049495 0.199944,0.059032 0.304688,0.058594 l 0.07031,0.072266 0.03906,-0.095703 c 0.0096,-0.00907 0.02645,-0.00996 0.03125,-0.021484 0.0045,-0.010723 -0.0059,-0.022888 -0.0059,-0.035156 l 0.02734,-0.068359 c 0.0027,2.339e-4 0.0032,0.00177 0.0059,0.00195 0.02861,0.00189 0.0617,0.00118 0.0957,-0.011719 0.034,-0.012895 0.06933,-0.04448 0.08594,-0.083984 0.02299,-0.056307 -7.83e-4,-0.1212958 -0.03125,-0.1542968 -0.0095,-0.010313 -0.01935,-0.012045 -0.0293,-0.019531 0.05504,-0.00419 0.09695,-0.057019 0.08594,-0.1113281 -0.01206,-0.062733 -0.05223,-0.1148848 -0.09766,-0.140625 0.03332,-0.00993 0.06856,-0.010418 0.101562,-0.021484 0.06201,-0.020896 0.08612,-0.1063003 0.04102,-0.1542969 l -0.002,-0.00391 -0.0039,-0.00195 c -0.0218,-0.018363 -0.05087,-0.00415 -0.07422,-0.017578 -0.01046,-0.00765 -0.02013,-0.014801 -0.03125,-0.021484 h -0.002 l -0.002,-0.00195 c -0.0327,-0.016677 -0.06913,-0.028747 -0.105362,-0.03515 h -0.0039 c -0.02307,-0.00479 -0.04162,0.00762 -0.06445,0.00586 -0.05264,-0.00475 -0.100295,-0.043572 -0.152343,-0.037109 -0.165226,0.020762 -0.316107,0.075158 -0.466797,0.1230469 0.01,-0.029151 0.03126,-0.053575 0.03711,-0.083984 v -0.00195 c 0.0023,-0.013371 0.0069,-0.040933 0.0098,-0.072266 0.0027,-0.029598 0.0074,-0.057624 -0.0059,-0.099609 -0.0042,-0.027698 0.02623,-0.048994 0.01563,-0.076172 -0.0212,-0.05408 -0.06559,-0.1029731 -0.125,-0.1113281 z m -0.04687,0.265625 c -0.0017,0.035852 -0.01193,0.066647 -0.02344,0.1054687 -0.01272,0.044289 -0.02841,0.087754 -0.05274,0.1269531 l -0.0078,0.00195 c 0.02502,-0.078757 0.05782,-0.1623935 0.08203,-0.2265625 v -0.00391 z M 9.6521117,5.8595688 c 0.299039,-0.04029 0.5976263,-0.08466 0.8966653,-0.125637 0.117715,-0.01607 0.209396,-0.03712 0.306962,0.04663 a 0.72122609,0.72122609 0 0 0 0.125865,0.09417 0.55619978,0.55619978 0 0 0 0.319865,0.06203 0.01426153,0.01426153 0 0 0 0.01,-0.02399 1.0779907,1.0779907 0 0 0 -0.496211,-0.287495 l -0.0075,0.02739 0.496437,0.101189 c 0.05523,0.01132 0.1854,0.05705 0.218903,-0.02264 0.02264,-0.05546 -0.03645,-0.09417 -0.07968,-0.111602 -0.07108,-0.02852 -0.158462,-0.03486 -0.233392,-0.04935 l -0.283192,-0.05524 -0.0039,0.02784 0.611209,-0.03146 a 0.01448791,0.01448791 0 0 0 0.01381,-0.01788 c -0.01336,-0.08421 -0.09417,-0.108659 -0.170459,-0.11794 -0.168649,-0.01992 -0.344993,-0.01268 -0.514774,-0.01856 v 0.03011 a 2.9817922,2.9817922 0 0 0 0.741374,-0.148048 0.01448791,0.01448791 0 0 0 0.0063,-0.02377 c -0.107527,-0.09055 -0.237239,-0.106396 -0.373969,-0.08942 -0.205321,0.0258 -0.407472,0.103453 -0.605097,0.161178 l 0.01607,0.02083 c 0.07742,-0.114545 0.149633,-0.30402 0.0953,-0.44324 -0.02875,-0.07335 -0.09055,-0.07968 -0.144199,-0.02264 -0.142163,0.152802 -0.08059,0.490099 -0.292475,0.583591 -0.09621,0.04233 -0.224563,0.05184 -0.3277893,0.07199 -0.111602,0.02264 -0.223657,0.04052 -0.335938,0.0575 -0.01811,0.0027 -0.01041,0.02988 0.0075,0.02716 0.161178,-0.02422 0.321677,-0.05275 0.4810433,-0.08715 0.106849,-0.02264 0.237014,-0.02875 0.296551,-0.132881 0.06678,-0.116809 0.09213,-0.266895 0.139445,-0.392306 a 0.26915813,0.26915813 0 0 1 0.02626,-0.06542 q 0.02852,-0.08874 0.131523,0.02785 c 0.01087,0.03056 -0.0025,0.113187 -0.0068,0.138088 a 0.58087451,0.58087451 0 0 1 -0.09485,0.223883 0.01426153,0.01426153 0 0 0 0.01584,0.02083 c 0.135824,-0.03961 0.271649,-0.0815 0.407473,-0.118846 0.122241,-0.03373 0.258291,-0.06678 0.384834,-0.03939 a 0.29292735,0.29292735 0 0 1 0.08466,0.02784 c 0.04822,0.02897 0.04799,0.03079 0.0014,0.05388 -0.05388,0.02648 -0.123827,0.03599 -0.1811,0.0498 a 2.9181812,2.9181812 0 0 1 -0.472215,0.07108 0.01426153,0.01426153 0 0 0 0,0.0283 l 0.309001,0.01064 c 0.06791,0.0023 0.251501,-0.01969 0.303792,0.03599 0.06995,0.07402 -0.03826,0.05614 -0.07244,0.05795 l -0.174987,0.0079 -0.30583,0.01562 c -0.01494,0 -0.02015,0.02468 -0.0036,0.02785 l 0.304925,0.05931 c 0.04346,0.0086 0.08715,0.01653 0.130618,0.02558 a 0.55235144,0.55235144 0 0 1 0.06791,0.01472 q 0.01924,0.121563 -0.0498,0.09666 c -0.07335,0.0097 -0.194455,-0.03984 -0.268932,-0.05501 l -0.289531,-0.05908 a 0.01426153,0.01426153 0 0 0 -0.0075,0.02739 1.0440347,1.0440347 0 0 1 0.483761,0.280024 l 0.01,-0.02422 c -0.168195,0.01539 -0.299945,-0.04097 -0.425582,-0.147822 -0.09055,-0.07765 -0.153255,-0.07833 -0.271648,-0.06271 -0.316923,0.04233 -0.6338463,0.09055 -0.9523543,0.133334 -0.01788,0.0023 -0.01811,0.03079 0,0.0283 z M 6.0800781,8.8457031 c -0.020492,-8.33e-5 -0.044244,0.0069 -0.064453,0.025391 -0.020209,0.018494 -0.031487,0.051073 -0.029297,0.076172 0.036372,0.3650602 0.066409,0.7312554 0.087891,1.0976569 1e-7,0.02603 0.013748,0.05609 0.033203,0.07227 0.019455,0.01617 0.040155,0.02148 0.060547,0.02148 0.020391,0 0.042624,-0.0043 0.0625,-0.02148 0.019876,-0.01723 0.032539,-0.05023 0.03125,-0.07617 C 6.2399227,9.67081 6.2104532,9.3010857 6.1738281,8.9316406 6.1715648,8.9063479 6.1571851,8.8818145 6.1386719,8.8671875 6.1201586,8.8525605 6.1005703,8.8457864 6.0800781,8.8457031 Z m 0.1024056,1.2001919 q -0.0326,-0.5537102 -0.08738,-1.1062882 c -0.0016,-0.01788 -0.02988,-0.01811 -0.0283,0 q 0.05501,0.552126 0.08738,1.1062882 c 0,0.01811 0.0292,0.01811 0.0283,0 z M 6.7792969,9.8730469 c -0.2724983,0.056747 -0.5498094,0.084073 -0.828125,0.080078 -0.051537,-8.257e-4 -0.095728,0.042207 -0.095703,0.09375 v 0.0039 0.0039 c 0.015412,0.180999 0.013284,0.362543 -0.00781,0.542968 -0.012353,0.102592 -0.03005,0.204335 -0.054687,0.304688 -0.00397,0.0161 -0.017063,0.04585 -0.027344,0.08008 -0.010281,0.03423 -0.020526,0.0742 -0.011719,0.123047 0.00896,0.04944 0.043889,0.08987 0.080078,0.111328 0.036189,0.02145 0.072005,0.03068 0.1074218,0.03516 0.070834,0.009 0.1430145,0.0015 0.1699219,0.002 h 0.00195 c 0.1897339,1.89e-4 0.3795989,-0.0082 0.5683594,-0.02734 0.05319,-0.0047 0.100456,-0.06208 0.1582031,-0.07031 0.1374584,-0.01788 0.2790816,-0.02449 0.40625,-0.107422 0.036471,-0.02422 0.072963,-0.0839 0.1152344,-0.126953 0.024737,-0.02679 0.071392,-0.0079 0.091797,-0.04102 0.047271,-0.07651 0.063516,-0.153621 0.035156,-0.220703 -0.02836,-0.06708 -0.088593,-0.101377 -0.1464843,-0.121093 -0.1157837,-0.03943 -0.2522294,-0.037 -0.3300782,-0.03711 -0.090927,0 -0.1825162,0.0051 -0.2734375,0.0098 0.00354,-0.0053 0.0078,-0.01071 0.011719,-0.01758 v -0.002 c 0.079598,-0.143151 0.128009,-0.306105 0.1308594,-0.480469 9.489e-4,-0.0016 0.00309,-0.0023 0.00391,-0.0039 0.00278,-0.0056 4.128e-4,-0.010094 0.00195,-0.015626 -1.382e-4,-0.011364 0.00848,-0.019746 0.00781,-0.03125 -2.136e-4,-0.00352 -0.00323,-0.00622 -0.00391,-0.00977 -5.585e-4,-0.00305 8.106e-4,-0.00686 0,-0.00977 -0.00387,-0.013896 -0.014926,-0.025616 -0.025391,-0.037109 -0.00261,-0.0028 -0.00301,-0.00745 -0.00586,-0.00977 -5.4e-4,-4.378e-4 -0.00141,4.225e-4 -0.00195,0 -0.00197,-0.00163 -0.00174,-0.00433 -0.00391,-0.00586 -0.00682,-0.00481 -0.016843,-0.00304 -0.025391,-0.00586 -0.00977,-0.00313 -0.019399,-0.00977 -0.029297,-0.00977 -0.00247,0 -0.00529,0.00177 -0.00781,0.00195 -0.0034,2.406e-4 -0.00649,-0.00258 -0.00977,-0.00195 z M 6.6660156,10.080078 c -0.023638,0.166593 -0.079031,0.326895 -0.1796875,0.486328 l -0.00195,0.002 v 0.002 c -0.033455,0.05916 0.012117,0.139699 0.080078,0.140625 h 0.00391 0.00391 c 0.180832,-0.01505 0.3615445,-0.02104 0.5429688,-0.01758 0.060246,0.0012 0.134434,0.003 0.1679687,0.01563 0.016767,0.0063 0.019738,0.0101 0.021484,0.01367 0.00175,0.0036 0.00475,0.0164 -0.00586,0.05274 -0.00393,0.01121 -0.034406,0.03098 -0.050781,0.04883 -0.097204,0.107887 -0.2511024,0.14447 -0.4101563,0.171875 -0.059847,0.0093 -0.1078555,0.03759 -0.1699219,0.04297 h -0.00195 c -0.1837379,0.01874 -0.3680443,0.02796 -0.5527344,0.02734 -0.040883,0 -0.081683,-0.0024 -0.1230468,-0.0059 -0.038698,-0.0031 -0.031105,-0.0053 -0.029297,-0.002 0.00181,0.0033 -0.00454,-0.01762 0,-0.05859 0.00915,-0.08406 0.045824,-0.182692 0.0625,-0.291016 0.027265,-0.177279 0.03641,-0.357887 0.029297,-0.537109 -7.242e-4,-0.01639 -0.00231,-0.02255 -0.00391,-0.0332 0.00612,2.99e-4 0.011746,-2.74e-4 0.017578,0 0.010369,4.87e-4 0.017145,0.0014 0.033203,0 l -0.00586,0.002 c 0.09071,-0.0023 0.1810831,-0.0076 0.2714844,-0.01563 0.1012958,-0.0082 0.2006064,-0.02808 0.3007812,-0.04492 z M 6.7964087,9.9519498 a 3.8775523,3.8775523 0 0 1 -0.846184,0.08104 0.01403516,0.01403516 0 0 0 -0.01426,0.01404 2.7843945,2.7843945 0 0 1 -0.0088,0.559596 2.642911,2.642911 0 0 1 -0.05727,0.314207 c -0.01223,0.04958 -0.04663,0.117487 -0.03712,0.170232 0.01924,0.106169 0.206226,0.08195 0.280024,0.08331 a 5.4834461,5.4834461 0 0 0 0.561858,-0.0283 c 0.256256,-0.02264 0.561633,-0.06655 0.709682,-0.30651 0.159593,-0.258291 -0.216866,-0.256707 -0.37329,-0.256934 q -0.148728,0 -0.297455,0.0084 c -0.0206,0 -0.104811,0.01901 -0.114998,-0.0014 -0.0052,-0.01064 0.07244,-0.119978 0.08149,-0.135824 0.08421,-0.151444 0.144427,-0.311943 0.13424,-0.4876112 -0.0011,-0.01811 -0.02943,-0.01811 -0.0283,0 0.01381,0.2410902 -0.108886,0.4464112 -0.232939,0.6429032 a 0.01426153,0.01426153 0 0 0 0.01222,0.02128 5.4103274,5.4103274 0 0 1 0.5519,-0.01766 c 0.113186,0.0023 0.31579,-0.0091 0.259198,0.184721 -0.02264,0.07448 -0.113187,0.143067 -0.174535,0.183815 -0.155518,0.101415 -0.34703,0.121563 -0.527224,0.137182 a 5.357809,5.357809 0 0 1 -0.561406,0.02762 c -0.04346,0 -0.08715,-0.0021 -0.130391,-0.0057 -0.103227,-0.0084 -0.11115,-0.05954 -0.101189,-0.149406 0.01064,-0.09779 0.04708,-0.197172 0.06203,-0.294286 a 2.7164824,2.7164824 0 0 0 0.02943,-0.52066 c -0.0014,-0.03169 -0.02083,-0.09417 0.01177,-0.114771 0.01335,-0.0084 0.09055,0 0.107074,-0.0014 q 0.133561,-0.0034 0.266668,-0.01516 a 3.4791348,3.4791348 0 0 0 0.445729,-0.06542 c 0.01789,-0.0041 0.01019,-0.03124 -0.0075,-0.02739 z M 6.3085937,8.8535156 c -0.020442,0 -0.042754,0.00638 -0.0625,0.023437 -0.019746,0.017053 -0.032219,0.046447 -0.03125,0.072266 v 0.00195 l 0.048828,1.0781254 c 0,0.02603 0.013749,0.05609 0.033203,0.07227 0.019454,0.01617 0.042106,0.02148 0.0625,0.02148 0.020394,0 0.040667,-0.0062 0.060547,-0.02344 0.01988,-0.01724 0.034507,-0.04827 0.033203,-0.07422 L 6.4023437,8.9472656 c 10e-8,-0.025864 -0.013773,-0.056012 -0.033203,-0.072266 -0.01943,-0.016253 -0.040105,-0.021484 -0.060547,-0.021484 z m -0.014281,0.093562 0.0498,1.0822914 c 0,0.01811 0.0292,0.01811 0.02829,0 l -0.0498,-1.0822914 c 0,-0.01811 -0.02898,-0.01811 -0.0283,0 z M 4.0136719,7.2832031 c -0.3733449,0.050038 -0.7464046,0.1067545 -1.1171875,0.171875 -0.024725,0.00443 -0.053762,0.02453 -0.066406,0.048828 -0.012644,0.024298 -0.011307,0.048516 -0.00586,0.068359 0.010895,0.039687 0.057888,0.076518 0.1074218,0.068359 0.3668581,-0.06455 0.7342494,-0.122365 1.103516,-0.1718741 h 0.00195 C 4.0873562,7.46164 4.1189802,7.415549 4.1191372,7.375 4.119216,7.354725 4.1133572,7.331244 4.0937462,7.310547 4.0745672,7.290302 4.0404212,7.28038 4.0156212,7.283203 Z M 2.9179517,7.5618978 q 0.551898,-0.09711 1.107419,-0.171591 c 0.01766,-0.0025 0.01788,-0.03079 0,-0.0283 q -0.559369,0.07493 -1.11489,0.172496 c -0.01788,0.0032 -0.01041,0.03034 0.0075,0.02739 z M 1.9082031,6.4160156 c -0.03881,0.01584 -0.037785,0.059554 -0.066406,0.085937 -0.00514,0.00406 -0.010535,0.0034 -0.015625,0.00781 -0.016121,0.013971 -0.014183,0.034871 -0.027344,0.050781 -0.049443,0.066602 -0.1222575,0.123129 -0.1425781,0.1875 C 1.602487,6.9192877 1.617163,7.0947595 1.638672,7.2539029 1.662521,7.4320143 1.690404,7.6130276 1.730469,7.7910123 l -0.00195,-0.00195 c 0.017288,0.091653 0.042374,0.1818664 0.074219,0.2695313 l 0.00195,0.00195 c 0.00613,0.015223 0.013125,0.037406 0.029297,0.0625 0.016171,0.025094 0.04585,0.053851 0.085937,0.066406 0.054543,0.017184 0.1012045,1.888e-4 0.1347656,-0.015625 0.033561,-0.015814 0.059646,-0.034225 0.072266,-0.041016 C 2.215997,8.0853737 2.3084217,8.0427064 2.4023438,8.0058594 2.5877562,7.933568 2.7816873,7.8828826 2.9785156,7.8535156 h 0.00586 l 0.00586,-0.00195 c 0.04829,-0.014331 0.075773,-0.066643 0.0625,-0.1152344 l 0.00195,0.00195 C 2.9867102,7.4682936 2.9469212,7.190423 2.9394531,6.9121094 v -0.00391 -0.00391 c -2.564e-4,-0.00204 -0.00349,-0.00191 -0.00391,-0.00391 -5.532e-4,-0.00298 7.869e-4,-0.00694 0,-0.00977 -0.00245,-0.0088 -0.017861,-0.00754 -0.023437,-0.015625 l -0.00195,-0.037109 -0.048828,-0.00195 c -0.0069,-0.0019 -0.00889,-0.013672 -0.015625,-0.013672 -0.00316,0 -0.00459,0.00543 -0.00781,0.00586 -0.00436,3.35e-5 -0.00533,-0.00659 -0.00977,-0.00586 h -0.00195 c -0.1414098,0.027004 -0.27339,0.088485 -0.3847668,0.1796997 -0.038891,0.031395 -0.072941,0.067377 -0.109375,0.1015625 -0.00342,-0.019797 -0.00772,-0.038103 -0.011719,-0.058594 C 2.2914072,6.8963984 2.2697998,6.7145884 2.1933594,6.5566406 2.1717204,6.5120963 2.1419507,6.467872 2.09375,6.4355469 2.0455493,6.4032217 1.9732539,6.3898574 1.9082031,6.4160156 Z m 0.080078,0.1816406 c 0.00277,1.478e-4 0.00604,6.966e-4 0.017578,0.015625 0.023072,0.029857 0.046391,0.1073095 0.060547,0.1621094 0.04508,0.1758116 0.082386,0.3537219 0.109375,0.5332031 v 0.00781 l 0.00195,0.00586 c 0.020275,0.061404 0.1039641,0.083922 0.1523437,0.041016 l 0.00195,-0.00195 0.00195,-0.00195 C 2.4658653,7.2249227 2.6092519,7.1333006 2.765625,7.0722656 2.772335,7.1734666 2.777597,7.2746995 2.792969,7.375 c 0.013063,0.089605 0.028282,0.1786069 0.046875,0.2675781 0.00377,0.018952 0.00737,0.030134 0.011719,0.042969 -0.00861,9.782e-4 -0.013169,-3.792e-4 -0.025391,0.00195 -0.1741412,0.032958 -0.3432584,0.08261 -0.5078125,0.1484375 -0.070754,0.028144 -0.1407297,0.059698 -0.2089844,0.09375 -0.027229,0.013412 -0.046215,0.028497 -0.066406,0.041016 -0.020191,0.012519 -0.045914,0.016415 -0.023437,0.015625 -0.023971,7.625e-4 -0.028805,-0.00339 -0.037109,-0.011719 -0.0083,-0.00832 -0.017528,-0.026199 -0.025391,-0.052734 C 1.9106472,7.7537185 1.875526,7.5829389 1.8515625,7.4101562 1.8201582,7.2086442 1.7812217,7.0080502 1.8261719,6.8320312 h 0.00195 c 0.019108,-0.075407 0.057832,-0.1615818 0.1035156,-0.2011718 0.035743,-0.030959 0.053867,-0.033351 0.056641,-0.033203 z m 0.8443276,0.3170406 a 3.4653261,3.4653261 0 0 0 0.03916,0.448898 q 0.01924,0.131976 0.04663,0.263046 c 0.0045,0.02264 0.03146,0.08806 0.02264,0.104585 -0.01607,0.03214 -0.06972,0.02988 -0.09938,0.03554 a 2.6657747,2.6657747 0 0 0 -0.4944,0.1442 q -0.103,0.04097 -0.202378,0.09055 c -0.03033,0.01494 -0.09055,0.06361 -0.122694,0.06474 -0.08489,0.0027 -0.122242,-0.05501 -0.142163,-0.122242 a 4.0631786,4.0631786 0 0 1 -0.107757,-0.522244 c -0.03101,-0.198982 -0.07357,-0.409283 -0.02264,-0.608718 0.02128,-0.08398 0.06157,-0.184495 0.129486,-0.243352 0.179288,-0.155292 0.23724,0.07719 0.26531,0.185853 a 5.4302484,5.4302484 0 0 1 0.109791,0.541259 0.01403516,0.01403516 0 0 0 0.02264,0.0061 c 0.162536,-0.165705 0.334806,-0.333448 0.572272,-0.374422 0.01811,-0.0032 0.01041,-0.03033 -0.0075,-0.02739 a 0.78347879,0.78347879 0 0 0 -0.349521,0.163441 1.9343619,1.9343619 0 0 0 -0.171365,0.156198 c -0.04007,0.03961 -0.03894,0.05048 -0.05207,-0.01449 -0.0095,-0.04867 -0.01675,-0.09779 -0.02626,-0.146463 -0.02965,-0.15235 -0.05206,-0.326883 -0.120204,-0.467688 -0.03486,-0.07176 -0.09802,-0.135824 -0.183589,-0.101415 -0.105942,0.04324 -0.173854,0.178609 -0.206226,0.281156 -0.04776,0.152123 -0.03599,0.314659 -0.01494,0.470404 0.02377,0.177703 0.05116,0.356312 0.09055,0.531299 a 1.6461884,1.6461884 0 0 0 0.0704,0.256934 c 0.01313,0.0326 0.02716,0.07153 0.06474,0.0833 0.04958,0.01562 0.107527,-0.02988 0.146237,-0.05071 a 2.6965616,2.6965616 0 0 1 0.284778,-0.13107 2.7465901,2.7465901 0 0 1 0.592419,-0.157556 0.01426153,0.01426153 0 0 0 0.0097,-0.01743 3.8757413,3.8757413 0 0 1 -0.115904,-0.842336 0.01426153,0.01426153 0 0 0 -0.0283,0 z M 4.0058594,7.046875 3.9414064,7.058594 2.8652345,7.261719 c -0.024706,0.0047 -0.05207,0.024545 -0.064453,0.048828 -0.012383,0.024283 -0.01136,0.048605 -0.00586,0.068359 0.011002,0.039509 0.057549,0.077296 0.1074219,0.068359 L 4.0429687,7.2304687 h 0.00195 c 0.020319,-0.00386 0.038467,-0.020869 0.052734,-0.039063 h 0.00391 v -0.00195 c 0.00196,-0.00279 0.00629,-0.0029 0.00781,-0.00586 0.012457,-0.024125 0.011361,-0.048397 0.00586,-0.068359 C 4.109733,7.0952722 4.0994667,7.0764914 4.0800781,7.0625 4.0606895,7.0485086 4.0305118,7.042195 4.0058594,7.046875 Z m 0.033203,0.15625 -0.00195,0.00195 c -0.00115,2.177e-4 -0.00271,-1.375e-4 -0.00391,0 z m -0.01754,-0.077222 -1.140697,0.215055 c -0.01788,0.0034 -0.01019,0.03056 0.0075,0.02739 l 1.140696,-0.215507 c 0.01788,-0.0034 0.01041,-0.03056 -0.0075,-0.02716 z M 8.3554688,1.7929687 c -0.048665,-0.04073 -0.1278058,-0.018997 -0.1484375,0.041016 -0.01183,0.035998 -0.011012,0.074952 -0.021484,0.1113281 -0.00108,-0.002 -8.062e-4,-0.00387 -0.00195,-0.00586 -0.025801,-0.044829 -0.078525,-0.083662 -0.140625,-0.095703 -0.052829,-0.00967 -0.1058132,0.028608 -0.1113282,0.082031 -0.00588,-0.00743 -0.00628,-0.014283 -0.013672,-0.021484 -0.03345,-0.032592 -0.1034106,-0.05835 -0.1621093,-0.033203 -0.039604,0.017237 -0.07018,0.053856 -0.082031,0.087891 -0.011851,0.034035 -0.012061,0.065339 -0.00977,0.09375 2.853e-4,0.00353 0.00158,0.00432 0.00195,0.00781 l -0.2207031,0.091797 0.074219,0.070312 c 1.07e-5,0.098744 0.00644,0.1982494 0.050781,0.2871093 h 0.00195 v 0.00195 c 0.024768,0.046719 0.054939,0.089184 0.089844,0.1289062 h -0.00195 c 0.063475,0.074908 0.075824,0.1008804 0.064453,0.1933594 -0.03866,0.3165097 -0.079269,0.6310389 -0.1191407,0.9472656 -0.00257,0.018595 0.00832,0.039492 0.019531,0.058594 l -0.00195,0.021484 0.021484,0.00195 c 0.017707,0.012318 0.035942,0.021552 0.052734,0.021484 0.04038,-1.634e-4 0.086468,-0.032597 0.09375,-0.082031 8.67e-5,-5.885e-4 0.00188,5.934e-4 0.00195,0 l 0.00977,-0.080078 H 7.800784 C 7.837426,3.4329224 7.876819,3.1433135 7.9121122,2.8535066 c 0.00501,-0.040845 -0.026944,-0.070598 -0.03125,-0.1074218 0.010559,5.412e-4 0.02161,0.00462 0.03125,0.00195 0.014913,-0.00412 0.026894,-0.017162 0.039063,-0.029297 l 0.046875,-0.011719 -0.019531,-0.068359 v -0.00391 l -0.00195,-0.00391 c 0.011255,0.00206 0.023128,0.00748 0.033203,0.00586 0.0084,-0.00135 0.00941,-0.015585 0.017578,-0.019531 l 0.03125,-0.00391 -0.00391,0.068359 h 0.083984 c 0.0069,0.0019 0.00889,0.013672 0.015625,0.013672 0.00674,0 0.00873,-0.011772 0.015625,-0.013672 4.881e-4,-1.345e-4 0.00147,1.434e-4 0.00195,0 -0.00852,0.02935 -0.016942,0.058402 -0.025391,0.087891 l -0.0625,0.042969 0.074219,0.056641 c 0.00628,0.011277 0.00203,0.027782 0.011719,0.035156 0.00921,0.00701 0.023322,-0.00116 0.035156,0.00195 l 0.029297,0.023437 C 8.1969808,2.944449 8.162995,2.9477691 8.1269531,2.96875 8.0578658,3.0088158 8.0200975,3.0731765 8,3.1328125 7.9799025,3.1924485 7.9727906,3.2499538 7.9628906,3.296875 7.9276226,3.4633754 7.8989955,3.6308644 7.875,3.7988281 c -0.00702,0.050195 0.029235,0.094472 0.068359,0.1054688 0.019562,0.0055 0.045256,0.00535 0.070312,-0.00781 0.025057,-0.013165 0.04338,-0.04326 0.046875,-0.068359 0.0157,-0.1103933 0.032369,-0.218688 0.052734,-0.328125 0.020938,-0.110033 0.031675,-0.2328355 0.064453,-0.3085937 0.015017,-0.035141 0.038114,-0.057678 0.074219,-0.078125 0.036105,-0.020447 0.08529,-0.036444 0.140625,-0.050781 0.1106695,-0.028674 0.248353,-0.046778 0.3496094,-0.1425781 0.040641,-0.038344 0.069346,-0.091307 0.060547,-0.1503906 -0.0088,-0.059083 -0.056681,-0.1041498 -0.1113281,-0.125 -0.030035,-0.011506 -0.0534,0.021309 -0.083984,0.017578 -0.012252,-0.00292 -0.02714,-0.01134 -0.037109,-0.011719 -0.018836,-7.154e-4 -0.036261,0.00189 -0.052734,0.00391 -0.032946,0.00404 -0.063518,0.00972 -0.074219,0.011719 h -0.00195 c -0.030956,0.00618 -0.056324,0.026637 -0.085937,0.037109 C 8.4022693,2.5523488 8.4571226,2.401505 8.476566,2.2363346 8.482686,2.1845796 8.442551,2.1366456 8.437503,2.0839909 8.435473,2.0598629 8.448827,2.0399979 8.443363,2.0156319 v -0.00195 c -0.00259,-0.011318 -0.00643,-0.032903 -0.013672,-0.056641 -0.00724,-0.023738 -0.01508,-0.050573 -0.044922,-0.080078 -3.356e-4,-5.783e-4 3.386e-4,-0.00138 0,-0.00195 -0.013731,-0.02342 -7.281e-4,-0.052412 -0.019531,-0.074219 l -0.00391,-0.00391 z M 7.703125,2.0898438 c -7.893e-4,0.01083 0.00566,0.016666 0.00586,0.027344 5.652e-4,0.00188 -0.00261,0.00406 -0.00195,0.00586 z m 0.8398438,0.7246093 c -0.069687,0.027319 -0.1565352,0.062409 -0.2402344,0.089844 l 0.00195,-0.00781 c 0.038966,-0.024811 0.080816,-0.041445 0.125,-0.054687 0.041925,-0.012962 0.074905,-0.025852 0.1132813,-0.027344 z M 7.7125427,3.7920998 c 0.03984,-0.316923 0.08104,-0.631809 0.119525,-0.947826 0.01358,-0.110697 0.0038,-0.166384 -0.06791,-0.250595 -0.106621,-0.126996 -0.165252,-0.25535 -0.151217,-0.424677 l -0.02422,0.01 a 1.0458457,1.0458457 0 0 1 0.284778,0.482855 0.01408825,0.01408825 0 0 0 0.02716,-0.0075 l -0.06112,-0.289079 c -0.01721,-0.08082 -0.06271,-0.18789 -0.05682,-0.268705 q -0.02422,-0.06655 0.08353,-0.08014 a 0.37283721,0.37283721 0 0 1 0.02784,0.09802 c 0.01041,0.04301 0.01766,0.08715 0.02648,0.130618 l 0.06157,0.303567 c 0.0032,0.01607 0.02717,0.01155 0.02785,-0.0038 l 0.01336,-0.305831 0.0068,-0.153028 c 0.0014,-0.03396 -0.01924,-0.166612 0.05841,-0.09485 0.05795,0.05365 0.03554,0.236108 0.03826,0.303567 l 0.01268,0.309 a 0.01426153,0.01426153 0 0 0 0.0283,0 2.9297263,2.9297263 0 0 1 0.06293,-0.452747 c 0.01336,-0.05999 0.02264,-0.148501 0.05342,-0.203736 0.02082,-0.03668 0.0077,-0.05048 0.04527,-0.0129 0.02038,0.02015 0.02988,0.07131 0.03599,0.09802 0.02716,0.121109 -0.0014,0.2515 -0.03214,0.369215 -0.03735,0.141936 -0.08014,0.28274 -0.120204,0.423997 a 0.01426153,0.01426153 0 0 0 0.02083,0.01585 0.58132724,0.58132724 0 0 1 0.223204,-0.09643 c 0.02784,-0.0052 0.113187,-0.02468 0.137862,-0.0079 l 0.05365,0.119073 a 0.20192519,0.20192519 0 0 1 -0.05795,0.02694 c -0.135824,0.05705 -0.296323,0.08059 -0.423093,0.154386 -0.09915,0.0575 -0.104584,0.172724 -0.126316,0.275723 -0.03486,0.164574 -0.06361,0.330279 -0.08738,0.496664 -0.0025,0.01788 0.0249,0.02558 0.02739,0.0077 0.01584,-0.111376 0.03373,-0.222299 0.05433,-0.332996 0.01947,-0.10232 0.02807,-0.229542 0.0695,-0.325298 0.09055,-0.211886 0.43011,-0.153708 0.581327,-0.296776 0.05591,-0.05275 0.04935,-0.115677 -0.02422,-0.143747 -0.139445,-0.05342 -0.32892,0.02038 -0.442559,0.09825 l 0.0206,0.01607 c 0.05659,-0.198303 0.132654,-0.400681 0.156877,-0.606454 0.01607,-0.135824 0,-0.266216 -0.09213,-0.373064 a 0.01426153,0.01426153 0 0 0 -0.02264,0.0063 2.9745483,2.9745483 0 0 0 -0.142841,0.742505 h 0.0283 c -0.007,-0.16978 0,-0.346351 -0.02264,-0.514773 -0.0097,-0.07583 -0.03486,-0.156877 -0.119072,-0.169554 a 0.01448791,0.01448791 0 0 0 -0.01811,0.01358 l -0.02671,0.611208 0.02762,-0.0038 c -0.03305,-0.163668 -0.04776,-0.350426 -0.104811,-0.507529 -0.01675,-0.04527 -0.05795,-0.113187 -0.117261,-0.08648 -0.07697,0.0335 -0.02988,0.165479 -0.01879,0.218224 l 0.105038,0.495758 0.02717,-0.0075 a 1.0784435,1.0784435 0 0 0 -0.289532,-0.492362 0.01448791,0.01448791 0 0 0 -0.02422,0.01 0.55914265,0.55914265 0 0 0 0.05614,0.304472 0.59875799,0.59875799 0 0 0 0.07923,0.114772 c 0.0704,0.08308 0.09621,0.147369 0.08285,0.256028 -0.03871,0.316923 -0.07968,0.631808 -0.119525,0.947826 -0.0025,0.01811 0.02603,0.01788 0.0283,0 z m -3.6891052,5.0672752 0.00391,0.1601563 c 1.877101,-0.064316 3.7505879,-0.1035986 5.6074219,0 l 0.00977,-0.1601563 c -1.8650563,-0.1040573 -3.7425885,-0.064364 -5.6210938,0 z M 9.5703125,4.1484375 C 9.5078106,5.7836989 9.5031111,7.3825324 9.5585938,8.9433594 L 9.71875,8.9375 C 9.6634128,7.3807641 9.6681108,5.7857902 9.7304688,4.1542969 Z m -5.4648438,-0.013672 -0.1601562,0.00977 c 0.098596,1.6276766 0.071162,3.2158668 0,4.7910157 l 0.1601562,0.00781 c 0.071297,-1.578134 0.099084,-3.1728576 0,-4.8085938 z M 8.6621094,3.6582031 8.5820313,3.796875 c 0.313028,0.1803172 0.6367296,0.371196 1.0566406,0.4335937 L 9.6621089,4.0722656 C 9.2776067,4.0151296 8.9762502,3.8391616 8.6621094,3.6582031 Z M 8.6894531,7.3984375 8.5566406,7.4882812 9.5742188,8.984375 9.7050781,8.8945313 Z M 4.8359375,7.4042969 3.9570313,8.8984375 4.09375,8.9804688 4.9746094,7.484375 Z M 4.8632812,3.6601563 C 4.3851179,3.9609474 4.2098962,4.0009321 4.0019531,4.0644531 l 0.046875,0.1523438 C 4.2514086,4.154914 4.4611531,4.1019421 4.9492187,3.7949219 Z m -0.052734,-0.029297 0.015625,0.1074219 c 0.1809819,1.1833464 0.1809338,2.5242445 0,3.6933593 l -0.015625,0.1054688 0.1054687,-0.013672 c 1.3549767,-0.1676259 2.5244853,-0.1672609 3.6953125,0 l 0.1054688,0.015625 -0.015625,-0.1054688 c -0.1671101,-1.1697712 -0.1671513,-2.5113234 0,-3.6953124 l 0.015625,-0.1074219 -0.1054688,0.017578 c -1.1691147,0.1809348 -2.510013,0.1809829 -3.6933594,0 z M 4.984375,3.8066406 c 1.1495717,0.1663876 2.4213827,0.1662462 3.5585938,0 -0.1533375,1.1491083 -0.1535412,2.4221587 0,3.5585938 -1.1287605,-0.1533058 -2.2660662,-0.1533261 -3.5585938,0 0.166163,-1.1366137 0.1661219,-2.4094826 0,-3.5585938 z" />
    </g>
  </g>
</svg>
