<?xml version="1.0" encoding="UTF-8" standalone="no"?>
<svg
   xmlns:dc="http://purl.org/dc/elements/1.1/"
   xmlns:cc="http://creativecommons.org/ns#"
   xmlns:rdf="http://www.w3.org/1999/02/22-rdf-syntax-ns#"
   xmlns:svg="http://www.w3.org/2000/svg"
   xmlns="http://www.w3.org/2000/svg"
   xmlns:sodipodi="http://sodipodi.sourceforge.net/DTD/sodipodi-0.dtd"
   xmlns:inkscape="http://www.inkscape.org/namespaces/inkscape"
   sodipodi:docname="logo3.svg"
   inkscape:version="0.92.4 (5da689c313, 2019-01-14)"
   id="svg856"
   version="1.1"
   viewBox="0 0 150.0 130.0"
   height="130.0mm"
   width="150.0mm">
  <defs
     id="defs850" />
  <sodipodi:namedview
     inkscape:snap-to-guides="false"
     inkscape:snap-grids="false"
     inkscape:object-nodes="true"
     inkscape:document-rotation="0"
     inkscape:snap-global="true"
     borderlayer="true"
     inkscape:window-maximized="1"
     inkscape:window-y="27"
     inkscape:window-x="0"
     inkscape:window-height="1019"
     inkscape:window-width="1920"
     showgrid="true"
     inkscape:current-layer="g1422"
     inkscape:document-units="mm"
     inkscape:cy="465.6587"
     inkscape:cx="9.1496048"
     inkscape:zoom="7.9999996"
     inkscape:pageshadow="2"
     inkscape:pageopacity="0.0"
     borderopacity="1.0"
     bordercolor="#666666"
     pagecolor="#ffffff"
     id="base"
     showguides="true"
     inkscape:guide-bbox="true">
    <inkscape:grid
       spacingx="2.54"
       spacingy="2.54"
       empspacing="1"
       type="xygrid"
       units="mm"
       id="grid1402" />
    <sodipodi:guide
       position="70.379169,75.472398"
       orientation="0,1"
       id="guide861"
       inkscape:locked="false" />
  </sodipodi:namedview>
  <metadata
     id="metadata853">
    <rdf:RDF>
      <cc:Work
         rdf:about="">
        <dc:format>image/svg+xml</dc:format>
        <dc:type
           rdf:resource="http://purl.org/dc/dcmitype/StillImage" />
        <dc:title />
      </cc:Work>
    </rdf:RDF>
  </metadata>
  <g
     inkscape:label="[fixed] BG"
     inkscape:groupmode="layer"
     sodipodi:insensitive="true"
     id="g1408">
    <rect
       x="0"
       y="0"
       width="150.0"
       height="130.0"
       style="stroke:none;fill-opacity:1;fill:#FFFFFF"
       id="rect1406" />
  </g>
  <g
     inkscape:label="Edge.Cuts"
     inkscape:groupmode="layer"
     id="g1410" />
  <g
     inkscape:label="B.Cu-disabled"
     inkscape:groupmode="layer"
     id="g1412" />
  <g
     inkscape:label="B.Mask-disabled"
     inkscape:groupmode="layer"
     id="g1414" />
  <g
     inkscape:label="B.Silk-disabled"
     inkscape:groupmode="layer"
     id="g1416" />
  <g
     inkscape:label="F.Cu-disabled"
     inkscape:groupmode="layer"
     id="g1418" />
  <g
     inkscape:label="F.Mask-disabled"
     inkscape:groupmode="layer"
     id="g1420" />
  <g
     inkscape:label="F.Silk"
     inkscape:groupmode="layer"
     id="g1422">
    <path
       sodipodi:nodetypes="ccccc"
       id="rect8"
       d="m 4.9058337,3.7270008 c 1.192246,0.182344 2.538783,0.182344 3.717003,0 -0.168317,1.192246 -0.168317,2.538783 0,3.717003 -1.17822,-0.168317 -2.35644,-0.168317 -3.717003,0 0.182343,-1.17822 0.182343,-2.524757 0,-3.717003 z"
       style="fill:none;stroke:#1d1d1b;stroke-width:0.16;stroke-miterlimit:7;stroke-dasharray:none;stroke-opacity:1"
       inkscape:connector-curvature="0" />
    <path
       sodipodi:nodetypes="cc"
       id="line10"
       d="m 4.9058337,3.7270008 c -0.483115,0.303906 -0.675201,0.350786 -0.880463,0.413488"
       style="fill:none;stroke:#1d1d1b;stroke-width:0.16;stroke-miterlimit:7;stroke-dasharray:none;stroke-opacity:1"
       inkscape:connector-curvature="0" />
    <path
       sodipodi:nodetypes="cc"
       id="line12"
       d="m 4.9058337,7.4440038 -0.880463,1.495603"
       style="fill:none;stroke:#1d1d1b;stroke-width:0.16;stroke-miterlimit:7;stroke-dasharray:none;stroke-opacity:1"
       inkscape:connector-curvature="0" />
    <path
       sodipodi:nodetypes="cc"
       id="line14"
       d="m 8.6228367,7.4440038 1.016598,1.495603"
       style="fill:none;stroke:#1d1d1b;stroke-width:0.16;stroke-miterlimit:7;stroke-dasharray:none;stroke-opacity:1"
       inkscape:connector-curvature="0" />
    <path
       sodipodi:nodetypes="cc"
       id="line16"
       d="m 8.6228367,3.7270008 c 0.313585,0.180638 0.624577,0.364813 1.026784,0.42458"
       style="fill:none;stroke:#1d1d1b;stroke-width:0.16;stroke-miterlimit:7;stroke-dasharray:none;stroke-opacity:1"
       inkscape:connector-curvature="0" />
    <path
       sodipodi:nodetypes="cc"
       id="line18"
       d="m 4.0253707,4.1404888 c 0.09884,1.631708 0.07123,3.222475 0,4.799118"
       style="fill:none;stroke:#1d1d1b;stroke-width:0.16;stroke-miterlimit:7;stroke-dasharray:none;stroke-opacity:1"
       inkscape:connector-curvature="0" />
    <path
       sodipodi:nodetypes="cc"
       id="line20"
       d="m 9.6496207,4.1515808 c -0.06243,1.633379 -0.0656,3.229243 -0.01019,4.788026"
       style="fill:none;stroke:#1d1d1b;stroke-width:0.16;stroke-miterlimit:7;stroke-dasharray:none;stroke-opacity:1"
       inkscape:connector-curvature="0" />
    <path
       sodipodi:nodetypes="cc"
       id="line22"
       d="m 4.0253707,8.9396068 c 1.877805,-0.06434 3.753117,-0.103828 5.614064,0"
       style="fill:none;stroke:#1d1d1b;stroke-width:0.16;stroke-miterlimit:7;stroke-dasharray:none;stroke-opacity:1"
       inkscape:connector-curvature="0" />
    <path
       style="stroke:#1d1d1b;stroke-width:0.16;stroke-miterlimit:7;stroke-dasharray:none;stroke-opacity:1"
       id="path24"
       d="m 7.7125427,3.7920998 c 0.03984,-0.316923 0.08104,-0.631809 0.119525,-0.947826 0.01358,-0.110697 0.0038,-0.166384 -0.06791,-0.250595 -0.106621,-0.126996 -0.165252,-0.25535 -0.151217,-0.424677 l -0.02422,0.01 a 1.0458457,1.0458457 0 0 1 0.284778,0.482855 0.01408825,0.01408825 0 0 0 0.02716,-0.0075 l -0.06112,-0.289079 c -0.01721,-0.08082 -0.06271,-0.18789 -0.05682,-0.268705 q -0.02422,-0.06655 0.08353,-0.08014 a 0.37283721,0.37283721 0 0 1 0.02784,0.09802 c 0.01041,0.04301 0.01766,0.08715 0.02648,0.130618 l 0.06157,0.303567 c 0.0032,0.01607 0.02717,0.01155 0.02785,-0.0038 l 0.01336,-0.305831 0.0068,-0.153028 c 0.0014,-0.03396 -0.01924,-0.166612 0.05841,-0.09485 0.05795,0.05365 0.03554,0.236108 0.03826,0.303567 l 0.01268,0.309 a 0.01426153,0.01426153 0 0 0 0.0283,0 2.9297263,2.9297263 0 0 1 0.06293,-0.452747 c 0.01336,-0.05999 0.02264,-0.148501 0.05342,-0.203736 0.02082,-0.03668 0.0077,-0.05048 0.04527,-0.0129 0.02038,0.02015 0.02988,0.07131 0.03599,0.09802 0.02716,0.121109 -0.0014,0.2515 -0.03214,0.369215 -0.03735,0.141936 -0.08014,0.28274 -0.120204,0.423997 a 0.01426153,0.01426153 0 0 0 0.02083,0.01585 0.58132724,0.58132724 0 0 1 0.223204,-0.09643 c 0.02784,-0.0052 0.113187,-0.02468 0.137862,-0.0079 l 0.05365,0.119073 a 0.20192519,0.20192519 0 0 1 -0.05795,0.02694 c -0.135824,0.05705 -0.296323,0.08059 -0.423093,0.154386 -0.09915,0.0575 -0.104584,0.172724 -0.126316,0.275723 -0.03486,0.164574 -0.06361,0.330279 -0.08738,0.496664 -0.0025,0.01788 0.0249,0.02558 0.02739,0.0077 0.01584,-0.111376 0.03373,-0.222299 0.05433,-0.332996 0.01947,-0.10232 0.02807,-0.229542 0.0695,-0.325298 0.09055,-0.211886 0.43011,-0.153708 0.581327,-0.296776 0.05591,-0.05275 0.04935,-0.115677 -0.02422,-0.143747 -0.139445,-0.05342 -0.32892,0.02038 -0.442559,0.09825 l 0.0206,0.01607 c 0.05659,-0.198303 0.132654,-0.400681 0.156877,-0.606454 0.01607,-0.135824 0,-0.266216 -0.09213,-0.373064 a 0.01426153,0.01426153 0 0 0 -0.02264,0.0063 2.9745483,2.9745483 0 0 0 -0.142841,0.742505 h 0.0283 c -0.007,-0.16978 0,-0.346351 -0.02264,-0.514773 -0.0097,-0.07583 -0.03486,-0.156877 -0.119072,-0.169554 a 0.01448791,0.01448791 0 0 0 -0.01811,0.01358 l -0.02671,0.611208 0.02762,-0.0038 c -0.03305,-0.163668 -0.04776,-0.350426 -0.104811,-0.507529 -0.01675,-0.04527 -0.05795,-0.113187 -0.117261,-0.08648 -0.07697,0.0335 -0.02988,0.165479 -0.01879,0.218224 l 0.105038,0.495758 0.02717,-0.0075 a 1.0784435,1.0784435 0 0 0 -0.289532,-0.492362 0.01448791,0.01448791 0 0 0 -0.02422,0.01 0.55914265,0.55914265 0 0 0 0.05614,0.304472 0.59875799,0.59875799 0 0 0 0.07923,0.114772 c 0.0704,0.08308 0.09621,0.147369 0.08285,0.256028 -0.03871,0.316923 -0.07968,0.631808 -0.119525,0.947826 -0.0025,0.01811 0.02603,0.01788 0.0283,0 z"
       class="cls-2"
       inkscape:connector-curvature="0" />
    <path
       style="stroke:#1d1d1b;stroke-width:0.16;stroke-miterlimit:7;stroke-dasharray:none;stroke-opacity:1"
       id="path26"
       d="m 4.0215227,7.1259028 -1.140697,0.215055 c -0.01788,0.0034 -0.01019,0.03056 0.0075,0.02739 l 1.140696,-0.215507 c 0.01788,-0.0034 0.01041,-0.03056 -0.0075,-0.02716 z"
       class="cls-2"
       inkscape:connector-curvature="0" />
    <path
       style="stroke:#1d1d1b;stroke-width:0.16;stroke-miterlimit:7;stroke-dasharray:none;stroke-opacity:1"
       id="path28"
       d="m 2.8326087,6.9146968 a 3.4653261,3.4653261 0 0 0 0.03916,0.448898 q 0.01924,0.131976 0.04663,0.263046 c 0.0045,0.02264 0.03146,0.08806 0.02264,0.104585 -0.01607,0.03214 -0.06972,0.02988 -0.09938,0.03554 a 2.6657747,2.6657747 0 0 0 -0.4944,0.1442 q -0.103,0.04097 -0.202378,0.09055 c -0.03033,0.01494 -0.09055,0.06361 -0.122694,0.06474 -0.08489,0.0027 -0.122242,-0.05501 -0.142163,-0.122242 a 4.0631786,4.0631786 0 0 1 -0.107757,-0.522244 c -0.03101,-0.198982 -0.07357,-0.409283 -0.02264,-0.608718 0.02128,-0.08398 0.06157,-0.184495 0.129486,-0.243352 0.179288,-0.155292 0.23724,0.07719 0.26531,0.185853 a 5.4302484,5.4302484 0 0 1 0.109791,0.541259 0.01403516,0.01403516 0 0 0 0.02264,0.0061 c 0.162536,-0.165705 0.334806,-0.333448 0.572272,-0.374422 0.01811,-0.0032 0.01041,-0.03033 -0.0075,-0.02739 a 0.78347879,0.78347879 0 0 0 -0.349521,0.163441 1.9343619,1.9343619 0 0 0 -0.171365,0.156198 c -0.04007,0.03961 -0.03894,0.05048 -0.05207,-0.01449 -0.0095,-0.04867 -0.01675,-0.09779 -0.02626,-0.146463 -0.02965,-0.15235 -0.05206,-0.326883 -0.120204,-0.467688 -0.03486,-0.07176 -0.09802,-0.135824 -0.183589,-0.101415 -0.105942,0.04324 -0.173854,0.178609 -0.206226,0.281156 -0.04776,0.152123 -0.03599,0.314659 -0.01494,0.470404 0.02377,0.177703 0.05116,0.356312 0.09055,0.531299 a 1.6461884,1.6461884 0 0 0 0.0704,0.256934 c 0.01313,0.0326 0.02716,0.07153 0.06474,0.0833 0.04958,0.01562 0.107527,-0.02988 0.146237,-0.05071 a 2.6965616,2.6965616 0 0 1 0.284778,-0.13107 2.7465901,2.7465901 0 0 1 0.592419,-0.157556 0.01426153,0.01426153 0 0 0 0.0097,-0.01743 3.8757413,3.8757413 0 0 1 -0.115904,-0.842336 0.01426153,0.01426153 0 0 0 -0.0283,0 z"
       class="cls-2"
       inkscape:connector-curvature="0" />
    <path
       style="stroke:#1d1d1b;stroke-width:0.16;stroke-miterlimit:7;stroke-dasharray:none;stroke-opacity:1"
       id="path30"
       d="m 2.9179517,7.5618978 q 0.551898,-0.09711 1.107419,-0.171591 c 0.01766,-0.0025 0.01788,-0.03079 0,-0.0283 q -0.559369,0.07493 -1.11489,0.172496 c -0.01788,0.0032 -0.01041,0.03034 0.0075,0.02739 z"
       class="cls-2"
       inkscape:connector-curvature="0" />
    <path
       style="stroke:#1d1d1b;stroke-width:0.16;stroke-miterlimit:7;stroke-dasharray:none;stroke-opacity:1"
       id="path32"
       d="m 6.2943127,8.9470778 0.0498,1.0822912 c 0,0.01811 0.0292,0.01811 0.02829,0 l -0.0498,-1.0822912 c 0,-0.01811 -0.02898,-0.01811 -0.0283,0 z"
       class="cls-2"
       inkscape:connector-curvature="0" />
    <path
       style="stroke:#1d1d1b;stroke-width:0.16;stroke-miterlimit:7;stroke-dasharray:none;stroke-opacity:1"
       id="path34"
       d="m 6.7964087,9.9519498 a 3.8775523,3.8775523 0 0 1 -0.846184,0.08104 0.01403516,0.01403516 0 0 0 -0.01426,0.01404 2.7843945,2.7843945 0 0 1 -0.0088,0.559596 2.642911,2.642911 0 0 1 -0.05727,0.314207 c -0.01223,0.04958 -0.04663,0.117487 -0.03712,0.170232 0.01924,0.106169 0.206226,0.08195 0.280024,0.08331 a 5.4834461,5.4834461 0 0 0 0.561858,-0.0283 c 0.256256,-0.02264 0.561633,-0.06655 0.709682,-0.30651 0.159593,-0.258291 -0.216866,-0.256707 -0.37329,-0.256934 q -0.148728,0 -0.297455,0.0084 c -0.0206,0 -0.104811,0.01901 -0.114998,-0.0014 -0.0052,-0.01064 0.07244,-0.119978 0.08149,-0.135824 0.08421,-0.151444 0.144427,-0.311943 0.13424,-0.4876092 -0.0011,-0.01811 -0.02943,-0.01811 -0.0283,0 0.01381,0.2410882 -0.108886,0.4464092 -0.232939,0.6429012 a 0.01426153,0.01426153 0 0 0 0.01222,0.02128 5.4103274,5.4103274 0 0 1 0.5519,-0.01766 c 0.113186,0.0023 0.31579,-0.0091 0.259198,0.184721 -0.02264,0.07448 -0.113187,0.143067 -0.174535,0.183815 -0.155518,0.101415 -0.34703,0.121563 -0.527224,0.137182 a 5.357809,5.357809 0 0 1 -0.561406,0.02762 c -0.04346,0 -0.08715,-0.0021 -0.130391,-0.0057 -0.103227,-0.0084 -0.11115,-0.05954 -0.101189,-0.149406 0.01064,-0.09779 0.04708,-0.197172 0.06203,-0.294286 a 2.7164824,2.7164824 0 0 0 0.02943,-0.52066 c -0.0014,-0.03169 -0.02083,-0.09417 0.01177,-0.114771 0.01335,-0.0084 0.09055,0 0.107074,-0.0014 q 0.133561,-0.0034 0.266668,-0.01516 a 3.4791348,3.4791348 0 0 0 0.445729,-0.06542 c 0.01789,-0.0041 0.01019,-0.03124 -0.0075,-0.02739 z"
       class="cls-2"
       inkscape:connector-curvature="0" />
    <path
       style="stroke:#1d1d1b;stroke-width:0.16;stroke-miterlimit:7;stroke-dasharray:none;stroke-opacity:1"
       id="path36"
       d="m 6.1824837,10.045895 q -0.0326,-0.5537102 -0.08738,-1.1062882 c -0.0016,-0.01788 -0.02988,-0.01811 -0.0283,0 q 0.05501,0.552126 0.08738,1.1062882 c 0,0.01811 0.0292,0.01811 0.0283,0 z"
       class="cls-2"
       inkscape:connector-curvature="0" />
    <path
       style="stroke:#1d1d1b;stroke-width:0.16;stroke-miterlimit:7;stroke-dasharray:none;stroke-opacity:1"
       id="path38"
       d="m 9.6521117,5.8595688 c 0.299039,-0.04029 0.5976263,-0.08466 0.8966653,-0.125637 0.117715,-0.01607 0.209396,-0.03712 0.306962,0.04663 a 0.72122609,0.72122609 0 0 0 0.125865,0.09417 0.55619978,0.55619978 0 0 0 0.319865,0.06203 0.01426153,0.01426153 0 0 0 0.01,-0.02399 1.0779907,1.0779907 0 0 0 -0.496211,-0.287495 l -0.0075,0.02739 0.496437,0.101189 c 0.05523,0.01132 0.1854,0.05705 0.218903,-0.02264 0.02264,-0.05546 -0.03645,-0.09417 -0.07968,-0.111602 -0.07108,-0.02852 -0.158462,-0.03486 -0.233392,-0.04935 l -0.283192,-0.05524 -0.0039,0.02784 0.611209,-0.03146 a 0.01448791,0.01448791 0 0 0 0.01381,-0.01788 c -0.01336,-0.08421 -0.09417,-0.108659 -0.170459,-0.11794 -0.168649,-0.01992 -0.344993,-0.01268 -0.514774,-0.01856 v 0.03011 a 2.9817922,2.9817922 0 0 0 0.741374,-0.148048 0.01448791,0.01448791 0 0 0 0.0063,-0.02377 c -0.107527,-0.09055 -0.237239,-0.106396 -0.373969,-0.08942 -0.205321,0.0258 -0.407472,0.103453 -0.605097,0.161178 l 0.01607,0.02083 c 0.07742,-0.114545 0.149633,-0.30402 0.0953,-0.44324 -0.02875,-0.07335 -0.09055,-0.07968 -0.144199,-0.02264 -0.142163,0.152802 -0.08059,0.490099 -0.292475,0.583591 -0.09621,0.04233 -0.224563,0.05184 -0.3277893,0.07199 -0.111602,0.02264 -0.223657,0.04052 -0.335938,0.0575 -0.01811,0.0027 -0.01041,0.02988 0.0075,0.02716 0.161178,-0.02422 0.321677,-0.05275 0.4810433,-0.08715 0.106849,-0.02264 0.237014,-0.02875 0.296551,-0.132881 0.06678,-0.116809 0.09213,-0.266895 0.139445,-0.392306 a 0.26915813,0.26915813 0 0 1 0.02626,-0.06542 q 0.02852,-0.08874 0.131523,0.02785 c 0.01087,0.03056 -0.0025,0.113187 -0.0068,0.138088 a 0.58087451,0.58087451 0 0 1 -0.09485,0.223883 0.01426153,0.01426153 0 0 0 0.01584,0.02083 c 0.135824,-0.03961 0.271649,-0.0815 0.407473,-0.118846 0.122241,-0.03373 0.258291,-0.06678 0.384834,-0.03939 a 0.29292735,0.29292735 0 0 1 0.08466,0.02784 c 0.04822,0.02897 0.04799,0.03079 0.0014,0.05388 -0.05388,0.02648 -0.123827,0.03599 -0.1811,0.0498 a 2.9181812,2.9181812 0 0 1 -0.472215,0.07108 0.01426153,0.01426153 0 0 0 0,0.0283 l 0.309001,0.01064 c 0.06791,0.0023 0.251501,-0.01969 0.303792,0.03599 0.06995,0.07402 -0.03826,0.05614 -0.07244,0.05795 l -0.174987,0.0079 -0.30583,0.01562 c -0.01494,0 -0.02015,0.02468 -0.0036,0.02785 l 0.304925,0.05931 c 0.04346,0.0086 0.08715,0.01653 0.130618,0.02558 a 0.55235144,0.55235144 0 0 1 0.06791,0.01472 q 0.01924,0.121563 -0.0498,0.09666 c -0.07335,0.0097 -0.194455,-0.03984 -0.268932,-0.05501 l -0.289531,-0.05908 a 0.01426153,0.01426153 0 0 0 -0.0075,0.02739 1.0440347,1.0440347 0 0 1 0.483761,0.280024 l 0.01,-0.02422 c -0.168195,0.01539 -0.299945,-0.04097 -0.425582,-0.147822 -0.09055,-0.07765 -0.153255,-0.07833 -0.271648,-0.06271 -0.316923,0.04233 -0.6338463,0.09055 -0.9523543,0.133334 -0.01788,0.0023 -0.01811,0.03079 0,0.0283 z"
       class="cls-2"
       inkscape:connector-curvature="0" />
  </g>
  <g
     inkscape:label="Drill"
     inkscape:groupmode="layer"
     id="g1424" />
</svg>
