<?xml version="1.0" encoding="UTF-8" standalone="no"?>
<svg
   xmlns:dc="http://purl.org/dc/elements/1.1/"
   xmlns:cc="http://creativecommons.org/ns#"
   xmlns:rdf="http://www.w3.org/1999/02/22-rdf-syntax-ns#"
   xmlns:svg="http://www.w3.org/2000/svg"
   xmlns="http://www.w3.org/2000/svg"
   xmlns:sodipodi="http://sodipodi.sourceforge.net/DTD/sodipodi-0.dtd"
   xmlns:inkscape="http://www.inkscape.org/namespaces/inkscape"
   sodipodi:docname="logo1.svg"
   inkscape:version="0.92.4 (5da689c313, 2019-01-14)"
   id="svg856"
   version="1.1"
   viewBox="0 0 150.0 130.0"
   height="130.0mm"
   width="150.0mm">
  <defs
     id="defs850" />
  <sodipodi:namedview
     inkscape:snap-to-guides="false"
     inkscape:snap-grids="false"
     inkscape:object-nodes="true"
     inkscape:document-rotation="0"
     inkscape:snap-global="true"
     borderlayer="true"
     inkscape:window-maximized="1"
     inkscape:window-y="27"
     inkscape:window-x="0"
     inkscape:window-height="1019"
     inkscape:window-width="1920"
     showgrid="true"
     inkscape:current-layer="g1422"
     inkscape:document-units="mm"
     inkscape:cy="253.63753"
     inkscape:cx="284.13043"
     inkscape:zoom="5.656854"
     inkscape:pageshadow="2"
     inkscape:pageopacity="0.0"
     borderopacity="1.0"
     bordercolor="#666666"
     pagecolor="#ffffff"
     id="base">
    <inkscape:grid
       spacingx="2.54"
       spacingy="2.54"
       empspacing="1"
       type="xygrid"
       units="mm"
       id="grid1402" />
  </sodipodi:namedview>
  <metadata
     id="metadata853">
    <rdf:RDF>
      <cc:Work
         rdf:about="">
        <dc:format>image/svg+xml</dc:format>
        <dc:type
           rdf:resource="http://purl.org/dc/dcmitype/StillImage" />
        <dc:title />
      </cc:Work>
    </rdf:RDF>
  </metadata>
  <g
     inkscape:label="[fixed] BG"
     inkscape:groupmode="layer"
     sodipodi:insensitive="true"
     id="g1408">
    <rect
       x="0"
       y="0"
       width="150.0"
       height="130.0"
       style="stroke:none;fill-opacity:1;fill:#FFFFFF"
       id="rect1406" />
  </g>
  <g
     inkscape:label="Edge.Cuts"
     inkscape:groupmode="layer"
     id="g1410" />
  <g
     inkscape:label="B.Cu-disabled"
     inkscape:groupmode="layer"
     id="g1412" />
  <g
     inkscape:label="B.Mask-disabled"
     inkscape:groupmode="layer"
     id="g1414" />
  <g
     inkscape:label="B.Silk-disabled"
     inkscape:groupmode="layer"
     id="g1416" />
  <g
     inkscape:label="F.Cu-disabled"
     inkscape:groupmode="layer"
     id="g1418" />
  <g
     inkscape:label="F.Mask-disabled"
     inkscape:groupmode="layer"
     id="g1420" />
  <g
     inkscape:label="F.Silk"
     inkscape:groupmode="layer"
     id="g1422">
    <path
       sodipodi:nodetypes="ccccc"
       id="rect8"
       d="m 72.4884,54.697025 c 2.786973,0.426244 5.934614,0.426244 8.688799,0 -0.393455,2.786974 -0.393455,5.934615 0,8.6888 -2.754185,-0.393455 -5.508371,-0.393455 -8.688799,0 0.426243,-2.754185 0.426243,-5.901826 0,-8.6888 z"
       style="fill:none;stroke:#1d1d1b;stroke-width:0.2;stroke-miterlimit:7;stroke-dasharray:none;stroke-opacity:1"
       inkscape:connector-curvature="0" />
    <path
       sodipodi:nodetypes="cc"
       id="line10"
       d="m 72.4884,54.697025 c -1.129321,0.710406 -1.578338,0.819993 -2.058154,0.966562"
       style="fill:none;stroke:#1d1d1b;stroke-width:0.2;stroke-miterlimit:7;stroke-dasharray:none;stroke-opacity:1"
       inkscape:connector-curvature="0" />
    <path
       sodipodi:nodetypes="cc"
       id="line12"
       d="M 72.4884,63.385825 70.430246,66.88192"
       style="fill:none;stroke:#1d1d1b;stroke-width:0.2;stroke-miterlimit:7;stroke-dasharray:none;stroke-opacity:1"
       inkscape:connector-curvature="0" />
    <path
       sodipodi:nodetypes="cc"
       id="line14"
       d="m 81.177199,63.385825 2.37638,3.496095"
       style="fill:none;stroke:#1d1d1b;stroke-width:0.2;stroke-miterlimit:7;stroke-dasharray:none;stroke-opacity:1"
       inkscape:connector-curvature="0" />
    <path
       sodipodi:nodetypes="cc"
       id="line16"
       d="m 81.177199,54.697025 c 0.73303,0.422258 1.459999,0.852781 2.400192,0.992491"
       style="fill:none;stroke:#1d1d1b;stroke-width:0.2;stroke-miterlimit:7;stroke-dasharray:none;stroke-opacity:1"
       inkscape:connector-curvature="0" />
    <path
       sodipodi:nodetypes="cc"
       id="line18"
       d="m 70.430246,55.663587 c 0.231036,3.814251 0.166504,7.5328 0,11.218333"
       style="fill:none;stroke:#1d1d1b;stroke-width:0.2;stroke-miterlimit:7;stroke-dasharray:none;stroke-opacity:1"
       inkscape:connector-curvature="0" />
    <path
       sodipodi:nodetypes="cc"
       id="line20"
       d="m 83.577391,55.689516 c -0.145938,3.818158 -0.153338,7.548619 -0.02381,11.192404"
       style="fill:none;stroke:#1d1d1b;stroke-width:0.2;stroke-miterlimit:7;stroke-dasharray:none;stroke-opacity:1"
       inkscape:connector-curvature="0" />
    <path
       sodipodi:nodetypes="cc"
       id="line22"
       d="m 70.430246,66.88192 c 4.389522,-0.150405 8.773219,-0.242707 13.123333,0"
       style="fill:none;stroke:#1d1d1b;stroke-width:0.2;stroke-miterlimit:7;stroke-dasharray:none;stroke-opacity:1"
       inkscape:connector-curvature="0" />
    <path
       style="stroke:#1d1d1b;stroke-width:0.2;stroke-miterlimit:7;stroke-dasharray:none;stroke-opacity:1"
       id="path24"
       d="m 79.049312,54.8492 c 0.09313,-0.740833 0.189442,-1.476904 0.2794,-2.215621 0.03175,-0.258762 0.009,-0.388937 -0.15875,-0.585787 -0.249236,-0.296863 -0.38629,-0.5969 -0.353482,-0.992717 l -0.05662,0.02328 a 2.44475,2.44475 0 0 1 0.665692,1.128713 0.03292868,0.03292868 0 0 0 0.0635,-0.01746 l -0.142874,-0.675746 c -0.04022,-0.188912 -0.14658,-0.439208 -0.132822,-0.628121 q -0.05662,-0.155575 0.195262,-0.187325 a 0.8715375,0.8715375 0 0 1 0.06509,0.229129 c 0.02434,0.100542 0.04128,0.203729 0.06191,0.305329 l 0.143934,0.709613 c 0.0074,0.03757 0.0635,0.02699 0.06509,-0.009 l 0.03122,-0.714904 0.01588,-0.357717 c 0.0032,-0.07938 -0.04498,-0.389467 0.136526,-0.221721 0.135466,0.125413 0.08308,0.551921 0.08943,0.709613 l 0.02963,0.722312 a 0.0333375,0.0333375 0 0 0 0.06615,0 6.848475,6.848475 0 0 1 0.147108,-1.058333 c 0.03122,-0.140229 0.05292,-0.347133 0.124884,-0.47625 0.04868,-0.08573 0.018,-0.118004 0.105832,-0.03016 0.04763,0.0471 0.06985,0.166688 0.08414,0.22913 0.0635,0.283104 -0.0032,0.587904 -0.07514,0.863071 -0.08731,0.331787 -0.187324,0.660929 -0.280986,0.991129 a 0.0333375,0.0333375 0 0 0 0.04868,0.03704 1.3589,1.3589 0 0 1 0.521758,-0.225425 c 0.06509,-0.01217 0.264584,-0.05768 0.322264,-0.01852 l 0.125412,0.278342 a 0.47201666,0.47201666 0 0 1 -0.135466,0.06297 c -0.3175,0.13335 -0.69268,0.188383 -0.989014,0.360891 -0.231774,0.134409 -0.244474,0.403755 -0.295274,0.644525 -0.08149,0.384705 -0.148696,0.772055 -0.204258,1.160992 -0.0058,0.0418 0.05821,0.0598 0.06403,0.01799 0.03704,-0.26035 0.07885,-0.519641 0.127,-0.778404 0.04551,-0.239183 0.06562,-0.536575 0.162454,-0.760412 0.211668,-0.4953 1.005418,-0.359305 1.358899,-0.693738 0.130704,-0.123296 0.11536,-0.270404 -0.05662,-0.336021 -0.325965,-0.124883 -0.768879,0.04763 -1.034519,0.229659 l 0.04815,0.03757 c 0.13229,-0.46355 0.31009,-0.936625 0.366712,-1.417637 0.03757,-0.3175 0,-0.6223 -0.215372,-0.872067 a 0.0333375,0.0333375 0 0 0 -0.05292,0.01482 6.95325,6.95325 0 0 0 -0.333904,1.735667 h 0.06615 c -0.0164,-0.396875 0,-0.809625 -0.05292,-1.203325 -0.02275,-0.177271 -0.08149,-0.366713 -0.278342,-0.396346 a 0.03386667,0.03386667 0 0 0 -0.04233,0.03175 l -0.06244,1.428749 0.06456,-0.009 c -0.07726,-0.382588 -0.111654,-0.81915 -0.245004,-1.186392 -0.03916,-0.105833 -0.135466,-0.264583 -0.274108,-0.202142 -0.179918,0.07832 -0.06985,0.386821 -0.04392,0.510117 l 0.245534,1.158875 0.0635,-0.01746 a 2.52095,2.52095 0 0 0 -0.676804,-1.150937 0.03386667,0.03386667 0 0 0 -0.05662,0.02328 1.3070417,1.3070417 0 0 0 0.131234,0.711729 1.3996458,1.3996458 0 0 0 0.185208,0.268288 c 0.164572,0.194204 0.224896,0.344487 0.193676,0.598487 -0.09049,0.740834 -0.186268,1.476904 -0.2794,2.215621 -0.0058,0.04233 0.06085,0.0418 0.06615,0 z"
       class="cls-2"
       inkscape:connector-curvature="0" />
    <path
       style="stroke:#1d1d1b;stroke-width:0.2;stroke-miterlimit:7;stroke-dasharray:none;stroke-opacity:1"
       id="path26"
       d="m 70.42125,62.642237 -2.666471,0.502709 c -0.0418,0.0079 -0.02381,0.07144 0.01746,0.06403 l 2.666471,-0.503767 c 0.0418,-0.0079 0.02434,-0.07144 -0.01746,-0.0635 z"
       class="cls-2"
       inkscape:connector-curvature="0" />
    <path
       style="stroke:#1d1d1b;stroke-width:0.2;stroke-miterlimit:7;stroke-dasharray:none;stroke-opacity:1"
       id="path28"
       d="m 67.642067,62.148525 a 8.1004834,8.1004834 0 0 0 0.09155,1.049337 q 0.04498,0.308504 0.109008,0.614892 c 0.01058,0.05292 0.07355,0.205846 0.05292,0.244475 -0.03757,0.07514 -0.162984,0.06985 -0.232305,0.08308 a 6.2314666,6.2314666 0 0 0 -1.1557,0.337079 q -0.24077,0.09578 -0.473075,0.211667 c -0.07091,0.03493 -0.211666,0.148696 -0.286808,0.151342 -0.198437,0.0063 -0.28575,-0.128588 -0.332317,-0.28575 a 9.4980124,9.4980124 0 0 1 -0.25189,-1.220789 c -0.0725,-0.465137 -0.171979,-0.956733 -0.05292,-1.422929 0.04974,-0.196321 0.143934,-0.431271 0.302684,-0.568854 0.4191,-0.363009 0.554566,0.180446 0.620183,0.434446 a 12.69365,12.69365 0 0 1 0.256646,1.265237 0.03280833,0.03280833 0 0 0 0.05292,0.01429 c 0.379941,-0.38735 0.782637,-0.779463 1.337733,-0.875242 0.04233,-0.0074 0.02434,-0.07091 -0.01746,-0.06403 a 1.8314458,1.8314458 0 0 0 -0.817034,0.382058 4.5217292,4.5217292 0 0 0 -0.400579,0.365125 c -0.09366,0.0926 -0.09102,0.118004 -0.121708,-0.03387 -0.02223,-0.11377 -0.03916,-0.2286 -0.06138,-0.34237 -0.06932,-0.35613 -0.121708,-0.764117 -0.280987,-1.093259 -0.08149,-0.167746 -0.229129,-0.3175 -0.429154,-0.237066 -0.24765,0.10107 -0.4064,0.417512 -0.482071,0.657225 -0.111654,0.3556 -0.08414,0.735541 -0.03493,1.099608 0.05556,0.415396 0.119591,0.832908 0.211666,1.241954 a 3.8481,3.8481 0 0 0 0.164571,0.600604 c 0.03069,0.0762 0.0635,0.167217 0.151342,0.194734 0.115887,0.03651 0.251354,-0.06985 0.341842,-0.118534 a 6.3034334,6.3034334 0 0 1 0.665691,-0.306387 6.4203792,6.4203792 0 0 1 1.384829,-0.3683 0.0333375,0.0333375 0 0 0 0.02276,-0.04075 9.0598624,9.0598624 0 0 1 -0.270934,-1.969029 0.0333375,0.0333375 0 0 0 -0.06615,0 z"
       class="cls-2"
       inkscape:connector-curvature="0" />
    <path
       style="stroke:#1d1d1b;stroke-width:0.2;stroke-miterlimit:7;stroke-dasharray:none;stroke-opacity:1"
       id="path30"
       d="m 67.841563,63.661412 q 1.290108,-0.227012 2.588683,-0.401108 c 0.04127,-0.0058 0.0418,-0.07197 0,-0.06615 q -1.307571,0.175154 -2.606146,0.403225 c -0.0418,0.0074 -0.02434,0.07091 0.01746,0.06403 z"
       class="cls-2"
       inkscape:connector-curvature="0" />
    <path
       style="stroke:#1d1d1b;stroke-width:0.2;stroke-miterlimit:7;stroke-dasharray:none;stroke-opacity:1"
       id="path32"
       d="m 75.734083,66.899382 0.116418,2.529945 c 0,0.04233 0.06826,0.04233 0.06614,0 l -0.116416,-2.529945 c 0,-0.04233 -0.06773,-0.04233 -0.06615,0 z"
       class="cls-2"
       inkscape:connector-curvature="0" />
    <path
       style="stroke:#1d1d1b;stroke-width:0.2;stroke-miterlimit:7;stroke-dasharray:none;stroke-opacity:1"
       id="path34"
       d="m 76.907775,69.248353 a 9.0640958,9.0640958 0 0 1 -1.978025,0.189442 0.03280833,0.03280833 0 0 0 -0.03334,0.03281 6.50875,6.50875 0 0 1 -0.02064,1.3081 6.1780208,6.1780208 0 0 1 -0.133879,0.734484 c -0.02858,0.115886 -0.109008,0.274636 -0.08678,0.397932 0.04498,0.24818 0.48207,0.19156 0.654579,0.194734 a 12.818004,12.818004 0 0 0 1.313391,-0.06615 c 0.599018,-0.05292 1.312862,-0.155574 1.658938,-0.716492 0.373062,-0.603778 -0.506942,-0.600074 -0.872596,-0.600604 q -0.347662,0 -0.695324,0.01958 c -0.04816,0 -0.245006,0.04445 -0.268818,-0.0032 -0.01218,-0.02487 0.169334,-0.280458 0.1905,-0.3175 0.19685,-0.354012 0.337608,-0.729192 0.313796,-1.139824 -0.0026,-0.04233 -0.06879,-0.04233 -0.06615,0 0.03228,0.563562 -0.254528,1.043516 -0.544512,1.502832 a 0.0333375,0.0333375 0 0 0 0.02857,0.04974 12.647083,12.647083 0 0 1 1.29011,-0.04127 c 0.264582,0.0053 0.738186,-0.02117 0.605896,0.4318 -0.05292,0.174096 -0.264584,0.334432 -0.407988,0.429682 -0.363538,0.237068 -0.811212,0.284164 -1.23243,0.320676 a 12.524317,12.524317 0 0 1 -1.312333,0.06456 c -0.1016,0 -0.203729,-0.0048 -0.3048,-0.01322 -0.2413,-0.01958 -0.259821,-0.139172 -0.236537,-0.34925 0.02487,-0.2286 0.110066,-0.460906 0.144991,-0.687918 a 6.35,6.35 0 0 0 0.06879,-1.217084 c -0.0032,-0.07408 -0.04868,-0.220132 0.02752,-0.268286 0.03122,-0.01958 0.211666,0 0.250295,-0.0032 q 0.312209,-0.0079 0.623359,-0.03545 a 8.1327624,8.1327624 0 0 0 1.041928,-0.15293 c 0.04181,-0.0095 0.02381,-0.07303 -0.01746,-0.06403 z"
       class="cls-2"
       inkscape:connector-curvature="0" />
    <path
       style="stroke:#1d1d1b;stroke-width:0.2;stroke-miterlimit:7;stroke-dasharray:none;stroke-opacity:1"
       id="path36"
       d="m 75.472675,69.467957 q -0.0762,-1.294341 -0.204258,-2.586037 c -0.0037,-0.0418 -0.06985,-0.04233 -0.06615,0 q 0.128587,1.290638 0.204258,2.586037 c 0,0.04233 0.06826,0.04233 0.06615,0 z"
       class="cls-2"
       inkscape:connector-curvature="0" />
    <path
       style="stroke:#1d1d1b;stroke-width:0.2;stroke-miterlimit:7;stroke-dasharray:none;stroke-opacity:1"
       id="path38"
       d="m 83.583213,59.682079 c 0.699028,-0.09419 1.397,-0.197908 2.096028,-0.293688 0.275168,-0.03757 0.48948,-0.08678 0.71755,0.109009 a 1.685925,1.685925 0 0 0 0.294218,0.220133 1.3001625,1.3001625 0 0 0 0.747712,0.144992 0.0333375,0.0333375 0 0 0 0.02328,-0.05609 2.5198916,2.5198916 0 0 0 -1.159934,-0.672042 l -0.01746,0.06403 1.160462,0.236537 c 0.129116,0.02646 0.433388,0.13335 0.511704,-0.05292 0.05292,-0.129645 -0.0852,-0.220133 -0.186266,-0.260879 -0.166158,-0.06667 -0.370418,-0.08149 -0.545572,-0.115358 l -0.661986,-0.129117 -0.009,0.06509 1.42875,-0.07355 a 0.03386667,0.03386667 0 0 0 0.03228,-0.0418 c -0.03122,-0.19685 -0.220132,-0.254 -0.398462,-0.275695 -0.39423,-0.04657 -0.80645,-0.02963 -1.203326,-0.04339 v 0.07038 a 6.9701834,6.9701834 0 0 0 1.733022,-0.346075 0.03386667,0.03386667 0 0 0 0.01482,-0.05556 c -0.251354,-0.211667 -0.554566,-0.248709 -0.874182,-0.209021 -0.479956,0.06032 -0.9525,0.241829 -1.414464,0.376766 l 0.03757,0.04868 c 0.180974,-0.267759 0.349778,-0.710671 0.222778,-1.036109 -0.0672,-0.17145 -0.211666,-0.186266 -0.337078,-0.05292 -0.332318,0.357187 -0.188384,1.145646 -0.683684,1.364191 -0.224896,0.09896 -0.524934,0.12118 -0.766234,0.168275 -0.260878,0.05292 -0.522816,0.09472 -0.785282,0.134409 -0.04233,0.0063 -0.02434,0.06985 0.01746,0.0635 0.376766,-0.05662 0.751946,-0.123296 1.124478,-0.203729 0.249768,-0.05292 0.554038,-0.06721 0.69321,-0.310621 0.156104,-0.27305 0.21537,-0.623888 0.325966,-0.917046 a 0.62917916,0.62917916 0 0 1 0.06138,-0.152929 q 0.06667,-0.207434 0.307446,0.06509 c 0.0254,0.07144 -0.0058,0.264584 -0.01588,0.322792 a 1.3578417,1.3578417 0 0 1 -0.22172,0.523346 0.0333375,0.0333375 0 0 0 0.03704,0.04868 c 0.3175,-0.0926 0.635,-0.1905 0.9525,-0.277812 0.28575,-0.07885 0.603778,-0.156105 0.899582,-0.09208 a 0.68474166,0.68474166 0 0 1 0.197908,0.06509 c 0.112714,0.06773 0.112184,0.07197 0.0032,0.125942 -0.125942,0.06191 -0.289454,0.08414 -0.423334,0.116416 a 6.8214874,6.8214874 0 0 1 -1.103842,0.166159 0.0333375,0.0333375 0 0 0 0,0.06615 l 0.722314,0.02487 c 0.15875,0.0053 0.587904,-0.04604 0.71014,0.08414 0.163514,0.173037 -0.08943,0.131233 -0.169332,0.135467 l -0.409046,0.01852 -0.714904,0.03651 c -0.03493,0 -0.0471,0.05768 -0.0085,0.06509 l 0.712788,0.138641 c 0.1016,0.02011 0.20373,0.03863 0.30533,0.0598 a 1.2911667,1.2911667 0 0 1 0.15875,0.0344 q 0.04498,0.284162 -0.116418,0.225954 c -0.17145,0.02275 -0.454554,-0.09313 -0.62865,-0.128587 l -0.676804,-0.138113 a 0.0333375,0.0333375 0 0 0 -0.01746,0.06403 2.4405166,2.4405166 0 0 1 1.13083,0.654579 l 0.02328,-0.05662 c -0.39317,0.03598 -0.701146,-0.09578 -0.994832,-0.345546 -0.211668,-0.181504 -0.358246,-0.183092 -0.635,-0.146579 -0.740834,0.09895 -1.481668,0.211666 -2.226206,0.311679 -0.0418,0.0053 -0.04233,0.07197 0,0.06615 z"
       class="cls-2"
       inkscape:connector-curvature="0" />
    <text
       id="text1663"
       y="57.107296"
       x="47.426559"
       style="font-style:normal;font-weight:normal;font-size:2.46943998px;line-height:1.25;font-family:sans-serif;letter-spacing:0px;word-spacing:0px;fill:#000000;fill-opacity:1;stroke:none;stroke-width:0.26458299"
       xml:space="preserve"><tspan
         style="font-style:normal;font-variant:normal;font-weight:500;font-stretch:normal;font-size:2.82222009px;font-family:saira;-inkscape-font-specification:'saira Medium';stroke-width:0.26458299"
         y="57.107296"
         x="47.426559"
         id="tspan1661"
         sodipodi:role="line">Sofle Keyboard</tspan></text>
    <text
       id="text1663-0"
       y="59.94865"
       x="64.197784"
       style="font-style:normal;font-weight:normal;font-size:2.46943998px;line-height:1.25;font-family:sans-serif;letter-spacing:0px;word-spacing:0px;fill:#000000;fill-opacity:1;stroke:none;stroke-width:0.26458299"
       xml:space="preserve"><tspan
         style="font-style:normal;font-variant:normal;font-weight:500;font-stretch:normal;font-size:2.82222009px;font-family:saira;-inkscape-font-specification:'saira Medium';stroke-width:0.26458299"
         y="59.94865"
         x="64.197784"
         id="tspan1661-8"
         sodipodi:role="line">v 2</tspan><tspan
         style="font-style:normal;font-variant:normal;font-weight:500;font-stretch:normal;font-size:2.82222009px;font-family:saira;-inkscape-font-specification:'saira Medium';stroke-width:0.26458299"
         y="63.273441"
         x="64.197784"
         sodipodi:role="line"
         id="tspan2242" /></text>
  </g>
  <g
     inkscape:label="Drill"
     inkscape:groupmode="layer"
     id="g1424" />
</svg>
