<svg id="Ebene_1" data-name="Ebene 1" xmlns="http://www.w3.org/2000/svg" viewBox="0 0 438.04 417.56"><defs><style>.cls-1{fill:none;stroke:#1d1d1b;stroke-miterlimit:10;}.cls-2{fill:#1d1d1b;}</style></defs><title>SOFLE</title><rect class="cls-1" x="120.76" y="86.78" width="212" height="212"/><line class="cls-1" x1="120.76" y1="86.78" x2="102.76" y2="106.78"/><line class="cls-1" x1="120.76" y1="298.78" x2="102.76" y2="318.78"/><line class="cls-1" x1="332.76" y1="298.78" x2="350.76" y2="318.78"/><line class="cls-1" x1="333.21" y1="87.27" x2="351.21" y2="107.27"/><line class="cls-1" x1="102.76" y1="106.78" x2="102.76" y2="318.78"/><line class="cls-1" x1="351.21" y1="107.27" x2="350.76" y2="318.78"/><line class="cls-1" x1="102.76" y1="318.78" x2="350.76" y2="318.78"/><path class="cls-2" d="M335.5,290.93c1.76-14,3.58-27.91,5.28-41.87.6-4.89.17-7.35-3-11.07-4.71-5.61-7.3-11.28-6.68-18.76l-1.07.44A46.2,46.2,0,0,1,342.61,241a.62.62,0,0,0,1.2-.33l-2.7-12.77c-.76-3.57-2.77-8.3-2.51-11.87q-1.07-2.94,3.69-3.54a16.47,16.47,0,0,1,1.23,4.33c.46,1.9.78,3.85,1.17,5.77L347.41,236c.14.71,1.2.51,1.23-.17l.59-13.51.3-6.76c.06-1.5-.85-7.36,2.58-4.19,2.56,2.37,1.57,10.43,1.69,13.41l.56,13.65a.63.63,0,0,0,1.25,0,129.42,129.42,0,0,1,2.78-20c.59-2.65,1-6.56,2.36-9,.92-1.62.34-2.23,2-.57.9.89,1.32,3.15,1.59,4.33,1.2,5.35-.06,11.11-1.42,16.31-1.65,6.27-3.54,12.49-5.31,18.73a.63.63,0,0,0,.92.7,25.68,25.68,0,0,1,9.86-4.26c1.23-.23,5-1.09,6.09-.35l2.37,5.26a8.92,8.92,0,0,1-2.56,1.19c-6,2.52-13.09,3.56-18.69,6.82-4.38,2.54-4.62,7.63-5.58,12.18-1.54,7.27-2.81,14.59-3.86,21.94-.11.79,1.1,1.13,1.21.34.7-4.92,1.49-9.82,2.4-14.71.86-4.52,1.24-10.14,3.07-14.37,4-9.36,19-6.79,25.68-13.11,2.47-2.33,2.18-5.11-1.07-6.35-6.16-2.36-14.53.9-19.55,4.34l.91.71c2.5-8.76,5.86-17.7,6.93-26.79.71-6,0-11.76-4.07-16.48a.63.63,0,0,0-1,.28,131.4,131.4,0,0,0-6.31,32.8h1.25c-.31-7.5,0-15.3-1-22.74-.43-3.35-1.54-6.93-5.26-7.49a.64.64,0,0,0-.8.6l-1.18,27,1.22-.17c-1.46-7.23-2.11-15.48-4.63-22.42-.74-2-2.56-5-5.18-3.82-3.4,1.48-1.32,7.31-.83,9.64l4.64,21.9,1.2-.33A47.64,47.64,0,0,0,331,218.79a.64.64,0,0,0-1.07.44,24.7,24.7,0,0,0,2.48,13.45,26.45,26.45,0,0,0,3.5,5.07c3.11,3.67,4.25,6.51,3.66,11.31-1.71,14-3.52,27.91-5.28,41.87-.11.8,1.15.79,1.25,0Z" transform="translate(-72.01 -205.15)"/><path class="cls-2" d="M174.6,443.81l-50.39,9.5c-.79.15-.45,1.35.33,1.21L174.93,445c.79-.15.46-1.35-.33-1.2Z" transform="translate(-72.01 -205.15)"/><path class="cls-2" d="M122.08,434.48a153.08,153.08,0,0,0,1.73,19.83q.85,5.83,2.06,11.62c.2,1,1.39,3.89,1,4.62-.71,1.42-3.08,1.32-4.39,1.57a117.76,117.76,0,0,0-21.84,6.37q-4.55,1.81-8.94,4c-1.34.66-4,2.81-5.42,2.86-3.75.12-5.4-2.43-6.28-5.4a179.49,179.49,0,0,1-4.76-23.07c-1.37-8.79-3.25-18.08-1-26.89.94-3.71,2.72-8.15,5.72-10.75,7.92-6.86,10.48,3.41,11.72,8.21a239.88,239.88,0,0,1,4.85,23.91.62.62,0,0,0,1,.27c7.18-7.32,14.79-14.73,25.28-16.54.8-.14.46-1.34-.33-1.21a34.61,34.61,0,0,0-15.44,7.22A85.45,85.45,0,0,0,99.47,448c-1.77,1.75-1.72,2.23-2.3-.64-.42-2.15-.74-4.32-1.16-6.47-1.31-6.73-2.3-14.44-5.31-20.66-1.54-3.17-4.33-6-8.11-4.48-4.68,1.91-7.68,7.89-9.11,12.42-2.11,6.72-1.59,13.9-.66,20.78,1.05,7.85,2.26,15.74,4,23.47a72.72,72.72,0,0,0,3.11,11.35c.58,1.44,1.2,3.16,2.86,3.68,2.19.69,4.75-1.32,6.46-2.24a119.12,119.12,0,0,1,12.58-5.79A121.33,121.33,0,0,1,128,472.46a.63.63,0,0,0,.43-.77,171.21,171.21,0,0,1-5.12-37.21.63.63,0,0,0-1.25,0Z" transform="translate(-72.01 -205.15)"/><path class="cls-2" d="M125.85,463.07q24.38-4.29,48.92-7.58c.78-.11.79-1.36,0-1.25q-24.71,3.31-49.25,7.62c-.79.14-.46,1.34.33,1.21Z" transform="translate(-72.01 -205.15)"/><path class="cls-2" d="M275,524.26l2.2,47.81c0,.8,1.29.8,1.25,0l-2.2-47.81c0-.8-1.28-.8-1.25,0Z" transform="translate(-72.01 -205.15)"/><path class="cls-2" d="M297.18,568.65a171.29,171.29,0,0,1-37.38,3.58.62.62,0,0,0-.63.62,123,123,0,0,1-.39,24.72,116.75,116.75,0,0,1-2.53,13.88c-.54,2.19-2.06,5.19-1.64,7.52.85,4.69,9.11,3.62,12.37,3.68a242.23,242.23,0,0,0,24.82-1.25c11.32-1,24.81-2.94,31.35-13.54,7.05-11.41-9.58-11.34-16.49-11.35q-6.57,0-13.14.37c-.91,0-4.63.84-5.08-.06-.23-.47,3.2-5.3,3.6-6,3.72-6.69,6.38-13.78,5.93-21.54-.05-.8-1.3-.8-1.25,0,.61,10.65-4.81,19.72-10.29,28.4a.63.63,0,0,0,.54.94,239,239,0,0,1,24.38-.78c5,.1,13.95-.4,11.45,8.16-1,3.29-5,6.32-7.71,8.12-6.87,4.48-15.33,5.37-23.29,6.06A236.68,236.68,0,0,1,267,621.4c-1.92,0-3.85-.09-5.76-.25-4.56-.37-4.91-2.63-4.47-6.6.47-4.32,2.08-8.71,2.74-13a120,120,0,0,0,1.3-23c-.06-1.4-.92-4.16.52-5.07.59-.37,4,0,4.73-.06q5.9-.15,11.78-.67a153.69,153.69,0,0,0,19.69-2.89c.79-.18.45-1.38-.33-1.21Z" transform="translate(-72.01 -205.15)"/><path class="cls-2" d="M270.06,572.8q-1.44-24.46-3.86-48.87c-.07-.79-1.32-.8-1.25,0q2.43,24.39,3.86,48.87c0,.8,1.29.8,1.25,0Z" transform="translate(-72.01 -205.15)"/><path class="cls-2" d="M423.33,387.87c13.21-1.78,26.4-3.74,39.61-5.55,5.2-.71,9.25-1.64,13.56,2.06a31.86,31.86,0,0,0,5.56,4.16,24.57,24.57,0,0,0,14.13,2.74.63.63,0,0,0,.44-1.06,47.62,47.62,0,0,0-21.92-12.7l-.33,1.21,21.93,4.47c2.44.5,8.19,2.52,9.67-1,1-2.45-1.61-4.16-3.52-4.93-3.14-1.26-7-1.54-10.31-2.18l-12.51-2.44-.17,1.23,27-1.39a.64.64,0,0,0,.61-.79c-.59-3.72-4.16-4.8-7.53-5.21-7.45-.88-15.24-.56-22.74-.82V367a131.72,131.72,0,0,0,32.75-6.54.64.64,0,0,0,.28-1.05c-4.75-4-10.48-4.7-16.52-3.95-9.07,1.14-18,4.57-26.73,7.12l.71.92c3.42-5.06,6.61-13.43,4.21-19.58-1.27-3.24-4-3.52-6.37-1-6.28,6.75-3.56,21.65-12.92,25.78-4.25,1.87-9.92,2.29-14.48,3.18-4.93,1-9.88,1.79-14.84,2.54-.8.12-.46,1.32.33,1.2,7.12-1.07,14.21-2.33,21.25-3.85,4.72-1,10.47-1.27,13.1-5.87,2.95-5.16,4.07-11.79,6.16-17.33a11.89,11.89,0,0,1,1.16-2.89q1.26-3.92,5.81,1.23c.48,1.35-.11,5-.3,6.1a25.66,25.66,0,0,1-4.19,9.89.63.63,0,0,0,.7.92c6-1.75,12-3.6,18-5.25,5.4-1.49,11.41-2.95,17-1.74a12.94,12.94,0,0,1,3.74,1.23c2.13,1.28,2.12,1.36.06,2.38-2.38,1.17-5.47,1.59-8,2.2a128.91,128.91,0,0,1-20.86,3.14.63.63,0,0,0,0,1.25l13.65.47c3,.1,11.11-.87,13.42,1.59,3.09,3.27-1.69,2.48-3.2,2.56L493,372l-13.51.69c-.66,0-.89,1.09-.16,1.23l13.47,2.62c1.92.38,3.85.73,5.77,1.13a24.4,24.4,0,0,1,3,.65q.85,5.37-2.2,4.27c-3.24.43-8.59-1.76-11.88-2.43l-12.79-2.61a.63.63,0,0,0-.33,1.21,46.12,46.12,0,0,1,21.37,12.37l.44-1.07c-7.43.68-13.25-1.81-18.8-6.53-4-3.43-6.77-3.46-12-2.77-14,1.87-28,4-42.07,5.89-.79.1-.8,1.36,0,1.25Z" transform="translate(-72.01 -205.15)"/></svg>