M48
; DRILL file {KiCad 7.0.6} date Sun Jul 16 22:52:43 2023
; FORMAT={-:-/ absolute / inch / decimal}
; #@! TF.CreationDate,2023-07-16T22:52:43-04:00
; #@! TF.GenerationSoftware,Kicad,Pcbnew,7.0.6
; #@! TF.FileFunction,Plated,1,2,PTH
FMAT,2
INCH
; #@! TA.AperFunction,Plated,PTH,ViaDrill
T1C0.0118
; #@! TA.AperFunction,Plated,PTH,ComponentDrill
T2C0.0157
; #@! TA.AperFunction,Plated,PTH,ComponentDrill
T3C0.0295
; #@! TA.AperFunction,Plated,PTH,ComponentDrill
T4C0.0394
; #@! TA.AperFunction,Plated,PTH,ComponentDrill
T5C0.0430
; #@! TA.AperFunction,Plated,PTH,ComponentDrill
T6C0.0512
; #@! TA.AperFunction,Plated,PTH,ComponentDrill
T7C0.0591
; #@! TA.AperFunction,Plated,PTH,ComponentDrill
T8C0.0866
; #@! TA.AperFunction,Plated,PTH,ComponentDrill
T9C0.1614
%
G90
G05
T1
X0.6024Y-4.1976
X0.6524Y-2.3976
X0.6824Y-2.3976
X0.6824Y-5.1076
X0.7324Y-2.4976
X0.76Y-2.44
X0.7824Y-2.4976
X0.82Y-3.3
X0.8201Y-1.9983
X0.8824Y-2.2976
X1.0324Y-2.2976
X1.0824Y-2.0976
X1.1624Y-3.7676
X1.2724Y-5.1676
X1.38Y-4.47
X2.1124Y-4.6976
X2.1224Y-4.5276
X2.1256Y-3.34
X2.7924Y-4.9676
X2.8624Y-4.7876
X2.8624Y-4.7876
X2.8736Y-3.22
X3.6066Y-4.8576
X3.6217Y-3.12
X3.6224Y-4.5176
X4.3124Y-4.8076
X4.37Y-3.57
X5.0266Y-4.8176
X5.12Y-3.55
X5.9468Y-3.5636
X5.95Y-4.87
X6.3684Y-2.6984
X6.37Y-4.2
X6.3784Y-3.1184
X6.38Y-4.62
X6.51Y-2.79
X6.51Y-4.3
X6.68Y-3.58
X6.68Y-4.87
X7.36Y-4.96
X7.42Y-3.23
X7.4203Y-4.5202
X8.12Y-4.86
X8.17Y-3.14
X8.17Y-4.74
X8.818Y-4.7876
X8.87Y-4.96
X8.91Y-5.37
X8.92Y-3.25
X9.67Y-3.39
X9.75Y-4.21
X9.75Y-5.1
X10.31Y-3.03
X10.6Y-2.39
X10.63Y-2.5
X10.63Y-5.59
X10.63Y-5.59
X10.65Y-1.98
X10.69Y-3.74
X10.7088Y-2.5013
X10.72Y-2.0
X10.72Y-3.46
X10.8Y-2.3
X10.8Y-3.52
X10.84Y-3.29
X10.89Y-5.09
X10.93Y-2.37
X10.93Y-2.45
X10.93Y-2.6
X10.93Y-2.74
X10.95Y-3.26
X10.97Y-3.28
X11.01Y-2.1
X11.03Y-2.34
X11.06Y-2.2
T2
X1.0862Y-4.0856
X1.2201Y-4.0856
X1.2417Y-4.8264
X1.3087Y-4.9424
X1.3894Y-2.471
X1.3894Y-2.5931
X1.3894Y-3.9671
X1.3894Y-4.0891
X1.5232Y-2.471
X1.5232Y-2.5931
X1.5232Y-3.9671
X1.5232Y-4.0891
X1.7634Y-4.8332
X1.8972Y-4.8332
X2.1728Y-2.3805
X2.1728Y-3.8805
X2.2122Y-2.4986
X2.2122Y-3.9986
X2.3067Y-2.3805
X2.3067Y-3.8805
X2.3461Y-2.4986
X2.3461Y-3.9986
X2.5114Y-4.7466
X2.6453Y-4.7466
X2.8854Y-2.286
X2.8894Y-2.412
X2.8894Y-3.786
X2.8894Y-3.908
X3.0193Y-2.286
X3.0232Y-2.412
X3.0232Y-3.786
X3.0232Y-3.908
X3.2791Y-4.6289
X3.413Y-4.6289
X3.6374Y-2.3765
X3.6374Y-2.4986
X3.6374Y-3.8726
X3.6374Y-3.9986
X3.7713Y-2.3765
X3.7713Y-2.4986
X3.7713Y-3.8726
X3.7713Y-3.9986
X3.9957Y-4.7273
X4.1295Y-4.7273
X4.3736Y-4.2348
X4.3736Y-4.3608
X4.3815Y-2.7387
X4.3815Y-2.8529
X4.5075Y-4.2348
X4.5075Y-4.3608
X4.5154Y-2.7387
X4.5154Y-2.8529
X5.6098Y-4.2348
X5.6138Y-4.3608
X5.6217Y-2.7309
X5.6217Y-2.8529
X5.7437Y-4.2348
X5.7476Y-4.3608
X5.7555Y-2.7309
X5.7555Y-2.8529
X5.9248Y-2.7309
X5.9248Y-2.8529
X5.9327Y-4.3608
X5.9366Y-4.2348
X6.0587Y-2.7309
X6.0587Y-2.8529
X6.0665Y-4.3608
X6.0705Y-4.2348
X7.165Y-2.7387
X7.165Y-2.8529
X7.1728Y-4.2348
X7.1728Y-4.3608
X7.2988Y-2.7387
X7.2988Y-2.8529
X7.3067Y-4.2348
X7.3067Y-4.3608
X7.5508Y-4.7273
X7.6846Y-4.7273
X7.9091Y-2.3765
X7.9091Y-2.4986
X7.9091Y-3.8726
X7.9091Y-3.9986
X8.0429Y-2.3765
X8.0429Y-2.4986
X8.0429Y-3.8726
X8.0429Y-3.9986
X8.2673Y-4.6289
X8.4012Y-4.6289
X8.6571Y-2.412
X8.6571Y-3.786
X8.6571Y-3.908
X8.661Y-2.286
X8.7909Y-2.412
X8.7909Y-3.786
X8.7909Y-3.908
X8.7949Y-2.286
X9.035Y-4.7466
X9.1689Y-4.7466
X9.3343Y-2.4986
X9.3343Y-3.9986
X9.3736Y-2.3805
X9.3736Y-3.8805
X9.4681Y-2.4986
X9.4681Y-3.9986
X9.5075Y-2.3805
X9.5075Y-3.8805
X9.7831Y-4.8332
X9.9169Y-4.8332
X10.1571Y-2.471
X10.1571Y-2.5931
X10.1571Y-3.9671
X10.1571Y-4.0891
X10.2909Y-2.471
X10.2909Y-2.5931
X10.2909Y-3.9671
X10.2909Y-4.0891
X10.3758Y-4.9446
X10.4345Y-4.8243
X10.4602Y-4.0856
X10.5941Y-4.0856
T3
X0.7Y-3.5209
X0.7Y-3.5997
X0.7Y-3.6784
X10.98Y-3.5313
X10.98Y-3.61
X10.98Y-3.6887
T4
X0.5626Y-4.282
X0.5626Y-4.3805
X0.5626Y-4.4789
X1.1335Y-4.282
X1.1335Y-4.4789
X1.2966Y-1.8702
X1.2966Y-1.9725
X1.2966Y-2.0709
X10.3837Y-1.8702
X10.3837Y-1.9725
X10.3837Y-2.0709
X10.5469Y-4.282
X10.5469Y-4.4789
X11.1177Y-4.282
X11.1177Y-4.3805
X11.1177Y-4.4789
T5
X0.585Y-1.9941
X0.585Y-1.9941
X0.585Y-2.0941
X0.585Y-2.0941
X0.585Y-2.1941
X0.585Y-2.1941
X0.585Y-2.2941
X0.585Y-2.2941
X0.585Y-2.3941
X0.585Y-2.3941
X0.585Y-2.4941
X0.585Y-2.4941
X0.585Y-2.5941
X0.585Y-2.5941
X0.585Y-2.6941
X0.585Y-2.6941
X0.585Y-2.7941
X0.585Y-2.7941
X0.585Y-2.8941
X0.585Y-2.8941
X0.585Y-2.9941
X0.585Y-2.9941
X0.585Y-3.0941
X0.585Y-3.0941
X0.6795Y-3.3763
X0.7795Y-3.3763
X0.8795Y-3.3763
X0.9795Y-3.3763
X1.0795Y-3.3763
X1.185Y-1.9941
X1.185Y-1.9941
X1.185Y-2.0941
X1.185Y-2.0941
X1.185Y-2.1941
X1.185Y-2.1941
X1.185Y-2.2941
X1.185Y-2.2941
X1.185Y-2.3941
X1.185Y-2.3941
X1.185Y-2.4941
X1.185Y-2.4941
X1.185Y-2.5941
X1.185Y-2.5941
X1.185Y-2.6941
X1.185Y-2.6941
X1.185Y-2.7941
X1.185Y-2.7941
X1.185Y-2.8941
X1.185Y-2.8941
X1.185Y-2.9941
X1.185Y-2.9941
X1.185Y-3.0941
X1.185Y-3.0941
X10.5184Y-1.9941
X10.5184Y-1.9941
X10.5184Y-2.0941
X10.5184Y-2.0941
X10.5184Y-2.1941
X10.5184Y-2.1941
X10.5184Y-2.2941
X10.5184Y-2.2941
X10.5184Y-2.3941
X10.5184Y-2.3941
X10.5184Y-2.4941
X10.5184Y-2.4941
X10.5184Y-2.5941
X10.5184Y-2.5941
X10.5184Y-2.6941
X10.5184Y-2.6941
X10.5184Y-2.7941
X10.5184Y-2.7941
X10.5184Y-2.8941
X10.5184Y-2.8941
X10.5184Y-2.9941
X10.5184Y-2.9941
X10.5184Y-3.0941
X10.5184Y-3.0941
X10.6008Y-3.3763
X10.7008Y-3.3763
X10.8008Y-3.3763
X10.9008Y-3.3763
X11.0008Y-3.3763
X11.1184Y-1.9941
X11.1184Y-1.9941
X11.1184Y-2.0941
X11.1184Y-2.0941
X11.1184Y-2.1941
X11.1184Y-2.1941
X11.1184Y-2.2941
X11.1184Y-2.2941
X11.1184Y-2.3941
X11.1184Y-2.3941
X11.1184Y-2.4941
X11.1184Y-2.4941
X11.1184Y-2.5941
X11.1184Y-2.5941
X11.1184Y-2.6941
X11.1184Y-2.6941
X11.1184Y-2.7941
X11.1184Y-2.7941
X11.1184Y-2.8941
X11.1184Y-2.8941
X11.1184Y-2.9941
X11.1184Y-2.9941
X11.1184Y-3.0941
X11.1184Y-3.0941
T6
X0.56Y-3.502
X0.56Y-3.758
X11.1237Y-3.492
X11.1237Y-3.748
T8
X0.6976Y-3.8628
X1.0913Y-3.8622
X10.589Y-3.8622
X10.9827Y-3.8628
T9
X1.039Y-4.9439
X2.0429Y-2.534
X2.0429Y-4.0265
X5.0547Y-2.7943
X5.0547Y-4.3021
X6.6256Y-2.7943
X6.6256Y-4.3021
X9.6374Y-2.534
X9.6374Y-4.0265
X10.6413Y-4.9439
T7
G00X0.8323Y-4.16
M15
G01X0.8835Y-4.16
M16
G05
G00X0.8323Y-4.6009
M15
G01X0.8835Y-4.6009
M16
G05
G00X10.848Y-4.16
M15
G01X10.7969Y-4.16
M16
G05
G00X10.848Y-4.6009
M15
G01X10.7969Y-4.6009
M16
G05
T0
M30
