G04 #@! TF.GenerationSoftware,KiCad,Pcbnew,7.0.6*
G04 #@! TF.CreationDate,2023-07-16T22:52:48-04:00*
G04 #@! TF.ProjectId,SofleKeyboard,536f666c-654b-4657-9962-6f6172642e6b,rev?*
G04 #@! TF.SameCoordinates,Original*
G04 #@! TF.FileFunction,Profile,NP*
%FSLAX46Y46*%
G04 Gerber Fmt 4.6, Leading zero omitted, Abs format (unit mm)*
G04 Created by KiCad (PCBNEW 7.0.6) date 2023-07-16 22:52:48*
%MOMM*%
%LPD*%
G01*
G04 APERTURE LIST*
G04 #@! TA.AperFunction,Profile*
%ADD10C,0.150000*%
G04 #@! TD*
G04 APERTURE END LIST*
D10*
X149352000Y-63246000D02*
G75*
G03*
X147320000Y-63246000I-1016000J0D01*
G01*
X147320000Y-97282000D02*
G75*
G03*
X149352000Y-97282000I1016000J0D01*
G01*
X147320000Y-77978000D02*
G75*
G03*
X149352000Y-77978000I1016000J0D01*
G01*
X147320000Y-59182000D02*
G75*
G03*
X149352000Y-59182000I1016000J0D01*
G01*
X147320000Y-101346000D02*
X147320000Y-116332000D01*
X33820000Y-45316000D02*
X12320000Y-45316000D01*
X284360000Y-104704000D02*
X284360000Y-45316000D01*
X12320000Y-105316000D02*
X12320000Y-125816000D01*
X206360000Y-42816000D02*
X187360000Y-42816000D01*
X147320000Y-82042000D02*
X147320000Y-97282000D01*
X149352000Y-82042000D02*
G75*
G03*
X147320000Y-82042000I-1016000J0D01*
G01*
X53320000Y-42816000D02*
X53320000Y-45316000D01*
X187360000Y-42816000D02*
X187360000Y-51816000D01*
X243360000Y-42816000D02*
X224360000Y-42816000D01*
X149352000Y-97282000D02*
X149352000Y-82042000D01*
X18320000Y-155816000D02*
X35320000Y-145816000D01*
X149352000Y-101346000D02*
G75*
G03*
X147320000Y-101346000I-1016000J0D01*
G01*
X149352000Y-120396000D02*
G75*
G03*
X147320000Y-120396000I-1016000J0D01*
G01*
X72320000Y-42816000D02*
X53320000Y-42816000D01*
X109320000Y-137816000D02*
X147320000Y-127816000D01*
X53320000Y-45316000D02*
X33820000Y-45316000D01*
X278360000Y-155816000D02*
X292860000Y-130816000D01*
X149360000Y-127816000D02*
X187360000Y-137816000D01*
X206360000Y-40316000D02*
X206360000Y-42816000D01*
X261360000Y-145816000D02*
X278360000Y-155816000D01*
X149352000Y-59182000D02*
X149360000Y-51816000D01*
X284360000Y-125816000D02*
X284360000Y-105316000D01*
X147320000Y-51816000D02*
X147320000Y-59182000D01*
X149352000Y-116332000D02*
X149352000Y-101346000D01*
X284360000Y-45316000D02*
X262860000Y-45316000D01*
X12320000Y-104704000D02*
X12320000Y-105316000D01*
X149360000Y-127816000D02*
X149352000Y-120396000D01*
X292860000Y-130816000D02*
X286860000Y-127316000D01*
X3820000Y-130816000D02*
X18320000Y-155816000D01*
X224360000Y-42816000D02*
X224360000Y-40316000D01*
X147320000Y-116332000D02*
G75*
G03*
X149352000Y-116332000I1016000J0D01*
G01*
X187360000Y-51816000D02*
X149360000Y-51816000D01*
X109320000Y-42816000D02*
X90320000Y-42816000D01*
X224360000Y-40316000D02*
X206360000Y-40316000D01*
X90320000Y-40316000D02*
X72320000Y-40316000D01*
X147320000Y-120396000D02*
X147320000Y-127816000D01*
X187360000Y-137816000D02*
X243860000Y-137816000D01*
X243860000Y-137816000D02*
X261360000Y-145816000D01*
X12320000Y-125816000D02*
X9820000Y-127316000D01*
X262860000Y-45316000D02*
X243360000Y-45316000D01*
X35320000Y-145816000D02*
X52820000Y-137816000D01*
X147320000Y-63246000D02*
X147320000Y-77978000D01*
X147320000Y-51816000D02*
X109320000Y-51816000D01*
X12320000Y-45316000D02*
X12320000Y-104704000D01*
X72320000Y-40316000D02*
X72320000Y-42816000D01*
X286860000Y-127316000D02*
X284360000Y-125816000D01*
X243360000Y-45316000D02*
X243360000Y-42816000D01*
X284360000Y-105316000D02*
X284360000Y-104704000D01*
X109320000Y-51816000D02*
X109320000Y-42816000D01*
X9820000Y-127316000D02*
X3820000Y-130816000D01*
X149352000Y-77978000D02*
X149352000Y-63246000D01*
X52820000Y-137816000D02*
X109320000Y-137816000D01*
X90320000Y-42816000D02*
X90320000Y-40316000D01*
M02*
