  0
SECTION
  2
HEADER
  9
$ACADVER
  1
AC1014
  9
$HANDSEED
  5
FFFF
  9
$MEASUREMENT
 70
     1
  0
ENDSEC
  0
SECTION
  2
TABLES
  0
TABLE
  2
VPORT
  5
8
330
0
100
AcDbSymbolTable
 70
     4
  0
VPORT
  5
2E
330
8
100
AcDbSymbolTableRecord
100
AcDbViewportTableRecord
  2
*ACTIVE
 70
     0
 10
0.0
 20
0.0
 11
1.0
 21
1.0
 12
210.0
 22
148.5
 13
0.0
 23
0.0
 14
10.0
 24
10.0
 15
10.0
 25
10.0
 16
0.0
 26
0.0
 36
1.0
 17
0.0
 27
0.0
 37
0.0
 40
341.0
 41
1.24
 42
50.0
 43
0.0
 44
0.0
 50
0.0
 51
0.0
 71
     0
 72
   100
 73
     1
 74
     3
 75
     0
 76
     0
 77
     0
 78
     0
  0
ENDTAB
  0
TABLE
  2
LTYPE
  5
5
330
0
100
AcDbSymbolTable
 70
     1
  0
LTYPE
  5
14
330
5
100
AcDbSymbolTableRecord
100
AcDbLinetypeTableRecord
  2
BYBLOCK
 70
     0
  3

 72
    65
 73
     0
 40
0.0
  0
LTYPE
  5
15
330
5
100
AcDbSymbolTableRecord
100
AcDbLinetypeTableRecord
  2
BYLAYER
 70
     0
  3

 72
    65
 73
     0
 40
0.0
  0
LTYPE
  5
16
330
5
100
AcDbSymbolTableRecord
100
AcDbLinetypeTableRecord
  2
CONTINUOUS
 70
     0
  3
Solid line
 72
    65
 73
     0
 40
0.0
  0
ENDTAB
  0
TABLE
  2
LAYER
  5
2
100
AcDbSymbolTable
 70
2
  0
LAYER
  5
50
100
AcDbSymbolTableRecord
100
AcDbLayerTableRecord
  2
0
 70
0
  6
CONTINUOUS
  0
LAYER
  5
51
100
AcDbSymbolTableRecord
100
AcDbLayerTableRecord
  2
Layer_1
 70
0
  6
CONTINUOUS
  0
ENDTAB
  0
TABLE
  2
STYLE
  5
3
330
0
100
AcDbSymbolTable
 70
     1
  0
STYLE
  5
11
330
3
100
AcDbSymbolTableRecord
100
AcDbTextStyleTableRecord
  2
STANDARD
 70
     0
 40
0.0
 41
1.0
 50
0.0
 71
     0
 42
2.5
  3
txt
  4

  0
ENDTAB
  0
TABLE
  2
VIEW
  5
6
330
0
100
AcDbSymbolTable
 70
     0
  0
ENDTAB
  0
TABLE
  2
UCS
  5
7
330
0
100
AcDbSymbolTable
 70
     0
  0
ENDTAB
  0
TABLE
  2
APPID
  5
9
330
0
100
AcDbSymbolTable
 70
     2
  0
APPID
  5
12
330
9
100
AcDbSymbolTableRecord
100
AcDbRegAppTableRecord
  2
ACAD
 70
     0
  0
ENDTAB
  0
TABLE
  2
DIMSTYLE
  5
A
330
0
100
AcDbSymbolTable
 70
     1
  0
DIMSTYLE
105
27
330
A
100
AcDbSymbolTableRecord
100
AcDbDimStyleTableRecord
  2
ISO-25
 70
     0
  3

  4

  5

  6

  7

 40
1.0
 41
2.5
 42
0.625
 43
3.75
 44
1.25
 45
0.0
 46
0.0
 47
0.0
 48
0.0
140
2.5
141
2.5
142
0.0
143
0.03937007874016
144
1.0
145
0.0
146
1.0
147
0.625
 71
     0
 72
     0
 73
     0
 74
     0
 75
     0
 76
     0
 77
     1
 78
     8
170
     0
171
     3
172
     1
173
     0
174
     0
175
     0
176
     0
177
     0
178
     0
270
     2
271
     2
272
     2
273
     2
274
     3
340
11
275
     0
280
     0
281
     0
282
     0
283
     0
284
     8
285
     0
286
     0
287
     3
288
     0
  0
ENDTAB
  0
TABLE
  2
BLOCK_RECORD
  5
1
330
0
100
AcDbSymbolTable
 70
     1
  0
BLOCK_RECORD
  5
1F
330
1
100
AcDbSymbolTableRecord
100
AcDbBlockTableRecord
  2
*MODEL_SPACE
  0
BLOCK_RECORD
  5
1B
330
1
100
AcDbSymbolTableRecord
100
AcDbBlockTableRecord
  2
*PAPER_SPACE
  0
ENDTAB
  0
ENDSEC
  0
SECTION
  2
BLOCKS
  0
BLOCK
  5
20
330
1F
100
AcDbEntity
  8
0
100
AcDbBlockBegin
  2
*MODEL_SPACE
 70
     0
 10
0.0
 20
0.0
 30
0.0
  3
*MODEL_SPACE
  1

  0
ENDBLK
  5
21
330
1F
100
AcDbEntity
  8
0
100
AcDbBlockEnd
  0
BLOCK
  5
1C
330
1B
100
AcDbEntity
 67
     1
  8
0
100
AcDbBlockBegin
  2
*PAPER_SPACE
  1

  0
ENDBLK
  5
1D
330
1B
100
AcDbEntity
 67
     1
  8
0
100
AcDbBlockEnd
  0
ENDSEC
  0
SECTION
  2
ENTITIES
  0
LWPOLYLINE
  5
100
100
AcDbEntity
  8
Layer_1
 62
7
100
AcDbPolyline
 90
112
 70
1
 10
136.265280
 20
25.083216
 30
0.0
 10
117.552210
 20
23.577686
 30
0.0
 10
117.416110
 20
23.558486
 30
0.0
 10
117.284640
 20
23.523686
 30
0.0
 10
117.159010
 20
23.473986
 30
0.0
 10
117.040410
 20
23.410186
 30
0.0
 10
116.930070
 20
23.332986
 30
0.0
 10
116.829190
 20
23.243086
 30
0.0
 10
116.738990
 20
23.141326
 30
0.0
 10
116.660690
 20
23.028396
 30
0.0
 10
108.175370
 20
9.092026
 30
0.0
 10
108.089570
 20
8.969686
 30
0.0
 10
107.989970
 20
8.860786
 30
0.0
 10
107.878170
 20
8.766186
 30
0.0
 10
107.755750
 20
8.686786
 30
0.0
 10
107.624280
 20
8.623486
 30
0.0
 10
107.485350
 20
8.577186
 30
0.0
 10
107.340540
 20
8.548786
 30
0.0
 10
107.191420
 20
8.538786
 30
0.0
 10
91.467720
 20
8.538786
 30
0.0
 10
90.657874
 20
8.566286
 30
0.0
 10
89.852666
 20
8.648386
 30
0.0
 10
89.054857
 20
8.784786
 30
0.0
 10
88.267210
 20
8.975086
 30
0.0
 10
72.776080
 20
13.278296
 30
0.0
 10
72.316760
 20
13.397536
 30
0.0
 10
71.854062
 20
13.501066
 30
0.0
 10
71.388390
 20
13.588766
 30
0.0
 10
70.920149
 20
13.660666
 30
0.0
 10
70.449742
 20
13.716666
 30
0.0
 10
69.977574
 20
13.756766
 30
0.0
 10
69.504048
 20
13.780866
 30
0.0
 10
69.029570
 20
13.788866
 30
0.0
 10
53.811000
 20
13.788866
 30
0.0
 10
53.323294
 20
13.777266
 30
0.0
 10
52.837524
 20
13.742466
 30
0.0
 10
52.354501
 20
13.684666
 30
0.0
 10
51.875038
 20
13.604066
 30
0.0
 10
51.399948
 20
13.500746
 30
0.0
 10
50.930041
 20
13.374886
 30
0.0
 10
50.466132
 20
13.226666
 30
0.0
 10
50.009032
 20
13.056216
 30
0.0
 10
17.930142
 20
0.215296
 30
0.0
 10
17.727915
 20
0.154996
 30
0.0
 10
17.523247
 20
0.132796
 30
0.0
 10
17.320787
 20
0.147096
 30
0.0
 10
17.125183
 20
0.196196
 30
0.0
 10
16.941086
 20
0.278496
 30
0.0
 10
16.773144
 20
0.392466
 30
0.0
 10
16.626006
 20
0.536456
 30
0.0
 10
16.504322
 20
0.708856
 30
0.0
 10
3.029884
 20
24.051366
 30
0.0
 10
2.984734
 20
24.137866
 30
0.0
 10
0.683430
 20
29.041349
 30
0.0
 10
0.555094
 20
29.335651
 30
0.0
 10
0.443426
 20
29.635893
 30
0.0
 10
0.348584
 20
29.941365
 30
0.0
 10
0.270726
 20
30.251355
 30
0.0
 10
0.210010
 20
30.565153
 30
0.0
 10
0.166593
 20
30.882048
 30
0.0
 10
0.140634
 20
31.201331
 30
0.0
 10
0.132294
 20
31.522289
 30
0.0
 10
0.160494
 20
49.105489
 30
0.0
 10
0.184258
 20
49.337743
 30
0.0
 10
0.251700
 20
49.554025
 30
0.0
 10
0.358191
 20
49.749714
 30
0.0
 10
0.499101
 20
49.920188
 30
0.0
 10
0.669800
 20
50.060824
 30
0.0
 10
0.865659
 20
50.167001
 30
0.0
 10
1.082049
 20
50.234101
 30
0.0
 10
1.314341
 20
50.257491
 30
0.0
 10
21.832885
 20
50.257491
 30
0.0
 10
22.043647
 20
50.278341
 30
0.0
 10
22.244388
 20
50.339341
 30
0.0
 10
22.429468
 20
50.438151
 30
0.0
 10
22.593244
 20
50.572437
 30
0.0
 10
22.727530
 20
50.736213
 30
0.0
 10
22.826340
 20
50.921293
 30
0.0
 10
22.887340
 20
51.122034
 30
0.0
 10
22.908190
 20
51.332796
 30
0.0
 10
22.908190
 20
108.142887
 30
0.0
 10
22.933320
 20
108.392166
 30
0.0
 10
23.005390
 20
108.624345
 30
0.0
 10
23.119431
 20
108.834450
 30
0.0
 10
23.270468
 20
109.017509
 30
0.0
 10
23.453525
 20
109.168546
 30
0.0
 10
23.663631
 20
109.282588
 30
0.0
 10
23.895809
 20
109.354658
 30
0.0
 10
24.145088
 20
109.379788
 30
0.0
 10
96.365633
 20
109.379707
 30
0.0
 10
97.470210
 20
109.357507
 30
0.0
 10
98.572560
 20
109.290987
 30
0.0
 10
99.671340
 20
109.180252
 30
0.0
 10
100.765240
 20
109.025410
 30
0.0
 10
136.330220
 20
103.260047
 30
0.0
 10
136.531890
 20
103.208417
 30
0.0
 10
136.716640
 20
103.123737
 30
0.0
 10
136.881390
 20
103.009603
 30
0.0
 10
137.023090
 20
102.869621
 30
0.0
 10
137.138650
 20
102.707397
 30
0.0
 10
137.225050
 20
102.526533
 30
0.0
 10
137.279150
 20
102.330634
 30
0.0
 10
137.297950
 20
102.123304
 30
0.0
 10
137.324950
 20
26.231916
 30
0.0
 10
137.304050
 20
26.012106
 30
0.0
 10
137.243650
 20
25.805836
 30
0.0
 10
137.147650
 20
25.617236
 30
0.0
 10
137.019740
 20
25.450416
 30
0.0
 10
136.863760
 20
25.309486
 30
0.0
 10
136.683500
 20
25.198566
 30
0.0
 10
136.482770
 20
25.121766
 30
0.0
 10
136.265360
 20
25.083166
 30
0.0
  0
LWPOLYLINE
  5
101
100
AcDbEntity
  8
Layer_1
 62
7
100
AcDbPolyline
 90
4
 70
1
 10
25.342430
 20
103.498149
 30
0.0
 10
39.340370
 20
103.498149
 30
0.0
 10
39.340370
 20
89.497669
 30
0.0
 10
25.342430
 20
89.497669
 30
0.0
  0
LWPOLYLINE
  5
102
100
AcDbEntity
  8
Layer_1
 62
7
100
AcDbPolyline
 90
4
 70
1
 10
44.341630
 20
105.898449
 30
0.0
 10
58.342110
 20
105.898449
 30
0.0
 10
58.342110
 20
91.897969
 30
0.0
 10
44.341630
 20
91.897969
 30
0.0
  0
LWPOLYLINE
  5
103
100
AcDbEntity
  8
Layer_1
 62
7
100
AcDbPolyline
 90
4
 70
1
 10
63.442420
 20
107.287864
 30
0.0
 10
77.440360
 20
107.287864
 30
0.0
 10
77.440360
 20
93.287384
 30
0.0
 10
63.442420
 20
93.287384
 30
0.0
  0
LWPOLYLINE
  5
104
100
AcDbEntity
  8
Layer_1
 62
7
100
AcDbPolyline
 90
4
 70
1
 10
82.441620
 20
105.898483
 30
0.0
 10
96.442100
 20
105.898483
 30
0.0
 10
96.442100
 20
91.898003
 30
0.0
 10
82.441620
 20
91.898003
 30
0.0
  0
LWPOLYLINE
  5
105
100
AcDbEntity
  8
Layer_1
 62
7
100
AcDbPolyline
 90
4
 70
1
 10
101.542420
 20
101.097883
 30
0.0
 10
115.540360
 20
101.097883
 30
0.0
 10
115.540360
 20
87.097403
 30
0.0
 10
101.542420
 20
87.097403
 30
0.0
  0
LWPOLYLINE
  5
106
100
AcDbEntity
  8
Layer_1
 62
7
100
AcDbPolyline
 90
4
 70
1
 10
120.541620
 20
99.596742
 30
0.0
 10
134.542100
 20
99.596742
 30
0.0
 10
134.542100
 20
85.596262
 30
0.0
 10
120.541620
 20
85.596262
 30
0.0
  0
LWPOLYLINE
  5
107
100
AcDbEntity
  8
Layer_1
 62
7
100
AcDbPolyline
 90
4
 70
1
 10
120.541620
 20
80.696602
 30
0.0
 10
134.542100
 20
80.696602
 30
0.0
 10
134.542100
 20
66.698662
 30
0.0
 10
120.541620
 20
66.698662
 30
0.0
  0
LWPOLYLINE
  5
108
100
AcDbEntity
  8
Layer_1
 62
7
100
AcDbPolyline
 90
4
 70
1
 10
101.542420
 20
82.197743
 30
0.0
 10
115.540360
 20
82.197743
 30
0.0
 10
115.540360
 20
68.197263
 30
0.0
 10
101.542420
 20
68.197263
 30
0.0
  0
LWPOLYLINE
  5
109
100
AcDbEntity
  8
Layer_1
 62
7
100
AcDbPolyline
 90
4
 70
1
 10
82.441620
 20
86.896743
 30
0.0
 10
96.442100
 20
86.896743
 30
0.0
 10
96.442100
 20
72.896263
 30
0.0
 10
82.441620
 20
72.896263
 30
0.0
  0
LWPOLYLINE
  5
10a
100
AcDbEntity
  8
Layer_1
 62
7
100
AcDbPolyline
 90
4
 70
1
 10
63.442420
 20
88.197224
 30
0.0
 10
77.440360
 20
88.197224
 30
0.0
 10
77.440360
 20
74.196744
 30
0.0
 10
63.442420
 20
74.196744
 30
0.0
  0
LWPOLYLINE
  5
10b
100
AcDbEntity
  8
Layer_1
 62
7
100
AcDbPolyline
 90
4
 70
1
 10
44.341620
 20
86.797683
 30
0.0
 10
58.342100
 20
86.797683
 30
0.0
 10
58.342100
 20
72.797203
 30
0.0
 10
44.341620
 20
72.797203
 30
0.0
  0
LWPOLYLINE
  5
10c
100
AcDbEntity
  8
Layer_1
 62
7
100
AcDbPolyline
 90
4
 70
1
 10
25.342420
 20
84.397382
 30
0.0
 10
39.340360
 20
84.397382
 30
0.0
 10
39.340360
 20
70.396902
 30
0.0
 10
25.342420
 20
70.396902
 30
0.0
  0
LWPOLYLINE
  5
10d
100
AcDbEntity
  8
Layer_1
 62
7
100
AcDbPolyline
 90
4
 70
1
 10
25.342420
 20
65.398182
 30
0.0
 10
39.340360
 20
65.398182
 30
0.0
 10
39.340360
 20
51.397702
 30
0.0
 10
25.342420
 20
51.397702
 30
0.0
  0
LWPOLYLINE
  5
10e
100
AcDbEntity
  8
Layer_1
 62
7
100
AcDbPolyline
 90
4
 70
1
 10
44.341620
 20
67.798483
 30
0.0
 10
58.342100
 20
67.798483
 30
0.0
 10
58.342100
 20
53.798003
 30
0.0
 10
44.341620
 20
53.798003
 30
0.0
  0
LWPOLYLINE
  5
10f
100
AcDbEntity
  8
Layer_1
 62
7
100
AcDbPolyline
 90
4
 70
1
 10
63.442420
 20
69.096424
 30
0.0
 10
77.440360
 20
69.096424
 30
0.0
 10
77.440360
 20
55.098484
 30
0.0
 10
63.442420
 20
55.098484
 30
0.0
  0
LWPOLYLINE
  5
110
100
AcDbEntity
  8
Layer_1
 62
7
100
AcDbPolyline
 90
4
 70
1
 10
82.441620
 20
67.798483
 30
0.0
 10
96.442100
 20
67.798483
 30
0.0
 10
96.442100
 20
53.798003
 30
0.0
 10
82.441620
 20
53.798003
 30
0.0
  0
LWPOLYLINE
  5
111
100
AcDbEntity
  8
Layer_1
 62
7
100
AcDbPolyline
 90
4
 70
1
 10
101.542420
 20
62.997883
 30
0.0
 10
115.540360
 20
62.997883
 30
0.0
 10
115.540360
 20
48.997403
 30
0.0
 10
101.542420
 20
48.997403
 30
0.0
  0
LWPOLYLINE
  5
112
100
AcDbEntity
  8
Layer_1
 62
7
100
AcDbPolyline
 90
4
 70
1
 10
120.541620
 20
61.496742
 30
0.0
 10
134.542100
 20
61.496742
 30
0.0
 10
134.542100
 20
47.496262
 30
0.0
 10
120.541620
 20
47.496262
 30
0.0
  0
LWPOLYLINE
  5
113
100
AcDbEntity
  8
Layer_1
 62
7
100
AcDbPolyline
 90
4
 70
1
 10
25.342420
 20
46.396442
 30
0.0
 10
39.340360
 20
46.396442
 30
0.0
 10
39.340360
 20
32.398502
 30
0.0
 10
25.342420
 20
32.398502
 30
0.0
  0
LWPOLYLINE
  5
114
100
AcDbEntity
  8
Layer_1
 62
7
100
AcDbPolyline
 90
4
 70
1
 10
44.341620
 20
48.697683
 30
0.0
 10
58.342100
 20
48.697683
 30
0.0
 10
58.342100
 20
34.697203
 30
0.0
 10
44.341620
 20
34.697203
 30
0.0
  0
LWPOLYLINE
  5
115
100
AcDbEntity
  8
Layer_1
 62
7
100
AcDbPolyline
 90
4
 70
1
 10
63.442420
 20
50.097221
 30
0.0
 10
77.440360
 20
50.097221
 30
0.0
 10
77.440360
 20
36.096741
 30
0.0
 10
63.442420
 20
36.096741
 30
0.0
  0
LWPOLYLINE
  5
116
100
AcDbEntity
  8
Layer_1
 62
7
100
AcDbPolyline
 90
4
 70
1
 10
82.441620
 20
48.697683
 30
0.0
 10
96.442100
 20
48.697683
 30
0.0
 10
96.442100
 20
34.697203
 30
0.0
 10
82.441620
 20
34.697203
 30
0.0
  0
LWPOLYLINE
  5
117
100
AcDbEntity
  8
Layer_1
 62
7
100
AcDbPolyline
 90
4
 70
1
 10
101.542420
 20
43.998683
 30
0.0
 10
115.540360
 20
43.998683
 30
0.0
 10
115.540360
 20
29.998203
 30
0.0
 10
101.542420
 20
29.998203
 30
0.0
  0
LWPOLYLINE
  5
118
100
AcDbEntity
  8
Layer_1
 62
7
100
AcDbPolyline
 90
4
 70
1
 10
120.592420
 20
42.497542
 30
0.0
 10
134.590360
 20
42.497542
 30
0.0
 10
134.590360
 20
28.497062
 30
0.0
 10
120.592420
 20
28.497062
 30
0.0
  0
LWPOLYLINE
  5
119
100
AcDbEntity
  8
Layer_1
 62
7
100
AcDbPolyline
 90
4
 70
1
 10
92.040280
 20
25.596386
 30
0.0
 10
106.040760
 20
25.596386
 30
0.0
 10
106.040760
 20
11.598446
 30
0.0
 10
92.040280
 20
11.598446
 30
0.0
  0
LWPOLYLINE
  5
11a
100
AcDbEntity
  8
Layer_1
 62
7
100
AcDbPolyline
 90
4
 70
1
 10
72.942020
 20
29.746743
 30
0.0
 10
86.942500
 20
29.746743
 30
0.0
 10
86.942500
 20
15.746266
 30
0.0
 10
72.942020
 20
15.746266
 30
0.0
  0
LWPOLYLINE
  5
11b
100
AcDbEntity
  8
Layer_1
 62
7
100
AcDbPolyline
 90
4
 70
1
 10
53.841220
 20
29.746743
 30
0.0
 10
67.841700
 20
29.746743
 30
0.0
 10
67.841700
 20
15.746266
 30
0.0
 10
53.841220
 20
15.746266
 30
0.0
  0
LWPOLYLINE
  5
11c
100
AcDbEntity
  8
Layer_1
 62
7
100
AcDbPolyline
 90
4
 70
1
 10
31.148858
 20
25.027426
 30
0.0
 10
44.671818
 20
28.652004
 30
0.0
 10
48.293858
 20
15.129046
 30
0.0
 10
34.770898
 20
11.504466
 30
0.0
  0
LWPOLYLINE
  5
11d
100
AcDbEntity
  8
Layer_1
 62
7
100
AcDbPolyline
 90
4
 70
1
 10
20.364019
 20
25.990086
 30
0.0
 10
27.364259
 20
13.864126
 30
0.0
 10
15.238299
 20
6.866426
 30
0.0
 10
8.238059
 20
18.989846
 30
0.0
  0
LWPOLYLINE
  5
11e
100
AcDbEntity
  8
Layer_1
 62
7
100
AcDbPolyline
 90
4
 70
1
 10
3.894555
 20
48.131575
 30
0.0
 10
19.555332
 20
48.131575
 30
0.0
 10
19.555332
 20
36.145752
 30
0.0
 10
3.894555
 20
36.145752
 30
0.0
  0
ENDSEC
  0
SECTION
  2
OBJECTS
  0
DICTIONARY
  5
C
330
0
100
AcDbDictionary
  3
ACAD_GROUP
350
D
  3
ACAD_MLINESTYLE
350
17
  0
DICTIONARY
  5
D
330
C
100
AcDbDictionary
  0
DICTIONARY
  5
1A
330
C
100
AcDbDictionary
  0
DICTIONARY
  5
17
330
C
100
AcDbDictionary
  3
STANDARD
350
18
  0
DICTIONARY
  5
19
330
C
100
AcDbDictionary
  0
ENDSEC
  0
EOF
