<?xml version="1.0" encoding="UTF-8" standalone="no"?>
<!-- Created with Inkscape (http://www.inkscape.org/) -->

<svg
   xmlns:dc="http://purl.org/dc/elements/1.1/"
   xmlns:cc="http://creativecommons.org/ns#"
   xmlns:rdf="http://www.w3.org/1999/02/22-rdf-syntax-ns#"
   xmlns:svg="http://www.w3.org/2000/svg"
   xmlns="http://www.w3.org/2000/svg"
   xmlns:sodipodi="http://sodipodi.sourceforge.net/DTD/sodipodi-0.dtd"
   xmlns:inkscape="http://www.inkscape.org/namespaces/inkscape"
   width="137.45724mm"
   height="109.51208mm"
   viewBox="0 0 137.45724 109.51208"
   version="1.1"
   id="svg6136"
   inkscape:version="0.92.4 (5da689c313, 2019-01-14)"
   sodipodi:docname="SofleKeyboardTopPlate_ShapeOnly.svg">
  <defs
     id="defs6130" />
  <sodipodi:namedview
     id="base"
     pagecolor="#ffffff"
     bordercolor="#666666"
     borderopacity="1.0"
     inkscape:pageopacity="0.0"
     inkscape:pageshadow="2"
     inkscape:zoom="0.35"
     inkscape:cx="-154.52398"
     inkscape:cy="-115.90518"
     inkscape:document-units="mm"
     inkscape:current-layer="layer1"
     showgrid="false"
     fit-margin-top="0"
     fit-margin-left="0"
     fit-margin-right="0"
     fit-margin-bottom="0"
     inkscape:window-width="1920"
     inkscape:window-height="1019"
     inkscape:window-x="0"
     inkscape:window-y="27"
     inkscape:window-maximized="1" />
  <metadata
     id="metadata6133">
    <rdf:RDF>
      <cc:Work
         rdf:about="">
        <dc:format>image/svg+xml</dc:format>
        <dc:type
           rdf:resource="http://purl.org/dc/dcmitype/StillImage" />
        <dc:title></dc:title>
      </cc:Work>
    </rdf:RDF>
  </metadata>
  <g
     inkscape:label="Layer 1"
     inkscape:groupmode="layer"
     id="layer1"
     transform="translate(-12.15828,-8.6546737)">
    <g
       transform="translate(9.54038,-8.5117323)"
       style="display:inline"
       id="g6088">
      <path
         sodipodi:nodetypes="ccccccccccccccc"
         inkscape:connector-curvature="0"
         id="path4233-9-4-0"
         d="m 138.88318,101.59527 -18.71307,1.50553 -0.1361,0.0192 -0.13147,0.0348 -0.12563,0.0497 -0.1186,0.0638 -0.11034,0.0772 -0.10088,0.0899 -0.0902,0.10176 -0.0783,0.11293 -8.48532,13.93637 -0.0858,0.12234 -0.0996,0.1089 -0.1118,0.0946 -0.12242,0.0794 -0.13147,0.0633 -0.13893,0.0463 -0.14481,0.0284 -0.14912,0.01 h -15.7237 l -0.809846,-0.0275 -0.805208,-0.0821 -0.797809,-0.1364 -0.787647,-0.1903 -15.49113,-4.30321 -0.45932,-0.11924 -0.462698,-0.10353 -0.465672,-0.0877 -0.468241,-0.0719 -0.470407,-0.056 -0.472168,-0.0401 -0.473526,-0.0241 -0.474478,-0.008 H 56.4289 l -0.487706,0.0116 -0.48577,0.0348 -0.483023,0.0578 -0.479463,0.0806 -0.47509,0.10332 -0.469907,0.12586 -0.463909,0.14822 -0.4571,0.17045 -32.07889,12.84092 -0.202227,0.0603 -0.204668,0.0222 -0.20246,-0.0143 -0.195604,-0.0491 -0.184097,-0.0823 -0.167942,-0.11397 -0.147138,-0.14399 -0.121684,-0.1724 -13.4744384,-23.34251 -0.04515,-0.0865 -2.301304,-4.903483 -0.1283356,-0.294302 -0.1116676,-0.300242 -0.094842,-0.305472 -0.077858,-0.30999 -0.060716,-0.313798 -0.043417,-0.316895 -0.025959,-0.319283 -0.00834,-0.320958 0.0282,-17.5832 0.023764,-0.232254 0.067442,-0.216282 0.1064905,-0.195689 0.1409096,-0.170474 0.1706991,-0.140636 0.1958594,-0.106177 0.2163903,-0.0671 0.2322916,-0.02339 H 24.450785 l 0.210762,-0.02085 0.200741,-0.061 0.18508,-0.09881 0.163776,-0.134286 0.134286,-0.163776 0.09881,-0.18508 0.061,-0.200741 0.02085,-0.210762 V 18.535599 l 0.02513,-0.249279 0.07207,-0.232179 0.114041,-0.210105 0.151037,-0.183059 0.183057,-0.151037 0.210106,-0.114042 0.232178,-0.07207 0.249279,-0.02513 72.220545,8.1e-5 1.104577,0.0222 1.10235,0.06652 1.09878,0.110735 1.0939,0.154842 35.56498,5.765363 0.20167,0.05163 0.18475,0.08468 0.16475,0.114134 0.1417,0.139982 0.11556,0.162224 0.0864,0.180864 0.0541,0.195899 0.0188,0.20733 0.027,75.891388 -0.0209,0.21981 -0.0604,0.20627 -0.096,0.1886 -0.12791,0.16682 -0.15598,0.14093 -0.18026,0.11092 -0.20073,0.0768 -0.21741,0.0386 h 2e-5"
         style="display:inline;fill:none;stroke:#000000;stroke-width:0.26458392px;stroke-linecap:butt;stroke-linejoin:miter;stroke-opacity:1"
         inkscape:original-d="m 62763.753,41623.007 -8015.348,644.863 -3593.563,5902.098 H 44067.848 L 36626.857,46102.97 h -7518.992 l -13714.989,5489.996 -5510.9926,-9546.991 -1132,-2411.997 12.6531,-7888.727 H 17717.607 V 8468.9203 l 29791.968,0.033 15243.256,2471.0527 z" />
      <path
         d="m 27.96033,23.180337 h 13.99794 m 0,0 v 14.00048 m 0,0 H 27.96033 m 0,0 v -14.00048"
         style="fill:none;fill-opacity:0.08333327;stroke:#000000;stroke-width:0.14999995;stroke-linecap:round;stroke-linejoin:round;stroke-opacity:1"
         id="path736-6"
         inkscape:connector-curvature="0" />
      <path
         d="m 46.95953,20.780037 h 14.00048 m 0,0 v 14.00048 m 0,0 H 46.95953 m 0,0 v -14.00048"
         style="fill:none;fill-opacity:0.08333327;stroke:#000000;stroke-width:0.14999995;stroke-linecap:round;stroke-linejoin:round;stroke-opacity:1"
         id="path720-7"
         inkscape:connector-curvature="0" />
      <path
         d="m 66.06032,19.390622 h 13.99794 m 0,0 v 14.00048 m 0,0 H 66.06032 m 0,0 v -14.00048"
         style="opacity:1;fill:none;fill-opacity:0.08333327;stroke:#000000;stroke-width:0.14999995;stroke-linecap:round;stroke-linejoin:round;stroke-opacity:1"
         id="path704-8"
         inkscape:connector-curvature="0" />
      <path
         d="M 85.05952,20.780003 H 99.06 m 0,0 v 14.00048 m 0,0 H 85.05952 m 0,0 v -14.00048"
         style="opacity:1;fill:none;fill-opacity:0.08333327;stroke:#000000;stroke-width:0.14999995;stroke-linecap:round;stroke-linejoin:round;stroke-opacity:1"
         id="path688-1"
         inkscape:connector-curvature="0" />
      <path
         d="m 104.16032,25.580603 h 13.99794 m 0,0 v 14.00048 m 0,0 h -13.99794 m 0,0 v -14.00048"
         style="opacity:1;fill:none;fill-opacity:0.08333327;stroke:#000000;stroke-width:0.14999995;stroke-linecap:round;stroke-linejoin:round;stroke-opacity:1"
         id="path672-9"
         inkscape:connector-curvature="0" />
      <path
         d="M 123.15952,27.081744 H 137.16 m 0,0 v 14.00048 m 0,0 h -14.00048 m 0,0 v -14.00048"
         style="opacity:1;fill:none;fill-opacity:0.08333327;stroke:#000000;stroke-width:0.14999995;stroke-linecap:round;stroke-linejoin:round;stroke-opacity:1"
         id="path656-5"
         inkscape:connector-curvature="0" />
      <path
         d="M 123.15952,45.981884 H 137.16 m 0,0 v 13.99794 m 0,0 h -14.00048 m 0,0 v -13.99794"
         style="opacity:1;fill:none;fill-opacity:0.08333327;stroke:#000000;stroke-width:0.14999995;stroke-linecap:round;stroke-linejoin:round;stroke-opacity:1"
         id="path560-0"
         inkscape:connector-curvature="0" />
      <path
         d="m 104.16032,44.480743 h 13.99794 m 0,0 v 14.00048 m 0,0 h -13.99794 m 0,0 v -14.00048"
         style="opacity:1;fill:none;fill-opacity:0.08333327;stroke:#000000;stroke-width:0.14999995;stroke-linecap:round;stroke-linejoin:round;stroke-opacity:1"
         id="path576-6"
         inkscape:connector-curvature="0" />
      <path
         d="M 85.05952,39.781743 H 99.06 m 0,0 v 14.00048 m 0,0 H 85.05952 m 0,0 v -14.00048"
         style="opacity:1;fill:none;fill-opacity:0.08333327;stroke:#000000;stroke-width:0.14999995;stroke-linecap:round;stroke-linejoin:round;stroke-opacity:1"
         id="path592-7"
         inkscape:connector-curvature="0" />
      <path
         d="m 66.06032,38.481262 h 13.99794 m 0,0 v 14.00048 m 0,0 H 66.06032 m 0,0 v -14.00048"
         style="opacity:1;fill:none;fill-opacity:0.08333327;stroke:#000000;stroke-width:0.14999995;stroke-linecap:round;stroke-linejoin:round;stroke-opacity:1"
         id="path608-3"
         inkscape:connector-curvature="0" />
      <path
         d="M 46.95952,39.880803 H 60.96 m 0,0 v 14.00048 m 0,0 H 46.95952 m 0,0 v -14.00048"
         style="opacity:1;fill:none;fill-opacity:0.08333327;stroke:#000000;stroke-width:0.14999995;stroke-linecap:round;stroke-linejoin:round;stroke-opacity:1"
         id="path624-5"
         inkscape:connector-curvature="0" />
      <path
         d="m 27.96032,42.281104 h 13.99794 m 0,0 v 14.00048 m 0,0 H 27.96032 m 0,0 v -14.00048"
         style="opacity:1;fill:none;fill-opacity:0.08333327;stroke:#000000;stroke-width:0.14999995;stroke-linecap:round;stroke-linejoin:round;stroke-opacity:1"
         id="path640-3"
         inkscape:connector-curvature="0" />
      <path
         d="m 27.96032,61.280304 h 13.99794 m 0,0 v 14.00048 m 0,0 H 27.96032 m 0,0 v -14.00048"
         style="opacity:1;fill:none;fill-opacity:0.08333327;stroke:#000000;stroke-width:0.14999995;stroke-linecap:round;stroke-linejoin:round;stroke-opacity:1"
         id="path544-8"
         inkscape:connector-curvature="0" />
      <path
         d="M 46.95952,58.880003 H 60.96 m 0,0 v 14.00048 m 0,0 H 46.95952 m 0,0 v -14.00048"
         style="opacity:1;fill:none;fill-opacity:0.08333327;stroke:#000000;stroke-width:0.14999995;stroke-linecap:round;stroke-linejoin:round;stroke-opacity:1"
         id="path528-4"
         inkscape:connector-curvature="0" />
      <path
         d="m 66.06032,57.582062 h 13.99794 m 0,0 v 13.99794 m 0,0 H 66.06032 m 0,0 v -13.99794"
         style="opacity:1;fill:none;fill-opacity:0.08333327;stroke:#000000;stroke-width:0.14999995;stroke-linecap:round;stroke-linejoin:round;stroke-opacity:1"
         id="path512-8"
         inkscape:connector-curvature="0" />
      <path
         d="M 85.05952,58.880003 H 99.06 m 0,0 v 14.00048 m 0,0 H 85.05952 m 0,0 v -14.00048"
         style="opacity:1;fill:none;fill-opacity:0.08333327;stroke:#000000;stroke-width:0.14999995;stroke-linecap:round;stroke-linejoin:round;stroke-opacity:1"
         id="path496-4"
         inkscape:connector-curvature="0" />
      <path
         d="m 104.16032,63.680603 h 13.99794 m 0,0 v 14.00048 m 0,0 h -13.99794 m 0,0 v -14.00048"
         style="opacity:1;fill:none;fill-opacity:0.08333327;stroke:#000000;stroke-width:0.14999995;stroke-linecap:round;stroke-linejoin:round;stroke-opacity:1"
         id="path480-8"
         inkscape:connector-curvature="0" />
      <path
         d="M 123.15952,65.181744 H 137.16 m 0,0 v 14.00048 m 0,0 h -14.00048 m 0,0 v -14.00048"
         style="opacity:1;fill:none;fill-opacity:0.08333327;stroke:#000000;stroke-width:0.14999995;stroke-linecap:round;stroke-linejoin:round;stroke-opacity:1"
         id="path464-2"
         inkscape:connector-curvature="0" />
      <path
         d="m 27.96032,80.282044 h 13.99794 m 0,0 v 13.99794 m 0,0 H 27.96032 m 0,0 v -13.99794"
         style="opacity:1;fill:none;fill-opacity:0.08333327;stroke:#000000;stroke-width:0.14999995;stroke-linecap:round;stroke-linejoin:round;stroke-opacity:1"
         id="path448-9"
         inkscape:connector-curvature="0" />
      <path
         d="M 46.95952,77.980803 H 60.96 m 0,0 v 14.00048 m 0,0 H 46.95952 m 0,0 v -14.00048"
         style="opacity:1;fill:none;fill-opacity:0.08333327;stroke:#000000;stroke-width:0.14999995;stroke-linecap:round;stroke-linejoin:round;stroke-opacity:1"
         id="path432-1"
         inkscape:connector-curvature="0" />
      <path
         d="m 66.06032,76.581265 h 13.99794 m 0,0 v 14.00048 m 0,0 H 66.06032 m 0,0 v -14.00048"
         style="opacity:1;fill:none;fill-opacity:0.08333327;stroke:#000000;stroke-width:0.14999995;stroke-linecap:round;stroke-linejoin:round;stroke-opacity:1"
         id="path416-6"
         inkscape:connector-curvature="0" />
      <path
         d="M 85.05952,77.980803 H 99.06 m 0,0 v 14.00048 m 0,0 H 85.05952 m 0,0 v -14.00048"
         style="opacity:1;fill:none;fill-opacity:0.08333327;stroke:#000000;stroke-width:0.14999995;stroke-linecap:round;stroke-linejoin:round;stroke-opacity:1"
         id="path400-6"
         inkscape:connector-curvature="0" />
      <path
         d="m 104.16032,82.679803 h 13.99794 m 0,0 v 14.00048 m 0,0 h -13.99794 m 0,0 v -14.00048"
         style="opacity:1;fill:none;fill-opacity:0.08333327;stroke:#000000;stroke-width:0.14999995;stroke-linecap:round;stroke-linejoin:round;stroke-opacity:1"
         id="path384-1"
         inkscape:connector-curvature="0" />
      <path
         d="m 123.21032,84.180944 h 13.99794 m 0,0 v 14.00048 m 0,0 h -13.99794 m 0,0 v -14.00048"
         style="opacity:1;fill:none;fill-opacity:0.08333327;stroke:#000000;stroke-width:0.14999995;stroke-linecap:round;stroke-linejoin:round;stroke-opacity:1"
         id="path368-0"
         inkscape:connector-curvature="0" />
      <path
         d="m 94.65818,101.0821 h 14.00048 m 0,0 v 13.99794 m 0,0 H 94.65818 m 0,0 V 101.0821"
         style="opacity:1;fill:none;fill-opacity:0.08333327;stroke:#000000;stroke-width:0.14999995;stroke-linecap:round;stroke-linejoin:round;stroke-opacity:1"
         id="path288-9"
         inkscape:connector-curvature="0" />
      <path
         d="M 75.55992,96.931743 H 89.5604 m 0,0 v 14.000477 m 0,0 H 75.55992 m 0,0 V 96.931743"
         style="opacity:1;fill:none;fill-opacity:0.08333327;stroke:#000000;stroke-width:0.14999995;stroke-linecap:round;stroke-linejoin:round;stroke-opacity:1"
         id="path304-6"
         inkscape:connector-curvature="0" />
      <path
         d="M 56.45912,96.931743 H 70.4596 m 0,0 v 14.000477 m 0,0 H 56.45912 m 0,0 V 96.931743"
         style="opacity:1;fill:none;fill-opacity:0.08333327;stroke:#000000;stroke-width:0.14999995;stroke-linecap:round;stroke-linejoin:round;stroke-opacity:1"
         id="path320-8"
         inkscape:connector-curvature="0" />
      <path
         d="m 33.766758,101.65106 13.52296,-3.624578 m 0,0 3.62204,13.522958 m 0,0 -13.52296,3.62458 m 0,0 -3.62204,-13.52296"
         style="opacity:1;fill:none;fill-opacity:0.08333327;stroke:#000000;stroke-width:0.14999995;stroke-linecap:round;stroke-linejoin:round;stroke-opacity:1"
         id="path336-3"
         inkscape:connector-curvature="0" />
      <path
         d="m 22.981919,100.6884 7.00024,12.12596 m 0,0 -12.12596,6.9977 m 0,0 -7.00024,-12.12342 m 0,0 12.12596,-7.00024"
         style="opacity:1;fill:none;fill-opacity:0.08333327;stroke:#000000;stroke-width:0.14999995;stroke-linecap:round;stroke-linejoin:round;stroke-opacity:1"
         id="path352-4"
         inkscape:connector-curvature="0" />
      <path
         d="M 6.5124548,78.546911 H 22.173232 V 90.532734 H 6.5124548 V 78.546911"
         style="display:inline;fill:none;fill-opacity:0.08333327;stroke:#000000;stroke-width:0.11417206;stroke-miterlimit:4;stroke-dasharray:none;stroke-opacity:1"
         id="rect24304"
         inkscape:connector-curvature="0" />
    </g>
  </g>
</svg>
